<?xml version="1.0" standalone="no"?>
<!DOCTYPE svg PUBLIC "-//W3C//DTD SVG 1.1//EN" "http://www.w3.org/Graphics/SVG/1.1/DTD/svg11.dtd" >
<svg xmlns="http://www.w3.org/2000/svg" xmlns:xlink="http://www.w3.org/1999/xlink" version="1.1">
<metadata>
Created by FontForge 20161116 at Fri May 12 14:05:56 2006
 By Jimmy Wärting
Copyright (c) 2000, 2001 Adobe Systems Incorporated. All Rights Reserved. U.S.Patent Des. 327,902.Adobe Garamond is either a registered trademark or a trademark of Adobe Systems Incorporated in the United States and/or other countries.
</metadata>
<defs>
<font id="AGaramondPro-SemiboldItalic" horiz-adv-x="370" >
  <font-face 
    font-family="Adobe Garamond Pro"
    font-weight="600"
    font-style="italic"
    font-stretch="normal"
    units-per-em="1000"
    panose-1="2 2 6 2 6 5 6 9 4 3"
    ascent="725"
    descent="-275"
    x-height="405"
    cap-height="663"
    bbox="-593 -340 1176 893"
    underline-thickness="50"
    underline-position="-100"
    slope="-18.5"
    stemh="45"
    stemv="105"
    unicode-range="U+0020-FB04"
  />
<missing-glyph horiz-adv-x="500" 
d="M0 0v700h500v-700h-500zM250 395l170 255h-340zM280 350l170 -255v510zM80 50h340l-170 255zM50 605v-510l170 255z" />
    <glyph glyph-name="fi" unicode="fi" horiz-adv-x="523" 
d="M358 350h-104c-34 -100 -80 -282 -111 -380c-25 -78 -52 -138 -77 -170c-21 -27 -74 -69 -136 -69c-48 0 -84 32 -84 67c0 27 18 47 38 47c14 0 23 -7 31 -20c19 -30 41 -50 58 -50c15 0 29 16 49 85c34 120 82 314 132 490h-89c-10 14 -2 38 12 44h89
c26 84 55 155 89 204c51 73 120 117 209 117c75 0 123 -42 123 -90c0 -35 -34 -55 -60 -55c-28 0 -37 14 -38 32c-2 55 -22 77 -52 77c-31 0 -55 -19 -87 -71c-26 -43 -57 -129 -84 -214h68c78 0 132 18 156 18c12 0 26 -16 22 -30c0 -14 -3 -29 -8 -42l-104 -265
c-4 -9 -4 -17 4 -17c16 0 70 36 100 68c10 0 18 -10 16 -20c-26 -44 -122 -120 -196 -120c-18 0 -34 17 -34 30c0 12 4 22 11 42l95 258c12 32 4 34 -38 34z" />
    <glyph glyph-name="fl" unicode="fl" horiz-adv-x="524" 
d="M409 350h-155c-34 -100 -80 -282 -111 -380c-25 -78 -52 -138 -77 -170c-21 -27 -74 -69 -136 -69c-48 0 -84 32 -84 67c0 27 18 47 38 47c14 0 23 -7 31 -20c19 -30 41 -50 58 -50c15 0 29 16 49 85c34 120 82 314 132 490h-89c-8 14 0 38 12 44h91c22 74 49 150 89 206
c50 69 120 115 205 115c45 0 72 -14 87 -29c32 13 57 25 71 29c4 -1 9 -5 9 -8c-15 -39 -27 -71 -54 -151l-161 -474c-9 -26 -10 -40 4 -40c22 0 75 56 109 96c12 0 20 -6 18 -18c-28 -54 -87 -134 -188 -134c-40 0 -52 20 -52 36s4 34 18 74zM266 394h158l69 198
c15 44 2 87 -40 87c-36 0 -67 -22 -97 -66c-29 -41 -65 -129 -90 -219z" />
    <glyph glyph-name="ff" unicode="ff" horiz-adv-x="544" 
d="M416 350h-162c-34 -100 -80 -282 -111 -380c-25 -78 -52 -138 -77 -170c-21 -27 -74 -69 -136 -69c-48 0 -84 32 -84 67c0 27 18 47 38 47c14 0 23 -7 31 -20c19 -30 41 -50 58 -50c15 0 29 16 49 85c34 120 82 314 132 490h-91c-8 16 0 38 12 44h91c19 62 45 132 84 188
c48 67 111 110 191 110c56 0 90 -32 93 -63h2c44 56 102 86 161 86c68 0 106 -36 106 -79c0 -40 -32 -66 -54 -66c-14 0 -20 6 -22 20c-8 68 -37 89 -57 89c-22 0 -46 -25 -67 -67c-33 -66 -55 -142 -77 -218h119c8 -12 5 -36 -11 -44h-118c-27 -76 -73 -258 -104 -356
c-25 -78 -52 -138 -77 -170c-22 -28 -74 -70 -136 -70c-46 0 -82 32 -82 67c0 24 18 44 38 44c14 0 23 -7 29 -17c19 -31 41 -50 58 -50c15 0 29 16 49 86c34 120 82 314 125 466zM270 394h160c19 66 37 122 62 170c3 52 -26 92 -63 92c-32 0 -64 -24 -91 -75
c-25 -47 -47 -113 -68 -187z" />
    <glyph glyph-name="ffi" unicode="ffi" horiz-adv-x="785" 
d="M416 350h-162c-34 -100 -80 -282 -111 -380c-25 -78 -52 -138 -77 -170c-21 -27 -74 -69 -136 -69c-48 0 -84 32 -84 67c0 27 18 47 38 47c14 0 23 -7 31 -20c19 -30 41 -50 58 -50c15 0 29 16 49 85c34 120 82 314 132 490h-91c-8 16 0 38 12 44h91c19 62 45 132 84 188
c46 67 109 110 191 110c57 0 91 -32 95 -63h2c51 56 105 86 188 86c75 0 123 -42 123 -90c0 -35 -34 -55 -60 -55c-28 0 -37 14 -38 32c-2 55 -22 77 -52 77c-31 0 -55 -19 -89 -72c-27 -42 -55 -116 -82 -213h68c78 0 132 18 156 18c12 0 26 -16 22 -30
c0 -14 -3 -29 -8 -42l-104 -265c-4 -9 -4 -17 4 -17c16 0 70 36 100 68c10 0 18 -10 16 -20c-26 -44 -122 -120 -196 -120c-18 0 -34 17 -34 30c0 12 4 22 11 42l95 258c12 32 4 34 -38 34h-104c-27 -76 -73 -258 -104 -356c-25 -78 -52 -138 -77 -170
c-22 -28 -74 -70 -136 -70c-46 0 -82 32 -82 67c0 24 18 44 38 44c14 0 23 -7 29 -17c19 -31 41 -50 58 -50c15 0 29 16 49 86c34 120 82 314 125 466zM270 394h160c19 66 39 122 64 170c1 52 -28 92 -65 92c-32 0 -64 -24 -91 -75c-25 -47 -47 -113 -68 -187z" />
    <glyph glyph-name="ffl" unicode="ffl" horiz-adv-x="786" 
d="M416 350h-162c-34 -100 -80 -282 -111 -380c-25 -78 -52 -138 -77 -170c-21 -27 -74 -69 -136 -69c-48 0 -84 32 -84 67c0 27 18 47 38 47c14 0 23 -7 31 -20c19 -30 41 -50 58 -50c15 0 29 16 49 85c34 120 82 314 132 490h-91c-8 16 0 38 12 44h91c19 62 45 132 84 188
c48 69 111 110 191 110c59 0 93 -32 97 -63h2c52 56 111 86 177 86c48 0 79 -14 94 -29c32 13 57 25 71 29c4 -1 9 -5 9 -8c-15 -39 -27 -71 -54 -151l-161 -474c-9 -26 -10 -40 4 -40c22 0 75 56 109 96c12 0 20 -6 18 -18c-28 -54 -87 -134 -188 -134c-40 0 -52 20 -52 36
s4 34 18 74l86 254h-155c-27 -76 -73 -258 -104 -356c-25 -78 -52 -138 -77 -170c-22 -28 -74 -70 -136 -70c-46 0 -82 32 -82 67c0 24 18 44 38 44c14 0 23 -7 29 -17c19 -31 41 -50 58 -50c15 0 29 16 49 86c34 120 82 314 125 466zM270 394h160c19 66 38 122 65 170
c0 52 -29 92 -66 92c-32 0 -64 -24 -91 -75c-25 -47 -47 -113 -68 -187zM528 394h158l69 198c15 44 2 87 -42 87c-35 0 -67 -22 -98 -66c-29 -41 -62 -129 -87 -219z" />
    <glyph glyph-name="f_j" unicode="fj" horiz-adv-x="536" 
d="M374 350h-120c-34 -100 -80 -282 -111 -380c-25 -78 -52 -138 -77 -170c-21 -27 -74 -69 -136 -69c-48 0 -84 32 -84 67c0 27 18 47 38 47c14 0 23 -7 31 -20c19 -30 41 -50 58 -50c15 0 29 16 49 85c34 120 82 314 132 490h-89c-10 14 -2 38 12 44h89
c26 84 55 155 89 204c51 73 120 117 209 117c75 0 123 -42 123 -90c0 -35 -34 -55 -60 -55c-28 0 -37 14 -38 32c-2 55 -22 77 -52 77c-31 0 -55 -19 -87 -71c-26 -43 -57 -129 -84 -214h84c78 0 132 18 156 18c12 0 26 -16 22 -30c0 -14 -3 -29 -8 -42
c-7 -37 -22 -88 -35 -129c-26 -82 -61 -192 -89 -264c-24 -63 -58 -124 -108 -160c-26 -19 -59 -33 -99 -33c-49 0 -85 30 -85 65c0 30 25 46 41 46c7 0 17 -1 23 -11c26 -44 47 -57 61 -57c12 0 22 10 35 43c28 67 80 233 108 323c20 65 46 141 46 153c6 32 -2 34 -44 34z
" />
    <glyph glyph-name="f_f_j" unicode="ffj" horiz-adv-x="792" 
d="M416 350h-162c-34 -100 -80 -282 -111 -380c-25 -78 -52 -138 -77 -170c-21 -27 -74 -69 -136 -69c-48 0 -84 32 -84 67c0 27 18 47 38 47c14 0 23 -7 31 -20c19 -30 41 -50 58 -50c15 0 29 16 49 85c34 120 82 314 132 490h-91c-8 16 0 38 12 44h91c19 62 45 132 84 188
c46 67 109 110 191 110c57 0 91 -32 95 -63h2c51 56 105 86 188 86c75 0 123 -42 123 -90c0 -35 -34 -55 -60 -55c-28 0 -37 14 -38 32c-2 55 -22 77 -52 77c-31 0 -55 -19 -89 -72c-27 -42 -55 -116 -82 -213h78c78 0 132 18 156 18c12 0 26 -16 22 -30
c0 -14 -3 -29 -8 -42c-8 -35 -23 -88 -36 -129c-26 -82 -61 -192 -89 -264c-24 -63 -58 -124 -108 -160c-26 -19 -59 -33 -99 -33c-49 0 -85 30 -85 65c0 30 25 46 41 46c7 0 17 -1 23 -11c26 -44 47 -57 61 -57c12 0 22 10 35 43c28 67 80 233 108 323c20 65 46 141 46 153
c0 32 -11 34 -53 34h-104c-27 -76 -73 -258 -104 -356c-25 -78 -52 -138 -77 -170c-22 -28 -74 -70 -136 -70c-46 0 -82 32 -82 67c0 24 18 44 38 44c14 0 23 -7 29 -17c19 -31 41 -50 58 -50c15 0 29 16 49 86c34 120 82 314 125 466zM270 394h160c19 66 39 122 64 170
c1 52 -28 92 -65 92c-32 0 -64 -24 -91 -75c-25 -47 -47 -113 -68 -187z" />
    <glyph glyph-name="T_h" unicode="Th" horiz-adv-x="1021" 
d="M314 660h398c60 0 70 2 74 13l4 12l96 30c4 -2 6 -6 8 -8c-18 -50 -42 -112 -61 -167l-107 -302l2 -2c51 63 92 99 123 122c38 29 76 50 110 50c46 0 70 -34 70 -77c0 -76 -47 -180 -88 -242c-30 -46 -91 -103 -146 -103c-32 0 -48 18 -48 36c0 19 17 38 32 38
c6 0 12 -4 18 -10c10 -10 19 -16 25 -16c9 0 16 14 27 39c30 70 76 202 76 254c0 18 -6 27 -18 27c-10 0 -26 -7 -45 -21c-30 -22 -60 -54 -103 -111c-51 -66 -105 -185 -126 -220c-7 -12 -18 -16 -34 -16c-18 0 -52 6 -42 34l176 514c23 67 20 87 -75 87h-90
c-25 0 -25 -2 -37 -36l-150 -441c-30 -87 -31 -109 22 -114l42 -4c5 -8 2 -24 -6 -29c-56 2 -98 3 -146 3s-103 -1 -148 -3c-8 6 -8 25 2 29l40 5c41 5 50 16 83 112l153 441c12 35 8 37 -28 37h-64c-35 0 -63 -4 -86 -17c-28 -15 -48 -39 -77 -80c-10 -6 -28 0 -30 10
c30 53 59 112 75 150c4 6 16 6 24 2c-2 -20 10 -26 75 -26z" />
    <glyph glyph-name="T_h.commaaccent" unicode="&#x162;h" horiz-adv-x="1021" 
d="M314 660h398c60 0 70 2 74 13l4 12l96 30c4 -2 6 -6 8 -8c-18 -50 -42 -112 -61 -167l-107 -302l2 -2c51 63 92 99 123 122c38 29 76 50 110 50c46 0 70 -34 70 -77c0 -76 -47 -180 -88 -242c-30 -46 -91 -103 -146 -103c-32 0 -48 18 -48 36c0 19 17 38 32 38
c6 0 12 -4 18 -10c10 -10 19 -16 25 -16c9 0 16 14 27 39c30 70 76 202 76 254c0 18 -6 27 -18 27c-10 0 -26 -7 -45 -21c-30 -22 -60 -54 -103 -111c-51 -66 -105 -185 -126 -220c-7 -12 -18 -16 -34 -16c-18 0 -52 6 -42 34l176 514c23 67 20 87 -75 87h-90
c-25 0 -25 -2 -37 -36l-150 -441c-30 -87 -31 -109 22 -114l42 -4c5 -8 2 -24 -6 -29c-56 2 -98 3 -146 3s-103 -1 -148 -3c-8 6 -8 25 2 29l40 5c41 5 50 16 83 112l153 441c12 35 8 37 -28 37h-64c-35 0 -63 -4 -86 -17c-28 -15 -48 -39 -77 -80c-10 -6 -28 0 -30 10
c30 53 59 112 75 150c4 6 16 6 24 2c-2 -20 10 -26 75 -26zM323 -117c0 -72 -71 -124 -147 -144c-11 4 -13 21 -9 29c36 14 82 46 82 87c0 17 -9 31 -26 38c-9 3 -15 14 -15 25c0 24 22 44 47 44c35 0 68 -32 68 -79z" />
    <glyph glyph-name="T_h.caron" unicode="&#x164;h" horiz-adv-x="1021" 
d="M314 660h398c60 0 70 2 74 13l4 12l96 30c4 -2 6 -6 8 -8c-18 -50 -42 -112 -61 -167l-107 -302l2 -2c51 63 92 99 123 122c38 29 76 50 110 50c46 0 70 -34 70 -77c0 -76 -47 -180 -88 -242c-30 -46 -91 -103 -146 -103c-32 0 -48 18 -48 36c0 19 17 38 32 38
c6 0 12 -4 18 -10c10 -10 19 -16 25 -16c9 0 16 14 27 39c30 70 76 202 76 254c0 18 -6 27 -18 27c-10 0 -26 -7 -45 -21c-30 -22 -60 -54 -103 -111c-51 -66 -105 -185 -126 -220c-7 -12 -18 -16 -34 -16c-18 0 -52 6 -42 34l176 514c23 67 20 87 -75 87h-90
c-25 0 -25 -2 -37 -36l-150 -441c-30 -87 -31 -109 22 -114l42 -4c5 -8 2 -24 -6 -29c-56 2 -98 3 -146 3s-103 -1 -148 -3c-8 6 -8 25 2 29l40 5c41 5 50 16 83 112l153 441c12 35 8 37 -28 37h-64c-35 0 -63 -4 -86 -17c-28 -15 -48 -39 -77 -80c-10 -6 -28 0 -30 10
c30 53 59 112 75 150c4 6 16 6 24 2c-2 -20 10 -26 75 -26zM534 798l144 67c10 0 17 -13 16 -24l-167 -129c-18 -14 -37 -15 -50 0l-111 136c0 8 11 16 22 17l110 -67c10 -6 26 -6 36 0z" />
    <glyph glyph-name=".notdef" horiz-adv-x="500" 
d="M0 0v700h500v-700h-500zM250 395l170 255h-340zM280 350l170 -255v510zM80 50h340l-170 255zM50 605v-510l170 255z" />
    <glyph glyph-name="space" unicode=" " horiz-adv-x="245" 
 />
    <glyph glyph-name="space" unicode="&#xa0;" horiz-adv-x="245" 
 />
    <glyph glyph-name="exclam" unicode="!" horiz-adv-x="250" 
d="M132 206l61 302c11 54 17 85 23 102c11 30 32 36 68 36c42 0 58 -15 52 -38c-4 -16 -19 -46 -41 -98l-129 -304c-8 -8 -26 -8 -34 0zM97 -14c-34 0 -56 22 -56 58c0 42 30 78 72 78c34 0 54 -24 54 -60c0 -44 -32 -76 -70 -76z" />
    <glyph glyph-name="quotedbl" unicode="&#x22;" horiz-adv-x="430" 
d="M215 440l18 182c2 24 4 38 8 48c6 26 22 30 56 30s52 -6 46 -32c-2 -10 -8 -24 -18 -46l-80 -182c-8 -8 -24 -8 -30 0zM393 440l18 182c2 24 4 38 8 48c6 26 22 30 56 30s52 -6 46 -32c-2 -10 -8 -24 -18 -46l-80 -182c-8 -8 -24 -8 -30 0z" />
    <glyph glyph-name="numbersign" unicode="#" horiz-adv-x="510" 
d="M232 244h106l67 158h-106zM322 456h106l71 168h52l-72 -168h103l-17 -54h-109l-67 -158h99l-19 -54h-103l-80 -187h-51l80 187h-106l-80 -187h-51l80 187h-106l19 54h110l67 158h-107l20 54h110l71 168h52z" />
    <glyph glyph-name="dollar" unicode="$" horiz-adv-x="510" 
d="M312 272l-70 -234h8c74 0 128 48 128 116c0 62 -26 92 -66 118zM308 394l60 200c-70 -2 -118 -50 -118 -108c0 -44 26 -72 58 -92zM158 -94l28 98c-78 10 -130 44 -144 66c-8 28 -4 86 8 138c6 6 22 6 28 0c4 -70 44 -144 122 -162l76 248c-66 40 -114 84 -114 154
c0 114 94 182 218 184l24 78c10 10 34 10 44 0l-24 -80c46 -4 90 -22 118 -34c2 -30 -2 -76 -16 -126c-6 -6 -22 -6 -28 0c0 54 -24 108 -88 122l-66 -220c72 -40 132 -88 132 -178c0 -120 -102 -194 -238 -194h-8l-30 -94c-10 -8 -36 -8 -42 0z" />
    <glyph glyph-name="percent" unicode="%" horiz-adv-x="864" 
d="M728 376c82 0 122 -54 122 -138c0 -112 -86 -252 -206 -252c-84 0 -124 56 -124 134c0 120 88 256 208 256zM730 340c-26 0 -50 -20 -70 -50c-36 -56 -62 -152 -62 -202c0 -40 14 -66 44 -66c28 0 52 24 70 52c34 56 62 156 62 204c0 38 -14 62 -44 62zM342 640
c82 0 122 -54 122 -138c0 -112 -86 -252 -206 -252c-84 0 -124 56 -124 134c0 120 88 256 208 256zM344 604c-26 0 -50 -20 -70 -50c-36 -56 -62 -152 -62 -202c0 -40 14 -66 44 -66c28 0 52 24 70 52c34 56 62 156 62 204c0 38 -14 62 -44 62zM240 -40c-18 -2 -32 8 -34 24
c94 112 436 558 528 670c14 2 34 -8 34 -24c-94 -112 -436 -558 -528 -670z" />
    <glyph glyph-name="ampersand" unicode="&#x26;" horiz-adv-x="788" 
d="M334 482c46 0 58 -26 66 -44c42 34 100 96 126 132c12 16 34 54 34 80c0 12 -3 20 -11 29c-7 9 -11 17 -11 29c0 34 24 52 51 52c28 0 55 -20 55 -64c0 -54 -38 -114 -132 -206c-84 -82 -254 -214 -334 -274c8 -86 80 -146 164 -146c82 0 168 42 228 138
c40 63 52 118 52 178c-8 12 -34 24 -58 24c-26 0 -58 -24 -58 -52c0 -10 6 -22 12 -36c4 -10 8 -18 8 -28c0 -14 -11 -34 -41 -34c-24 0 -45 18 -45 48c0 32 21 74 70 116c40 34 84 42 98 42c56 0 90 -34 133 -77c25 -25 29 -29 41 -29c10 0 18 10 18 26c0 10 -4 21 -6 28
c-2 6 -4 14 -4 20c0 12 13 30 34 30c32 0 48 -28 48 -64c0 -22 -13 -43 -23 -55c-8 -7 -13 -9 -24 -11c-27 -5 -63 -18 -85 -32c-10 -7 -17 -4 -23 4c-7 10 -33 40 -63 62c0 -18 0 -50 -2 -70c0 -32 -22 -120 -98 -202c-74 -78 -169 -110 -250 -110
c-156 0 -216 100 -216 200c0 58 19 142 89 213c71 73 137 83 157 83zM320 398c0 20 -14 34 -34 34c-14 0 -44 -14 -70 -52c-24 -36 -36 -78 -40 -122c52 42 110 86 138 114c8 8 6 22 6 26z" />
    <glyph glyph-name="quoteright" unicode="&#x2019;" horiz-adv-x="242" 
d="M340 608c0 -74 -80 -134 -168 -156c-10 4 -12 18 -8 26c44 16 96 52 96 100c0 20 -12 33 -32 42c-10 5 -18 14 -18 28c0 28 24 52 54 52c42 0 76 -38 76 -92z" />
    <glyph glyph-name="parenleft" unicode="(" horiz-adv-x="330" 
d="M94 150c0 162 70 312 182 426c76 76 144 110 180 128c12 -2 18 -10 16 -18c-60 -38 -125 -97 -174 -170c-77 -115 -132 -256 -132 -400c0 -90 16 -192 60 -264c0 -8 -8 -16 -20 -16c-78 78 -112 192 -112 314z" />
    <glyph glyph-name="parenright" unicode=")" horiz-adv-x="330" 
d="M327 390c0 -162 -70 -312 -182 -426c-76 -76 -144 -110 -180 -128c-12 2 -18 10 -16 18c60 38 125 97 174 170c77 115 132 256 132 400c0 90 -16 192 -60 264c0 8 8 16 20 16c78 -78 112 -192 112 -314z" />
    <glyph glyph-name="asterisk" unicode="*" horiz-adv-x="400" 
d="M376 671l-19 -126l135 28c8 -3 12 -21 5 -27l-129 -51l90 -102c3 -11 -8 -25 -20 -23l-103 89l-44 -117c-8 -5 -25 -3 -29 7l23 124l-132 -32c-10 5 -15 22 -7 30l127 48l-90 105c-3 11 9 23 18 21l106 -88l42 118c7 6 22 4 27 -4z" />
    <glyph glyph-name="plus" unicode="+" horiz-adv-x="510" 
d="M304 0h-75v174h-155v63h155v157h75v-157h155v-63h-155v-174z" />
    <glyph glyph-name="comma" unicode="," horiz-adv-x="255" 
d="M176 48c0 -78 -84 -138 -174 -162c-12 4 -14 18 -10 28c44 16 98 54 98 102c0 20 -12 36 -32 44c-10 4 -18 16 -18 30c0 28 26 52 56 52c42 0 80 -38 80 -94z" />
    <glyph glyph-name="hyphen" unicode="-" horiz-adv-x="320" 
d="M66 228l238 22c6 -6 9 -20 9 -33c0 -12 -3 -24 -9 -32l-238 -22c-6 6 -9 21 -9 32c0 13 3 23 9 33z" />
    <glyph glyph-name="hyphen" unicode="&#xad;" horiz-adv-x="320" 
d="M66 228l238 22c6 -6 9 -20 9 -33c0 -12 -3 -24 -9 -32l-238 -22c-6 6 -9 21 -9 32c0 13 3 23 9 33z" />
    <glyph glyph-name="period" unicode="." horiz-adv-x="255" 
d="M112 122c34 0 54 -24 54 -60c0 -44 -32 -76 -70 -76c-34 0 -56 22 -56 58c0 42 30 78 72 78z" />
    <glyph glyph-name="slash" unicode="/" horiz-adv-x="270" 
d="M377 676l-308 -692h-78l308 692h78z" />
    <glyph glyph-name="zero" unicode="0" horiz-adv-x="510" 
d="M228 -14c-128 0 -158 104 -158 194c0 122 56 266 132 354c54 62 118 106 194 106c128 0 156 -106 156 -198c0 -114 -58 -264 -134 -356c-48 -58 -114 -100 -190 -100zM397 602c-59 0 -107 -95 -147 -180c-46 -99 -80 -226 -80 -306c0 -58 20 -92 61 -92
c57 0 104 88 133 154c43 98 90 238 90 328c0 46 -8 96 -57 96z" />
    <glyph glyph-name="one" unicode="1" horiz-adv-x="510" 
d="M344 32l32 -4c8 -6 6 -26 -2 -32c-52 2 -98 4 -150 4c-46 0 -90 -2 -136 -4c-10 8 -8 26 2 32l30 4c58 8 66 20 90 98l100 326c13 42 16 60 16 72c0 16 -10 21 -32 24l-44 6c-8 6 -8 24 2 28c44 6 86 16 122 26s72 26 84 28c8 0 12 -2 14 -8c-12 -30 -30 -78 -42 -118
l-120 -388c-24 -78 -16 -88 34 -94z" />
    <glyph glyph-name="two" unicode="2" horiz-adv-x="510" 
d="M260 0h-156c-52 0 -90 -1 -114 -3c-4 5 -6 13 -4 19c58 38 99 71 200 152c87 71 236 190 236 298c0 74 -40 112 -104 112c-54 0 -108 -40 -142 -92c-12 -4 -28 4 -26 18c46 84 130 136 218 136c104 0 172 -58 172 -156c0 -108 -105 -183 -194 -250l-72 -54
c-87 -65 -104 -80 -104 -87c0 -6 6 -9 32 -9h116c78 0 88 4 128 56c8 3 22 0 26 -10c-14 -46 -46 -112 -66 -133c-24 1 -48 2 -72 2c-24 1 -49 1 -74 1z" />
    <glyph glyph-name="three" unicode="3" horiz-adv-x="510" 
d="M488 242c0 -94 -76 -180 -150 -226c-88 -56 -182 -72 -242 -72c-64 0 -110 22 -110 64c0 28 22 50 50 50c30 0 44 -26 56 -42c14 -20 32 -30 58 -30c34 0 81 15 118 42c61 43 98 116 98 194c0 66 -36 112 -104 112c-40 0 -78 -22 -106 -48c-20 2 -30 30 -16 46
c42 16 130 50 176 78c50 30 86 68 86 108c0 48 -34 70 -76 70c-48 0 -100 -34 -138 -86c-14 -2 -24 6 -24 20c42 70 124 118 210 118c76 0 136 -40 136 -108c0 -66 -72 -108 -146 -136c-16 -6 -8 -14 6 -16c58 -8 118 -54 118 -138z" />
    <glyph glyph-name="four" unicode="4" horiz-adv-x="510" 
d="M407 30l22 -2c8 -6 4 -28 -4 -32c-46 2 -90 4 -130 4c-44 0 -90 -2 -134 -4c-8 8 -6 26 2 32l38 2c52 3 58 20 78 84l16 52c6 20 4 22 -20 22h-230c-10 4 -12 12 -10 24c0 6 8 12 18 22l460 458c8 8 16 14 28 14h28c10 0 14 -4 12 -10c0 -4 -4 -8 -10 -14l-438 -428
c-12 -12 -8 -18 22 -18h136c22 0 27 2 32 20l50 170c5 16 14 22 26 28c20 10 62 24 76 24c12 0 15 -8 10 -24l-60 -196c-6 -18 -6 -22 14 -22h64c10 -10 2 -40 -12 -48h-62c-22 0 -24 -3 -32 -24l-18 -50c-23 -65 -16 -80 28 -84z" />
    <glyph glyph-name="five" unicode="5" horiz-adv-x="510" 
d="M282 620l262 34c8 0 12 -8 12 -12c-10 -28 -34 -63 -56 -81l-224 -30c-24 -3 -34 -5 -42 -23l-18 -42c-7 -17 -2 -20 8 -21c129 -18 252 -65 250 -217c-2 -110 -94 -197 -194 -241c-80 -35 -184 -53 -264 -55c-16 4 -16 28 -6 36c174 5 360 95 360 238
c0 116 -104 153 -224 159c-18 1 -20 13 -8 33l94 194c9 18 18 24 50 28z" />
    <glyph glyph-name="six" unicode="6" horiz-adv-x="510" 
d="M260 -14c-130 0 -196 80 -196 201c0 131 85 282 216 377c120 87 266 124 358 128c10 -2 10 -22 4 -28c-92 -18 -184 -51 -274 -122c-118 -93 -194 -254 -194 -384c0 -70 18 -134 90 -134c90 0 132 126 132 200c0 54 -20 103 -72 108c-14 1 -34 0 -48 -4c-6 6 -8 18 -2 24
c24 18 62 34 92 34c84 0 144 -56 144 -160c0 -128 -110 -240 -250 -240z" />
    <glyph glyph-name="seven" unicode="7" horiz-adv-x="510" 
d="M308 626h190c62 0 114 0 128 2c6 -2 8 -8 6 -14c-36 -38 -79 -91 -136 -166l-388 -512c-18 -4 -38 10 -36 28l396 522c24 32 26 38 26 47s-16 9 -28 9h-188c-64 0 -84 -6 -116 -50c-6 -6 -24 0 -26 10c20 36 44 88 58 126c24 -2 60 -2 114 -2z" />
    <glyph glyph-name="eight" unicode="8" horiz-adv-x="510" 
d="M244 -14c-105 0 -193 54 -193 155c0 105 92 160 179 193c-40 30 -68 71 -68 120c0 106 91 186 199 186c99 0 175 -56 175 -152c0 -82 -76 -128 -148 -152c48 -34 92 -84 92 -154c0 -120 -104 -196 -236 -196zM150 144c0 -76 46 -120 107 -120c63 0 119 46 119 126
s-60 126 -112 158c-64 -32 -114 -88 -114 -164zM354 362c46 20 90 74 90 140c0 56 -30 100 -86 100c-58 0 -102 -46 -102 -110s44 -96 98 -130z" />
    <glyph glyph-name="nine" unicode="9" horiz-adv-x="510" 
d="M8 -60c-10 4 -12 22 -6 28c120 30 227 87 305 175c83 93 139 229 139 337c0 60 -16 122 -84 122c-78 0 -134 -104 -134 -190c0 -58 20 -102 74 -110c12 -2 24 -2 42 -2c4 -2 6 -14 2 -20c-22 -16 -62 -26 -86 -26c-82 0 -138 58 -138 148c0 118 108 238 245 238
c125 0 187 -83 187 -200c0 -102 -63 -223 -150 -310c-105 -107 -268 -176 -396 -190z" />
    <glyph glyph-name="colon" unicode=":" horiz-adv-x="255" 
d="M218 462c34 0 54 -24 54 -60c0 -44 -32 -76 -70 -76c-34 0 -56 22 -56 58c0 42 30 78 72 78zM112 122c34 0 54 -24 54 -60c0 -44 -32 -76 -70 -76c-34 0 -56 22 -56 58c0 42 30 78 72 78z" />
    <glyph glyph-name="semicolon" unicode=";" horiz-adv-x="255" 
d="M176 48c0 -78 -84 -138 -174 -162c-12 4 -14 18 -10 28c44 16 98 54 98 102c0 20 -12 36 -32 44c-10 4 -18 16 -18 30c0 28 26 52 56 52c42 0 80 -38 80 -94zM218 462c34 0 54 -24 54 -60c0 -44 -32 -76 -70 -76c-34 0 -56 22 -56 58c0 42 30 78 72 78z" />
    <glyph glyph-name="less" unicode="&#x3c;" horiz-adv-x="510" 
d="M56 229l389 185v-75l-297 -131v-2l297 -132v-74l-389 184v45z" />
    <glyph glyph-name="equal" unicode="=" horiz-adv-x="510" 
d="M458 312v-63h-385v63h385zM458 162v-63h-385v63h385z" />
    <glyph glyph-name="greater" unicode="&#x3e;" horiz-adv-x="510" 
d="M92 414l389 -185v-45l-389 -184v74l297 132v2l-297 131v75z" />
    <glyph glyph-name="question" unicode="?" horiz-adv-x="326" 
d="M262 646c64 0 132 -72 132 -156c0 -60 -38 -107 -104 -138l-72 -34c-40 -19 -56 -36 -56 -62c0 -16 2 -30 6 -48c-4 -6 -16 -8 -22 -4c-20 24 -36 66 -32 102c6 46 39 74 94 100l68 32c44 21 74 40 74 68c0 32 -32 56 -66 56c-20 0 -36 -4 -48 -8c-14 -4 -24 -8 -30 -8
c-16 0 -28 14 -28 34c0 32 30 66 84 66zM126 -14c-34 0 -56 22 -56 58c0 42 30 78 72 78c34 0 54 -24 54 -60c0 -44 -32 -76 -70 -76z" />
    <glyph glyph-name="at" unicode="@" horiz-adv-x="774" 
d="M511 502c-191 0 -312 -169 -312 -350c0 -112 61 -267 281 -267c75 0 126 20 158 33c8 -4 11 -15 9 -22c-60 -33 -137 -46 -201 -46c-168 0 -331 103 -331 304c0 237 190 387 396 387c190 0 293 -128 293 -270c0 -130 -96 -230 -251 -230c-66 0 -73 19 -73 28
c0 5 2 18 7 33l24 54l-2 1c-60 -62 -148 -116 -190 -116c-30 0 -44 22 -44 44c0 19 18 82 77 155c47 58 119 125 202 125c14 0 31 -8 36 -22l24 51c18 6 42 -2 56 -12c-12 -30 -100 -234 -115 -271c-9 -24 -5 -32 16 -34c90 -9 186 73 186 190c0 147 -109 235 -246 235z
M362 103c0 -10 2 -14 6 -14c6 0 32 6 80 49c49 44 106 132 117 163c-5 15 -20 27 -41 27c-20 0 -36 -7 -60 -28c-53 -47 -102 -147 -102 -197z" />
    <glyph glyph-name="A" unicode="A" horiz-adv-x="608" 
d="M388 247h-131c-30 0 -30 -1 -47 -28l-69 -111c-25 -41 -32 -55 -32 -62s7 -11 25 -14l32 -6c8 -6 6 -23 -3 -29c-42 2 -74 3 -115 3c-37 0 -71 -1 -104 -3c-9 6 -9 23 -1 29l25 4c40 6 57 18 93 69c13 18 108 149 145 203l160 230c38 54 59 89 62 107c36 2 73 28 90 37
c8 0 16 -4 16 -11c0 -16 -2 -58 -5 -144c-4 -128 -7 -257 -9 -385c-2 -91 2 -101 52 -107l24 -3c6 -7 4 -24 -4 -29c-42 2 -82 3 -130 3c-51 0 -92 -1 -123 -3c-12 5 -11 23 -3 29l27 4c42 6 47 14 49 61l6 133c1 21 -4 23 -30 23zM287 292h107c20 0 23 2 24 24l9 169
c1 22 0 37 1 61h-2c-7 -12 -21 -33 -48 -73l-109 -163c-10 -15 -8 -18 18 -18z" />
    <glyph glyph-name="B" unicode="B" horiz-adv-x="612" 
d="M234 620l-32 4c-8 6 -6 24 5 28c45 5 104 11 197 11c155 0 249 -43 249 -149c0 -94 -87 -140 -147 -147c-21 -3 -23 -7 -23 -9c2 -2 3 -4 15 -8c55 -19 96 -70 97 -140c1 -76 -47 -141 -117 -176c-54 -27 -121 -37 -214 -37c-49 0 -90 3 -122 3c-43 0 -89 -1 -128 -3
c-10 5 -8 25 2 29l25 4c45 7 58 16 88 114l120 385c23 75 24 86 -15 91zM353 372c85 0 184 49 184 155c0 55 -38 97 -110 97c-32 0 -39 0 -50 -34l-60 -190c-8 -24 -5 -28 36 -28zM286 303l-55 -179c-20 -66 1 -88 58 -88c86 0 184 58 184 180c0 79 -57 119 -129 119
c-44 0 -49 -2 -58 -32z" />
    <glyph glyph-name="C" unicode="C" horiz-adv-x="656" 
d="M575 676c84 0 155 -25 183 -34c-20 -45 -36 -100 -47 -145c-6 -8 -30 -8 -32 2c12 94 -22 138 -114 138c-76 0 -161 -34 -236 -119c-53 -61 -105 -169 -105 -282c0 -151 75 -213 174 -213c94 0 155 56 214 140c10 6 24 4 30 -5c-14 -44 -44 -107 -68 -150
c-21 -2 -47 -9 -78 -14c-30 -5 -62 -10 -100 -10c-172 0 -295 89 -294 262c1 128 64 241 144 312c73 65 186 118 329 118z" />
    <glyph glyph-name="D" unicode="D" horiz-adv-x="757" 
d="M236 618l-34 6c-8 6 -6 24 2 29c37 4 116 10 209 10c111 0 196 -21 255 -59c74 -49 108 -126 108 -218c0 -108 -51 -211 -133 -280c-116 -97 -268 -109 -358 -109c-47 0 -97 3 -138 3c-43 0 -83 -1 -132 -3c-8 5 -8 25 2 29l28 4c45 6 54 17 84 114l122 391
c20 65 18 77 -15 83zM374 577l-137 -441c-11 -36 -11 -57 -2 -72c8 -15 28 -28 72 -28c65 0 133 18 200 67c98 72 147 202 147 293c0 82 -17 230 -227 228c-34 0 -40 -6 -53 -47z" />
    <glyph glyph-name="E" unicode="E" horiz-adv-x="588" 
d="M262 0h-121c-43 0 -83 -1 -136 -3c-10 5 -8 23 2 29l34 4c47 6 58 17 88 114l116 372c27 87 27 102 -21 114l-24 6c-8 6 -4 22 6 27c21 -1 43 -1 66 -2c22 0 45 -1 64 -1h204c63 0 116 0 138 3c-8 -17 -32 -92 -45 -145c-6 -8 -28 -10 -32 0c4 43 4 71 -19 85
c-16 10 -46 18 -95 18h-66c-30 0 -34 -4 -44 -36l-60 -191c-9 -28 -8 -29 20 -29h54c73 0 90 7 114 53l14 27c8 8 30 6 32 -2c-10 -25 -23 -64 -36 -102s-21 -75 -27 -101c-8 -7 -28 -7 -32 0l2 26c4 50 -16 54 -81 54h-52c-27 0 -31 -2 -39 -28l-41 -128
c-17 -52 -23 -83 -14 -102c7 -15 24 -23 100 -23c99 0 136 6 209 109c8 6 26 4 31 -6c-13 -40 -49 -118 -72 -145c-32 1 -72 2 -113 2c-41 1 -84 1 -124 1z" />
    <glyph glyph-name="F" unicode="F" horiz-adv-x="546" 
d="M13 26l30 4c45 6 56 17 86 114l116 372c27 87 28 104 -21 115l-22 5c-8 6 -6 22 6 27c20 -1 40 -2 61 -2c21 -1 44 -1 67 -1h195c63 0 116 0 138 3c-7 -17 -31 -92 -45 -145c-4 -8 -28 -10 -32 0c4 43 4 72 -18 85c-17 10 -45 18 -96 18h-63c-26 0 -28 -3 -38 -36
l-63 -203c-7 -23 -6 -26 17 -26h67c73 0 91 7 115 51l15 28c6 8 28 6 32 -2c-10 -23 -24 -63 -36 -100s-21 -75 -29 -102c-6 -8 -26 -8 -32 0l3 31c4 39 -13 49 -80 49h-69c-23 0 -27 -2 -35 -29l-42 -138c-27 -87 -30 -108 21 -114l36 -4c6 -8 4 -23 -6 -29
c-57 2 -101 3 -146 3c-43 0 -83 -1 -134 -3c-8 6 -8 23 2 29z" />
    <glyph glyph-name="G" unicode="G" horiz-adv-x="719" 
d="M650 181l-27 -87c-9 -29 -10 -43 4 -49c2 -4 2 -16 -6 -18c-20 -6 -47 -14 -65 -19c-50 -15 -111 -24 -156 -24c-197 0 -296 105 -296 267c0 110 52 224 142 303c81 71 193 122 347 122c93 0 160 -23 188 -33c-20 -46 -36 -101 -48 -146c-6 -10 -27 -8 -31 0
c14 96 -22 140 -121 140c-98 0 -179 -45 -239 -111c-67 -73 -117 -191 -117 -299c0 -154 93 -204 187 -204c55 0 82 12 102 75l26 83c20 63 14 77 -39 84l-36 5c-10 6 -8 24 2 29c63 -2 105 -3 150 -3c41 0 89 1 114 3c10 -5 8 -23 0 -29l-21 -5c-34 -8 -39 -17 -60 -84z
" />
    <glyph glyph-name="H" unicode="H" horiz-adv-x="772" 
d="M129 144l116 372c27 87 30 109 -23 115l-25 3c-6 8 -2 24 6 29c48 -2 90 -3 138 -3s88 1 131 3c8 -6 8 -25 -2 -29l-28 -4c-45 -6 -55 -17 -86 -114l-38 -120c-9 -29 -8 -31 38 -31h206c49 0 52 2 61 31l37 120c27 87 30 109 -23 115l-25 3c-6 8 -2 24 6 29
c49 -2 90 -3 139 -3c48 0 87 1 131 3c8 -6 8 -25 -2 -29l-28 -4c-45 -6 -57 -17 -87 -114l-116 -372c-27 -87 -29 -107 24 -114l29 -4c6 -8 2 -24 -5 -29c-54 2 -95 3 -143 3c-49 0 -88 -1 -131 -3c-8 6 -8 25 2 29l27 3c45 5 56 18 86 115l47 152c7 22 8 24 -41 24h-208
c-45 0 -47 -4 -55 -28l-47 -148c-28 -87 -30 -108 23 -114l35 -4c6 -8 2 -24 -6 -29c-58 2 -100 3 -148 3s-88 -1 -126 -3c-8 6 -8 25 2 29l23 3c45 6 56 18 86 115z" />
    <glyph glyph-name="I" unicode="I" horiz-adv-x="357" 
d="M263 30l30 -4c6 -8 2 -24 -6 -29c-53 2 -95 3 -143 3s-88 -1 -131 -3c-8 6 -8 25 2 29l28 4c45 6 56 17 86 114l116 372c27 87 30 107 -23 114l-30 4c-6 8 -2 24 6 29c53 -2 95 -3 143 -3s88 1 131 3c8 -6 8 -25 -2 -29l-28 -4c-45 -6 -56 -17 -86 -114l-116 -372
c-27 -87 -30 -107 23 -114z" />
    <glyph glyph-name="J" unicode="J" horiz-adv-x="361" 
d="M366 516l-134 -433c-19 -60 -38 -114 -67 -162c-46 -76 -115 -123 -216 -123c-36 0 -73 10 -73 36c0 13 8 27 18 39c10 10 19 16 29 16c16 0 30 -10 44 -20c16 -12 27 -22 43 -22c24 0 42 38 60 84c7 17 33 91 65 195l121 390c27 87 29 109 -24 115l-36 4
c-6 8 -2 23 6 28c60 -2 101 -3 150 -3c48 0 88 1 125 3c8 -6 8 -24 -2 -28l-22 -3c-45 -6 -57 -19 -87 -116z" />
    <glyph glyph-name="K" unicode="K" horiz-adv-x="665" 
d="M129 144l116 372c27 87 30 109 -23 115l-25 3c-6 8 -2 24 6 29c48 -2 90 -3 138 -3s88 1 131 3c8 -6 8 -25 -2 -29l-28 -4c-45 -6 -55 -17 -86 -114l-42 -130c-7 -22 -5 -29 12 -29c12 0 22 2 34 7c21 12 53 40 88 73l113 105c17 15 48 47 56 57c8 8 10 12 10 16
c0 6 -6 10 -22 14l-16 4c-8 8 -6 26 6 30c43 -2 79 -3 122 -3c41 0 85 3 114 3c10 -4 10 -24 0 -29l-19 -4c-20 -4 -44 -10 -65 -17c-42 -15 -108 -64 -183 -130l-98 -87c-15 -14 -24 -24 -24 -32c0 -5 2 -11 9 -31c17 -45 92 -197 112 -240c19 -42 33 -58 71 -63l25 -6
c8 -6 6 -24 -2 -28c-38 2 -80 4 -124 4c-42 0 -85 -1 -127 -3c-8 6 -8 24 0 29l26 4c31 5 31 17 18 44c-4 8 -42 91 -46 100l-40 88c-22 49 -31 61 -46 61c-21 0 -27 -14 -37 -47l-41 -132c-27 -87 -30 -108 23 -114l33 -4c6 -8 2 -24 -6 -29c-56 2 -98 3 -146 3
s-88 -1 -131 -3c-8 6 -8 25 2 29l28 4c45 6 56 17 86 114z" />
    <glyph glyph-name="L" unicode="L" horiz-adv-x="558" 
d="M259 0h-116c-48 0 -86 -1 -129 -3c-8 5 -8 25 2 29l28 4c45 6 53 17 84 114l118 372c28 87 28 103 -23 113l-26 5c-8 6 -6 25 6 29c48 -2 90 -3 135 -3s83 1 135 3c8 -6 8 -25 -2 -29l-28 -4c-49 -7 -56 -17 -86 -114l-111 -352c-16 -50 -23 -81 -15 -100s29 -25 91 -25
c101 0 140 6 211 109c12 6 26 4 32 -6c-14 -42 -50 -118 -71 -145c-33 1 -73 2 -114 2c-41 1 -83 1 -121 1z" />
    <glyph glyph-name="M" unicode="M" horiz-adv-x="875" 
d="M-18 26l25 4c26 4 46 9 58 24c17 19 46 86 96 218l85 224c27 71 32 101 26 114c-5 11 -15 16 -30 18l-38 6c-6 7 -4 24 8 29c51 -2 91 -3 132 -3c28 0 51 1 87 3c-18 -48 -8 -127 0 -194l12 -106c8 -71 13 -125 19 -157c24 30 57 73 95 125l137 185c68 92 87 130 93 147
c16 -2 44 -3 75 -3c44 0 77 1 125 3c9 -6 9 -25 -1 -29l-25 -4c-28 -4 -42 -9 -53 -23c-12 -16 -26 -46 -44 -112l-89 -333c-17 -65 -24 -101 -20 -112s12 -16 39 -20l27 -4c8 -8 5 -23 -3 -29c-53 2 -100 3 -148 3c-45 0 -86 -1 -128 -3c-8 7 -8 25 2 29l28 5
c18 3 38 9 46 17c15 13 28 51 46 110l82 275c16 52 26 87 34 117l-2 2c-18 -26 -42 -54 -85 -113l-148 -201c-54 -73 -106 -146 -152 -222c-9 -6 -25 -6 -31 4c1 37 -2 90 -12 205c-3 29 -12 136 -14 165c-5 67 -12 130 -15 167h-2c-18 -41 -34 -88 -54 -143l-63 -174
c-47 -130 -57 -161 -58 -181c-1 -12 5 -23 27 -26l45 -7c6 -8 6 -23 -4 -29c-37 2 -79 3 -122 3s-75 -1 -110 -3c-6 7 -6 25 2 29z" />
    <glyph glyph-name="N" unicode="N" horiz-adv-x="730" 
d="M154 242l79 260c18 60 30 93 20 109c-4 10 -14 15 -28 17l-33 8c-8 6 -4 22 6 27c21 -1 39 -2 57 -2c18 -1 37 -1 57 -1c12 0 63 0 75 2c2 -58 41 -141 63 -191l75 -175c28 -65 45 -105 56 -127c5 9 11 28 17 48l62 201c21 67 37 138 41 159c6 35 -3 46 -46 53l-26 4
c-6 8 -6 22 4 29c41 -2 77 -3 120 -3c40 0 71 1 111 3c6 -6 8 -23 0 -29l-26 -5c-31 -6 -52 -12 -69 -44c-10 -19 -28 -71 -58 -167l-74 -237c-28 -90 -41 -140 -55 -182c-8 -6 -30 -10 -48 -8c-7 15 -27 76 -74 186l-93 219c-23 53 -51 126 -65 156c-4 -6 -10 -28 -27 -83
l-69 -227c-20 -67 -38 -138 -42 -159c-6 -35 3 -46 47 -53l25 -4c6 -8 6 -22 -4 -29c-41 2 -77 3 -120 3c-39 0 -71 -1 -110 -3c-7 6 -9 23 0 29l25 5c31 6 52 12 69 44c10 19 29 71 58 167z" />
    <glyph glyph-name="O" unicode="O" horiz-adv-x="748" 
d="M371 -16c-202 0 -269 146 -267 264c2 125 59 251 161 337c79 68 166 91 246 91c129 0 263 -77 259 -276c-2 -112 -51 -227 -134 -308c-51 -51 -144 -108 -265 -108zM517 637c-52 0 -95 -25 -128 -51c-77 -63 -165 -215 -169 -385c-2 -91 38 -178 145 -178
c45 0 102 16 155 75c91 101 132 241 134 367c2 111 -53 172 -137 172z" />
    <glyph glyph-name="P" unicode="P" horiz-adv-x="584" 
d="M262 30l34 -4c5 -8 1 -24 -6 -29c-53 2 -99 3 -147 3c-45 0 -83 -1 -130 -3c-10 5 -10 25 1 29l30 4c45 6 54 17 84 114l124 395c19 61 18 76 -17 81l-42 6c-8 6 -4 22 6 26c50 6 103 11 178 11c92 0 160 -14 205 -45c46 -31 69 -77 69 -135c0 -99 -80 -166 -169 -188
c-52 -13 -91 -16 -124 -16c-8 6 -9 18 -2 26c90 12 179 83 179 205c0 75 -44 114 -116 114c-26 0 -29 -5 -38 -34l-141 -446c-27 -87 -29 -108 22 -114z" />
    <glyph glyph-name="Q" unicode="Q" horiz-adv-x="748" 
d="M511 676c129 0 263 -77 259 -276c-2 -112 -51 -227 -134 -308c-36 -36 -92 -74 -164 -94c2 -8 5 -12 8 -16c56 -54 138 -123 216 -148c30 -9 60 -10 78 -10s38 4 50 8c8 -2 10 -12 8 -18c-32 -24 -86 -34 -126 -34c-142 0 -264 82 -348 182c-17 20 -28 25 -44 27
c-132 13 -212 128 -210 259c2 125 59 251 161 337c79 68 166 91 246 91zM517 637c-52 0 -95 -25 -128 -51c-77 -63 -165 -215 -169 -385c-2 -91 38 -178 145 -178c45 0 102 16 155 75c91 101 132 241 134 367c2 111 -53 172 -137 172z" />
    <glyph glyph-name="R" unicode="R" horiz-adv-x="602" 
d="M258 30l26 -4c6 -8 2 -24 -6 -29c-48 2 -90 3 -133 3c-45 0 -90 -1 -131 -3c-8 5 -8 25 2 29l26 4c45 7 56 17 86 114l118 376c26 83 26 98 -9 103l-34 5c-8 8 -4 22 6 27c60 7 115 8 184 8c177 0 259 -58 259 -167c0 -102 -96 -157 -166 -172c-16 -4 -16 -11 -12 -30
c18 -85 35 -164 51 -204c16 -42 40 -58 85 -64c6 -6 4 -20 -2 -26c-15 -2 -31 -4 -73 -4c-36 0 -61 4 -77 13c-17 9 -32 28 -44 65c-14 40 -34 145 -40 172c-9 44 -18 51 -50 51c-37 0 -41 -3 -49 -29l-39 -124c-27 -87 -29 -106 22 -114zM350 333c96 0 184 79 185 177
c1 63 -33 114 -113 114c-38 0 -40 -5 -48 -31l-68 -223c-11 -37 -9 -37 44 -37z" />
    <glyph glyph-name="S" unicode="S" horiz-adv-x="498" 
d="M235 -16c-86 0 -160 34 -179 77c-9 49 -3 97 4 135c6 6 24 6 31 -2c6 -36 16 -72 36 -104c25 -41 68 -67 123 -67c63 0 132 42 132 129c0 64 -49 114 -105 155c-42 31 -99 90 -99 168c0 121 99 203 229 201c68 -1 136 -23 168 -49c-13 -30 -28 -78 -38 -124
c-8 -8 -26 -6 -32 4c8 65 -15 130 -111 130c-78 0 -122 -56 -122 -115c0 -66 64 -113 97 -137c65 -46 114 -103 114 -192c0 -120 -93 -209 -248 -209z" />
    <glyph glyph-name="T" unicode="T" horiz-adv-x="640" 
d="M314 660h378c45 0 59 6 77 24c6 4 21 2 25 -4c-19 -36 -51 -119 -59 -156c-6 -10 -27 -10 -33 0c4 41 4 73 -15 84c-15 9 -40 13 -72 13h-55c-30 0 -31 -2 -42 -36l-137 -441c-27 -87 -30 -109 23 -114l42 -4c5 -8 2 -24 -6 -29c-65 2 -107 3 -155 3s-88 -1 -143 -3
c-8 6 -8 25 2 29l40 5c45 6 56 16 86 113l138 441c11 34 10 36 -24 36h-51c-35 0 -63 -4 -86 -17c-28 -15 -48 -39 -77 -80c-10 -6 -28 0 -30 10c30 53 59 112 75 150c4 6 16 6 24 2c-2 -20 10 -26 75 -26z" />
    <glyph glyph-name="U" unicode="U" horiz-adv-x="726" 
d="M458 635l-28 -4c-45 -6 -57 -18 -87 -115l-72 -230c-12 -38 -22 -83 -23 -117c-1 -84 39 -140 141 -140c128 0 189 118 228 239l48 150c21 67 37 138 41 160c6 34 -3 46 -46 53l-26 4c-6 8 -6 21 4 28c41 -2 77 -3 120 -3c40 0 71 1 111 3c7 -6 9 -22 0 -28l-26 -5
c-30 -6 -52 -13 -69 -45c-10 -18 -28 -71 -58 -167l-49 -156c-24 -75 -55 -155 -115 -209c-50 -44 -126 -69 -195 -69c-136 0 -226 53 -222 176c1 31 8 68 20 106l78 250c27 87 29 110 -24 116l-25 3c-7 8 -4 23 6 28c49 -2 90 -3 138 -3c49 0 88 1 132 3c7 -6 7 -24 -2 -28
z" />
    <glyph glyph-name="V" unicode="V" horiz-adv-x="636" 
d="M164 631l-24 4c-8 8 -6 23 6 28c33 -2 71 -3 112 -3c44 0 79 1 124 3c10 -5 8 -24 0 -28l-33 -7c-14 -3 -29 -4 -33 -13c-5 -10 -5 -35 -2 -72c10 -120 26 -300 35 -393c124 175 236 340 285 423c11 18 17 33 17 40c0 8 -5 11 -24 15l-32 7c-7 6 -5 24 4 28
c52 -2 87 -3 125 -3c35 0 67 1 92 3c8 -6 8 -22 0 -28l-27 -6c-22 -5 -45 -13 -61 -31c-23 -27 -88 -112 -152 -202l-105 -148c-65 -92 -148 -223 -171 -258c-6 -4 -16 -6 -24 -6c-10 0 -16 2 -20 6c-4 29 -6 81 -10 136c-10 134 -23 268 -36 402c-7 75 -11 97 -46 103z" />
    <glyph glyph-name="W" unicode="W" horiz-adv-x="922" 
d="M1104 635l-30 -8c-47 -13 -54 -25 -132 -133c-116 -163 -234 -333 -345 -504c-6 -6 -16 -6 -24 -6s-14 2 -18 6c-8 74 -30 222 -38 270c-41 -51 -157 -219 -188 -270c-6 -4 -14 -6 -24 -6c-8 0 -12 2 -18 6c-4 33 -17 124 -25 185c-18 127 -35 253 -56 379l-2 12
c-7 41 -9 57 -35 62l-34 7c-7 7 -5 22 5 28c45 -2 78 -3 112 -3c35 0 69 1 110 3c8 -6 8 -23 -3 -28l-19 -3l-15 -3c-16 -5 -23 -11 -23 -23c0 -17 4 -44 7 -64c20 -136 49 -346 61 -408c46 63 97 132 126 174c12 16 12 19 8 45l-35 215c-6 38 -10 55 -36 61l-26 6
c-5 9 -2 23 7 28c43 -2 78 -3 114 -3c35 0 69 1 95 3c9 -5 9 -25 0 -28l-30 -7c-30 -7 -29 -15 -25 -43c8 -54 17 -108 25 -162c43 58 85 119 124 180c7 11 4 22 -10 25l-29 7c-3 8 -3 21 6 28c39 -2 69 -3 96 -3c34 0 63 1 86 3c9 -8 8 -22 1 -28l-19 -4
c-41 -9 -63 -31 -109 -87c-38 -45 -95 -124 -121 -158c-7 -10 -14 -20 -14 -26s1 -12 2 -20c4 -33 25 -165 31 -206c52 68 182 265 261 388c12 18 56 82 56 93c0 4 -4 9 -14 12l-31 8c-5 10 -4 21 4 28c43 -2 70 -3 100 -3c35 0 64 1 88 3c9 -5 9 -20 3 -28z" />
    <glyph glyph-name="X" unicode="X" horiz-adv-x="615" 
d="M164 32l32 -6c6 -6 4 -25 -6 -29c-41 2 -85 3 -128 3c-42 0 -77 -1 -104 -3c-10 7 -10 25 0 29l25 4c61 10 106 54 147 95c47 48 110 116 179 191c9 10 10 15 3 35c-21 57 -54 155 -77 216c-17 46 -27 56 -58 62l-25 5c-8 8 -5 25 5 29c31 -2 74 -3 123 -3
c46 0 98 1 122 3c10 -6 10 -23 0 -29l-30 -6c-17 -3 -31 -7 -33 -11c-6 -8 -4 -18 3 -39c17 -56 38 -114 60 -171c59 64 110 119 161 178c14 16 20 24 20 30s-8 12 -26 15l-21 4c-8 8 -6 23 4 29c35 -2 73 -3 112 -3c41 0 71 1 101 3c9 -4 9 -23 0 -29l-18 -4
c-38 -8 -59 -17 -91 -45c-71 -61 -140 -132 -212 -208c-13 -14 -13 -17 -7 -37c30 -92 62 -176 91 -251c14 -38 26 -53 66 -59l27 -4c8 -6 6 -24 -2 -29c-43 2 -75 3 -128 3c-52 0 -94 -1 -131 -3c-10 6 -11 24 -2 29l27 4c18 3 30 5 34 12s5 21 -5 49
c-21 62 -42 125 -66 191c-56 -63 -127 -146 -180 -212c-9 -11 -13 -19 -13 -25c0 -8 6 -12 21 -13z" />
    <glyph glyph-name="Y" unicode="Y" horiz-adv-x="588" 
d="M382 32l36 -6c6 -4 4 -24 -4 -29c-61 2 -103 3 -148 3c-51 0 -91 -1 -142 -3c-8 6 -8 25 2 29l38 6c45 3 54 15 84 112l16 51c16 52 19 74 9 126c-7 39 -36 183 -47 237c-9 47 -18 64 -53 71l-26 5c-8 8 -6 24 5 29c25 -1 46 -2 65 -2c20 -1 38 -1 58 -1c40 0 83 1 122 4
c10 -5 9 -24 1 -30l-33 -6c-37 -7 -42 -14 -37 -44c18 -96 34 -177 52 -262l138 175c26 32 52 65 75 100c13 20 13 26 -15 32l-25 5c-10 6 -8 24 2 29c44 -2 77 -3 111 -3c38 0 70 1 99 3c8 -5 8 -23 -2 -29l-25 -5c-40 -8 -61 -20 -109 -73c-50 -55 -133 -158 -180 -216
c-36 -45 -47 -57 -69 -129l-21 -67c-29 -91 -28 -104 23 -112z" />
    <glyph glyph-name="Z" unicode="Z" horiz-adv-x="627" 
d="M243 39h106c59 0 118 4 150 20c29 15 65 55 94 99c6 6 26 2 28 -8c-14 -48 -53 -128 -75 -153c-34 1 -68 2 -102 2c-34 1 -68 1 -103 1h-246c-51 0 -83 -1 -100 -3c-8 2 -10 11 -8 19c23 17 93 87 134 130l419 444c24 26 20 31 -11 31h-142c-42 0 -71 -1 -101 -16
c-27 -13 -53 -40 -89 -91c-9 -6 -27 0 -29 12c26 53 51 110 69 160c4 4 14 4 20 2c2 -24 11 -28 86 -28h284c58 0 87 2 100 3c8 -2 10 -9 7 -19c-26 -18 -135 -131 -206 -207l-307 -326c-27 -28 -42 -46 -42 -58c0 -10 17 -14 64 -14z" />
    <glyph glyph-name="bracketleft" unicode="[" horiz-adv-x="330" 
d="M35 -152l264 840c36 1 58 1 81 1c50 0 90 -2 104 -4c3 -6 0 -20 -5 -25l-88 -11c-14 -2 -25 -4 -31 -10c-14 -14 -37 -80 -60 -154l-136 -434c-23 -74 -41 -140 -37 -152c3 -8 13 -10 25 -12l77 -11c3 -7 0 -21 -7 -25c-16 -2 -56 -4 -106 -4c-23 0 -45 0 -81 1z" />
    <glyph glyph-name="backslash" unicode="\" horiz-adv-x="340" 
d="M164 676l191 -692h-78l-191 692h78z" />
    <glyph glyph-name="bracketright" unicode="]" horiz-adv-x="330" 
d="M384 688l-264 -840c-36 -1 -58 -1 -81 -1c-50 0 -90 2 -104 4c-3 6 0 20 5 25l88 11c14 2 25 4 31 10c14 14 37 80 60 154l136 434c23 74 41 140 37 152c-3 8 -13 10 -25 12l-77 11c-3 7 0 21 7 25c16 2 56 4 106 4c23 0 45 0 81 -1z" />
    <glyph glyph-name="asciicircum" unicode="^" horiz-adv-x="510" 
d="M491 244h-76l-124 289l-124 -289h-77l171 382h60z" />
    <glyph glyph-name="underscore" unicode="_" horiz-adv-x="500" 
d="M500 -75v-50h-500v50h500z" />
    <glyph glyph-name="quoteleft" unicode="&#x2018;" horiz-adv-x="242" 
d="M259 457c-42 0 -76 38 -76 92c0 74 80 134 168 156c10 -4 12 -18 8 -26c-44 -16 -96 -52 -96 -100c0 -20 12 -33 32 -42c10 -5 18 -14 18 -28c0 -28 -24 -52 -54 -52z" />
    <glyph glyph-name="a" unicode="a" horiz-adv-x="470" 
d="M383 368l26 56c4 2 12 4 20 4c19 0 47 -6 56 -24c-28 -65 -92 -230 -129 -334c-5 -13 -1 -18 5 -18c15 0 56 23 100 65c8 0 16 -6 16 -19c-44 -56 -122 -112 -186 -112c-24 0 -33 20 -33 32c0 10 2 21 10 41l36 95h-3c-70 -95 -170 -168 -228 -168c-32 0 -54 28 -54 60
c0 39 40 140 117 227c45 50 91 81 125 99c30 16 54 22 78 22c8 0 16 -4 23 -7c5 -3 15 -11 21 -19zM313 352c-22 0 -38 -9 -70 -43c-56 -61 -108 -174 -110 -240c0 -11 4 -20 12 -20c16 0 59 35 102 80c51 52 96 142 110 188c-8 24 -24 35 -44 35z" />
    <glyph glyph-name="b" unicode="b" horiz-adv-x="487" 
d="M495 313c0 -56 -30 -137 -104 -214s-158 -113 -228 -113c-64 0 -98 38 -98 95c0 44 17 103 44 174l123 327c18 47 19 61 3 71l-24 16c-2 6 -2 14 4 18c26 10 106 26 154 28c4 -2 7 -6 7 -10c-19 -48 -34 -84 -54 -135l-122 -317h2c60 86 129 155 199 155
c72 0 94 -52 94 -95zM369 360c-26 0 -76 -35 -133 -108c-55 -69 -79 -141 -79 -183c0 -31 14 -47 28 -47c17 0 52 22 88 63c68 79 126 192 126 240c0 25 -14 35 -30 35z" />
    <glyph glyph-name="c" unicode="c" horiz-adv-x="360" 
d="M130 -14c-54 0 -88 38 -88 110c0 66 41 165 113 236c53 52 106 76 159 76c52 0 87 -28 86 -68c0 -39 -37 -55 -60 -55c-17 0 -29 10 -30 28c-2 22 1 55 -25 55c-20 0 -46 -20 -74 -64c-31 -49 -63 -123 -63 -196c0 -45 17 -60 41 -60c30 0 66 19 107 61
c12 0 20 -8 18 -20c-37 -49 -110 -103 -184 -103z" />
    <glyph glyph-name="d" unicode="d" horiz-adv-x="499" 
d="M348 408c20 0 42 -12 52 -28l70 203c16 46 17 60 1 70l-24 16c-4 6 -2 14 4 18c24 10 104 26 150 28c4 -2 8 -6 8 -8c-18 -50 -29 -86 -55 -154c-40 -106 -136 -399 -146 -432c-7 -24 -12 -39 -14 -49c-2 -9 0 -17 8 -17c12 0 68 38 100 76c10 0 16 -6 16 -18
c-26 -45 -112 -127 -188 -127c-24 0 -36 18 -36 33c0 17 6 38 17 67l33 90h-2c-59 -87 -140 -190 -241 -190c-44 0 -70 33 -69 83c1 76 52 184 131 253c67 58 131 86 185 86zM355 372c-15 0 -35 -12 -57 -32c-29 -26 -83 -88 -118 -148c-40 -67 -58 -119 -58 -141
c0 -12 6 -18 14 -18c20 0 84 41 137 99s86 121 100 169c11 40 2 71 -18 71z" />
    <glyph glyph-name="e" unicode="e" 
d="M136 -14c-66 0 -94 54 -94 109c0 75 47 187 142 259c55 41 102 54 140 54c48 0 80 -36 80 -69c0 -90 -136 -139 -247 -169c-5 -14 -9 -37 -9 -65c0 -37 16 -57 44 -57c36 0 72 21 118 63c10 0 18 -10 16 -20c-54 -75 -124 -105 -190 -105zM297 372c-14 0 -35 -12 -60 -40
c-37 -39 -61 -92 -72 -128c51 18 82 35 114 68c25 25 37 59 37 75c0 13 -6 25 -19 25z" />
    <glyph glyph-name="f" unicode="f" horiz-adv-x="282" 
d="M373 350h-119c-34 -100 -78 -282 -109 -380c-25 -78 -48 -138 -79 -170c-24 -24 -76 -69 -140 -69c-56 0 -92 32 -92 67c0 27 28 52 50 52c14 0 23 -7 30 -20c20 -35 42 -55 59 -55c15 0 29 16 49 85c34 120 82 314 132 490h-89c-10 14 -2 38 12 44h89
c23 77 46 146 86 205c50 73 113 116 186 116c57 0 95 -36 95 -77c0 -32 -32 -58 -54 -58c-14 0 -20 6 -22 20c-8 58 -32 79 -54 79c-15 0 -34 -13 -60 -65c-33 -66 -55 -142 -77 -220h119c8 -12 4 -36 -12 -44z" />
    <glyph glyph-name="g" unicode="g" horiz-adv-x="404" 
d="M124 -269c-73 0 -175 24 -175 96c0 76 116 119 171 135c-25 16 -37 29 -37 50s37 60 55 78c-32 8 -81 34 -81 103c0 49 29 115 83 161c41 35 90 54 148 54c14 0 27 -3 42 -9c14 -6 25 -13 33 -13c10 0 28 2 44 6s36 10 46 10c16 0 28 -10 28 -34c0 -28 -18 -35 -28 -35
s-20 2 -30 5s-24 6 -32 6c-4 0 -8 -4 -8 -7c2 -8 6 -24 6 -33c0 -86 -59 -159 -138 -197c-19 -9 -45 -15 -73 -19c-8 -6 -18 -18 -18 -30c0 -11 19 -31 52 -49c26 -14 63 -34 95 -54c48 -31 68 -62 68 -100c0 -79 -129 -124 -251 -124zM174 -230c52 0 116 20 116 59
c0 22 -16 44 -48 66c-39 26 -75 44 -86 44s-46 -13 -67 -29c-26 -20 -42 -41 -42 -65c0 -47 61 -75 127 -75zM308 337c0 21 -14 35 -28 35c-16 0 -36 -12 -62 -43c-34 -41 -76 -125 -76 -172c0 -19 12 -33 30 -33s42 20 69 57c37 51 67 127 67 156z" />
    <glyph glyph-name="h" unicode="h" horiz-adv-x="493" 
d="M31 20l192 559c18 51 22 63 3 74l-24 14c-2 6 -2 14 4 18c24 10 108 28 152 30c4 -2 6 -6 8 -8c-18 -50 -42 -112 -61 -167l-107 -302l2 -2c51 63 92 99 123 122c38 29 76 50 110 50c46 0 70 -34 70 -77c0 -76 -47 -180 -88 -242c-30 -46 -91 -103 -146 -103
c-32 0 -48 18 -48 36c0 19 17 38 32 38c6 0 12 -4 18 -10c10 -10 19 -16 25 -16c9 0 16 14 27 39c30 70 76 202 76 254c0 18 -6 27 -18 27c-10 0 -26 -7 -45 -21c-30 -22 -60 -54 -103 -111c-51 -66 -105 -185 -126 -220c-7 -12 -18 -16 -34 -16c-18 0 -52 6 -42 34z" />
    <glyph glyph-name="i" unicode="i" horiz-adv-x="291" 
d="M280 337l-112 -262c-4 -10 -5 -19 3 -19c16 0 71 38 100 69c11 0 19 -10 17 -20c-28 -42 -124 -119 -200 -119c-17 0 -32 22 -32 31c0 11 2 22 9 39l111 263c4 10 4 16 -2 16c-12 0 -54 -26 -86 -54c-10 0 -17 12 -14 20c54 63 139 107 184 107c14 0 30 -14 33 -28
c2 -8 -2 -22 -11 -43zM262 497c-30 0 -46 22 -46 47c0 32 23 69 65 69c29 0 46 -16 46 -47c0 -36 -27 -69 -65 -69z" />
    <glyph glyph-name="j" unicode="j" horiz-adv-x="281" 
d="M-67 -269c-49 0 -85 30 -85 65c0 30 25 46 41 46c7 0 17 -1 23 -11c26 -44 47 -57 61 -57c12 0 22 10 35 43c28 67 80 233 108 323c28 88 54 164 54 180c0 10 -3 14 -9 14c-20 0 -75 -50 -96 -72c-10 2 -18 14 -15 24c26 38 116 122 190 122c21 0 37 -22 37 -40
c0 -22 -22 -100 -48 -180c-27 -82 -61 -192 -89 -264c-24 -63 -58 -124 -108 -160c-26 -19 -59 -33 -99 -33zM249 497c-30 0 -46 22 -46 47c0 32 23 69 65 69c29 0 46 -16 46 -47c0 -36 -27 -69 -65 -69z" />
    <glyph glyph-name="k" unicode="k" horiz-adv-x="468" 
d="M421 408c58 0 80 -36 80 -65c0 -24 -12 -59 -61 -99c-30 -25 -81 -50 -131 -60c-6 -2 -6 -10 -4 -18c6 -24 18 -61 29 -84c9 -19 17 -29 29 -29c16 0 40 22 66 50c8 2 17 -4 18 -14c-30 -61 -86 -103 -132 -103c-24 0 -43 16 -58 46c-13 26 -24 61 -36 104
c-4 13 -12 20 -24 18c-20 -2 -26 -7 -38 -37l-46 -115c-5 -12 -20 -16 -34 -16c-18 0 -55 6 -46 34l188 554c18 54 18 64 0 73l-24 12c-4 6 -4 14 2 20c32 14 108 30 154 36c5 -1 8 -4 9 -8c-12 -36 -26 -69 -49 -137l-100 -291h2c54 56 118 129 206 129zM201 186
c22 0 68 14 126 52c40 27 68 59 68 85c0 16 -12 27 -30 27c-32 0 -75 -29 -122 -77c-24 -25 -48 -59 -52 -73c-1 -6 0 -14 10 -14z" />
    <glyph glyph-name="l" unicode="l" horiz-adv-x="260" 
d="M312 555l-162 -473c-9 -26 -10 -40 4 -40c22 0 75 56 109 96c12 0 20 -6 18 -18c-28 -54 -87 -134 -188 -134c-40 0 -52 20 -52 36s4 34 18 74l165 483c18 52 14 62 -4 72l-23 12c-4 6 -4 14 2 20c27 10 111 28 160 32c2 0 6 -6 6 -8c-14 -40 -26 -72 -53 -152z" />
    <glyph glyph-name="m" unicode="m" horiz-adv-x="756" 
d="M228 408c36 0 41 -29 32 -52l-58 -148h2c63 97 152 200 229 200c61 0 58 -56 50 -87c-6 -21 -29 -79 -45 -117h2c81 131 162 204 232 204c44 0 62 -28 62 -58c0 -19 -8 -50 -18 -77c-18 -49 -66 -158 -83 -198c-5 -12 -5 -20 3 -20c18 0 64 36 92 68c12 2 18 -6 18 -18
c-30 -57 -114 -119 -192 -119c-18 0 -36 18 -36 32c0 12 6 26 20 59c26 60 60 141 84 202c8 20 16 44 16 59c0 10 -2 18 -15 18c-19 0 -56 -29 -104 -90c-52 -66 -99 -163 -150 -262c-7 -14 -15 -18 -31 -18c-28 0 -58 6 -50 30c2 6 80 210 102 263c6 14 18 42 18 57
c0 12 -4 20 -15 20c-22 0 -61 -28 -111 -92s-97 -161 -144 -260c-6 -14 -14 -18 -30 -18c-30 0 -57 6 -50 30c3 10 96 265 105 293c9 26 7 34 -7 34c-32 0 -64 -32 -84 -56c-10 0 -18 8 -18 18c28 55 86 103 174 103z" />
    <glyph glyph-name="n" unicode="n" horiz-adv-x="524" 
d="M444 408c44 0 60 -28 60 -56c0 -19 -8 -53 -18 -79c-18 -49 -66 -158 -82 -198c-5 -12 -6 -20 2 -20c16 0 64 36 92 68c12 2 18 -6 18 -18c-34 -56 -114 -119 -192 -119c-18 0 -34 18 -34 32c0 12 4 26 18 59c26 60 60 143 84 202c8 20 16 44 16 60c0 9 -2 17 -14 17
c-17 0 -60 -31 -106 -89c-54 -70 -103 -162 -152 -265c-6 -12 -18 -16 -34 -16c-18 0 -53 6 -44 34c4 13 96 261 106 289c6 16 8 30 -4 30c-20 0 -58 -26 -86 -52c-10 0 -16 8 -16 16c32 51 104 105 172 105c36 0 39 -30 30 -52l-61 -155h4c63 89 155 207 241 207z" />
    <glyph glyph-name="o" unicode="o" horiz-adv-x="436" 
d="M177 22c24 0 46 16 76 59c36 52 84 172 84 237c0 27 -4 54 -32 54c-18 0 -39 -11 -65 -44c-47 -61 -99 -180 -99 -254c0 -30 13 -52 36 -52zM49 117c2 73 44 167 105 224c58 53 107 67 152 67c89 0 124 -61 123 -136c-1 -62 -31 -153 -98 -217c-58 -57 -114 -69 -158 -69
c-84 0 -126 58 -124 131z" />
    <glyph glyph-name="p" unicode="p" horiz-adv-x="476" 
d="M304 449l-22 -59c10 2 20 2 32 2c88 0 154 -42 154 -129c0 -73 -44 -148 -104 -204c-56 -53 -130 -73 -176 -73c-10 0 -22 4 -34 8c-8 -2 -13 -8 -16 -18l-43 -127c-19 -55 -20 -73 16 -76l42 -4c8 -6 6 -23 -6 -27c-82 0 -166 -3 -248 -10c-10 6 -12 22 -4 29l28 4
c48 7 55 28 74 82l173 488c-32 -6 -66 -22 -100 -40c-12 2 -18 16 -12 24c32 24 84 51 128 63l30 75c6 8 20 10 38 10c24 0 46 -10 50 -18zM272 350l-98 -273c-4 -12 -4 -24 3 -35c5 -8 16 -20 30 -20c15 0 57 15 91 65c41 61 64 133 64 188c0 54 -34 77 -68 77
c-10 0 -16 -1 -22 -2z" />
    <glyph glyph-name="q" unicode="q" horiz-adv-x="482" 
d="M355 408c32 0 52 -28 60 -52c14 22 36 54 54 76c14 4 34 0 40 -14c-10 -30 -30 -91 -62 -194l-119 -381c-17 -54 -8 -66 22 -70l30 -4c6 -6 4 -21 -2 -25c-60 -2 -174 -16 -252 -30c-10 6 -10 22 -4 28l40 12c45 14 53 27 70 79l110 341h-2c-44 -66 -133 -188 -241 -188
c-48 0 -68 48 -66 83c2 40 15 106 68 182c42 60 97 107 148 131c38 18 70 26 106 26zM149 38c16 0 56 25 103 74c38 38 76 86 96 128c18 37 20 65 20 81c0 24 -12 51 -29 51c-16 0 -48 -14 -96 -76c-62 -80 -112 -187 -112 -235c0 -13 6 -23 18 -23z" />
    <glyph glyph-name="r" unicode="r" horiz-adv-x="372" 
d="M200 408c54 0 45 -58 29 -104l-35 -103h6c30 55 64 112 89 143c32 40 59 64 89 64c32 0 46 -28 46 -56c0 -31 -23 -80 -54 -80c-12 0 -16 11 -20 29c-4 20 -10 30 -20 30c-12 0 -35 -22 -68 -77c-37 -60 -79 -157 -120 -252c-5 -12 -18 -16 -34 -16c-20 0 -55 6 -46 34
c22 65 72 204 100 295c5 16 4 26 -6 26c-22 0 -54 -28 -78 -56c-10 0 -18 8 -16 20c26 45 76 103 138 103z" />
    <glyph glyph-name="s" unicode="s" horiz-adv-x="290" 
d="M86 -14c-42 0 -80 30 -80 65c0 22 16 48 38 48c8 0 15 -6 22 -14c26 -28 48 -45 76 -45c21 0 40 15 40 36c0 33 -31 68 -50 92c-28 36 -42 70 -42 95c0 42 22 76 58 107c28 24 64 38 90 38c46 0 80 -34 80 -69c0 -27 -22 -42 -32 -42c-9 0 -16 4 -22 12
c-28 32 -44 43 -70 43c-22 0 -34 -17 -34 -31c0 -33 33 -62 51 -86c29 -39 44 -67 43 -106c-1 -34 -18 -72 -56 -103c-30 -25 -70 -40 -112 -40z" />
    <glyph glyph-name="t" unicode="t" horiz-adv-x="304" 
d="M363 344h-106l-90 -259c-6 -16 -4 -24 6 -24c16 0 74 44 110 84c12 -2 18 -8 16 -22c-44 -66 -142 -137 -206 -137c-20 0 -36 18 -36 34c0 14 3 28 12 55l92 269h-76c-6 9 0 26 10 32l84 16l64 97c6 4 14 5 24 5c14 0 28 -5 32 -13l-28 -93h100c12 -12 4 -38 -8 -44z" />
    <glyph glyph-name="u" unicode="u" horiz-adv-x="520" 
d="M80 83l89 227c6 16 5 26 -3 26c-20 0 -65 -39 -92 -67c-10 2 -18 8 -16 20c32 46 117 119 190 119c20 0 38 -18 38 -36c0 -4 -2 -16 -6 -27l-103 -257c-7 -18 -3 -28 7 -28c12 0 38 21 73 54c83 80 149 209 188 290c8 3 18 4 30 4c22 0 45 -10 50 -20
c-25 -65 -78 -196 -118 -305c-6 -16 -5 -27 5 -27c18 0 70 44 96 73c10 0 18 -4 18 -18c-28 -49 -124 -125 -194 -125c-22 0 -39 20 -30 44l62 161h-2c-63 -84 -180 -205 -246 -205c-28 0 -48 24 -48 48c0 14 5 31 12 49z" />
    <glyph glyph-name="v" unicode="v" horiz-adv-x="442" 
d="M133 -14c-34 0 -54 40 -54 63c0 22 6 52 20 88l67 170c7 17 6 32 -4 32c-18 0 -62 -35 -89 -66c-10 0 -18 10 -18 18c29 48 106 117 178 117c30 0 47 -30 42 -58c-3 -14 -13 -43 -18 -55l-62 -160c-8 -20 -15 -42 -16 -58c0 -14 8 -29 28 -29s61 24 100 73
c42 53 65 127 66 160c0 28 -3 54 -11 75c3 32 25 52 52 52c43 -4 51 -42 50 -69c-1 -74 -79 -208 -170 -281c-80 -64 -128 -72 -161 -72z" />
    <glyph glyph-name="w" unicode="w" horiz-adv-x="672" 
d="M264 319l-66 -176c-17 -45 -22 -64 -22 -76c0 -10 6 -18 16 -18c27 0 72 47 104 87c56 70 81 147 94 201c12 51 37 69 66 69c27 0 44 -16 44 -36c0 -22 -11 -43 -34 -87c-31 -59 -54 -136 -54 -188c0 -26 8 -44 30 -44c28 0 75 32 109 88c31 51 47 114 47 152
c0 24 -2 46 -8 69c4 28 24 48 52 48c42 -4 53 -38 52 -67c-2 -62 -36 -147 -116 -236c-75 -83 -156 -119 -198 -119c-26 0 -58 26 -58 60c0 23 10 55 18 85l-2 2c-17 -23 -42 -48 -60 -66c-41 -40 -100 -81 -148 -81c-36 0 -56 36 -56 56c0 19 6 43 20 81l68 180
c10 26 9 36 -2 36c-20 0 -62 -36 -88 -64c-10 0 -18 8 -18 16c30 48 104 117 178 117c24 0 42 -24 42 -40c0 -12 -3 -31 -10 -49z" />
    <glyph glyph-name="x" unicode="x" horiz-adv-x="435" 
d="M239 59l-30 80c-8 -9 -52 -62 -65 -77c-48 -57 -82 -76 -113 -76c-24 0 -40 18 -40 44c0 21 16 55 36 71c9 7 14 10 20 10c8 0 12 -10 16 -22c6 -16 12 -24 20 -24c7 0 26 13 57 46c17 19 41 49 56 68l-37 102c-9 24 -16 42 -24 42c-14 0 -28 -18 -48 -52
c-12 -4 -22 2 -24 14c16 48 66 123 114 123c22 0 38 -21 52 -60l34 -93c6 4 26 32 52 62c50 59 84 91 122 91c30 0 44 -26 44 -52c0 -41 -26 -71 -44 -71c-10 0 -14 8 -17 20c-5 14 -13 26 -23 26c-15 0 -40 -20 -85 -73c-5 -6 -27 -33 -35 -43l36 -100
c14 -39 20 -50 30 -50c12 0 32 30 50 60c6 8 22 6 26 -6c-18 -66 -60 -133 -112 -133c-36 0 -53 32 -68 73z" />
    <glyph glyph-name="y" unicode="y" horiz-adv-x="398" 
d="M168 408c53 0 77 -73 79 -176c1 -67 -2 -139 -13 -208h4c38 64 66 144 88 224c11 40 21 102 22 122c2 30 15 36 29 36c12 0 27 -4 37 -10c9 -6 13 -14 13 -26c0 -22 -30 -146 -118 -298c-46 -78 -100 -168 -170 -245c-71 -78 -128 -96 -168 -96c-35 0 -65 23 -65 53
c-1 34 23 56 50 56c16 0 24 -8 34 -21c13 -17 21 -27 35 -27c15 0 38 7 56 25c24 24 48 68 61 120c13 48 20 121 17 220c-3 115 -15 172 -37 172c-21 0 -43 -39 -61 -77c-10 -6 -24 0 -26 10c19 61 64 146 133 146z" />
    <glyph glyph-name="z" unicode="z" horiz-adv-x="423" 
d="M233 401c20 0 50 -7 72 -15c23 -9 45 -15 65 -15c28 0 42 16 56 34c18 2 36 -14 32 -34c-96 -77 -202 -166 -310 -267v-4c38 2 69 -11 108 -32c30 -16 58 -27 74 -27c20 0 40 13 40 33c0 16 -17 42 -17 58c0 21 13 31 25 31c34 0 54 -35 54 -59c0 -32 -24 -65 -52 -89
c-29 -25 -64 -36 -96 -36s-66 14 -94 28s-62 30 -84 30c-28 0 -44 -16 -56 -50c-40 -4 -50 20 -50 34c0 16 15 34 56 69c88 75 158 131 239 202c12 11 14 14 -3 20c-50 18 -102 24 -124 24c-25 0 -34 -16 -34 -26c0 -18 20 -30 20 -43c0 -11 -12 -27 -36 -28
c-28 -1 -46 19 -46 41c0 26 24 56 50 79c39 34 86 42 111 42z" />
    <glyph glyph-name="braceleft" unicode="{" horiz-adv-x="330" 
d="M284 570c36 115 114 126 195 124c3 -5 3 -19 -4 -25c-89 -7 -107 -51 -119 -91c-21 -66 -23 -147 -43 -205s-49 -94 -110 -107l-1 -4c52 -13 71 -51 38 -127c-20 -46 -62 -130 -74 -169c-11 -34 -15 -91 54 -102c4 -12 1 -19 -5 -22c-67 -2 -143 22 -115 133
c16 65 51 133 71 188c16 45 26 89 -51 95c-5 7 -2 16 5 20c86 6 100 50 108 79c19 69 29 143 51 213z" />
    <glyph glyph-name="bar" unicode="|" horiz-adv-x="316" 
d="M232 750v-1000h-75v1000h75z" />
    <glyph glyph-name="braceright" unicode="}" horiz-adv-x="330" 
d="M135 -34c-36 -115 -114 -126 -195 -124c-3 5 -3 19 4 25c89 7 107 51 119 91c21 66 23 147 43 205s49 94 110 107l1 4c-52 13 -71 51 -38 127c20 46 62 130 74 169c11 34 15 91 -54 102c-4 12 -1 19 5 22c67 2 143 -22 115 -133c-16 -65 -51 -133 -71 -188
c-16 -45 -26 -89 51 -95c5 -7 2 -16 -5 -20c-86 -6 -100 -50 -108 -79c-19 -69 -29 -143 -51 -213z" />
    <glyph glyph-name="asciitilde" unicode="~" horiz-adv-x="510" 
d="M189 237h140c31 0 63 4 80 21c16 15 26 29 34 48c13 2 27 -1 36 -13c-11 -28 -39 -77 -59 -96c-19 -19 -36 -23 -73 -23h-134c-44 0 -66 -6 -87 -25c-15 -13 -30 -32 -40 -51c-14 -3 -27 1 -33 14c6 17 29 76 54 98c22 24 45 27 82 27z" />
    <glyph glyph-name="exclamdown" unicode="&#xa1;" horiz-adv-x="250" 
d="M158 174l-61 -302c-11 -54 -17 -85 -23 -102c-11 -30 -32 -36 -68 -36c-42 0 -58 15 -52 38c4 16 19 46 41 98l129 304c8 8 26 8 34 0zM193 394c34 0 56 -22 56 -58c0 -42 -30 -78 -72 -78c-34 0 -54 24 -54 60c0 44 32 76 70 76z" />
    <glyph glyph-name="cent" unicode="&#xa2;" horiz-adv-x="510" 
d="M286 174l98 314c-100 -6 -164 -102 -164 -192c0 -64 24 -104 66 -122zM234 8l32 102c-108 14 -150 92 -150 168c0 150 132 242 272 248c2 0 6 0 8 2l26 82c10 6 34 6 44 0l-26 -84c42 -4 74 -16 92 -24c8 -10 8 -26 6 -36c-2 -20 -18 -50 -34 -50c-4 0 -6 0 -8 4
c-16 20 -48 56 -70 62l-100 -320c6 -2 14 -2 20 -2c42 0 92 20 122 48c10 0 18 -10 16 -18c-28 -40 -90 -82 -176 -84l-30 -98c-10 -12 -36 -10 -44 0z" />
    <glyph glyph-name="sterling" unicode="&#xa3;" horiz-adv-x="510" 
d="M58 337h82c14 0 15 1 16 9c2 13 5 29 7 40c31 153 137 254 258 254c41 0 67 -14 78 -25c6 -7 7 -18 4 -33c-5 -25 -35 -47 -46 -47c-8 0 -11 2 -20 10c-43 36 -67 39 -86 39c-22 0 -55 -31 -71 -126c-6 -36 -10 -64 -15 -106c-2 -13 0 -15 17 -15h138c7 -10 2 -31 -8 -40
h-137c-15 0 -19 -1 -22 -14c-17 -90 -66 -143 -124 -173l1 -2c16 2 38 5 71 -1c21 -3 52 -16 88 -38c27 -16 62 -29 90 -29c23 0 28 14 24 69c-2 26 15 38 31 38c22 0 44 -14 36 -55c-11 -51 -88 -132 -157 -132c-35 0 -71 12 -121 45c-35 23 -68 46 -99 46
c-23 0 -38 -24 -42 -38c-6 -14 -54 -27 -65 -27c-13 0 -16 6 -14 18c4 20 31 44 61 65c57 41 97 110 114 214c2 15 1 10 -14 14h-82c-7 6 -2 30 7 40z" />
    <glyph glyph-name="fraction" unicode="&#x2044;" horiz-adv-x="100" 
d="M394 634c-181 -223 -360 -445 -537 -668c-19 0 -32 11 -31 30c179 221 357 443 532 664c19 0 33 -8 36 -26z" />
    <glyph glyph-name="fraction" unicode="&#x2215;" horiz-adv-x="100" 
d="M394 634c-181 -223 -360 -445 -537 -668c-19 0 -32 11 -31 30c179 221 357 443 532 664c19 0 33 -8 36 -26z" />
    <glyph glyph-name="yen" unicode="&#xa5;" horiz-adv-x="510" 
d="M484 319h-139l-24 -75h140c5 -9 -2 -29 -12 -38h-140l-22 -72c-25 -83 -25 -100 6 -103l45 -5c10 -5 3 -25 -6 -29c-77 2 -107 3 -144 3c-32 0 -56 -1 -113 -3c-7 4 -1 24 7 29l37 5c34 5 43 20 69 103l23 72h-143c-3 10 2 28 12 38h142l23 75h-141c-4 10 2 29 11 38h135
l-46 182c-12 47 -18 55 -51 61l-18 3c-4 6 3 25 11 28c38 -2 72 -3 108 -3c45 0 80 1 109 3c7 -3 2 -21 -7 -28l-38 -9c-9 -2 -17 -5 -20 -13c-2 -8 -2 -17 2 -33l22 -85c10 -39 17 -67 22 -82c12 13 31 37 62 75l77 93c14 17 20 31 22 37s-5 8 -18 11l-27 6
c-4 6 1 23 11 28c30 -2 58 -3 88 -3c25 0 50 1 75 3c8 -3 1 -21 -7 -28l-25 -4c-26 -4 -43 -21 -82 -66l-152 -176h128c5 -11 -1 -28 -12 -38z" />
    <glyph glyph-name="florin" unicode="&#x192;" horiz-adv-x="510" 
d="M200 427h87c17 55 33 95 57 137c30 51 110 133 200 133c53 0 73 -25 71 -47c-4 -31 -33 -60 -60 -60c-11 0 -17 6 -23 18c-11 23 -25 41 -38 41c-31 0 -68 -104 -99 -222h114c7 -6 2 -33 -14 -40h-112c-16 -46 -30 -97 -44 -150c-57 -210 -91 -260 -147 -307
c-39 -33 -79 -52 -120 -52c-39 0 -58 30 -54 69c2 21 16 47 28 47c8 0 18 -8 26 -20c23 -27 39 -45 57 -45c19 0 27 16 60 138c18 69 53 197 87 320h-90c-7 5 1 34 14 40z" />
    <glyph glyph-name="section" unicode="&#xa7;" horiz-adv-x="500" 
d="M135 -128c-66 0 -104 40 -104 86c0 24 20 33 34 30c20 -5 41 -34 66 -46c16 -8 32 -14 48 -14c36 0 76 20 76 68c0 50 -28 102 -72 180c-41 73 -60 132 -60 184c0 102 88 208 186 272c64 42 112 54 144 54c58 0 82 -48 82 -74c0 -32 -22 -46 -36 -46c-8 0 -16 8 -22 20
c-16 30 -40 52 -72 52c-40 0 -70 -28 -72 -72c-2 -36 18 -90 60 -160c57 -96 75 -152 74 -210c-1 -76 -53 -145 -122 -212c-77 -73 -150 -112 -210 -112zM257 232c30 -58 51 -106 56 -138c5 -28 4 -62 -4 -88l2 -2c36 30 78 84 78 156c0 30 -6 80 -53 165
c-41 75 -62 123 -65 153c-2 22 -4 58 6 80v2c-34 -22 -76 -86 -78 -142c-2 -60 16 -104 58 -186z" />
    <glyph glyph-name="currency" unicode="&#xa4;" horiz-adv-x="510" 
d="M300 469c-78 0 -145 -69 -145 -154c0 -88 69 -156 145 -156s145 69 145 156c0 85 -69 154 -145 154zM300 528c47 0 89 -14 125 -40l41 51c23 -7 46 -27 49 -48l-45 -45c29 -35 46 -82 46 -132s-17 -97 -46 -132l45 -45c-3 -21 -26 -41 -49 -48l-41 51
c-36 -26 -78 -40 -125 -40s-89 14 -125 40l-41 -51c-23 7 -46 27 -49 48l45 45c-29 35 -46 82 -46 132s17 97 46 132l-45 45c3 21 26 41 49 48l41 -51c36 26 78 40 125 40z" />
    <glyph glyph-name="quotesingle" unicode="'" horiz-adv-x="242" 
d="M210 440l18 182c2 24 4 38 8 48c6 26 22 30 56 30s52 -6 46 -32c-2 -10 -8 -24 -18 -46l-80 -182c-8 -8 -24 -8 -30 0z" />
    <glyph glyph-name="quotedblleft" unicode="&#x201c;" horiz-adv-x="430" 
d="M259 457c-42 0 -76 38 -76 92c0 74 80 134 168 156c10 -4 12 -18 8 -26c-44 -16 -96 -52 -96 -100c0 -20 12 -33 32 -42c10 -5 18 -14 18 -28c0 -28 -24 -52 -54 -52zM447 457c-42 0 -76 38 -76 92c0 74 80 134 168 156c10 -4 12 -18 8 -26c-44 -16 -96 -52 -96 -100
c0 -20 12 -33 32 -42c10 -5 18 -14 18 -28c0 -28 -24 -52 -54 -52z" />
    <glyph glyph-name="guillemotleft" unicode="&#xab;" horiz-adv-x="441" 
d="M158 194l42 -154c-2 -8 -12 -14 -22 -12c-32 52 -66 108 -104 162c-8 12 -6 20 8 34c58 54 112 108 166 160c10 2 18 -4 20 -14l-106 -150c-7 -10 -6 -18 -4 -26zM323 194l42 -154c-2 -8 -12 -14 -22 -12c-32 52 -66 108 -104 162c-8 12 -6 20 8 34
c58 54 112 108 166 160c10 2 18 -4 20 -14l-106 -150c-7 -10 -6 -18 -4 -26z" />
    <glyph glyph-name="guilsinglleft" unicode="&#x2039;" horiz-adv-x="276" 
d="M158 194l42 -154c-2 -8 -12 -14 -22 -12c-32 52 -66 108 -104 162c-8 12 -6 20 8 34c58 54 112 108 166 160c10 2 18 -4 20 -14l-106 -150c-7 -10 -6 -18 -4 -26z" />
    <glyph glyph-name="guilsinglright" unicode="&#x203a;" horiz-adv-x="276" 
d="M68 42l107 150c7 9 7 18 5 26l-45 154c4 8 14 14 24 12c32 -52 66 -108 104 -162c8 -12 6 -20 -8 -34c-58 -54 -112 -108 -166 -160c-10 -2 -18 4 -21 14z" />
    <glyph glyph-name="endash" unicode="&#x2013;" horiz-adv-x="500" 
d="M34 236h500l-20 -61h-500z" />
    <glyph glyph-name="dagger" unicode="&#x2020;" horiz-adv-x="480" 
d="M189 -127h-48l40 137c34 116 35 185 35 252c42 38 63 84 88 170c-58 0 -89 -32 -126 -32c-32 0 -49 25 -42 54c6 28 29 45 61 45c37 0 60 -32 118 -32c25 87 -3 111 8 150c9 32 32 59 71 59c40 0 58 -31 47 -67c-11 -35 -53 -58 -78 -142c58 0 89 32 125 32
c31 0 50 -25 44 -53c-7 -29 -30 -46 -61 -46c-33 0 -61 32 -119 32c-25 -86 -30 -132 -10 -170c-40 -67 -79 -136 -113 -252z" />
    <glyph glyph-name="daggerdbl" unicode="&#x2021;" horiz-adv-x="456" 
d="M432 676c47 0 53 -34 47 -60c-7 -29 -51 -54 -79 -144c63 0 95 30 131 30c31 0 47 -22 39 -52c-7 -27 -28 -42 -59 -42c-35 0 -58 30 -121 30c-22 -75 -26 -120 -4 -151c-39 -28 -60 -73 -84 -152c63 0 95 30 131 30c31 0 47 -22 39 -52c-7 -27 -28 -42 -59 -42
c-35 0 -58 30 -121 30c-28 -99 -3 -131 -13 -167c-9 -32 -30 -58 -69 -58s-56 30 -47 62c11 41 53 64 83 163c-63 0 -94 -30 -131 -30c-31 0 -45 22 -38 50c6 27 26 44 56 44c34 0 60 -30 123 -30c22 79 27 124 4 152c40 31 62 76 84 151c-63 0 -94 -30 -131 -30
c-31 0 -45 22 -38 50c6 27 26 44 56 44c34 0 60 -30 123 -30c26 90 2 113 7 145c5 30 28 59 71 59z" />
    <glyph glyph-name="periodcentered" unicode="&#xb7;" horiz-adv-x="255" 
d="M144 137c-34 0 -56 22 -56 58c0 42 30 78 72 78c34 0 54 -24 54 -60c0 -44 -32 -76 -70 -76z" />
    <glyph glyph-name="periodcentered" unicode="&#x2219;" horiz-adv-x="255" 
d="M144 137c-34 0 -56 22 -56 58c0 42 30 78 72 78c34 0 54 -24 54 -60c0 -44 -32 -76 -70 -76z" />
    <glyph glyph-name="paragraph" unicode="&#xb6;" horiz-adv-x="506" 
d="M478 448l-133 -451c-21 -71 -47 -141 -96 -178c-23 -17 -51 -25 -79 -25c-44 0 -90 24 -90 74c0 32 22 56 42 62c24 0 46 -16 46 -32c-8 -8 -16 -22 -17 -38c-1 -20 13 -30 31 -30c24 0 61 20 90 118l46 156c8 28 0 36 -8 36c-70 0 -186 52 -186 169c0 83 46 151 109 189
c56 34 128 52 241 52c66 0 106 -2 120 -6c8 -4 4 -22 -4 -26l-40 -6c-54 -8 -56 -10 -72 -64z" />
    <glyph glyph-name="bullet" unicode="&#x2022;" horiz-adv-x="400" 
d="M265 485c83 0 149 -65 149 -149s-66 -148 -149 -148s-149 64 -149 148s66 149 149 149z" />
    <glyph glyph-name="quotesinglbase" unicode="&#x201a;" horiz-adv-x="242" 
d="M82 114c42 0 76 -38 76 -92c0 -74 -80 -134 -168 -156c-10 4 -12 18 -8 26c44 16 96 52 96 100c0 20 -12 33 -32 42c-10 5 -18 14 -18 28c0 28 24 52 54 52z" />
    <glyph glyph-name="quotedblbase" unicode="&#x201e;" horiz-adv-x="430" 
d="M82 114c42 0 76 -38 76 -92c0 -74 -80 -134 -168 -156c-10 4 -12 18 -8 26c44 16 96 52 96 100c0 20 -12 33 -32 42c-10 5 -18 14 -18 28c0 28 24 52 54 52zM270 114c42 0 76 -38 76 -92c0 -74 -80 -134 -168 -156c-10 4 -12 18 -8 26c44 16 96 52 96 100
c0 20 -12 33 -32 42c-10 5 -18 14 -18 28c0 28 24 52 54 52z" />
    <glyph glyph-name="quotedblright" unicode="&#x201d;" horiz-adv-x="430" 
d="M264 700c42 0 76 -38 76 -92c0 -74 -80 -134 -168 -156c-10 4 -12 18 -8 26c44 16 96 52 96 100c0 20 -12 33 -32 42c-10 5 -18 14 -18 28c0 28 24 52 54 52zM452 700c42 0 76 -38 76 -92c0 -74 -80 -134 -168 -156c-10 4 -12 18 -8 26c44 16 96 52 96 100
c0 20 -12 33 -32 42c-10 5 -18 14 -18 28c0 28 24 52 54 52z" />
    <glyph glyph-name="guillemotright" unicode="&#xbb;" horiz-adv-x="441" 
d="M68 42l107 150c7 9 7 18 5 26l-45 154c4 8 14 14 24 12c32 -52 66 -108 104 -162c8 -12 6 -20 -8 -34c-58 -54 -112 -108 -166 -160c-10 -2 -18 4 -21 14zM233 42l107 150c7 9 7 18 5 26l-45 154c4 8 14 14 24 12c32 -52 66 -108 104 -162c8 -12 6 -20 -8 -34
c-58 -54 -112 -108 -166 -160c-10 -2 -18 4 -21 14z" />
    <glyph glyph-name="ellipsis" unicode="&#x2026;" horiz-adv-x="1000" 
d="M469 122c34 0 54 -24 54 -60c0 -44 -32 -76 -70 -76c-34 0 -56 22 -56 58c0 42 30 78 72 78zM802 122c34 0 54 -24 54 -60c0 -44 -32 -76 -70 -76c-34 0 -56 22 -56 58c0 42 30 78 72 78zM136 122c34 0 54 -24 54 -60c0 -44 -32 -76 -70 -76c-34 0 -56 22 -56 58
c0 42 30 78 72 78z" />
    <glyph glyph-name="perthousand" unicode="&#x2030;" horiz-adv-x="1212" 
d="M628 -14c-82 0 -120 54 -120 127c0 115 84 244 200 244c79 0 118 -51 118 -131c0 -107 -82 -240 -198 -240zM583 83c0 -38 14 -63 42 -63c27 0 50 23 67 50c32 53 59 148 59 194c0 36 -14 59 -42 59c-25 0 -48 -19 -67 -48c-34 -53 -59 -144 -59 -192zM264 269
c-82 0 -120 54 -120 127c0 115 84 244 200 244c79 0 118 -51 118 -131c0 -107 -82 -240 -198 -240zM219 366c0 -38 14 -63 42 -63c27 0 50 23 67 50c32 53 59 148 59 194c0 36 -14 59 -42 59c-25 0 -48 -19 -67 -48c-34 -53 -59 -144 -59 -192zM978 -14
c-82 0 -120 54 -120 127c0 115 84 244 200 244c79 0 118 -51 118 -131c0 -107 -82 -240 -198 -240zM933 83c0 -38 14 -63 42 -63c27 0 50 23 67 50c32 53 59 148 59 194c0 36 -14 59 -42 59c-25 0 -48 -19 -67 -48c-34 -53 -59 -144 -59 -192zM232 -40c-18 -2 -32 8 -34 24
c94 112 436 558 528 670c14 2 34 -8 34 -24c-94 -112 -436 -558 -528 -670z" />
    <glyph glyph-name="questiondown" unicode="&#xbf;" horiz-adv-x="326" 
d="M88 -266c-64 0 -132 72 -132 156c0 60 38 107 104 138l72 34c40 19 56 36 56 62c0 16 -2 30 -6 48c4 6 16 8 22 4c20 -24 36 -66 32 -102c-6 -46 -39 -74 -94 -100l-68 -32c-44 -21 -74 -40 -74 -68c0 -32 32 -56 66 -56c20 0 36 4 48 8c14 4 24 8 30 8
c16 0 28 -14 28 -34c0 -32 -30 -66 -84 -66zM224 394c34 0 56 -22 56 -58c0 -42 -30 -78 -72 -78c-34 0 -54 24 -54 60c0 44 32 76 70 76z" />
    <glyph glyph-name="grave" unicode="`" horiz-adv-x="380" 
d="M334 452l-117 148c-13 16 -22 27 -22 39s8 20 24 31c15 8 26 13 37 13c12 0 22 -10 31 -33l72 -185c-3 -11 -12 -15 -25 -13z" />
    <glyph glyph-name="acute" unicode="&#xb4;" horiz-adv-x="380" 
d="M439 581l-144 -130c-13 0 -22 7 -24 17l104 172c15 24 26 30 36 29c11 -1 20 -8 37 -20c14 -14 21 -22 19 -35c-1 -10 -15 -21 -28 -33z" />
    <glyph glyph-name="circumflex" unicode="&#x2c6;" horiz-adv-x="380" 
d="M371 659l45 -197c-4 -8 -12 -13 -24 -12l-53 108c-9 19 -15 17 -30 2l-112 -112c-12 -1 -20 6 -20 18l143 192c15 20 24 23 31 23c6 0 15 -1 20 -22z" />
    <glyph glyph-name="tilde" unicode="&#x2dc;" horiz-adv-x="380" 
d="M304 584h55c24 0 44 2 58 13c11 8 19 19 24 31c5 2 19 1 23 -3c-7 -31 -28 -74 -42 -88c-17 -17 -29 -20 -53 -20h-61c-27 0 -48 -7 -59 -18c-10 -7 -21 -24 -30 -40c-9 -1 -18 0 -21 6c4 20 23 73 41 93c20 22 37 26 65 26z" />
    <glyph glyph-name="macron" unicode="&#xaf;" horiz-adv-x="380" 
d="M421 516h-227c-6 13 -1 47 11 63h227c8 -16 2 -50 -11 -63z" />
    <glyph glyph-name="macron" unicode="&#x2c9;" horiz-adv-x="380" 
d="M421 516h-227c-6 13 -1 47 11 63h227c8 -16 2 -50 -11 -63z" />
    <glyph glyph-name="breve" unicode="&#x2d8;" horiz-adv-x="380" 
d="M315 490c-73 0 -108 50 -80 149c7 4 18 4 24 0c0 -58 31 -84 69 -84c40 0 84 26 110 84c8 4 20 4 26 0c-20 -99 -79 -149 -149 -149z" />
    <glyph glyph-name="dotaccent" unicode="&#x2d9;" horiz-adv-x="380" 
d="M330 602c33 0 54 -22 49 -56c-4 -32 -29 -56 -62 -56c-31 0 -52 24 -47 57s31 55 60 55z" />
    <glyph glyph-name="dieresis" unicode="&#xa8;" horiz-adv-x="380" 
d="M249 602c30 0 50 -22 46 -54c-4 -30 -27 -53 -59 -53c-30 0 -49 23 -44 54s29 53 57 53zM414 602c31 0 50 -22 46 -54c-4 -30 -28 -53 -58 -53s-50 23 -45 54s29 53 57 53z" />
    <glyph glyph-name="ring" unicode="&#x2da;" horiz-adv-x="380" 
d="M232 553c0 47 36 93 93 93s93 -46 93 -93c0 -49 -36 -95 -93 -95s-93 46 -93 95zM281 553c0 -35 16 -61 44 -61s44 26 44 61c0 33 -16 59 -44 59s-44 -26 -44 -59z" />
    <glyph glyph-name="cedilla" unicode="&#xb8;" horiz-adv-x="380" 
d="M158 0h40l-33 -46c-9 -9 -6 -11 6 -20c20 -16 42 -36 42 -70c0 -47 -50 -80 -105 -80c-40 0 -65 15 -65 38c0 16 11 28 28 28c22 0 38 -31 56 -31c9 0 23 9 23 28c0 25 -35 48 -55 61l-2 6z" />
    <glyph glyph-name="hungarumlaut" unicode="&#x2dd;" horiz-adv-x="380" 
d="M320 470l63 186c5 15 15 26 29 26c11 0 22 -6 34 -13c14 -10 21 -19 21 -27c0 -12 -7 -24 -23 -46l-100 -143c-12 -1 -23 3 -24 17zM178 470l63 186c5 15 14 26 26 26c14 0 24 -6 36 -13c15 -10 22 -19 22 -27c0 -12 -8 -24 -24 -46l-100 -143c-12 -1 -22 3 -23 17z" />
    <glyph glyph-name="ogonek" unicode="&#x2db;" horiz-adv-x="380" 
d="M206 20h42c-71 -47 -117 -96 -121 -140c-3 -28 15 -51 47 -51c19 0 36 5 51 15c6 -2 8 -9 8 -17c-26 -34 -67 -48 -106 -48c-37 0 -71 29 -71 69c0 73 82 132 150 172z" />
    <glyph glyph-name="caron" unicode="&#x2c7;" horiz-adv-x="380" 
d="M293 477l-46 197c5 9 12 13 24 12l54 -112c9 -19 15 -17 30 -1l111 115c12 1 20 -5 20 -17l-142 -193c-15 -20 -25 -23 -32 -23c-5 0 -14 1 -19 22z" />
    <glyph glyph-name="emdash" unicode="&#x2014;" horiz-adv-x="1000" 
d="M34 236h1000l-19 -61h-1001z" />
    <glyph glyph-name="AE" unicode="&#xc6;" horiz-adv-x="852" 
d="M423 320h-109c-23 0 -30 -2 -55 -34c-69 -89 -124 -156 -167 -215c-14 -20 -18 -32 2 -36l45 -9c8 -8 6 -25 -3 -29c-38 2 -82 3 -121 3c-32 0 -65 -1 -99 -3c-8 7 -7 23 2 29l24 4c32 5 55 19 112 86c132 154 287 338 373 447c38 47 41 58 10 63l-50 8c-10 4 -7 24 3 29
c23 -1 46 -2 71 -2c26 -1 53 -1 82 -1h261c63 0 116 0 138 3c-8 -17 -32 -92 -45 -145c-6 -8 -28 -10 -32 0c4 43 4 71 -19 85c-16 10 -46 18 -95 18h-66c-30 0 -34 -4 -44 -36l-60 -191c-9 -28 -8 -29 20 -29h54c73 0 90 7 114 53l14 27c8 8 30 6 32 -2
c-10 -25 -23 -64 -36 -102s-21 -75 -27 -101c-8 -7 -28 -7 -32 0l2 26c4 50 -16 54 -81 54h-52c-27 0 -31 -2 -39 -28l-41 -128c-17 -52 -23 -83 -14 -102c7 -15 24 -23 100 -23c99 0 136 6 209 109c8 6 26 4 31 -6c-13 -40 -49 -118 -72 -145c-32 1 -72 2 -113 2
c-41 1 -84 1 -124 1h-121c-39 0 -79 -1 -124 -3c-10 5 -8 23 2 29l25 4c48 8 59 17 89 114l47 152c6 20 6 24 -21 24zM352 365h75c33 0 40 3 47 27l59 191c7 22 11 38 4 38c-8 0 -19 -17 -35 -36c-50 -59 -115 -142 -160 -199c-15 -19 -14 -21 10 -21z" />
    <glyph glyph-name="ordfeminine" unicode="&#xaa;" horiz-adv-x="384" 
d="M362 512l20 40c4 2 8 4 14 4c8 0 16 -2 24 -4c10 -4 20 -10 24 -14c-20 -46 -72 -164 -96 -232c-4 -12 -2 -16 4 -16c10 0 40 16 72 46c8 0 14 -8 14 -16c-32 -40 -92 -80 -146 -80c-20 0 -28 16 -28 24c0 6 4 18 27 79l-1 1c-46 -52 -120 -104 -168 -104
c-26 0 -44 20 -44 42c0 28 30 100 90 162c34 36 64 59 94 72c24 10 44 14 64 14c14 0 26 -6 36 -18zM340 474c-8 16 -16 24 -34 24c-14 0 -27 -5 -50 -28c-43 -43 -84 -124 -84 -168c0 -12 4 -12 8 -12c10 0 42 22 74 54c36 36 76 98 86 130z" />
    <glyph glyph-name="Lslash" unicode="&#x141;" horiz-adv-x="564" 
d="M467 428l-161 -93l-54 -171c-16 -50 -23 -81 -15 -100s29 -25 91 -25c101 0 140 6 211 109c12 6 28 4 32 -6c-14 -42 -50 -118 -71 -145c-33 1 -73 2 -114 2c-41 1 -83 1 -121 1h-116c-48 0 -86 -1 -129 -3c-8 5 -8 25 2 29l28 4c45 6 54 17 84 114l35 112l-96 -56
c-16 7 -24 27 -18 40l134 78l63 198c28 87 28 103 -23 113l-26 5c-8 6 -6 25 6 29c48 -2 90 -3 135 -3s83 1 135 3c8 -6 8 -25 -2 -29l-28 -4c-49 -7 -55 -18 -86 -114l-38 -119l124 71c14 -7 22 -25 18 -40z" />
    <glyph glyph-name="Oslash" unicode="&#xd8;" horiz-adv-x="748" 
d="M228 130l399 449c-24 38 -62 58 -110 58c-52 0 -95 -25 -128 -51c-77 -63 -165 -215 -169 -385c-1 -25 2 -50 8 -71zM247 86c23 -38 61 -63 118 -63c45 0 102 16 155 75c91 101 132 241 134 367c1 26 -2 49 -8 69zM763 666l-59 -67c41 -43 68 -109 66 -199
c-2 -112 -51 -227 -134 -308c-51 -51 -144 -108 -265 -108c-74 0 -130 20 -170 50l-70 -78c-14 0 -30 16 -31 30l69 77c-48 53 -66 123 -65 185c2 125 59 251 161 337c79 68 166 91 246 91c56 0 112 -14 160 -48l58 66c13 -1 30 -13 34 -28z" />
    <glyph glyph-name="OE" unicode="&#x152;" horiz-adv-x="1012" 
d="M685 0l-45 -1c-72 -2 -129 -8 -201 -8c-246 0 -332 132 -332 274c0 121 68 236 163 306c80 59 186 95 320 95c45 0 81 -1 114 -3c33 -1 63 -3 94 -3h161c66 0 117 2 143 4c-8 -17 -32 -92 -46 -145c-6 -8 -28 -10 -31 0c3 44 3 70 -19 84c-17 10 -47 18 -96 18h-66
c-30 0 -34 -4 -44 -35l-60 -192c-9 -28 -8 -29 20 -29h54c73 0 90 7 114 53l14 27c8 8 30 6 32 -2c-10 -25 -23 -64 -36 -102s-21 -75 -27 -101c-8 -7 -28 -7 -32 0l2 26c4 50 -16 54 -81 54h-52c-27 0 -31 -2 -39 -28l-41 -128c-16 -51 -23 -83 -15 -102
c7 -15 25 -23 101 -23c99 0 136 6 209 109c8 6 26 4 32 -6c-14 -39 -49 -118 -73 -145c-65 2 -158 5 -237 3zM543 114l140 448c11 35 8 45 -14 53s-47 12 -79 12c-237 0 -363 -211 -363 -373c0 -142 73 -224 207 -224c46 0 85 8 109 84z" />
    <glyph glyph-name="ordmasculine" unicode="&#xba;" horiz-adv-x="356" 
d="M205 270c14 0 34 11 56 42c31 44 58 118 62 162c2 20 -10 36 -25 36s-29 -6 -49 -30c-34 -40 -74 -124 -74 -176c0 -18 10 -34 30 -34zM201 240c-68 0 -104 42 -102 100c2 48 31 110 78 152c38 34 82 48 119 48c76 0 105 -52 103 -104c-2 -41 -24 -100 -74 -146
c-44 -41 -90 -50 -124 -50z" />
    <glyph glyph-name="ae" unicode="&#xe6;" horiz-adv-x="525" 
d="M86 -14c-33 0 -66 20 -66 63c0 50 40 122 87 169c39 39 93 93 214 138c32 21 84 52 140 52c64 0 92 -38 92 -79c0 -66 -70 -119 -211 -200c3 -62 36 -83 63 -83c35 0 60 29 85 57c12 2 22 -2 24 -14c-39 -69 -107 -103 -160 -103c-68 0 -89 50 -97 79
c-54 -43 -128 -79 -171 -79zM129 75c0 -18 10 -27 23 -27c18 0 53 15 96 53c1 69 12 129 60 208h-4c-103 -52 -175 -182 -175 -234zM469 339c0 19 -10 33 -29 33c-54 0 -98 -119 -100 -206c82 62 129 131 129 173z" />
    <glyph glyph-name="dotlessi" unicode="&#x131;" horiz-adv-x="291" 
d="M280 337l-112 -262c-4 -10 -5 -19 3 -19c16 0 71 38 100 69c11 0 19 -10 17 -20c-28 -42 -124 -119 -200 -119c-17 0 -32 22 -32 31c0 11 2 22 9 39l111 263c4 10 4 16 -2 16c-12 0 -54 -26 -86 -54c-10 0 -17 12 -14 20c54 63 139 107 184 107c14 0 30 -14 33 -28
c2 -8 -2 -22 -11 -43z" />
    <glyph glyph-name="lslash" unicode="&#x142;" horiz-adv-x="272" 
d="M382 410l-146 -94l-80 -234c-9 -26 -10 -40 4 -40c22 0 75 56 109 96c12 0 20 -6 18 -18c-28 -54 -87 -134 -188 -134c-40 0 -52 20 -52 36s4 34 18 74l48 140h-2l-79 -50c-12 4 -21 21 -18 34l120 77l96 282c18 52 14 62 -4 72l-23 12c-4 6 -4 14 2 20
c27 10 111 28 160 32c2 0 6 -6 6 -8c-14 -40 -25 -72 -53 -152l-61 -176l2 -2l103 67c12 -5 23 -20 20 -34z" />
    <glyph glyph-name="oslash" unicode="&#xf8;" horiz-adv-x="436" 
d="M344 324l-199 -286c7 -10 19 -16 32 -16c24 0 54 16 85 59c42 59 83 165 83 230c0 4 0 8 -1 13zM412 423l-26 -40c30 -23 43 -64 43 -112c-1 -61 -31 -151 -98 -216c-58 -57 -114 -69 -158 -69c-22 0 -41 4 -56 12l-34 -48c-11 -3 -24 8 -25 20l31 44
c-28 25 -41 61 -40 103c2 73 42 166 107 227c52 48 105 64 151 64c17 0 35 -3 50 -8l28 40c9 2 23 -3 27 -17zM136 79l194 281c-8 9 -18 12 -29 12c-21 0 -43 -12 -83 -63c-35 -45 -81 -151 -84 -228z" />
    <glyph glyph-name="oe" unicode="&#x153;" horiz-adv-x="613" 
d="M303 370c-18 0 -38 -10 -62 -41c-49 -62 -98 -180 -98 -254c0 -33 12 -53 36 -53c22 0 46 18 74 59c36 52 81 172 82 236c1 26 -6 53 -32 53zM303 408c52 0 88 -32 93 -86c11 11 17 16 23 21c48 39 100 65 148 65s80 -36 80 -69c0 -90 -136 -139 -250 -169
c-6 -14 -10 -37 -10 -65c0 -32 16 -57 48 -57c36 0 72 21 118 63c10 0 18 -10 16 -20c-54 -75 -122 -105 -182 -105c-44 0 -72 26 -86 66c-50 -53 -98 -66 -132 -66c-78 0 -121 56 -120 135c1 69 38 162 106 224c54 49 104 63 148 63zM407 208c48 12 79 31 111 64
c25 25 37 59 37 75c0 13 -6 25 -19 25c-14 0 -35 -12 -60 -40c-37 -39 -61 -92 -69 -124z" />
    <glyph glyph-name="germandbls" unicode="&#xdf;" horiz-adv-x="499" 
d="M522 715c82 0 134 -43 134 -103c0 -78 -123 -126 -182 -158c-49 -26 -64 -56 -64 -90c0 -29 16 -69 32 -106c16 -38 28 -73 28 -108c0 -50 -21 -88 -59 -121c-26 -22 -67 -43 -95 -43c-46 0 -70 35 -70 61c0 14 6 27 14 36c8 7 18 7 26 0c17 -18 38 -40 64 -40
c16 0 44 10 44 43c0 22 -18 62 -38 107c-18 40 -38 85 -38 124c0 75 48 115 147 176c69 42 89 92 89 118c0 43 -38 65 -70 65c-94 0 -177 -119 -232 -278c-68 -196 -96 -448 -142 -545c-32 -69 -96 -122 -168 -122c-52 0 -88 31 -88 65c0 28 22 45 44 49c12 4 16 -4 24 -18
c18 -31 42 -51 60 -51c11 0 23 10 33 36c10 27 26 98 47 210c30 159 58 279 94 382c29 84 85 190 192 260c43 28 102 51 174 51z" />
    <glyph glyph-name="onesuperior" unicode="&#xb9;" 
d="M330 339l26 -4c6 -4 4 -20 -6 -22c-34 1 -64 2 -104 2c-34 0 -64 -1 -94 -2c-8 2 -8 18 0 22l22 3c36 5 40 17 56 67l57 178c6 20 9 32 9 38c0 8 -8 12 -24 15l-28 5c-6 4 -4 18 4 22c58 8 120 26 152 42c6 0 10 -2 11 -6c-8 -22 -17 -48 -27 -80l-68 -214
c-16 -52 -18 -61 14 -66z" />
    <glyph glyph-name="logicalnot" unicode="&#xac;" horiz-adv-x="510" 
d="M383 82v167h-314v63h389v-230h-75z" />
    <glyph glyph-name="mu" unicode="&#xb5;" horiz-adv-x="520" 
d="M280 345l-103 -257c-7 -18 -3 -28 7 -28c12 0 38 21 73 54c83 80 149 209 188 290c8 3 18 4 30 4c22 0 45 -10 50 -20c-25 -65 -78 -196 -118 -305c-6 -16 -5 -27 5 -27c18 0 70 44 96 73c10 0 18 -4 18 -18c-28 -49 -124 -125 -194 -125c-22 0 -39 20 -30 44l56 146h-2
c-56 -69 -174 -190 -230 -190c-9 0 -16 2 -18 6c-8 3 -12 -6 -16 -16l-15 -41c-24 -67 -14 -145 -17 -163c-5 -18 -42 -41 -85 -41c-19 0 -23 12 -16 31l210 548c6 16 5 26 -3 26c-20 0 -65 -39 -92 -67c-10 2 -18 8 -16 20c32 46 117 119 190 119c20 0 38 -18 38 -36
c0 -4 -2 -16 -6 -27z" />
    <glyph glyph-name="mu" unicode="&#x3bc;" horiz-adv-x="520" 
d="M280 345l-103 -257c-7 -18 -3 -28 7 -28c12 0 38 21 73 54c83 80 149 209 188 290c8 3 18 4 30 4c22 0 45 -10 50 -20c-25 -65 -78 -196 -118 -305c-6 -16 -5 -27 5 -27c18 0 70 44 96 73c10 0 18 -4 18 -18c-28 -49 -124 -125 -194 -125c-22 0 -39 20 -30 44l56 146h-2
c-56 -69 -174 -190 -230 -190c-9 0 -16 2 -18 6c-8 3 -12 -6 -16 -16l-15 -41c-24 -67 -14 -145 -17 -163c-5 -18 -42 -41 -85 -41c-19 0 -23 12 -16 31l210 548c6 16 5 26 -3 26c-20 0 -65 -39 -92 -67c-10 2 -18 8 -16 20c32 46 117 119 190 119c20 0 38 -18 38 -36
c0 -4 -2 -16 -6 -27z" />
    <glyph glyph-name="trademark" unicode="&#x2122;" horiz-adv-x="640" 
d="M265 531v92c0 10 0 11 -11 11h-7c-21 0 -34 -9 -43 -33c-3 -7 -18 -5 -19 3c6 35 10 54 13 67c2 5 13 5 15 0c8 -10 10 -11 29 -11h121c13 0 17 0 28 11c3 5 13 5 14 0c-3 -17 -5 -48 -4 -70c-2 -8 -16 -8 -18 -2c-5 23 -13 35 -37 35h-13c-7 0 -7 -1 -7 -11v-95
c0 -29 1 -39 17 -42l15 -3c4 -3 3 -18 -1 -19c-21 1 -43 1 -68 1c-24 0 -38 0 -56 -1c-3 2 -3 15 0 19l15 3c15 3 17 16 17 45zM650 510l-2 93c0 6 0 10 -2 10c-1 0 -10 -20 -18 -40l-18 -42c-14 -32 -20 -46 -27 -67c-6 -2 -15 -4 -24 1c-3 15 -16 42 -22 57l-21 53
c-9 22 -20 43 -22 44c-1 -2 -2 -15 -4 -49c-1 -17 0 -44 0 -58c1 -21 4 -26 19 -28l9 -1c1 -3 1 -14 0 -19c-10 1 -23 1 -45 1c-16 0 -34 0 -45 -1c-3 2 -3 15 -1 19l6 1c18 3 23 10 24 23c4 35 8 77 8 106c0 19 -7 25 -23 27l-7 2c-8 2 -7 18 1 19c16 0 26 -1 38 -1
c16 0 28 0 63 1c0 -10 12 -35 21 -53l18 -35c5 -10 9 -15 12 -15c2 0 6 2 11 12l16 35c8 18 16 33 22 56c30 -1 38 -1 46 -1c13 0 36 0 47 1c6 -1 6 -17 1 -19l-9 -2c-16 -2 -18 -8 -18 -23c0 -26 1 -76 3 -102c1 -22 3 -25 13 -28l14 -4c6 -2 6 -17 0 -19
c-13 1 -26 1 -58 1c-25 0 -38 0 -52 -1c-3 2 -4 17 0 19l14 4c12 3 12 8 12 23z" />
    <glyph glyph-name="Eth" unicode="&#xd0;" horiz-adv-x="763" 
d="M188 320h-104c-5 15 1 37 13 45h105l55 170c21 65 18 77 -15 83l-34 6c-8 6 -6 24 2 29c37 4 116 10 209 10c111 0 196 -21 255 -59c75 -48 108 -126 108 -218c0 -108 -51 -211 -133 -280c-116 -97 -268 -109 -358 -109c-47 0 -97 3 -138 3c-43 0 -83 -1 -132 -3
c-8 5 -8 25 2 29l28 4c45 6 55 17 84 114zM430 320h-131l-56 -184c-11 -36 -11 -57 -2 -72c8 -15 28 -28 72 -28c65 0 133 18 200 67c98 72 147 202 147 293c0 82 -17 228 -227 228c-34 0 -39 -6 -52 -47l-68 -212h129c4 -16 0 -38 -12 -45z" />
    <glyph glyph-name="onehalf" unicode="&#xbd;" horiz-adv-x="840" 
d="M285 271l26 -4c6 -4 4 -20 -6 -22c-34 1 -64 2 -104 2c-34 0 -64 -1 -94 -2c-8 2 -8 18 0 22l22 3c36 5 40 17 56 67l57 178c6 20 9 32 9 38c0 8 -8 12 -24 15l-28 5c-6 4 -4 18 4 22c58 8 120 26 152 42c6 0 10 -2 11 -6c-8 -22 -17 -48 -27 -80l-68 -214
c-16 -52 -18 -61 14 -66zM740 634c-181 -223 -360 -445 -537 -668c-19 0 -32 11 -31 30c179 221 357 443 532 664c19 0 33 -8 36 -26zM646 0h-102c-34 0 -64 -2 -76 -2c-6 4 -6 10 -4 16c34 22 80 54 126 90c69 54 142 110 142 180c0 34 -24 61 -62 61s-72 -33 -90 -59
c-10 -4 -20 4 -22 14c30 56 90 93 150 93c66 0 118 -39 118 -103c0 -66 -58 -105 -129 -153l-58 -39c-35 -24 -39 -32 -33 -36c2 -2 6 -2 12 -2h72c40 0 56 4 78 32c6 4 18 4 22 -4c-15 -38 -34 -72 -48 -90c-30 1 -58 2 -96 2z" />
    <glyph glyph-name="plusminus" unicode="&#xb1;" horiz-adv-x="510" 
d="M458 63v-63h-386v63h386zM303 98h-75v156h-156v63h156v149h75v-149h155v-63h-155v-156z" />
    <glyph glyph-name="Thorn" unicode="&#xde;" horiz-adv-x="582" 
d="M129 144l116 372c27 87 30 107 -23 114l-30 4c-6 8 -2 24 6 29c53 -2 95 -3 143 -3s88 1 131 3c8 -6 8 -25 -2 -29l-26 -4c-51 -8 -59 -19 -86 -110h37c144 0 217 -61 217 -159c0 -132 -134 -190 -263 -192c-12 0 -22 0 -28 2c-8 4 -8 16 -2 24c18 4 42 8 66 19
c62 28 108 93 108 159c0 76 -50 108 -112 108c-33 0 -37 -4 -46 -32l-95 -305c-27 -87 -30 -107 23 -114l30 -4c6 -8 2 -24 -6 -29c-53 2 -95 3 -143 3s-88 -1 -131 -3c-8 6 -8 25 2 29l28 4c45 6 56 17 86 114z" />
    <glyph glyph-name="onequarter" unicode="&#xbc;" horiz-adv-x="840" 
d="M729 22l18 -2c4 -6 2 -20 -4 -22c-32 1 -70 2 -102 2s-64 -1 -96 -2c-8 2 -6 16 2 22l22 2c34 3 44 9 55 43l9 28c5 16 4 17 -12 17h-152c-6 0 -8 6 -8 10c0 6 4 12 10 18l298 278c9 9 16 12 28 12c9 0 19 -2 24 -4c4 -2 4 -9 -6 -18l-278 -252c-7 -7 -2 -10 16 -10h78
c16 0 19 2 24 16l30 94c3 8 8 12 18 17c16 7 50 13 66 13c10 0 11 -6 8 -14l-38 -110c-5 -14 -4 -16 10 -16h40c8 -4 4 -28 -8 -34h-40c-18 0 -18 -2 -22 -14l-8 -26c-11 -36 -14 -44 18 -48zM295 271l26 -4c6 -4 4 -20 -6 -22c-34 1 -64 2 -104 2c-34 0 -64 -1 -94 -2
c-8 2 -8 18 0 22l22 3c36 5 40 17 56 67l57 178c6 20 9 32 9 38c0 8 -8 12 -24 15l-28 5c-6 4 -4 18 4 22c58 8 120 26 152 42c6 0 10 -2 11 -6c-8 -22 -17 -48 -27 -80l-68 -214c-16 -52 -18 -61 14 -66zM762 634c-181 -223 -360 -445 -537 -668c-19 0 -32 11 -31 30
c179 221 357 443 532 664c19 0 33 -8 36 -26z" />
    <glyph glyph-name="divide" unicode="&#xf7;" horiz-adv-x="510" 
d="M264 124c27 0 50 -24 50 -50c0 -29 -23 -52 -50 -52c-29 0 -52 23 -52 52c0 26 23 50 52 50zM264 389c27 0 50 -24 50 -50c0 -29 -23 -52 -50 -52c-29 0 -52 23 -52 52c0 26 23 50 52 50zM459 237v-63h-385v63h385z" />
    <glyph glyph-name="brokenbar" unicode="&#xa6;" horiz-adv-x="316" 
d="M232 675v-350h-75v350h75zM232 175v-350h-75v350h75z" />
    <glyph glyph-name="degree" unicode="&#xb0;" horiz-adv-x="400" 
d="M313 640c77 0 141 -54 141 -136c0 -86 -64 -135 -141 -135s-141 49 -141 135c0 82 64 136 141 136zM313 599c-46 0 -77 -39 -77 -95c0 -55 31 -94 77 -94s77 39 77 94c0 56 -31 95 -77 95z" />
    <glyph glyph-name="thorn" unicode="&#xfe;" horiz-adv-x="476" 
d="M468 263c0 -73 -44 -148 -104 -204c-56 -53 -130 -73 -176 -73c-10 0 -22 4 -34 8c-8 -2 -13 -8 -16 -18l-43 -127c-19 -55 -20 -73 16 -76l42 -4c8 -6 6 -23 -6 -27c-82 0 -166 -3 -248 -10c-10 6 -12 22 -4 29l28 4c48 7 55 28 74 82l173 488c-32 -6 -66 -22 -100 -40
c-12 2 -18 16 -12 24c32 24 84 51 128 63l53 146c19 53 15 63 -3 73l-23 12c-4 6 -4 14 2 20c27 10 111 28 160 32c2 -2 6 -6 6 -8c-14 -40 -28 -72 -56 -153l-40 -114c7 2 17 2 29 2c88 0 154 -42 154 -129zM272 350l-98 -273c-4 -12 -4 -24 3 -35c5 -8 16 -20 30 -20
c15 0 57 15 91 65c42 60 64 133 64 188c0 54 -34 77 -68 77c-10 0 -16 -1 -22 -2z" />
    <glyph glyph-name="threequarters" unicode="&#xbe;" horiz-adv-x="840" 
d="M742 22l18 -2c4 -6 2 -20 -4 -22c-32 1 -70 2 -102 2s-64 -1 -96 -2c-8 2 -6 16 2 22l22 2c34 3 44 9 55 43l9 28c5 16 4 17 -12 17h-152c-6 0 -8 6 -8 10c0 6 4 12 10 18l298 278c9 9 16 12 28 12c9 0 19 -2 24 -4c4 -2 4 -9 -6 -18l-278 -252c-7 -7 -2 -10 16 -10h78
c16 0 19 2 24 16l30 94c3 8 8 12 18 17c16 7 50 13 66 13c10 0 11 -6 8 -14l-38 -110c-5 -14 -4 -16 10 -16h40c8 -4 4 -28 -8 -34h-40c-18 0 -18 -2 -22 -14l-8 -26c-11 -36 -14 -44 18 -48zM421 385c0 -60 -46 -108 -100 -138c-47 -26 -114 -40 -160 -40
c-42 0 -78 15 -78 49c0 19 14 35 36 35c20 0 32 -20 41 -34c7 -10 19 -18 33 -18c72 0 130 66 130 138c0 38 -26 66 -63 66c-25 0 -53 -14 -69 -28c-14 6 -20 22 -12 36c30 8 90 28 126 52c24 16 40 34 40 56c0 24 -20 37 -46 37c-30 0 -66 -25 -90 -51c-10 -2 -18 6 -18 16
c35 46 82 79 142 79c52 0 96 -27 96 -76c0 -39 -44 -65 -94 -79c-8 -4 -2 -8 6 -9c38 -6 80 -37 80 -91zM789 634c-181 -223 -360 -445 -537 -668c-19 0 -32 11 -31 30c179 221 357 443 532 664c19 0 33 -8 36 -26z" />
    <glyph glyph-name="twosuperior" unicode="&#xb2;" 
d="M276 315h-102c-34 0 -64 -2 -76 -2c-6 4 -6 10 -4 16c34 22 80 54 126 90c69 54 142 110 142 180c0 34 -24 61 -62 61s-72 -33 -90 -59c-10 -4 -20 4 -22 14c30 56 90 93 150 93c66 0 118 -39 118 -103c0 -66 -58 -105 -129 -153l-58 -39c-35 -24 -39 -32 -33 -36
c2 -2 6 -2 12 -2h72c40 0 56 4 78 32c6 4 18 4 22 -4c-15 -38 -34 -72 -48 -90c-30 1 -58 2 -96 2z" />
    <glyph glyph-name="registered" unicode="&#xae;" horiz-adv-x="350" 
d="M254 515v59c0 14 -3 20 -13 21h-5c-1 4 -1 11 2 12c24 1 44 2 63 2c25 0 57 -5 57 -36c0 -15 -11 -25 -21 -29c-2 -1 -2 -3 0 -8c12 -21 21 -36 29 -41c4 -3 6 -5 10 -6c2 0 2 -7 0 -8c-6 -1 -10 -1 -16 -1c-18 0 -31 7 -42 22c-6 9 -10 17 -16 27c-2 4 -6 6 -10 6
c-3 0 -4 -3 -4 -5v-15c0 -16 0 -20 13 -22l4 -1c2 -1 2 -10 0 -11c-12 0 -21 1 -34 1s-23 -1 -33 -1c-3 1 -3 10 -2 11l5 1c13 3 13 5 13 22zM288 586v-32c0 -7 1 -7 11 -7c15 0 19 13 19 21c0 17 -7 26 -18 26s-12 -2 -12 -8zM301 677c75 0 136 -60 136 -133
s-61 -133 -136 -133s-136 60 -136 133s61 133 136 133zM301 654c-56 0 -104 -48 -104 -110c0 -61 48 -109 104 -109c57 0 104 48 104 109c0 62 -47 110 -104 110z" />
    <glyph glyph-name="minus" unicode="&#x2212;" horiz-adv-x="510" 
d="M459 174h-385v63h385v-63z" />
    <glyph glyph-name="eth" unicode="&#xf0;" horiz-adv-x="434" 
d="M170 -14c-86 0 -127 58 -124 141c3 63 41 156 107 218c52 49 105 63 135 63c19 0 37 -5 50 -10c2 34 -8 93 -24 129l-132 -60c-12 4 -18 28 -12 38l131 61c-9 26 -26 54 -48 78c-20 20 -43 36 -75 47c-2 6 -2 18 10 24c36 -6 70 -20 92 -34c36 -24 65 -51 86 -87l130 59
c14 -4 18 -27 12 -39l-120 -54c36 -66 47 -146 46 -213c-2 -101 -39 -215 -108 -286c-60 -63 -116 -75 -156 -75zM234 329c-44 -60 -95 -179 -96 -252c-1 -35 16 -55 38 -55c24 0 46 18 76 59c37 50 81 170 82 236c1 28 -10 55 -36 55c-18 0 -39 -9 -64 -43z" />
    <glyph glyph-name="multiply" unicode="&#xd7;" horiz-adv-x="510" 
d="M318 199l137 -138l-48 -50l-138 138l-137 -138l-48 50l136 137l-136 137l48 50l137 -137l138 139l48 -49z" />
    <glyph glyph-name="threesuperior" unicode="&#xb3;" 
d="M426 453c0 -60 -46 -108 -100 -138c-47 -26 -114 -40 -160 -40c-42 0 -78 15 -78 49c0 19 14 35 36 35c20 0 32 -20 41 -34c7 -10 19 -18 33 -18c72 0 130 66 130 138c0 38 -26 66 -63 66c-25 0 -53 -14 -69 -28c-14 6 -20 22 -12 36c30 8 90 28 126 52
c24 16 40 34 40 56c0 24 -20 37 -46 37c-30 0 -66 -25 -90 -51c-10 -2 -18 6 -18 16c35 46 82 79 142 79c52 0 96 -27 96 -76c0 -39 -44 -65 -94 -79c-8 -4 -2 -8 6 -9c38 -6 80 -37 80 -91z" />
    <glyph glyph-name="copyright" unicode="&#xa9;" horiz-adv-x="838" 
d="M483 -16c-201 0 -350 155 -350 346s149 346 350 346s350 -155 350 -346s-149 -346 -350 -346zM483 633c-161 0 -288 -134 -288 -302c0 -170 127 -304 288 -304s288 134 288 304c0 168 -127 302 -288 302zM517 522c42 0 76 -7 118 -16c0 -17 3 -53 7 -93
c-5 -5 -16 -6 -23 -1c-8 35 -31 81 -102 81s-140 -53 -140 -160s71 -165 143 -165c67 0 93 44 111 79c7 5 19 5 23 -3c-4 -37 -19 -74 -26 -84c-6 -1 -13 -3 -20 -6c-12 -4 -51 -15 -90 -15c-51 0 -107 11 -145 37c-45 31 -80 81 -80 148c0 131 110 198 224 198z" />
    <glyph glyph-name="Aacute" unicode="&#xc1;" horiz-adv-x="608" 
d="M388 247h-131c-30 0 -30 -1 -47 -28l-69 -111c-25 -41 -32 -55 -32 -62s7 -11 25 -14l32 -6c8 -6 6 -23 -3 -29c-42 2 -74 3 -115 3c-37 0 -71 -1 -104 -3c-9 6 -9 23 -1 29l25 4c40 6 57 18 93 69c13 18 108 149 145 203l160 230c38 54 59 89 62 107c36 2 73 28 90 37
c8 0 16 -4 16 -11c0 -16 -2 -58 -5 -144c-4 -128 -7 -257 -9 -385c-2 -91 2 -101 52 -107l24 -3c6 -7 4 -24 -4 -29c-42 2 -82 3 -130 3c-51 0 -92 -1 -123 -3c-12 5 -11 23 -3 29l27 4c42 6 47 14 49 61l6 133c1 21 -4 23 -30 23zM287 292h107c20 0 23 2 24 24l9 169
c1 22 0 37 1 61h-2c-7 -12 -21 -33 -48 -73l-109 -163c-10 -15 -8 -18 18 -18zM643 772l-189 -66c-8 2 -15 18 -13 28l158 115c16 11 24 15 32 15c10 0 20 -6 32 -26c11 -18 15 -37 13 -43c-3 -8 -13 -16 -33 -23z" />
    <glyph glyph-name="Acircumflex" unicode="&#xc2;" horiz-adv-x="608" 
d="M388 247h-131c-30 0 -30 -1 -47 -28l-69 -111c-25 -41 -32 -55 -32 -62s7 -11 25 -14l32 -6c8 -6 6 -23 -3 -29c-42 2 -74 3 -115 3c-37 0 -71 -1 -104 -3c-9 6 -9 23 -1 29l25 4c40 6 57 18 93 69c13 18 108 149 145 203l160 230c38 54 59 89 62 107c36 2 73 28 90 37
c8 0 16 -4 16 -11c0 -16 -2 -58 -5 -144c-4 -128 -7 -257 -9 -385c-2 -91 2 -101 52 -107l24 -3c6 -7 4 -24 -4 -29c-42 2 -82 3 -130 3c-51 0 -92 -1 -123 -3c-12 5 -11 23 -3 29l27 4c42 6 47 14 49 61l6 133c1 21 -4 23 -30 23zM287 292h107c20 0 23 2 24 24l9 169
c1 22 0 37 1 61h-2c-7 -12 -21 -33 -48 -73l-109 -163c-10 -15 -8 -18 18 -18zM497 755l-139 -68c-12 0 -20 13 -18 24l162 128c17 14 36 16 50 0l115 -130c2 -11 -10 -21 -21 -22l-113 68c-10 6 -26 5 -36 0z" />
    <glyph glyph-name="Adieresis" unicode="&#xc4;" horiz-adv-x="608" 
d="M388 247h-131c-30 0 -30 -1 -47 -28l-69 -111c-25 -41 -32 -55 -32 -62s7 -11 25 -14l32 -6c8 -6 6 -23 -3 -29c-42 2 -74 3 -115 3c-37 0 -71 -1 -104 -3c-9 6 -9 23 -1 29l25 4c40 6 57 18 93 69c13 18 108 149 145 203l160 230c38 54 59 89 62 107c36 2 73 28 90 37
c8 0 16 -4 16 -11c0 -16 -2 -58 -5 -144c-4 -128 -7 -257 -9 -385c-2 -91 2 -101 52 -107l24 -3c6 -7 4 -24 -4 -29c-42 2 -82 3 -130 3c-51 0 -92 -1 -123 -3c-12 5 -11 23 -3 29l27 4c42 6 47 14 49 61l6 133c1 21 -4 23 -30 23zM287 292h107c20 0 23 2 24 24l9 169
c1 22 0 37 1 61h-2c-7 -12 -21 -33 -48 -73l-109 -163c-10 -15 -8 -18 18 -18zM419 817c31 0 52 -23 48 -56c-4 -32 -28 -56 -62 -56c-31 0 -51 24 -46 57c5 32 30 55 60 55zM600 817c32 0 53 -23 48 -56c-4 -32 -29 -56 -61 -56s-53 24 -47 57c5 32 31 55 60 55z" />
    <glyph glyph-name="Agrave" unicode="&#xc0;" horiz-adv-x="608" 
d="M388 247h-131c-30 0 -30 -1 -47 -28l-69 -111c-25 -41 -32 -55 -32 -62s7 -11 25 -14l32 -6c8 -6 6 -23 -3 -29c-42 2 -74 3 -115 3c-37 0 -71 -1 -104 -3c-9 6 -9 23 -1 29l25 4c40 6 57 18 93 69c13 18 108 149 145 203l160 230c38 54 59 89 62 107c36 2 73 28 90 37
c8 0 16 -4 16 -11c0 -16 -2 -58 -5 -144c-4 -128 -7 -257 -9 -385c-2 -91 2 -101 52 -107l24 -3c6 -7 4 -24 -4 -29c-42 2 -82 3 -130 3c-51 0 -92 -1 -123 -3c-12 5 -11 23 -3 29l27 4c42 6 47 14 49 61l6 133c1 21 -4 23 -30 23zM287 292h107c20 0 23 2 24 24l9 169
c1 22 0 37 1 61h-2c-7 -12 -21 -33 -48 -73l-109 -163c-10 -15 -8 -18 18 -18zM547 706l-189 66c-20 7 -30 15 -33 23c-2 6 2 25 13 43c12 20 22 26 32 26c8 0 16 -4 32 -15l158 -115c2 -9 -5 -26 -13 -28z" />
    <glyph glyph-name="Aring" unicode="&#xc5;" horiz-adv-x="608" 
d="M388 247h-131c-30 0 -30 -1 -47 -28l-69 -111c-25 -41 -32 -55 -32 -62s7 -11 25 -14l32 -6c8 -6 6 -23 -3 -29c-42 2 -74 3 -115 3c-37 0 -71 -1 -104 -3c-9 6 -9 23 -1 29l25 4c40 6 57 18 93 69c13 18 108 149 145 203l160 230c38 54 59 89 62 107c36 2 73 28 90 37
c8 0 16 -4 16 -11c0 -16 -2 -58 -5 -144c-4 -128 -7 -257 -9 -385c-2 -91 2 -101 52 -107l24 -3c6 -7 4 -24 -4 -29c-42 2 -82 3 -130 3c-51 0 -92 -1 -123 -3c-12 5 -11 23 -3 29l27 4c42 6 47 14 49 61l6 133c1 21 -4 23 -30 23zM287 292h107c20 0 23 2 24 24l9 169
c1 22 0 37 1 61h-2c-7 -12 -21 -33 -48 -73l-109 -163c-10 -15 -8 -18 18 -18zM406 791c0 47 36 93 93 93s93 -46 93 -93c0 -49 -36 -95 -93 -95s-93 46 -93 95zM455 791c0 -35 16 -61 44 -61s44 26 44 61c0 33 -16 59 -44 59s-44 -26 -44 -59z" />
    <glyph glyph-name="Atilde" unicode="&#xc3;" horiz-adv-x="608" 
d="M388 247h-131c-30 0 -30 -1 -47 -28l-69 -111c-25 -41 -32 -55 -32 -62s7 -11 25 -14l32 -6c8 -6 6 -23 -3 -29c-42 2 -74 3 -115 3c-37 0 -71 -1 -104 -3c-9 6 -9 23 -1 29l25 4c40 6 57 18 93 69c13 18 108 149 145 203l160 230c38 54 59 89 62 107c36 2 73 28 90 37
c8 0 16 -4 16 -11c0 -16 -2 -58 -5 -144c-4 -128 -7 -257 -9 -385c-2 -91 2 -101 52 -107l24 -3c6 -7 4 -24 -4 -29c-42 2 -82 3 -130 3c-51 0 -92 -1 -123 -3c-12 5 -11 23 -3 29l27 4c42 6 47 14 49 61l6 133c1 21 -4 23 -30 23zM287 292h107c20 0 23 2 24 24l9 169
c1 22 0 37 1 61h-2c-7 -12 -21 -33 -48 -73l-109 -163c-10 -15 -8 -18 18 -18zM478 807h57c25 0 45 4 60 15c11 7 20 20 26 32c4 2 19 1 24 -4c-9 -32 -30 -77 -44 -91c-18 -18 -31 -22 -56 -22h-63c-29 0 -51 -5 -62 -18c-11 -7 -22 -25 -30 -41c-10 -1 -19 0 -22 6
c4 21 24 76 41 96c21 23 40 27 69 27z" />
    <glyph glyph-name="Ccedilla" unicode="&#xc7;" horiz-adv-x="656" 
d="M310 -96l61 82c-160 8 -270 96 -269 260c1 128 64 241 144 312c73 65 186 118 332 118c85 0 156 -25 184 -33c-20 -46 -36 -101 -47 -146c-6 -8 -30 -8 -32 2c12 94 -20 138 -115 138c-77 0 -162 -34 -236 -120c-52 -60 -104 -168 -104 -281c0 -151 75 -213 171 -213
c93 0 154 56 213 140c10 6 26 4 30 -5c-14 -44 -44 -107 -68 -150c-21 -2 -47 -9 -78 -14c-25 -4 -51 -8 -81 -9l-26 -35c-8 -11 -6 -13 8 -23c22 -17 46 -40 46 -77c0 -53 -56 -89 -117 -89c-44 0 -71 16 -71 42c0 17 12 31 30 31c25 0 42 -35 62 -35c11 0 27 11 27 32
c0 27 -39 52 -61 67z" />
    <glyph glyph-name="Eacute" unicode="&#xc9;" horiz-adv-x="588" 
d="M262 0h-121c-43 0 -83 -1 -136 -3c-10 5 -8 23 2 29l34 4c47 6 58 17 88 114l116 372c27 87 27 102 -21 114l-24 6c-8 6 -4 22 6 27c21 -1 43 -1 66 -2c22 0 45 -1 64 -1h204c63 0 116 0 138 3c-8 -17 -32 -92 -45 -145c-6 -8 -28 -10 -32 0c4 43 4 71 -19 85
c-16 10 -46 18 -95 18h-66c-30 0 -34 -4 -44 -36l-60 -191c-9 -28 -8 -29 20 -29h54c73 0 90 7 114 53l14 27c8 8 30 6 32 -2c-10 -25 -23 -64 -36 -102s-21 -75 -27 -101c-8 -7 -28 -7 -32 0l2 26c4 50 -16 54 -81 54h-52c-27 0 -31 -2 -39 -28l-41 -128
c-17 -52 -23 -83 -14 -102c7 -15 24 -23 100 -23c99 0 136 6 209 109c8 6 26 4 31 -6c-13 -40 -49 -118 -72 -145c-32 1 -72 2 -113 2c-41 1 -84 1 -124 1zM623 767l-189 -66c-8 2 -15 18 -13 28l158 115c16 11 24 15 32 15c10 0 20 -6 32 -26c11 -18 15 -37 13 -43
c-3 -8 -13 -16 -33 -23z" />
    <glyph glyph-name="Ecircumflex" unicode="&#xca;" horiz-adv-x="588" 
d="M262 0h-121c-43 0 -83 -1 -136 -3c-10 5 -8 23 2 29l34 4c47 6 58 17 88 114l116 372c27 87 27 102 -21 114l-24 6c-8 6 -4 22 6 27c21 -1 43 -1 66 -2c22 0 45 -1 64 -1h204c63 0 116 0 138 3c-8 -17 -32 -92 -45 -145c-6 -8 -28 -10 -32 0c4 43 4 71 -19 85
c-16 10 -46 18 -95 18h-66c-30 0 -34 -4 -44 -36l-60 -191c-9 -28 -8 -29 20 -29h54c73 0 90 7 114 53l14 27c8 8 30 6 32 -2c-10 -25 -23 -64 -36 -102s-21 -75 -27 -101c-8 -7 -28 -7 -32 0l2 26c4 50 -16 54 -81 54h-52c-27 0 -31 -2 -39 -28l-41 -128
c-17 -52 -23 -83 -14 -102c7 -15 24 -23 100 -23c99 0 136 6 209 109c8 6 26 4 31 -6c-13 -40 -49 -118 -72 -145c-32 1 -72 2 -113 2c-41 1 -84 1 -124 1zM455 775l-138 -68c-12 0 -20 13 -18 24l162 128c17 14 35 15 49 0l116 -130c2 -11 -10 -21 -21 -22l-113 68
c-10 6 -27 5 -37 0z" />
    <glyph glyph-name="Edieresis" unicode="&#xcb;" horiz-adv-x="588" 
d="M262 0h-121c-43 0 -83 -1 -136 -3c-10 5 -8 23 2 29l34 4c47 6 58 17 88 114l116 372c27 87 27 102 -21 114l-24 6c-8 6 -4 22 6 27c21 -1 43 -1 66 -2c22 0 45 -1 64 -1h204c63 0 116 0 138 3c-8 -17 -32 -92 -45 -145c-6 -8 -28 -10 -32 0c4 43 4 71 -19 85
c-16 10 -46 18 -95 18h-66c-30 0 -34 -4 -44 -36l-60 -191c-9 -28 -8 -29 20 -29h54c73 0 90 7 114 53l14 27c8 8 30 6 32 -2c-10 -25 -23 -64 -36 -102s-21 -75 -27 -101c-8 -7 -28 -7 -32 0l2 26c4 50 -16 54 -81 54h-52c-27 0 -31 -2 -39 -28l-41 -128
c-17 -52 -23 -83 -14 -102c7 -15 24 -23 100 -23c99 0 136 6 209 109c8 6 26 4 31 -6c-13 -40 -49 -118 -72 -145c-32 1 -72 2 -113 2c-41 1 -84 1 -124 1zM399 817c31 0 52 -23 48 -56c-4 -32 -28 -56 -62 -56c-31 0 -51 24 -46 57c5 32 30 55 60 55zM579 817
c31 0 52 -23 48 -56c-4 -32 -29 -56 -62 -56c-31 0 -51 24 -46 57c5 32 30 55 60 55z" />
    <glyph glyph-name="Egrave" unicode="&#xc8;" horiz-adv-x="588" 
d="M262 0h-121c-43 0 -83 -1 -136 -3c-10 5 -8 23 2 29l34 4c47 6 58 17 88 114l116 372c27 87 27 102 -21 114l-24 6c-8 6 -4 22 6 27c21 -1 43 -1 66 -2c22 0 45 -1 64 -1h204c63 0 116 0 138 3c-8 -17 -32 -92 -45 -145c-6 -8 -28 -10 -32 0c4 43 4 71 -19 85
c-16 10 -46 18 -95 18h-66c-30 0 -34 -4 -44 -36l-60 -191c-9 -28 -8 -29 20 -29h54c73 0 90 7 114 53l14 27c8 8 30 6 32 -2c-10 -25 -23 -64 -36 -102s-21 -75 -27 -101c-8 -7 -28 -7 -32 0l2 26c4 50 -16 54 -81 54h-52c-27 0 -31 -2 -39 -28l-41 -128
c-17 -52 -23 -83 -14 -102c7 -15 24 -23 100 -23c99 0 136 6 209 109c8 6 26 4 31 -6c-13 -40 -49 -118 -72 -145c-32 1 -72 2 -113 2c-41 1 -84 1 -124 1zM527 706l-189 66c-20 7 -30 15 -33 23c-2 6 2 25 13 43c12 20 22 26 32 26c8 0 16 -4 32 -15l158 -115
c2 -9 -5 -26 -13 -28z" />
    <glyph glyph-name="Iacute" unicode="&#xcd;" horiz-adv-x="357" 
d="M263 30l30 -4c6 -8 2 -24 -6 -29c-53 2 -95 3 -143 3s-88 -1 -131 -3c-8 6 -8 25 2 29l28 4c45 6 56 17 86 114l116 372c27 87 30 107 -23 114l-30 4c-6 8 -2 24 6 29c53 -2 95 -3 143 -3s88 1 131 3c8 -6 8 -25 -2 -29l-28 -4c-45 -6 -56 -17 -86 -114l-116 -372
c-27 -87 -30 -107 23 -114zM507 772l-189 -66c-8 2 -15 18 -13 28l158 115c16 11 24 15 32 15c10 0 20 -6 32 -26c11 -18 15 -37 13 -43c-3 -8 -13 -16 -33 -23z" />
    <glyph glyph-name="Icircumflex" unicode="&#xce;" horiz-adv-x="357" 
d="M263 30l30 -4c6 -8 2 -24 -6 -29c-53 2 -95 3 -143 3s-88 -1 -131 -3c-8 6 -8 25 2 29l28 4c45 6 56 17 86 114l116 372c27 87 30 107 -23 114l-30 4c-6 8 -2 24 6 29c53 -2 95 -3 143 -3s88 1 131 3c8 -6 8 -25 -2 -29l-28 -4c-45 -6 -56 -17 -86 -114l-116 -372
c-27 -87 -30 -107 23 -114zM343 769l-133 -62c-12 0 -20 13 -18 24l162 128c17 14 36 16 50 0l115 -130c2 -11 -10 -21 -21 -22l-114 61c-14 7 -25 6 -41 1z" />
    <glyph glyph-name="Idieresis" unicode="&#xcf;" horiz-adv-x="357" 
d="M263 30l30 -4c6 -8 2 -24 -6 -29c-53 2 -95 3 -143 3s-88 -1 -131 -3c-8 6 -8 25 2 29l28 4c45 6 56 17 86 114l116 372c27 87 30 107 -23 114l-30 4c-6 8 -2 24 6 29c53 -2 95 -3 143 -3s88 1 131 3c8 -6 8 -25 -2 -29l-28 -4c-45 -6 -56 -17 -86 -114l-116 -372
c-27 -87 -30 -107 23 -114zM290 823c32 0 54 -25 50 -59s-29 -59 -65 -59c-33 0 -54 25 -48 60c5 33 31 58 63 58zM470 823c32 0 54 -25 50 -59s-30 -59 -65 -59c-33 0 -54 25 -48 60c5 33 31 58 63 58z" />
    <glyph glyph-name="Igrave" unicode="&#xcc;" horiz-adv-x="357" 
d="M263 30l30 -4c6 -8 2 -24 -6 -29c-53 2 -95 3 -143 3s-88 -1 -131 -3c-8 6 -8 25 2 29l28 4c45 6 56 17 86 114l116 372c27 87 30 107 -23 114l-30 4c-6 8 -2 24 6 29c53 -2 95 -3 143 -3s88 1 131 3c8 -6 8 -25 -2 -29l-28 -4c-45 -6 -56 -17 -86 -114l-116 -372
c-27 -87 -30 -107 23 -114zM422 706l-208 73c-22 8 -33 16 -36 25c-2 7 2 27 14 47c13 22 24 29 35 29c9 0 19 -4 36 -17l173 -126c3 -10 -5 -29 -14 -31z" />
    <glyph glyph-name="Ntilde" unicode="&#xd1;" horiz-adv-x="730" 
d="M154 242l79 260c18 60 30 93 20 109c-4 10 -14 15 -28 17l-33 8c-8 6 -4 22 6 27c21 -1 39 -2 57 -2c18 -1 37 -1 57 -1c12 0 63 0 75 2c2 -58 41 -141 63 -191l75 -175c28 -65 45 -105 56 -127c5 9 11 28 17 48l62 201c21 67 37 138 41 159c6 35 -3 46 -46 53l-26 4
c-6 8 -6 22 4 29c41 -2 77 -3 120 -3c40 0 71 1 111 3c6 -6 8 -23 0 -29l-26 -5c-31 -6 -52 -12 -69 -44c-10 -19 -28 -71 -58 -167l-74 -237c-28 -90 -41 -140 -55 -182c-8 -6 -30 -10 -48 -8c-7 15 -27 76 -74 186l-93 219c-23 53 -51 126 -65 156c-4 -6 -10 -28 -27 -83
l-69 -227c-20 -67 -38 -138 -42 -159c-6 -35 3 -46 47 -53l25 -4c6 -8 6 -22 -4 -29c-41 2 -77 3 -120 3c-39 0 -71 -1 -110 -3c-7 6 -9 23 0 29l25 5c31 6 52 12 69 44c10 19 29 71 58 167zM525 807h57c25 0 45 4 60 15c11 7 20 20 26 32c4 2 19 1 24 -4
c-9 -32 -30 -77 -44 -91c-18 -18 -31 -22 -56 -22h-63c-29 0 -51 -5 -62 -18c-11 -7 -22 -25 -30 -41c-10 -1 -19 0 -22 6c4 21 24 76 41 96c21 23 40 27 69 27z" />
    <glyph glyph-name="Oacute" unicode="&#xd3;" horiz-adv-x="748" 
d="M371 -16c-202 0 -269 146 -267 264c2 125 59 251 161 337c79 68 166 91 246 91c129 0 263 -77 259 -276c-2 -112 -51 -227 -134 -308c-51 -51 -144 -108 -265 -108zM517 637c-52 0 -95 -25 -128 -51c-77 -63 -165 -215 -169 -385c-2 -91 38 -178 145 -178
c45 0 102 16 155 75c91 101 132 241 134 367c2 111 -53 172 -137 172zM668 772l-189 -66c-8 2 -15 18 -13 28l158 115c16 11 24 15 32 15c10 0 20 -6 32 -26c11 -18 15 -37 13 -43c-3 -8 -13 -16 -33 -23z" />
    <glyph glyph-name="Ocircumflex" unicode="&#xd4;" horiz-adv-x="748" 
d="M371 -16c-202 0 -269 146 -267 264c2 125 59 251 161 337c79 68 166 91 246 91c129 0 263 -77 259 -276c-2 -112 -51 -227 -134 -308c-51 -51 -144 -108 -265 -108zM517 637c-52 0 -95 -25 -128 -51c-77 -63 -165 -215 -169 -385c-2 -91 38 -178 145 -178
c45 0 102 16 155 75c91 101 132 241 134 367c2 111 -53 172 -137 172zM517 775l-139 -68c-12 0 -20 13 -18 24l162 128c17 14 36 16 50 0l115 -130c2 -11 -10 -21 -21 -22l-113 68c-10 6 -26 5 -36 0z" />
    <glyph glyph-name="Odieresis" unicode="&#xd6;" horiz-adv-x="748" 
d="M371 -16c-202 0 -269 146 -267 264c2 125 59 251 161 337c79 68 166 91 246 91c129 0 263 -77 259 -276c-2 -112 -51 -227 -134 -308c-51 -51 -144 -108 -265 -108zM517 637c-52 0 -95 -25 -128 -51c-77 -63 -165 -215 -169 -385c-2 -91 38 -178 145 -178
c45 0 102 16 155 75c91 101 132 241 134 367c2 111 -53 172 -137 172zM450 822c31 0 52 -23 48 -56c-4 -32 -28 -56 -62 -56c-31 0 -51 24 -46 57c5 32 30 55 60 55zM630 822c31 0 52 -23 48 -56c-4 -32 -29 -56 -62 -56c-31 0 -51 24 -46 57c5 32 30 55 60 55z" />
    <glyph glyph-name="Ograve" unicode="&#xd2;" horiz-adv-x="748" 
d="M371 -16c-202 0 -269 146 -267 264c2 125 59 251 161 337c79 68 166 91 246 91c129 0 263 -77 259 -276c-2 -112 -51 -227 -134 -308c-51 -51 -144 -108 -265 -108zM517 637c-52 0 -95 -25 -128 -51c-77 -63 -165 -215 -169 -385c-2 -91 38 -178 145 -178
c45 0 102 16 155 75c91 101 132 241 134 367c2 111 -53 172 -137 172zM607 706l-189 66c-20 7 -30 15 -33 23c-2 6 2 25 13 43c12 20 22 26 32 26c8 0 16 -4 32 -15l158 -115c2 -9 -5 -26 -13 -28z" />
    <glyph glyph-name="Otilde" unicode="&#xd5;" horiz-adv-x="748" 
d="M371 -16c-202 0 -269 146 -267 264c2 125 59 251 161 337c79 68 166 91 246 91c129 0 263 -77 259 -276c-2 -112 -51 -227 -134 -308c-51 -51 -144 -108 -265 -108zM517 637c-52 0 -95 -25 -128 -51c-77 -63 -165 -215 -169 -385c-2 -91 38 -178 145 -178
c45 0 102 16 155 75c91 101 132 241 134 367c2 111 -53 172 -137 172zM494 807h57c25 0 45 4 60 15c11 7 20 20 26 32c4 2 19 1 24 -4c-9 -32 -30 -77 -44 -91c-18 -18 -31 -22 -56 -22h-63c-29 0 -51 -5 -62 -18c-11 -7 -22 -25 -30 -41c-10 -1 -19 0 -22 6
c4 21 24 76 41 96c21 23 40 27 69 27z" />
    <glyph glyph-name="Scaron" unicode="&#x160;" horiz-adv-x="498" 
d="M235 -16c-86 0 -160 34 -179 77c-9 49 -3 97 4 135c6 6 24 6 31 -2c6 -36 16 -72 36 -104c25 -41 68 -67 123 -67c63 0 132 42 132 129c0 64 -49 114 -105 155c-42 31 -99 90 -99 168c0 121 99 203 229 201c68 -1 136 -23 168 -49c-13 -30 -28 -78 -38 -124
c-8 -8 -26 -6 -32 4c8 65 -15 130 -111 130c-78 0 -122 -56 -122 -115c0 -66 64 -113 97 -137c65 -46 114 -103 114 -192c0 -120 -93 -209 -248 -209zM445 803l144 72c10 0 17 -13 15 -24l-167 -129c-17 -13 -36 -15 -49 0l-111 136c0 9 11 16 22 17l110 -72
c10 -7 26 -5 36 0z" />
    <glyph glyph-name="Uacute" unicode="&#xda;" horiz-adv-x="726" 
d="M458 635l-28 -4c-45 -6 -57 -18 -87 -115l-72 -230c-12 -38 -22 -83 -23 -117c-1 -84 39 -140 141 -140c128 0 189 118 228 239l48 150c21 67 37 138 41 160c6 34 -3 46 -46 53l-26 4c-6 8 -6 21 4 28c41 -2 77 -3 120 -3c40 0 71 1 111 3c7 -6 9 -22 0 -28l-26 -5
c-30 -6 -52 -13 -69 -45c-10 -18 -28 -71 -58 -167l-49 -156c-24 -75 -55 -155 -115 -209c-50 -44 -126 -69 -195 -69c-136 0 -226 53 -222 176c1 31 8 68 20 106l78 250c27 87 29 110 -24 116l-25 3c-7 8 -4 23 6 28c49 -2 90 -3 138 -3c49 0 88 1 132 3c7 -6 7 -24 -2 -28
zM677 772l-189 -66c-8 2 -15 18 -13 28l158 115c16 11 24 15 32 15c10 0 20 -6 32 -26c11 -18 15 -37 13 -43c-3 -8 -13 -16 -33 -23z" />
    <glyph glyph-name="Ucircumflex" unicode="&#xdb;" horiz-adv-x="726" 
d="M458 635l-28 -4c-45 -6 -57 -18 -87 -115l-72 -230c-12 -38 -22 -83 -23 -117c-1 -84 39 -140 141 -140c128 0 189 118 228 239l48 150c21 67 37 138 41 160c6 34 -3 46 -46 53l-26 4c-6 8 -6 21 4 28c41 -2 77 -3 120 -3c40 0 71 1 111 3c7 -6 9 -22 0 -28l-26 -5
c-30 -6 -52 -13 -69 -45c-10 -18 -28 -71 -58 -167l-49 -156c-24 -75 -55 -155 -115 -209c-50 -44 -126 -69 -195 -69c-136 0 -226 53 -222 176c1 31 8 68 20 106l78 250c27 87 29 110 -24 116l-25 3c-7 8 -4 23 6 28c49 -2 90 -3 138 -3c49 0 88 1 132 3c7 -6 7 -24 -2 -28
zM551 775l-139 -68c-12 0 -20 13 -18 24l162 128c17 14 36 16 50 0l115 -130c2 -11 -10 -21 -21 -22l-113 68c-10 6 -26 5 -36 0z" />
    <glyph glyph-name="Udieresis" unicode="&#xdc;" horiz-adv-x="726" 
d="M458 635l-28 -4c-45 -6 -57 -18 -87 -115l-72 -230c-12 -38 -22 -83 -23 -117c-1 -84 39 -140 141 -140c128 0 189 118 228 239l48 150c21 67 37 138 41 160c6 34 -3 46 -46 53l-26 4c-6 8 -6 21 4 28c41 -2 77 -3 120 -3c40 0 71 1 111 3c7 -6 9 -22 0 -28l-26 -5
c-30 -6 -52 -13 -69 -45c-10 -18 -28 -71 -58 -167l-49 -156c-24 -75 -55 -155 -115 -209c-50 -44 -126 -69 -195 -69c-136 0 -226 53 -222 176c1 31 8 68 20 106l78 250c27 87 29 110 -24 116l-25 3c-7 8 -4 23 6 28c49 -2 90 -3 138 -3c49 0 88 1 132 3c7 -6 7 -24 -2 -28
zM468 817c31 0 52 -23 48 -56c-4 -32 -28 -56 -62 -56c-31 0 -51 24 -46 57c5 32 30 55 60 55zM658 817c31 0 52 -23 48 -56c-4 -32 -29 -56 -62 -56c-31 0 -51 24 -46 57c5 32 30 55 60 55z" />
    <glyph glyph-name="Ugrave" unicode="&#xd9;" horiz-adv-x="726" 
d="M458 635l-28 -4c-45 -6 -57 -18 -87 -115l-72 -230c-12 -38 -22 -83 -23 -117c-1 -84 39 -140 141 -140c128 0 189 118 228 239l48 150c21 67 37 138 41 160c6 34 -3 46 -46 53l-26 4c-6 8 -6 21 4 28c41 -2 77 -3 120 -3c40 0 71 1 111 3c7 -6 9 -22 0 -28l-26 -5
c-30 -6 -52 -13 -69 -45c-10 -18 -28 -71 -58 -167l-49 -156c-24 -75 -55 -155 -115 -209c-50 -44 -126 -69 -195 -69c-136 0 -226 53 -222 176c1 31 8 68 20 106l78 250c27 87 29 110 -24 116l-25 3c-7 8 -4 23 6 28c49 -2 90 -3 138 -3c49 0 88 1 132 3c7 -6 7 -24 -2 -28
zM596 706l-189 66c-20 7 -30 15 -33 23c-2 6 2 25 13 43c12 20 22 26 32 26c8 0 16 -4 32 -15l158 -115c2 -9 -5 -26 -13 -28z" />
    <glyph glyph-name="Yacute" unicode="&#xdd;" horiz-adv-x="588" 
d="M382 32l36 -6c6 -4 4 -24 -4 -29c-61 2 -103 3 -148 3c-51 0 -91 -1 -142 -3c-8 6 -8 25 2 29l38 6c45 3 54 15 84 112l16 51c16 52 19 74 9 126c-7 39 -36 183 -47 237c-9 47 -18 64 -53 71l-26 5c-8 8 -6 24 5 29c25 -1 46 -2 65 -2c20 -1 38 -1 58 -1c40 0 83 1 122 4
c10 -5 9 -24 1 -30l-33 -6c-37 -7 -42 -14 -37 -44c18 -96 34 -177 52 -262l138 175c26 32 52 65 75 100c13 20 13 26 -15 32l-25 5c-10 6 -8 24 2 29c44 -2 77 -3 111 -3c38 0 70 1 99 3c8 -5 8 -23 -2 -29l-25 -5c-40 -8 -61 -20 -109 -73c-50 -55 -133 -158 -180 -216
c-36 -45 -47 -57 -69 -129l-21 -67c-29 -91 -28 -104 23 -112zM618 772l-189 -66c-8 2 -15 18 -13 28l158 115c16 11 24 15 32 15c10 0 20 -6 32 -26c11 -18 15 -37 13 -43c-3 -8 -13 -16 -33 -23z" />
    <glyph glyph-name="Ydieresis" unicode="&#x178;" horiz-adv-x="588" 
d="M382 32l36 -6c6 -4 4 -24 -4 -29c-61 2 -103 3 -148 3c-51 0 -91 -1 -142 -3c-8 6 -8 25 2 29l38 6c45 3 54 15 84 112l16 51c16 52 19 74 9 126c-7 39 -36 183 -47 237c-9 47 -18 64 -53 71l-26 5c-8 8 -6 24 5 29c25 -1 46 -2 65 -2c20 -1 38 -1 58 -1c40 0 83 1 122 4
c10 -5 9 -24 1 -30l-33 -6c-37 -7 -42 -14 -37 -44c18 -96 34 -177 52 -262l138 175c26 32 52 65 75 100c13 20 13 26 -15 32l-25 5c-10 6 -8 24 2 29c44 -2 77 -3 111 -3c38 0 70 1 99 3c8 -5 8 -23 -2 -29l-25 -5c-40 -8 -61 -20 -109 -73c-50 -55 -133 -158 -180 -216
c-36 -45 -47 -57 -69 -129l-21 -67c-29 -91 -28 -104 23 -112zM389 817c31 0 52 -23 48 -56c-4 -32 -28 -56 -62 -56c-31 0 -51 24 -46 57c5 32 30 55 60 55zM589 817c31 0 52 -23 48 -56c-4 -32 -29 -56 -62 -56c-31 0 -51 24 -46 57c5 32 30 55 60 55z" />
    <glyph glyph-name="Zcaron" unicode="&#x17d;" horiz-adv-x="627" 
d="M243 39h106c59 0 118 4 150 20c29 15 65 55 94 99c6 6 26 2 28 -8c-14 -48 -53 -128 -75 -153c-34 1 -68 2 -102 2c-34 1 -68 1 -103 1h-246c-51 0 -83 -1 -100 -3c-8 2 -10 11 -8 19c23 17 93 87 134 130l419 444c24 26 20 31 -11 31h-142c-42 0 -71 -1 -101 -16
c-27 -13 -53 -40 -89 -91c-9 -6 -27 0 -29 12c26 53 51 110 69 160c4 4 14 4 20 2c2 -24 11 -28 86 -28h284c58 0 87 2 100 3c8 -2 10 -9 7 -19c-26 -18 -135 -131 -206 -207l-307 -326c-27 -28 -42 -46 -42 -58c0 -10 17 -14 64 -14zM510 803l144 72c10 0 17 -13 16 -24
l-168 -129c-17 -13 -36 -15 -49 0l-111 136c0 9 11 16 22 17l110 -72c10 -7 26 -5 36 0z" />
    <glyph glyph-name="aacute" unicode="&#xe1;" horiz-adv-x="470" 
d="M383 368l26 56c4 2 12 4 20 4c19 0 47 -6 56 -24c-28 -65 -92 -230 -129 -334c-5 -13 -1 -18 5 -18c15 0 56 23 100 65c8 0 16 -6 16 -19c-44 -56 -122 -112 -186 -112c-24 0 -33 20 -33 32c0 10 2 21 10 41l36 95h-3c-70 -95 -170 -168 -228 -168c-32 0 -54 28 -54 60
c0 39 40 140 117 227c45 50 91 81 125 99c30 16 54 22 78 22c8 0 16 -4 23 -7c5 -3 15 -11 21 -19zM313 352c-22 0 -38 -9 -70 -43c-56 -61 -108 -174 -110 -240c0 -11 4 -20 12 -20c16 0 59 35 102 80c51 52 96 142 110 188c-8 24 -24 35 -44 35zM480 571l-144 -130
c-13 0 -22 7 -24 17l104 172c15 24 26 30 36 29c11 -1 20 -8 37 -20c14 -14 21 -22 19 -35c-1 -10 -15 -21 -28 -33z" />
    <glyph glyph-name="acircumflex" unicode="&#xe2;" horiz-adv-x="470" 
d="M383 368l26 56c4 2 12 4 20 4c19 0 47 -6 56 -24c-28 -65 -92 -230 -129 -334c-5 -13 -1 -18 5 -18c15 0 56 23 100 65c8 0 16 -6 16 -19c-44 -56 -122 -112 -186 -112c-24 0 -33 20 -33 32c0 10 2 21 10 41l36 95h-3c-70 -95 -170 -168 -228 -168c-32 0 -54 28 -54 60
c0 39 40 140 117 227c45 50 91 81 125 99c30 16 54 22 78 22c8 0 16 -4 23 -7c5 -3 15 -11 21 -19zM313 352c-22 0 -38 -9 -70 -43c-56 -61 -108 -174 -110 -240c0 -11 4 -20 12 -20c16 0 59 35 102 80c51 52 96 142 110 188c-8 24 -24 35 -44 35zM408 659l45 -197
c-4 -8 -12 -13 -24 -12l-55 102c-10 19 -16 17 -31 2l-109 -106c-12 -1 -20 6 -20 18l143 192c15 20 24 23 31 23c6 0 15 -1 20 -22z" />
    <glyph glyph-name="adieresis" unicode="&#xe4;" horiz-adv-x="470" 
d="M383 368l26 56c4 2 12 4 20 4c19 0 47 -6 56 -24c-28 -65 -92 -230 -129 -334c-5 -13 -1 -18 5 -18c15 0 56 23 100 65c8 0 16 -6 16 -19c-44 -56 -122 -112 -186 -112c-24 0 -33 20 -33 32c0 10 2 21 10 41l36 95h-3c-70 -95 -170 -168 -228 -168c-32 0 -54 28 -54 60
c0 39 40 140 117 227c45 50 91 81 125 99c30 16 54 22 78 22c8 0 16 -4 23 -7c5 -3 15 -11 21 -19zM313 352c-22 0 -38 -9 -70 -43c-56 -61 -108 -174 -110 -240c0 -11 4 -20 12 -20c16 0 59 35 102 80c51 52 96 142 110 188c-8 24 -24 35 -44 35zM293 597
c30 0 50 -22 46 -54c-4 -30 -27 -53 -59 -53c-30 0 -49 23 -44 54s29 53 57 53zM458 597c31 0 50 -22 46 -54c-4 -30 -28 -53 -58 -53s-50 23 -45 54s29 53 57 53z" />
    <glyph glyph-name="agrave" unicode="&#xe0;" horiz-adv-x="470" 
d="M383 368l26 56c4 2 12 4 20 4c19 0 47 -6 56 -24c-28 -65 -92 -230 -129 -334c-5 -13 -1 -18 5 -18c15 0 56 23 100 65c8 0 16 -6 16 -19c-44 -56 -122 -112 -186 -112c-24 0 -33 20 -33 32c0 10 2 21 10 41l36 95h-3c-70 -95 -170 -168 -228 -168c-32 0 -54 28 -54 60
c0 39 40 140 117 227c45 50 91 81 125 99c30 16 54 22 78 22c8 0 16 -4 23 -7c5 -3 15 -11 21 -19zM313 352c-22 0 -38 -9 -70 -43c-56 -61 -108 -174 -110 -240c0 -11 4 -20 12 -20c16 0 59 35 102 80c51 52 96 142 110 188c-8 24 -24 35 -44 35zM370 452l-117 147
c-13 17 -22 28 -22 40s8 20 25 31c14 8 25 13 36 13c12 0 22 -10 31 -33l72 -185c-3 -11 -12 -15 -25 -13z" />
    <glyph glyph-name="aring" unicode="&#xe5;" horiz-adv-x="470" 
d="M383 368l26 56c4 2 12 4 20 4c19 0 47 -6 56 -24c-28 -65 -92 -230 -129 -334c-5 -13 -1 -18 5 -18c15 0 56 23 100 65c8 0 16 -6 16 -19c-44 -56 -122 -112 -186 -112c-24 0 -33 20 -33 32c0 10 2 21 10 41l36 95h-3c-70 -95 -170 -168 -228 -168c-32 0 -54 28 -54 60
c0 39 40 140 117 227c45 50 91 81 125 99c30 16 54 22 78 22c8 0 16 -4 23 -7c5 -3 15 -11 21 -19zM313 352c-22 0 -38 -9 -70 -43c-56 -61 -108 -174 -110 -240c0 -11 4 -20 12 -20c16 0 59 35 102 80c51 52 96 142 110 188c-8 24 -24 35 -44 35zM262 553c0 47 36 93 93 93
s93 -46 93 -93c0 -49 -36 -95 -93 -95s-93 46 -93 95zM311 553c0 -35 16 -61 44 -61s44 26 44 61c0 33 -16 59 -44 59s-44 -26 -44 -59z" />
    <glyph glyph-name="atilde" unicode="&#xe3;" horiz-adv-x="470" 
d="M383 368l26 56c4 2 12 4 20 4c19 0 47 -6 56 -24c-28 -65 -92 -230 -129 -334c-5 -13 -1 -18 5 -18c15 0 56 23 100 65c8 0 16 -6 16 -19c-44 -56 -122 -112 -186 -112c-24 0 -33 20 -33 32c0 10 2 21 10 41l36 95h-3c-70 -95 -170 -168 -228 -168c-32 0 -54 28 -54 60
c0 39 40 140 117 227c45 50 91 81 125 99c30 16 54 22 78 22c8 0 16 -4 23 -7c5 -3 15 -11 21 -19zM313 352c-22 0 -38 -9 -70 -43c-56 -61 -108 -174 -110 -240c0 -11 4 -20 12 -20c16 0 59 35 102 80c51 52 96 142 110 188c-8 24 -24 35 -44 35zM345 574h55
c24 0 44 2 58 13c11 8 19 19 24 31c5 2 19 1 23 -3c-7 -31 -28 -74 -42 -88c-17 -17 -29 -20 -53 -20h-61c-27 0 -48 -7 -59 -18c-10 -7 -21 -24 -30 -40c-9 -1 -18 0 -21 6c4 20 23 73 41 93c20 22 37 26 65 26z" />
    <glyph glyph-name="ccedilla" unicode="&#xe7;" horiz-adv-x="360" 
d="M76 -96l62 81l-2 2c-1 -1 -5 -1 -8 -1c-54 0 -88 38 -88 110c0 66 41 165 113 236c53 52 106 76 159 76c52 0 87 -28 86 -68c0 -39 -37 -55 -60 -55c-17 0 -29 10 -30 28c-2 22 1 55 -25 55c-20 0 -47 -20 -74 -64c-31 -49 -63 -123 -63 -196c0 -45 17 -60 41 -60
c30 0 66 19 107 61c12 0 20 -8 18 -20c-26 -35 -72 -73 -122 -91l-35 -48c-8 -11 -6 -13 8 -23c22 -17 46 -40 46 -77c0 -53 -56 -89 -117 -89c-44 0 -71 16 -71 42c0 17 12 31 30 31c25 0 42 -35 62 -35c11 0 27 11 27 32c0 27 -39 52 -61 67z" />
    <glyph glyph-name="eacute" unicode="&#xe9;" 
d="M136 -14c-66 0 -94 54 -94 109c0 75 47 187 142 259c55 41 102 54 140 54c48 0 80 -36 80 -69c0 -90 -136 -139 -247 -169c-5 -14 -9 -37 -9 -65c0 -37 16 -57 44 -57c36 0 72 21 118 63c10 0 18 -10 16 -20c-54 -75 -124 -105 -190 -105zM297 372c-14 0 -35 -12 -60 -40
c-37 -39 -61 -92 -72 -128c51 18 82 35 114 68c25 25 37 59 37 75c0 13 -6 25 -19 25zM434 578l-144 -130c-13 0 -22 7 -24 17l104 172c15 24 26 30 36 29c11 -1 20 -8 37 -20c14 -14 21 -22 19 -35c-1 -10 -15 -21 -28 -33z" />
    <glyph glyph-name="ecircumflex" unicode="&#xea;" 
d="M136 -14c-66 0 -94 54 -94 109c0 75 47 187 142 259c55 41 102 54 140 54c48 0 80 -36 80 -69c0 -90 -136 -139 -247 -169c-5 -14 -9 -37 -9 -65c0 -37 16 -57 44 -57c36 0 72 21 118 63c10 0 18 -10 16 -20c-54 -75 -124 -105 -190 -105zM297 372c-14 0 -35 -12 -60 -40
c-37 -39 -61 -92 -72 -128c51 18 82 35 114 68c25 25 37 59 37 75c0 13 -6 25 -19 25zM367 649l45 -197c-4 -8 -12 -13 -24 -12l-56 107c-10 19 -16 17 -31 2l-108 -111c-12 -1 -20 6 -20 18l143 192c15 20 24 23 31 23c6 0 15 -1 20 -22z" />
    <glyph glyph-name="edieresis" unicode="&#xeb;" 
d="M136 -14c-66 0 -94 54 -94 109c0 75 47 187 142 259c55 41 102 54 140 54c48 0 80 -36 80 -69c0 -90 -136 -139 -247 -169c-5 -14 -9 -37 -9 -65c0 -37 16 -57 44 -57c36 0 72 21 118 63c10 0 18 -10 16 -20c-54 -75 -124 -105 -190 -105zM297 372c-14 0 -35 -12 -60 -40
c-37 -39 -61 -92 -72 -128c51 18 82 35 114 68c25 25 37 59 37 75c0 13 -6 25 -19 25zM242 597c30 0 50 -22 46 -54c-4 -30 -27 -53 -59 -53c-30 0 -49 23 -44 54s29 53 57 53zM407 597c31 0 50 -22 46 -54c-4 -30 -28 -53 -58 -53s-50 23 -45 54s29 53 57 53z" />
    <glyph glyph-name="egrave" unicode="&#xe8;" 
d="M136 -14c-66 0 -94 54 -94 109c0 75 47 187 142 259c55 41 102 54 140 54c48 0 80 -36 80 -69c0 -90 -136 -139 -247 -169c-5 -14 -9 -37 -9 -65c0 -37 16 -57 44 -57c36 0 72 21 118 63c10 0 18 -10 16 -20c-54 -75 -124 -105 -190 -105zM297 372c-14 0 -35 -12 -60 -40
c-37 -39 -61 -92 -72 -128c51 18 82 35 114 68c25 25 37 59 37 75c0 13 -6 25 -19 25zM330 441l-117 147c-13 17 -22 28 -22 40s8 20 25 31c14 8 25 13 36 13c12 0 22 -10 31 -33l72 -185c-3 -11 -12 -15 -25 -13z" />
    <glyph glyph-name="iacute" unicode="&#xed;" horiz-adv-x="291" 
d="M280 337l-112 -262c-4 -10 -5 -19 3 -19c16 0 71 38 100 69c11 0 19 -10 17 -20c-28 -42 -124 -119 -200 -119c-17 0 -32 22 -32 31c0 11 2 22 9 39l111 263c4 10 4 16 -2 16c-12 0 -54 -26 -86 -54c-10 0 -17 12 -14 20c54 63 139 107 184 107c14 0 30 -14 33 -28
c2 -8 -2 -22 -11 -43zM386 575l-144 -130c-13 0 -22 7 -24 17l104 172c15 24 26 30 36 29c11 -1 20 -8 37 -20c14 -14 21 -22 19 -35c-1 -10 -15 -21 -28 -33z" />
    <glyph glyph-name="icircumflex" unicode="&#xee;" horiz-adv-x="291" 
d="M280 337l-112 -262c-4 -10 -5 -19 3 -19c16 0 71 38 100 69c11 0 19 -10 17 -20c-28 -42 -124 -119 -200 -119c-17 0 -32 22 -32 31c0 11 2 22 9 39l111 263c4 10 4 16 -2 16c-12 0 -54 -26 -86 -54c-10 0 -17 12 -14 20c54 63 139 107 184 107c14 0 30 -14 33 -28
c2 -8 -2 -22 -11 -43zM308 649l45 -197c-4 -8 -12 -13 -24 -12l-54 106c-8 15 -14 18 -29 3l-112 -111c-12 -1 -20 6 -20 18l143 192c15 20 24 23 31 23c6 0 15 -1 20 -22z" />
    <glyph glyph-name="idieresis" unicode="&#xef;" horiz-adv-x="291" 
d="M280 337l-112 -262c-4 -10 -5 -19 3 -19c16 0 71 38 100 69c11 0 19 -10 17 -20c-28 -42 -124 -119 -200 -119c-17 0 -32 22 -32 31c0 11 2 22 9 39l111 263c4 10 4 16 -2 16c-12 0 -54 -26 -86 -54c-10 0 -17 12 -14 20c54 63 139 107 184 107c14 0 30 -14 33 -28
c2 -8 -2 -22 -11 -43zM193 597c30 0 50 -22 46 -54c-4 -30 -27 -53 -59 -53c-30 0 -49 23 -44 54s29 53 57 53zM358 597c31 0 50 -22 46 -54c-4 -30 -28 -53 -58 -53s-50 23 -45 54s29 53 57 53z" />
    <glyph glyph-name="igrave" unicode="&#xec;" horiz-adv-x="291" 
d="M280 337l-112 -262c-4 -10 -5 -19 3 -19c16 0 71 38 100 69c11 0 19 -10 17 -20c-28 -42 -124 -119 -200 -119c-17 0 -32 22 -32 31c0 11 2 22 9 39l111 263c4 10 4 16 -2 16c-12 0 -54 -26 -86 -54c-10 0 -17 12 -14 20c54 63 139 107 184 107c14 0 30 -14 33 -28
c2 -8 -2 -22 -11 -43zM265 449l-117 147c-13 17 -22 28 -22 40s8 20 25 31c14 8 25 13 36 13c12 0 22 -10 31 -33l72 -185c-3 -11 -12 -15 -25 -13z" />
    <glyph glyph-name="ntilde" unicode="&#xf1;" horiz-adv-x="524" 
d="M444 408c44 0 60 -28 60 -56c0 -19 -8 -53 -18 -79c-18 -49 -66 -158 -82 -198c-5 -12 -6 -20 2 -20c16 0 64 36 92 68c12 2 18 -6 18 -18c-34 -56 -114 -119 -192 -119c-18 0 -34 18 -34 32c0 12 4 26 18 59c26 60 60 143 84 202c8 20 16 44 16 60c0 9 -2 17 -14 17
c-17 0 -60 -31 -106 -89c-54 -70 -103 -162 -152 -265c-6 -12 -18 -16 -34 -16c-18 0 -53 6 -44 34c4 13 96 261 106 289c6 16 8 30 -4 30c-20 0 -58 -26 -86 -52c-10 0 -16 8 -16 16c32 51 104 105 172 105c36 0 39 -30 30 -52l-61 -155h4c63 89 155 207 241 207zM352 574
h55c24 0 44 2 58 13c11 8 19 19 24 31c5 2 19 1 23 -3c-7 -31 -28 -74 -42 -88c-17 -17 -29 -20 -53 -20h-61c-27 0 -48 -7 -59 -18c-10 -7 -21 -24 -30 -40c-9 -1 -18 0 -21 6c4 20 23 73 41 93c20 22 37 26 65 26z" />
    <glyph glyph-name="oacute" unicode="&#xf3;" horiz-adv-x="436" 
d="M177 22c24 0 46 16 76 59c36 52 84 172 84 237c0 27 -4 54 -32 54c-18 0 -39 -11 -65 -44c-47 -61 -99 -180 -99 -254c0 -30 13 -52 36 -52zM49 117c2 73 44 167 105 224c58 53 107 67 152 67c89 0 124 -61 123 -136c-1 -62 -31 -153 -98 -217c-58 -57 -114 -69 -158 -69
c-84 0 -126 58 -124 131zM455 578l-144 -130c-13 0 -22 7 -24 17l104 172c15 24 26 30 36 29c11 -1 20 -8 37 -20c14 -14 21 -22 19 -35c-1 -10 -15 -21 -28 -33z" />
    <glyph glyph-name="ocircumflex" unicode="&#xf4;" horiz-adv-x="436" 
d="M177 22c24 0 46 16 76 59c36 52 84 172 84 237c0 27 -4 54 -32 54c-18 0 -39 -11 -65 -44c-47 -61 -99 -180 -99 -254c0 -30 13 -52 36 -52zM49 117c2 73 44 167 105 224c58 53 107 67 152 67c89 0 124 -61 123 -136c-1 -62 -31 -153 -98 -217c-58 -57 -114 -69 -158 -69
c-84 0 -126 58 -124 131zM381 653l45 -197c-4 -9 -12 -13 -24 -12l-54 106c-8 15 -13 17 -28 2l-113 -110c-12 -1 -19 5 -19 17l143 193c15 20 24 23 30 23s15 -1 20 -22z" />
    <glyph glyph-name="odieresis" unicode="&#xf6;" horiz-adv-x="436" 
d="M177 22c24 0 46 16 76 59c36 52 84 172 84 237c0 27 -4 54 -32 54c-18 0 -39 -11 -65 -44c-47 -61 -99 -180 -99 -254c0 -30 13 -52 36 -52zM49 117c2 73 44 167 105 224c58 53 107 67 152 67c89 0 124 -61 123 -136c-1 -62 -31 -153 -98 -217c-58 -57 -114 -69 -158 -69
c-84 0 -126 58 -124 131zM273 597c30 0 50 -22 46 -54c-4 -30 -27 -53 -59 -53c-30 0 -49 23 -44 54s29 53 57 53zM438 597c31 0 50 -22 46 -54c-4 -30 -28 -53 -58 -53s-50 23 -45 54s29 53 57 53z" />
    <glyph glyph-name="ograve" unicode="&#xf2;" horiz-adv-x="436" 
d="M177 22c24 0 46 16 76 59c36 52 84 172 84 237c0 27 -4 54 -32 54c-18 0 -39 -11 -65 -44c-47 -61 -99 -180 -99 -254c0 -30 13 -52 36 -52zM49 117c2 73 44 167 105 224c58 53 107 67 152 67c89 0 124 -61 123 -136c-1 -62 -31 -153 -98 -217c-58 -57 -114 -69 -158 -69
c-84 0 -126 58 -124 131zM351 445l-117 147c-13 17 -22 28 -22 40s8 20 25 31c14 8 25 13 36 13c12 0 22 -10 31 -33l72 -185c-3 -11 -12 -15 -25 -13z" />
    <glyph glyph-name="otilde" unicode="&#xf5;" horiz-adv-x="436" 
d="M177 22c24 0 46 16 76 59c36 52 84 172 84 237c0 27 -4 54 -32 54c-18 0 -39 -11 -65 -44c-47 -61 -99 -180 -99 -254c0 -30 13 -52 36 -52zM49 117c2 73 44 167 105 224c58 53 107 67 152 67c89 0 124 -61 123 -136c-1 -62 -31 -153 -98 -217c-58 -57 -114 -69 -158 -69
c-84 0 -126 58 -124 131zM308 574h55c24 0 44 2 58 13c11 8 19 19 24 31c5 2 19 1 23 -3c-7 -31 -28 -74 -42 -88c-17 -17 -29 -20 -53 -20h-61c-27 0 -48 -7 -59 -18c-10 -7 -21 -24 -30 -40c-9 -1 -18 0 -21 6c4 20 23 73 41 93c20 22 37 26 65 26z" />
    <glyph glyph-name="scaron" unicode="&#x161;" horiz-adv-x="290" 
d="M86 -14c-42 0 -80 30 -80 65c0 22 16 48 38 48c8 0 15 -6 22 -14c26 -28 48 -45 76 -45c21 0 40 15 40 36c0 33 -31 68 -50 92c-28 36 -42 70 -42 95c0 42 22 76 58 107c28 24 64 38 90 38c46 0 80 -34 80 -69c0 -27 -22 -42 -32 -42c-9 0 -16 4 -22 12
c-28 32 -44 43 -70 43c-22 0 -34 -17 -34 -31c0 -33 33 -62 51 -86c29 -39 44 -67 43 -106c-1 -34 -18 -72 -56 -103c-30 -25 -70 -40 -112 -40zM223 473l-46 197c5 9 12 13 24 12l57 -107c8 -15 14 -17 29 -1l109 110c12 1 20 -5 20 -17l-142 -193c-15 -20 -25 -23 -32 -23
c-5 0 -14 1 -19 22z" />
    <glyph glyph-name="uacute" unicode="&#xfa;" horiz-adv-x="520" 
d="M80 83l89 227c6 16 5 26 -3 26c-20 0 -65 -39 -92 -67c-10 2 -18 8 -16 20c32 46 117 119 190 119c20 0 38 -18 38 -36c0 -4 -2 -16 -6 -27l-103 -257c-7 -18 -3 -28 7 -28c12 0 38 21 73 54c83 80 149 209 188 290c8 3 18 4 30 4c22 0 45 -10 50 -20
c-25 -65 -78 -196 -118 -305c-6 -16 -5 -27 5 -27c18 0 70 44 96 73c10 0 18 -4 18 -18c-28 -49 -124 -125 -194 -125c-22 0 -39 20 -30 44l62 161h-2c-63 -84 -180 -205 -246 -205c-28 0 -48 24 -48 48c0 14 5 31 12 49zM491 575l-144 -130c-13 0 -22 7 -24 17l104 172
c15 24 26 30 36 29c11 -1 20 -8 37 -20c14 -14 21 -22 19 -35c-1 -10 -15 -21 -28 -33z" />
    <glyph glyph-name="ucircumflex" unicode="&#xfb;" horiz-adv-x="520" 
d="M80 83l89 227c6 16 5 26 -3 26c-20 0 -65 -39 -92 -67c-10 2 -18 8 -16 20c32 46 117 119 190 119c20 0 38 -18 38 -36c0 -4 -2 -16 -6 -27l-103 -257c-7 -18 -3 -28 7 -28c12 0 38 21 73 54c83 80 149 209 188 290c8 3 18 4 30 4c22 0 45 -10 50 -20
c-25 -65 -78 -196 -118 -305c-6 -16 -5 -27 5 -27c18 0 70 44 96 73c10 0 18 -4 18 -18c-28 -49 -124 -125 -194 -125c-22 0 -39 20 -30 44l62 161h-2c-63 -84 -180 -205 -246 -205c-28 0 -48 24 -48 48c0 14 5 31 12 49zM428 659l45 -197c-4 -9 -12 -13 -24 -12l-54 106
c-8 15 -16 15 -29 3l-112 -111c-12 -1 -19 5 -19 17l143 193c15 20 24 23 30 23s15 -1 20 -22z" />
    <glyph glyph-name="udieresis" unicode="&#xfc;" horiz-adv-x="520" 
d="M80 83l89 227c6 16 5 26 -3 26c-20 0 -65 -39 -92 -67c-10 2 -18 8 -16 20c32 46 117 119 190 119c20 0 38 -18 38 -36c0 -4 -2 -16 -6 -27l-103 -257c-7 -18 -3 -28 7 -28c12 0 38 21 73 54c83 80 149 209 188 290c8 3 18 4 30 4c22 0 45 -10 50 -20
c-25 -65 -78 -196 -118 -305c-6 -16 -5 -27 5 -27c18 0 70 44 96 73c10 0 18 -4 18 -18c-28 -49 -124 -125 -194 -125c-22 0 -39 20 -30 44l62 161h-2c-63 -84 -180 -205 -246 -205c-28 0 -48 24 -48 48c0 14 5 31 12 49zM297 597c30 0 50 -22 46 -54
c-4 -30 -27 -53 -59 -53c-30 0 -49 23 -44 54s29 53 57 53zM479 597c31 0 50 -22 46 -54c-4 -30 -28 -53 -58 -53s-50 23 -45 54s29 53 57 53z" />
    <glyph glyph-name="ugrave" unicode="&#xf9;" horiz-adv-x="520" 
d="M80 83l89 227c6 16 5 26 -3 26c-20 0 -65 -39 -92 -67c-10 2 -18 8 -16 20c32 46 117 119 190 119c20 0 38 -18 38 -36c0 -4 -2 -16 -6 -27l-103 -257c-7 -18 -3 -28 7 -28c12 0 38 21 73 54c83 80 149 209 188 290c8 3 18 4 30 4c22 0 45 -10 50 -20
c-25 -65 -78 -196 -118 -305c-6 -16 -5 -27 5 -27c18 0 70 44 96 73c10 0 18 -4 18 -18c-28 -49 -124 -125 -194 -125c-22 0 -39 20 -30 44l62 161h-2c-63 -84 -180 -205 -246 -205c-28 0 -48 24 -48 48c0 14 5 31 12 49zM365 445l-117 147c-13 17 -22 28 -22 40s8 20 25 31
c14 8 25 13 36 13c12 0 22 -10 31 -33l72 -185c-3 -11 -12 -15 -25 -13z" />
    <glyph glyph-name="yacute" unicode="&#xfd;" horiz-adv-x="398" 
d="M168 408c53 0 77 -73 79 -176c1 -67 -2 -139 -13 -208h4c38 64 66 144 88 224c11 40 21 102 22 122c2 30 15 36 29 36c12 0 27 -4 37 -10c9 -6 13 -14 13 -26c0 -22 -30 -146 -118 -298c-46 -78 -100 -168 -170 -245c-71 -78 -128 -96 -168 -96c-35 0 -65 23 -65 53
c-1 34 23 56 50 56c16 0 24 -8 34 -21c13 -17 21 -27 35 -27c15 0 38 7 56 25c24 24 48 68 61 120c13 48 20 121 17 220c-3 115 -15 172 -37 172c-21 0 -43 -39 -61 -77c-10 -6 -24 0 -26 10c19 61 64 146 133 146zM426 577l-144 -130c-13 0 -22 7 -24 17l104 172
c15 24 26 30 36 29c11 -1 20 -8 37 -20c14 -14 21 -22 19 -35c-1 -10 -15 -21 -28 -33z" />
    <glyph glyph-name="ydieresis" unicode="&#xff;" horiz-adv-x="398" 
d="M168 408c53 0 77 -73 79 -176c1 -67 -2 -139 -13 -208h4c38 64 66 144 88 224c11 40 21 102 22 122c2 30 15 36 29 36c12 0 27 -4 37 -10c9 -6 13 -14 13 -26c0 -22 -30 -146 -118 -298c-46 -78 -100 -168 -170 -245c-71 -78 -128 -96 -168 -96c-35 0 -65 23 -65 53
c-1 34 23 56 50 56c16 0 24 -8 34 -21c13 -17 21 -27 35 -27c15 0 38 7 56 25c24 24 48 68 61 120c13 48 20 121 17 220c-3 115 -15 172 -37 172c-21 0 -43 -39 -61 -77c-10 -6 -24 0 -26 10c19 61 64 146 133 146zM210 594c30 0 50 -22 46 -54c-4 -30 -27 -53 -59 -53
c-30 0 -49 23 -44 54s29 53 57 53zM380 594c31 0 50 -22 46 -54c-4 -30 -28 -53 -58 -53s-50 23 -45 54s29 53 57 53z" />
    <glyph glyph-name="zcaron" unicode="&#x17e;" horiz-adv-x="423" 
d="M233 401c20 0 50 -7 72 -15c23 -9 45 -15 65 -15c28 0 42 16 56 34c18 2 36 -14 32 -34c-96 -77 -202 -166 -310 -267v-4c38 2 69 -11 108 -32c30 -16 58 -27 74 -27c20 0 40 13 40 33c0 16 -17 42 -17 58c0 21 13 31 25 31c34 0 54 -35 54 -59c0 -32 -24 -65 -52 -89
c-29 -25 -64 -36 -96 -36s-66 14 -94 28s-62 30 -84 30c-28 0 -44 -16 -56 -50c-40 -4 -50 20 -50 34c0 16 15 34 56 69c88 75 158 131 239 202c12 11 14 14 -3 20c-50 18 -102 24 -124 24c-25 0 -34 -16 -34 -26c0 -18 20 -30 20 -43c0 -11 -12 -27 -36 -28
c-28 -1 -46 19 -46 41c0 26 24 56 50 79c39 34 86 42 111 42zM266 468l-46 197c5 9 12 13 24 12l52 -107c7 -15 14 -16 30 -1l113 110c12 1 20 -5 20 -17l-142 -193c-15 -20 -25 -23 -32 -23c-5 0 -14 1 -19 22z" />
    <glyph glyph-name="dollaroldstyle" unicode="&#xf724;" horiz-adv-x="436" 
d="M280 254l10 -4c62 -25 105 -68 104 -128c-1 -86 -80 -136 -194 -136c-2 0 -4 2 -6 2l-22 -68c-8 -6 -32 -6 -40 0l22 70c-64 10 -106 36 -118 54c-8 22 -6 66 2 110c6 10 24 10 30 0c6 -54 40 -110 98 -128l52 159c-54 20 -106 54 -104 117c2 78 76 130 176 130h9l18 54
c9 8 29 8 39 0l-19 -58c32 -4 63 -13 89 -30c6 -22 8 -52 0 -100c-4 -8 -22 -10 -28 0c-4 42 -32 80 -72 94zM252 170l-48 -150h8c54 0 98 30 98 73c0 35 -19 59 -58 77zM247 268l41 128c-60 1 -98 -28 -98 -68c0 -24 17 -42 57 -60z" />
    <glyph glyph-name="dollarsuperior" unicode="&#xf6e4;" 
d="M378 670l-41 -122l4 -3c58 -25 93 -63 92 -115c-1 -76 -70 -122 -174 -122h-6l-18 -52c-9 -8 -29 -6 -37 0l19 56c-54 6 -94 30 -104 48c-8 18 -8 60 2 98c4 10 22 10 26 0c4 -50 38 -98 90 -112l48 140l-4 1c-50 21 -93 49 -92 105c1 70 68 116 160 116h11l18 50
c6 8 28 8 36 0l-19 -54c25 -4 49 -9 74 -24c6 -20 8 -46 2 -90c-6 -8 -20 -8 -26 -2c-8 38 -26 70 -61 82zM305 560l40 116h-10c-54 0 -82 -28 -82 -60c-2 -22 16 -42 52 -56zM309 472l-44 -132h6c52 0 89 26 90 64c1 32 -22 54 -52 68z" />
    <glyph glyph-name="parenleftsuperior" unicode="&#x207d;" horiz-adv-x="260" 
d="M172 444c0 96 42 192 120 254c48 38 94 56 136 68c10 -2 12 -12 10 -20c-34 -18 -76 -46 -110 -92c-52 -68 -80 -150 -80 -242c0 -60 12 -116 32 -156c0 -8 -8 -14 -18 -10c-60 48 -90 126 -90 198z" />
    <glyph glyph-name="parenrightsuperior" unicode="&#x207e;" horiz-adv-x="260" 
d="M68 246c-10 2 -12 12 -10 20c34 18 76 46 110 92c52 68 80 150 80 242c0 60 -12 116 -32 156c0 8 8 14 18 10c60 -48 90 -126 90 -198c0 -96 -42 -192 -122 -256c-46 -36 -92 -54 -134 -66z" />
    <glyph glyph-name="twodotenleader" unicode="&#x2025;" horiz-adv-x="500" 
d="M106 122c34 0 54 -24 54 -60c0 -44 -32 -76 -70 -76c-34 0 -56 22 -56 58c0 42 30 78 72 78zM356 122c34 0 54 -24 54 -60c0 -44 -32 -76 -70 -76c-34 0 -56 22 -56 58c0 42 30 78 72 78z" />
    <glyph glyph-name="onedotenleader" unicode="&#x2024;" horiz-adv-x="500" 
d="M234 122c34 0 54 -24 54 -60c0 -44 -32 -76 -70 -76c-34 0 -56 22 -56 58c0 42 30 78 72 78z" />
    <glyph glyph-name="zerooldstyle" unicode="&#xf730;" horiz-adv-x="464" 
d="M199 -14c-93 0 -131 65 -131 141c0 71 30 160 82 221c47 56 101 88 164 88c87 0 133 -65 133 -144c0 -86 -41 -177 -93 -233s-107 -73 -155 -73zM201 24c20 0 47 9 77 59c39 65 78 197 78 248c0 40 -12 67 -42 67c-21 0 -55 -14 -101 -112c-47 -101 -54 -175 -54 -205
c0 -35 16 -57 42 -57z" />
    <glyph glyph-name="oneoldstyle" unicode="&#xf731;" horiz-adv-x="376" 
d="M289 304l-59 -194c-19 -64 -16 -75 32 -80l38 -4c6 -8 4 -25 -4 -29c-44 2 -98 3 -148 3c-54 0 -106 -1 -138 -3c-8 4 -8 21 2 29l46 5c46 5 54 19 72 79l59 196c22 72 20 78 -30 86l-26 4c-10 6 -6 25 6 29c30 -2 86 -3 134 -3c52 0 102 1 128 3c10 -5 8 -23 -2 -29
l-24 -4c-56 -9 -65 -18 -86 -88z" />
    <glyph glyph-name="twooldstyle" unicode="&#xf732;" horiz-adv-x="452" 
d="M232 0h-118c-46 0 -80 -2 -102 -4c-6 2 -10 16 -4 22c72 41 126 77 167 110c85 70 133 116 133 169c0 48 -30 74 -73 74c-45 0 -83 -38 -108 -74c-14 -2 -25 10 -23 22c35 57 94 117 184 117c88 0 132 -56 132 -117c0 -52 -42 -93 -85 -128c-15 -13 -87 -60 -143 -102
c-4 -6 -4 -16 14 -16h94c48 0 70 14 100 52c12 4 24 -2 26 -12c-20 -32 -44 -79 -64 -116c-21 1 -41 1 -63 2c-21 1 -43 1 -67 1z" />
    <glyph glyph-name="threeoldstyle" unicode="&#xf733;" horiz-adv-x="395" 
d="M372 349c0 -64 -56 -106 -132 -137c-15 -6 -14 -16 -6 -18c60 -11 96 -54 96 -116c0 -71 -47 -147 -129 -201c-69 -46 -137 -65 -187 -65c-30 0 -44 28 -44 48c0 14 10 20 22 20c10 0 44 -12 82 -12c76 0 144 67 144 177c0 69 -32 101 -72 101c-22 0 -48 -18 -64 -32
c-17 2 -26 26 -16 40c38 18 73 33 120 64c50 33 82 71 82 107c0 38 -28 54 -54 54c-22 0 -52 -14 -84 -48c-14 -2 -24 12 -20 24c28 36 88 81 150 81c76 0 112 -42 112 -87z" />
    <glyph glyph-name="fouroldstyle" unicode="&#xf734;" horiz-adv-x="504" 
d="M445 21l-102 -2l-61 -195c-6 -8 -30 -10 -52 -10c-20 0 -40 2 -44 8l62 197l-237 -4c-8 4 -10 16 -6 24l171 162c44 42 216 197 253 231c2 2 6 4 10 4c10 2 20 -2 24 -10l-103 -353l101 3c4 -7 5 -13 5 -21c0 -12 -9 -28 -21 -34zM112 69l152 3l70 219l-2 2l-220 -212
c-4 -4 -6 -12 0 -12z" />
    <glyph glyph-name="fiveoldstyle" unicode="&#xf735;" horiz-adv-x="363" 
d="M248 414l54 6c44 5 72 10 94 16c4 -2 8 -7 8 -12c-12 -32 -32 -78 -78 -83l-56 -6c-34 -4 -64 -7 -83 -11c-25 -5 -37 -19 -37 -33c0 -12 12 -30 54 -66c52 -43 86 -99 86 -155c0 -161 -172 -248 -300 -268c-12 4 -18 22 -8 32c112 28 210 97 210 195
c0 57 -28 93 -68 133c-26 25 -44 50 -44 77c0 26 20 62 43 96c23 35 49 57 66 65c15 8 35 11 59 14z" />
    <glyph glyph-name="sixoldstyle" unicode="&#xf736;" horiz-adv-x="476" 
d="M68 136c0 126 78 274 198 366c115 88 228 118 312 136c12 -4 12 -18 8 -26c-42 -16 -108 -44 -164 -82c-58 -40 -108 -76 -170 -168l2 -2c22 16 52 26 82 26c78 0 120 -56 120 -136c0 -68 -32 -142 -86 -192c-57 -53 -108 -71 -160 -72c-94 -1 -142 62 -142 150zM358 266
c0 42 -20 74 -58 74c-30 0 -62 -16 -86 -50c-26 -38 -50 -116 -50 -190c0 -50 21 -76 52 -76c26 0 52 14 82 58c38 56 60 134 60 184z" />
    <glyph glyph-name="sevenoldstyle" unicode="&#xf737;" horiz-adv-x="440" 
d="M138 422h241c43 0 97 0 109 2c6 -2 8 -8 6 -14c-24 -26 -64 -79 -131 -175l-304 -433h-12c-14 0 -26 12 -26 26l362 510h-181c-62 0 -76 -20 -99 -53c-12 -4 -24 4 -26 13c22 38 45 88 61 124z" />
    <glyph glyph-name="eightoldstyle" unicode="&#xf738;" horiz-adv-x="452" 
d="M202 -14c-104 0 -152 68 -152 130c0 88 96 150 172 194c-44 54 -62 96 -62 132c0 98 92 180 192 180c90 0 142 -50 142 -126c0 -88 -96 -134 -154 -170c40 -46 72 -102 72 -160c0 -98 -86 -180 -210 -180zM224 24c56 0 92 48 92 104c0 58 -24 104 -66 152
c-78 -52 -108 -114 -108 -166c0 -42 24 -90 82 -90zM342 584c-38 0 -88 -30 -88 -106c0 -42 22 -82 62 -122c58 34 94 84 94 144c0 38 -16 84 -68 84z" />
    <glyph glyph-name="nineoldstyle" unicode="&#xf739;" horiz-adv-x="456" 
d="M249 60l-2 2c-16 -10 -38 -15 -62 -15c-76 0 -117 53 -117 125c0 77 41 155 93 202c45 40 95 62 139 62c101 0 134 -73 134 -159c0 -99 -64 -225 -175 -321c-74 -63 -168 -118 -253 -154c-12 4 -16 16 -10 26c101 61 181 135 253 232zM217 84c28 0 56 20 75 56
c22 42 50 115 50 189c0 42 -16 69 -45 69c-20 0 -44 -16 -69 -49c-38 -52 -62 -135 -62 -199c0 -38 20 -66 51 -66z" />
    <glyph glyph-name="commasuperior" unicode="&#xf6e2;" horiz-adv-x="192" 
d="M230 364c2 -76 -76 -132 -160 -152c-10 4 -16 16 -8 26c42 14 94 48 94 94c0 22 -18 34 -34 40c-9 3 -16 16 -16 29c0 25 22 45 53 45c39 0 69 -36 71 -82z" />
    <glyph glyph-name="threequartersemdash" unicode="&#xf6de;" horiz-adv-x="750" 
d="M30 236h750l-18 -61h-750z" />
    <glyph glyph-name="periodsuperior" unicode="&#xf6e8;" horiz-adv-x="192" 
d="M160 308c-30 0 -50 20 -50 52c0 36 28 70 62 70c32 0 49 -24 50 -52c1 -38 -26 -70 -62 -70z" />
    <glyph glyph-name="asuperior" unicode="&#xf6e9;" horiz-adv-x="384" 
d="M312 412h-2c-46 -52 -120 -104 -168 -104c-26 0 -44 20 -44 42c0 28 30 100 90 162c34 36 64 59 94 72c24 10 44 14 64 14c14 0 26 -6 36 -18l20 40c4 2 8 4 14 4c8 0 16 -2 24 -4c10 -4 20 -10 24 -14c-20 -46 -72 -164 -96 -232c-4 -12 -2 -16 4 -16c10 0 40 16 72 46
c8 0 14 -8 14 -16c-32 -40 -92 -80 -146 -80c-20 0 -28 16 -28 24c0 6 3 14 8 28zM200 358c10 0 42 22 74 54c36 36 76 98 86 130c-8 16 -16 24 -34 24c-14 0 -27 -5 -50 -28c-43 -43 -84 -124 -84 -168v-6c0 -4 4 -6 8 -6z" />
    <glyph glyph-name="bsuperior" unicode="&#xf6ea;" horiz-adv-x="414" 
d="M453 537c0 -29 -11 -84 -61 -137c-51 -55 -120 -92 -190 -92c-44 0 -76 27 -76 70c0 28 12 63 29 107l83 212c8 19 7 27 -8 35l-18 10c-2 6 -2 12 4 17c22 9 89 22 129 24c5 -1 7 -3 7 -7c-12 -30 -23 -55 -38 -91l-68 -163h2c31 36 88 86 138 86c53 0 67 -45 67 -71z
M251 486c-36 -50 -49 -93 -49 -118c0 -19 9 -29 20 -29c13 0 40 15 60 38c58 64 90 135 90 163c0 17 -10 26 -22 26c-20 0 -61 -27 -99 -80z" />
    <glyph glyph-name="centsuperior" unicode="&#xf6e0;" 
d="M235 264l25 70c-78 10 -119 67 -119 138c0 120 104 210 226 210h16l19 56c8 8 28 8 36 0l-19 -56c26 -4 52 -10 66 -16c5 -5 9 -12 9 -21c0 -38 -17 -53 -23 -53s-9 1 -12 6c-10 18 -30 38 -52 48l-94 -268c8 -2 14 -2 20 -2c42 2 70 20 96 44c8 -2 16 -12 12 -18
c-26 -38 -80 -70 -138 -70h-7l-25 -68c-8 -8 -30 -8 -36 0zM279 386l93 264c-89 -4 -147 -82 -147 -164c0 -50 20 -86 54 -100z" />
    <glyph glyph-name="dsuperior" unicode="&#xf6eb;" horiz-adv-x="420" 
d="M327 608c19 0 34 -8 42 -18l37 101c9 25 8 33 -6 40l-21 11c-2 6 -2 12 4 17c23 10 91 22 126 24c6 -1 8 -3 8 -7c-12 -30 -22 -54 -35 -91l-97 -269c-8 -23 -12 -39 -13 -45c0 -4 2 -8 7 -8c8 0 45 21 69 44c9 -1 14 -6 12 -16c-17 -23 -79 -83 -144 -83
c-21 0 -28 16 -28 29c0 12 6 31 14 51l15 38h-2c-32 -42 -89 -118 -169 -118c-29 0 -52 27 -51 67c1 56 38 127 97 175c50 40 101 58 135 58zM236 491c-37 -49 -64 -109 -64 -128c0 -10 4 -15 11 -15c12 0 66 37 101 78c26 31 47 61 62 103c10 27 4 48 -9 48
c-4 0 -11 -1 -28 -12c-14 -10 -41 -33 -73 -74z" />
    <glyph glyph-name="esuperior" unicode="&#xf6ec;" horiz-adv-x="314" 
d="M171 308c-56 0 -80 38 -80 82c0 52 32 130 100 179c39 29 74 39 110 39c48 0 76 -26 76 -56c0 -62 -102 -96 -194 -118c-4 -8 -6 -22 -6 -40c0 -20 14 -38 36 -38c28 0 58 14 94 44c8 0 16 -10 14 -18c-40 -50 -96 -74 -150 -74zM287 578c-12 0 -29 -6 -47 -24
c-26 -26 -43 -63 -49 -88c34 8 62 23 84 44c20 20 26 42 26 52c0 8 -6 16 -14 16z" />
    <glyph glyph-name="isuperior" unicode="&#xf6ed;" horiz-adv-x="238" 
d="M276 554l-82 -180c-4 -8 -4 -14 2 -14c10 0 52 26 74 48c8 0 15 -8 14 -18c-20 -28 -94 -82 -158 -82c-16 0 -26 12 -28 20c0 6 2 12 6 22l86 192c4 8 4 12 -2 12s-38 -16 -64 -38c-8 0 -14 8 -10 18c40 46 104 74 142 74c14 0 32 -16 28 -32c0 -4 -6 -16 -8 -22z
M272 687c-28 0 -42 16 -42 36c0 28 22 60 58 60c24 0 40 -16 40 -40c0 -30 -24 -56 -56 -56z" />
    <glyph glyph-name="lsuperior" unicode="&#xf6ee;" horiz-adv-x="230" 
d="M115 386l111 301c12 32 8 42 -4 48l-16 8c-4 4 -4 14 2 18c27 8 86 20 126 22c4 -1 6 -6 6 -8c-10 -26 -19 -48 -40 -104l-109 -295c-5 -14 -8 -24 2 -24c18 0 58 40 84 66c8 0 14 -6 14 -16c-22 -38 -66 -94 -148 -94c-34 0 -42 14 -42 28c0 10 4 22 14 50z" />
    <glyph glyph-name="msuperior" unicode="&#xf6ef;" horiz-adv-x="602" 
d="M408 482l4 -2c58 76 114 128 170 128c34 0 48 -20 48 -40c0 -16 -6 -38 -13 -56c-13 -34 -52 -114 -63 -138c-3 -8 -2 -14 2 -14c12 0 48 24 70 48c8 0 16 -6 14 -16c-24 -38 -88 -84 -150 -84c-18 0 -30 12 -30 24c0 8 3 16 14 40c20 42 46 102 64 144c3 6 14 30 14 40
c0 7 -2 12 -10 12c-14 0 -42 -22 -76 -60c-42 -48 -78 -116 -118 -190c-4 -8 -18 -10 -30 -10c-14 0 -44 4 -36 24c2 6 11 30 14 36c12 26 42 99 64 148c3 6 10 24 12 38c0 8 -2 14 -10 14c-14 0 -43 -21 -76 -60c-40 -48 -77 -116 -118 -190c-4 -8 -16 -10 -30 -10
s-42 4 -36 24c3 8 74 186 82 206c4 10 4 18 -4 18c-16 0 -42 -18 -66 -36c-8 0 -14 8 -12 16c24 34 80 72 136 72c30 0 33 -20 26 -36l-40 -94l4 -2c42 58 108 132 171 132c43 0 41 -38 36 -62c-2 -12 -19 -50 -27 -64z" />
    <glyph glyph-name="nsuperior" unicode="&#x207f;" horiz-adv-x="422" 
d="M264 572l-40 -94l4 -2c42 58 108 132 176 132c34 0 46 -23 46 -46c0 -13 -4 -30 -12 -50c-14 -34 -52 -114 -62 -138c-4 -8 -4 -14 2 -14c10 0 46 24 70 48c8 0 14 -6 12 -16c-24 -38 -86 -84 -150 -84c-16 0 -30 12 -30 24c0 8 4 16 15 40c19 42 46 101 65 144
c2 5 10 24 12 38c0 8 -2 14 -10 14c-14 0 -42 -20 -76 -60c-40 -48 -76 -116 -118 -190c-4 -8 -16 -10 -30 -10s-42 4 -36 24c2 8 74 186 82 206c4 10 4 18 -4 18c-16 0 -42 -18 -66 -36c-8 0 -14 8 -12 16c24 34 80 72 136 72c30 0 33 -20 26 -36z" />
    <glyph glyph-name="osuperior" unicode="&#xf6f0;" horiz-adv-x="356" 
d="M225 338c14 0 34 11 56 42c31 44 58 118 62 162c2 20 -10 36 -25 36s-29 -6 -49 -30c-34 -40 -74 -124 -74 -176c0 -18 10 -34 30 -34zM221 308c-68 0 -104 42 -102 100c2 48 31 110 78 152c38 34 82 48 119 48c76 0 105 -52 103 -104c-2 -41 -24 -100 -74 -146
c-44 -41 -90 -50 -124 -50z" />
    <glyph glyph-name="rsuperior" unicode="&#xf6f1;" horiz-adv-x="312" 
d="M217 470h4c20 30 49 73 65 92c24 30 47 46 71 46c22 0 36 -18 36 -40c0 -38 -22 -64 -44 -64c-9 0 -16 4 -20 18s-8 22 -14 22c-10 0 -23 -13 -37 -33c-37 -55 -71 -121 -105 -193c-3 -6 -12 -10 -24 -10c-18 0 -49 3 -42 24c16 46 54 146 74 208c3 10 2 18 -4 18
c-16 0 -40 -20 -58 -38c-10 -2 -16 8 -14 16c20 32 58 72 114 72c42 0 37 -41 26 -68z" />
    <glyph glyph-name="ssuperior" unicode="&#xf6f2;" horiz-adv-x="256" 
d="M141 308c-40 0 -74 20 -74 50c0 20 10 34 23 38c11 4 23 0 31 -10c22 -22 42 -38 62 -38c18 0 30 12 30 28c0 8 -5 21 -20 36l-24 24c-22 22 -38 46 -38 70c0 30 19 54 48 76c24 18 52 26 74 26c38 0 66 -24 66 -48c0 -28 -16 -37 -26 -38c-6 0 -14 2 -20 10
c-18 23 -38 36 -56 36s-26 -12 -26 -22c0 -8 3 -19 16 -32l26 -26c26 -26 40 -50 40 -78c0 -30 -17 -57 -41 -74c-25 -18 -55 -28 -91 -28z" />
    <glyph glyph-name="tsuperior" unicode="&#xf6f3;" horiz-adv-x="250" 
d="M338 561h-71l-65 -155c-8 -19 -12 -30 -12 -35c0 -6 4 -9 8 -9c20 0 68 44 90 67c8 0 15 -5 15 -16c-33 -46 -97 -105 -169 -105c-20 0 -32 15 -32 32c0 13 11 39 21 65l63 156h-51c-5 9 -1 24 11 30l57 7l49 68c9 6 18 6 27 6c11 0 19 -2 23 -7l-21 -67h66
c8 -10 -1 -32 -9 -37z" />
    <glyph glyph-name="parenleftinferior" unicode="&#x208d;" horiz-adv-x="260" 
d="M17 -35c0 96 42 192 120 254c48 38 94 56 136 68c10 -2 12 -12 10 -20c-34 -18 -76 -46 -110 -92c-52 -68 -80 -150 -80 -242c0 -60 12 -116 32 -156c0 -8 -8 -14 -18 -10c-60 48 -90 126 -90 198z" />
    <glyph glyph-name="parenrightinferior" unicode="&#x208e;" horiz-adv-x="260" 
d="M-87 -233c-10 2 -12 12 -10 20c34 18 76 46 110 92c52 68 80 150 80 242c0 60 -12 116 -32 156c0 8 8 14 18 10c60 -48 90 -126 90 -198c0 -96 -42 -192 -122 -256c-46 -36 -92 -54 -134 -66z" />
    <glyph glyph-name="hyphensuperior" unicode="&#xf6e6;" horiz-adv-x="275" 
d="M163 544h199c12 -9 6 -48 -7 -58h-199c-11 11 -8 49 7 58z" />
    <glyph glyph-name="colonmonetary" unicode="&#x20a1;" horiz-adv-x="630" 
d="M216 -66l36 90c-86 32 -140 113 -140 221c0 204 167 354 366 377l30 78c10 6 28 6 38 0l-26 -74c20 1 37 1 58 0l28 74c8 6 26 6 38 0l-30 -78c44 -8 76 -20 94 -24c-18 -42 -32 -92 -44 -132c-4 -8 -24 -8 -28 0c8 56 -2 94 -38 112l-206 -542c78 6 130 56 180 128
c8 4 24 2 28 -6c-14 -40 -40 -96 -62 -136c-36 -2 -86 -22 -150 -22h-10l-24 -66c-12 -6 -30 -6 -40 0l26 68c-18 2 -38 6 -54 10l-30 -78c-12 -6 -30 -6 -40 0zM272 78l192 506c-144 -47 -236 -203 -236 -354c0 -67 16 -122 44 -152zM506 590l-204 -534
c16 -10 34 -16 52 -18l210 552c-14 2 -30 2 -40 2s-14 -2 -18 -2z" />
    <glyph glyph-name="rupiah" unicode="&#xf6dd;" horiz-adv-x="946" 
d="M550 25l102 288c-27 -6 -59 -21 -91 -38c-11 2 -17 15 -11 23c24 22 78 47 117 58l28 70c8 8 21 10 38 10c22 -2 43 -10 46 -17l-20 -55c9 2 19 2 30 2c83 0 144 -39 144 -121c0 -68 -39 -138 -97 -190c-53 -49 -121 -68 -165 -68c-9 0 -20 4 -32 7c-7 -1 -11 -7 -14 -16
l-42 -124c-18 -52 -19 -68 14 -71l40 -4c7 -6 5 -22 -6 -25c-7 0 -50 0 -58 -2c-56 0 -112 -2 -175 -8c-10 6 -11 21 -4 27l26 4c45 7 51 26 69 77l52 147c-8 -2 -24 -3 -55 -3c-36 0 -62 3 -76 11c-17 10 -28 28 -38 63c-10 38 -33 137 -39 163c-9 41 -16 48 -46 48
c-31 0 -34 -3 -42 -27l-37 -118c-26 -82 -27 -98 21 -106l25 -4c5 -9 1 -24 -6 -29c-46 2 -85 3 -126 3c-43 0 -85 -1 -124 -3c-8 5 -8 24 2 29l24 4c43 7 54 15 82 106l112 357c24 76 24 90 -9 95l-32 5c-7 10 -4 23 6 27c52 7 104 8 170 8c169 0 247 -55 247 -159
c0 -97 -87 -148 -160 -163c-15 -3 -15 -9 -11 -28c16 -80 33 -155 48 -193c14 -37 35 -53 73 -60zM488 483c2 59 -31 107 -109 107c-31 0 -34 -6 -41 -28l-63 -211c-10 -35 -9 -35 36 -35c93 0 174 74 177 167zM750 327l-92 -255c-4 -11 -4 -23 3 -32c6 -8 20 -16 31 -16
c13 0 50 9 80 53c41 60 62 128 62 180c0 50 -32 71 -64 71c-9 0 -15 -1 -20 -1zM-574 -340l-19 10h19v-10z" />
    <glyph glyph-name="centoldstyle" unicode="&#xf7a2;" horiz-adv-x="428" 
d="M217 78l93 283c-90 -4 -152 -94 -152 -179c0 -52 20 -88 59 -104zM348 357l-94 -288c4 -1 9 -1 14 -1c52 0 84 20 112 44c8 -2 16 -10 14 -20c-31 -41 -90 -73 -157 -74l-26 -78c-10 -8 -32 -8 -40 0l27 81c-91 12 -134 74 -134 151c0 131 120 222 258 224l21 64
c8 8 28 8 38 0l-21 -66c32 -3 61 -11 80 -20c4 -6 6 -14 6 -22c-2 -22 -16 -54 -26 -54c-4 0 -8 2 -10 6c-13 23 -34 44 -62 53z" />
    <glyph glyph-name="figuredash" unicode="&#x2012;" horiz-adv-x="510" 
d="M92 346h450l-19 -61h-450z" />
    <glyph glyph-name="hypheninferior" unicode="&#xf6e5;" horiz-adv-x="275" 
d="M8 65h199c12 -9 6 -48 -7 -58h-199c-11 11 -8 49 7 58z" />
    <glyph glyph-name="oneeighth" unicode="&#x215b;" horiz-adv-x="840" 
d="M629 -7c-78 0 -135 34 -135 98c0 62 56 96 111 112c-24 15 -44 43 -44 75c0 64 60 115 142 115c68 0 115 -36 115 -93c0 -53 -55 -79 -89 -93c34 -22 62 -54 62 -97c0 -71 -72 -117 -162 -117zM639 23c40 0 72 28 72 70s-34 68 -78 90c-36 -14 -65 -48 -65 -88
c0 -44 29 -72 71 -72zM693 363c-36 0 -60 -29 -60 -60c0 -34 28 -53 68 -76c22 10 49 38 50 73s-22 63 -58 63zM736 634c-181 -223 -360 -445 -537 -668c-19 0 -32 11 -31 30c179 221 357 443 532 664c19 0 33 -8 36 -26zM280 271l26 -4c6 -4 4 -20 -6 -22
c-34 1 -64 2 -104 2c-34 0 -64 -1 -94 -2c-8 2 -8 18 0 22l22 3c36 5 40 17 56 67l57 178c6 20 9 32 9 38c0 8 -8 12 -24 15l-28 5c-6 4 -4 18 4 22c58 8 120 26 152 42c6 0 10 -2 11 -6c-8 -22 -17 -48 -27 -80l-68 -214c-16 -52 -18 -61 14 -66z" />
    <glyph glyph-name="threeeighths" unicode="&#x215c;" horiz-adv-x="840" 
d="M636 -7c-78 0 -135 34 -135 98c0 62 56 96 111 112c-24 15 -44 43 -44 75c0 64 60 115 142 115c68 0 115 -36 115 -93c0 -53 -55 -79 -89 -93c34 -22 62 -54 62 -97c0 -71 -72 -117 -162 -117zM646 23c40 0 72 28 72 70s-34 68 -78 90c-36 -14 -65 -48 -65 -88
c0 -44 29 -72 71 -72zM700 363c-36 0 -60 -29 -60 -60c0 -34 28 -53 68 -76c22 10 49 38 50 73s-22 63 -58 63zM757 634c-181 -223 -360 -445 -537 -668c-19 0 -32 11 -31 30c179 221 357 443 532 664c19 0 33 -8 36 -26zM403 385c0 -60 -46 -108 -100 -138
c-47 -26 -114 -40 -160 -40c-42 0 -78 15 -78 49c0 19 14 35 36 35c20 0 32 -20 41 -34c7 -10 19 -18 33 -18c72 0 130 66 130 138c0 38 -26 66 -63 66c-25 0 -53 -14 -69 -28c-14 6 -20 22 -12 36c30 8 90 28 126 52c24 16 40 34 40 56c0 24 -20 37 -46 37
c-30 0 -66 -25 -90 -51c-10 -2 -18 6 -18 16c35 46 82 79 142 79c52 0 96 -27 96 -76c0 -39 -44 -65 -94 -79c-8 -4 -2 -8 6 -9c38 -6 80 -37 80 -91z" />
    <glyph glyph-name="fiveeighths" unicode="&#x215d;" horiz-adv-x="840" 
d="M633 -7c-78 0 -135 34 -135 98c0 62 56 96 111 112c-24 15 -44 43 -44 75c0 64 60 115 142 115c68 0 115 -36 115 -93c0 -53 -55 -79 -89 -93c34 -22 62 -54 62 -97c0 -71 -72 -117 -162 -117zM643 23c40 0 72 28 72 70s-34 68 -78 90c-36 -14 -65 -48 -65 -88
c0 -44 29 -72 71 -72zM697 363c-36 0 -60 -29 -60 -60c0 -34 28 -53 68 -76c22 10 49 38 50 73s-22 63 -58 63zM752 634c-181 -223 -360 -445 -537 -668c-19 0 -32 11 -31 30c179 221 357 443 532 664c19 0 33 -8 36 -26zM392 380c0 -134 -178 -175 -310 -174
c-10 6 -12 22 -2 30c126 3 226 48 226 124c0 64 -72 82 -138 91c-18 3 -18 11 -12 23l64 128c6 12 12 17 26 18l190 20c2 0 8 -4 8 -6c-6 -20 -22 -52 -42 -64l-153 -16c-14 -1 -18 -6 -21 -12l-7 -16c-3 -8 1 -12 15 -14c69 -10 156 -49 156 -132z" />
    <glyph glyph-name="seveneighths" unicode="&#x215e;" horiz-adv-x="840" 
d="M626 -7c-78 0 -135 34 -135 98c0 62 56 96 111 112c-24 15 -44 43 -44 75c0 64 60 115 142 115c68 0 115 -36 115 -93c0 -53 -55 -79 -89 -93c34 -22 62 -54 62 -97c0 -71 -72 -117 -162 -117zM636 23c40 0 72 28 72 70s-34 68 -78 90c-36 -14 -65 -48 -65 -88
c0 -44 29 -72 71 -72zM690 363c-36 0 -60 -29 -60 -60c0 -34 28 -53 68 -76c22 10 49 38 50 73s-22 63 -58 63zM728 634c-181 -223 -360 -445 -537 -668c-19 0 -32 11 -31 30c179 221 357 443 532 664c19 0 33 -8 36 -26zM370 568h-112c-40 0 -53 -6 -74 -36
c-6 -6 -22 -2 -24 8c20 37 34 72 42 96c20 -2 42 -2 76 -2h118c38 0 72 0 90 2c4 -2 6 -6 6 -12c-20 -24 -43 -53 -76 -98l-230 -310c-14 -3 -30 6 -31 22l211 282c13 17 22 32 22 40c0 6 -6 8 -18 8z" />
    <glyph glyph-name="onethird" unicode="&#x2153;" horiz-adv-x="840" 
d="M795 138c0 -60 -46 -108 -100 -138c-47 -26 -114 -40 -160 -40c-42 0 -78 15 -78 49c0 19 14 35 36 35c20 0 32 -20 41 -34c7 -10 19 -18 33 -18c72 0 130 66 130 138c0 38 -26 66 -63 66c-25 0 -53 -14 -69 -28c-14 6 -20 22 -12 36c30 8 90 28 126 52
c24 16 40 34 40 56c0 24 -20 37 -46 37c-30 0 -66 -25 -90 -51c-10 -2 -18 6 -18 16c35 46 82 79 142 79c52 0 96 -27 96 -76c0 -39 -44 -65 -94 -79c-8 -4 -2 -8 6 -9c38 -6 80 -37 80 -91zM736 634c-181 -223 -360 -445 -537 -668c-19 0 -32 11 -31 30
c179 221 357 443 532 664c19 0 33 -8 36 -26zM280 271l26 -4c6 -4 4 -20 -6 -22c-34 1 -64 2 -104 2c-34 0 -64 -1 -94 -2c-8 2 -8 18 0 22l22 3c36 5 40 17 56 67l57 178c6 20 9 32 9 38c0 8 -8 12 -24 15l-28 5c-6 4 -4 18 4 22c58 8 120 26 152 42c6 0 10 -2 11 -6
c-8 -22 -17 -48 -27 -80l-68 -214c-16 -52 -18 -61 14 -66z" />
    <glyph glyph-name="twothirds" unicode="&#x2154;" horiz-adv-x="840" 
d="M815 138c0 -60 -46 -108 -100 -138c-47 -26 -114 -40 -160 -40c-42 0 -78 15 -78 49c0 19 14 35 36 35c20 0 32 -20 41 -34c7 -10 19 -18 33 -18c72 0 130 66 130 138c0 38 -26 66 -63 66c-25 0 -53 -14 -69 -28c-14 6 -20 22 -12 36c30 8 90 28 126 52
c24 16 40 34 40 56c0 24 -20 37 -46 37c-30 0 -66 -25 -90 -51c-10 -2 -18 6 -18 16c35 46 82 79 142 79c52 0 96 -27 96 -76c0 -39 -44 -65 -94 -79c-8 -4 -2 -8 6 -9c38 -6 80 -37 80 -91zM768 634c-181 -223 -360 -445 -537 -668c-19 0 -32 11 -31 30
c179 221 357 443 532 664c19 0 33 -8 36 -26zM244 247h-102c-34 0 -64 -2 -76 -2c-6 4 -6 10 -4 16c34 22 80 54 126 90c69 54 142 110 142 180c0 34 -24 61 -62 61s-72 -33 -90 -59c-10 -4 -20 4 -22 14c30 56 90 93 150 93c66 0 118 -39 118 -103
c0 -66 -58 -105 -129 -153l-58 -39c-35 -24 -39 -32 -33 -36c2 -2 6 -2 12 -2h72c40 0 56 4 78 32c6 4 18 4 22 -4c-15 -38 -34 -72 -48 -90c-30 1 -58 2 -96 2z" />
    <glyph glyph-name="zerosuperior" unicode="&#x2070;" 
d="M250 308c-82 0 -120 60 -118 138c2 74 34 152 84 204c30 31 74 58 126 58c84 0 122 -62 120 -138c-2 -68 -32 -150 -82 -202c-34 -36 -78 -60 -130 -60zM250 338c36 0 58 44 78 86c28 58 51 146 52 200c1 24 -6 54 -34 54c-36 0 -69 -62 -90 -112
c-23 -54 -44 -128 -44 -172c0 -28 12 -56 38 -56z" />
    <glyph glyph-name="foursuperior" unicode="&#x2074;" 
d="M382 337l18 -2c4 -6 2 -20 -4 -22c-32 1 -70 2 -102 2s-64 -1 -96 -2c-8 2 -6 16 2 22l22 2c34 3 44 9 55 43l9 28c5 16 4 17 -12 17h-152c-6 0 -8 6 -8 10c0 6 4 12 10 18l298 278c9 9 16 12 28 12c9 0 19 -2 24 -4c4 -2 4 -9 -6 -18l-278 -252c-7 -7 -2 -10 16 -10h78
c16 0 19 2 24 16l30 94c3 8 8 12 18 17c16 7 50 13 66 13c10 0 11 -6 8 -14l-38 -110c-5 -14 -4 -16 10 -16h40c8 -4 4 -28 -8 -34h-40c-18 0 -18 -2 -22 -14l-8 -26c-11 -36 -14 -44 18 -48z" />
    <glyph glyph-name="fivesuperior" unicode="&#x2075;" 
d="M412 448c0 -134 -178 -175 -310 -174c-10 6 -12 22 -2 30c126 3 226 48 226 124c0 64 -72 82 -138 91c-18 3 -18 11 -12 23l64 128c6 12 12 17 26 18l190 20c2 0 8 -4 8 -6c-6 -20 -22 -52 -42 -64l-153 -16c-14 -1 -18 -6 -21 -12l-7 -16c-3 -8 1 -12 15 -14
c69 -10 156 -49 156 -132z" />
    <glyph glyph-name="sixsuperior" unicode="&#x2076;" 
d="M274 308c-88 0 -140 50 -140 133c0 73 48 161 128 215c78 52 162 72 240 76c8 -4 10 -18 2 -24c-54 -12 -109 -31 -166 -70c-76 -52 -112 -146 -112 -224c0 -36 14 -76 52 -76c52 0 76 68 76 112c0 40 -18 66 -46 70c-6 0 -16 0 -26 -2c-6 4 -6 12 -2 18
c12 12 44 22 64 22c54 0 98 -36 98 -102c0 -80 -74 -148 -168 -148z" />
    <glyph glyph-name="sevensuperior" unicode="&#x2077;" 
d="M390 636h-112c-40 0 -53 -6 -74 -36c-6 -6 -22 -2 -24 8c20 37 34 72 42 96c20 -2 42 -2 76 -2h118c38 0 72 0 90 2c4 -2 6 -6 6 -12c-20 -24 -43 -53 -76 -98l-230 -310c-14 -3 -30 6 -31 22l211 282c13 17 22 32 22 40c0 6 -6 8 -18 8z" />
    <glyph glyph-name="eightsuperior" unicode="&#x2078;" 
d="M266 308c-78 0 -135 34 -135 98c0 62 56 96 111 112c-24 15 -44 43 -44 75c0 64 60 115 142 115c68 0 115 -36 115 -93c0 -53 -55 -79 -89 -93c34 -22 62 -54 62 -97c0 -71 -72 -117 -162 -117zM276 338c40 0 72 28 72 70s-34 68 -78 90c-36 -14 -65 -48 -65 -88
c0 -44 29 -72 71 -72zM330 678c-36 0 -60 -29 -60 -60c0 -34 28 -53 68 -76c22 10 49 38 50 73s-22 63 -58 63z" />
    <glyph glyph-name="ninesuperior" unicode="&#x2079;" 
d="M326 708c90 0 138 -52 138 -136c0 -62 -31 -133 -97 -190c-60 -53 -159 -90 -255 -98c-10 4 -12 20 -2 26c72 14 138 48 184 94c56 56 82 138 82 204c0 38 -14 70 -52 70c-44 0 -72 -54 -72 -108c0 -36 19 -64 44 -69c8 -1 16 -1 22 -1c4 -2 6 -12 2 -16
c-16 -14 -38 -20 -58 -20c-56 0 -96 38 -96 98c0 75 70 146 160 146z" />
    <glyph glyph-name="zeroinferior" unicode="&#x2080;" 
d="M100 -178c-82 0 -120 60 -118 138c2 74 34 152 84 204c30 31 74 58 126 58c84 0 122 -62 120 -138c-2 -68 -32 -150 -82 -202c-34 -36 -78 -60 -130 -60zM100 -148c36 0 58 44 78 86c28 58 51 146 52 200c1 24 -6 54 -34 54c-36 0 -69 -62 -90 -112
c-23 -54 -44 -128 -44 -172c0 -28 12 -56 38 -56z" />
    <glyph glyph-name="oneinferior" unicode="&#x2081;" 
d="M172 -147l26 -4c6 -4 4 -20 -6 -22c-34 1 -64 2 -104 2c-34 0 -64 -1 -94 -2c-8 2 -8 18 0 22l22 3c36 5 40 17 56 67l57 178c6 20 9 32 9 38c0 8 -8 12 -24 15l-28 5c-6 4 -4 18 4 22c58 8 120 26 152 42c6 0 10 -2 11 -6c-8 -22 -17 -48 -27 -80l-68 -214
c-16 -52 -18 -61 14 -66z" />
    <glyph glyph-name="twoinferior" unicode="&#x2082;" 
d="M121 -171h-102c-34 0 -64 -2 -76 -2c-6 4 -6 10 -4 16c34 22 80 54 126 90c69 54 142 110 142 180c0 34 -24 61 -62 61s-72 -33 -90 -59c-10 -4 -20 4 -22 14c30 56 90 93 150 93c66 0 118 -39 118 -103c0 -66 -58 -105 -129 -153l-58 -39c-35 -24 -39 -32 -33 -36
c2 -2 6 -2 12 -2h72c40 0 56 4 78 32c6 4 18 4 22 -4c-15 -38 -34 -72 -48 -90c-30 1 -58 2 -96 2z" />
    <glyph glyph-name="threeinferior" unicode="&#x2083;" 
d="M271 -33c0 -60 -46 -108 -100 -138c-47 -26 -114 -40 -160 -40c-42 0 -78 15 -78 49c0 19 14 35 36 35c20 0 32 -20 41 -34c7 -10 19 -18 33 -18c72 0 130 66 130 138c0 38 -26 66 -63 66c-25 0 -53 -14 -69 -28c-14 6 -20 22 -12 36c30 8 90 28 126 52
c24 16 40 34 40 56c0 24 -20 37 -46 37c-30 0 -66 -25 -90 -51c-10 -2 -18 6 -18 16c35 46 82 79 142 79c52 0 96 -27 96 -76c0 -39 -44 -65 -94 -79c-8 -4 -2 -8 6 -9c38 -6 80 -37 80 -91z" />
    <glyph glyph-name="fourinferior" unicode="&#x2084;" 
d="M227 -149l18 -2c4 -6 2 -20 -4 -22c-32 1 -70 2 -102 2s-64 -1 -96 -2c-8 2 -6 16 2 22l22 2c34 3 44 9 55 43l9 28c5 16 4 17 -12 17h-152c-6 0 -8 6 -8 10c0 6 4 12 10 18l298 278c9 9 16 12 28 12c9 0 19 -2 24 -4c4 -2 4 -9 -6 -18l-278 -252c-7 -7 -2 -10 16 -10h78
c16 0 19 2 24 16l30 94c3 8 8 12 18 17c16 7 50 13 66 13c10 0 11 -6 8 -14l-38 -110c-5 -14 -4 -16 10 -16h40c8 -4 4 -28 -8 -34h-40c-18 0 -18 -2 -22 -14l-8 -26c-11 -36 -14 -44 18 -48z" />
    <glyph glyph-name="fiveinferior" unicode="&#x2085;" 
d="M257 -38c0 -134 -178 -175 -310 -174c-10 6 -12 22 -2 30c126 3 226 48 226 124c0 64 -72 82 -138 91c-18 3 -18 11 -12 23l64 128c6 12 12 17 26 18l190 20c2 0 8 -4 8 -6c-6 -20 -22 -52 -42 -64l-153 -16c-14 -1 -18 -6 -21 -12l-7 -16c-3 -8 1 -12 15 -14
c69 -10 156 -49 156 -132z" />
    <glyph glyph-name="sixinferior" unicode="&#x2086;" 
d="M119 -178c-88 0 -140 50 -140 133c0 73 48 161 128 215c78 52 162 72 240 76c8 -4 10 -18 2 -24c-54 -12 -109 -31 -166 -70c-76 -52 -112 -146 -112 -224c0 -36 14 -76 52 -76c52 0 76 68 76 112c0 40 -18 66 -46 70c-6 0 -16 0 -26 -2c-6 4 -6 12 -2 18
c12 12 44 22 64 22c54 0 98 -36 98 -102c0 -80 -74 -148 -168 -148z" />
    <glyph glyph-name="seveninferior" unicode="&#x2087;" 
d="M235 150h-112c-40 0 -53 -6 -74 -36c-6 -6 -22 -2 -24 8c20 37 34 72 42 96c20 -2 42 -2 76 -2h118c38 0 72 0 90 2c4 -2 6 -6 6 -12c-20 -24 -43 -53 -76 -98l-230 -310c-14 -3 -30 6 -31 22l211 282c13 17 22 32 22 40c0 6 -6 8 -18 8z" />
    <glyph glyph-name="eightinferior" unicode="&#x2088;" 
d="M111 -178c-78 0 -135 34 -135 98c0 62 56 96 111 112c-24 15 -44 43 -44 75c0 64 60 115 142 115c68 0 115 -36 115 -93c0 -53 -55 -79 -89 -93c34 -22 62 -54 62 -97c0 -71 -72 -117 -162 -117zM121 -148c40 0 72 28 72 70s-34 68 -78 90c-36 -14 -65 -48 -65 -88
c0 -44 29 -72 71 -72zM175 192c-36 0 -60 -29 -60 -60c0 -34 28 -53 68 -76c22 10 49 38 50 73s-22 63 -58 63z" />
    <glyph glyph-name="nineinferior" unicode="&#x2089;" 
d="M171 222c90 0 138 -52 138 -136c0 -62 -31 -133 -97 -190c-60 -53 -159 -90 -255 -98c-10 4 -12 20 -2 26c72 14 138 48 184 94c56 56 82 138 82 204c0 38 -14 70 -52 70c-44 0 -72 -54 -72 -108c0 -36 19 -64 44 -69c8 -1 16 -1 22 -1c4 -2 6 -12 2 -16
c-16 -14 -38 -20 -58 -20c-56 0 -96 38 -96 98c0 75 70 146 160 146z" />
    <glyph glyph-name="centinferior" unicode="&#xf6df;" 
d="M80 -215l25 70c-78 10 -119 67 -119 138c0 120 104 210 226 210h16l19 56c8 8 28 8 36 0l-19 -56c26 -4 52 -10 66 -16c5 -5 9 -12 9 -21c0 -38 -17 -53 -23 -53s-9 1 -12 6c-10 18 -30 38 -52 48l-94 -268c8 -2 14 -2 20 -2c42 2 70 20 96 44c8 -2 16 -12 12 -18
c-26 -38 -80 -70 -138 -70h-7l-25 -68c-8 -8 -30 -8 -36 0zM124 -93l93 264c-89 -4 -147 -82 -147 -164c0 -50 20 -86 54 -100z" />
    <glyph glyph-name="dollarinferior" unicode="&#xf6e3;" 
d="M223 191l-41 -122l4 -3c58 -25 93 -63 92 -115c-1 -76 -70 -122 -174 -122h-6l-18 -52c-9 -8 -29 -6 -37 0l19 56c-54 6 -94 30 -104 48c-8 18 -8 60 2 98c4 10 22 10 26 0c4 -50 38 -98 90 -112l48 140l-4 1c-50 21 -93 49 -92 105c1 70 68 116 160 116h11l18 50
c6 8 28 8 36 0l-19 -54c25 -4 49 -9 74 -24c6 -20 8 -46 2 -90c-6 -8 -20 -8 -26 -2c-8 38 -26 70 -61 82zM150 81l40 116h-10c-54 0 -82 -28 -82 -60c-2 -22 16 -42 52 -56zM154 -7l-44 -132h6c52 0 89 26 90 64c1 32 -22 54 -52 68z" />
    <glyph glyph-name="periodinferior" unicode="&#xf6e7;" horiz-adv-x="192" 
d="M5 -171c-30 0 -50 20 -50 52c0 36 28 70 62 70c32 0 49 -24 50 -52c1 -38 -26 -70 -62 -70z" />
    <glyph glyph-name="commainferior" unicode="&#xf6e1;" horiz-adv-x="192" 
d="M75 -115c2 -76 -76 -132 -160 -152c-10 4 -16 16 -8 26c42 14 94 48 94 94c0 22 -18 34 -34 40c-9 3 -16 16 -16 29c0 25 22 45 53 45c39 0 69 -36 71 -82z" />
    <glyph glyph-name="commaaccent" unicode="&#xf6c3;" horiz-adv-x="380" 
d="M253 -117c0 -72 -71 -124 -147 -144c-11 4 -13 21 -9 29c36 14 82 46 82 87c0 17 -9 31 -26 38c-9 3 -15 14 -15 25c0 24 22 44 47 44c35 0 68 -32 68 -79z" />
    <glyph glyph-name="Abreve" unicode="&#x102;" horiz-adv-x="608" 
d="M388 247h-131c-30 0 -30 -1 -47 -28l-69 -111c-25 -41 -32 -55 -32 -62s7 -11 25 -14l32 -6c8 -6 6 -23 -3 -29c-42 2 -74 3 -115 3c-37 0 -71 -1 -104 -3c-9 6 -9 23 -1 29l25 4c40 6 57 18 93 69c13 18 108 149 145 203l160 230c38 54 59 89 62 107c36 2 73 28 90 37
c8 0 16 -4 16 -11c0 -16 -2 -58 -5 -144c-4 -128 -7 -257 -9 -385c-2 -91 2 -101 52 -107l24 -3c6 -7 4 -24 -4 -29c-42 2 -82 3 -130 3c-51 0 -92 -1 -123 -3c-12 5 -11 23 -3 29l27 4c42 6 47 14 49 61l6 133c1 21 -4 23 -30 23zM287 292h107c20 0 23 2 24 24l9 169
c1 22 0 37 1 61h-2c-7 -12 -21 -33 -48 -73l-109 -163c-10 -15 -8 -18 18 -18zM490 715c-70 0 -112 44 -85 131c9 5 22 5 28 0c-1 -38 27 -64 79 -64s83 26 112 64c8 5 23 5 30 0c-23 -87 -74 -131 -164 -131z" />
    <glyph glyph-name="Amacron" unicode="&#x100;" horiz-adv-x="608" 
d="M388 247h-131c-30 0 -30 -1 -47 -28l-69 -111c-25 -41 -32 -55 -32 -62s7 -11 25 -14l32 -6c8 -6 6 -23 -3 -29c-42 2 -74 3 -115 3c-37 0 -71 -1 -104 -3c-9 6 -9 23 -1 29l25 4c40 6 57 18 93 69c13 18 108 149 145 203l160 230c38 54 59 89 62 107c36 2 73 28 90 37
c8 0 16 -4 16 -11c0 -16 -2 -58 -5 -144c-4 -128 -7 -257 -9 -385c-2 -91 2 -101 52 -107l24 -3c6 -7 4 -24 -4 -29c-42 2 -82 3 -130 3c-51 0 -92 -1 -123 -3c-12 5 -11 23 -3 29l27 4c42 6 47 14 49 61l6 133c1 21 -4 23 -30 23zM287 292h107c20 0 23 2 24 24l9 169
c1 22 0 37 1 61h-2c-7 -12 -21 -33 -48 -73l-109 -163c-10 -15 -8 -18 18 -18zM612 731h-235c-9 15 0 52 15 68h236c9 -16 0 -53 -16 -68z" />
    <glyph glyph-name="Aogonek" unicode="&#x104;" horiz-adv-x="608" 
d="M287 292h107c20 0 23 2 24 24l9 169c1 22 0 37 1 61h-2c-7 -12 -21 -33 -48 -73l-109 -163c-10 -15 -8 -18 18 -18zM388 247h-131c-30 0 -30 -1 -47 -28l-69 -111c-25 -41 -32 -55 -32 -62s7 -11 25 -14l32 -6c8 -6 6 -23 -3 -29c-42 2 -74 3 -115 3
c-37 0 -71 -1 -104 -3c-9 6 -9 23 -1 29l25 4c40 6 57 18 93 69c13 18 108 149 145 203l160 230c38 54 59 89 62 107c36 2 73 28 90 37c8 0 16 -4 16 -11c0 -16 -2 -58 -5 -144c-4 -128 -7 -257 -9 -385c-1 -91 2 -101 52 -107l24 -3c6 -7 4 -24 -4 -29c-42 2 -82 3 -100 3
c-54 -49 -94 -95 -94 -133c0 -27 16 -50 40 -50c19 0 31 4 46 14c6 -2 13 -13 13 -20c-26 -31 -68 -46 -103 -46c-40 0 -72 30 -72 75c0 64 68 119 123 159c-86 -1 -96 -2 -106 -2c-12 5 -11 23 -3 29l27 4c42 6 47 14 49 61l6 133c1 21 -4 23 -30 23z" />
    <glyph glyph-name="Cacute" unicode="&#x106;" horiz-adv-x="656" 
d="M575 676c84 0 155 -25 183 -34c-20 -45 -36 -100 -47 -145c-6 -8 -30 -8 -32 2c12 94 -22 138 -114 138c-76 0 -161 -34 -236 -119c-53 -61 -105 -169 -105 -282c0 -151 75 -213 174 -213c94 0 155 56 214 140c10 6 24 4 30 -5c-14 -44 -44 -107 -68 -150
c-21 -2 -47 -9 -78 -14c-30 -5 -62 -10 -100 -10c-172 0 -295 89 -294 262c1 128 64 241 144 312c73 65 186 118 329 118zM667 772l-189 -66c-8 2 -15 18 -13 28l158 115c16 11 24 15 32 15c10 0 20 -6 32 -26c11 -18 15 -37 13 -43c-3 -8 -13 -16 -33 -23z" />
    <glyph glyph-name="Ccaron" unicode="&#x10c;" horiz-adv-x="656" 
d="M575 676c84 0 155 -25 183 -34c-20 -45 -36 -100 -47 -145c-6 -8 -30 -8 -32 2c12 94 -22 138 -114 138c-76 0 -161 -34 -236 -119c-53 -61 -105 -169 -105 -282c0 -151 75 -213 174 -213c94 0 155 56 214 140c10 6 24 4 30 -5c-14 -44 -44 -107 -68 -150
c-21 -2 -47 -9 -78 -14c-30 -5 -62 -10 -100 -10c-172 0 -295 89 -294 262c1 128 64 241 144 312c73 65 186 118 329 118zM579 808l144 67c10 0 17 -13 16 -24l-168 -129c-17 -13 -36 -15 -49 0l-111 136c0 9 11 16 22 17l110 -67c10 -6 26 -6 36 0z" />
    <glyph glyph-name="Dcaron" unicode="&#x10e;" horiz-adv-x="757" 
d="M236 618l-34 6c-8 6 -6 24 2 29c37 4 116 10 209 10c111 0 196 -21 255 -59c74 -49 108 -126 108 -218c0 -108 -51 -211 -133 -280c-116 -97 -268 -109 -358 -109c-47 0 -97 3 -138 3c-43 0 -83 -1 -132 -3c-8 5 -8 25 2 29l28 4c45 6 54 17 84 114l122 391
c20 65 18 77 -15 83zM374 577l-137 -441c-11 -36 -11 -57 -2 -72c8 -15 28 -28 72 -28c65 0 133 18 200 67c98 72 147 202 147 293c0 82 -17 230 -227 228c-34 0 -40 -6 -53 -47zM530 803l144 72c10 0 17 -13 16 -24l-168 -129c-17 -13 -36 -15 -49 0l-111 136
c0 9 11 16 22 17l110 -72c10 -7 26 -5 36 0z" />
    <glyph glyph-name="Dcroat" unicode="&#x110;" horiz-adv-x="763" 
d="M188 320h-104c-5 15 1 37 13 45h105l55 170c21 65 18 77 -15 83l-34 6c-8 6 -6 24 2 29c37 4 116 10 209 10c111 0 196 -21 255 -59c75 -48 108 -126 108 -218c0 -108 -51 -211 -133 -280c-116 -97 -268 -109 -358 -109c-47 0 -97 3 -138 3c-43 0 -83 -1 -132 -3
c-8 5 -8 25 2 29l28 4c45 6 55 17 84 114zM430 320h-131l-56 -184c-11 -36 -11 -57 -2 -72c8 -15 28 -28 72 -28c65 0 133 18 200 67c98 72 147 202 147 293c0 82 -17 228 -227 228c-34 0 -39 -6 -52 -47l-68 -212h129c4 -16 0 -38 -12 -45z" />
    <glyph glyph-name="Ecaron" unicode="&#x11a;" horiz-adv-x="588" 
d="M262 0h-121c-43 0 -83 -1 -136 -3c-10 5 -8 23 2 29l34 4c47 6 58 17 88 114l116 372c27 87 27 102 -21 114l-24 6c-8 6 -4 22 6 27c21 -1 43 -1 66 -2c22 0 45 -1 64 -1h204c63 0 116 0 138 3c-8 -17 -32 -92 -45 -145c-6 -8 -28 -10 -32 0c4 43 4 71 -19 85
c-16 10 -46 18 -95 18h-66c-30 0 -34 -4 -44 -36l-60 -191c-9 -28 -8 -29 20 -29h54c73 0 90 7 114 53l14 27c8 8 30 6 32 -2c-10 -25 -23 -64 -36 -102s-21 -75 -27 -101c-8 -7 -28 -7 -32 0l2 26c4 50 -16 54 -81 54h-52c-27 0 -31 -2 -39 -28l-41 -128
c-17 -52 -23 -83 -14 -102c7 -15 24 -23 100 -23c99 0 136 6 209 109c8 6 26 4 31 -6c-13 -40 -49 -118 -72 -145c-32 1 -72 2 -113 2c-41 1 -84 1 -124 1zM488 798l144 72c10 0 17 -13 16 -24l-167 -129c-18 -14 -37 -15 -50 0l-111 136c0 8 11 16 22 17l110 -72
c10 -7 26 -5 36 0z" />
    <glyph glyph-name="Edotaccent" unicode="&#x116;" horiz-adv-x="588" 
d="M262 0h-121c-43 0 -83 -1 -136 -3c-10 5 -8 23 2 29l34 4c47 6 58 17 88 114l116 372c27 87 27 102 -21 114l-24 6c-8 6 -4 22 6 27c21 -1 43 -1 66 -2c22 0 45 -1 64 -1h204c63 0 116 0 138 3c-8 -17 -32 -92 -45 -145c-6 -8 -28 -10 -32 0c4 43 4 71 -19 85
c-16 10 -46 18 -95 18h-66c-30 0 -34 -4 -44 -36l-60 -191c-9 -28 -8 -29 20 -29h54c73 0 90 7 114 53l14 27c8 8 30 6 32 -2c-10 -25 -23 -64 -36 -102s-21 -75 -27 -101c-8 -7 -28 -7 -32 0l2 26c4 50 -16 54 -81 54h-52c-27 0 -31 -2 -39 -28l-41 -128
c-17 -52 -23 -83 -14 -102c7 -15 24 -23 100 -23c99 0 136 6 209 109c8 6 26 4 31 -6c-13 -40 -49 -118 -72 -145c-32 1 -72 2 -113 2c-41 1 -84 1 -124 1zM475 823c33 0 55 -25 51 -59s-30 -59 -65 -59c-33 0 -54 25 -48 60c5 33 31 58 62 58z" />
    <glyph glyph-name="Emacron" unicode="&#x112;" horiz-adv-x="588" 
d="M262 0h-121c-43 0 -83 -1 -136 -3c-10 5 -8 23 2 29l34 4c47 6 58 17 88 114l116 372c27 87 27 102 -21 114l-24 6c-8 6 -4 22 6 27c21 -1 43 -1 66 -2c22 0 45 -1 64 -1h204c63 0 116 0 138 3c-8 -17 -32 -92 -45 -145c-6 -8 -28 -10 -32 0c4 43 4 71 -19 85
c-16 10 -46 18 -95 18h-66c-30 0 -34 -4 -44 -36l-60 -191c-9 -28 -8 -29 20 -29h54c73 0 90 7 114 53l14 27c8 8 30 6 32 -2c-10 -25 -23 -64 -36 -102s-21 -75 -27 -101c-8 -7 -28 -7 -32 0l2 26c4 50 -16 54 -81 54h-52c-27 0 -31 -2 -39 -28l-41 -128
c-17 -52 -23 -83 -14 -102c7 -15 24 -23 100 -23c99 0 136 6 209 109c8 6 26 4 31 -6c-13 -40 -49 -118 -72 -145c-32 1 -72 2 -113 2c-41 1 -84 1 -124 1zM582 732h-235c-9 19 0 52 15 68h236c9 -16 0 -49 -16 -68z" />
    <glyph glyph-name="Eogonek" unicode="&#x118;" horiz-adv-x="588" 
d="M262 0h-121c-43 0 -83 -1 -136 -3c-10 5 -8 23 2 29l34 4c47 6 58 17 88 114l116 372c27 87 27 102 -21 114l-24 6c-8 6 -4 22 6 27c21 -1 43 -1 66 -2c22 0 45 -1 64 -1h204c63 0 116 0 138 3c-8 -17 -32 -92 -45 -145c-6 -8 -28 -10 -32 0c4 43 4 71 -19 85
c-16 10 -46 18 -95 18h-66c-30 0 -34 -4 -44 -36l-60 -191c-9 -28 -8 -29 20 -29h54c73 0 90 7 114 53l14 27c8 8 30 6 32 -2c-10 -25 -23 -64 -36 -102s-21 -75 -27 -101c-8 -7 -28 -7 -32 0l2 26c4 50 -16 54 -81 54h-52c-27 0 -31 -2 -39 -28l-41 -128
c-17 -52 -23 -83 -14 -102c7 -15 24 -23 100 -23c99 0 136 6 209 109c8 6 26 4 31 -6c-13 -40 -49 -118 -72 -145c-6 0 -13 1 -22 0c-54 -40 -82 -80 -85 -117c-2 -28 15 -51 42 -51c19 0 36 5 51 15c6 -2 8 -9 8 -17c-26 -34 -67 -48 -106 -48c-41 0 -75 29 -75 69
c0 61 61 112 120 150c-12 1 -29 1 -46 1c-41 1 -84 1 -124 1z" />
    <glyph glyph-name="Gbreve" unicode="&#x11e;" horiz-adv-x="719" 
d="M650 181l-27 -87c-9 -29 -10 -43 4 -49c2 -4 2 -16 -6 -18c-20 -6 -47 -14 -65 -19c-50 -15 -111 -24 -156 -24c-197 0 -296 105 -296 267c0 110 52 224 142 303c81 71 193 122 347 122c93 0 160 -23 188 -33c-20 -46 -36 -101 -48 -146c-6 -10 -27 -8 -31 0
c14 96 -22 140 -121 140c-98 0 -179 -45 -239 -111c-67 -73 -117 -191 -117 -299c0 -154 93 -204 187 -204c55 0 82 12 102 75l26 83c20 63 14 77 -39 84l-36 5c-10 6 -8 24 2 29c63 -2 105 -3 150 -3c41 0 89 1 114 3c10 -5 8 -23 0 -29l-21 -5c-34 -8 -39 -17 -60 -84z
M560 715c-70 0 -112 44 -85 131c9 5 22 5 28 0c-1 -38 27 -64 79 -64s83 26 112 64c8 5 23 5 30 0c-23 -87 -74 -131 -164 -131z" />
    <glyph glyph-name="Gcommaaccent" unicode="&#x122;" horiz-adv-x="719" 
d="M650 181l-27 -87c-9 -29 -10 -43 4 -49c2 -4 2 -16 -6 -18c-20 -6 -47 -14 -65 -19c-50 -15 -111 -24 -156 -24c-197 0 -296 105 -296 267c0 110 52 224 142 303c81 71 193 122 347 122c93 0 160 -23 188 -33c-20 -46 -36 -101 -48 -146c-6 -10 -27 -8 -31 0
c14 96 -22 140 -121 140c-98 0 -179 -45 -239 -111c-67 -73 -117 -191 -117 -299c0 -154 93 -204 187 -204c55 0 82 12 102 75l26 83c20 63 14 77 -39 84l-36 5c-10 6 -8 24 2 29c63 -2 105 -3 150 -3c41 0 89 1 114 3c10 -5 8 -23 0 -29l-21 -5c-34 -8 -39 -17 -60 -84z
M411 -120c0 -68 -73 -123 -152 -142c-11 4 -12 19 -9 27c38 15 87 48 87 87c0 17 -12 32 -29 39c-9 3 -16 14 -16 26c0 25 23 45 49 45c36 0 70 -33 70 -82z" />
    <glyph glyph-name="Imacron" unicode="&#x12a;" horiz-adv-x="357" 
d="M263 30l30 -4c6 -8 2 -24 -6 -29c-53 2 -95 3 -143 3s-88 -1 -131 -3c-8 6 -8 25 2 29l28 4c45 6 56 17 86 114l116 372c27 87 30 107 -23 114l-30 4c-6 8 -2 24 6 29c53 -2 95 -3 143 -3s88 1 131 3c8 -6 8 -25 -2 -29l-28 -4c-45 -6 -56 -17 -86 -114l-116 -372
c-27 -87 -30 -107 23 -114zM478 736h-235c-9 20 0 53 15 69h236c9 -16 0 -54 -16 -69z" />
    <glyph glyph-name="Iogonek" unicode="&#x12e;" horiz-adv-x="357" 
d="M351 516l-116 -372c-27 -87 -30 -107 23 -114l30 -4c6 -8 2 -24 -6 -29c-33 1 -65 1 -103 3c-50 -36 -81 -79 -85 -118c-3 -28 15 -51 47 -51c19 0 36 5 51 15c6 -2 8 -9 8 -17c-36 -34 -67 -48 -106 -48c-37 0 -71 29 -71 69c0 65 66 119 111 150c-43 0 -83 -1 -126 -3
c-8 6 -8 25 2 29l28 4c45 6 56 17 86 114l116 372c27 87 30 107 -23 114l-30 4c-6 8 -2 24 6 29c53 -2 95 -3 143 -3s88 1 131 3c8 -6 8 -25 -2 -29l-28 -4c-45 -6 -56 -17 -86 -114z" />
    <glyph glyph-name="Kcommaaccent" unicode="&#x136;" horiz-adv-x="665" 
d="M129 144l116 372c27 87 30 109 -23 115l-25 3c-6 8 -2 24 6 29c48 -2 90 -3 138 -3s88 1 131 3c8 -6 8 -25 -2 -29l-28 -4c-45 -6 -55 -17 -86 -114l-42 -130c-7 -22 -5 -29 12 -29c12 0 22 2 34 7c21 12 53 40 88 73l113 105c17 15 48 47 56 57c8 8 10 12 10 16
c0 6 -6 10 -22 14l-16 4c-8 8 -6 26 6 30c43 -2 79 -3 122 -3c41 0 85 3 114 3c10 -4 10 -24 0 -29l-19 -4c-20 -4 -44 -10 -65 -17c-42 -15 -108 -64 -183 -130l-98 -87c-15 -14 -24 -24 -24 -32c0 -5 2 -11 9 -31c17 -45 92 -197 112 -240c19 -42 33 -58 71 -63l25 -6
c8 -6 6 -24 -2 -28c-38 2 -80 4 -124 4c-42 0 -85 -1 -127 -3c-8 6 -8 24 0 29l26 4c31 5 31 17 18 44c-4 8 -42 91 -46 100l-40 88c-22 49 -31 61 -46 61c-21 0 -27 -14 -37 -47l-41 -132c-27 -87 -30 -108 23 -114l33 -4c6 -8 2 -24 -6 -29c-56 2 -98 3 -146 3
s-88 -1 -131 -3c-8 6 -8 25 2 29l28 4c45 6 56 17 86 114zM381 -120c0 -68 -80 -123 -167 -142c-12 4 -13 19 -10 27c42 15 96 48 96 87c0 17 -13 32 -32 39c-10 3 -17 14 -17 26c0 25 25 45 53 45c40 0 77 -33 77 -82z" />
    <glyph glyph-name="Lacute" unicode="&#x139;" horiz-adv-x="558" 
d="M259 0h-116c-48 0 -86 -1 -129 -3c-8 5 -8 25 2 29l28 4c45 6 53 17 84 114l118 372c28 87 28 103 -23 113l-26 5c-8 6 -6 25 6 29c48 -2 90 -3 135 -3s83 1 135 3c8 -6 8 -25 -2 -29l-28 -4c-49 -7 -56 -17 -86 -114l-111 -352c-16 -50 -23 -81 -15 -100s29 -25 91 -25
c101 0 140 6 211 109c12 6 26 4 32 -6c-14 -42 -50 -118 -71 -145c-33 1 -73 2 -114 2c-41 1 -83 1 -121 1zM543 772l-189 -66c-8 2 -15 18 -13 28l158 115c16 11 24 15 32 15c10 0 20 -6 32 -26c11 -18 15 -37 13 -43c-3 -8 -13 -16 -33 -23z" />
    <glyph glyph-name="Lcaron" unicode="&#x13d;" horiz-adv-x="558" 
d="M259 0h-116c-48 0 -86 -1 -129 -3c-8 5 -8 25 2 29l28 4c45 6 53 17 84 114l118 372c28 87 28 103 -23 113l-26 5c-8 6 -6 25 6 29c48 -2 90 -3 135 -3s83 1 135 3c8 -6 8 -25 -2 -29l-28 -4c-49 -7 -56 -17 -86 -114l-111 -352c-16 -50 -23 -81 -15 -100s29 -25 91 -25
c101 0 140 6 211 109c12 6 26 4 32 -6c-14 -42 -50 -118 -71 -145c-33 1 -73 2 -114 2c-41 1 -83 1 -121 1zM650 601c0 -70 -78 -127 -167 -148c-11 5 -13 18 -9 26c44 14 98 49 98 94c0 19 -13 30 -33 40c-10 2 -19 12 -19 25c0 27 25 50 55 50c43 0 75 -36 75 -87z" />
    <glyph glyph-name="Lcommaaccent" unicode="&#x13b;" horiz-adv-x="558" 
d="M259 0h-116c-48 0 -86 -1 -129 -3c-8 5 -8 25 2 29l28 4c45 6 53 17 84 114l118 372c28 87 28 103 -23 113l-26 5c-8 6 -6 25 6 29c48 -2 90 -3 135 -3s83 1 135 3c8 -6 8 -25 -2 -29l-28 -4c-49 -7 -56 -17 -86 -114l-111 -352c-16 -50 -23 -81 -15 -100s29 -25 91 -25
c101 0 140 6 211 109c12 6 26 4 32 -6c-14 -42 -50 -118 -71 -145c-33 1 -73 2 -114 2c-41 1 -83 1 -121 1zM342 -120c0 -68 -80 -123 -167 -142c-12 4 -13 19 -10 27c42 15 96 48 96 87c0 17 -13 32 -32 39c-10 3 -17 14 -17 26c0 25 25 45 53 45c40 0 77 -33 77 -82z" />
    <glyph glyph-name="Nacute" unicode="&#x143;" horiz-adv-x="730" 
d="M154 242l79 260c18 60 30 93 20 109c-4 10 -14 15 -28 17l-33 8c-8 6 -4 22 6 27c21 -1 39 -2 57 -2c18 -1 37 -1 57 -1c12 0 63 0 75 2c2 -58 41 -141 63 -191l75 -175c28 -65 45 -105 56 -127c5 9 11 28 17 48l62 201c21 67 37 138 41 159c6 35 -3 46 -46 53l-26 4
c-6 8 -6 22 4 29c41 -2 77 -3 120 -3c40 0 71 1 111 3c6 -6 8 -23 0 -29l-26 -5c-31 -6 -52 -12 -69 -44c-10 -19 -28 -71 -58 -167l-74 -237c-28 -90 -41 -140 -55 -182c-8 -6 -30 -10 -48 -8c-7 15 -27 76 -74 186l-93 219c-23 53 -51 126 -65 156c-4 -6 -10 -28 -27 -83
l-69 -227c-20 -67 -38 -138 -42 -159c-6 -35 3 -46 47 -53l25 -4c6 -8 6 -22 -4 -29c-41 2 -77 3 -120 3c-39 0 -71 -1 -110 -3c-7 6 -9 23 0 29l25 5c31 6 52 12 69 44c10 19 29 71 58 167zM664 767l-189 -66c-8 2 -15 18 -13 28l158 115c16 11 24 15 32 15
c10 0 20 -6 32 -26c11 -18 15 -37 13 -43c-3 -8 -13 -16 -33 -23z" />
    <glyph glyph-name="Ncaron" unicode="&#x147;" horiz-adv-x="730" 
d="M154 242l79 260c18 60 30 93 20 109c-4 10 -14 15 -28 17l-33 8c-8 6 -4 22 6 27c21 -1 39 -2 57 -2c18 -1 37 -1 57 -1c12 0 63 0 75 2c2 -58 41 -141 63 -191l75 -175c28 -65 45 -105 56 -127c5 9 11 28 17 48l62 201c21 67 37 138 41 159c6 35 -3 46 -46 53l-26 4
c-6 8 -6 22 4 29c41 -2 77 -3 120 -3c40 0 71 1 111 3c6 -6 8 -23 0 -29l-26 -5c-31 -6 -52 -12 -69 -44c-10 -19 -28 -71 -58 -167l-74 -237c-28 -90 -41 -140 -55 -182c-8 -6 -30 -10 -48 -8c-7 15 -27 76 -74 186l-93 219c-23 53 -51 126 -65 156c-4 -6 -10 -28 -27 -83
l-69 -227c-20 -67 -38 -138 -42 -159c-6 -35 3 -46 47 -53l25 -4c6 -8 6 -22 -4 -29c-41 2 -77 3 -120 3c-39 0 -71 -1 -110 -3c-7 6 -9 23 0 29l25 5c31 6 52 12 69 44c10 19 29 71 58 167zM558 793l144 72c10 0 17 -13 16 -24l-168 -129c-17 -13 -36 -15 -49 0l-111 136
c0 9 11 16 22 17l110 -72c10 -7 26 -5 36 0z" />
    <glyph glyph-name="Ncommaaccent" unicode="&#x145;" horiz-adv-x="730" 
d="M154 242l79 260c18 60 30 93 20 109c-4 10 -14 15 -28 17l-33 8c-8 6 -4 22 6 27c21 -1 39 -2 57 -2c18 -1 37 -1 57 -1c12 0 63 0 75 2c2 -58 41 -141 63 -191l75 -175c28 -65 45 -105 56 -127c5 9 11 28 17 48l62 201c21 67 37 138 41 159c6 35 -3 46 -46 53l-26 4
c-6 8 -6 22 4 29c41 -2 77 -3 120 -3c40 0 71 1 111 3c6 -6 8 -23 0 -29l-26 -5c-31 -6 -52 -12 -69 -44c-10 -19 -28 -71 -58 -167l-74 -237c-28 -90 -41 -140 -55 -182c-8 -6 -30 -10 -48 -8c-7 15 -27 76 -74 186l-93 219c-23 53 -51 126 -65 156c-4 -6 -10 -28 -27 -83
l-69 -227c-20 -67 -38 -138 -42 -159c-6 -35 3 -46 47 -53l25 -4c6 -8 6 -22 -4 -29c-41 2 -77 3 -120 3c-39 0 -71 -1 -110 -3c-7 6 -9 23 0 29l25 5c31 6 52 12 69 44c10 19 29 71 58 167zM413 -120c0 -68 -80 -123 -167 -142c-12 4 -13 19 -10 27c42 15 96 48 96 87
c0 17 -13 32 -32 39c-10 3 -17 14 -17 26c0 25 25 45 53 45c40 0 77 -33 77 -82z" />
    <glyph glyph-name="Ohungarumlaut" unicode="&#x150;" horiz-adv-x="748" 
d="M371 -16c-202 0 -269 146 -267 264c2 125 59 251 161 337c79 68 166 91 246 91c129 0 263 -77 259 -276c-2 -112 -51 -227 -134 -308c-51 -51 -144 -108 -265 -108zM517 637c-52 0 -95 -25 -128 -51c-77 -63 -165 -215 -169 -385c-2 -91 38 -178 145 -178
c45 0 102 16 155 75c91 101 132 241 134 367c2 111 -53 172 -137 172zM564 726l80 135c6 11 16 16 27 16s24 -7 38 -20c15 -15 20 -24 20 -34c0 -15 -13 -26 -33 -40l-108 -77c-9 2 -22 10 -24 20zM404 726l80 135c6 11 16 16 27 16s24 -7 38 -20c15 -15 20 -24 20 -34
c0 -15 -13 -26 -33 -40l-108 -77c-9 2 -22 10 -24 20z" />
    <glyph glyph-name="Omacron" unicode="&#x14c;" horiz-adv-x="748" 
d="M371 -16c-202 0 -269 146 -267 264c2 125 59 251 161 337c79 68 166 91 246 91c129 0 263 -77 259 -276c-2 -112 -51 -227 -134 -308c-51 -51 -144 -108 -265 -108zM517 637c-52 0 -95 -25 -128 -51c-77 -63 -165 -215 -169 -385c-2 -91 38 -178 145 -178
c45 0 102 16 155 75c91 101 132 241 134 367c2 111 -53 172 -137 172zM650 737h-235c-9 19 0 52 15 68h236c9 -16 0 -49 -16 -68z" />
    <glyph glyph-name="Racute" unicode="&#x154;" horiz-adv-x="602" 
d="M258 30l26 -4c6 -8 2 -24 -6 -29c-48 2 -90 3 -133 3c-45 0 -90 -1 -131 -3c-8 5 -8 25 2 29l26 4c45 7 56 17 86 114l118 376c26 83 26 98 -9 103l-34 5c-8 8 -4 22 6 27c60 7 115 8 184 8c177 0 259 -58 259 -167c0 -102 -96 -157 -166 -172c-16 -4 -16 -11 -12 -30
c18 -85 35 -164 51 -204c16 -42 40 -58 85 -64c6 -6 4 -20 -2 -26c-15 -2 -31 -4 -73 -4c-36 0 -61 4 -77 13c-17 9 -32 28 -44 65c-14 40 -34 145 -40 172c-9 44 -18 51 -50 51c-37 0 -41 -3 -49 -29l-39 -124c-27 -87 -29 -106 22 -114zM350 333c96 0 184 79 185 177
c1 63 -33 114 -113 114c-38 0 -40 -5 -48 -31l-68 -223c-11 -37 -9 -37 44 -37zM610 772l-189 -66c-8 2 -15 18 -13 28l158 115c16 11 24 15 32 15c10 0 20 -6 32 -26c11 -18 15 -37 13 -43c-3 -8 -13 -16 -33 -23z" />
    <glyph glyph-name="Rcaron" unicode="&#x158;" horiz-adv-x="602" 
d="M258 30l26 -4c6 -8 2 -24 -6 -29c-48 2 -90 3 -133 3c-45 0 -90 -1 -131 -3c-8 5 -8 25 2 29l26 4c45 7 56 17 86 114l118 376c26 83 26 98 -9 103l-34 5c-8 8 -4 22 6 27c60 7 115 8 184 8c177 0 259 -58 259 -167c0 -102 -96 -157 -166 -172c-16 -4 -16 -11 -12 -30
c18 -85 35 -164 51 -204c16 -42 40 -58 85 -64c6 -6 4 -20 -2 -26c-15 -2 -31 -4 -73 -4c-36 0 -61 4 -77 13c-17 9 -32 28 -44 65c-14 40 -34 145 -40 172c-9 44 -18 51 -50 51c-37 0 -41 -3 -49 -29l-39 -124c-27 -87 -29 -106 22 -114zM350 333c96 0 184 79 185 177
c1 63 -33 114 -113 114c-38 0 -40 -5 -48 -31l-68 -223c-11 -37 -9 -37 44 -37zM475 802l144 68c10 0 17 -13 16 -24l-167 -129c-18 -14 -37 -15 -50 0l-111 136c0 8 11 16 22 17l110 -68c10 -6 26 -6 36 0z" />
    <glyph glyph-name="Rcommaaccent" unicode="&#x156;" horiz-adv-x="602" 
d="M258 30l26 -4c6 -8 2 -24 -6 -29c-48 2 -90 3 -133 3c-45 0 -90 -1 -131 -3c-8 5 -8 25 2 29l26 4c45 7 56 17 86 114l118 376c26 83 26 98 -9 103l-34 5c-8 8 -4 22 6 27c60 7 115 8 184 8c177 0 259 -58 259 -167c0 -102 -96 -157 -166 -172c-16 -4 -16 -11 -12 -30
c18 -85 35 -164 51 -204c16 -42 40 -58 85 -64c6 -6 4 -20 -2 -26c-15 -2 -31 -4 -73 -4c-36 0 -61 4 -77 13c-17 9 -32 28 -44 65c-14 40 -34 145 -40 172c-9 44 -18 51 -50 51c-37 0 -41 -3 -49 -29l-39 -124c-27 -87 -29 -106 22 -114zM350 333c96 0 184 79 185 177
c1 63 -33 114 -113 114c-38 0 -40 -5 -48 -31l-68 -223c-11 -37 -9 -37 44 -37zM389 -120c0 -68 -80 -123 -167 -142c-12 4 -13 19 -10 27c42 15 96 48 96 87c0 17 -13 32 -32 39c-10 3 -17 14 -17 26c0 25 25 45 53 45c40 0 77 -33 77 -82z" />
    <glyph glyph-name="Sacute" unicode="&#x15a;" horiz-adv-x="498" 
d="M235 -16c-86 0 -160 34 -179 77c-9 49 -3 97 4 135c6 6 24 6 31 -2c6 -36 16 -72 36 -104c25 -41 68 -67 123 -67c63 0 132 42 132 129c0 64 -49 114 -105 155c-42 31 -99 90 -99 168c0 121 99 203 229 201c68 -1 136 -23 168 -49c-13 -30 -28 -78 -38 -124
c-8 -8 -26 -6 -32 4c8 65 -15 130 -111 130c-78 0 -122 -56 -122 -115c0 -66 64 -113 97 -137c65 -46 114 -103 114 -192c0 -120 -93 -209 -248 -209zM588 772l-189 -66c-8 2 -15 18 -13 28l158 115c16 11 24 15 32 15c10 0 20 -6 32 -26c11 -18 15 -37 13 -43
c-3 -8 -13 -16 -33 -23z" />
    <glyph glyph-name="Scedilla" unicode="&#x15e;" horiz-adv-x="498" 
d="M166 -95l60 80c-82 1 -152 34 -170 76c-9 49 -3 97 4 135c6 6 24 6 31 -2c6 -36 16 -72 36 -104c25 -41 68 -67 123 -67c63 0 132 42 132 129c0 64 -49 114 -105 155c-42 31 -99 90 -99 168c0 121 99 203 229 201c68 -1 136 -23 168 -49c-13 -30 -28 -78 -38 -124
c-8 -8 -26 -6 -32 4c8 65 -15 130 -111 130c-78 0 -122 -56 -122 -115c0 -66 64 -113 97 -137c65 -46 114 -103 114 -192c0 -110 -78 -194 -210 -206l-27 -38c-10 -10 -7 -12 6 -22c22 -17 47 -39 47 -77c0 -52 -55 -88 -116 -88c-44 0 -72 16 -72 42c0 17 12 31 31 31
c24 0 42 -35 62 -35c10 0 25 10 25 31c0 28 -38 53 -60 68z" />
    <glyph glyph-name="Scedilla" unicode="&#xf6c1;" horiz-adv-x="498" 
d="M166 -95l60 80c-82 1 -152 34 -170 76c-9 49 -3 97 4 135c6 6 24 6 31 -2c6 -36 16 -72 36 -104c25 -41 68 -67 123 -67c63 0 132 42 132 129c0 64 -49 114 -105 155c-42 31 -99 90 -99 168c0 121 99 203 229 201c68 -1 136 -23 168 -49c-13 -30 -28 -78 -38 -124
c-8 -8 -26 -6 -32 4c8 65 -15 130 -111 130c-78 0 -122 -56 -122 -115c0 -66 64 -113 97 -137c65 -46 114 -103 114 -192c0 -110 -78 -194 -210 -206l-27 -38c-10 -10 -7 -12 6 -22c22 -17 47 -39 47 -77c0 -52 -55 -88 -116 -88c-44 0 -72 16 -72 42c0 17 12 31 31 31
c24 0 42 -35 62 -35c10 0 25 10 25 31c0 28 -38 53 -60 68z" />
    <glyph glyph-name="Scommaaccent" unicode="&#x218;" horiz-adv-x="498" 
d="M235 -16c-86 0 -160 34 -179 77c-9 49 -3 97 4 135c6 6 24 6 31 -2c6 -36 16 -72 36 -104c25 -41 68 -67 123 -67c63 0 132 42 132 129c0 64 -49 114 -105 155c-42 31 -99 90 -99 168c0 121 99 203 229 201c68 -1 136 -23 168 -49c-13 -30 -28 -78 -38 -124
c-8 -8 -26 -6 -32 4c8 65 -15 130 -111 130c-78 0 -122 -56 -122 -115c0 -66 64 -113 97 -137c65 -46 114 -103 114 -192c0 -120 -93 -209 -248 -209zM297 -130c0 -68 -80 -123 -167 -142c-12 4 -13 19 -10 27c42 15 96 48 96 87c0 17 -13 32 -32 39c-10 3 -17 14 -17 26
c0 25 25 45 53 45c40 0 77 -33 77 -82z" />
    <glyph glyph-name="Tcaron" unicode="&#x164;" horiz-adv-x="640" 
d="M314 660h378c45 0 59 6 77 24c6 4 21 2 25 -4c-19 -36 -51 -119 -59 -156c-6 -10 -27 -10 -33 0c4 41 4 73 -15 84c-15 9 -40 13 -72 13h-55c-30 0 -31 -2 -42 -36l-137 -441c-27 -87 -30 -109 23 -114l42 -4c5 -8 2 -24 -6 -29c-65 2 -107 3 -155 3s-88 -1 -143 -3
c-8 6 -8 25 2 29l40 5c45 6 56 16 86 113l138 441c11 34 10 36 -24 36h-51c-35 0 -63 -4 -86 -17c-28 -15 -48 -39 -77 -80c-10 -6 -28 0 -30 10c30 53 59 112 75 150c4 6 16 6 24 2c-2 -20 10 -26 75 -26zM523 793l144 72c10 0 17 -13 16 -24l-168 -129
c-17 -13 -36 -15 -49 0l-111 136c0 9 11 16 22 17l110 -72c10 -7 26 -5 36 0z" />
    <glyph glyph-name="Tcommaaccent" unicode="&#x162;" horiz-adv-x="640" 
d="M314 660h378c45 0 59 6 77 24c6 4 21 2 25 -4c-19 -36 -51 -119 -59 -156c-6 -10 -27 -10 -33 0c4 41 4 73 -15 84c-15 9 -40 13 -72 13h-55c-30 0 -31 -2 -42 -36l-137 -441c-27 -87 -30 -109 23 -114l42 -4c5 -8 2 -24 -6 -29c-65 2 -107 3 -155 3s-88 -1 -143 -3
c-8 6 -8 25 2 29l40 5c45 6 56 16 86 113l138 441c11 34 10 36 -24 36h-51c-35 0 -63 -4 -86 -17c-28 -15 -48 -39 -77 -80c-10 -6 -28 0 -30 10c30 53 59 112 75 150c4 6 16 6 24 2c-2 -20 10 -26 75 -26zM358 -120c0 -68 -80 -123 -167 -142c-12 4 -13 19 -10 27
c42 15 96 48 96 87c0 17 -13 32 -32 39c-10 3 -17 14 -17 26c0 25 25 45 53 45c40 0 77 -33 77 -82z" />
    <glyph glyph-name="Tcommaaccent" unicode="&#x21a;" horiz-adv-x="640" 
d="M314 660h378c45 0 59 6 77 24c6 4 21 2 25 -4c-19 -36 -51 -119 -59 -156c-6 -10 -27 -10 -33 0c4 41 4 73 -15 84c-15 9 -40 13 -72 13h-55c-30 0 -31 -2 -42 -36l-137 -441c-27 -87 -30 -109 23 -114l42 -4c5 -8 2 -24 -6 -29c-65 2 -107 3 -155 3s-88 -1 -143 -3
c-8 6 -8 25 2 29l40 5c45 6 56 16 86 113l138 441c11 34 10 36 -24 36h-51c-35 0 -63 -4 -86 -17c-28 -15 -48 -39 -77 -80c-10 -6 -28 0 -30 10c30 53 59 112 75 150c4 6 16 6 24 2c-2 -20 10 -26 75 -26zM358 -120c0 -68 -80 -123 -167 -142c-12 4 -13 19 -10 27
c42 15 96 48 96 87c0 17 -13 32 -32 39c-10 3 -17 14 -17 26c0 25 25 45 53 45c40 0 77 -33 77 -82z" />
    <glyph glyph-name="Uhungarumlaut" unicode="&#x170;" horiz-adv-x="726" 
d="M458 635l-28 -4c-45 -6 -57 -18 -87 -115l-72 -230c-12 -38 -22 -83 -23 -117c-1 -84 39 -140 141 -140c128 0 189 118 228 239l48 150c21 67 37 138 41 160c6 34 -3 46 -46 53l-26 4c-6 8 -6 21 4 28c41 -2 77 -3 120 -3c40 0 71 1 111 3c7 -6 9 -22 0 -28l-26 -5
c-30 -6 -52 -13 -69 -45c-10 -18 -28 -71 -58 -167l-49 -156c-24 -75 -55 -155 -115 -209c-50 -44 -126 -69 -195 -69c-136 0 -226 53 -222 176c1 31 8 68 20 106l78 250c27 87 29 110 -24 116l-25 3c-7 8 -4 23 6 28c49 -2 90 -3 138 -3c49 0 88 1 132 3c7 -6 7 -24 -2 -28
zM586 726l80 135c6 11 16 16 27 16s24 -7 38 -20c15 -15 20 -24 20 -34c0 -15 -13 -26 -33 -40l-108 -77c-9 2 -22 10 -24 20zM416 726l80 135c6 11 16 16 27 16s24 -7 38 -20c15 -15 20 -24 20 -34c0 -15 -13 -26 -33 -40l-108 -77c-9 2 -22 10 -24 20z" />
    <glyph glyph-name="Umacron" unicode="&#x16a;" horiz-adv-x="726" 
d="M458 635l-28 -4c-45 -6 -57 -18 -87 -115l-72 -230c-12 -38 -22 -83 -23 -117c-1 -84 39 -140 141 -140c128 0 189 118 228 239l48 150c21 67 37 138 41 160c6 34 -3 46 -46 53l-26 4c-6 8 -6 21 4 28c41 -2 77 -3 120 -3c40 0 71 1 111 3c7 -6 9 -22 0 -28l-26 -5
c-30 -6 -52 -13 -69 -45c-10 -18 -28 -71 -58 -167l-49 -156c-24 -75 -55 -155 -115 -209c-50 -44 -126 -69 -195 -69c-136 0 -226 53 -222 176c1 31 8 68 20 106l78 250c27 87 29 110 -24 116l-25 3c-7 8 -4 23 6 28c49 -2 90 -3 138 -3c49 0 88 1 132 3c7 -6 7 -24 -2 -28
zM666 737h-235c-9 19 0 52 15 68h236c9 -16 0 -49 -16 -68z" />
    <glyph glyph-name="Uogonek" unicode="&#x172;" horiz-adv-x="726" 
d="M617 268l48 150c21 67 37 138 41 160c6 34 -3 46 -46 53l-26 4c-6 8 -6 21 4 28c41 -2 77 -3 120 -3c40 0 71 1 111 3c7 -6 9 -22 0 -28l-26 -5c-30 -6 -52 -13 -69 -45c-10 -18 -28 -71 -58 -167l-49 -156c-24 -75 -54 -156 -115 -209c-41 -37 -101 -60 -159 -66
c-45 -36 -72 -73 -72 -111c0 -24 19 -45 43 -45c19 0 36 3 51 13c6 -2 8 -9 8 -17c-26 -34 -67 -48 -106 -48c-42 0 -76 29 -76 69c0 54 50 100 101 137c-127 3 -211 56 -207 175c1 31 8 68 20 106l78 250c27 87 29 110 -24 116l-25 3c-7 8 -4 23 6 28c49 -2 90 -3 138 -3
c49 0 88 1 132 3c7 -6 7 -24 -2 -28l-28 -4c-45 -6 -57 -18 -87 -115l-72 -230c-12 -38 -22 -83 -23 -117c-1 -84 39 -140 141 -140c128 0 189 118 228 239z" />
    <glyph glyph-name="Uring" unicode="&#x16e;" horiz-adv-x="726" 
d="M458 635l-28 -4c-45 -6 -57 -18 -87 -115l-72 -230c-12 -38 -22 -83 -23 -117c-1 -84 39 -140 141 -140c128 0 189 118 228 239l48 150c21 67 37 138 41 160c6 34 -3 46 -46 53l-26 4c-6 8 -6 21 4 28c41 -2 77 -3 120 -3c40 0 71 1 111 3c7 -6 9 -22 0 -28l-26 -5
c-30 -6 -52 -13 -69 -45c-10 -18 -28 -71 -58 -167l-49 -156c-24 -75 -55 -155 -115 -209c-50 -44 -126 -69 -195 -69c-136 0 -226 53 -222 176c1 31 8 68 20 106l78 250c27 87 29 110 -24 116l-25 3c-7 8 -4 23 6 28c49 -2 90 -3 138 -3c49 0 88 1 132 3c7 -6 7 -24 -2 -28
zM455 791c0 47 36 93 93 93s93 -46 93 -93c0 -49 -36 -95 -93 -95s-93 46 -93 95zM504 791c0 -35 16 -61 44 -61s44 26 44 61c0 33 -16 59 -44 59s-44 -26 -44 -59z" />
    <glyph glyph-name="Zacute" unicode="&#x179;" horiz-adv-x="627" 
d="M243 39h106c59 0 118 4 150 20c29 15 65 55 94 99c6 6 26 2 28 -8c-14 -48 -53 -128 -75 -153c-34 1 -68 2 -102 2c-34 1 -68 1 -103 1h-246c-51 0 -83 -1 -100 -3c-8 2 -10 11 -8 19c23 17 93 87 134 130l419 444c24 26 20 31 -11 31h-142c-42 0 -71 -1 -101 -16
c-27 -13 -53 -40 -89 -91c-9 -6 -27 0 -29 12c26 53 51 110 69 160c4 4 14 4 20 2c2 -24 11 -28 86 -28h284c58 0 87 2 100 3c8 -2 10 -9 7 -19c-26 -18 -135 -131 -206 -207l-307 -326c-27 -28 -42 -46 -42 -58c0 -10 17 -14 64 -14zM623 772l-189 -66c-8 2 -15 18 -13 28
l158 115c16 11 24 15 32 15c10 0 20 -6 32 -26c11 -18 15 -37 13 -43c-3 -8 -13 -16 -33 -23z" />
    <glyph glyph-name="Zdotaccent" unicode="&#x17b;" horiz-adv-x="627" 
d="M243 39h106c59 0 118 4 150 20c29 15 65 55 94 99c6 6 26 2 28 -8c-14 -48 -53 -128 -75 -153c-34 1 -68 2 -102 2c-34 1 -68 1 -103 1h-246c-51 0 -83 -1 -100 -3c-8 2 -10 11 -8 19c23 17 93 87 134 130l419 444c24 26 20 31 -11 31h-142c-42 0 -71 -1 -101 -16
c-27 -13 -53 -40 -89 -91c-9 -6 -27 0 -29 12c26 53 51 110 69 160c4 4 14 4 20 2c2 -24 11 -28 86 -28h284c58 0 87 2 100 3c8 -2 10 -9 7 -19c-26 -18 -135 -131 -206 -207l-307 -326c-27 -28 -42 -46 -42 -58c0 -10 17 -14 64 -14zM500 823c33 0 55 -25 51 -59
s-30 -59 -65 -59c-33 0 -54 25 -48 60c5 33 31 58 62 58z" />
    <glyph glyph-name="Idotaccent" unicode="&#x130;" horiz-adv-x="357" 
d="M263 30l30 -4c6 -8 2 -24 -6 -29c-53 2 -95 3 -143 3s-88 -1 -131 -3c-8 6 -8 25 2 29l28 4c45 6 56 17 86 114l116 372c27 87 30 107 -23 114l-30 4c-6 8 -2 24 6 29c53 -2 95 -3 143 -3s88 1 131 3c8 -6 8 -25 -2 -29l-28 -4c-45 -6 -56 -17 -86 -114l-116 -372
c-27 -87 -30 -107 23 -114zM366 829c34 0 57 -26 53 -62s-31 -62 -68 -62c-35 0 -56 26 -50 63c6 35 32 61 65 61z" />
    <glyph glyph-name="abreve" unicode="&#x103;" horiz-adv-x="470" 
d="M383 368l26 56c4 2 12 4 20 4c19 0 47 -6 56 -24c-28 -65 -92 -230 -129 -334c-5 -13 -1 -18 5 -18c15 0 56 23 100 65c8 0 16 -6 16 -19c-44 -56 -122 -112 -186 -112c-24 0 -33 20 -33 32c0 10 2 21 10 41l36 95h-3c-70 -95 -170 -168 -228 -168c-32 0 -54 28 -54 60
c0 39 40 140 117 227c45 50 91 81 125 99c30 16 54 22 78 22c8 0 16 -4 23 -7c5 -3 15 -11 21 -19zM313 352c-22 0 -38 -9 -70 -43c-56 -61 -108 -174 -110 -240c0 -11 4 -20 12 -20c16 0 59 35 102 80c51 52 96 142 110 188c-8 24 -24 35 -44 35zM345 477
c-73 0 -108 50 -80 149c7 4 18 4 24 0c0 -58 31 -83 69 -83c40 0 84 25 110 83c8 4 20 4 26 0c-20 -99 -79 -149 -149 -149z" />
    <glyph glyph-name="amacron" unicode="&#x101;" horiz-adv-x="470" 
d="M383 368l26 56c4 2 12 4 20 4c19 0 47 -6 56 -24c-28 -65 -92 -230 -129 -334c-5 -13 -1 -18 5 -18c15 0 56 23 100 65c8 0 16 -6 16 -19c-44 -56 -122 -112 -186 -112c-24 0 -33 20 -33 32c0 10 2 21 10 41l36 95h-3c-70 -95 -170 -168 -228 -168c-32 0 -54 28 -54 60
c0 39 40 140 117 227c45 50 91 81 125 99c30 16 54 22 78 22c8 0 16 -4 23 -7c5 -3 15 -11 21 -19zM313 352c-22 0 -38 -9 -70 -43c-56 -61 -108 -174 -110 -240c0 -11 4 -20 12 -20c16 0 59 35 102 80c51 52 96 142 110 188c-8 24 -24 35 -44 35zM482 503h-227
c-7 17 -1 51 11 63h227c7 -12 2 -46 -11 -63z" />
    <glyph glyph-name="aogonek" unicode="&#x105;" horiz-adv-x="470" 
d="M313 352c-22 0 -38 -9 -70 -43c-56 -61 -108 -174 -110 -240c0 -11 4 -20 12 -20c16 0 59 35 102 80c51 52 96 142 110 188c-8 24 -24 35 -44 35zM19 46c0 39 40 140 117 227c45 50 91 81 125 99c30 16 54 22 78 22c8 0 16 -4 23 -7c5 -3 15 -11 21 -19l26 56
c4 2 12 4 20 4c19 0 47 -6 56 -24c-28 -65 -92 -230 -129 -334c-5 -13 -1 -18 5 -18c15 0 56 23 100 65c8 0 16 -6 16 -19c-20 -26 -48 -51 -78 -74c-77 -61 -107 -109 -107 -154c0 -18 15 -41 42 -41c19 0 36 5 51 15c6 -2 8 -9 8 -17c-26 -34 -67 -48 -106 -48
c-37 0 -71 29 -71 64c0 49 36 96 103 147c-4 -1 -9 -2 -14 -3s-9 -1 -14 -1c-24 0 -33 20 -33 32c0 10 2 21 10 41l36 95h-3c-70 -95 -170 -168 -228 -168c-32 0 -54 28 -54 60z" />
    <glyph glyph-name="cacute" unicode="&#x107;" horiz-adv-x="360" 
d="M130 -14c-54 0 -88 38 -88 110c0 66 41 165 113 236c53 52 106 76 159 76c52 0 87 -28 86 -68c0 -39 -37 -55 -60 -55c-17 0 -29 10 -30 28c-2 22 1 55 -25 55c-20 0 -46 -20 -74 -64c-31 -49 -63 -123 -63 -196c0 -45 17 -60 41 -60c30 0 66 19 107 61
c12 0 20 -8 18 -20c-37 -49 -110 -103 -184 -103zM429 575l-144 -130c-13 0 -22 7 -24 17l104 172c15 24 26 30 36 29c11 -1 20 -8 37 -20c14 -14 21 -22 19 -35c-1 -10 -15 -21 -28 -33z" />
    <glyph glyph-name="ccaron" unicode="&#x10d;" horiz-adv-x="360" 
d="M130 -14c-54 0 -88 38 -88 110c0 66 41 165 113 236c53 52 106 76 159 76c52 0 87 -28 86 -68c0 -39 -37 -55 -60 -55c-17 0 -29 10 -30 28c-2 22 1 55 -25 55c-20 0 -46 -20 -74 -64c-31 -49 -63 -123 -63 -196c0 -45 17 -60 41 -60c30 0 66 19 107 61
c12 0 20 -8 18 -20c-37 -49 -110 -103 -184 -103zM283 471l-46 197c5 9 12 13 24 12l54 -108c9 -19 14 -17 30 -1l111 111c12 1 20 -5 20 -17l-142 -193c-15 -20 -25 -23 -32 -23c-5 0 -14 1 -19 22z" />
    <glyph glyph-name="dcaron" unicode="&#x10f;" horiz-adv-x="499" 
d="M348 408c20 0 42 -12 52 -28l70 203c16 46 17 60 1 70l-24 16c-4 6 -2 14 4 18c24 10 104 26 150 28c4 -2 8 -6 8 -8c-18 -50 -29 -86 -55 -154c-40 -106 -136 -399 -146 -432c-7 -24 -12 -39 -14 -49c-2 -9 0 -17 8 -17c12 0 68 38 100 76c10 0 16 -6 16 -18
c-26 -45 -112 -127 -188 -127c-24 0 -36 18 -36 33c0 17 6 38 17 67l33 90h-2c-59 -87 -140 -190 -241 -190c-44 0 -70 33 -69 83c1 76 52 184 131 253c67 58 131 86 185 86zM355 372c-15 0 -35 -12 -57 -32c-29 -26 -83 -88 -118 -148c-40 -67 -58 -119 -58 -141
c0 -12 6 -18 14 -18c20 0 84 41 137 99s86 121 100 169c11 40 2 71 -18 71zM738 633c0 -66 -69 -122 -145 -140c-9 5 -10 17 -7 24c37 14 83 47 83 90c0 17 -11 28 -27 37c-10 2 -17 12 -17 24c0 25 21 47 47 47c36 0 66 -34 66 -82z" />
    <glyph glyph-name="dcroat" unicode="&#x111;" horiz-adv-x="499" 
d="M355 372c-15 0 -35 -12 -57 -32c-29 -26 -83 -88 -118 -148c-40 -67 -58 -119 -58 -141c0 -12 6 -18 14 -18c20 0 84 41 137 99s86 121 100 169c11 40 2 71 -18 71zM620 564l-18 -44h-59c-42 -113 -126 -368 -135 -399c-7 -24 -12 -39 -14 -49c-2 -9 0 -17 8 -17
c12 0 68 38 100 76c10 0 16 -6 16 -18c-26 -45 -112 -127 -188 -127c-24 0 -36 18 -36 33c0 17 6 38 17 67l33 90h-2c-59 -87 -140 -190 -241 -190c-44 0 -70 33 -69 83c1 76 52 184 131 253c67 58 131 86 185 86c20 0 42 -12 52 -28l48 140h-116l18 44h112l8 19
c19 45 17 60 1 70l-24 16c-4 6 -2 14 4 18c24 10 104 26 150 28c4 -2 8 -6 8 -8c-16 -45 -27 -78 -52 -143h63z" />
    <glyph glyph-name="ecaron" unicode="&#x11b;" 
d="M136 -14c-66 0 -94 54 -94 109c0 75 47 187 142 259c55 41 102 54 140 54c48 0 80 -36 80 -69c0 -90 -136 -139 -247 -169c-5 -14 -9 -37 -9 -65c0 -37 16 -57 44 -57c36 0 72 21 118 63c10 0 18 -10 16 -20c-54 -75 -124 -105 -190 -105zM297 372c-14 0 -35 -12 -60 -40
c-37 -39 -61 -92 -72 -128c51 18 82 35 114 68c25 25 37 59 37 75c0 13 -6 25 -19 25zM274 464l-46 197c4 9 12 13 24 12l54 -112c9 -19 14 -17 29 -1l112 115c12 1 19 -5 19 -17l-142 -193c-15 -20 -25 -23 -31 -23s-14 1 -19 22z" />
    <glyph glyph-name="edotaccent" unicode="&#x117;" 
d="M136 -14c-66 0 -94 54 -94 109c0 75 47 187 142 259c55 41 102 54 140 54c48 0 80 -36 80 -69c0 -90 -136 -139 -247 -169c-5 -14 -9 -37 -9 -65c0 -37 16 -57 44 -57c36 0 72 21 118 63c10 0 18 -10 16 -20c-54 -75 -124 -105 -190 -105zM297 372c-14 0 -35 -12 -60 -40
c-37 -39 -61 -92 -72 -128c51 18 82 35 114 68c25 25 37 59 37 75c0 13 -6 25 -19 25zM322 597c33 0 54 -22 49 -56c-4 -32 -29 -56 -62 -56c-31 0 -52 24 -47 57s31 55 60 55z" />
    <glyph glyph-name="emacron" unicode="&#x113;" 
d="M136 -14c-66 0 -94 54 -94 109c0 75 47 187 142 259c55 41 102 54 140 54c48 0 80 -36 80 -69c0 -90 -136 -139 -247 -169c-5 -14 -9 -37 -9 -65c0 -37 16 -57 44 -57c36 0 72 21 118 63c10 0 18 -10 16 -20c-54 -75 -124 -105 -190 -105zM297 372c-14 0 -35 -12 -60 -40
c-37 -39 -61 -92 -72 -128c51 18 82 35 114 68c25 25 37 59 37 75c0 13 -6 25 -19 25zM432 502h-227c-7 13 -1 51 11 63h227c7 -12 2 -50 -11 -63z" />
    <glyph glyph-name="eogonek" unicode="&#x119;" 
d="M297 372c-14 0 -35 -12 -60 -40c-37 -39 -61 -92 -72 -128c51 18 82 35 114 68c25 25 37 59 37 75c0 13 -6 25 -19 25zM136 -14c-66 0 -94 54 -94 109c0 75 47 187 142 259c55 41 102 54 140 54c48 0 80 -36 80 -69c0 -90 -136 -139 -247 -169c-5 -14 -9 -37 -9 -65
c0 -37 16 -57 44 -57c36 0 72 21 118 63c10 0 18 -10 16 -20c-24 -34 -51 -58 -78 -75c-65 -40 -93 -101 -96 -132c-3 -32 15 -55 42 -55c19 0 36 5 51 15c6 -2 8 -9 8 -17c-26 -34 -72 -48 -111 -48c-37 0 -71 29 -71 69c0 49 42 91 104 142c-6 -1 -13 -2 -19 -3
c-7 -1 -13 -1 -20 -1z" />
    <glyph glyph-name="gbreve" unicode="&#x11f;" horiz-adv-x="404" 
d="M124 -269c-73 0 -175 24 -175 96c0 76 116 119 171 135c-25 16 -37 29 -37 50s37 60 55 78c-32 8 -81 34 -81 103c0 49 29 115 83 161c41 35 90 54 148 54c14 0 27 -3 42 -9c14 -6 25 -13 33 -13c10 0 28 2 44 6s36 10 46 10c16 0 28 -10 28 -34c0 -28 -18 -35 -28 -35
s-20 2 -30 5s-24 6 -32 6c-4 0 -8 -4 -8 -7c2 -8 6 -24 6 -33c0 -86 -59 -159 -138 -197c-19 -9 -45 -15 -73 -19c-8 -6 -18 -18 -18 -30c0 -11 19 -31 52 -49c26 -14 63 -34 95 -54c48 -31 68 -62 68 -100c0 -79 -129 -124 -251 -124zM174 -230c52 0 116 20 116 59
c0 22 -16 44 -48 66c-39 26 -75 44 -86 44s-46 -13 -67 -29c-26 -20 -42 -41 -42 -65c0 -47 61 -75 127 -75zM308 337c0 21 -14 35 -28 35c-16 0 -36 -12 -62 -43c-34 -41 -76 -125 -76 -172c0 -19 12 -33 30 -33s42 20 69 57c37 51 67 127 67 156zM292 480
c-73 0 -108 50 -80 149c7 4 18 4 24 0c0 -53 31 -82 69 -82c40 0 84 29 110 82c8 4 20 4 26 0c-20 -99 -79 -149 -149 -149z" />
    <glyph glyph-name="gcommaaccent" unicode="&#x123;" horiz-adv-x="404" 
d="M124 -269c-73 0 -175 24 -175 96c0 76 116 119 171 135c-25 16 -37 29 -37 50s37 60 55 78c-32 8 -81 34 -81 103c0 49 29 115 83 161c41 35 90 54 148 54c14 0 27 -3 42 -9c14 -6 25 -13 33 -13c10 0 28 2 44 6s36 10 46 10c16 0 28 -10 28 -34c0 -28 -18 -35 -28 -35
s-20 2 -30 5s-24 6 -32 6c-4 0 -8 -4 -8 -7c2 -8 6 -24 6 -33c0 -86 -59 -159 -138 -197c-19 -9 -45 -15 -73 -19c-8 -6 -18 -18 -18 -30c0 -11 19 -31 52 -49c26 -14 63 -34 95 -54c48 -31 68 -62 68 -100c0 -79 -129 -124 -251 -124zM174 -230c52 0 116 20 116 59
c0 22 -16 44 -48 66c-39 26 -75 44 -86 44s-46 -13 -67 -29c-26 -20 -42 -41 -42 -65c0 -47 61 -75 127 -75zM308 337c0 21 -14 35 -28 35c-16 0 -36 -12 -62 -43c-34 -41 -76 -125 -76 -172c0 -19 12 -33 30 -33s42 20 69 57c37 51 67 127 67 156zM303 473
c-41 0 -74 35 -74 83c0 66 79 124 165 139c10 -3 12 -17 8 -23c-43 -14 -94 -46 -94 -89c0 -18 11 -29 31 -38c10 -3 17 -12 17 -25c0 -25 -23 -47 -53 -47z" />
    <glyph glyph-name="imacron" unicode="&#x12b;" horiz-adv-x="291" 
d="M280 337l-112 -262c-4 -10 -5 -19 3 -19c16 0 71 38 100 69c11 0 19 -10 17 -20c-28 -42 -124 -119 -200 -119c-17 0 -32 22 -32 31c0 11 2 22 9 39l111 263c4 10 4 16 -2 16c-12 0 -54 -26 -86 -54c-10 0 -17 12 -14 20c54 63 139 107 184 107c14 0 30 -14 33 -28
c2 -8 -2 -22 -11 -43zM392 506h-227c-7 17 -1 51 11 63h227c7 -12 2 -46 -11 -63z" />
    <glyph glyph-name="iogonek" unicode="&#x12f;" horiz-adv-x="291" 
d="M272 527c-32 0 -48 23 -48 49c0 34 24 73 68 73c30 0 48 -17 48 -49c0 -38 -28 -73 -68 -73zM83 -14c-12 0 -27 22 -27 31c0 11 2 22 9 39l111 263c4 10 4 16 -2 16c-12 0 -54 -26 -86 -54c-10 0 -17 12 -14 20c54 63 139 107 184 107c14 0 30 -14 33 -28
c2 -8 -2 -22 -11 -43l-112 -262c-4 -10 -5 -19 3 -19c16 0 71 38 100 69c11 0 19 -10 17 -20c-17 -26 -61 -65 -105 -97c-63 -46 -86 -90 -89 -120c-3 -31 15 -53 42 -53c14 0 30 4 48 14c6 -2 8 -9 8 -16c-25 -33 -65 -47 -111 -47c-39 0 -66 28 -66 69s33 84 105 134
c-6 -1 -13 -2 -19 -2c-6 -1 -12 -1 -18 -1z" />
    <glyph glyph-name="kcommaaccent" unicode="&#x137;" horiz-adv-x="468" 
d="M421 408c58 0 80 -36 80 -65c0 -24 -12 -59 -61 -99c-30 -25 -81 -50 -131 -60c-6 -2 -6 -10 -4 -18c6 -24 18 -61 29 -84c9 -19 17 -29 29 -29c16 0 40 22 66 50c8 2 17 -4 18 -14c-30 -61 -86 -103 -132 -103c-24 0 -43 16 -58 46c-13 26 -24 61 -36 104
c-4 13 -12 20 -24 18c-20 -2 -26 -7 -38 -37l-46 -115c-5 -12 -20 -16 -34 -16c-18 0 -55 6 -46 34l188 554c18 54 18 64 0 73l-24 12c-4 6 -4 14 2 20c32 14 108 30 154 36c5 -1 8 -4 9 -8c-12 -36 -26 -69 -49 -137l-100 -291h2c54 56 118 129 206 129zM201 186
c22 0 68 14 126 52c40 27 68 59 68 85c0 16 -12 27 -30 27c-32 0 -75 -29 -122 -77c-24 -25 -48 -59 -52 -73c-1 -6 0 -14 10 -14zM260 -117c0 -72 -78 -124 -161 -144c-12 4 -15 21 -10 29c39 14 90 46 90 87c0 17 -10 31 -29 38c-9 3 -16 14 -16 25c0 24 24 44 52 44
c38 0 74 -32 74 -79z" />
    <glyph glyph-name="lacute" unicode="&#x13a;" horiz-adv-x="260" 
d="M312 555l-162 -473c-9 -26 -10 -40 4 -40c22 0 75 56 109 96c12 0 20 -6 18 -18c-28 -54 -87 -134 -188 -134c-40 0 -52 20 -52 36s4 34 18 74l165 483c18 52 14 62 -4 72l-23 12c-4 6 -4 14 2 20c27 10 111 28 160 32c2 0 6 -6 6 -8c-14 -40 -26 -72 -53 -152zM442 786
l-172 -60c-7 2 -14 16 -12 25l144 105c14 10 22 14 29 14c9 0 18 -6 29 -24c10 -16 14 -34 12 -39c-3 -7 -12 -15 -30 -21z" />
    <glyph glyph-name="lcaron" unicode="&#x13e;" horiz-adv-x="260" 
d="M312 555l-162 -473c-9 -26 -10 -40 4 -40c22 0 75 56 109 96c12 0 20 -6 18 -18c-28 -54 -87 -134 -188 -134c-40 0 -52 20 -52 36s4 34 18 74l165 483c18 52 14 62 -4 72l-23 12c-4 6 -4 14 2 20c27 10 111 28 160 32c2 0 6 -6 6 -8c-14 -40 -26 -72 -53 -152zM500 633
c0 -66 -69 -122 -145 -140c-9 5 -10 17 -7 24c37 14 83 47 83 90c0 17 -11 28 -27 37c-10 2 -17 12 -17 24c0 25 21 47 47 47c36 0 66 -34 66 -82z" />
    <glyph glyph-name="lcommaaccent" unicode="&#x13c;" horiz-adv-x="260" 
d="M312 555l-162 -473c-9 -26 -10 -40 4 -40c22 0 75 56 109 96c12 0 20 -6 18 -18c-28 -54 -87 -134 -188 -134c-40 0 -52 20 -52 36s4 34 18 74l165 483c18 52 14 62 -4 72l-23 12c-4 6 -4 14 2 20c27 10 111 28 160 32c2 0 6 -6 6 -8c-14 -40 -26 -72 -53 -152zM156 -127
c0 -72 -78 -124 -161 -144c-12 4 -15 21 -10 29c39 14 90 46 90 87c0 17 -10 31 -29 38c-9 3 -16 14 -16 25c0 24 24 44 52 44c38 0 74 -32 74 -79z" />
    <glyph glyph-name="nacute" unicode="&#x144;" horiz-adv-x="524" 
d="M444 408c44 0 60 -28 60 -56c0 -19 -8 -53 -18 -79c-18 -49 -66 -158 -82 -198c-5 -12 -6 -20 2 -20c16 0 64 36 92 68c12 2 18 -6 18 -18c-34 -56 -114 -119 -192 -119c-18 0 -34 18 -34 32c0 12 4 26 18 59c26 60 60 143 84 202c8 20 16 44 16 60c0 9 -2 17 -14 17
c-17 0 -60 -31 -106 -89c-54 -70 -103 -162 -152 -265c-6 -12 -18 -16 -34 -16c-18 0 -53 6 -44 34c4 13 96 261 106 289c6 16 8 30 -4 30c-20 0 -58 -26 -86 -52c-10 0 -16 8 -16 16c32 51 104 105 172 105c36 0 39 -30 30 -52l-61 -155h4c63 89 155 207 241 207zM491 576
l-144 -130c-13 0 -22 7 -24 17l104 172c15 24 26 30 36 29c11 -1 20 -8 37 -20c14 -14 21 -22 19 -35c-1 -10 -15 -21 -28 -33z" />
    <glyph glyph-name="ncaron" unicode="&#x148;" horiz-adv-x="524" 
d="M444 408c44 0 60 -28 60 -56c0 -19 -8 -53 -18 -79c-18 -49 -66 -158 -82 -198c-5 -12 -6 -20 2 -20c16 0 64 36 92 68c12 2 18 -6 18 -18c-34 -56 -114 -119 -192 -119c-18 0 -34 18 -34 32c0 12 4 26 18 59c26 60 60 143 84 202c8 20 16 44 16 60c0 9 -2 17 -14 17
c-17 0 -60 -31 -106 -89c-54 -70 -103 -162 -152 -265c-6 -12 -18 -16 -34 -16c-18 0 -53 6 -44 34c4 13 96 261 106 289c6 16 8 30 -4 30c-20 0 -58 -26 -86 -52c-10 0 -16 8 -16 16c32 51 104 105 172 105c36 0 39 -30 30 -52l-61 -155h4c63 89 155 207 241 207zM320 477
l-46 197c5 9 12 13 24 12l54 -107c7 -15 14 -16 30 -1l111 110c12 1 20 -5 20 -17l-142 -193c-15 -20 -25 -23 -32 -23c-5 0 -14 1 -19 22z" />
    <glyph glyph-name="ncommaaccent" unicode="&#x146;" horiz-adv-x="524" 
d="M444 408c44 0 60 -28 60 -56c0 -19 -8 -53 -18 -79c-18 -49 -66 -158 -82 -198c-5 -12 -6 -20 2 -20c16 0 64 36 92 68c12 2 18 -6 18 -18c-34 -56 -114 -119 -192 -119c-18 0 -34 18 -34 32c0 12 4 26 18 59c26 60 60 143 84 202c8 20 16 44 16 60c0 9 -2 17 -14 17
c-17 0 -60 -31 -106 -89c-54 -70 -103 -162 -152 -265c-6 -12 -18 -16 -34 -16c-18 0 -53 6 -44 34c4 13 96 261 106 289c6 16 8 30 -4 30c-20 0 -58 -26 -86 -52c-10 0 -16 8 -16 16c32 51 104 105 172 105c36 0 39 -30 30 -52l-61 -155h4c63 89 155 207 241 207zM293 -117
c0 -72 -78 -124 -161 -144c-12 4 -15 21 -10 29c39 14 90 46 90 87c0 17 -10 31 -29 38c-9 3 -16 14 -16 25c0 24 24 44 52 44c38 0 74 -32 74 -79z" />
    <glyph glyph-name="ohungarumlaut" unicode="&#x151;" horiz-adv-x="436" 
d="M177 22c24 0 46 16 76 59c36 52 84 172 84 237c0 27 -4 54 -32 54c-18 0 -39 -11 -65 -44c-47 -61 -99 -180 -99 -254c0 -30 13 -52 36 -52zM49 117c2 73 44 167 105 224c58 53 107 67 152 67c89 0 124 -61 123 -136c-1 -62 -31 -153 -98 -217c-58 -57 -114 -69 -158 -69
c-84 0 -126 58 -124 131zM373 460l63 185c5 16 15 27 29 27c11 0 22 -6 34 -13c14 -10 21 -19 21 -27c0 -12 -7 -24 -23 -46l-100 -143c-12 -1 -23 3 -24 17zM231 460l63 185c5 16 14 27 26 27c14 0 24 -6 36 -13c15 -10 22 -19 22 -27c0 -12 -8 -24 -24 -46l-100 -143
c-12 -1 -22 3 -23 17z" />
    <glyph glyph-name="omacron" unicode="&#x14d;" horiz-adv-x="436" 
d="M177 22c24 0 46 16 76 59c36 52 84 172 84 237c0 27 -4 54 -32 54c-18 0 -39 -11 -65 -44c-47 -61 -99 -180 -99 -254c0 -30 13 -52 36 -52zM49 117c2 73 44 167 105 224c58 53 107 67 152 67c89 0 124 -61 123 -136c-1 -62 -31 -153 -98 -217c-58 -57 -114 -69 -158 -69
c-84 0 -126 58 -124 131zM452 501h-227c-7 13 -1 52 11 64h227c7 -12 2 -51 -11 -64z" />
    <glyph glyph-name="racute" unicode="&#x155;" horiz-adv-x="372" 
d="M200 408c54 0 45 -58 29 -104l-35 -103h6c30 55 64 112 89 143c32 40 59 64 89 64c32 0 46 -28 46 -56c0 -31 -23 -80 -54 -80c-12 0 -16 11 -20 29c-4 20 -10 30 -20 30c-12 0 -35 -22 -68 -77c-37 -60 -79 -157 -120 -252c-5 -12 -18 -16 -34 -16c-20 0 -55 6 -46 34
c22 65 72 204 100 295c5 16 4 26 -6 26c-22 0 -54 -28 -78 -56c-10 0 -18 8 -16 20c26 45 76 103 138 103zM424 573l-144 -130c-13 0 -22 7 -24 17l104 172c15 24 26 30 36 29c11 -1 20 -8 37 -20c14 -14 21 -22 19 -35c-1 -10 -15 -21 -28 -33z" />
    <glyph glyph-name="rcaron" unicode="&#x159;" horiz-adv-x="372" 
d="M200 408c54 0 45 -58 29 -104l-35 -103h6c30 55 64 112 89 143c32 40 59 64 89 64c32 0 46 -28 46 -56c0 -31 -23 -80 -54 -80c-12 0 -16 11 -20 29c-4 20 -10 30 -20 30c-12 0 -35 -22 -68 -77c-37 -60 -79 -157 -120 -252c-5 -12 -18 -16 -34 -16c-20 0 -55 6 -46 34
c22 65 72 204 100 295c5 16 4 26 -6 26c-22 0 -54 -28 -78 -56c-10 0 -18 8 -16 20c26 45 76 103 138 103zM258 467l-46 197c5 9 12 13 24 12l57 -111c8 -16 14 -14 29 2l109 111c12 1 20 -5 20 -17l-142 -193c-15 -20 -25 -23 -32 -23c-5 0 -14 1 -19 22z" />
    <glyph glyph-name="rcommaaccent" unicode="&#x157;" horiz-adv-x="372" 
d="M200 408c54 0 45 -58 29 -104l-35 -103h6c30 55 64 112 89 143c32 40 59 64 89 64c32 0 46 -28 46 -56c0 -31 -23 -80 -54 -80c-12 0 -16 11 -20 29c-4 20 -10 30 -20 30c-12 0 -35 -22 -68 -77c-37 -60 -79 -157 -120 -252c-5 -12 -18 -16 -34 -16c-20 0 -55 6 -46 34
c22 65 72 204 100 295c5 16 4 26 -6 26c-22 0 -54 -28 -78 -56c-10 0 -18 8 -16 20c26 45 76 103 138 103zM150 -122c0 -72 -78 -124 -161 -144c-12 4 -15 21 -10 29c39 14 90 46 90 87c0 17 -10 31 -29 38c-9 3 -16 14 -16 25c0 24 24 44 52 44c38 0 74 -32 74 -79z" />
    <glyph glyph-name="sacute" unicode="&#x15b;" horiz-adv-x="290" 
d="M86 -14c-42 0 -80 30 -80 65c0 22 16 48 38 48c8 0 15 -6 22 -14c26 -28 48 -45 76 -45c21 0 40 15 40 36c0 33 -31 68 -50 92c-28 36 -42 70 -42 95c0 42 22 76 58 107c28 24 64 38 90 38c46 0 80 -34 80 -69c0 -27 -22 -42 -32 -42c-9 0 -16 4 -22 12
c-28 32 -44 43 -70 43c-22 0 -34 -17 -34 -31c0 -33 33 -62 51 -86c29 -39 44 -67 43 -106c-1 -34 -18 -72 -56 -103c-30 -25 -70 -40 -112 -40zM384 574l-144 -130c-13 0 -22 7 -24 17l104 172c15 24 26 30 36 29c11 -1 20 -8 37 -20c14 -14 21 -22 19 -35
c-1 -10 -15 -21 -28 -33z" />
    <glyph glyph-name="scedilla" unicode="&#x15f;" horiz-adv-x="290" 
d="M33 -86l55 72h-2c-42 0 -80 30 -80 65c0 22 16 48 38 48c8 0 15 -6 22 -14c26 -28 48 -45 76 -45c21 0 40 15 40 36c0 33 -31 68 -50 92c-28 36 -42 70 -42 95c0 42 22 76 58 107c28 24 64 38 90 38c46 0 80 -34 80 -69c0 -27 -22 -42 -32 -42c-9 0 -16 4 -22 12
c-28 32 -44 43 -70 43c-22 0 -34 -17 -34 -31c0 -33 33 -62 51 -86c29 -39 44 -67 43 -106c-1 -34 -18 -72 -56 -103c-19 -16 -41 -27 -65 -33l-28 -39c-9 -9 -6 -11 6 -20c20 -16 42 -36 42 -70c0 -47 -50 -80 -105 -80c-40 0 -65 15 -65 38c0 16 11 28 28 28
c22 0 38 -31 56 -31c9 0 23 9 23 28c0 25 -35 48 -55 61z" />
    <glyph glyph-name="scedilla" unicode="&#xf6c2;" horiz-adv-x="290" 
d="M33 -86l55 72h-2c-42 0 -80 30 -80 65c0 22 16 48 38 48c8 0 15 -6 22 -14c26 -28 48 -45 76 -45c21 0 40 15 40 36c0 33 -31 68 -50 92c-28 36 -42 70 -42 95c0 42 22 76 58 107c28 24 64 38 90 38c46 0 80 -34 80 -69c0 -27 -22 -42 -32 -42c-9 0 -16 4 -22 12
c-28 32 -44 43 -70 43c-22 0 -34 -17 -34 -31c0 -33 33 -62 51 -86c29 -39 44 -67 43 -106c-1 -34 -18 -72 -56 -103c-19 -16 -41 -27 -65 -33l-28 -39c-9 -9 -6 -11 6 -20c20 -16 42 -36 42 -70c0 -47 -50 -80 -105 -80c-40 0 -65 15 -65 38c0 16 11 28 28 28
c22 0 38 -31 56 -31c9 0 23 9 23 28c0 25 -35 48 -55 61z" />
    <glyph glyph-name="scommaaccent" unicode="&#x219;" horiz-adv-x="290" 
d="M86 -14c-42 0 -80 30 -80 65c0 22 16 48 38 48c8 0 15 -6 22 -14c26 -28 48 -45 76 -45c21 0 40 15 40 36c0 33 -31 68 -50 92c-28 36 -42 70 -42 95c0 42 22 76 58 107c28 24 64 38 90 38c46 0 80 -34 80 -69c0 -27 -22 -42 -32 -42c-9 0 -16 4 -22 12
c-28 32 -44 43 -70 43c-22 0 -34 -17 -34 -31c0 -33 33 -62 51 -86c29 -39 44 -67 43 -106c-1 -34 -18 -72 -56 -103c-30 -25 -70 -40 -112 -40zM146 -122c0 -72 -78 -124 -162 -144c-12 4 -14 21 -10 29c40 14 91 46 91 87c0 17 -10 31 -29 38c-10 3 -17 14 -17 25
c0 24 25 44 52 44c39 0 75 -32 75 -79z" />
    <glyph glyph-name="tcaron" unicode="&#x165;" horiz-adv-x="304" 
d="M363 344h-106l-90 -259c-6 -16 -4 -24 6 -24c16 0 74 44 110 84c12 -2 18 -8 16 -22c-44 -66 -142 -137 -206 -137c-20 0 -36 18 -36 34c0 14 3 28 12 55l92 269h-76c-6 9 0 26 10 32l84 16l64 97c6 4 14 5 24 5c14 0 28 -5 32 -13l-28 -93h100c12 -12 4 -38 -8 -44z
M500 633c0 -66 -69 -122 -145 -140c-9 5 -10 17 -7 24c37 14 83 47 83 90c0 17 -11 28 -27 37c-10 2 -17 12 -17 24c0 25 21 47 47 47c36 0 66 -34 66 -82z" />
    <glyph glyph-name="tcommaaccent" unicode="&#x163;" horiz-adv-x="304" 
d="M363 344h-106l-90 -259c-6 -16 -4 -24 6 -24c16 0 74 44 110 84c12 -2 18 -8 16 -22c-44 -66 -142 -137 -206 -137c-20 0 -36 18 -36 34c0 14 3 28 12 55l92 269h-76c-6 9 0 26 10 32l84 16l64 97c6 4 14 5 24 5c14 0 28 -5 32 -13l-28 -93h100c12 -12 4 -38 -8 -44z
M171 -122c0 -72 -78 -124 -162 -144c-12 4 -14 21 -10 29c40 14 91 46 91 87c0 17 -10 31 -29 38c-10 3 -17 14 -17 25c0 24 25 44 52 44c39 0 75 -32 75 -79z" />
    <glyph glyph-name="tcommaaccent" unicode="&#x21b;" horiz-adv-x="304" 
d="M363 344h-106l-90 -259c-6 -16 -4 -24 6 -24c16 0 74 44 110 84c12 -2 18 -8 16 -22c-44 -66 -142 -137 -206 -137c-20 0 -36 18 -36 34c0 14 3 28 12 55l92 269h-76c-6 9 0 26 10 32l84 16l64 97c6 4 14 5 24 5c14 0 28 -5 32 -13l-28 -93h100c12 -12 4 -38 -8 -44z
M171 -122c0 -72 -78 -124 -162 -144c-12 4 -14 21 -10 29c40 14 91 46 91 87c0 17 -10 31 -29 38c-10 3 -17 14 -17 25c0 24 25 44 52 44c39 0 75 -32 75 -79z" />
    <glyph glyph-name="uhungarumlaut" unicode="&#x171;" horiz-adv-x="520" 
d="M80 83l89 227c6 16 5 26 -3 26c-20 0 -65 -39 -92 -67c-10 2 -18 8 -16 20c32 46 117 119 190 119c20 0 38 -18 38 -36c0 -4 -2 -16 -6 -27l-103 -257c-7 -18 -3 -28 7 -28c12 0 38 21 73 54c83 80 149 209 188 290c8 3 18 4 30 4c22 0 45 -10 50 -20
c-25 -65 -78 -196 -118 -305c-6 -16 -5 -27 5 -27c18 0 70 44 96 73c10 0 18 -4 18 -18c-28 -49 -124 -125 -194 -125c-22 0 -39 20 -30 44l62 161h-2c-63 -84 -180 -205 -246 -205c-28 0 -48 24 -48 48c0 14 5 31 12 49zM422 467l63 185c5 16 15 27 29 27
c11 0 22 -6 34 -13c14 -10 21 -19 21 -27c0 -12 -7 -24 -23 -46l-100 -143c-12 -1 -23 3 -24 17zM275 467l63 185c5 16 14 27 26 27c14 0 24 -6 36 -13c15 -10 22 -19 22 -27c0 -12 -8 -24 -24 -46l-100 -143c-12 -1 -22 3 -23 17z" />
    </font>
</defs>
</svg>
