<svg xmlns="http://www.w3.org/2000/svg" viewBox="0 0 51.16 48.4"><defs><style>.cls-1{fill:#ff6969;}</style></defs><title>Linkedin</title><g id="Layer_2" data-name="Layer 2"><g id="Layer_1-2" data-name="Layer 1"><path class="cls-1" d="M12.42,5.7a5.34,5.34,0,0,1-1.74,4.08,6.34,6.34,0,0,1-4.5,1.62H6.12A6.12,6.12,0,0,1,1.68,9.78,5.43,5.43,0,0,1,0,5.7,5.34,5.34,0,0,1,1.74,1.62,6.34,6.34,0,0,1,6.24,0a6.13,6.13,0,0,1,4.44,1.62A5.64,5.64,0,0,1,12.42,5.7Zm-.26,9.7v33h-11v-33Zm39,14.23V48.4h-11V30.64a9.33,9.33,0,0,0-1.42-5.52,5,5,0,0,0-4.39-2,5.56,5.56,0,0,0-3.59,1.14,7.82,7.82,0,0,0-2.23,2.88,8.07,8.07,0,0,0-.37,2.7V48.4H18.11q.05-13.31.05-21.54V17l-.05-1.61H28.16v5H28.1a11.66,11.66,0,0,1,1.4-1.84,21,21,0,0,1,1.89-1.72,7.72,7.72,0,0,1,3-1.42,17.54,17.54,0,0,1,3.9-.53,12.27,12.27,0,0,1,9.33,3.73Q51.16,22.35,51.16,29.63Z"/></g></g></svg>