<?xml version="1.0" standalone="no"?>
<!DOCTYPE svg PUBLIC "-//W3C//DTD SVG 1.1//EN" "http://www.w3.org/Graphics/SVG/1.1/DTD/svg11.dtd" >
<svg xmlns="http://www.w3.org/2000/svg" xmlns:xlink="http://www.w3.org/1999/xlink" version="1.1">
<metadata>
Created by FontForge 20161116 at Thu Oct 31 16:42:26 2013
 By Jimmy Warting
Copyright (c) 2006-2013 by Jan Fromm. All rights reserved.
</metadata>
<defs>
<font id="CamingoCode-Bold" horiz-adv-x="550" >
  <font-face 
    font-family="CamingoCode"
    font-weight="700"
    font-stretch="normal"
    units-per-em="1000"
    panose-1="2 11 8 9 4 3 2 2 2 3"
    ascent="750"
    descent="-250"
    x-height="495"
    cap-height="695"
    bbox="-9 -250 578 1050"
    underline-thickness="99"
    underline-position="-324"
    unicode-range="U+000D-F8FF"
  />
<missing-glyph 
d="M106 263q0 36 13 67.5t35.5 54t53.5 35.5t67 13t67.5 -13t54 -35.5t35.5 -54t13 -67.5t-13 -67t-35.5 -53.5t-54 -35.5t-67.5 -13t-67 13t-53.5 35.5t-35.5 53.5t-13 67zM279 336h47l5 -16q4 -13 13 -13q10 0 10 14v16v3q0 13 -3 16q-4 4 -14 4h-110q-13 0 -13 -10
t13 -14l16 -5v-131q0 -22 -15 -22q-7 0 -11 3.5t-7 8t-6.5 8t-7.5 3.5q-8 0 -12.5 -5t-4.5 -12q0 -12 11.5 -20.5t31.5 -8.5q57 0 57 62v33h33l2 -7q3 -11 11 -11q10 0 10 12v36q0 13 -10 13q-8 0 -11 -11l-2 -8h-33v62z" />
    <glyph glyph-name=".notdef" 
d="M106 263q0 36 13 67.5t35.5 54t53.5 35.5t67 13t67.5 -13t54 -35.5t35.5 -54t13 -67.5t-13 -67t-35.5 -53.5t-54 -35.5t-67.5 -13t-67 13t-53.5 35.5t-35.5 53.5t-13 67zM279 336h47l5 -16q4 -13 13 -13q10 0 10 14v16v3q0 13 -3 16q-4 4 -14 4h-110q-13 0 -13 -10
t13 -14l16 -5v-131q0 -22 -15 -22q-7 0 -11 3.5t-7 8t-6.5 8t-7.5 3.5q-8 0 -12.5 -5t-4.5 -12q0 -12 11.5 -20.5t31.5 -8.5q57 0 57 62v33h33l2 -7q3 -11 11 -11q10 0 10 12v36q0 13 -10 13q-8 0 -11 -11l-2 -8h-33v62z" />
    <glyph glyph-name=".null" 
 />
    <glyph glyph-name=".null" 
 />
    <glyph glyph-name="nonmarkingreturn" unicode="&#xd;" 
 />
    <glyph glyph-name="space" unicode=" " 
 />
    <glyph glyph-name="uni00A0" unicode="&#xa0;" 
 />
    <glyph glyph-name="a" unicode="a" 
d="M360 341q0 36 -23 54t-76 18q-36 0 -75 -5t-77 -13l-11 88q42 10 89 16t94 6q55 0 93 -9.5t61.5 -28.5t34 -49t10.5 -71v-347h-100l-7 46q-38 -23 -80.5 -39.5t-90.5 -16.5q-68 0 -111.5 36t-43.5 110q0 39 13 70t43.5 52t80.5 32t123 11h53v40zM310 223q-45 0 -75 -4.5
t-48 -14.5t-25 -24.5t-7 -34.5q0 -35 19.5 -50.5t54.5 -15.5q33 0 62.5 11.5t68.5 34.5v98h-50z" />
    <glyph glyph-name="aogonek" unicode="&#x105;" 
d="M360 341q0 36 -23 54t-76 18q-36 0 -75 -5t-77 -13l-11 88q42 10 89 16t94 6q55 0 93 -9.5t61.5 -28.5t34 -49t10.5 -71v-347q-22 -14 -40 -27.5t-31 -27t-20 -26.5t-7 -27q0 -19 9.5 -28.5t30.5 -9.5q14 0 31.5 3t34.5 8l12 -69q-24 -8 -49.5 -13t-53.5 -5
q-54 0 -83.5 22.5t-29.5 69.5q0 21 8 39t21 34t30.5 31t36.5 28l-7 44q-38 -23 -80.5 -39.5t-90.5 -16.5q-68 0 -111.5 36t-43.5 110q0 39 13 70t43.5 52t80.5 32t123 11h53v40zM310 223q-45 0 -75 -4.5t-48 -14.5t-25 -24.5t-7 -34.5q0 -35 19.5 -50.5t54.5 -15.5
q33 0 62.5 11.5t68.5 34.5v98h-50z" />
    <glyph glyph-name="ae" unicode="&#xe6;" 
d="M195 219q-21 0 -36.5 -5t-25.5 -14.5t-14.5 -24t-4.5 -32.5q0 -34 12 -49t31 -15q16 0 29.5 9t32.5 31v100h-24zM219 337q0 39 -12.5 58t-49.5 19q-25 0 -49 -4.5t-53 -14.5l-15 87q33 11 67.5 16.5t65.5 5.5q23 0 40 -3.5t29.5 -10t21 -16t15.5 -21.5q8 12 19 22t25 17
t31 11t38 4q36 0 63.5 -10.5t46 -36t27.5 -69t9 -110.5q0 -20 -0.5 -35t-1.5 -29h-212q1 -41 5.5 -67t14 -41.5t25.5 -21.5t41 -6q26 0 49.5 4.5t50.5 12.5l15 -87q-33 -10 -67.5 -15.5t-66.5 -5.5q-28 0 -49 4t-37 12t-27.5 19.5t-21.5 26.5q-31 -33 -59.5 -47.5
t-64.5 -14.5q-54 0 -87 36.5t-33 110.5q0 38 10.5 68t33 50t56 30.5t80.5 10.5h27v41zM436 294q-1 37 -3.5 61t-9.5 37.5t-16.5 19t-24.5 5.5q-14 0 -24.5 -5.5t-18 -19.5t-11 -38t-4.5 -60h112z" />
    <glyph glyph-name="agrave" unicode="&#xe0;" 
d="M360 341q0 36 -23 54t-76 18q-36 0 -75 -5t-77 -13l-11 88q42 10 89 16t94 6q55 0 93 -9.5t61.5 -28.5t34 -49t10.5 -71v-347h-100l-7 46q-38 -23 -80.5 -39.5t-90.5 -16.5q-68 0 -111.5 36t-43.5 110q0 39 13 70t43.5 52t80.5 32t123 11h53v40zM310 223q-45 0 -75 -4.5
t-48 -14.5t-25 -24.5t-7 -34.5q0 -35 19.5 -50.5t54.5 -15.5q33 0 62.5 11.5t68.5 34.5v98h-50zM211 767l141 -150l-52 -58l-159 131z" />
    <glyph glyph-name="aacute" unicode="&#xe1;" 
d="M360 341q0 36 -23 54t-76 18q-36 0 -75 -5t-77 -13l-11 88q42 10 89 16t94 6q55 0 93 -9.5t61.5 -28.5t34 -49t10.5 -71v-347h-100l-7 46q-38 -23 -80.5 -39.5t-90.5 -16.5q-68 0 -111.5 36t-43.5 110q0 39 13 70t43.5 52t80.5 32t123 11h53v40zM310 223q-45 0 -75 -4.5
t-48 -14.5t-25 -24.5t-7 -34.5q0 -35 19.5 -50.5t54.5 -15.5q33 0 62.5 11.5t68.5 34.5v98h-50zM359 767l70 -77l-159 -131l-52 58z" />
    <glyph glyph-name="acircumflex" unicode="&#xe2;" 
d="M360 341q0 36 -23 54t-76 18q-36 0 -75 -5t-77 -13l-11 88q42 10 89 16t94 6q55 0 93 -9.5t61.5 -28.5t34 -49t10.5 -71v-347h-100l-7 46q-38 -23 -80.5 -39.5t-90.5 -16.5q-68 0 -111.5 36t-43.5 110q0 39 13 70t43.5 52t80.5 32t123 11h53v40zM310 223q-45 0 -75 -4.5
t-48 -14.5t-25 -24.5t-7 -34.5q0 -35 19.5 -50.5t54.5 -15.5q33 0 62.5 11.5t68.5 34.5v98h-50zM289 756l155 -132l-49 -63l-107 85l-106 -83l-47 60z" />
    <glyph glyph-name="adieresis" unicode="&#xe4;" 
d="M360 341q0 36 -23 54t-76 18q-36 0 -75 -5t-77 -13l-11 88q42 10 89 16t94 6q55 0 93 -9.5t61.5 -28.5t34 -49t10.5 -71v-347h-100l-7 46q-38 -23 -80.5 -39.5t-90.5 -16.5q-68 0 -111.5 36t-43.5 110q0 39 13 70t43.5 52t80.5 32t123 11h53v40zM310 223q-45 0 -75 -4.5
t-48 -14.5t-25 -24.5t-7 -34.5q0 -35 19.5 -50.5t54.5 -15.5q33 0 62.5 11.5t68.5 34.5v98h-50zM249 655q0 -18 -3 -30.5t-10.5 -20t-20 -10.5t-31.5 -3q-38 0 -52 13.5t-14 50.5t14 50.5t52 13.5q19 0 31.5 -3t20 -10.5t10.5 -20t3 -30.5zM457 655q0 -37 -14 -50.5
t-52 -13.5q-19 0 -31.5 3t-20 10.5t-10.5 20t-3 30.5t3 30.5t10.5 20t20 10.5t31.5 3q38 0 52 -13.5t14 -50.5z" />
    <glyph glyph-name="atilde" unicode="&#xe3;" 
d="M360 341q0 36 -23 54t-76 18q-36 0 -75 -5t-77 -13l-11 88q42 10 89 16t94 6q55 0 93 -9.5t61.5 -28.5t34 -49t10.5 -71v-347h-100l-7 46q-38 -23 -80.5 -39.5t-90.5 -16.5q-68 0 -111.5 36t-43.5 110q0 39 13 70t43.5 52t80.5 32t123 11h53v40zM310 223q-45 0 -75 -4.5
t-48 -14.5t-25 -24.5t-7 -34.5q0 -35 19.5 -50.5t54.5 -15.5q33 0 62.5 11.5t68.5 34.5v98h-50zM119 631q8 16 19 32t25.5 28.5t32 20t38.5 7.5q19 0 35 -7.5t29.5 -16.5t25.5 -16.5t25 -7.5q17 0 28 13t20 33l58 -42q-8 -16 -19 -32t-25.5 -28t-32 -20t-38.5 -8
q-20 0 -35.5 7.5t-29 16.5t-25.5 16t-24 7q-18 0 -29 -12.5t-20 -32.5z" />
    <glyph glyph-name="abreve" unicode="&#x103;" 
d="M360 341q0 36 -23 54t-76 18q-36 0 -75 -5t-77 -13l-11 88q42 10 89 16t94 6q55 0 93 -9.5t61.5 -28.5t34 -49t10.5 -71v-347h-100l-7 46q-38 -23 -80.5 -39.5t-90.5 -16.5q-68 0 -111.5 36t-43.5 110q0 39 13 70t43.5 52t80.5 32t123 11h53v40zM310 223q-45 0 -75 -4.5
t-48 -14.5t-25 -24.5t-7 -34.5q0 -35 19.5 -50.5t54.5 -15.5q33 0 62.5 11.5t68.5 34.5v98h-50zM228 727q1 -32 16.5 -52t45.5 -20q29 0 44.5 20t15.5 52h79q0 -69 -37 -110.5t-105 -41.5q-67 0 -103 42t-36 110h80z" />
    <glyph glyph-name="amacron" unicode="&#x101;" 
d="M360 341q0 36 -23 54t-76 18q-36 0 -75 -5t-77 -13l-11 88q42 10 89 16t94 6q55 0 93 -9.5t61.5 -28.5t34 -49t10.5 -71v-347h-100l-7 46q-38 -23 -80.5 -39.5t-90.5 -16.5q-68 0 -111.5 36t-43.5 110q0 39 13 70t43.5 52t80.5 32t123 11h53v40zM310 223q-45 0 -75 -4.5
t-48 -14.5t-25 -24.5t-7 -34.5q0 -35 19.5 -50.5t54.5 -15.5q33 0 62.5 11.5t68.5 34.5v98h-50zM149 695h279v-87h-279v87z" />
    <glyph glyph-name="acaron" unicode="&#x1ce;" 
d="M360 341q0 36 -23 54t-76 18q-36 0 -75 -5t-77 -13l-11 88q42 10 89 16t94 6q55 0 93 -9.5t61.5 -28.5t34 -49t10.5 -71v-347h-100l-7 46q-38 -23 -80.5 -39.5t-90.5 -16.5q-68 0 -111.5 36t-43.5 110q0 39 13 70t43.5 52t80.5 32t123 11h53v40zM310 223q-45 0 -75 -4.5
t-48 -14.5t-25 -24.5t-7 -34.5q0 -35 19.5 -50.5t54.5 -15.5q33 0 62.5 11.5t68.5 34.5v98h-50zM180 751l107 -85l106 84l47 -60l-155 -133l-154 132z" />
    <glyph glyph-name="adotaccent" unicode="&#x227;" 
d="M360 341q0 36 -23 54t-76 18q-36 0 -75 -5t-77 -13l-11 88q42 10 89 16t94 6q55 0 93 -9.5t61.5 -28.5t34 -49t10.5 -71v-347h-100l-7 46q-38 -23 -80.5 -39.5t-90.5 -16.5q-68 0 -111.5 36t-43.5 110q0 39 13 70t43.5 52t80.5 32t123 11h53v40zM310 223q-45 0 -75 -4.5
t-48 -14.5t-25 -24.5t-7 -34.5q0 -35 19.5 -50.5t54.5 -15.5q33 0 62.5 11.5t68.5 34.5v98h-50zM354 655q0 -37 -13.5 -50.5t-52.5 -13.5t-52.5 13.5t-13.5 50.5t13.5 50.5t52.5 13.5t52.5 -13.5t13.5 -50.5z" />
    <glyph glyph-name="aring" unicode="&#xe5;" 
d="M360 341q0 36 -23 54t-76 18q-36 0 -75 -5t-77 -13l-11 88q42 10 89 16t94 6q55 0 93 -9.5t61.5 -28.5t34 -49t10.5 -71v-347h-100l-7 46q-38 -23 -80.5 -39.5t-90.5 -16.5q-68 0 -111.5 36t-43.5 110q0 39 13 70t43.5 52t80.5 32t123 11h53v40zM310 223q-45 0 -75 -4.5
t-48 -14.5t-25 -24.5t-7 -34.5q0 -35 19.5 -50.5t54.5 -15.5q33 0 62.5 11.5t68.5 34.5v98h-50zM401 664q0 -24 -8.5 -45t-23.5 -36t-35 -23.5t-45 -8.5q-50 0 -81 31.5t-31 81.5t31.5 81.5t80.5 31.5q25 0 45.5 -8t35.5 -23.5t23 -36t8 -45.5zM334 664q0 25 -12 39t-33 14
t-33 -14t-12 -39q0 -24 12 -38.5t33 -14.5t33 14.5t12 38.5z" />
    <glyph glyph-name="aeacute" unicode="&#x1fd;" 
d="M195 219q-21 0 -36.5 -5t-25.5 -14.5t-14.5 -24t-4.5 -32.5q0 -34 12 -49t31 -15q16 0 29.5 9t32.5 31v100h-24zM219 337q0 39 -12.5 58t-49.5 19q-25 0 -49 -4.5t-53 -14.5l-15 87q33 11 67.5 16.5t65.5 5.5q23 0 40 -3.5t29.5 -10t21 -16t15.5 -21.5q8 12 19 22t25 17
t31 11t38 4q36 0 63.5 -10.5t46 -36t27.5 -69t9 -110.5q0 -20 -0.5 -35t-1.5 -29h-212q1 -41 5.5 -67t14 -41.5t25.5 -21.5t41 -6q26 0 49.5 4.5t50.5 12.5l15 -87q-33 -10 -67.5 -15.5t-66.5 -5.5q-28 0 -49 4t-37 12t-27.5 19.5t-21.5 26.5q-31 -33 -59.5 -47.5
t-64.5 -14.5q-54 0 -87 36.5t-33 110.5q0 38 10.5 68t33 50t56 30.5t80.5 10.5h27v41zM436 294q-1 37 -3.5 61t-9.5 37.5t-16.5 19t-24.5 5.5q-14 0 -24.5 -5.5t-18 -19.5t-11 -38t-4.5 -60h112zM370 767l70 -77l-159 -131l-52 58z" />
    <glyph glyph-name="aemacron" unicode="&#x1e3;" 
d="M195 219q-21 0 -36.5 -5t-25.5 -14.5t-14.5 -24t-4.5 -32.5q0 -34 12 -49t31 -15q16 0 29.5 9t32.5 31v100h-24zM219 337q0 39 -12.5 58t-49.5 19q-25 0 -49 -4.5t-53 -14.5l-15 87q33 11 67.5 16.5t65.5 5.5q23 0 40 -3.5t29.5 -10t21 -16t15.5 -21.5q8 12 19 22t25 17
t31 11t38 4q36 0 63.5 -10.5t46 -36t27.5 -69t9 -110.5q0 -20 -0.5 -35t-1.5 -29h-212q1 -41 5.5 -67t14 -41.5t25.5 -21.5t41 -6q26 0 49.5 4.5t50.5 12.5l15 -87q-33 -10 -67.5 -15.5t-66.5 -5.5q-28 0 -49 4t-37 12t-27.5 19.5t-21.5 26.5q-31 -33 -59.5 -47.5
t-64.5 -14.5q-54 0 -87 36.5t-33 110.5q0 38 10.5 68t33 50t56 30.5t80.5 10.5h27v41zM436 294q-1 37 -3.5 61t-9.5 37.5t-16.5 19t-24.5 5.5q-14 0 -24.5 -5.5t-18 -19.5t-11 -38t-4.5 -60h112zM136 695h279v-87h-279v87z" />
    <glyph glyph-name="b" unicode="b" 
d="M66 738h120v-177q0 -27 -1 -52t-4 -57l1 -1q31 21 68.5 37t81.5 16q39 0 71 -12t54.5 -41t35 -77t12.5 -120t-17 -122.5t-45.5 -82t-66.5 -45.5t-82 -14q-37 0 -66.5 9.5t-57.5 24.5l-6 -24h-98v738zM186 111q23 -13 44 -20t45 -7q22 0 41.5 7t35 26t24.5 51t9 82
q0 49 -6 80t-17.5 48t-27.5 23.5t-37 6.5q-26 0 -52 -12.5t-59 -35.5v-249z" />
    <glyph glyph-name="c" unicode="c" 
d="M476 10q-35 -8 -74.5 -14t-78.5 -6q-65 0 -112.5 11.5t-78 40.5t-46 78t-15.5 124q0 76 19 126t52.5 80.5t81.5 42.5t107 12q40 0 77 -5t72 -14l-11 -88q-32 8 -62 11.5t-67 3.5q-35 0 -62.5 -6.5t-47 -25t-29.5 -50.5t-10 -83q0 -52 8.5 -83.5t26.5 -50.5t46 -26t68 -7
q30 0 62.5 4.5t64.5 12.5z" />
    <glyph glyph-name="ccedilla" unicode="&#xe7;" 
d="M476 10q-35 -8 -72.5 -13.5t-72.5 -5.5h-7l-4 -37q48 -2 72 -21.5t24 -56.5q0 -45 -34.5 -70.5t-96.5 -25.5q-43 0 -75 7l8 56q15 -2 28.5 -3.5t27.5 -1.5q28 0 40.5 9t12.5 25t-11.5 23.5t-42.5 7.5h-30l10 91q-39 5 -72.5 18t-58 41t-38 74t-13.5 117q0 76 19 126
t52.5 80.5t81.5 42.5t107 12q40 0 77 -5t72 -14l-11 -88q-32 8 -62 11.5t-67 3.5q-35 0 -62.5 -6.5t-47 -25t-29.5 -50.5t-10 -83q0 -52 8.5 -83.5t26.5 -50.5t46 -26t68 -7q30 0 62.5 4.5t64.5 12.5z" />
    <glyph glyph-name="cacute" unicode="&#x107;" 
d="M476 10q-35 -8 -74.5 -14t-78.5 -6q-65 0 -112.5 11.5t-78 40.5t-46 78t-15.5 124q0 76 19 126t52.5 80.5t81.5 42.5t107 12q40 0 77 -5t72 -14l-11 -88q-32 8 -62 11.5t-67 3.5q-35 0 -62.5 -6.5t-47 -25t-29.5 -50.5t-10 -83q0 -52 8.5 -83.5t26.5 -50.5t46 -26t68 -7
q30 0 62.5 4.5t64.5 12.5zM379 767l70 -77l-159 -131l-52 58z" />
    <glyph glyph-name="ccircumflex" unicode="&#x109;" 
d="M476 10q-35 -8 -74.5 -14t-78.5 -6q-65 0 -112.5 11.5t-78 40.5t-46 78t-15.5 124q0 76 19 126t52.5 80.5t81.5 42.5t107 12q40 0 77 -5t72 -14l-11 -88q-32 8 -62 11.5t-67 3.5q-35 0 -62.5 -6.5t-47 -25t-29.5 -50.5t-10 -83q0 -52 8.5 -83.5t26.5 -50.5t46 -26t68 -7
q30 0 62.5 4.5t64.5 12.5zM307 756l155 -132l-49 -63l-107 85l-106 -83l-47 60z" />
    <glyph glyph-name="ccaron" unicode="&#x10d;" 
d="M476 10q-35 -8 -74.5 -14t-78.5 -6q-65 0 -112.5 11.5t-78 40.5t-46 78t-15.5 124q0 76 19 126t52.5 80.5t81.5 42.5t107 12q40 0 77 -5t72 -14l-11 -88q-32 8 -62 11.5t-67 3.5q-35 0 -62.5 -6.5t-47 -25t-29.5 -50.5t-10 -83q0 -52 8.5 -83.5t26.5 -50.5t46 -26t68 -7
q30 0 62.5 4.5t64.5 12.5zM202 751l107 -85l106 84l47 -60l-155 -133l-154 132z" />
    <glyph glyph-name="cdotaccent" unicode="&#x10b;" 
d="M476 10q-35 -8 -74.5 -14t-78.5 -6q-65 0 -112.5 11.5t-78 40.5t-46 78t-15.5 124q0 76 19 126t52.5 80.5t81.5 42.5t107 12q40 0 77 -5t72 -14l-11 -88q-32 8 -62 11.5t-67 3.5q-35 0 -62.5 -6.5t-47 -25t-29.5 -50.5t-10 -83q0 -52 8.5 -83.5t26.5 -50.5t46 -26t68 -7
q30 0 62.5 4.5t64.5 12.5zM371 655q0 -37 -13.5 -50.5t-52.5 -13.5t-52.5 13.5t-13.5 50.5t13.5 50.5t52.5 13.5t52.5 -13.5t13.5 -50.5z" />
    <glyph glyph-name="d" unicode="d" 
d="M378 51q-38 -26 -76.5 -43.5t-83.5 -17.5q-39 0 -71 12t-54.5 41t-35 77t-12.5 120q0 73 17 123t45.5 81.5t66.5 45.5t82 14q32 0 59.5 -7t52.5 -21l1 1q-2 28 -3.5 53.5t-1.5 52.5v155h120v-738h-98zM364 384q-23 13 -44 20t-45 7q-22 0 -41.5 -7t-35 -26t-24.5 -51
t-9 -83q0 -49 6 -79.5t17.5 -48t27.5 -23.5t37 -6q26 0 52 12t59 35v250z" />
    <glyph glyph-name="dcroat" unicode="&#x111;" 
d="M378 51q-38 -26 -76.5 -43.5t-83.5 -17.5q-39 0 -71 12t-54.5 41t-35 77t-12.5 120q0 73 17 123t45.5 81.5t66.5 45.5t82 14q32 0 59.5 -7t52.5 -21l1 1q-2 27 -3.5 48t-1.5 43v8h-109v86h109v76h120v-76h57v-86h-57v-576h-98zM364 384q-23 13 -44 20t-45 7
q-22 0 -41.5 -7t-35 -26t-24.5 -51t-9 -83q0 -49 6 -79.5t17.5 -48t27.5 -23.5t37 -6q26 0 52 12t59 35v250z" />
    <glyph glyph-name="eth" unicode="&#xf0;" 
d="M237 655q-9 12 -23.5 29t-26.5 30l99 49q15 -16 27.5 -30.5t23.5 -27.5l92 48l48 -70l-94 -48q26 -39 47 -83t36.5 -92t24 -98.5t8.5 -100.5q0 -80 -15.5 -132.5t-45 -84.5t-71 -45t-93.5 -13q-55 0 -97 11.5t-71 41t-43.5 79t-14.5 124.5q0 68 14 115.5t39.5 77t61.5 43
t81 13.5q33 0 60 -7t45 -18l1 1q-14 33 -30 62t-35 57l-93 -49l-49 70zM384 245q0 18 -1 33.5t-3.5 30.5l-5 30t-6.5 32q-20 12 -43 20.5t-54 8.5q-23 0 -42 -7t-32.5 -24.5t-20.5 -48t-7 -77.5q0 -50 6.5 -82t19.5 -50.5t33 -26t48 -7.5t48 7.5t33.5 26.5t20 51t6.5 83z
" />
    <glyph glyph-name="dcaron" unicode="&#x10f;" 
d="M337 45q-34 -25 -68 -40t-78 -15q-37 0 -65.5 12t-48.5 41t-31 77t-11 120q0 73 15 123t40.5 81.5t59.5 45.5t72 14q30 0 54.5 -6.5t48.5 -18.5l1 1q-2 28 -2.5 52t-0.5 51v155h108v-738h-88zM323 387q-10 6 -19.5 10.5t-18.5 7.5t-19.5 4.5t-21.5 1.5q-18 0 -35.5 -7
t-30.5 -26t-21 -51t-8 -83q0 -48 5.5 -78.5t15.5 -48t24.5 -24t32.5 -6.5q25 0 47 10.5t49 28.5v261zM489 787l89 -10l-41 -202l-69 7z" />
    <glyph glyph-name="e" unicode="e" 
d="M474 13q-40 -11 -84.5 -17t-97.5 -6q-56 0 -100 10t-74 37.5t-46 77t-16 129.5q0 77 17 128t48 81.5t74.5 43t94.5 12.5q52 0 90 -10.5t63.5 -36t38 -69.5t12.5 -111q0 -17 -0.5 -33.5t-2.5 -34.5h-315q1 -43 9.5 -69t25 -40t42.5 -19t61 -5q42 0 77.5 5.5t72.5 14.5z
M387 292q0 38 -6.5 63t-19.5 38.5t-31.5 19t-42.5 5.5q-25 0 -45 -6t-34.5 -20t-22.5 -38.5t-9 -61.5h211z" />
    <glyph glyph-name="eogonek" unicode="&#x119;" 
d="M474 13q-28 -18 -49.5 -34t-35.5 -31t-21 -28.5t-7 -27.5q0 -19 9 -28.5t31 -9.5q14 0 31.5 3t34.5 8l12 -69q-25 -8 -50 -13t-53 -5q-54 0 -83.5 22.5t-29.5 69.5q0 20 7.5 38.5t19.5 33.5t27 28.5t31 24.5q-9 -2 -24 -3.5t-32 -1.5q-56 0 -100 10t-74 37.5t-46 77
t-16 129.5q0 77 17 128t48 81.5t74.5 43t94.5 12.5q52 0 90 -10.5t63.5 -36t38 -69.5t12.5 -111q0 -17 -0.5 -34t-2.5 -34h-315q1 -43 9.5 -69t25 -40t42.5 -19t61 -5q42 0 77.5 5.5t72.5 14.5zM387 292q0 38 -6.5 63t-19.5 38.5t-31.5 19t-42.5 5.5q-25 0 -45 -6t-34.5 -20
t-22.5 -38.5t-9 -61.5h211z" />
    <glyph glyph-name="egrave" unicode="&#xe8;" 
d="M474 13q-40 -11 -84.5 -17t-97.5 -6q-56 0 -100 10t-74 37.5t-46 77t-16 129.5q0 77 17 128t48 81.5t74.5 43t94.5 12.5q52 0 90 -10.5t63.5 -36t38 -69.5t12.5 -111q0 -17 -0.5 -33.5t-2.5 -34.5h-315q1 -43 9.5 -69t25 -40t42.5 -19t61 -5q42 0 77.5 5.5t72.5 14.5z
M387 292q0 38 -6.5 63t-19.5 38.5t-31.5 19t-42.5 5.5q-25 0 -45 -6t-34.5 -20t-22.5 -38.5t-9 -61.5h211zM209 767l141 -150l-52 -58l-159 131z" />
    <glyph glyph-name="eacute" unicode="&#xe9;" 
d="M474 13q-40 -11 -84.5 -17t-97.5 -6q-56 0 -100 10t-74 37.5t-46 77t-16 129.5q0 77 17 128t48 81.5t74.5 43t94.5 12.5q52 0 90 -10.5t63.5 -36t38 -69.5t12.5 -111q0 -17 -0.5 -33.5t-2.5 -34.5h-315q1 -43 9.5 -69t25 -40t42.5 -19t61 -5q42 0 77.5 5.5t72.5 14.5z
M387 292q0 38 -6.5 63t-19.5 38.5t-31.5 19t-42.5 5.5q-25 0 -45 -6t-34.5 -20t-22.5 -38.5t-9 -61.5h211zM358 767l70 -77l-159 -131l-52 58z" />
    <glyph glyph-name="ecircumflex" unicode="&#xea;" 
d="M474 13q-40 -11 -84.5 -17t-97.5 -6q-56 0 -100 10t-74 37.5t-46 77t-16 129.5q0 77 17 128t48 81.5t74.5 43t94.5 12.5q52 0 90 -10.5t63.5 -36t38 -69.5t12.5 -111q0 -17 -0.5 -33.5t-2.5 -34.5h-315q1 -43 9.5 -69t25 -40t42.5 -19t61 -5q42 0 77.5 5.5t72.5 14.5z
M387 292q0 38 -6.5 63t-19.5 38.5t-31.5 19t-42.5 5.5q-25 0 -45 -6t-34.5 -20t-22.5 -38.5t-9 -61.5h211zM286 756l155 -132l-49 -63l-107 85l-106 -83l-47 60z" />
    <glyph glyph-name="edieresis" unicode="&#xeb;" 
d="M474 13q-40 -11 -84.5 -17t-97.5 -6q-56 0 -100 10t-74 37.5t-46 77t-16 129.5q0 77 17 128t48 81.5t74.5 43t94.5 12.5q52 0 90 -10.5t63.5 -36t38 -69.5t12.5 -111q0 -17 -0.5 -33.5t-2.5 -34.5h-315q1 -43 9.5 -69t25 -40t42.5 -19t61 -5q42 0 77.5 5.5t72.5 14.5z
M387 292q0 38 -6.5 63t-19.5 38.5t-31.5 19t-42.5 5.5q-25 0 -45 -6t-34.5 -20t-22.5 -38.5t-9 -61.5h211zM245 655q0 -18 -3 -30.5t-10.5 -20t-20 -10.5t-31.5 -3q-38 0 -52 13.5t-14 50.5t14 50.5t52 13.5q19 0 31.5 -3t20 -10.5t10.5 -20t3 -30.5zM453 655
q0 -37 -14 -50.5t-52 -13.5q-19 0 -31.5 3t-20 10.5t-10.5 20t-3 30.5t3 30.5t10.5 20t20 10.5t31.5 3q38 0 52 -13.5t14 -50.5z" />
    <glyph glyph-name="ebreve" unicode="&#x115;" 
d="M474 13q-40 -11 -84.5 -17t-97.5 -6q-56 0 -100 10t-74 37.5t-46 77t-16 129.5q0 77 17 128t48 81.5t74.5 43t94.5 12.5q52 0 90 -10.5t63.5 -36t38 -69.5t12.5 -111q0 -17 -0.5 -33.5t-2.5 -34.5h-315q1 -43 9.5 -69t25 -40t42.5 -19t61 -5q42 0 77.5 5.5t72.5 14.5z
M387 292q0 38 -6.5 63t-19.5 38.5t-31.5 19t-42.5 5.5q-25 0 -45 -6t-34.5 -20t-22.5 -38.5t-9 -61.5h211zM223 727q1 -32 16.5 -52t45.5 -20q29 0 44.5 20t15.5 52h79q0 -69 -37 -110.5t-105 -41.5q-67 0 -103 42t-36 110h80z" />
    <glyph glyph-name="emacron" unicode="&#x113;" 
d="M474 13q-40 -11 -84.5 -17t-97.5 -6q-56 0 -100 10t-74 37.5t-46 77t-16 129.5q0 77 17 128t48 81.5t74.5 43t94.5 12.5q52 0 90 -10.5t63.5 -36t38 -69.5t12.5 -111q0 -17 -0.5 -33.5t-2.5 -34.5h-315q1 -43 9.5 -69t25 -40t42.5 -19t61 -5q42 0 77.5 5.5t72.5 14.5z
M387 292q0 38 -6.5 63t-19.5 38.5t-31.5 19t-42.5 5.5q-25 0 -45 -6t-34.5 -20t-22.5 -38.5t-9 -61.5h211zM142 695h279v-87h-279v87z" />
    <glyph glyph-name="ecaron" unicode="&#x11b;" 
d="M474 13q-40 -11 -84.5 -17t-97.5 -6q-56 0 -100 10t-74 37.5t-46 77t-16 129.5q0 77 17 128t48 81.5t74.5 43t94.5 12.5q52 0 90 -10.5t63.5 -36t38 -69.5t12.5 -111q0 -17 -0.5 -33.5t-2.5 -34.5h-315q1 -43 9.5 -69t25 -40t42.5 -19t61 -5q42 0 77.5 5.5t72.5 14.5z
M387 292q0 38 -6.5 63t-19.5 38.5t-31.5 19t-42.5 5.5q-25 0 -45 -6t-34.5 -20t-22.5 -38.5t-9 -61.5h211zM179 751l107 -85l106 84l47 -60l-155 -133l-154 132z" />
    <glyph glyph-name="edotaccent" unicode="&#x117;" 
d="M474 13q-40 -11 -84.5 -17t-97.5 -6q-56 0 -100 10t-74 37.5t-46 77t-16 129.5q0 77 17 128t48 81.5t74.5 43t94.5 12.5q52 0 90 -10.5t63.5 -36t38 -69.5t12.5 -111q0 -17 -0.5 -33.5t-2.5 -34.5h-315q1 -43 9.5 -69t25 -40t42.5 -19t61 -5q42 0 77.5 5.5t72.5 14.5z
M387 292q0 38 -6.5 63t-19.5 38.5t-31.5 19t-42.5 5.5q-25 0 -45 -6t-34.5 -20t-22.5 -38.5t-9 -61.5h211zM347 655q0 -37 -13.5 -50.5t-52.5 -13.5t-52.5 13.5t-13.5 50.5t13.5 50.5t52.5 13.5t52.5 -13.5t13.5 -50.5z" />
    <glyph glyph-name="f" unicode="f" 
d="M191 405h-148v90h148v61q0 50 12 87t37.5 61.5t65.5 36t97 11.5q30 0 59.5 -2.5t54.5 -7.5l-11 -88q-20 3 -43.5 5t-48.5 2q-53 0 -78 -24t-25 -76v-66h192v-90h-192v-405h-120v405z" />
    <glyph glyph-name="g" unicode="g" 
d="M528 420l-76 -8q10 -13 16.5 -30t6.5 -46q0 -93 -51.5 -134t-159.5 -41q-21 0 -34.5 2.5t-23.5 6.5q-12 -7 -17 -15t-5 -18q0 -6 1.5 -12t8.5 -10.5t19.5 -9.5t33.5 -10q37 -7 74.5 -14.5t67.5 -14.5q31 -8 53.5 -18t36.5 -24.5t20.5 -35t6.5 -48.5q0 -36 -14 -66.5
t-43 -52t-74.5 -34.5t-109.5 -13q-62 0 -105.5 9.5t-71 27.5t-39.5 45t-12 60q0 24 7.5 43t19 33.5t26.5 25.5t30 19q-26 12 -39.5 31t-13.5 48q0 26 13.5 46t37.5 35q-27 20 -42.5 51.5t-15.5 86.5q0 91 51 132.5t156 41.5q35 0 61.5 -4t45.5 -10h154v-75zM329 -15
q-25 5 -52 10.5t-60 12.5q-26 -12 -45.5 -30.5t-19.5 -49.5q0 -17 5.5 -30.5t18.5 -22.5t35.5 -14t56.5 -5q33 0 56.5 6t38 16t21 23.5t6.5 28.5q0 22 -13.5 34.5t-47.5 20.5zM360 335q0 27 -6 44.5t-17 28t-29 15.5t-42 5t-41.5 -4.5t-28.5 -15.5t-16.5 -28.5t-5.5 -43.5
t5.5 -44t16.5 -29.5t29 -16.5t42 -5t41.5 5t28.5 16t17 29t6 44z" />
    <glyph glyph-name="gacute" unicode="&#x1f5;" 
d="M528 420l-76 -8q10 -13 16.5 -30t6.5 -46q0 -93 -51.5 -134t-159.5 -41q-21 0 -34.5 2.5t-23.5 6.5q-12 -7 -17 -15t-5 -18q0 -6 1.5 -12t8.5 -10.5t19.5 -9.5t33.5 -10q37 -7 74.5 -14.5t67.5 -14.5q31 -8 53.5 -18t36.5 -24.5t20.5 -35t6.5 -48.5q0 -36 -14 -66.5
t-43 -52t-74.5 -34.5t-109.5 -13q-62 0 -105.5 9.5t-71 27.5t-39.5 45t-12 60q0 24 7.5 43t19 33.5t26.5 25.5t30 19q-26 12 -39.5 31t-13.5 48q0 26 13.5 46t37.5 35q-27 20 -42.5 51.5t-15.5 86.5q0 91 51 132.5t156 41.5q35 0 61.5 -4t45.5 -10h154v-75zM329 -15
q-25 5 -52 10.5t-60 12.5q-26 -12 -45.5 -30.5t-19.5 -49.5q0 -17 5.5 -30.5t18.5 -22.5t35.5 -14t56.5 -5q33 0 56.5 6t38 16t21 23.5t6.5 28.5q0 22 -13.5 34.5t-47.5 20.5zM360 335q0 27 -6 44.5t-17 28t-29 15.5t-42 5t-41.5 -4.5t-28.5 -15.5t-16.5 -28.5t-5.5 -43.5
t5.5 -44t16.5 -29.5t29 -16.5t42 -5t41.5 5t28.5 16t17 29t6 44zM346 767l70 -77l-159 -131l-52 58z" />
    <glyph glyph-name="gcircumflex" unicode="&#x11d;" 
d="M528 420l-76 -8q10 -13 16.5 -30t6.5 -46q0 -93 -51.5 -134t-159.5 -41q-21 0 -34.5 2.5t-23.5 6.5q-12 -7 -17 -15t-5 -18q0 -6 1.5 -12t8.5 -10.5t19.5 -9.5t33.5 -10q37 -7 74.5 -14.5t67.5 -14.5q31 -8 53.5 -18t36.5 -24.5t20.5 -35t6.5 -48.5q0 -36 -14 -66.5
t-43 -52t-74.5 -34.5t-109.5 -13q-62 0 -105.5 9.5t-71 27.5t-39.5 45t-12 60q0 24 7.5 43t19 33.5t26.5 25.5t30 19q-26 12 -39.5 31t-13.5 48q0 26 13.5 46t37.5 35q-27 20 -42.5 51.5t-15.5 86.5q0 91 51 132.5t156 41.5q35 0 61.5 -4t45.5 -10h154v-75zM329 -15
q-25 5 -52 10.5t-60 12.5q-26 -12 -45.5 -30.5t-19.5 -49.5q0 -17 5.5 -30.5t18.5 -22.5t35.5 -14t56.5 -5q33 0 56.5 6t38 16t21 23.5t6.5 28.5q0 22 -13.5 34.5t-47.5 20.5zM360 335q0 27 -6 44.5t-17 28t-29 15.5t-42 5t-41.5 -4.5t-28.5 -15.5t-16.5 -28.5t-5.5 -43.5
t5.5 -44t16.5 -29.5t29 -16.5t42 -5t41.5 5t28.5 16t17 29t6 44zM269 756l155 -132l-49 -63l-107 85l-106 -83l-47 60z" />
    <glyph glyph-name="gbreve" unicode="&#x11f;" 
d="M528 420l-76 -8q10 -13 16.5 -30t6.5 -46q0 -93 -51.5 -134t-159.5 -41q-21 0 -34.5 2.5t-23.5 6.5q-12 -7 -17 -15t-5 -18q0 -6 1.5 -12t8.5 -10.5t19.5 -9.5t33.5 -10q37 -7 74.5 -14.5t67.5 -14.5q31 -8 53.5 -18t36.5 -24.5t20.5 -35t6.5 -48.5q0 -36 -14 -66.5
t-43 -52t-74.5 -34.5t-109.5 -13q-62 0 -105.5 9.5t-71 27.5t-39.5 45t-12 60q0 24 7.5 43t19 33.5t26.5 25.5t30 19q-26 12 -39.5 31t-13.5 48q0 26 13.5 46t37.5 35q-27 20 -42.5 51.5t-15.5 86.5q0 91 51 132.5t156 41.5q35 0 61.5 -4t45.5 -10h154v-75zM329 -15
q-25 5 -52 10.5t-60 12.5q-26 -12 -45.5 -30.5t-19.5 -49.5q0 -17 5.5 -30.5t18.5 -22.5t35.5 -14t56.5 -5q33 0 56.5 6t38 16t21 23.5t6.5 28.5q0 22 -13.5 34.5t-47.5 20.5zM360 335q0 27 -6 44.5t-17 28t-29 15.5t-42 5t-41.5 -4.5t-28.5 -15.5t-16.5 -28.5t-5.5 -43.5
t5.5 -44t16.5 -29.5t29 -16.5t42 -5t41.5 5t28.5 16t17 29t6 44zM208 727q1 -32 16.5 -52t45.5 -20q29 0 44.5 20t15.5 52h79q0 -69 -37 -110.5t-105 -41.5q-67 0 -103 42t-36 110h80z" />
    <glyph glyph-name="gcaron" unicode="&#x1e7;" 
d="M528 420l-76 -8q10 -13 16.5 -30t6.5 -46q0 -93 -51.5 -134t-159.5 -41q-21 0 -34.5 2.5t-23.5 6.5q-12 -7 -17 -15t-5 -18q0 -6 1.5 -12t8.5 -10.5t19.5 -9.5t33.5 -10q37 -7 74.5 -14.5t67.5 -14.5q31 -8 53.5 -18t36.5 -24.5t20.5 -35t6.5 -48.5q0 -36 -14 -66.5
t-43 -52t-74.5 -34.5t-109.5 -13q-62 0 -105.5 9.5t-71 27.5t-39.5 45t-12 60q0 24 7.5 43t19 33.5t26.5 25.5t30 19q-26 12 -39.5 31t-13.5 48q0 26 13.5 46t37.5 35q-27 20 -42.5 51.5t-15.5 86.5q0 91 51 132.5t156 41.5q35 0 61.5 -4t45.5 -10h154v-75zM329 -15
q-25 5 -52 10.5t-60 12.5q-26 -12 -45.5 -30.5t-19.5 -49.5q0 -17 5.5 -30.5t18.5 -22.5t35.5 -14t56.5 -5q33 0 56.5 6t38 16t21 23.5t6.5 28.5q0 22 -13.5 34.5t-47.5 20.5zM360 335q0 27 -6 44.5t-17 28t-29 15.5t-42 5t-41.5 -4.5t-28.5 -15.5t-16.5 -28.5t-5.5 -43.5
t5.5 -44t16.5 -29.5t29 -16.5t42 -5t41.5 5t28.5 16t17 29t6 44zM162 751l107 -85l106 84l47 -60l-155 -133l-154 132z" />
    <glyph glyph-name="gdotaccent" unicode="&#x121;" 
d="M528 420l-76 -8q10 -13 16.5 -30t6.5 -46q0 -93 -51.5 -134t-159.5 -41q-21 0 -34.5 2.5t-23.5 6.5q-12 -7 -17 -15t-5 -18q0 -6 1.5 -12t8.5 -10.5t19.5 -9.5t33.5 -10q37 -7 74.5 -14.5t67.5 -14.5q31 -8 53.5 -18t36.5 -24.5t20.5 -35t6.5 -48.5q0 -36 -14 -66.5
t-43 -52t-74.5 -34.5t-109.5 -13q-62 0 -105.5 9.5t-71 27.5t-39.5 45t-12 60q0 24 7.5 43t19 33.5t26.5 25.5t30 19q-26 12 -39.5 31t-13.5 48q0 26 13.5 46t37.5 35q-27 20 -42.5 51.5t-15.5 86.5q0 91 51 132.5t156 41.5q35 0 61.5 -4t45.5 -10h154v-75zM329 -15
q-25 5 -52 10.5t-60 12.5q-26 -12 -45.5 -30.5t-19.5 -49.5q0 -17 5.5 -30.5t18.5 -22.5t35.5 -14t56.5 -5q33 0 56.5 6t38 16t21 23.5t6.5 28.5q0 22 -13.5 34.5t-47.5 20.5zM360 335q0 27 -6 44.5t-17 28t-29 15.5t-42 5t-41.5 -4.5t-28.5 -15.5t-16.5 -28.5t-5.5 -43.5
t5.5 -44t16.5 -29.5t29 -16.5t42 -5t41.5 5t28.5 16t17 29t6 44zM334 655q0 -37 -13.5 -50.5t-52.5 -13.5t-52.5 13.5t-13.5 50.5t13.5 50.5t52.5 13.5t52.5 -13.5t13.5 -50.5z" />
    <glyph glyph-name="gcommaaccent" unicode="&#x123;" 
d="M528 420l-76 -8q10 -13 16.5 -30t6.5 -46q0 -93 -51.5 -134t-159.5 -41q-21 0 -34.5 2.5t-23.5 6.5q-12 -7 -17 -15t-5 -18q0 -6 1.5 -12t8.5 -10.5t19.5 -9.5t33.5 -10q37 -7 74.5 -14.5t67.5 -14.5q31 -8 53.5 -18t36.5 -24.5t20.5 -35t6.5 -48.5q0 -36 -14 -66.5
t-43 -52t-74.5 -34.5t-109.5 -13q-62 0 -105.5 9.5t-71 27.5t-39.5 45t-12 60q0 24 7.5 43t19 33.5t26.5 25.5t30 19q-26 12 -39.5 31t-13.5 48q0 26 13.5 46t37.5 35q-27 20 -42.5 51.5t-15.5 86.5q0 91 51 132.5t156 41.5q35 0 61.5 -4t45.5 -10h154v-75zM329 -15
q-25 5 -52 10.5t-60 12.5q-26 -12 -45.5 -30.5t-19.5 -49.5q0 -17 5.5 -30.5t18.5 -22.5t35.5 -14t56.5 -5q33 0 56.5 6t38 16t21 23.5t6.5 28.5q0 22 -13.5 34.5t-47.5 20.5zM360 335q0 27 -6 44.5t-17 28t-29 15.5t-42 5t-41.5 -4.5t-28.5 -15.5t-16.5 -28.5t-5.5 -43.5
t5.5 -44t16.5 -29.5t29 -16.5t42 -5t41.5 5t28.5 16t17 29t6 44zM432 677q-13 -4 -28 -8.5t-29.5 -10.5t-28 -11t-25.5 -9q1 -5 1 -10v-9q0 -23 -14 -32.5t-41 -9.5q-32 0 -44 13.5t-12 46.5q0 17 5.5 28.5t19.5 19.5t38.5 14.5t64.5 12.5q22 5 44 8.5t41 5.5z" />
    <glyph glyph-name="h" unicode="h" 
d="M66 738h120v-177q0 -27 -1.5 -52.5t-3.5 -57.5l1 -1q34 23 72.5 38.5t86.5 15.5q72 0 109 -38.5t37 -124.5v-341h-120v317q0 52 -17.5 71.5t-47.5 19.5q-27 0 -56 -12.5t-60 -36.5v-359h-120v738z" />
    <glyph glyph-name="hbar" unicode="&#x127;" 
d="M66 576h-57v86h57v76h120v-76h109v-86h-109v-18q0 -25 -1.5 -50t-3.5 -57l1 -1q34 23 72.5 38.5t86.5 15.5q72 0 109 -38.5t37 -124.5v-341h-120v317q0 52 -17.5 71.5t-47.5 19.5q-27 0 -56 -12.5t-60 -36.5v-359h-120v576z" />
    <glyph glyph-name="hcircumflex" unicode="&#x125;" 
d="M66 738h120v-177q0 -27 -1.5 -52.5t-3.5 -57.5l1 -1q34 23 72.5 38.5t86.5 15.5q72 0 109 -38.5t37 -124.5v-341h-120v317q0 52 -17.5 71.5t-47.5 19.5q-27 0 -56 -12.5t-60 -36.5v-359h-120v738zM281 941l156 -87l-35 -69l-125 59l-122 -59l-34 69z" />
    <glyph glyph-name="hcaron" unicode="&#x21f;" 
d="M66 738h120v-177q0 -27 -1.5 -52.5t-3.5 -57.5l1 -1q34 23 72.5 38.5t86.5 15.5q72 0 109 -38.5t37 -124.5v-341h-120v317q0 52 -17.5 71.5t-47.5 19.5q-27 0 -56 -12.5t-60 -36.5v-359h-120v738zM151 918l125 -59l122 59l34 -69l-160 -87l-156 87z" />
    <glyph glyph-name="i" unicode="i" 
d="M58 89h186v316h-180v90h300v-406h136v-89h-442v89zM379 655q0 -20 -3.5 -33t-12 -21t-23 -11t-37.5 -3q-22 0 -37 3t-24 11t-12 21t-3 33q0 19 3 32.5t12 21t24 11.5t37 4q23 0 37.5 -4t23 -11.5t12 -21t3.5 -32.5z" />
    <glyph glyph-name="iogonek" unicode="&#x12f;" 
d="M58 89h186v316h-180v90h300v-406h136v-89h-147q-21 -14 -39 -27.5t-30.5 -27t-20 -26.5t-7.5 -27q0 -19 9.5 -28.5t31.5 -9.5q14 0 31 3t34 8l13 -69q-25 -8 -51 -13t-53 -5q-54 0 -83 22.5t-29 69.5q0 20 7 38.5t20 34t30 30t36 27.5h-194v89zM379 655q0 -20 -3.5 -33
t-12 -21t-23 -11t-37.5 -3q-22 0 -37 3t-24 11t-12 21t-3 33q0 19 3 32.5t12 21t24 11.5t37 4q23 0 37.5 -4t23 -11.5t12 -21t3.5 -32.5z" />
    <glyph glyph-name="dotlessi" unicode="&#x131;" 
d="M58 89h186v316h-180v90h300v-406h136v-89h-442v89z" />
    <glyph glyph-name="i.dotaccent" 
d="M58 89h186v316h-180v90h300v-406h136v-89h-442v89zM379 655q0 -20 -3.5 -33t-12 -21t-23 -11t-37.5 -3q-22 0 -37 3t-24 11t-12 21t-3 33q0 19 3 32.5t12 21t24 11.5t37 4q23 0 37.5 -4t23 -11.5t12 -21t3.5 -32.5z" />
    <glyph glyph-name="igrave" unicode="&#xec;" 
d="M222 767l141 -150l-52 -58l-159 131zM58 89h186v316h-180v90h300v-406h136v-89h-442v89z" />
    <glyph glyph-name="iacute" unicode="&#xed;" 
d="M356 767l70 -77l-159 -131l-52 58zM58 89h186v316h-180v90h300v-406h136v-89h-442v89z" />
    <glyph glyph-name="icircumflex" unicode="&#xee;" 
d="M58 89h186v316h-180v90h300v-406h136v-89h-442v89zM302 756l155 -132l-49 -63l-107 85l-106 -83l-47 60z" />
    <glyph glyph-name="idieresis" unicode="&#xef;" 
d="M258 655q0 -18 -3 -30.5t-10.5 -20t-20 -10.5t-31.5 -3q-38 0 -52 13.5t-14 50.5t14 50.5t52 13.5q19 0 31.5 -3t20 -10.5t10.5 -20t3 -30.5zM466 655q0 -37 -14 -50.5t-52 -13.5q-19 0 -31.5 3t-20 10.5t-10.5 20t-3 30.5t3 30.5t10.5 20t20 10.5t31.5 3q38 0 52 -13.5
t14 -50.5zM58 89h186v316h-180v90h300v-406h136v-89h-442v89z" />
    <glyph glyph-name="itilde" unicode="&#x129;" 
d="M127 631q8 16 19 32t25.5 28.5t32 20t38.5 7.5q19 0 35 -7.5t29.5 -16.5t25.5 -16.5t25 -7.5q17 0 28 13t20 33l58 -42q-8 -16 -19 -32t-25.5 -28t-32 -20t-38.5 -8q-20 0 -35.5 7.5t-29 16.5t-25.5 16t-24 7q-18 0 -29 -12.5t-20 -32.5zM58 89h186v316h-180v90h300v-406
h136v-89h-442v89z" />
    <glyph glyph-name="ibreve" unicode="&#x12d;" 
d="M235 727q1 -32 16.5 -52t45.5 -20q29 0 44.5 20t15.5 52h79q0 -69 -37 -110.5t-105 -41.5q-67 0 -103 42t-36 110h80zM58 89h186v316h-180v90h300v-406h136v-89h-442v89z" />
    <glyph glyph-name="imacron" unicode="&#x12b;" 
d="M156 695h279v-87h-279v87zM58 89h186v316h-180v90h300v-406h136v-89h-442v89z" />
    <glyph glyph-name="icaron" unicode="&#x1d0;" 
d="M195 751l107 -85l106 84l47 -60l-155 -133l-154 132zM58 89h186v316h-180v90h300v-406h136v-89h-442v89z" />
    <glyph glyph-name="ij" unicode="&#x133;" 
d="M83 495h120v-495h-120v495zM219 655q0 -20 -3.5 -33t-12 -21t-22.5 -11t-38 -3q-22 0 -37 3t-24 11t-12 21t-3 33q0 19 3 32.5t12 21t24 11.5t37 4q24 0 38 -4t22.5 -11.5t12 -21t3.5 -32.5zM467 495v-517q0 -50 -10.5 -87.5t-34.5 -62.5t-64.5 -38t-99.5 -13
q-31 0 -58 2.5t-52 7.5l9 90q21 -3 41.5 -5t48.5 -2q56 0 78 25.5t22 72.5v527h120zM484 655q0 -20 -3 -33t-12 -21t-24 -11t-37 -3q-23 0 -37.5 3t-23 11t-12 21t-3.5 33q0 19 3.5 32.5t12 21t23 11.5t37.5 4q22 0 37 -4t24 -11.5t12 -21t3 -32.5z" />
    <glyph glyph-name="j" unicode="j" 
d="M83 405v90h343v-517q0 -50 -11 -87.5t-37.5 -62.5t-72 -38t-114.5 -13q-38 0 -74 4.5t-63 9.5l9 89q22 -3 54 -6.5t63 -3.5q37 0 61.5 6.5t38.5 19t20 30.5t6 42v437h-223zM441 655q0 -20 -3.5 -33t-12 -21t-23.5 -11t-37 -3q-23 0 -37.5 3t-23 11t-12 21t-3.5 33
q0 19 3.5 32.5t12 21t23 11.5t37.5 4q22 0 37 -4t23.5 -11.5t12 -21t3.5 -32.5z" />
    <glyph glyph-name="dotlessj" unicode="&#x237;" 
d="M83 405v90h343v-517q0 -50 -11 -87.5t-37.5 -62.5t-72 -38t-114.5 -13q-38 0 -74 4.5t-63 9.5l9 89q22 -3 54 -6.5t63 -3.5q37 0 61.5 6.5t38.5 19t20 30.5t6 42v437h-223z" />
    <glyph glyph-name="jcircumflex" unicode="&#x135;" 
d="M83 405v90h343v-517q0 -50 -11 -87.5t-37.5 -62.5t-72 -38t-114.5 -13q-38 0 -74 4.5t-63 9.5l9 89q22 -3 54 -6.5t63 -3.5q37 0 61.5 6.5t38.5 19t20 30.5t6 42v437h-223zM350 756l155 -132l-49 -63l-107 85l-106 -83l-47 60z" />
    <glyph glyph-name="k" unicode="k" 
d="M71 738h119v-460l193 217h137l-206 -226l213 -269h-146l-191 249v-249h-119v738z" />
    <glyph glyph-name="kcaron" unicode="&#x1e9;" 
d="M71 738h119v-460l193 217h137l-206 -226l213 -269h-146l-191 249v-249h-119v738zM159 918l125 -59l122 59l34 -69l-160 -87l-156 87z" />
    <glyph glyph-name="kcommaaccent" unicode="&#x137;" 
d="M71 738h119v-460l193 217h137l-206 -226l213 -269h-146l-191 249v-249h-119v738zM115 -167q13 4 28 9t29.5 10.5t28 11t24.5 9.5v10v9q0 23 14 32.5t41 9.5q32 0 44 -14t12 -46q0 -17 -5.5 -28.5t-19.5 -19.5t-38.5 -14.5t-64.5 -13.5q-22 -4 -44 -7.5t-42 -5.5z" />
    <glyph glyph-name="kgreenlandic" unicode="&#x138;" 
d="M71 495h119v-227l193 227h137l-206 -236l213 -259h-146l-191 239v-239h-119v495z" />
    <glyph glyph-name="l" unicode="l" 
d="M493 89v-89h-285v649h-156v89h276v-649h165z" />
    <glyph glyph-name="lslash" unicode="&#x142;" 
d="M493 89v-89h-288v347l-100 -48l-39 80l139 66v204h-153v89h273v-238l105 51l39 -80l-144 -68v-314h168z" />
    <glyph glyph-name="lacute" unicode="&#x13a;" 
d="M493 89v-89h-285v649h-156v89h276v-649h165zM389 942l40 -91l-204 -76l-31 70z" />
    <glyph glyph-name="lcaron" unicode="&#x13e;" 
d="M438 791l100 -18l-68 -206l-76 12zM493 89v-89h-290v649h-151v89h271v-649h170z" />
    <glyph glyph-name="ldot" unicode="&#x140;" 
d="M536 311q0 -21 -3.5 -35t-12 -22.5t-22.5 -12t-36 -3.5t-37 3.5t-23 12t-12 22.5t-4 35t4 35.5t12 22.5t23 12t37 4t36 -4t23 -12t12 -22.5t3 -35.5zM435 89v-89h-268v649h-123v89h243v-649h148z" />
    <glyph glyph-name="lcommaaccent" unicode="&#x13c;" 
d="M493 89v-89h-285v649h-156v89h276v-649h165zM117 -167q13 4 28 9t29.5 10.5t28 11t24.5 9.5v10v9q0 23 14 32.5t41 9.5q32 0 44 -14t12 -46q0 -17 -5.5 -28.5t-19.5 -19.5t-38.5 -14.5t-64.5 -13.5q-22 -4 -44 -7.5t-42 -5.5z" />
    <glyph glyph-name="m" unicode="m" 
d="M30 495h88l6 -50q23 26 48 42.5t58 16.5t55 -17t32 -43q24 27 49 43.5t58 16.5q21 0 39 -7t31 -23t20.5 -40t7.5 -58v-376h-105v352q0 17 -1.5 28t-5.5 17.5t-9 9.5t-12 3q-13 0 -26 -11t-35 -37v-7.5v-10.5v-344h-104v352q0 17 -2 28t-6 17.5t-9 9.5t-12 3
q-13 0 -26 -11t-35 -37v-362h-104v495z" />
    <glyph glyph-name="n" unicode="n" 
d="M66 495h98l8 -51q40 27 81 43.5t88 16.5q72 0 109 -38.5t37 -124.5v-341h-120v317q0 52 -17.5 71.5t-47.5 19.5q-27 0 -56 -12.5t-60 -36.5v-359h-120v495z" />
    <glyph glyph-name="eng" unicode="&#x14b;" 
d="M66 495h98l8 -51q40 27 81 43.5t88 16.5q72 0 109 -38.5t37 -124.5v-372q0 -102 -46.5 -147t-133.5 -45q-18 0 -38 2t-34 6l11 89q19 -4 39 -4q44 0 63 21t19 76v350q0 52 -17.5 71.5t-47.5 19.5q-27 0 -56 -12.5t-60 -36.5v-359h-120v495z" />
    <glyph glyph-name="ngrave" unicode="&#x1f9;" 
d="M66 495h98l8 -51q40 27 81 43.5t88 16.5q72 0 109 -38.5t37 -124.5v-341h-120v317q0 52 -17.5 71.5t-47.5 19.5q-27 0 -56 -12.5t-60 -36.5v-359h-120v495zM193 767l141 -150l-52 -58l-159 131z" />
    <glyph glyph-name="nacute" unicode="&#x144;" 
d="M66 495h98l8 -51q40 27 81 43.5t88 16.5q72 0 109 -38.5t37 -124.5v-341h-120v317q0 52 -17.5 71.5t-47.5 19.5q-27 0 -56 -12.5t-60 -36.5v-359h-120v495zM358 767l70 -77l-159 -131l-52 58z" />
    <glyph glyph-name="ntilde" unicode="&#xf1;" 
d="M66 495h98l8 -51q40 27 81 43.5t88 16.5q72 0 109 -38.5t37 -124.5v-341h-120v317q0 52 -17.5 71.5t-47.5 19.5q-27 0 -56 -12.5t-60 -36.5v-359h-120v495zM108 631q8 16 19 32t25.5 28.5t32 20t38.5 7.5q19 0 35 -7.5t29.5 -16.5t25.5 -16.5t25 -7.5q17 0 28 13t20 33
l58 -42q-8 -16 -19 -32t-25.5 -28t-32 -20t-38.5 -8q-20 0 -35.5 7.5t-29 16.5t-25.5 16t-24 7q-18 0 -29 -12.5t-20 -32.5z" />
    <glyph glyph-name="ncaron" unicode="&#x148;" 
d="M66 495h98l8 -51q40 27 81 43.5t88 16.5q72 0 109 -38.5t37 -124.5v-341h-120v317q0 52 -17.5 71.5t-47.5 19.5q-27 0 -56 -12.5t-60 -36.5v-359h-120v495zM167 751l107 -85l106 84l47 -60l-155 -133l-154 132z" />
    <glyph glyph-name="napostrophe" unicode="&#x149;" 
d="M88 495h99l7 -51q34 25 76 42.5t88 17.5q68 0 104 -38.5t36 -124.5v-341h-120v317q0 52 -17.5 71.5t-46.5 19.5q-26 0 -52.5 -12t-53.5 -33v-363h-120v495zM-3 556q7 12 13.5 25t12.5 25.5t11.5 24.5t10.5 23q-10 5 -17 16t-7 36q0 31 11.5 43t45.5 12q33 0 44.5 -12
t11.5 -43q0 -18 -3 -31t-12 -27q-14 -26 -36.5 -56t-47.5 -59z" />
    <glyph glyph-name="ncommaaccent" unicode="&#x146;" 
d="M66 495h98l8 -51q40 27 81 43.5t88 16.5q72 0 109 -38.5t37 -124.5v-341h-120v317q0 52 -17.5 71.5t-47.5 19.5q-27 0 -56 -12.5t-60 -36.5v-359h-120v495zM112 -167q13 4 28 9t29.5 10.5t28 11t24.5 9.5v10v9q0 23 14 32.5t41 9.5q32 0 44 -14t12 -46q0 -17 -5.5 -28.5
t-19.5 -19.5t-38.5 -14.5t-64.5 -13.5q-22 -4 -44 -7.5t-42 -5.5z" />
    <glyph glyph-name="o" unicode="o" 
d="M503 251q0 -77 -16 -128t-46 -81.5t-72.5 -43t-95.5 -12.5q-55 0 -97 11.5t-70.5 40.5t-43.5 79t-15 127t16 128t45.5 81.5t71.5 43t96 12.5q55 0 97 -11.5t71 -40.5t44 -79t15 -127zM382 247q0 52 -6.5 85t-20 52t-34 26t-47.5 7t-46.5 -7t-33.5 -25.5t-20 -51.5t-6 -85
t6 -85.5t20 -52.5t33.5 -26t47.5 -7q27 0 47 7t33.5 25.5t20 52t6.5 85.5z" />
    <glyph glyph-name="oe" unicode="&#x153;" 
d="M219 247q0 54 -4 88t-11 52.5t-17 25t-24 6.5t-23.5 -7t-16 -25.5t-8.5 -52t-2 -86.5q0 -54 2.5 -87.5t8.5 -52.5t15 -26t24 -7q14 0 24 7t17 25.5t11 52t4 87.5zM525 11q-33 -10 -67.5 -15.5t-66.5 -5.5q-50 0 -78 14t-45 39q-18 -27 -44 -42t-68 -15q-39 0 -67 11.5
t-46 40.5t-26.5 79t-8.5 127t9 128t28 81.5t49 43t71 12.5q22 0 39.5 -4.5t31 -12t23 -18.5t17.5 -25q8 13 19 23.5t25.5 18t32.5 12t39 4.5q36 0 64 -10.5t46 -36t27 -69t9 -110.5q0 -20 -0.5 -35t-1.5 -29h-212q1 -41 5.5 -67t14 -41.5t25.5 -21.5t41 -6q26 0 49.5 4.5
t50.5 12.5zM436 294q-1 37 -3.5 61t-9.5 37.5t-16.5 19t-24.5 5.5q-14 0 -24.5 -5.5t-18 -19.5t-11 -38t-4.5 -60h112z" />
    <glyph glyph-name="oslash" unicode="&#xf8;" 
d="M121 25q-36 27 -55 79t-19 140q0 77 16 128t45.5 81.5t71.5 43t96 12.5q23 0 43 -2t33 -5l38 79l76 -34l-37 -77q37 -29 55.5 -80.5t18.5 -138.5q0 -77 -16 -128t-46 -81.5t-72.5 -43t-95.5 -12.5q-23 0 -42 1.5t-33 4.5l-41 -84l-77 34zM313 419q-8 2 -17.5 3t-22.5 1
q-28 0 -49 -7t-35.5 -26t-22 -53t-7.5 -89q0 -41 3.5 -68.5t10.5 -46.5zM236 75q8 -2 17.5 -3t22.5 -1q28 0 49 7t35.5 26.5t22.5 53.5t8 88q0 38 -3.5 65t-10.5 51z" />
    <glyph glyph-name="ograve" unicode="&#xf2;" 
d="M503 251q0 -77 -16 -128t-46 -81.5t-72.5 -43t-95.5 -12.5q-55 0 -97 11.5t-70.5 40.5t-43.5 79t-15 127t16 128t45.5 81.5t71.5 43t96 12.5q55 0 97 -11.5t71 -40.5t44 -79t15 -127zM382 247q0 52 -6.5 85t-20 52t-34 26t-47.5 7t-46.5 -7t-33.5 -25.5t-20 -51.5t-6 -85
t6 -85.5t20 -52.5t33.5 -26t47.5 -7q27 0 47 7t33.5 25.5t20 52t6.5 85.5zM204 767l141 -150l-52 -58l-159 131z" />
    <glyph glyph-name="oacute" unicode="&#xf3;" 
d="M503 251q0 -77 -16 -128t-46 -81.5t-72.5 -43t-95.5 -12.5q-55 0 -97 11.5t-70.5 40.5t-43.5 79t-15 127t16 128t45.5 81.5t71.5 43t96 12.5q55 0 97 -11.5t71 -40.5t44 -79t15 -127zM382 247q0 52 -6.5 85t-20 52t-34 26t-47.5 7t-46.5 -7t-33.5 -25.5t-20 -51.5t-6 -85
t6 -85.5t20 -52.5t33.5 -26t47.5 -7q27 0 47 7t33.5 25.5t20 52t6.5 85.5zM346 767l70 -77l-159 -131l-52 58z" />
    <glyph glyph-name="ocircumflex" unicode="&#xf4;" 
d="M503 251q0 -77 -16 -128t-46 -81.5t-72.5 -43t-95.5 -12.5q-55 0 -97 11.5t-70.5 40.5t-43.5 79t-15 127t16 128t45.5 81.5t71.5 43t96 12.5q55 0 97 -11.5t71 -40.5t44 -79t15 -127zM382 247q0 52 -6.5 85t-20 52t-34 26t-47.5 7t-46.5 -7t-33.5 -25.5t-20 -51.5t-6 -85
t6 -85.5t20 -52.5t33.5 -26t47.5 -7q27 0 47 7t33.5 25.5t20 52t6.5 85.5zM274 756l155 -132l-49 -63l-107 85l-106 -83l-47 60z" />
    <glyph glyph-name="odieresis" unicode="&#xf6;" 
d="M503 251q0 -77 -16 -128t-46 -81.5t-72.5 -43t-95.5 -12.5q-55 0 -97 11.5t-70.5 40.5t-43.5 79t-15 127t16 128t45.5 81.5t71.5 43t96 12.5q55 0 97 -11.5t71 -40.5t44 -79t15 -127zM382 247q0 52 -6.5 85t-20 52t-34 26t-47.5 7t-46.5 -7t-33.5 -25.5t-20 -51.5t-6 -85
t6 -85.5t20 -52.5t33.5 -26t47.5 -7q27 0 47 7t33.5 25.5t20 52t6.5 85.5zM236 655q0 -18 -3 -30.5t-10.5 -20t-20 -10.5t-31.5 -3q-38 0 -52 13.5t-14 50.5t14 50.5t52 13.5q19 0 31.5 -3t20 -10.5t10.5 -20t3 -30.5zM444 655q0 -37 -14 -50.5t-52 -13.5q-19 0 -31.5 3
t-20 10.5t-10.5 20t-3 30.5t3 30.5t10.5 20t20 10.5t31.5 3q38 0 52 -13.5t14 -50.5z" />
    <glyph glyph-name="otilde" unicode="&#xf5;" 
d="M503 251q0 -77 -16 -128t-46 -81.5t-72.5 -43t-95.5 -12.5q-55 0 -97 11.5t-70.5 40.5t-43.5 79t-15 127t16 128t45.5 81.5t71.5 43t96 12.5q55 0 97 -11.5t71 -40.5t44 -79t15 -127zM382 247q0 52 -6.5 85t-20 52t-34 26t-47.5 7t-46.5 -7t-33.5 -25.5t-20 -51.5t-6 -85
t6 -85.5t20 -52.5t33.5 -26t47.5 -7q27 0 47 7t33.5 25.5t20 52t6.5 85.5zM106 631q8 16 19 32t25.5 28.5t32 20t38.5 7.5q19 0 35 -7.5t29.5 -16.5t25.5 -16.5t25 -7.5q17 0 28 13t20 33l58 -42q-8 -16 -19 -32t-25.5 -28t-32 -20t-38.5 -8q-20 0 -35.5 7.5t-29 16.5
t-25.5 16t-24 7q-18 0 -29 -12.5t-20 -32.5z" />
    <glyph glyph-name="obreve" unicode="&#x14f;" 
d="M503 251q0 -77 -16 -128t-46 -81.5t-72.5 -43t-95.5 -12.5q-55 0 -97 11.5t-70.5 40.5t-43.5 79t-15 127t16 128t45.5 81.5t71.5 43t96 12.5q55 0 97 -11.5t71 -40.5t44 -79t15 -127zM382 247q0 52 -6.5 85t-20 52t-34 26t-47.5 7t-46.5 -7t-33.5 -25.5t-20 -51.5t-6 -85
t6 -85.5t20 -52.5t33.5 -26t47.5 -7q27 0 47 7t33.5 25.5t20 52t6.5 85.5zM214 727q1 -32 16.5 -52t45.5 -20q29 0 44.5 20t15.5 52h79q0 -69 -37 -110.5t-105 -41.5q-67 0 -103 42t-36 110h80z" />
    <glyph glyph-name="omacron" unicode="&#x14d;" 
d="M503 251q0 -77 -16 -128t-46 -81.5t-72.5 -43t-95.5 -12.5q-55 0 -97 11.5t-70.5 40.5t-43.5 79t-15 127t16 128t45.5 81.5t71.5 43t96 12.5q55 0 97 -11.5t71 -40.5t44 -79t15 -127zM382 247q0 52 -6.5 85t-20 52t-34 26t-47.5 7t-46.5 -7t-33.5 -25.5t-20 -51.5t-6 -85
t6 -85.5t20 -52.5t33.5 -26t47.5 -7q27 0 47 7t33.5 25.5t20 52t6.5 85.5zM135 695h279v-87h-279v87z" />
    <glyph glyph-name="ocaron" unicode="&#x1d2;" 
d="M503 251q0 -77 -16 -128t-46 -81.5t-72.5 -43t-95.5 -12.5q-55 0 -97 11.5t-70.5 40.5t-43.5 79t-15 127t16 128t45.5 81.5t71.5 43t96 12.5q55 0 97 -11.5t71 -40.5t44 -79t15 -127zM382 247q0 52 -6.5 85t-20 52t-34 26t-47.5 7t-46.5 -7t-33.5 -25.5t-20 -51.5t-6 -85
t6 -85.5t20 -52.5t33.5 -26t47.5 -7q27 0 47 7t33.5 25.5t20 52t6.5 85.5zM169 751l107 -85l106 84l47 -60l-155 -133l-154 132z" />
    <glyph glyph-name="odotaccent" unicode="&#x22f;" 
d="M503 251q0 -77 -16 -128t-46 -81.5t-72.5 -43t-95.5 -12.5q-55 0 -97 11.5t-70.5 40.5t-43.5 79t-15 127t16 128t45.5 81.5t71.5 43t96 12.5q55 0 97 -11.5t71 -40.5t44 -79t15 -127zM382 247q0 52 -6.5 85t-20 52t-34 26t-47.5 7t-46.5 -7t-33.5 -25.5t-20 -51.5t-6 -85
t6 -85.5t20 -52.5t33.5 -26t47.5 -7q27 0 47 7t33.5 25.5t20 52t6.5 85.5zM338 655q0 -37 -13.5 -50.5t-52.5 -13.5t-52.5 13.5t-13.5 50.5t13.5 50.5t52.5 13.5t52.5 -13.5t13.5 -50.5z" />
    <glyph glyph-name="ohungarumlaut" unicode="&#x151;" 
d="M503 251q0 -77 -16 -128t-46 -81.5t-72.5 -43t-95.5 -12.5q-55 0 -97 11.5t-70.5 40.5t-43.5 79t-15 127t16 128t45.5 81.5t71.5 43t96 12.5q55 0 97 -11.5t71 -40.5t44 -79t15 -127zM382 247q0 52 -6.5 85t-20 52t-34 26t-47.5 7t-46.5 -7t-33.5 -25.5t-20 -51.5t-6 -85
t6 -85.5t20 -52.5t33.5 -26t47.5 -7q27 0 47 7t33.5 25.5t20 52t6.5 85.5zM246 769l77 -53l-134 -161l-58 40zM436 760l72 -60l-150 -145l-54 45z" />
    <glyph glyph-name="oslashacute" unicode="&#x1ff;" 
d="M332 767l70 -77l-159 -131l-52 58zM121 25q-36 27 -55 79t-19 140q0 77 16 128t45.5 81.5t71.5 43t96 12.5q23 0 43 -2t33 -5l38 79l76 -34l-37 -77q37 -29 55.5 -80.5t18.5 -138.5q0 -77 -16 -128t-46 -81.5t-72.5 -43t-95.5 -12.5q-23 0 -42 1.5t-33 4.5l-41 -84
l-77 34zM313 419q-8 2 -17.5 3t-22.5 1q-28 0 -49 -7t-35.5 -26t-22 -53t-7.5 -89q0 -41 3.5 -68.5t10.5 -46.5zM236 75q8 -2 17.5 -3t22.5 -1q28 0 49 7t35.5 26.5t22.5 53.5t8 88q0 38 -3.5 65t-10.5 51z" />
    <glyph glyph-name="p" unicode="p" 
d="M66 495h98l8 -51q38 26 76.5 43t83.5 17q39 0 71 -12t54.5 -41t35 -77t12.5 -120t-17 -122.5t-45.5 -82t-66.5 -45.5t-82 -14q-32 0 -59.5 7.5t-52.5 21.5l-1 -1q2 -29 3.5 -54t1.5 -52v-124h-120v707zM186 111q23 -13 44 -20t45 -7q22 0 41.5 7t35 26t24.5 51t9 82
q0 49 -6 80t-17.5 48t-28 23.5t-37.5 6.5q-25 0 -51 -12.5t-59 -35.5v-249z" />
    <glyph glyph-name="thorn" unicode="&#xfe;" 
d="M66 738h120v-177q0 -27 -1 -52t-4 -57l1 -1q31 21 68.5 37t81.5 16q39 0 71 -12t54.5 -41t35 -77t12.5 -120t-17 -122.5t-45.5 -82t-66.5 -45.5t-82 -14q-32 0 -59.5 7.5t-52.5 21.5l-1 -1q2 -29 3.5 -54t1.5 -52v-124h-120v950zM186 111q23 -13 44 -20t45 -7
q22 0 41.5 7t35 26t24.5 51t9 82q0 49 -6 80t-17.5 48t-27.5 23.5t-37 6.5q-26 0 -52 -12.5t-59 -35.5v-249z" />
    <glyph glyph-name="q" unicode="q" 
d="M484 -212h-120v146q0 26 1 51t4 57l-1 1q-31 -20 -68.5 -36.5t-81.5 -16.5q-39 0 -71 12t-54.5 41t-35 77t-12.5 120q0 73 17 123t45.5 81.5t66.5 45.5t82 14q37 0 66.5 -9t57.5 -25l6 25h98v-707zM364 384q-23 13 -44 20t-45 7q-22 0 -41.5 -7t-35 -26t-24.5 -51t-9 -83
q0 -49 6 -79.5t17.5 -48t27.5 -23.5t37 -6q26 0 52 12t59 35v250z" />
    <glyph glyph-name="r" unicode="r" 
d="M284 432q42 37 80 57t78 20q25 0 45 -4.5t39 -14.5l-19 -108q-17 10 -37 16t-44 6q-16 0 -30.5 -4t-30 -11.5t-32 -19t-37.5 -25.5v-255h148v-89h-392v89h124v316h-118v90h218z" />
    <glyph glyph-name="racute" unicode="&#x155;" 
d="M284 432q42 37 80 57t78 20q25 0 45 -4.5t39 -14.5l-19 -108q-17 10 -37 16t-44 6q-16 0 -30.5 -4t-30 -11.5t-32 -19t-37.5 -25.5v-255h148v-89h-392v89h124v316h-118v90h218zM353 767l70 -77l-159 -131l-52 58z" />
    <glyph glyph-name="rcaron" unicode="&#x159;" 
d="M284 432q42 37 80 57t78 20q25 0 45 -4.5t39 -14.5l-19 -108q-17 10 -37 16t-44 6q-16 0 -30.5 -4t-30 -11.5t-32 -19t-37.5 -25.5v-255h148v-89h-392v89h124v316h-118v90h218zM165 751l107 -85l106 84l47 -60l-155 -133l-154 132z" />
    <glyph glyph-name="rcommaaccent" unicode="&#x157;" 
d="M284 432q42 37 80 57t78 20q25 0 45 -4.5t39 -14.5l-19 -108q-17 10 -37 16t-44 6q-16 0 -30.5 -4t-30 -11.5t-32 -19t-37.5 -25.5v-255h148v-89h-392v89h124v316h-118v90h218zM69 -167q13 4 28 9t29.5 10.5t28 11t24.5 9.5v10v9q0 23 14 32.5t41 9.5q32 0 44 -14t12 -46
q0 -17 -5.5 -28.5t-19.5 -19.5t-38.5 -14.5t-64.5 -13.5q-22 -4 -44 -7.5t-42 -5.5z" />
    <glyph glyph-name="s" unicode="s" 
d="M90 97q41 -9 84 -14.5t81 -5.5q34 0 56.5 4t36.5 11.5t19 18t5 23.5q0 14 -5 23.5t-20 17t-40.5 15.5t-66.5 19q-43 12 -73 23.5t-49.5 28t-28.5 39.5t-9 57q0 72 55.5 110t168.5 38q18 0 38 -1.5t39 -3.5t37 -5.5t33 -7.5l-12 -86q-32 8 -68.5 12.5t-71.5 4.5
q-61 0 -84 -13.5t-23 -39.5q0 -13 5.5 -21t19.5 -15.5t38 -14.5t63 -18q44 -12 76.5 -24t52.5 -28.5t29.5 -41t9.5 -60.5q0 -73 -56 -112.5t-181 -39.5q-46 0 -88 5t-82 15z" />
    <glyph glyph-name="scedilla" unicode="&#x15f;" 
d="M90 97q41 -9 84 -14.5t81 -5.5q34 0 56.5 4t36.5 11.5t19 18t5 23.5q0 14 -5 23.5t-20 17t-40.5 15.5t-66.5 19q-43 12 -73 23.5t-49.5 28t-28.5 39.5t-9 57q0 72 55.5 110t168.5 38q18 0 38 -1.5t39 -3.5t37 -5.5t33 -7.5l-12 -86q-32 8 -68.5 12.5t-71.5 4.5
q-61 0 -84 -13.5t-23 -39.5q0 -13 5.5 -21t19.5 -15.5t38 -14.5t63 -18q44 -12 76.5 -24t52.5 -28.5t29.5 -41t9.5 -60.5q0 -73 -50.5 -109t-147.5 -41l-4 -38q48 -2 71.5 -21.5t23.5 -56.5q0 -45 -33.5 -70.5t-96.5 -25.5q-42 0 -75 7l8 56q15 -2 28.5 -3.5t27.5 -1.5
q28 0 40.5 9t12.5 25t-11.5 23.5t-42.5 7.5h-31l10 88q-31 1 -67 5.5t-70 13.5z" />
    <glyph glyph-name="germandbls" unicode="&#xdf;" 
d="M64 559q0 103 53.5 148t162.5 45q96 0 142 -35.5t46 -102.5q0 -19 -4.5 -35.5t-12 -32t-18.5 -31t-23 -31.5q-10 -13 -19 -24.5t-16 -23t-10.5 -22t-3.5 -23.5q0 -12 3 -21.5t11 -19t22.5 -21t36.5 -27.5q26 -20 45 -36.5t30.5 -34t16.5 -38t5 -48.5q0 -73 -46.5 -113.5
t-137.5 -40.5q-30 0 -57.5 3.5t-53.5 10.5l13 86q23 -6 43.5 -9.5t42.5 -3.5q42 0 61.5 16.5t19.5 43.5q0 14 -3.5 24t-12.5 20t-24.5 21.5t-40.5 28.5t-41.5 32t-27.5 30t-15.5 32.5t-4.5 39.5q0 40 16.5 71t41.5 66q11 15 20 27.5t15 24t9 22.5t3 23q0 29 -20 45t-58 16
q-45 0 -67 -20t-22 -73v-568h-120v559z" />
    <glyph glyph-name="sacute" unicode="&#x15b;" 
d="M90 97q41 -9 84 -14.5t81 -5.5q34 0 56.5 4t36.5 11.5t19 18t5 23.5q0 14 -5 23.5t-20 17t-40.5 15.5t-66.5 19q-43 12 -73 23.5t-49.5 28t-28.5 39.5t-9 57q0 72 55.5 110t168.5 38q18 0 38 -1.5t39 -3.5t37 -5.5t33 -7.5l-12 -86q-32 8 -68.5 12.5t-71.5 4.5
q-61 0 -84 -13.5t-23 -39.5q0 -13 5.5 -21t19.5 -15.5t38 -14.5t63 -18q44 -12 76.5 -24t52.5 -28.5t29.5 -41t9.5 -60.5q0 -73 -56 -112.5t-181 -39.5q-46 0 -88 5t-82 15zM348 767l70 -77l-159 -131l-52 58z" />
    <glyph glyph-name="scircumflex" unicode="&#x15d;" 
d="M90 97q41 -9 84 -14.5t81 -5.5q34 0 56.5 4t36.5 11.5t19 18t5 23.5q0 14 -5 23.5t-20 17t-40.5 15.5t-66.5 19q-43 12 -73 23.5t-49.5 28t-28.5 39.5t-9 57q0 72 55.5 110t168.5 38q18 0 38 -1.5t39 -3.5t37 -5.5t33 -7.5l-12 -86q-32 8 -68.5 12.5t-71.5 4.5
q-61 0 -84 -13.5t-23 -39.5q0 -13 5.5 -21t19.5 -15.5t38 -14.5t63 -18q44 -12 76.5 -24t52.5 -28.5t29.5 -41t9.5 -60.5q0 -73 -56 -112.5t-181 -39.5q-46 0 -88 5t-82 15zM288 756l155 -132l-49 -63l-107 85l-106 -83l-47 60z" />
    <glyph glyph-name="scaron" unicode="&#x161;" 
d="M90 97q41 -9 84 -14.5t81 -5.5q34 0 56.5 4t36.5 11.5t19 18t5 23.5q0 14 -5 23.5t-20 17t-40.5 15.5t-66.5 19q-43 12 -73 23.5t-49.5 28t-28.5 39.5t-9 57q0 72 55.5 110t168.5 38q18 0 38 -1.5t39 -3.5t37 -5.5t33 -7.5l-12 -86q-32 8 -68.5 12.5t-71.5 4.5
q-61 0 -84 -13.5t-23 -39.5q0 -13 5.5 -21t19.5 -15.5t38 -14.5t63 -18q44 -12 76.5 -24t52.5 -28.5t29.5 -41t9.5 -60.5q0 -73 -56 -112.5t-181 -39.5q-46 0 -88 5t-82 15zM183 751l107 -85l106 84l47 -60l-155 -133l-154 132z" />
    <glyph glyph-name="scommaaccent" unicode="&#x219;" 
d="M90 97q41 -9 84 -14.5t81 -5.5q34 0 56.5 4t36.5 11.5t19 18t5 23.5q0 14 -5 23.5t-20 17t-40.5 15.5t-66.5 19q-43 12 -73 23.5t-49.5 28t-28.5 39.5t-9 57q0 72 55.5 110t168.5 38q18 0 38 -1.5t39 -3.5t37 -5.5t33 -7.5l-12 -86q-32 8 -68.5 12.5t-71.5 4.5
q-61 0 -84 -13.5t-23 -39.5q0 -13 5.5 -21t19.5 -15.5t38 -14.5t63 -18q44 -12 76.5 -24t52.5 -28.5t29.5 -41t9.5 -60.5q0 -73 -56 -112.5t-181 -39.5q-46 0 -88 5t-82 15zM111 -167q13 4 28 9t29.5 10.5t28 11t24.5 9.5v10v9q0 23 14 32.5t41 9.5q32 0 44 -14t12 -46
q0 -17 -5.5 -28.5t-19.5 -19.5t-38.5 -14.5t-64.5 -13.5q-22 -4 -44 -7.5t-42 -5.5z" />
    <glyph glyph-name="t" unicode="t" 
d="M167 495v156l120 16v-172h210v-90h-210v-225q0 -27 5 -46t16.5 -30t31.5 -16.5t49 -5.5q35 0 62.5 6t43.5 11l10 -86q-24 -7 -60.5 -14.5t-85.5 -7.5q-51 0 -87.5 9t-59.5 28.5t-34 49.5t-11 72v255h-128v90h128z" />
    <glyph glyph-name="tbar" unicode="&#x167;" 
d="M170 495v156l120 16v-172h209v-90h-209v-78h197v-87h-197v-73q0 -23 5 -38.5t17 -26t31 -15.5t48 -5q36 0 63 6t44 11l10 -86q-24 -7 -60.5 -14.5t-84.5 -7.5q-53 0 -89.5 9t-59.5 28.5t-33.5 49.5t-10.5 72v90h-116v87h116v78h-128v90h128z" />
    <glyph glyph-name="tcaron" unicode="&#x165;" 
d="M157 495v156l120 16v-172h209v-90h-209v-225q0 -27 5 -46t16.5 -30t31 -16.5t48.5 -5.5q36 0 62.5 6t44.5 11l9 -86q-24 -7 -60.5 -14.5t-84.5 -7.5q-52 0 -88.5 9t-59.5 28.5t-33.5 49.5t-10.5 72v255h-118v90h118zM423 804l99 -22l-78 -207l-74 16z" />
    <glyph glyph-name="tcommaaccent" unicode="&#x21b;" 
d="M167 495v156l120 16v-172h210v-90h-210v-225q0 -27 5 -46t16.5 -30t31.5 -16.5t49 -5.5q35 0 62.5 6t43.5 11l10 -86q-24 -7 -60.5 -14.5t-85.5 -7.5q-51 0 -87.5 9t-59.5 28.5t-34 49.5t-11 72v255h-128v90h128zM143 -167q13 4 28 9t29.5 10.5t28 11t24.5 9.5v10v9
q0 23 14 32.5t41 9.5q32 0 44 -14t12 -46q0 -17 -5.5 -28.5t-19.5 -19.5t-38.5 -14.5t-64.5 -13.5q-22 -4 -44 -7.5t-42 -5.5z" />
    <glyph glyph-name="uni0163" unicode="&#x163;" 
d="M167 495v156l120 16v-172h210v-90h-210v-225q0 -27 5 -46t16.5 -30t31.5 -16.5t49 -5.5q35 0 62.5 6t43.5 11l10 -86q-21 -7 -58 -14.5t-83 -7.5h-7l-4 -37q47 -2 71 -21.5t24 -56.5q0 -45 -34 -70.5t-96 -25.5q-42 0 -75 7l8 56q15 -2 28.5 -3.5t26.5 -1.5q29 0 42 9
t13 25t-12 23.5t-43 7.5h-30l10 94q-29 6 -51 16.5t-37 29t-23 45t-8 62.5v255h-128v90h128z" />
    <glyph glyph-name="u" unicode="u" 
d="M183 495v-317q0 -52 17.5 -71.5t47.5 -19.5q27 0 56 12.5t60 36.5v359h120v-495h-98l-8 51q-20 -14 -40 -25t-41 -19t-42.5 -12.5t-45.5 -4.5q-72 0 -109 38.5t-37 124.5v342h120z" />
    <glyph glyph-name="uogonek" unicode="&#x173;" 
d="M183 495v-317q0 -52 17.5 -71.5t47.5 -19.5q27 0 56 12.5t60 36.5v359h120v-495q-21 -14 -39.5 -27.5t-31.5 -27t-20 -26.5t-7 -27q0 -19 9.5 -28.5t31.5 -9.5q14 0 31 3t35 8l13 -69q-25 -8 -51 -13t-54 -5q-53 0 -82.5 22.5t-29.5 68.5q0 21 7.5 39.5t21 34.5t31 31
t37.5 28l-8 49q-20 -14 -40 -25t-41 -19t-42.5 -12.5t-45.5 -4.5q-72 0 -109 38.5t-37 124.5v342h120z" />
    <glyph glyph-name="ugrave" unicode="&#xf9;" 
d="M183 495v-317q0 -52 17.5 -71.5t47.5 -19.5q27 0 56 12.5t60 36.5v359h120v-495h-98l-8 51q-20 -14 -40 -25t-41 -19t-42.5 -12.5t-45.5 -4.5q-72 0 -109 38.5t-37 124.5v342h120zM195 767l141 -150l-52 -58l-159 131z" />
    <glyph glyph-name="uacute" unicode="&#xfa;" 
d="M183 495v-317q0 -52 17.5 -71.5t47.5 -19.5q27 0 56 12.5t60 36.5v359h120v-495h-98l-8 51q-20 -14 -40 -25t-41 -19t-42.5 -12.5t-45.5 -4.5q-72 0 -109 38.5t-37 124.5v342h120zM354 767l70 -77l-159 -131l-52 58z" />
    <glyph glyph-name="ucircumflex" unicode="&#xfb;" 
d="M183 495v-317q0 -52 17.5 -71.5t47.5 -19.5q27 0 56 12.5t60 36.5v359h120v-495h-98l-8 51q-20 -14 -40 -25t-41 -19t-42.5 -12.5t-45.5 -4.5q-72 0 -109 38.5t-37 124.5v342h120zM275 756l155 -132l-49 -63l-107 85l-106 -83l-47 60z" />
    <glyph glyph-name="udieresis" unicode="&#xfc;" 
d="M183 495v-317q0 -52 17.5 -71.5t47.5 -19.5q27 0 56 12.5t60 36.5v359h120v-495h-98l-8 51q-20 -14 -40 -25t-41 -19t-42.5 -12.5t-45.5 -4.5q-72 0 -109 38.5t-37 124.5v342h120zM237 655q0 -18 -3 -30.5t-10.5 -20t-20 -10.5t-31.5 -3q-38 0 -52 13.5t-14 50.5t14 50.5
t52 13.5q19 0 31.5 -3t20 -10.5t10.5 -20t3 -30.5zM445 655q0 -37 -14 -50.5t-52 -13.5q-19 0 -31.5 3t-20 10.5t-10.5 20t-3 30.5t3 30.5t10.5 20t20 10.5t31.5 3q38 0 52 -13.5t14 -50.5z" />
    <glyph glyph-name="utilde" unicode="&#x169;" 
d="M183 495v-317q0 -52 17.5 -71.5t47.5 -19.5q27 0 56 12.5t60 36.5v359h120v-495h-98l-8 51q-20 -14 -40 -25t-41 -19t-42.5 -12.5t-45.5 -4.5q-72 0 -109 38.5t-37 124.5v342h120zM105 631q8 16 19 32t25.5 28.5t32 20t38.5 7.5q19 0 35 -7.5t29.5 -16.5t25.5 -16.5
t25 -7.5q17 0 28 13t20 33l58 -42q-8 -16 -19 -32t-25.5 -28t-32 -20t-38.5 -8q-20 0 -35.5 7.5t-29 16.5t-25.5 16t-24 7q-18 0 -29 -12.5t-20 -32.5z" />
    <glyph glyph-name="ubreve" unicode="&#x16d;" 
d="M183 495v-317q0 -52 17.5 -71.5t47.5 -19.5q27 0 56 12.5t60 36.5v359h120v-495h-98l-8 51q-20 -14 -40 -25t-41 -19t-42.5 -12.5t-45.5 -4.5q-72 0 -109 38.5t-37 124.5v342h120zM215 727q1 -32 16.5 -52t45.5 -20q29 0 44.5 20t15.5 52h79q0 -69 -37 -110.5t-105 -41.5
q-67 0 -103 42t-36 110h80z" />
    <glyph glyph-name="umacron" unicode="&#x16b;" 
d="M183 495v-317q0 -52 17.5 -71.5t47.5 -19.5q27 0 56 12.5t60 36.5v359h120v-495h-98l-8 51q-20 -14 -40 -25t-41 -19t-42.5 -12.5t-45.5 -4.5q-72 0 -109 38.5t-37 124.5v342h120zM136 695h279v-87h-279v87z" />
    <glyph glyph-name="ucaron" unicode="&#x1d4;" 
d="M183 495v-317q0 -52 17.5 -71.5t47.5 -19.5q27 0 56 12.5t60 36.5v359h120v-495h-98l-8 51q-20 -14 -40 -25t-41 -19t-42.5 -12.5t-45.5 -4.5q-72 0 -109 38.5t-37 124.5v342h120zM170 751l107 -85l106 84l47 -60l-155 -133l-154 132z" />
    <glyph glyph-name="uring" unicode="&#x16f;" 
d="M183 495v-317q0 -52 17.5 -71.5t47.5 -19.5q27 0 56 12.5t60 36.5v359h120v-495h-98l-8 51q-20 -14 -40 -25t-41 -19t-42.5 -12.5t-45.5 -4.5q-72 0 -109 38.5t-37 124.5v342h120zM389 664q0 -24 -8.5 -45t-23.5 -36t-35 -23.5t-45 -8.5q-50 0 -81 31.5t-31 81.5
t31.5 81.5t80.5 31.5q25 0 45.5 -8t35.5 -23.5t23 -36t8 -45.5zM322 664q0 25 -12 39t-33 14t-33 -14t-12 -39q0 -24 12 -38.5t33 -14.5t33 14.5t12 38.5z" />
    <glyph glyph-name="uhungarumlaut" unicode="&#x171;" 
d="M183 495v-317q0 -52 17.5 -71.5t47.5 -19.5q27 0 56 12.5t60 36.5v359h120v-495h-98l-8 51q-20 -14 -40 -25t-41 -19t-42.5 -12.5t-45.5 -4.5q-72 0 -109 38.5t-37 124.5v342h120zM262 769l77 -53l-134 -161l-58 40zM452 760l72 -60l-150 -145l-54 45z" />
    <glyph glyph-name="v" unicode="v" 
d="M21 495h123l84 -250q7 -23 13.5 -43t12 -39.5t11 -39.5t11.5 -44h2q7 24 12 44.5t11 40t12 39.5t14 42l86 250h116l-171 -495h-167z" />
    <glyph glyph-name="w" unicode="w" 
d="M4 495h112l35 -287q4 -30 6 -59.5t3 -62.5h5q3 25 5 41.5t5 33.5l37 219h129l37 -219q3 -18 5 -34t5 -41h5q1 32 3.5 62t5.5 60l36 287h108l-72 -495h-152l-37 218q-2 18 -4.5 33.5t-4.5 35.5h-3q-2 -19 -4 -34.5t-4 -34.5l-37 -218h-152z" />
    <glyph glyph-name="wcircumflex" unicode="&#x175;" 
d="M4 495h112l35 -287q4 -30 6 -59.5t3 -62.5h5q3 25 5 41.5t5 33.5l37 219h129l37 -219q3 -18 5 -34t5 -41h5q1 32 3.5 62t5.5 60l36 287h108l-72 -495h-152l-37 218q-2 18 -4.5 33.5t-4.5 35.5h-3q-2 -19 -4 -34.5t-4 -34.5l-37 -218h-152zM274 756l155 -132l-49 -63
l-107 85l-106 -83l-47 60z" />
    <glyph glyph-name="x" unicode="x" 
d="M191 254l-162 241h136l119 -181l2 -1q8 15 15.5 28t16.5 27l79 127h127l-166 -245l172 -250h-142l-125 193h-1q-7 -15 -15.5 -29t-18.5 -29l-81 -135h-127z" />
    <glyph glyph-name="y" unicode="y" 
d="M21 495h128l79 -231q8 -23 14 -42.5t11.5 -39t10.5 -40t11 -44.5h2q6 24 11.5 45t11 40.5t11.5 39t14 41.5l79 231h125l-203 -546q-18 -51 -37.5 -83.5t-44 -52.5t-55.5 -28t-73 -8q-24 0 -46 2.5t-39 7.5l12 88q15 -3 33 -4t32 -1q18 0 32.5 2.5t27.5 11.5t23.5 25
t21.5 41l21 50h-40z" />
    <glyph glyph-name="yacute" unicode="&#xfd;" 
d="M21 495h128l79 -231q8 -23 14 -42.5t11.5 -39t10.5 -40t11 -44.5h2q6 24 11.5 45t11 40.5t11.5 39t14 41.5l79 231h125l-203 -546q-18 -51 -37.5 -83.5t-44 -52.5t-55.5 -28t-73 -8q-24 0 -46 2.5t-39 7.5l12 88q15 -3 33 -4t32 -1q18 0 32.5 2.5t27.5 11.5t23.5 25
t21.5 41l21 50h-40zM357 767l70 -77l-159 -131l-52 58z" />
    <glyph glyph-name="ycircumflex" unicode="&#x177;" 
d="M21 495h128l79 -231q8 -23 14 -42.5t11.5 -39t10.5 -40t11 -44.5h2q6 24 11.5 45t11 40.5t11.5 39t14 41.5l79 231h125l-203 -546q-18 -51 -37.5 -83.5t-44 -52.5t-55.5 -28t-73 -8q-24 0 -46 2.5t-39 7.5l12 88q15 -3 33 -4t32 -1q18 0 32.5 2.5t27.5 11.5t23.5 25
t21.5 41l21 50h-40zM275 756l155 -132l-49 -63l-107 85l-106 -83l-47 60z" />
    <glyph glyph-name="ydieresis" unicode="&#xff;" 
d="M21 495h128l79 -231q8 -23 14 -42.5t11.5 -39t10.5 -40t11 -44.5h2q6 24 11.5 45t11 40.5t11.5 39t14 41.5l79 231h125l-203 -546q-18 -51 -37.5 -83.5t-44 -52.5t-55.5 -28t-73 -8q-24 0 -46 2.5t-39 7.5l12 88q15 -3 33 -4t32 -1q18 0 32.5 2.5t27.5 11.5t23.5 25
t21.5 41l21 50h-40zM237 655q0 -18 -3 -30.5t-10.5 -20t-20 -10.5t-31.5 -3q-38 0 -52 13.5t-14 50.5t14 50.5t52 13.5q19 0 31.5 -3t20 -10.5t10.5 -20t3 -30.5zM445 655q0 -37 -14 -50.5t-52 -13.5q-19 0 -31.5 3t-20 10.5t-10.5 20t-3 30.5t3 30.5t10.5 20t20 10.5
t31.5 3q38 0 52 -13.5t14 -50.5z" />
    <glyph glyph-name="ymacron" unicode="&#x233;" 
d="M21 495h128l79 -231q8 -23 14 -42.5t11.5 -39t10.5 -40t11 -44.5h2q6 24 11.5 45t11 40.5t11.5 39t14 41.5l79 231h125l-203 -546q-18 -51 -37.5 -83.5t-44 -52.5t-55.5 -28t-73 -8q-24 0 -46 2.5t-39 7.5l12 88q15 -3 33 -4t32 -1q18 0 32.5 2.5t27.5 11.5t23.5 25
t21.5 41l21 50h-40zM136 695h279v-87h-279v87z" />
    <glyph glyph-name="z" unicode="z" 
d="M56 68l264 333h-245v94h407v-67l-265 -336h272v-92h-433v68z" />
    <glyph glyph-name="zacute" unicode="&#x17a;" 
d="M56 68l264 333h-245v94h407v-67l-265 -336h272v-92h-433v68zM359 767l70 -77l-159 -131l-52 58z" />
    <glyph glyph-name="zcaron" unicode="&#x17e;" 
d="M56 68l264 333h-245v94h407v-67l-265 -336h272v-92h-433v68zM180 751l107 -85l106 84l47 -60l-155 -133l-154 132z" />
    <glyph glyph-name="zdotaccent" unicode="&#x17c;" 
d="M56 68l264 333h-245v94h407v-67l-265 -336h272v-92h-433v68zM358 655q0 -37 -13.5 -50.5t-52.5 -13.5t-52.5 13.5t-13.5 50.5t13.5 50.5t52.5 13.5t52.5 -13.5t13.5 -50.5z" />
    <glyph glyph-name="A" unicode="A" 
d="M184 695h181l176 -695h-127l-45 178h-197l-45 -178h-118zM354 270l-42 180q-6 23 -11 44t-10 41t-10 41t-9 43h-2q-6 -22 -10.5 -43t-9.5 -41t-10 -41t-10 -44l-42 -180h166z" />
    <glyph glyph-name="Aogonek" unicode="&#x104;" 
d="M185 695h180l176 -695q-22 -14 -40 -27.5t-30.5 -27.5t-20 -27t-7.5 -27q0 -19 9.5 -27.5t30.5 -8.5q14 0 31 3.5t34 8.5l13 -72q-25 -8 -50.5 -12.5t-53.5 -4.5q-54 0 -83.5 22.5t-29.5 68.5q0 21 7 39.5t20.5 34.5t30 30.5t36.5 26.5h-24l-45 178h-197l-45 -178h-118z
M354 270l-42 180q-6 23 -11 44t-10 41t-10 41t-9 43h-2q-6 -22 -10.5 -43t-9.5 -41t-10 -41t-10 -44l-42 -180h166z" />
    <glyph glyph-name="AE" unicode="&#xc6;" 
d="M163 695h369v-95h-136v-196h127v-94h-127v-215h136v-95h-256v180h-119l-40 -180h-117zM276 273v332h-25l-74 -332h99z" />
    <glyph glyph-name="Agrave" unicode="&#xc0;" 
d="M184 695h181l176 -695h-127l-45 178h-197l-45 -178h-118zM354 270l-42 180q-6 23 -11 44t-10 41t-10 41t-9 43h-2q-6 -22 -10.5 -43t-9.5 -41t-10 -41t-10 -44l-42 -180h166zM160 919l195 -97l-31 -70l-204 76z" />
    <glyph glyph-name="Aacute" unicode="&#xc1;" 
d="M184 695h181l176 -695h-127l-45 178h-197l-45 -178h-118zM354 270l-42 180q-6 23 -11 44t-10 41t-10 41t-9 43h-2q-6 -22 -10.5 -43t-9.5 -41t-10 -41t-10 -44l-42 -180h166zM389 919l40 -91l-204 -76l-31 70z" />
    <glyph glyph-name="Acircumflex" unicode="&#xc2;" 
d="M184 695h181l176 -695h-127l-45 178h-197l-45 -178h-118zM354 270l-42 180q-6 23 -11 44t-10 41t-10 41t-9 43h-2q-6 -22 -10.5 -43t-9.5 -41t-10 -41t-10 -44l-42 -180h166zM277 911l156 -87l-35 -69l-125 59l-122 -59l-34 69z" />
    <glyph glyph-name="Adieresis" unicode="&#xc4;" 
d="M184 695h181l176 -695h-127l-45 178h-197l-45 -178h-118zM354 270l-42 180q-6 23 -11 44t-10 41t-10 41t-9 43h-2q-6 -22 -10.5 -43t-9.5 -41t-10 -41t-10 -44l-42 -180h166zM224 830q0 -18 -3.5 -30.5t-10.5 -20t-19.5 -10.5t-31.5 -3q-18 0 -31 3t-20 10.5t-10.5 20
t-3.5 30.5t3.5 30t10.5 19.5t20 10.5t31 3q38 0 51.5 -13.5t13.5 -49.5zM458 830q0 -18 -3.5 -30.5t-10.5 -20t-20 -10.5t-31 -3q-19 0 -32 3t-19.5 10.5t-10 20t-3.5 30.5t3.5 30t10 19.5t19.5 10.5t32 3q37 0 51 -13.5t14 -49.5z" />
    <glyph glyph-name="Atilde" unicode="&#xc3;" 
d="M184 695h181l176 -695h-127l-45 178h-197l-45 -178h-118zM354 270l-42 180q-6 23 -11 44t-10 41t-10 41t-9 43h-2q-6 -22 -10.5 -43t-9.5 -41t-10 -41t-10 -44l-42 -180h166zM99 820q19 28 46.5 47.5t70.5 19.5q22 0 38 -5.5t30 -12t27 -12t28 -5.5q19 0 33 9t27 25
l50 -50q-19 -28 -46.5 -47.5t-70.5 -19.5q-22 0 -38 5.5t-30 12t-27 12t-28 5.5q-19 0 -33 -9t-27 -25z" />
    <glyph glyph-name="Abreve" unicode="&#x102;" 
d="M184 695h181l176 -695h-127l-45 178h-197l-45 -178h-118zM354 270l-42 180q-6 23 -11 44t-10 41t-10 41t-9 43h-2q-6 -22 -10.5 -43t-9.5 -41t-10 -41t-10 -44l-42 -180h166zM203 893q2 -26 20 -43t52 -17t50.5 17t18.5 43h79q0 -29 -9.5 -54.5t-29 -44t-47.5 -29
t-66 -10.5q-37 0 -64.5 10.5t-46.5 29t-28 44t-9 54.5h80z" />
    <glyph glyph-name="Amacron" unicode="&#x100;" 
d="M184 695h181l176 -695h-127l-45 178h-197l-45 -178h-118zM354 270l-42 180q-6 23 -11 44t-10 41t-10 41t-9 43h-2q-6 -22 -10.5 -43t-9.5 -41t-10 -41t-10 -44l-42 -180h166zM112 868h325v-80h-325v80z" />
    <glyph glyph-name="Acaron" unicode="&#x1cd;" 
d="M184 695h181l176 -695h-127l-45 178h-197l-45 -178h-118zM354 270l-42 180q-6 23 -11 44t-10 41t-10 41t-9 43h-2q-6 -22 -10.5 -43t-9.5 -41t-10 -41t-10 -44l-42 -180h166zM151 907l125 -59l122 59l34 -69l-160 -87l-156 87z" />
    <glyph glyph-name="Adotaccent" unicode="&#x226;" 
d="M184 695h181l176 -695h-127l-45 178h-197l-45 -178h-118zM354 270l-42 180q-6 23 -11 44t-10 41t-10 41t-9 43h-2q-6 -22 -10.5 -43t-9.5 -41t-10 -41t-10 -44l-42 -180h166zM339 830q0 -18 -3 -30.5t-10.5 -20t-20 -10.5t-31.5 -3t-31.5 3t-20 10.5t-10.5 20t-3 30.5
t3 30t10.5 19.5t20 10.5t31.5 3q38 0 51.5 -13.5t13.5 -49.5z" />
    <glyph glyph-name="Aring" unicode="&#xc5;" 
d="M184 695h181l176 -695h-127l-45 178h-197l-45 -178h-118zM354 270l-42 180q-6 23 -11 44t-10 41t-10 41t-9 43h-2q-6 -22 -10.5 -43t-9.5 -41t-10 -41t-10 -44l-42 -180h166zM388 838q0 -49 -32.5 -79.5t-83.5 -30.5t-83.5 30.5t-32.5 79.5t32.5 79.5t83.5 30.5
q24 0 45.5 -8t37 -22.5t24.5 -35t9 -44.5zM320 838q0 22 -13 36t-35 14t-35 -14t-13 -36q0 -23 13 -36t35 -13t35 13t13 36z" />
    <glyph glyph-name="AEacute" unicode="&#x1fc;" 
d="M163 695h369v-95h-136v-196h127v-94h-127v-215h136v-95h-256v180h-119l-40 -180h-117zM276 273v332h-25l-74 -332h99zM451 919l40 -91l-204 -76l-31 70z" />
    <glyph glyph-name="AEmacron" unicode="&#x1e2;" 
d="M163 695h369v-95h-136v-196h127v-94h-127v-215h136v-95h-256v180h-119l-40 -180h-117zM276 273v332h-25l-74 -332h99zM173 868h325v-80h-325v80z" />
    <glyph glyph-name="B" unicode="B" 
d="M60 695h195q66 0 112 -8t75 -27t42 -51t13 -78q0 -66 -27.5 -104t-72.5 -55q24 -6 46 -18t38 -31.5t25.5 -47.5t9.5 -66q0 -52 -15 -91t-46.5 -65.5t-80.5 -39.5t-117 -13h-197v695zM261 92q74 0 103 28.5t29 84.5q0 27 -6.5 47.5t-22.5 34t-42.5 20t-66.5 6.5h-74v-221
h80zM252 404q31 0 54.5 5.5t39.5 18t24 33.5t8 51q0 26 -7 44t-22 28.5t-39 14.5t-59 4h-70v-199h71z" />
    <glyph glyph-name="C" unicode="C" 
d="M501 12q-38 -10 -82.5 -16.5t-88.5 -6.5q-72 0 -125 14.5t-88 54t-52 109t-17 178.5q0 108 19.5 178t57 110.5t92 56.5t123.5 16q42 0 83.5 -5.5t77.5 -15.5l-14 -92q-34 9 -69 14t-70 5q-44 0 -77.5 -10t-56 -39t-33.5 -80t-11 -134q0 -84 10.5 -136t32 -81t55 -39
t80.5 -10q35 0 69 5.5t70 15.5z" />
    <glyph glyph-name="Ccedilla" unicode="&#xc7;" 
d="M501 12q-37 -9 -81 -16t-85 -7h-12l-4 -34q53 -2 77.5 -21.5t24.5 -57.5q0 -48 -35 -72.5t-100 -24.5q-20 0 -40.5 1.5t-38.5 5.5l9 57q15 -3 30 -4.5t29 -1.5q57 0 57 35q0 16 -12 23t-43 7h-36l9 92q-45 6 -82 23.5t-63.5 56t-41.5 104t-15 167.5q0 108 19.5 178
t57 110.5t92 56.5t123.5 16q42 0 83.5 -5.5t77.5 -15.5l-14 -92q-34 9 -69 14t-70 5q-44 0 -77.5 -10t-56 -39t-33.5 -80t-11 -134q0 -84 10.5 -136t32 -81t55 -39t80.5 -10q35 0 69 5.5t70 15.5z" />
    <glyph glyph-name="Cacute" unicode="&#x106;" 
d="M501 12q-38 -10 -82.5 -16.5t-88.5 -6.5q-72 0 -125 14.5t-88 54t-52 109t-17 178.5q0 108 19.5 178t57 110.5t92 56.5t123.5 16q42 0 83.5 -5.5t77.5 -15.5l-14 -92q-34 9 -69 14t-70 5q-44 0 -77.5 -10t-56 -39t-33.5 -80t-11 -134q0 -84 10.5 -136t32 -81t55 -39
t80.5 -10q35 0 69 5.5t70 15.5zM433 919l40 -91l-204 -76l-31 70z" />
    <glyph glyph-name="Ccircumflex" unicode="&#x108;" 
d="M501 12q-38 -10 -82.5 -16.5t-88.5 -6.5q-72 0 -125 14.5t-88 54t-52 109t-17 178.5q0 108 19.5 178t57 110.5t92 56.5t123.5 16q42 0 83.5 -5.5t77.5 -15.5l-14 -92q-34 9 -69 14t-70 5q-44 0 -77.5 -10t-56 -39t-33.5 -80t-11 -134q0 -84 10.5 -136t32 -81t55 -39
t80.5 -10q35 0 69 5.5t70 15.5zM326 911l156 -87l-35 -69l-125 59l-122 -59l-34 69z" />
    <glyph glyph-name="Ccaron" unicode="&#x10c;" 
d="M501 12q-38 -10 -82.5 -16.5t-88.5 -6.5q-72 0 -125 14.5t-88 54t-52 109t-17 178.5q0 108 19.5 178t57 110.5t92 56.5t123.5 16q42 0 83.5 -5.5t77.5 -15.5l-14 -92q-34 9 -69 14t-70 5q-44 0 -77.5 -10t-56 -39t-33.5 -80t-11 -134q0 -84 10.5 -136t32 -81t55 -39
t80.5 -10q35 0 69 5.5t70 15.5zM200 907l125 -59l122 59l34 -69l-160 -87l-156 87z" />
    <glyph glyph-name="Cdotaccent" unicode="&#x10a;" 
d="M501 12q-38 -10 -82.5 -16.5t-88.5 -6.5q-72 0 -125 14.5t-88 54t-52 109t-17 178.5q0 108 19.5 178t57 110.5t92 56.5t123.5 16q42 0 83.5 -5.5t77.5 -15.5l-14 -92q-34 9 -69 14t-70 5q-44 0 -77.5 -10t-56 -39t-33.5 -80t-11 -134q0 -84 10.5 -136t32 -81t55 -39
t80.5 -10q35 0 69 5.5t70 15.5zM383 830q0 -18 -3 -30.5t-10.5 -20t-20 -10.5t-31.5 -3t-31.5 3t-20 10.5t-10.5 20t-3 30.5t3 30t10.5 19.5t20 10.5t31.5 3q38 0 51.5 -13.5t13.5 -49.5z" />
    <glyph glyph-name="D" unicode="D" 
d="M52 695h200q71 0 121.5 -14t82 -51.5t46.5 -104t15 -172.5q0 -105 -16 -173t-49 -108t-84 -56t-121 -16h-195v695zM248 95q38 0 66.5 9.5t46.5 37t26.5 77t8.5 130.5t-8.5 130t-26 76.5t-46 36t-67.5 8.5h-75v-505h75z" />
    <glyph glyph-name="Eth" unicode="&#xd0;" 
d="M68 318h-58v91h58v286h187q69 0 119 -14t81.5 -51.5t46.5 -104t15 -172.5q0 -105 -16 -173t-48.5 -108t-83 -56t-118.5 -16h-183v318zM250 95q39 0 66 9.5t45 37t26.5 77t8.5 130.5t-8 130t-26 76.5t-45.5 36t-66.5 8.5h-60v-191h101v-91h-101v-223h60z" />
    <glyph glyph-name="Dcaron" unicode="&#x10e;" 
d="M52 695h200q71 0 121.5 -14t82 -51.5t46.5 -104t15 -172.5q0 -105 -16 -173t-49 -108t-84 -56t-121 -16h-195v695zM248 95q38 0 66.5 9.5t46.5 37t26.5 77t8.5 130.5t-8.5 130t-26 76.5t-46 36t-67.5 8.5h-75v-505h75zM121 907l125 -59l122 59l34 -69l-160 -87l-156 87z
" />
    <glyph glyph-name="Dcroat" unicode="&#x110;" 
d="M68 318h-58v91h58v286h187q69 0 119 -14t81.5 -51.5t46.5 -104t15 -172.5q0 -105 -16 -173t-48.5 -108t-83 -56t-118.5 -16h-183v318zM250 95q39 0 66 9.5t45 37t26.5 77t8.5 130.5t-8 130t-26 76.5t-45.5 36t-66.5 8.5h-60v-191h101v-91h-101v-223h60z" />
    <glyph glyph-name="E" unicode="E" 
d="M78 695h410v-95h-289v-196h269v-94h-269v-215h289v-95h-410v695z" />
    <glyph glyph-name="Eogonek" unicode="&#x118;" 
d="M78 695h410v-95h-289v-196h269v-94h-269v-215h289v-95q-21 -14 -39.5 -27.5t-31 -27.5t-20 -27t-7.5 -27q0 -19 9.5 -27.5t30.5 -8.5q14 0 31 3.5t34 8.5l13 -72q-25 -8 -50.5 -12.5t-53.5 -4.5q-54 0 -83 22.5t-29 68.5q0 21 7 39.5t20 34.5t29.5 30.5t36.5 26.5h-307
v695z" />
    <glyph glyph-name="Egrave" unicode="&#xc8;" 
d="M78 695h410v-95h-289v-196h269v-94h-269v-215h289v-95h-410v695zM163 919l195 -97l-31 -70l-204 76z" />
    <glyph glyph-name="Eacute" unicode="&#xc9;" 
d="M78 695h410v-95h-289v-196h269v-94h-269v-215h289v-95h-410v695zM397 919l40 -91l-204 -76l-31 70z" />
    <glyph glyph-name="Ecircumflex" unicode="&#xca;" 
d="M78 695h410v-95h-289v-196h269v-94h-269v-215h289v-95h-410v695zM283 911l156 -87l-35 -69l-125 59l-122 -59l-34 69z" />
    <glyph glyph-name="Edieresis" unicode="&#xcb;" 
d="M78 695h410v-95h-289v-196h269v-94h-269v-215h289v-95h-410v695zM229 830q0 -18 -3.5 -30.5t-10.5 -20t-19.5 -10.5t-31.5 -3q-18 0 -31 3t-20 10.5t-10.5 20t-3.5 30.5t3.5 30t10.5 19.5t20 10.5t31 3q38 0 51.5 -13.5t13.5 -49.5zM463 830q0 -18 -3.5 -30.5t-10.5 -20
t-20 -10.5t-31 -3q-19 0 -32 3t-19.5 10.5t-10 20t-3.5 30.5t3.5 30t10 19.5t19.5 10.5t32 3q37 0 51 -13.5t14 -49.5z" />
    <glyph glyph-name="Ebreve" unicode="&#x114;" 
d="M78 695h410v-95h-289v-196h269v-94h-269v-215h289v-95h-410v695zM210 893q2 -26 20 -43t52 -17t50.5 17t18.5 43h79q0 -29 -9.5 -54.5t-29 -44t-47.5 -29t-66 -10.5q-37 0 -64.5 10.5t-46.5 29t-28 44t-9 54.5h80z" />
    <glyph glyph-name="Emacron" unicode="&#x112;" 
d="M78 695h410v-95h-289v-196h269v-94h-269v-215h289v-95h-410v695zM116 868h325v-80h-325v80z" />
    <glyph glyph-name="Ecaron" unicode="&#x11a;" 
d="M78 695h410v-95h-289v-196h269v-94h-269v-215h289v-95h-410v695zM160 907l125 -59l122 59l34 -69l-160 -87l-156 87z" />
    <glyph glyph-name="Edotaccent" unicode="&#x116;" 
d="M78 695h410v-95h-289v-196h269v-94h-269v-215h289v-95h-410v695zM351 830q0 -18 -3 -30.5t-10.5 -20t-20 -10.5t-31.5 -3t-31.5 3t-20 10.5t-10.5 20t-3 30.5t3 30t10.5 19.5t20 10.5t31.5 3q38 0 51.5 -13.5t13.5 -49.5z" />
    <glyph glyph-name="F" unicode="F" 
d="M83 695h411v-95h-289v-196h263v-94h-263v-310h-122v695z" />
    <glyph glyph-name="G" unicode="G" 
d="M500 25q-39 -17 -94.5 -27t-111.5 -10q-69 0 -118 14.5t-81 53.5t-47 108.5t-15 179.5q0 109 19.5 179t55.5 110.5t88 56.5t117 16q46 0 90.5 -6t81.5 -17l-13 -93q-40 11 -77.5 16.5t-75.5 5.5q-41 0 -72 -10t-51.5 -39t-31.5 -80.5t-11 -134.5q0 -85 9 -137t27.5 -81
t45 -38.5t62.5 -9.5q28 0 49.5 4.5t37.5 11.5v210h-114v94h230v-377z" />
    <glyph glyph-name="Gacute" unicode="&#x1f4;" 
d="M500 25q-39 -17 -94.5 -27t-111.5 -10q-69 0 -118 14.5t-81 53.5t-47 108.5t-15 179.5q0 109 19.5 179t55.5 110.5t88 56.5t117 16q46 0 90.5 -6t81.5 -17l-13 -93q-40 11 -77.5 16.5t-75.5 5.5q-41 0 -72 -10t-51.5 -39t-31.5 -80.5t-11 -134.5q0 -85 9 -137t27.5 -81
t45 -38.5t62.5 -9.5q28 0 49.5 4.5t37.5 11.5v210h-114v94h230v-377zM416 919l40 -91l-204 -76l-31 70z" />
    <glyph glyph-name="Gcircumflex" unicode="&#x11c;" 
d="M500 25q-39 -17 -94.5 -27t-111.5 -10q-69 0 -118 14.5t-81 53.5t-47 108.5t-15 179.5q0 109 19.5 179t55.5 110.5t88 56.5t117 16q46 0 90.5 -6t81.5 -17l-13 -93q-40 11 -77.5 16.5t-75.5 5.5q-41 0 -72 -10t-51.5 -39t-31.5 -80.5t-11 -134.5q0 -85 9 -137t27.5 -81
t45 -38.5t62.5 -9.5q28 0 49.5 4.5t37.5 11.5v210h-114v94h230v-377zM301 911l156 -87l-35 -69l-125 59l-122 -59l-34 69z" />
    <glyph glyph-name="Gbreve" unicode="&#x11e;" 
d="M500 25q-39 -17 -94.5 -27t-111.5 -10q-69 0 -118 14.5t-81 53.5t-47 108.5t-15 179.5q0 109 19.5 179t55.5 110.5t88 56.5t117 16q46 0 90.5 -6t81.5 -17l-13 -93q-40 11 -77.5 16.5t-75.5 5.5q-41 0 -72 -10t-51.5 -39t-31.5 -80.5t-11 -134.5q0 -85 9 -137t27.5 -81
t45 -38.5t62.5 -9.5q28 0 49.5 4.5t37.5 11.5v210h-114v94h230v-377zM226 893q2 -26 20 -43t52 -17t50.5 17t18.5 43h79q0 -29 -9.5 -54.5t-29 -44t-47.5 -29t-66 -10.5q-37 0 -64.5 10.5t-46.5 29t-28 44t-9 54.5h80z" />
    <glyph glyph-name="Gcaron" unicode="&#x1e6;" 
d="M500 25q-39 -17 -94.5 -27t-111.5 -10q-69 0 -118 14.5t-81 53.5t-47 108.5t-15 179.5q0 109 19.5 179t55.5 110.5t88 56.5t117 16q46 0 90.5 -6t81.5 -17l-13 -93q-40 11 -77.5 16.5t-75.5 5.5q-41 0 -72 -10t-51.5 -39t-31.5 -80.5t-11 -134.5q0 -85 9 -137t27.5 -81
t45 -38.5t62.5 -9.5q28 0 49.5 4.5t37.5 11.5v210h-114v94h230v-377zM178 907l125 -59l122 59l34 -69l-160 -87l-156 87z" />
    <glyph glyph-name="Gdotaccent" unicode="&#x120;" 
d="M500 25q-39 -17 -94.5 -27t-111.5 -10q-69 0 -118 14.5t-81 53.5t-47 108.5t-15 179.5q0 109 19.5 179t55.5 110.5t88 56.5t117 16q46 0 90.5 -6t81.5 -17l-13 -93q-40 11 -77.5 16.5t-75.5 5.5q-41 0 -72 -10t-51.5 -39t-31.5 -80.5t-11 -134.5q0 -85 9 -137t27.5 -81
t45 -38.5t62.5 -9.5q28 0 49.5 4.5t37.5 11.5v210h-114v94h230v-377zM359 830q0 -18 -3 -30.5t-10.5 -20t-20 -10.5t-31.5 -3t-31.5 3t-20 10.5t-10.5 20t-3 30.5t3 30t10.5 19.5t20 10.5t31.5 3q38 0 51.5 -13.5t13.5 -49.5z" />
    <glyph glyph-name="Gcommaaccent" unicode="&#x122;" 
d="M500 25q-39 -17 -94.5 -27t-111.5 -10q-69 0 -118 14.5t-81 53.5t-47 108.5t-15 179.5q0 109 19.5 179t55.5 110.5t88 56.5t117 16q46 0 90.5 -6t81.5 -17l-13 -93q-40 11 -77.5 16.5t-75.5 5.5q-41 0 -72 -10t-51.5 -39t-31.5 -80.5t-11 -134.5q0 -85 9 -137t27.5 -81
t45 -38.5t62.5 -9.5q28 0 49.5 4.5t37.5 11.5v210h-114v94h230v-377zM139 -167q13 4 28 9t29.5 10.5t28 11t24.5 9.5v10v9q0 23 14 32.5t41 9.5q32 0 44 -14t12 -46q0 -17 -5.5 -28.5t-19.5 -19.5t-38.5 -14.5t-64.5 -13.5q-22 -4 -44 -7.5t-42 -5.5z" />
    <glyph glyph-name="H" unicode="H" 
d="M52 695h121v-288h204v288h121v-695h-121v308h-204v-308h-121v695z" />
    <glyph glyph-name="Hbar" unicode="&#x126;" 
d="M68 494h-58v88h58v113h121v-113h172v113h121v-113h58v-88h-58v-494h-121v285h-172v-285h-121v494zM361 377v117h-172v-117h172z" />
    <glyph glyph-name="Hcircumflex" unicode="&#x124;" 
d="M52 695h121v-288h204v288h121v-695h-121v308h-204v-308h-121v695zM277 911l156 -87l-35 -69l-125 59l-122 -59l-34 69z" />
    <glyph glyph-name="Hcaron" unicode="&#x21e;" 
d="M52 695h121v-288h204v288h121v-695h-121v308h-204v-308h-121v695zM152 907l125 -59l122 59l34 -69l-160 -87l-156 87z" />
    <glyph glyph-name="I" unicode="I" 
d="M62 98h153v499h-152v98h425v-98h-152v-499h151v-98h-425v98z" />
    <glyph glyph-name="Iogonek" unicode="&#x12e;" 
d="M62 98h153v499h-152v98h425v-98h-152v-499h151v-98h-149q-22 -14 -40.5 -27.5t-31 -27.5t-19.5 -27t-7 -27q0 -19 10 -27.5t31 -8.5q14 0 30.5 3.5t33.5 8.5l13 -72q-25 -8 -50.5 -12.5t-52.5 -4.5q-55 0 -84.5 22.5t-29.5 68.5q0 21 7.5 39.5t20 34.5t30 30.5t36.5 26.5
h-173v98z" />
    <glyph glyph-name="Igrave" unicode="&#xcc;" 
d="M62 98h153v499h-152v98h425v-98h-152v-499h151v-98h-425v98zM155 919l195 -97l-31 -70l-204 76z" />
    <glyph glyph-name="Iacute" unicode="&#xcd;" 
d="M62 98h153v499h-152v98h425v-98h-152v-499h151v-98h-425v98zM382 919l40 -91l-204 -76l-31 70z" />
    <glyph glyph-name="Icircumflex" unicode="&#xce;" 
d="M62 98h153v499h-152v98h425v-98h-152v-499h151v-98h-425v98zM278 911l156 -87l-35 -69l-125 59l-122 -59l-34 69z" />
    <glyph glyph-name="Idieresis" unicode="&#xcf;" 
d="M62 98h153v499h-152v98h425v-98h-152v-499h151v-98h-425v98zM224 830q0 -18 -3.5 -30.5t-10.5 -20t-19.5 -10.5t-31.5 -3q-18 0 -31 3t-20 10.5t-10.5 20t-3.5 30.5t3.5 30t10.5 19.5t20 10.5t31 3q38 0 51.5 -13.5t13.5 -49.5zM458 830q0 -18 -3.5 -30.5t-10.5 -20
t-20 -10.5t-31 -3q-19 0 -32 3t-19.5 10.5t-10 20t-3.5 30.5t3.5 30t10 19.5t19.5 10.5t32 3q37 0 51 -13.5t14 -49.5z" />
    <glyph glyph-name="Itilde" unicode="&#x128;" 
d="M62 98h153v499h-152v98h425v-98h-152v-499h151v-98h-425v98zM100 820q19 28 46.5 47.5t70.5 19.5q22 0 38 -5.5t30 -12t27 -12t28 -5.5q19 0 33 9t27 25l50 -50q-19 -28 -46.5 -47.5t-70.5 -19.5q-22 0 -38 5.5t-30 12t-27 12t-28 5.5q-19 0 -33 -9t-27 -25z" />
    <glyph glyph-name="Ibreve" unicode="&#x12c;" 
d="M62 98h153v499h-152v98h425v-98h-152v-499h151v-98h-425v98zM206 893q2 -26 20 -43t52 -17t50.5 17t18.5 43h79q0 -29 -9.5 -54.5t-29 -44t-47.5 -29t-66 -10.5q-37 0 -64.5 10.5t-46.5 29t-28 44t-9 54.5h80z" />
    <glyph glyph-name="Imacron" unicode="&#x12a;" 
d="M62 98h153v499h-152v98h425v-98h-152v-499h151v-98h-425v98zM112 868h325v-80h-325v80z" />
    <glyph glyph-name="Icaron" unicode="&#x1cf;" 
d="M62 98h153v499h-152v98h425v-98h-152v-499h151v-98h-425v98zM153 907l125 -59l122 59l34 -69l-160 -87l-156 87z" />
    <glyph glyph-name="Idotaccent" unicode="&#x130;" 
d="M62 98h153v499h-152v98h425v-98h-152v-499h151v-98h-425v98zM340 830q0 -18 -3 -30.5t-10.5 -20t-20 -10.5t-31.5 -3t-31.5 3t-20 10.5t-10.5 20t-3 30.5t3 30t10.5 19.5t20 10.5t31.5 3q38 0 51.5 -13.5t13.5 -49.5z" />
    <glyph glyph-name="IJ" unicode="&#x132;" 
d="M68 695h121v-695h-121v695zM487 695v-505q0 -55 -9.5 -93t-28.5 -61.5t-48 -33.5t-68 -10q-21 0 -42.5 2.5t-40.5 6.5l7 93q14 -2 25.5 -3t23.5 -1q32 0 45.5 19t13.5 67v519h122z" />
    <glyph glyph-name="J" unicode="J" 
d="M98 597v98h368v-485q0 -61 -15 -102.5t-45.5 -67.5t-76 -37t-107.5 -11q-45 0 -86 4.5t-74 11.5l10 95q29 -5 63.5 -9t72.5 -4t63.5 5.5t42 18.5t24 34.5t7.5 53.5v395h-247z" />
    <glyph glyph-name="Jcircumflex" unicode="&#x134;" 
d="M98 597v98h368v-485q0 -61 -15 -102.5t-45.5 -67.5t-76 -37t-107.5 -11q-45 0 -86 4.5t-74 11.5l10 95q29 -5 63.5 -9t72.5 -4t63.5 5.5t42 18.5t24 34.5t7.5 53.5v395h-247zM316 911l156 -87l-35 -69l-125 59l-122 -59l-34 69z" />
    <glyph glyph-name="K" unicode="K" 
d="M65 695h122v-330l209 330h137l-221 -336l229 -359h-141l-213 340v-340h-122v695z" />
    <glyph glyph-name="Kcaron" unicode="&#x1e8;" 
d="M65 695h122v-330l209 330h137l-221 -336l229 -359h-141l-213 340v-340h-122v695zM156 907l125 -59l122 59l34 -69l-160 -87l-156 87z" />
    <glyph glyph-name="Kcommaaccent" unicode="&#x136;" 
d="M65 695h122v-330l209 330h137l-221 -336l229 -359h-141l-213 340v-340h-122v695zM124 -167q13 4 28 9t29.5 10.5t28 11t24.5 9.5v10v9q0 23 14 32.5t41 9.5q32 0 44 -14t12 -46q0 -17 -5.5 -28.5t-19.5 -19.5t-38.5 -14.5t-64.5 -13.5q-22 -4 -44 -7.5t-42 -5.5z" />
    <glyph glyph-name="L" unicode="L" 
d="M86 695h121v-597h287v-98h-408v695z" />
    <glyph glyph-name="Lslash" unicode="&#x141;" 
d="M117 319l-58 -29l-40 82l98 49v274h121v-214l98 50l40 -81l-138 -71v-281h256v-98h-377v319z" />
    <glyph glyph-name="Lacute" unicode="&#x139;" 
d="M86 695h121v-597h287v-98h-408v695zM360 919l40 -91l-204 -76l-31 70z" />
    <glyph glyph-name="Lcaron" unicode="&#x13d;" 
d="M86 695h121v-597h287v-98h-408v695zM312 786l99 -15l-53 -213l-76 11z" />
    <glyph glyph-name="Ldot" unicode="&#x13f;" 
d="M86 695h121v-597h287v-98h-408v695zM478 379q0 -22 -3.5 -37.5t-13 -25t-25 -13t-38.5 -3.5t-38.5 3.5t-25 13t-13 25t-3.5 37.5t3.5 37.5t13 25t25 13t38.5 3.5t38.5 -3.5t25 -13t13 -25t3.5 -37.5z" />
    <glyph glyph-name="Lcommaaccent" unicode="&#x13b;" 
d="M86 695h121v-597h287v-98h-408v695zM132 -167q13 4 28 9t29.5 10.5t28 11t24.5 9.5v10v9q0 23 14 32.5t41 9.5q32 0 44 -14t12 -46q0 -17 -5.5 -28.5t-19.5 -19.5t-38.5 -14.5t-64.5 -13.5q-22 -4 -44 -7.5t-42 -5.5z" />
    <glyph glyph-name="M" unicode="M" 
d="M38 695h161l63 -325q2 -11 4 -21.5t3 -21.5t2.5 -23.5t3.5 -29.5h3q1 17 2.5 29.5t3 23.5t3 21.5t3.5 21.5l63 325h159l21 -695h-101l-11 400q-1 53 0 100t3 97h-4q-5 -29 -9 -53t-9 -52l-65 -332h-124l-64 332q-6 29 -10 52.5t-8 52.5h-5q3 -51 3.5 -97.5t-0.5 -99.5
l-11 -400h-101z" />
    <glyph glyph-name="N" unicode="N" 
d="M46 695h159l148 -402q7 -22 14 -40.5t13 -37.5t12 -39t14 -44l5 1q-5 49 -8.5 93t-3.5 89v380h105v-695h-159l-148 402q-7 22 -14 40.5t-13 37.5t-12.5 39t-13.5 44l-5 -1q5 -49 8.5 -93t3.5 -89v-380h-105v695z" />
    <glyph glyph-name="Eng" unicode="&#x14a;" 
d="M46 695h160l148 -402q8 -22 14.5 -40.5t12.5 -37.5t12 -39t13 -44l5 1q-5 49 -8.5 93t-4.5 89v380h106v-727q0 -54 -11.5 -90t-33 -59t-53.5 -33t-74 -10q-24 0 -45.5 2.5t-45.5 7.5l12 93q17 -3 30 -4.5t29 -1.5q38 0 54.5 19t16.5 70v38h-39l-148 402q-8 22 -14.5 41
t-12.5 37.5t-12 38.5t-13 44l-5 -1q5 -49 9 -93t4 -89v-380h-106v695z" />
    <glyph glyph-name="Ngrave" unicode="&#x1f8;" 
d="M46 695h159l148 -402q7 -22 14 -40.5t13 -37.5t12 -39t14 -44l5 1q-5 49 -8.5 93t-3.5 89v380h105v-695h-159l-148 402q-7 22 -14 40.5t-13 37.5t-12.5 39t-13.5 44l-5 -1q5 -49 8.5 -93t3.5 -89v-380h-105v695zM150 919l195 -97l-31 -70l-204 76z" />
    <glyph glyph-name="Nacute" unicode="&#x143;" 
d="M46 695h159l148 -402q7 -22 14 -40.5t13 -37.5t12 -39t14 -44l5 1q-5 49 -8.5 93t-3.5 89v380h105v-695h-159l-148 402q-7 22 -14 40.5t-13 37.5t-12.5 39t-13.5 44l-5 -1q5 -49 8.5 -93t3.5 -89v-380h-105v695zM407 919l40 -91l-204 -76l-31 70z" />
    <glyph glyph-name="Ntilde" unicode="&#xd1;" 
d="M46 695h159l148 -402q7 -22 14 -40.5t13 -37.5t12 -39t14 -44l5 1q-5 49 -8.5 93t-3.5 89v380h105v-695h-159l-148 402q-7 22 -14 40.5t-13 37.5t-12.5 39t-13.5 44l-5 -1q5 -49 8.5 -93t3.5 -89v-380h-105v695zM105 820q19 28 46.5 47.5t70.5 19.5q22 0 38 -5.5t30 -12
t27 -12t28 -5.5q19 0 33 9t27 25l50 -50q-19 -28 -46.5 -47.5t-70.5 -19.5q-22 0 -38 5.5t-30 12t-27 12t-28 5.5q-19 0 -33 -9t-27 -25z" />
    <glyph glyph-name="Ncaron" unicode="&#x147;" 
d="M46 695h159l148 -402q7 -22 14 -40.5t13 -37.5t12 -39t14 -44l5 1q-5 49 -8.5 93t-3.5 89v380h105v-695h-159l-148 402q-7 22 -14 40.5t-13 37.5t-12.5 39t-13.5 44l-5 -1q5 -49 8.5 -93t3.5 -89v-380h-105v695zM159 907l125 -59l122 59l34 -69l-160 -87l-156 87z" />
    <glyph glyph-name="Ncommaaccent" unicode="&#x145;" 
d="M46 695h159l148 -402q7 -22 14 -40.5t13 -37.5t12 -39t14 -44l5 1q-5 49 -8.5 93t-3.5 89v380h105v-695h-159l-148 402q-7 22 -14 40.5t-13 37.5t-12.5 39t-13.5 44l-5 -1q5 -49 8.5 -93t3.5 -89v-380h-105v695zM124 -167q13 4 28 9t29.5 10.5t28 11t24.5 9.5v10v9
q0 23 14 32.5t41 9.5q32 0 44 -14t12 -46q0 -17 -5.5 -28.5t-19.5 -19.5t-38.5 -14.5t-64.5 -13.5q-22 -4 -44 -7.5t-42 -5.5z" />
    <glyph glyph-name="O" unicode="O" 
d="M517 350q0 -110 -17 -181t-48.5 -111.5t-77.5 -56t-104 -15.5t-102 14.5t-74.5 54t-45.5 109t-15 180.5t16.5 181.5t47.5 111.5t77 56.5t104 15.5q59 0 103 -14.5t74.5 -54t46 -109.5t15.5 -181zM396 346q0 84 -8 136.5t-23.5 82t-38 39.5t-52.5 10t-52.5 -10t-37.5 -39
t-22.5 -81t-7.5 -136t7.5 -136t22.5 -81.5t37.5 -39.5t52.5 -10t52.5 10t38 39t23.5 80.5t8 135.5z" />
    <glyph glyph-name="OE" unicode="&#x152;" 
d="M271 604q-11 3 -22.5 5t-26.5 2q-22 0 -38 -8.5t-27 -36t-17 -79.5t-6 -139t5.5 -139t16.5 -80t27.5 -36.5t38.5 -8.5q16 0 27 2t22 5v513zM289 0q-18 -5 -38.5 -8.5t-43.5 -3.5q-49 0 -85.5 14t-60.5 53t-35.5 108.5t-11.5 180.5t13.5 181.5t39.5 111t64 55.5t88 15
q24 0 43.5 -3.5t36.5 -8.5h233v-95h-141v-196h132v-94h-132v-215h141v-95h-243z" />
    <glyph glyph-name="Oslash" unicode="&#xd8;" 
d="M102 43q-33 38 -51 110t-18 191q0 111 16.5 181.5t47.5 111.5t77 56.5t104 15.5q26 0 48.5 -2.5t41.5 -8.5l38 93l83 -30l-44 -108q34 -38 53 -110t19 -193q0 -110 -17 -181t-48.5 -111.5t-77.5 -56t-104 -15.5q-27 0 -50 2.5t-41 9.5l-36 -89l-83 30zM334 612
q-13 7 -27 9t-33 2q-34 0 -59 -10.5t-42 -40.5t-25.5 -84t-8.5 -140q0 -59 3.5 -102t11.5 -76zM213 84q11 -6 26 -9t35 -3q34 0 59.5 10.5t42.5 40.5t26 83.5t9 139.5q0 64 -4 107t-12 76z" />
    <glyph glyph-name="Ograve" unicode="&#xd2;" 
d="M517 350q0 -110 -17 -181t-48.5 -111.5t-77.5 -56t-104 -15.5t-102 14.5t-74.5 54t-45.5 109t-15 180.5t16.5 181.5t47.5 111.5t77 56.5t104 15.5q59 0 103 -14.5t74.5 -54t46 -109.5t15.5 -181zM396 346q0 84 -8 136.5t-23.5 82t-38 39.5t-52.5 10t-52.5 -10t-37.5 -39
t-22.5 -81t-7.5 -136t7.5 -136t22.5 -81.5t37.5 -39.5t52.5 -10t52.5 10t38 39t23.5 80.5t8 135.5zM148 919l195 -97l-31 -70l-204 76z" />
    <glyph glyph-name="Oacute" unicode="&#xd3;" 
d="M517 350q0 -110 -17 -181t-48.5 -111.5t-77.5 -56t-104 -15.5t-102 14.5t-74.5 54t-45.5 109t-15 180.5t16.5 181.5t47.5 111.5t77 56.5t104 15.5q59 0 103 -14.5t74.5 -54t46 -109.5t15.5 -181zM396 346q0 84 -8 136.5t-23.5 82t-38 39.5t-52.5 10t-52.5 -10t-37.5 -39
t-22.5 -81t-7.5 -136t7.5 -136t22.5 -81.5t37.5 -39.5t52.5 -10t52.5 10t38 39t23.5 80.5t8 135.5zM397 919l40 -91l-204 -76l-31 70z" />
    <glyph glyph-name="Ocircumflex" unicode="&#xd4;" 
d="M517 350q0 -110 -17 -181t-48.5 -111.5t-77.5 -56t-104 -15.5t-102 14.5t-74.5 54t-45.5 109t-15 180.5t16.5 181.5t47.5 111.5t77 56.5t104 15.5q59 0 103 -14.5t74.5 -54t46 -109.5t15.5 -181zM396 346q0 84 -8 136.5t-23.5 82t-38 39.5t-52.5 10t-52.5 -10t-37.5 -39
t-22.5 -81t-7.5 -136t7.5 -136t22.5 -81.5t37.5 -39.5t52.5 -10t52.5 10t38 39t23.5 80.5t8 135.5zM277 911l156 -87l-35 -69l-125 59l-122 -59l-34 69z" />
    <glyph glyph-name="Odieresis" unicode="&#xd6;" 
d="M517 350q0 -110 -17 -181t-48.5 -111.5t-77.5 -56t-104 -15.5t-102 14.5t-74.5 54t-45.5 109t-15 180.5t16.5 181.5t47.5 111.5t77 56.5t104 15.5q59 0 103 -14.5t74.5 -54t46 -109.5t15.5 -181zM396 346q0 84 -8 136.5t-23.5 82t-38 39.5t-52.5 10t-52.5 -10t-37.5 -39
t-22.5 -81t-7.5 -136t7.5 -136t22.5 -81.5t37.5 -39.5t52.5 -10t52.5 10t38 39t23.5 80.5t8 135.5zM223 830q0 -18 -3.5 -30.5t-10.5 -20t-19.5 -10.5t-31.5 -3q-18 0 -31 3t-20 10.5t-10.5 20t-3.5 30.5t3.5 30t10.5 19.5t20 10.5t31 3q38 0 51.5 -13.5t13.5 -49.5z
M457 830q0 -18 -3.5 -30.5t-10.5 -20t-20 -10.5t-31 -3q-19 0 -32 3t-19.5 10.5t-10 20t-3.5 30.5t3.5 30t10 19.5t19.5 10.5t32 3q37 0 51 -13.5t14 -49.5z" />
    <glyph glyph-name="Otilde" unicode="&#xd5;" 
d="M517 350q0 -110 -17 -181t-48.5 -111.5t-77.5 -56t-104 -15.5t-102 14.5t-74.5 54t-45.5 109t-15 180.5t16.5 181.5t47.5 111.5t77 56.5t104 15.5q59 0 103 -14.5t74.5 -54t46 -109.5t15.5 -181zM396 346q0 84 -8 136.5t-23.5 82t-38 39.5t-52.5 10t-52.5 -10t-37.5 -39
t-22.5 -81t-7.5 -136t7.5 -136t22.5 -81.5t37.5 -39.5t52.5 -10t52.5 10t38 39t23.5 80.5t8 135.5zM100 820q19 28 46.5 47.5t70.5 19.5q22 0 38 -5.5t30 -12t27 -12t28 -5.5q19 0 33 9t27 25l50 -50q-19 -28 -46.5 -47.5t-70.5 -19.5q-22 0 -38 5.5t-30 12t-27 12t-28 5.5
q-19 0 -33 -9t-27 -25z" />
    <glyph glyph-name="Obreve" unicode="&#x14e;" 
d="M517 350q0 -110 -17 -181t-48.5 -111.5t-77.5 -56t-104 -15.5t-102 14.5t-74.5 54t-45.5 109t-15 180.5t16.5 181.5t47.5 111.5t77 56.5t104 15.5q59 0 103 -14.5t74.5 -54t46 -109.5t15.5 -181zM396 346q0 84 -8 136.5t-23.5 82t-38 39.5t-52.5 10t-52.5 -10t-37.5 -39
t-22.5 -81t-7.5 -136t7.5 -136t22.5 -81.5t37.5 -39.5t52.5 -10t52.5 10t38 39t23.5 80.5t8 135.5zM205 893q2 -26 20 -43t52 -17t50.5 17t18.5 43h79q0 -29 -9.5 -54.5t-29 -44t-47.5 -29t-66 -10.5q-37 0 -64.5 10.5t-46.5 29t-28 44t-9 54.5h80z" />
    <glyph glyph-name="Omacron" unicode="&#x14c;" 
d="M517 350q0 -110 -17 -181t-48.5 -111.5t-77.5 -56t-104 -15.5t-102 14.5t-74.5 54t-45.5 109t-15 180.5t16.5 181.5t47.5 111.5t77 56.5t104 15.5q59 0 103 -14.5t74.5 -54t46 -109.5t15.5 -181zM396 346q0 84 -8 136.5t-23.5 82t-38 39.5t-52.5 10t-52.5 -10t-37.5 -39
t-22.5 -81t-7.5 -136t7.5 -136t22.5 -81.5t37.5 -39.5t52.5 -10t52.5 10t38 39t23.5 80.5t8 135.5zM112 868h325v-80h-325v80z" />
    <glyph glyph-name="Ocaron" unicode="&#x1d1;" 
d="M517 350q0 -110 -17 -181t-48.5 -111.5t-77.5 -56t-104 -15.5t-102 14.5t-74.5 54t-45.5 109t-15 180.5t16.5 181.5t47.5 111.5t77 56.5t104 15.5q59 0 103 -14.5t74.5 -54t46 -109.5t15.5 -181zM396 346q0 84 -8 136.5t-23.5 82t-38 39.5t-52.5 10t-52.5 -10t-37.5 -39
t-22.5 -81t-7.5 -136t7.5 -136t22.5 -81.5t37.5 -39.5t52.5 -10t52.5 10t38 39t23.5 80.5t8 135.5zM152 907l125 -59l122 59l34 -69l-160 -87l-156 87z" />
    <glyph glyph-name="Odotaccent" unicode="&#x22e;" 
d="M517 350q0 -110 -17 -181t-48.5 -111.5t-77.5 -56t-104 -15.5t-102 14.5t-74.5 54t-45.5 109t-15 180.5t16.5 181.5t47.5 111.5t77 56.5t104 15.5q59 0 103 -14.5t74.5 -54t46 -109.5t15.5 -181zM396 346q0 84 -8 136.5t-23.5 82t-38 39.5t-52.5 10t-52.5 -10t-37.5 -39
t-22.5 -81t-7.5 -136t7.5 -136t22.5 -81.5t37.5 -39.5t52.5 -10t52.5 10t38 39t23.5 80.5t8 135.5zM340 830q0 -18 -3 -30.5t-10.5 -20t-20 -10.5t-31.5 -3t-31.5 3t-20 10.5t-10.5 20t-3 30.5t3 30t10.5 19.5t20 10.5t31.5 3q38 0 51.5 -13.5t13.5 -49.5z" />
    <glyph glyph-name="Ohungarumlaut" unicode="&#x150;" 
d="M517 350q0 -110 -17 -181t-48.5 -111.5t-77.5 -56t-104 -15.5t-102 14.5t-74.5 54t-45.5 109t-15 180.5t16.5 181.5t47.5 111.5t77 56.5t104 15.5q59 0 103 -14.5t74.5 -54t46 -109.5t15.5 -181zM396 346q0 84 -8 136.5t-23.5 82t-38 39.5t-52.5 10t-52.5 -10t-37.5 -39
t-22.5 -81t-7.5 -136t7.5 -136t22.5 -81.5t37.5 -39.5t52.5 -10t52.5 10t38 39t23.5 80.5t8 135.5zM277 941l61 -66l-166 -127l-47 49zM501 931l51 -76l-182 -107l-43 57z" />
    <glyph glyph-name="Oslashacute" unicode="&#x1fe;" 
d="M315 941l70 -77l-159 -131l-52 58zM102 43q-33 38 -51 110t-18 191q0 111 16.5 181.5t47.5 111.5t77 56.5t104 15.5q26 0 48.5 -2.5t41.5 -8.5l38 93l83 -30l-44 -108q34 -38 53 -110t19 -193q0 -110 -17 -181t-48.5 -111.5t-77.5 -56t-104 -15.5q-27 0 -50 2.5t-41 9.5
l-36 -89l-83 30zM334 612q-13 7 -27 9t-33 2q-34 0 -59 -10.5t-42 -40.5t-25.5 -84t-8.5 -140q0 -59 3.5 -102t11.5 -76zM213 84q11 -6 26 -9t35 -3q34 0 59.5 10.5t42.5 40.5t26 83.5t9 139.5q0 64 -4 107t-12 76z" />
    <glyph glyph-name="P" unicode="P" 
d="M63 695h207q65 0 111.5 -8t76.5 -30t44.5 -60t14.5 -98t-15 -101.5t-46.5 -68t-80 -38.5t-116.5 -12h-75v-279h-121v695zM264 371q68 0 100.5 29t32.5 94q0 32 -7 53.5t-23 33.5t-41 17t-59 5h-83v-232h80z" />
    <glyph glyph-name="Thorn" unicode="&#xde;" 
d="M63 695h121v-135h86q65 0 111.5 -8t76.5 -29.5t44.5 -59.5t14.5 -99q0 -59 -15 -100.5t-46.5 -68t-80 -39t-116.5 -12.5h-75v-144h-121v695zM264 237q68 0 100.5 28.5t32.5 94.5q0 33 -7 53.5t-23 32.5t-41 17t-59 5h-83v-231h80z" />
    <glyph glyph-name="Q" unicode="Q" 
d="M504 -73l-79 -47l-73 117q-19 -6 -38 -8.5t-44 -2.5q-58 0 -102 14.5t-74.5 54t-45.5 109t-15 180.5t16.5 181.5t47.5 111.5t77 56.5t104 15.5q59 0 103 -14.5t74.5 -54t46 -109.5t15.5 -181q0 -61 -5.5 -110.5t-16 -88t-26 -66t-35.5 -45.5zM374 139q6 17 10 37t7 44.5
t4.5 55.5t1.5 70q0 84 -8 136.5t-23.5 82t-38.5 39.5t-53 10t-53 -10t-38 -39t-22.5 -81t-7.5 -136t7.5 -136.5t22.5 -82t37.5 -40t52.5 -10.5h15.5t13.5 1l-65 104l79 47z" />
    <glyph glyph-name="R" unicode="R" 
d="M57 695h205q68 0 114 -8t75 -29t41.5 -55.5t12.5 -88.5q0 -81 -37 -127t-115 -60l173 -327h-139l-155 310h-54v-310h-121v695zM259 403q36 0 60.5 6t39 19.5t20.5 33.5t6 48q0 26 -6 44.5t-21 29t-39 15t-60 4.5h-81v-200h81z" />
    <glyph glyph-name="Racute" unicode="&#x154;" 
d="M57 695h205q68 0 114 -8t75 -29t41.5 -55.5t12.5 -88.5q0 -81 -37 -127t-115 -60l173 -327h-139l-155 310h-54v-310h-121v695zM259 403q36 0 60.5 6t39 19.5t20.5 33.5t6 48q0 26 -6 44.5t-21 29t-39 15t-60 4.5h-81v-200h81zM376 919l40 -91l-204 -76l-31 70z" />
    <glyph glyph-name="Rcaron" unicode="&#x158;" 
d="M57 695h205q68 0 114 -8t75 -29t41.5 -55.5t12.5 -88.5q0 -81 -37 -127t-115 -60l173 -327h-139l-155 310h-54v-310h-121v695zM259 403q36 0 60.5 6t39 19.5t20.5 33.5t6 48q0 26 -6 44.5t-21 29t-39 15t-60 4.5h-81v-200h81zM141 907l125 -59l122 59l34 -69l-160 -87
l-156 87z" />
    <glyph glyph-name="Rcommaaccent" unicode="&#x156;" 
d="M57 695h205q68 0 114 -8t75 -29t41.5 -55.5t12.5 -88.5q0 -81 -37 -127t-115 -60l173 -327h-139l-155 310h-54v-310h-121v695zM259 403q36 0 60.5 6t39 19.5t20.5 33.5t6 48q0 26 -6 44.5t-21 29t-39 15t-60 4.5h-81v-200h81zM110 -167q13 4 28 9t29.5 10.5t28 11
t24.5 9.5v10v9q0 23 14 32.5t41 9.5q32 0 44 -14t12 -46q0 -17 -5.5 -28.5t-19.5 -19.5t-38.5 -14.5t-64.5 -13.5q-22 -4 -44 -7.5t-42 -5.5z" />
    <glyph glyph-name="S" unicode="S" 
d="M68 103q44 -11 85 -17t89 -6q78 0 113 25t35 69q0 20 -6 35.5t-23 30t-47.5 31t-80.5 39.5q-54 25 -89.5 47t-57 45t-30 51.5t-8.5 68.5q0 41 14.5 75.5t45.5 59t79 37.5t117 13q48 0 87.5 -6t73.5 -16l-12 -90q-36 9 -70.5 14.5t-80.5 5.5q-38 0 -64 -6t-43 -16.5
t-25 -25.5t-8 -34t6 -33.5t23 -28.5t46 -30t76 -38q57 -27 94 -49t59 -45.5t30.5 -52t8.5 -67.5q0 -47 -16 -84t-48 -63t-82.5 -40t-118.5 -14q-49 0 -94 6.5t-90 18.5z" />
    <glyph glyph-name="Scedilla" unicode="&#x15e;" 
d="M68 103q44 -11 85 -17t89 -6q78 0 113 25t35 69q0 20 -6 35.5t-23 30t-47.5 31t-80.5 39.5q-54 25 -89.5 47t-57 45t-30 51.5t-8.5 68.5q0 41 14.5 75.5t45.5 59t79 37.5t117 13q48 0 87.5 -6t73.5 -16l-12 -90q-36 9 -70.5 14.5t-80.5 5.5q-38 0 -64 -6t-43 -16.5
t-25 -25.5t-8 -34t6 -33.5t23 -28.5t46 -30t76 -38q57 -27 94 -49t59 -45.5t30.5 -52t8.5 -67.5q0 -85 -53.5 -138t-164.5 -61l-4 -35q52 -2 76.5 -21.5t24.5 -57.5q0 -48 -35 -72.5t-99 -24.5q-21 0 -41 1.5t-37 5.5l7 57q15 -3 30 -4.5t29 -1.5q58 0 58 35q0 16 -12 23
t-43 7h-37l8 87q-41 1 -79.5 7t-76.5 17z" />
    <glyph glyph-name="uni1E9E" unicode="&#x1e9e;" 
d="M48 695h431v-77l-104 -200q33 -8 59 -23.5t45 -40.5t29 -58.5t10 -77.5q0 -116 -52.5 -171.5t-148.5 -55.5q-27 0 -52 3t-48 9l10 88q17 -4 31.5 -6.5t33.5 -2.5q49 0 76 30.5t27 98.5q0 60 -36.5 91.5t-110.5 33.5v76l100 191h-180v-603h-120v695z" />
    <glyph glyph-name="Sacute" unicode="&#x15a;" 
d="M68 103q44 -11 85 -17t89 -6q78 0 113 25t35 69q0 20 -6 35.5t-23 30t-47.5 31t-80.5 39.5q-54 25 -89.5 47t-57 45t-30 51.5t-8.5 68.5q0 41 14.5 75.5t45.5 59t79 37.5t117 13q48 0 87.5 -6t73.5 -16l-12 -90q-36 9 -70.5 14.5t-80.5 5.5q-38 0 -64 -6t-43 -16.5
t-25 -25.5t-8 -34t6 -33.5t23 -28.5t46 -30t76 -38q57 -27 94 -49t59 -45.5t30.5 -52t8.5 -67.5q0 -47 -16 -84t-48 -63t-82.5 -40t-118.5 -14q-49 0 -94 6.5t-90 18.5zM392 919l40 -91l-204 -76l-31 70z" />
    <glyph glyph-name="Scircumflex" unicode="&#x15c;" 
d="M68 103q44 -11 85 -17t89 -6q78 0 113 25t35 69q0 20 -6 35.5t-23 30t-47.5 31t-80.5 39.5q-54 25 -89.5 47t-57 45t-30 51.5t-8.5 68.5q0 41 14.5 75.5t45.5 59t79 37.5t117 13q48 0 87.5 -6t73.5 -16l-12 -90q-36 9 -70.5 14.5t-80.5 5.5q-38 0 -64 -6t-43 -16.5
t-25 -25.5t-8 -34t6 -33.5t23 -28.5t46 -30t76 -38q57 -27 94 -49t59 -45.5t30.5 -52t8.5 -67.5q0 -47 -16 -84t-48 -63t-82.5 -40t-118.5 -14q-49 0 -94 6.5t-90 18.5zM281 911l156 -87l-35 -69l-125 59l-122 -59l-34 69z" />
    <glyph glyph-name="Scaron" unicode="&#x160;" 
d="M68 103q44 -11 85 -17t89 -6q78 0 113 25t35 69q0 20 -6 35.5t-23 30t-47.5 31t-80.5 39.5q-54 25 -89.5 47t-57 45t-30 51.5t-8.5 68.5q0 41 14.5 75.5t45.5 59t79 37.5t117 13q48 0 87.5 -6t73.5 -16l-12 -90q-36 9 -70.5 14.5t-80.5 5.5q-38 0 -64 -6t-43 -16.5
t-25 -25.5t-8 -34t6 -33.5t23 -28.5t46 -30t76 -38q57 -27 94 -49t59 -45.5t30.5 -52t8.5 -67.5q0 -47 -16 -84t-48 -63t-82.5 -40t-118.5 -14q-49 0 -94 6.5t-90 18.5zM158 907l125 -59l122 59l34 -69l-160 -87l-156 87z" />
    <glyph glyph-name="Scommaaccent" unicode="&#x218;" 
d="M68 103q44 -11 85 -17t89 -6q78 0 113 25t35 69q0 20 -6 35.5t-23 30t-47.5 31t-80.5 39.5q-54 25 -89.5 47t-57 45t-30 51.5t-8.5 68.5q0 41 14.5 75.5t45.5 59t79 37.5t117 13q48 0 87.5 -6t73.5 -16l-12 -90q-36 9 -70.5 14.5t-80.5 5.5q-38 0 -64 -6t-43 -16.5
t-25 -25.5t-8 -34t6 -33.5t23 -28.5t46 -30t76 -38q57 -27 94 -49t59 -45.5t30.5 -52t8.5 -67.5q0 -47 -16 -84t-48 -63t-82.5 -40t-118.5 -14q-49 0 -94 6.5t-90 18.5zM110 -167q13 4 28 9t29.5 10.5t28 11t24.5 9.5v10v9q0 23 14 32.5t41 9.5q32 0 44 -14t12 -46
q0 -17 -5.5 -28.5t-19.5 -19.5t-38.5 -14.5t-64.5 -13.5q-22 -4 -44 -7.5t-42 -5.5z" />
    <glyph glyph-name="T" unicode="T" 
d="M215 597h-192v98h504v-98h-191v-597h-121v597z" />
    <glyph glyph-name="Tbar" unicode="&#x166;" 
d="M215 298h-135v88h135v211h-192v98h504v-98h-191v-211h134v-88h-134v-298h-121v298z" />
    <glyph glyph-name="Tcaron" unicode="&#x164;" 
d="M215 597h-192v98h504v-98h-191v-597h-121v597zM152 907l125 -59l122 59l34 -69l-160 -87l-156 87z" />
    <glyph glyph-name="Tcommaaccent" unicode="&#x21a;" 
d="M215 597h-192v98h504v-98h-191v-597h-121v597zM112 -167q13 4 28 9t29.5 10.5t28 11t24.5 9.5v10v9q0 23 14 32.5t41 9.5q32 0 44 -14t12 -46q0 -17 -5.5 -28.5t-19.5 -19.5t-38.5 -14.5t-64.5 -13.5q-22 -4 -44 -7.5t-42 -5.5z" />
    <glyph glyph-name="uni0162" unicode="&#x162;" 
d="M215 597h-192v98h504v-98h-191v-597h-27l-4 -45q53 -2 77 -21.5t24 -57.5q0 -48 -35.5 -72.5t-99.5 -24.5q-21 0 -41 1.5t-37 5.5l8 57q15 -3 30.5 -4.5t28.5 -1.5q57 0 57 35q0 16 -12 23t-43 7h-36l10 98h-21v597z" />
    <glyph glyph-name="U" unicode="U" 
d="M169 695v-458q0 -39 4.5 -68.5t16.5 -49t32.5 -29t53.5 -9.5q32 0 52.5 9.5t32.5 29t16 49t4 67.5v459h122v-452q0 -59 -11.5 -107t-38.5 -81t-71.5 -51t-109.5 -18q-66 0 -108.5 16.5t-68.5 48t-36.5 78t-10.5 105.5v461h121z" />
    <glyph glyph-name="Uogonek" unicode="&#x172;" 
d="M169 695v-458q0 -39 4.5 -68.5t16.5 -49t32.5 -29t53.5 -9.5q32 0 52.5 9.5t32.5 29.5t16 49t4 68v458h122v-452q0 -49 -7.5 -87.5t-21 -67.5t-35.5 -49t-50 -36q-21 -11 -37.5 -24.5t-28.5 -28t-17.5 -29.5t-5.5 -29q0 -19 9.5 -28t29.5 -9q14 0 31 3.5t35 8.5l13 -72
q-25 -8 -50.5 -12.5t-53.5 -4.5q-54 0 -84 22.5t-30 68.5q0 20 6.5 37.5t17 32t23.5 27t26 22.5q-5 -1 -9.5 -1h-9.5q-50 0 -89 13t-64.5 42.5t-39 77t-13.5 114.5v461h121z" />
    <glyph glyph-name="Ugrave" unicode="&#xd9;" 
d="M169 695v-458q0 -39 4.5 -68.5t16.5 -49t32.5 -29t53.5 -9.5q32 0 52.5 9.5t32.5 29t16 49t4 67.5v459h122v-452q0 -59 -11.5 -107t-38.5 -81t-71.5 -51t-109.5 -18q-66 0 -108.5 16.5t-68.5 48t-36.5 78t-10.5 105.5v461h121zM144 919l195 -97l-31 -70l-204 76z" />
    <glyph glyph-name="Uacute" unicode="&#xda;" 
d="M169 695v-458q0 -39 4.5 -68.5t16.5 -49t32.5 -29t53.5 -9.5q32 0 52.5 9.5t32.5 29t16 49t4 67.5v459h122v-452q0 -59 -11.5 -107t-38.5 -81t-71.5 -51t-109.5 -18q-66 0 -108.5 16.5t-68.5 48t-36.5 78t-10.5 105.5v461h121zM400 919l40 -91l-204 -76l-31 70z" />
    <glyph glyph-name="Ucircumflex" unicode="&#xdb;" 
d="M169 695v-458q0 -39 4.5 -68.5t16.5 -49t32.5 -29t53.5 -9.5q32 0 52.5 9.5t32.5 29t16 49t4 67.5v459h122v-452q0 -59 -11.5 -107t-38.5 -81t-71.5 -51t-109.5 -18q-66 0 -108.5 16.5t-68.5 48t-36.5 78t-10.5 105.5v461h121zM277 911l156 -87l-35 -69l-125 59l-122 -59
l-34 69z" />
    <glyph glyph-name="Udieresis" unicode="&#xdc;" 
d="M169 695v-458q0 -39 4.5 -68.5t16.5 -49t32.5 -29t53.5 -9.5q32 0 52.5 9.5t32.5 29t16 49t4 67.5v459h122v-452q0 -59 -11.5 -107t-38.5 -81t-71.5 -51t-109.5 -18q-66 0 -108.5 16.5t-68.5 48t-36.5 78t-10.5 105.5v461h121zM223 830q0 -18 -3.5 -30.5t-10.5 -20
t-19.5 -10.5t-31.5 -3q-18 0 -31 3t-20 10.5t-10.5 20t-3.5 30.5t3.5 30t10.5 19.5t20 10.5t31 3q38 0 51.5 -13.5t13.5 -49.5zM457 830q0 -18 -3.5 -30.5t-10.5 -20t-20 -10.5t-31 -3q-19 0 -32 3t-19.5 10.5t-10 20t-3.5 30.5t3.5 30t10 19.5t19.5 10.5t32 3
q37 0 51 -13.5t14 -49.5z" />
    <glyph glyph-name="Utilde" unicode="&#x168;" 
d="M169 695v-458q0 -39 4.5 -68.5t16.5 -49t32.5 -29t53.5 -9.5q32 0 52.5 9.5t32.5 29t16 49t4 67.5v459h122v-452q0 -59 -11.5 -107t-38.5 -81t-71.5 -51t-109.5 -18q-66 0 -108.5 16.5t-68.5 48t-36.5 78t-10.5 105.5v461h121zM100 820q19 28 46.5 47.5t70.5 19.5
q22 0 38 -5.5t30 -12t27 -12t28 -5.5q19 0 33 9t27 25l50 -50q-19 -28 -46.5 -47.5t-70.5 -19.5q-22 0 -38 5.5t-30 12t-27 12t-28 5.5q-19 0 -33 -9t-27 -25z" />
    <glyph glyph-name="Ubreve" unicode="&#x16c;" 
d="M169 695v-458q0 -39 4.5 -68.5t16.5 -49t32.5 -29t53.5 -9.5q32 0 52.5 9.5t32.5 29t16 49t4 67.5v459h122v-452q0 -59 -11.5 -107t-38.5 -81t-71.5 -51t-109.5 -18q-66 0 -108.5 16.5t-68.5 48t-36.5 78t-10.5 105.5v461h121zM205 893q2 -26 20 -43t52 -17t50.5 17
t18.5 43h79q0 -29 -9.5 -54.5t-29 -44t-47.5 -29t-66 -10.5q-37 0 -64.5 10.5t-46.5 29t-28 44t-9 54.5h80z" />
    <glyph glyph-name="Umacron" unicode="&#x16a;" 
d="M169 695v-458q0 -39 4.5 -68.5t16.5 -49t32.5 -29t53.5 -9.5q32 0 52.5 9.5t32.5 29t16 49t4 67.5v459h122v-452q0 -59 -11.5 -107t-38.5 -81t-71.5 -51t-109.5 -18q-66 0 -108.5 16.5t-68.5 48t-36.5 78t-10.5 105.5v461h121zM113 868h325v-80h-325v80z" />
    <glyph glyph-name="Ucaron" unicode="&#x1d3;" 
d="M169 695v-458q0 -39 4.5 -68.5t16.5 -49t32.5 -29t53.5 -9.5q32 0 52.5 9.5t32.5 29t16 49t4 67.5v459h122v-452q0 -59 -11.5 -107t-38.5 -81t-71.5 -51t-109.5 -18q-66 0 -108.5 16.5t-68.5 48t-36.5 78t-10.5 105.5v461h121zM152 907l125 -59l122 59l34 -69l-160 -87
l-156 87z" />
    <glyph glyph-name="Uring" unicode="&#x16e;" 
d="M169 695v-458q0 -39 4.5 -68.5t16.5 -49t32.5 -29t53.5 -9.5q32 0 52.5 9.5t32.5 29t16 49t4 67.5v459h122v-452q0 -59 -11.5 -107t-38.5 -81t-71.5 -51t-109.5 -18q-66 0 -108.5 16.5t-68.5 48t-36.5 78t-10.5 105.5v461h121zM392 838q0 -49 -32.5 -79.5t-83.5 -30.5
t-83.5 30.5t-32.5 79.5t32.5 79.5t83.5 30.5q24 0 45.5 -8t37 -22.5t24.5 -35t9 -44.5zM324 838q0 22 -13 36t-35 14t-35 -14t-13 -36q0 -23 13 -36t35 -13t35 13t13 36z" />
    <glyph glyph-name="Uhungarumlaut" unicode="&#x170;" 
d="M169 695v-458q0 -39 4.5 -68.5t16.5 -49t32.5 -29t53.5 -9.5q32 0 52.5 9.5t32.5 29t16 49t4 67.5v459h122v-452q0 -59 -11.5 -107t-38.5 -81t-71.5 -51t-109.5 -18q-66 0 -108.5 16.5t-68.5 48t-36.5 78t-10.5 105.5v461h121zM269 941l61 -66l-166 -127l-47 49zM493 931
l51 -76l-182 -107l-43 57z" />
    <glyph glyph-name="V" unicode="V" 
d="M9 695h127l93 -380q13 -52 25 -111t24 -124h2q13 65 24.5 123.5t24.5 111.5l94 380h118l-175 -695h-181z" />
    <glyph glyph-name="W" unicode="W" 
d="M0 695h102l38 -400q2 -26 3.5 -47t3 -44.5t3 -48t2.5 -51.5h4q2 26 4.5 52t6.5 53l42 326h132l42 -326q3 -27 6 -53t5 -52h4q1 27 2.5 51.5t2.5 48t3 44.5t4 47l38 400h102l-67 -695h-158l-42 324q-2 15 -3 25.5t-1.5 21t-1 22t-1.5 26.5h-3q-1 -15 -1.5 -26.5t-1.5 -22
l-2 -21t-3 -25.5l-42 -324h-156z" />
    <glyph glyph-name="Wcircumflex" unicode="&#x174;" 
d="M0 695h102l38 -400q2 -26 3.5 -47t3 -44.5t3 -48t2.5 -51.5h4q2 26 4.5 52t6.5 53l42 326h132l42 -326q3 -27 6 -53t5 -52h4q1 27 2.5 51.5t2.5 48t3 44.5t4 47l38 400h102l-67 -695h-158l-42 324q-2 15 -3 25.5t-1.5 21t-1 22t-1.5 26.5h-3q-1 -15 -1.5 -26.5t-1.5 -22
l-2 -21t-3 -25.5l-42 -324h-156zM277 911l156 -87l-35 -69l-125 59l-122 -59l-34 69z" />
    <glyph glyph-name="X" unicode="X" 
d="M184 354l-167 341h136l131 -271l2 2q10 25 19 45.5t21 43.5l84 180h123l-169 -341l177 -354h-137l-140 284l-2 -2q-11 -23 -19 -43t-19 -42l-92 -197h-123z" />
    <glyph glyph-name="Y" unicode="Y" 
d="M213 249l-206 446h124l91 -186q9 -20 16 -36.5t14 -32t12.5 -31.5t13.5 -34h3q15 38 27 67.5t27 66.5l85 186h123l-209 -447v-248h-121v249z" />
    <glyph glyph-name="Yacute" unicode="&#xdd;" 
d="M213 249l-206 446h124l91 -186q9 -20 16 -36.5t14 -32t12.5 -31.5t13.5 -34h3q15 38 27 67.5t27 66.5l85 186h123l-209 -447v-248h-121v249zM400 919l40 -91l-204 -76l-31 70z" />
    <glyph glyph-name="Ycircumflex" unicode="&#x176;" 
d="M213 249l-206 446h124l91 -186q9 -20 16 -36.5t14 -32t12.5 -31.5t13.5 -34h3q15 38 27 67.5t27 66.5l85 186h123l-209 -447v-248h-121v249zM279 911l156 -87l-35 -69l-125 59l-122 -59l-34 69z" />
    <glyph glyph-name="Ydieresis" unicode="&#x178;" 
d="M213 249l-206 446h124l91 -186q9 -20 16 -36.5t14 -32t12.5 -31.5t13.5 -34h3q15 38 27 67.5t27 66.5l85 186h123l-209 -447v-248h-121v249zM224 830q0 -18 -3.5 -30.5t-10.5 -20t-19.5 -10.5t-31.5 -3q-18 0 -31 3t-20 10.5t-10.5 20t-3.5 30.5t3.5 30t10.5 19.5
t20 10.5t31 3q38 0 51.5 -13.5t13.5 -49.5zM458 830q0 -18 -3.5 -30.5t-10.5 -20t-20 -10.5t-31 -3q-19 0 -32 3t-19.5 10.5t-10 20t-3.5 30.5t3.5 30t10 19.5t19.5 10.5t32 3q37 0 51 -13.5t14 -49.5z" />
    <glyph glyph-name="Ymacron" unicode="&#x232;" 
d="M213 249l-206 446h124l91 -186q9 -20 16 -36.5t14 -32t12.5 -31.5t13.5 -34h3q15 38 27 67.5t27 66.5l85 186h123l-209 -447v-248h-121v249zM115 868h325v-80h-325v80z" />
    <glyph glyph-name="Z" unicode="Z" 
d="M42 77l315 520h-300v98h443v-77l-316 -520h323v-98h-465v77z" />
    <glyph glyph-name="Zacute" unicode="&#x179;" 
d="M42 77l315 520h-300v98h443v-77l-316 -520h323v-98h-465v77zM404 919l40 -91l-204 -76l-31 70z" />
    <glyph glyph-name="Zcaron" unicode="&#x17d;" 
d="M42 77l315 520h-300v98h443v-77l-316 -520h323v-98h-465v77zM167 907l125 -59l122 59l34 -69l-160 -87l-156 87z" />
    <glyph glyph-name="Zdotaccent" unicode="&#x17b;" 
d="M42 77l315 520h-300v98h443v-77l-316 -520h323v-98h-465v77zM353 830q0 -18 -3 -30.5t-10.5 -20t-20 -10.5t-31.5 -3t-31.5 3t-20 10.5t-10.5 20t-3 30.5t3 30t10.5 19.5t20 10.5t31.5 3q38 0 51.5 -13.5t13.5 -49.5z" />
    <glyph glyph-name="grave" unicode="`" 
d="M239 767l141 -150l-52 -58l-159 131z" />
    <glyph glyph-name="grave.cap" 
d="M197 919l195 -97l-31 -70l-204 76z" />
    <glyph glyph-name="acute" unicode="&#xb4;" 
d="M310 767l70 -77l-159 -131l-52 58z" />
    <glyph glyph-name="acute.cap" 
d="M352 919l40 -91l-204 -76l-31 70z" />
    <glyph glyph-name="circumflex" unicode="&#x2c6;" 
d="M274 756l155 -132l-49 -63l-107 85l-106 -83l-47 60z" />
    <glyph glyph-name="circumflex.cap" 
d="M277 911l156 -87l-35 -69l-125 59l-122 -59l-34 69z" />
    <glyph glyph-name="dieresis" unicode="&#xa8;" 
d="M236 655q0 -18 -3 -30.5t-10.5 -20t-20 -10.5t-31.5 -3q-38 0 -52 13.5t-14 50.5t14 50.5t52 13.5q19 0 31.5 -3t20 -10.5t10.5 -20t3 -30.5zM444 655q0 -37 -14 -50.5t-52 -13.5q-19 0 -31.5 3t-20 10.5t-10.5 20t-3 30.5t3 30.5t10.5 20t20 10.5t31.5 3q38 0 52 -13.5
t14 -50.5z" />
    <glyph glyph-name="dieresis.cap" 
d="M223 830q0 -18 -3.5 -30.5t-10.5 -20t-19.5 -10.5t-31.5 -3q-18 0 -31 3t-20 10.5t-10.5 20t-3.5 30.5t3.5 30t10.5 19.5t20 10.5t31 3q38 0 51.5 -13.5t13.5 -49.5zM457 830q0 -18 -3.5 -30.5t-10.5 -20t-20 -10.5t-31 -3q-19 0 -32 3t-19.5 10.5t-10 20t-3.5 30.5
t3.5 30t10 19.5t19.5 10.5t32 3q37 0 51 -13.5t14 -49.5z" />
    <glyph glyph-name="tilde" unicode="&#x2dc;" 
d="M107 631q8 16 19 32t25.5 28.5t32 20t38.5 7.5q19 0 35 -7.5t29.5 -16.5t25.5 -16.5t25 -7.5q17 0 28 13t20 33l58 -42q-8 -16 -19 -32t-25.5 -28t-32 -20t-38.5 -8q-20 0 -35.5 7.5t-29 16.5t-25.5 16t-24 7q-18 0 -29 -12.5t-20 -32.5z" />
    <glyph glyph-name="tilde.cap" 
d="M100 820q19 28 46.5 47.5t70.5 19.5q22 0 38 -5.5t30 -12t27 -12t28 -5.5q19 0 33 9t27 25l50 -50q-19 -28 -46.5 -47.5t-70.5 -19.5q-22 0 -38 5.5t-30 12t-27 12t-28 5.5q-19 0 -33 -9t-27 -25z" />
    <glyph glyph-name="breve" unicode="&#x2d8;" 
d="M214 727q1 -32 16.5 -52t45.5 -20q29 0 44.5 20t15.5 52h79q0 -69 -37 -110.5t-105 -41.5q-67 0 -103 42t-36 110h80z" />
    <glyph glyph-name="breve.cap" 
d="M205 893q2 -26 20 -43t52 -17t50.5 17t18.5 43h79q0 -29 -9.5 -54.5t-29 -44t-47.5 -29t-66 -10.5q-37 0 -64.5 10.5t-46.5 29t-28 44t-9 54.5h80z" />
    <glyph glyph-name="macron" unicode="&#xaf;" 
d="M135 695h279v-87h-279v87z" />
    <glyph glyph-name="macron.cap" 
d="M112 868h325v-80h-325v80z" />
    <glyph glyph-name="caron" unicode="&#x2c7;" 
d="M169 751l107 -85l106 84l47 -60l-155 -133l-154 132z" />
    <glyph glyph-name="caron.cap" 
d="M152 907l125 -59l122 59l34 -69l-160 -87l-156 87z" />
    <glyph glyph-name="apostrophe" unicode="&#x2bc;" 
d="M206 556q7 12 13.5 25t12.5 25.5t11.5 24.5t10.5 23q-9 5 -16 16t-7 36q0 31 11.5 43t45.5 12q32 0 43.5 -12t11.5 -43q0 -18 -3 -31t-12 -27q-14 -26 -36.5 -56t-46.5 -59z" />
    <glyph glyph-name="dotaccent" unicode="&#x2d9;" 
d="M341 655q0 -37 -13.5 -50.5t-52.5 -13.5t-52.5 13.5t-13.5 50.5t13.5 50.5t52.5 13.5t52.5 -13.5t13.5 -50.5z" />
    <glyph glyph-name="dotaccent.cap" 
d="M340 830q0 -18 -3 -30.5t-10.5 -20t-20 -10.5t-31.5 -3t-31.5 3t-20 10.5t-10.5 20t-3 30.5t3 30t10.5 19.5t20 10.5t31.5 3q38 0 51.5 -13.5t13.5 -49.5z" />
    <glyph glyph-name="ring" unicode="&#x2da;" 
d="M387 664q0 -24 -8.5 -45t-23.5 -36t-35 -23.5t-45 -8.5q-50 0 -81 31.5t-31 81.5t31.5 81.5t80.5 31.5q25 0 45.5 -8t35.5 -23.5t23 -36t8 -45.5zM320 664q0 25 -12 39t-33 14t-33 -14t-12 -39q0 -24 12 -38.5t33 -14.5t33 14.5t12 38.5z" />
    <glyph glyph-name="ring.cap" 
d="M391 838q0 -49 -32.5 -79.5t-83.5 -30.5t-83.5 30.5t-32.5 79.5t32.5 79.5t83.5 30.5q24 0 45.5 -8t37 -22.5t24.5 -35t9 -44.5zM323 838q0 22 -13 36t-35 14t-35 -14t-13 -36q0 -23 13 -36t35 -13t35 13t13 36z" />
    <glyph glyph-name="hungarumlaut" unicode="&#x2dd;" 
d="M201 769l77 -53l-134 -161l-58 40zM391 760l72 -60l-150 -145l-54 45z" />
    <glyph glyph-name="hungarumlaut.cap" 
d="M213 941l61 -66l-166 -127l-47 49zM437 931l51 -76l-182 -107l-43 57z" />
    <glyph glyph-name="uni0315" unicode="&#x315;" 
d="M240 786l99 -15l-53 -213l-76 11z" />
    <glyph glyph-name="uni0312" unicode="&#x312;" 
d="M377 677q-13 -4 -28 -8.5t-29.5 -10.5t-28 -11t-25.5 -9q1 -5 1 -10v-9q0 -23 -14 -32.5t-41 -9.5q-32 0 -44 13.5t-12 46.5q0 17 5.5 28.5t19.5 19.5t38.5 14.5t64.5 12.5q22 5 44 8.5t41 5.5z" />
    <glyph glyph-name="uni0326" unicode="&#x326;" 
d="M158 -167q13 4 28 9t29.5 10.5t28 11t24.5 9.5v10v9q0 23 14 32.5t41 9.5q32 0 44 -14t12 -46q0 -17 -5.5 -28.5t-19.5 -19.5t-38.5 -14.5t-64.5 -13.5q-22 -4 -44 -7.5t-42 -5.5z" />
    <glyph glyph-name="ogonek" unicode="&#x2db;" 
d="M364 0q-21 -14 -39.5 -27.5t-31 -27t-20 -26.5t-7.5 -27q0 -19 10 -28.5t32 -9.5q14 0 31 3t34 8l13 -69q-25 -8 -51 -13t-53 -5q-54 0 -83 22.5t-29 69.5q0 20 7.5 38.5t20 34t29.5 30t36 27.5h101z" />
    <glyph glyph-name="ogonek.cap" 
d="M366 0q-22 -14 -40 -27.5t-30.5 -27.5t-20 -27t-7.5 -27q0 -19 10 -27.5t31 -8.5q14 0 30.5 3.5t33.5 8.5l13 -72q-25 -8 -50.5 -12.5t-52.5 -4.5q-55 0 -84 22.5t-29 68.5q0 21 7.5 39.5t20 34.5t29.5 30.5t36 26.5h103z" />
    <glyph glyph-name="cedilla" unicode="&#xb8;" 
d="M288 0l-5 -46q47 -2 71 -21.5t24 -56.5q0 -45 -34 -70.5t-96 -25.5q-42 0 -75 7l7 56q15 -2 28.5 -3.5t27.5 -1.5q28 0 41.5 9t13.5 25t-12.5 23.5t-43.5 7.5h-30l12 97h71z" />
    <glyph glyph-name="cedilla.cap" 
d="M284 0l-4 -45q52 -2 76.5 -21.5t24.5 -57.5q0 -48 -35.5 -72.5t-98.5 -24.5q-21 0 -41.5 1.5t-37.5 5.5l8 57q15 -3 30 -4.5t29 -1.5q58 0 58 35q0 16 -12.5 23t-43.5 7h-37l10 98h74z" />
    <glyph glyph-name="period" unicode="." 
d="M355 71q0 -22 -3.5 -37.5t-13 -25t-25 -13t-38.5 -3.5t-38.5 3.5t-25 13t-13 25t-3.5 37.5t3.5 37.5t13 24t25 12.5t38.5 4t38.5 -4t25 -12.5t13 -24t3.5 -37.5z" />
    <glyph glyph-name="comma" unicode="," 
d="M91 -152q40 41 73.5 78.5t60.5 75.5q-15 8 -22 23t-7 46q0 22 3.5 36.5t13 23.5t25 13.5t38.5 4.5q24 0 39.5 -4.5t24.5 -13.5t12.5 -23.5t3.5 -36.5q0 -29 -5 -45.5t-17 -33.5q-11 -17 -32 -40t-47.5 -49t-57 -52t-60.5 -51z" />
    <glyph glyph-name="colon" unicode=":" 
d="M355 71q0 -22 -3.5 -37.5t-13 -25t-25 -13t-38.5 -3.5t-38.5 3.5t-25 13t-13 25t-3.5 37.5t3.5 37.5t13 24t25 12.5t38.5 4t38.5 -4t25 -12.5t13 -24t3.5 -37.5zM355 384q0 -22 -3.5 -37t-13 -24.5t-25 -13.5t-38.5 -4t-38.5 4t-25 13.5t-13 24.5t-3.5 37q0 23 3.5 38
t13 24.5t25 13t38.5 3.5t38.5 -3.5t25 -13t13 -24.5t3.5 -38z" />
    <glyph glyph-name="semicolon" unicode=";" 
d="M355 384q0 -22 -3.5 -37t-13 -24.5t-25 -13.5t-38.5 -4t-38.5 4t-25 13.5t-13 24.5t-3.5 37q0 23 3.5 38t13 24.5t25 13t38.5 3.5t38.5 -3.5t25 -13t13 -24.5t3.5 -38zM90 -152q39 41 73 78.5t61 75.5q-15 8 -22 23t-7 46q0 22 3.5 36.5t12.5 23.5t24.5 13.5t39.5 4.5
q23 0 39 -4.5t25 -13.5t12.5 -23.5t3.5 -36.5q0 -29 -6 -45.5t-16 -33.5q-11 -17 -32.5 -40t-48 -49t-57 -52t-60.5 -51z" />
    <glyph glyph-name="ellipsis" unicode="&#x2026;" 
d="M155 55q0 -17 -2.5 -29t-9 -20t-18 -11t-28.5 -3q-37 0 -48 14t-11 49q0 37 11 50.5t48 13.5q17 0 28.5 -3.5t18 -10.5t9 -19.5t2.5 -30.5zM334 55q0 -17 -2.5 -29t-9.5 -20t-18 -11t-29 -3q-36 0 -47.5 14t-11.5 49q0 37 11.5 50.5t47.5 13.5q18 0 29 -3.5t18 -10.5
t9.5 -19.5t2.5 -30.5zM512 55q0 -17 -2.5 -29t-8.5 -20t-17.5 -11t-30.5 -3q-36 0 -47 14t-11 49q0 37 11 50.5t47 13.5q19 0 30.5 -3.5t17.5 -10.5t8.5 -19.5t2.5 -30.5z" />
    <glyph glyph-name="periodcentered" unicode="&#xb7;" 
d="M355 260q0 -22 -3.5 -37.5t-13 -25t-25 -13t-38.5 -3.5t-38.5 3.5t-25 13t-13 25t-3.5 37.5t3.5 37.5t13 25t25 13t38.5 3.5t38.5 -3.5t25 -13t13 -25t3.5 -37.5z" />
    <glyph glyph-name="bullet" unicode="&#x2022;" 
d="M386 357q0 -32 -5.5 -54t-18.5 -35t-34.5 -18.5t-52.5 -5.5t-52.5 5.5t-34.5 18.5t-18.5 35t-5.5 54q0 33 5.5 54.5t18.5 35t34.5 19.5t52.5 6t52.5 -6t34.5 -19.5t18.5 -35t5.5 -54.5z" />
    <glyph glyph-name="hyphen" unicode="-" 
d="M111 317h328v-103h-328v103z" />
    <glyph glyph-name="uni00AD" unicode="&#xad;" 
d="M111 317h328v-103h-328v103z" />
    <glyph glyph-name="endash" unicode="&#x2013;" 
d="M42 317h466v-103h-466v103z" />
    <glyph glyph-name="emdash" unicode="&#x2014;" 
d="M0 317h550v-103h-550v103z" />
    <glyph glyph-name="uni2015" unicode="&#x2015;" 
d="M0 317h550v-103h-550v103z" />
    <glyph glyph-name="underscore" unicode="_" 
d="M0 -131h550v-99h-550v99z" />
    <glyph glyph-name="exclam" unicode="!" 
d="M209 738h132l-14 -474h-104zM350 65q0 -22 -3.5 -36t-11.5 -22.5t-23 -11.5t-37 -3t-37 3t-23 11.5t-11.5 22.5t-3.5 36q0 21 3.5 35.5t11.5 22.5t23 12t37 4t37 -4t23 -12t11.5 -22.5t3.5 -35.5z" />
    <glyph glyph-name="exclamdown" unicode="&#xa1;" 
d="M341 -212h-132l14 481h104zM200 469q0 21 3.5 35t11.5 22.5t23 12t37 3.5t37 -3.5t23 -12t11.5 -22.5t3.5 -35q0 -22 -3.5 -36t-11.5 -22.5t-23 -11.5t-37 -3t-37 3t-23 11.5t-11.5 22.5t-3.5 36z" />
    <glyph glyph-name="question" unicode="?" 
d="M184 303q-1 25 2 45t13 39.5t29 39.5t51 43q22 17 38 30.5t25 27t13.5 27t4.5 29.5q0 35 -27.5 53t-85.5 18q-39 0 -77.5 -6t-76.5 -17l-15 88q44 12 91 19t99 7q106 0 159 -37t53 -108q0 -29 -5 -51.5t-17 -43t-31 -40.5t-47 -42q-25 -20 -42 -34.5t-27.5 -29t-15.5 -29
t-5 -32.5l-1 -35h-104zM312 65q0 -22 -3 -36t-11.5 -22.5t-23.5 -11.5t-37 -3t-36.5 3t-23 11.5t-11.5 22.5t-3 36q0 21 3 35.5t11.5 22.5t23 12t36.5 4t37 -4t23.5 -12t11.5 -22.5t3 -35.5z" />
    <glyph glyph-name="questiondown" unicode="&#xbf;" 
d="M379 232q1 -26 -2.5 -47.5t-13.5 -41t-29.5 -40t-49.5 -43.5q-23 -17 -38.5 -31t-25 -27.5t-14 -27.5t-4.5 -30q0 -35 27.5 -53.5t85.5 -18.5q40 0 78.5 6t76.5 16l14 -88q-44 -12 -90.5 -19.5t-99.5 -7.5q-106 0 -158.5 38t-52.5 110q0 29 5 52t16.5 44t31 40.5
t47.5 42.5q25 19 42 34.5t27.5 30.5t15.5 30t5 35l2 34h103zM251 469q0 21 3 35.5t11.5 22.5t23 11.5t36.5 3.5t37 -3.5t23.5 -11.5t12 -22.5t3.5 -35.5q0 -22 -3.5 -36t-12 -22.5t-23.5 -11.5t-37 -3t-36.5 3t-23 11.5t-11.5 22.5t-3 36z" />
    <glyph glyph-name="quotesingle" unicode="'" 
d="M219 738h112l-12 -268h-88z" />
    <glyph glyph-name="quotedbl" unicode="&#x22;" 
d="M321 738h112l-12 -268h-88zM118 738h112l-12 -268h-88z" />
    <glyph glyph-name="quotesinglbase" unicode="&#x201a;" 
d="M91 -152q40 41 73.5 78.5t60.5 75.5q-15 8 -22 23t-7 46q0 22 3.5 36.5t13 23.5t25 13.5t38.5 4.5q24 0 39.5 -4.5t24.5 -13.5t12.5 -23.5t3.5 -36.5q0 -29 -5 -45.5t-17 -33.5q-11 -17 -32 -40t-47.5 -49t-57 -52t-60.5 -51z" />
    <glyph glyph-name="quoteright" unicode="&#x2019;" 
d="M126 457q40 41 73.5 78.5t60.5 75.5q-15 8 -22 23t-7 46q0 22 3.5 36.5t13 23.5t25 13.5t38.5 4.5q24 0 39.5 -4.5t24.5 -13.5t12.5 -23.5t3.5 -36.5q0 -29 -5 -45.5t-17 -33.5q-11 -17 -32 -40t-47.5 -49t-57 -52t-60.5 -51z" />
    <glyph glyph-name="quoteleft" unicode="&#x2018;" 
d="M448 746q-39 -41 -73 -78.5t-61 -75.5q15 -8 22 -23.5t7 -45.5q0 -22 -3.5 -37t-12.5 -24.5t-25 -13.5t-39 -4q-24 0 -39.5 4t-24.5 13.5t-12.5 24.5t-3.5 37q0 27 5.5 44.5t16.5 33.5q11 17 32.5 40.5t48 49t57 52t60.5 50.5z" />
    <glyph glyph-name="quotedblbase" unicode="&#x201e;" 
d="M13 -149q36 40 64 75t53 75q-14 8 -20 20.5t-6 40.5q0 40 14 55t53 15q20 0 33.5 -3.5t21 -11.5t10.5 -21.5t3 -33.5q0 -26 -4.5 -42.5t-16.5 -32.5q-12 -18 -29.5 -39.5t-38 -44.5t-44.5 -47t-50 -47zM239 -149q35 40 63 75t54 75q-14 8 -20.5 20.5t-6.5 40.5
q0 40 14.5 55t52.5 15q20 0 33.5 -3.5t21.5 -11.5t11 -21.5t3 -33.5q0 -26 -4.5 -42.5t-16.5 -32.5q-12 -18 -29.5 -39.5t-38 -44.5t-45 -47t-49.5 -47z" />
    <glyph glyph-name="quotedblright" unicode="&#x201d;" 
d="M42 478q36 40 64 75t53 75q-14 8 -20 20.5t-6 40.5q0 40 14 55t53 15q20 0 33.5 -3.5t21 -11.5t10.5 -21.5t3 -33.5q0 -26 -4.5 -42.5t-16.5 -32.5q-12 -18 -29.5 -39.5t-38 -44.5t-44.5 -47t-50 -47zM268 478q35 40 63 75t54 75q-14 8 -20.5 20.5t-6.5 40.5
q0 40 14.5 55t52.5 15q20 0 33.5 -3.5t21.5 -11.5t11 -21.5t3 -33.5q0 -26 -4.5 -42.5t-16.5 -32.5q-12 -18 -29.5 -39.5t-38 -44.5t-45 -47t-49.5 -47z" />
    <glyph glyph-name="quotedblleft" unicode="&#x201c;" 
d="M527 736q-36 -39 -63.5 -74t-53.5 -75q14 -9 20 -21.5t6 -40.5q0 -39 -14 -54.5t-53 -15.5q-20 0 -33 3.5t-21 12t-11 21.5t-3 33q0 26 4.5 43t15.5 33q12 18 29.5 39.5t38.5 44.5t45 46.5t50 46.5zM301 736q-35 -39 -63 -74t-54 -75q14 -9 20 -21.5t6 -40.5
q0 -39 -13.5 -54.5t-53.5 -15.5q-20 0 -33 3.5t-21 12t-11 21.5t-3 33q0 26 5 43t15 33q12 18 29.5 39.5t39 44.5t45 46.5t50.5 46.5z" />
    <glyph glyph-name="guilsinglleft" unicode="&#x2039;" 
d="M90 247l271 235l70 -63l-192 -171l192 -172l-70 -65z" />
    <glyph glyph-name="guilsinglright" unicode="&#x203a;" 
d="M460 245l-271 -234l-70 63l192 170l-192 172l70 66z" />
    <glyph glyph-name="guillemotleft" unicode="&#xab;" 
d="M268 247l139 224l92 -43l-104 -180l104 -182l-92 -44zM46 247l148 235l91 -42l-109 -192l110 -195l-92 -43z" />
    <glyph glyph-name="guillemotright" unicode="&#xbb;" 
d="M283 245l-139 -223l-91 42l103 180l-104 183l92 44zM505 245l-148 -235l-91 42l109 192l-110 196l92 42z" />
    <glyph glyph-name="parenleft" unicode="(" 
d="M375 -183q-53 56 -94 113t-68 117.5t-41 125.5t-14 138t14 138.5t41 126.5t68 117.5t94 112.5l80 -49q-47 -52 -81.5 -104t-58 -106t-34.5 -112.5t-11 -123.5q0 -64 11.5 -122.5t34.5 -112.5t58 -105.5t82 -103.5z" />
    <glyph glyph-name="parenright" unicode=")" 
d="M95 -134q46 52 81 103.5t58.5 106t34.5 113.5t11 123q0 65 -11.5 123t-34.5 112t-58.5 106t-81.5 103l81 50q53 -56 94 -112.5t68 -117.5t41 -126t14 -138t-14 -138.5t-41 -126t-68 -117.5t-94 -113z" />
    <glyph glyph-name="braceleft" unicode="{" 
d="M481 -158q-9 -2 -21 -2.5t-28 -0.5q-106 0 -156 43t-50 137v104q0 28 -8 50.5t-26.5 39t-48.5 28t-73 16.5v89q43 6 73 17.5t48.5 28t26.5 38.5t8 48v102q0 92 49 132t157 40q16 0 28 -0.5t21 -1.5v-81q-44 0 -72.5 -5t-45 -16.5t-23 -30t-6.5 -46.5v-101q0 -34 -6.5 -60
t-22.5 -45.5t-40 -34t-60 -26.5q36 -11 60 -26t40 -36t22.5 -50t6.5 -67v-104q0 -27 7 -46.5t23.5 -31t45 -16.5t71.5 -5v-80z" />
    <glyph glyph-name="braceright" unicode="}" 
d="M69 -78q44 0 72.5 5t45 16.5t23 30.5t6.5 47v113q0 33 6.5 59t22.5 46t40 34.5t60 25.5q-36 10 -60 25.5t-40 36.5t-22.5 50t-6.5 67v91q0 28 -7 47t-23.5 31t-45 17t-71.5 5v81q9 1 21 1.5t28 0.5q105 0 155.5 -43t50.5 -137v-92q0 -28 8 -50t26.5 -39t48.5 -28t73 -17
v-89q-43 -5 -73 -17t-48.5 -28t-26.5 -38t-8 -49v-114q0 -92 -49 -132t-157 -40q-16 0 -28 0.5t-21 2.5v80z" />
    <glyph glyph-name="bracketleft" unicode="[" 
d="M150 752h299v-83h-193v-747h193v-83h-299v913z" />
    <glyph glyph-name="bracketright" unicode="]" 
d="M101 -78h193v747h-193v83h299v-913h-299v83z" />
    <glyph glyph-name="slash" unicode="/" 
d="M387 738h111l-360 -849h-110z" />
    <glyph glyph-name="backslash" unicode="\" 
d="M52 738h111l359 -849h-110z" />
    <glyph glyph-name="bar" unicode="|" 
d="M217 738h116v-950h-116v950z" />
    <glyph glyph-name="brokenbar" unicode="&#xa6;" 
d="M217 738h116v-385h-116v385zM217 164h116v-376h-116v376z" />
    <glyph glyph-name="ampersand" unicode="&#x26;" 
d="M544 43l-84 -61l-55 72q-33 -33 -76.5 -50.5t-97.5 -17.5q-48 0 -86 14t-64.5 40t-40.5 63t-14 82q0 33 8.5 63.5t24.5 57t37 50.5t47 44q-13 18 -26 38.5t-22 42.5t-14.5 44.5t-5.5 46.5q0 86 48.5 133t145.5 47q45 0 78 -11t54.5 -30t31.5 -46.5t10 -59.5
q0 -34 -11 -63t-31 -55l-79 55q8 14 10.5 27.5t2.5 28.5q0 13 -4 25t-12.5 20.5t-22 14t-32.5 5.5q-39 0 -60 -22.5t-21 -67.5q0 -19 4.5 -36.5t14 -36t24.5 -39.5t35 -47l140 -184q8 27 12 61.5t5 83.5h97q-2 -63 -13.5 -123.5t-34.5 -108.5zM201 322q-30 -25 -47.5 -57
t-17.5 -75q0 -25 7.5 -46t21 -36t33 -23.5t43.5 -8.5q35 0 62 13t48 36z" />
    <glyph glyph-name="at" unicode="@" 
d="M316 621q-40 0 -74.5 -18t-60.5 -61t-40.5 -114t-14.5 -177q0 -77 10 -134t31.5 -95t55.5 -57t82 -19q29 0 53 5.5t47 12.5l8 -84q-27 -9 -58 -15t-66 -6q-68 0 -117.5 26t-81 75.5t-46.5 121t-15 162.5q0 129 21.5 217.5t61 143.5t94.5 79.5t123 24.5q51 0 86 -15
t56.5 -42t30.5 -64t9 -80v-393h-81l-6 42q-25 -22 -52.5 -36.5t-64.5 -14.5q-55 0 -87.5 40t-32.5 122q0 44 11 78.5t35 58t61 36.5t89 13h27v45q0 27 -4 49.5t-14.5 38.5t-29 25t-46.5 9zM386 376q-27 0 -46 -6.5t-31.5 -19t-17.5 -31t-5 -42.5q0 -42 13.5 -63t34.5 -21
q19 0 36 10.5t40 30.5v142h-24z" />
    <glyph glyph-name="section" unicode="&#xa7;" 
d="M116 -15q30 -8 60.5 -11.5t63.5 -3.5q50 0 74.5 11t24.5 38q0 13 -5 23t-19 20t-40 23t-67 32q-51 24 -82.5 44t-49.5 40t-24 42t-6 48q0 45 23.5 75.5t60.5 53.5q-15 17 -24 38t-9 53q0 71 52 109t158 38q38 0 75 -5.5t66 -13.5l-15 -88q-30 7 -60.5 11t-63.5 4
q-50 0 -74.5 -12t-24.5 -39q0 -13 5 -22.5t19 -19.5t40 -23t67 -33q51 -23 82.5 -43t49.5 -40.5t24 -42t6 -47.5q0 -23 -6.5 -41.5t-17 -34t-26.5 -29t-35 -25.5q19 -17 26.5 -39t7.5 -52q0 -72 -52 -109.5t-158 -37.5q-38 0 -75 5.5t-66 13.5zM263 339q-16 9 -30 15.5
t-25 14.5q-24 -15 -36 -30t-12 -39q0 -12 4 -22.5t17 -22t38 -25.5t67 -34q15 -8 30 -16.5t25 -13.5q23 14 35.5 29t12.5 39q0 12 -4.5 23t-17.5 22.5t-38 26t-66 33.5z" />
    <glyph glyph-name="dagger" unicode="&#x2020;" 
d="M216 383h-157v88h157v174h117v-174h158v-88h-158v-383h-117v383z" />
    <glyph glyph-name="daggerdbl" unicode="&#x2021;" 
d="M216 155h-157v88h157v158h-157v88h157v156h117v-156h158v-88h-158v-158h158v-88h-158v-155h-117v155z" />
    <glyph glyph-name="asterisk" unicode="*" 
d="M253 376l-162 -122l-48 87l190 73l-192 74l51 87l160 -121l-31 191h108l-32 -192l162 122l48 -87l-190 -73l192 -73l-51 -88l-160 121l31 -191h-108z" />
    <glyph glyph-name="uni2117" unicode="&#x2117;" 
d="M164 509h112q72 0 103 -27.5t31 -89.5q0 -69 -34 -102t-106 -33h-22v-128h-84v380zM269 321q29 0 41.5 16t12.5 52q0 30 -12 42t-40 12h-23v-122h21zM542 322q0 -81 -18 -143.5t-52.5 -105t-84.5 -64.5t-113 -22q-128 0 -197 86.5t-69 249.5t70.5 249t197.5 86
q128 0 197 -86.5t69 -249.5zM457 323q0 132 -45 195.5t-138 63.5q-94 0 -137.5 -64t-43.5 -196t45 -195.5t138 -63.5t137 63.5t44 196.5z" />
    <glyph glyph-name="copyright" unicode="&#xa9;" 
d="M373 146q-19 -8 -41.5 -13t-49.5 -5q-34 0 -60.5 9t-44 30.5t-27 59t-9.5 93.5q0 55 10.5 93t30 61t47 33t61.5 10q25 0 46 -4.5t40 -11.5l-11 -73q-17 8 -33.5 10.5t-33.5 2.5t-30 -5t-21.5 -18t-13 -35.5t-4.5 -59.5q0 -36 4.5 -59t13 -36t21.5 -18.5t31 -5.5t34 3.5
t32 10.5zM542 322q0 -81 -18 -143.5t-52.5 -105t-84.5 -64.5t-113 -22q-128 0 -197 86.5t-69 249.5t70.5 249t197.5 86q128 0 197 -86.5t69 -249.5zM457 323q0 132 -45 195.5t-138 63.5q-94 0 -137.5 -64t-43.5 -196t45 -195.5t138 -63.5t137 63.5t44 196.5z" />
    <glyph glyph-name="registered" unicode="&#xae;" 
d="M466 526q0 -85 -51.5 -134t-139.5 -49t-139.5 49t-51.5 134t51.5 134t139.5 49t139.5 -49t51.5 -134zM411 526q0 66 -33.5 101t-102.5 35t-102.5 -35t-33.5 -101t33.5 -101t102.5 -35t102.5 35t33.5 101zM200 627h77q46 0 65 -13.5t19 -42.5q0 -27 -12.5 -41.5
t-32.5 -19.5l46 -83h-57l-42 78h-13v-78h-50v200zM272 539q22 0 29.5 7.5t7.5 20.5t-6.5 18t-27.5 5h-25v-51h22z" />
    <glyph glyph-name="trademark" unicode="&#x2122;" 
d="M72 640h-64v55h189v-55h-60v-292h-65v292zM229 695h97l35 -154l16 -76l16 77l36 153h99l12 -347h-63l-5 211v87l-20 -87l-35 -141h-79l-36 141l-19 87l-1 -87l-4 -211h-62z" />
    <glyph glyph-name="servicemark" unicode="&#x2120;" 
d="M229 695h97l35 -154l16 -76l16 77l36 153h99l12 -347h-63l-5 211v87l-20 -87l-35 -141h-79l-36 141l-19 87l-1 -87l-4 -211h-62zM14 404q15 -5 30.5 -8t32.5 -3q25 0 37 12t12 34q0 20 -12.5 32.5t-42.5 32.5q-16 10 -27.5 20t-19.5 21t-12 25.5t-4 33.5q0 47 27 71.5
t77 24.5q17 0 35 -2.5t30 -7.5l-7 -50q-12 5 -26 7.5t-28 2.5q-24 0 -35 -10t-11 -29q0 -10 2.5 -17.5t8 -14t15.5 -13.5t25 -16q17 -12 30 -22.5t21 -22t12 -26t4 -33.5q0 -47 -28.5 -75t-79.5 -28q-19 0 -38 3t-34 9z" />
    <glyph glyph-name="ordfeminine" unicode="&#xaa;" 
d="M348 540q0 26 -16 37.5t-58 11.5q-31 0 -60 -3.5t-63 -12.5l-11 66q36 9 72 13.5t77 4.5q79 0 113.5 -26t34.5 -77v-256h-73l-5 32q-33 -19 -64 -30.5t-72 -11.5q-26 0 -47 6t-36.5 19.5t-24.5 32.5t-9 45q0 28 9.5 50.5t32.5 38t59.5 24.5t90.5 9h50v27zM301 453
q-32 0 -53.5 -3.5t-34 -10.5t-18 -17t-5.5 -23q0 -24 15 -34.5t41 -10.5t50 9t52 26v64h-47zM109 234h336v-75h-336v75z" />
    <glyph glyph-name="ordmasculine" unicode="&#xba;" 
d="M455 475q0 -52 -12 -88.5t-35.5 -59t-57.5 -33t-78 -10.5q-45 0 -77.5 9.5t-55.5 31t-34 57t-11 86.5q0 52 12 88.5t36 58.5t57.5 32t77.5 10q45 0 78 -9t55.5 -30.5t33.5 -56.5t11 -86zM364 471q0 36 -5 58.5t-15.5 36t-28 18t-40.5 4.5t-40.5 -4.5t-28.5 -18t-16 -36.5
t-5 -59q0 -35 5 -58t16 -36t28.5 -18t40.5 -5t40.5 5.5t28 18.5t15.5 36t5 58zM116 234h318v-75h-318v75z" />
    <glyph glyph-name="uni2116" unicode="&#x2116;" 
d="M14 645h101l95 -379q5 -19 9 -36t7.5 -35.5t7 -38t8.5 -43.5l3 1q-2 24 -4 43.5t-3.5 38t-2 36t-0.5 37.5v376h70v-645h-101l-95 379q-5 19 -9 36t-7.5 35.5t-7 38t-8.5 44.5l-3 -1q2 -25 4 -44.5t3.5 -38t2 -36t0.5 -37.5v-376h-70v645zM541 486q0 -48 -6 -80t-18.5 -52
t-32 -28.5t-46.5 -8.5q-26 0 -44.5 7.5t-30.5 26.5t-17.5 50.5t-5.5 78.5q0 48 6 80.5t18.5 52t31.5 28t45 8.5q27 0 46 -8t31 -26.5t17.5 -50t5.5 -78.5zM476 483q0 35 -2 56.5t-6.5 34t-11 17t-16.5 4.5q-9 0 -16 -4.5t-11 -17t-6 -34.5t-2 -57q0 -34 2 -55.5t6 -33.5
t11 -16t16 -4q10 0 16.5 4t11 16t6.5 34t2 56zM353 284h175v-56h-175v56z" />
    <glyph glyph-name="paragraph" unicode="&#xb6;" 
d="M236 216q-58 1 -96.5 13.5t-61 42t-32 78t-9.5 120.5q0 67 12 110.5t40 69t72.5 35.5t108.5 10h262v-62h-71v-794h-76v794h-73v-794h-76v377z" />
    <glyph glyph-name="numbersign" unicode="#" 
d="M317 168h-137l-27 -168h-75l28 168h-92v66h102l29 176h-94v67h105l27 168h76l-28 -168h137l27 168h74l-27 -168h94v-67h-105l-29 -176h97v-66h-108l-28 -168h-74zM191 234h137l28 176h-136z" />
    <glyph glyph-name="zero" unicode="0" 
d="M511 326q0 -101 -15.5 -167t-45.5 -105t-75 -53.5t-104 -14.5q-60 0 -103.5 13.5t-72 50.5t-42.5 102t-14 167t15 168t45.5 104.5t75 53t104.5 14.5q59 0 103 -13.5t72.5 -50.5t42.5 -101.5t14 -167.5zM210 81q14 -6 28.5 -9t36.5 -3q33 0 58 9t41 36t24 77t8 131
q0 26 -1 49.5t-2.5 44t-4.5 39.5t-7 37zM338 565q-11 5 -26 8t-37 3q-34 0 -58.5 -9t-40.5 -36t-24 -77t-8 -131q0 -26 1 -48.5t2.5 -43.5t4.5 -39.5t6 -35.5z" />
    <glyph glyph-name="one" unicode="1" 
d="M57 97h185v422l-152 -83l-40 76l215 133h95v-548h142v-97h-445v97z" />
    <glyph glyph-name="two" unicode="2" 
d="M50 80l195 212q27 29 47 52t33.5 44.5t20.5 42.5t7 44q0 48 -28.5 70t-90.5 22q-39 0 -73 -5.5t-72 -16.5l-14 89q46 11 90 18t96 7q57 0 98 -10t67.5 -31t38.5 -52.5t12 -74.5q0 -35 -9 -66t-26.5 -60.5t-43.5 -59t-59 -63.5l-136 -142h279v-100h-432v80z" />
    <glyph glyph-name="three" unicode="3" 
d="M62 95q36 -8 74 -12t77 -4q37 0 65 8t47 22.5t29 35t10 46.5t-9 45t-32.5 31.5t-66 18.5t-110.5 6v90q58 0 97.5 10t63 25.5t33.5 34.5t10 38q0 41 -30 58t-88 17q-38 0 -73 -5t-70 -15l-14 89q44 11 91 17t97 6q102 0 153.5 -35t51.5 -103q0 -64 -34.5 -106t-90.5 -65
q30 -5 55 -17t43.5 -30.5t29.5 -44t11 -58.5q0 -46 -16 -84.5t-48 -67t-81 -44t-116 -15.5q-49 0 -91 4.5t-79 12.5z" />
    <glyph glyph-name="four" unicode="4" 
d="M329 147h-290v93l239 405h159v-398h76v-100h-76v-147h-108v147zM329 247v302l-184 -302h184z" />
    <glyph glyph-name="five" unicode="5" 
d="M459 645v-100h-264v-161q23 2 46.5 3.5t49.5 1.5q95 0 147.5 -41.5t52.5 -138.5q0 -51 -16 -92.5t-49 -70t-84 -44t-122 -15.5q-44 0 -81.5 4.5t-73.5 12.5l9 91q36 -8 73 -12t78 -4q42 0 71 8.5t46.5 24t24.5 37.5t7 49q0 54 -31 76.5t-99 22.5q-18 0 -34.5 -0.5
t-33.5 -2t-35.5 -3.5t-41.5 -5v359h360z" />
    <glyph glyph-name="six" unicode="6" 
d="M454 553q-27 6 -55 9t-61 3q-53 0 -83 -16t-45.5 -44t-21 -67t-8.5 -87q33 19 67 29.5t72 10.5q85 0 132.5 -46.5t47.5 -141.5q0 -49 -14 -89t-42.5 -68.5t-70.5 -44t-97 -15.5q-106 0 -158.5 65t-52.5 208q0 99 10.5 173t41 124.5t84.5 75.5t140 25q35 0 67 -3.5
t61 -11.5zM384 198q0 50 -22.5 76t-70.5 26q-28 0 -54 -10.5t-57 -30.5v-25q0 -38 6 -67.5t18 -49t31.5 -30t46.5 -10.5q52 0 77 33.5t25 87.5z" />
    <glyph glyph-name="seven" unicode="7" 
d="M147 0q29 75 56.5 144t55.5 135.5t56 132t59 133.5h-316v100h438v-80q-31 -72 -60 -142t-56.5 -139t-54.5 -139.5t-54 -144.5h-124z" />
    <glyph glyph-name="eight" unicode="8" 
d="M500 178q0 -43 -14.5 -77.5t-43.5 -60.5t-70.5 -40t-95.5 -14q-55 0 -96 12.5t-68.5 35.5t-41 54.5t-13.5 69.5q0 33 11 59t29 47t42.5 37.5t52.5 29.5q-26 15 -46.5 31.5t-35 36.5t-22.5 44.5t-8 55.5q0 34 14 63.5t39.5 51t63.5 33.5t88 12t87 -10.5t62 -30t37 -46.5
t12 -62q0 -29 -8 -54t-23 -45.5t-36 -37.5t-46 -32q27 -14 51 -30t42 -35t27.5 -43.5t9.5 -54.5zM290 388q41 20 60.5 44.5t19.5 60.5q0 15 -5.5 29t-16.5 24t-28 16t-39 6q-44 0 -65 -21.5t-21 -51.5q0 -18 6.5 -32t18 -27t29.5 -24.5t41 -23.5zM269 285
q-45 -20 -69.5 -47.5t-24.5 -66.5q0 -42 28.5 -68t77.5 -26q51 0 78 26.5t27 66.5q0 20 -8.5 36t-24 30t-37 25.5t-47.5 23.5z" />
    <glyph glyph-name="nine" unicode="9" 
d="M73 96q39 -9 69.5 -13t69.5 -4q53 0 83 16t45.5 44t21 68t8.5 88q-33 -20 -67 -30.5t-72 -10.5q-85 0 -132.5 46.5t-47.5 141.5q0 49 14 89.5t42.5 68.5t70.5 43.5t97 15.5q106 0 158.5 -65t52.5 -207q0 -99 -10.5 -174t-41 -125.5t-84.5 -75.5t-140 -25q-42 0 -77.5 4.5
t-74.5 14.5zM166 447q0 -50 22.5 -75.5t70.5 -25.5q28 0 54 10t57 31v24q0 38 -6 67.5t-18 49.5t-31.5 30t-46.5 10q-52 0 -77 -33t-25 -88z" />
    <glyph glyph-name="currency" unicode="&#xa4;" 
d="M98 201q-10 23 -18 56t-8 72q0 37 7 68t17 56l-75 86l65 66l76 -85q21 15 48 25t65 10q37 0 65 -10t48 -25l77 85l65 -66l-78 -87q11 -24 18 -55t7 -68q0 -39 -7 -70.5t-19 -57.5l78 -88l-65 -66l-79 88q-19 -13 -45.5 -23t-64.5 -10q-37 0 -63 10t-46 23l-81 -88l-65 66
zM384 329q0 67 -26.5 104.5t-82.5 37.5t-83 -37.5t-27 -104.5q0 -68 27 -105.5t83 -37.5t82.5 37.5t26.5 105.5z" />
    <glyph glyph-name="dollar" unicode="$" 
d="M161 -8q-12 1 -26.5 4l-29 6t-27 6t-22.5 6l16 90q23 -6 52.5 -12t58.5 -10l49 210q-48 21 -80.5 39.5t-52.5 40t-28.5 48t-8.5 62.5q0 87 61.5 132t175.5 45h19l23 98h81l-25 -105q21 -2 42 -7t41 -10l-18 -89q-18 5 -41 9.5t-46 6.5l-45 -194q49 -21 81.5 -39.5
t52.5 -40.5t28.5 -49t8.5 -65q0 -45 -16.5 -80t-47.5 -59t-75.5 -36.5t-100.5 -12.5h-9.5h-11.5l-22 -97h-81zM390 166q0 14 -4 26.5t-13.5 23.5t-26.5 22t-42 23l-43 -185h11q60 0 89 25t29 65zM171 490q0 -15 4.5 -27t14.5 -22t26.5 -20t40.5 -22l40 170h-11
q-60 0 -87.5 -21.5t-27.5 -57.5z" />
    <glyph glyph-name="Euro" unicode="&#x20ac;" 
d="M114 439q10 63 32 105t56.5 67.5t81 35.5t104.5 10q39 0 73.5 -4.5t60.5 -10.5l-15 -92q-29 8 -57 11.5t-59 3.5q-38 0 -65.5 -6.5t-47 -21.5t-30.5 -39t-16 -59h202v-80h-211v-18v-18v-20v-19h211v-81h-205q5 -39 17.5 -62.5t32.5 -36.5t48 -18.5t64 -5.5q32 0 59.5 4.5
t59.5 12.5l14 -90q-32 -8 -68.5 -13.5t-76.5 -5.5q-60 0 -106 9.5t-78.5 33.5t-52.5 65.5t-29 106.5h-73v81h66v18v19v19v19h-66v80h74z" />
    <glyph glyph-name="cent" unicode="&#xa2;" 
d="M252 93q-49 6 -83.5 22t-57 43.5t-33 67.5t-10.5 95q0 64 17.5 109.5t51 74.5t82 41.5t109.5 12.5l16 96h79l-17 -100q21 -2 40.5 -6t36.5 -9l-12 -88q-19 5 -39.5 8t-39.5 5l-47 -284h3h4q12 0 27.5 1.5t32 3.5t32.5 5t28 6l8 -88q-14 -4 -32.5 -7.5t-37.5 -6.5
t-38.5 -4.5t-34.5 -1.5h-4h-3l-16 -99h-79zM186 324q0 -63 20 -94.5t61 -41.5l46 278q-31 -3 -54.5 -10.5t-39.5 -24t-24.5 -43t-8.5 -64.5z" />
    <glyph glyph-name="sterling" unicode="&#xa3;" 
d="M152 381q-4 16 -8.5 30l-9 28t-7 28.5t-2.5 31.5q0 73 56.5 115.5t168.5 42.5q48 0 80 -4.5t61 -10.5l-12 -90q-31 6 -59 9.5t-65 3.5q-59 0 -86.5 -21t-27.5 -59q0 -15 3 -27.5t7 -25.5t8.5 -25t7.5 -26h189v-93h-176v-10v-10q0 -22 -3 -42.5t-9.5 -42t-16.5 -43
t-23 -44.5h266v-96h-445v96h60q14 22 24 43t16.5 42.5t10 42.5t3.5 43v10.5t-1 10.5h-88v93h78z" />
    <glyph glyph-name="yen" unicode="&#xa5;" 
d="M216 83h-144v81h144v68h-144v80h125l-157 333h126l64 -136q9 -18 15 -32.5t11.5 -28.5t11.5 -28t11 -32h2q7 18 12.5 33t11.5 28.5t11.5 27.5t12.5 32l59 136h122l-157 -333h125v-80h-144v-68h144v-81h-144v-83h-118v83z" />
    <glyph glyph-name="florin" unicode="&#x192;" 
d="M206 400l6 68q5 53 20 89.5t41 58.5t62.5 31.5t84.5 9.5q31 0 60 -4.5t53 -11.5l-19 -88q-20 5 -42.5 9t-44.5 4q-21 0 -37.5 -5t-28.5 -16t-18.5 -29t-9.5 -44l-8 -72h156l-10 -87h-154l-29 -247q-6 -54 -20.5 -90.5t-39 -58.5t-59 -32t-79.5 -10q-29 0 -51 3.5
t-48 11.5l20 89q20 -5 36 -8t39 -3q17 0 31 4.5t24.5 15.5t17.5 29t10 45l28 251h-131l9 87h131z" />
    <glyph glyph-name="zero.inferior" unicode="&#x2080;" 
d="M444 175q0 -51 -11 -86t-33 -56.5t-54 -31.5t-72 -10q-42 0 -73.5 9.5t-53 31t-32 56.5t-10.5 85q0 51 11.5 86t33 56.5t53.5 31.5t73 10q83 0 125.5 -41t42.5 -141zM301 297q-7 1 -13 1.5t-14 0.5q-20 0 -36.5 -5t-28.5 -19.5t-18.5 -38.5t-6.5 -61q0 -33 4.5 -54
t12.5 -38zM248 51q7 -1 13 -1.5t15 -0.5q20 0 36.5 5t28 19t18 38.5t6.5 61.5q0 32 -4 53.5t-12 38.5z" />
    <glyph glyph-name="one.inferior" unicode="&#x2081;" 
d="M129 71h115v192l-104 -32l-17 63l140 54h73v-277h103v-71h-310v71z" />
    <glyph glyph-name="two.inferior" unicode="&#x2082;" 
d="M136 67l89 72q40 31 58.5 52.5t18.5 45.5q0 22 -16 32.5t-48 10.5q-19 0 -39 -2.5t-42 -7.5l-9 70q31 8 59 11t61 3q67 0 103.5 -24.5t36.5 -69.5q0 -44 -26 -75t-72 -64l-62 -46h167v-75h-279v67z" />
    <glyph glyph-name="three.inferior" unicode="&#x2083;" 
d="M144 69q23 -4 44 -6t46 -2q43 0 64.5 10t21.5 34q0 10 -4.5 18t-19 13t-39.5 8t-65 3v64q38 0 61 3.5t36.5 9.5t18 14t4.5 17q0 16 -17 24t-54 8q-21 0 -41.5 -3t-42.5 -8l-9 65q29 6 57.5 9.5t56.5 3.5q78 0 112 -23t34 -61q0 -31 -18.5 -51.5t-52.5 -31.5q39 -6 61 -27
t22 -55q0 -51 -42 -81t-130 -30q-59 0 -111 9z" />
    <glyph glyph-name="four.inferior" unicode="&#x2084;" 
d="M106 138l159 210h120v-209h63v-75h-63v-64h-89v64h-190v74zM296 139v140l-107 -140h107z" />
    <glyph glyph-name="five.inferior" unicode="&#x2085;" 
d="M398 348v-68h-163v-69q14 1 27 1.5t26 0.5q59 0 94 -24t35 -76q0 -27 -11 -49.5t-33.5 -37.5t-56.5 -23.5t-79 -8.5q-27 0 -53 2t-49 7l5 66q23 -4 44.5 -6t44.5 -2q44 0 65.5 12.5t21.5 34.5t-19 31.5t-60 9.5q-20 0 -38 -1t-43 -3v203h242z" />
    <glyph glyph-name="six.inferior" unicode="&#x2086;" 
d="M395 278q-20 5 -42 7t-47 2q-29 0 -46.5 -7t-27.5 -18.5t-14.5 -27t-5.5 -33.5q19 8 40.5 12.5t48.5 4.5q60 0 93 -25.5t33 -77.5q0 -26 -9.5 -49t-28.5 -39.5t-48 -26t-68 -9.5q-76 0 -114 39.5t-38 120.5q0 45 8 82t29.5 64t58.5 42t96 15q26 0 48.5 -2t42.5 -7z
M338 110q0 22 -14.5 34.5t-44.5 12.5q-33 0 -67 -15v-11q0 -40 16 -57.5t49 -17.5q29 0 45 14.5t16 39.5z" />
    <glyph glyph-name="seven.inferior" unicode="&#x2087;" 
d="M131 348h292v-65q-23 -38 -43 -72.5t-38 -68.5t-36.5 -69t-36.5 -73h-103q21 40 41 76t39.5 69.5t39.5 65t40 62.5h-195v75z" />
    <glyph glyph-name="eight.inferior" unicode="&#x2088;" 
d="M427 95q0 -47 -39 -75.5t-115 -28.5q-74 0 -112.5 26t-38.5 71q0 34 23.5 55t55.5 34q-31 15 -50 35t-19 52q0 43 39.5 68t106.5 25q69 0 105 -23.5t36 -65.5q0 -32 -19.5 -52t-50.5 -32q34 -13 56 -35.5t22 -53.5zM282 210q25 9 39 21.5t14 29.5q0 15 -14.5 26t-44.5 11
q-28 0 -43 -10t-15 -26q0 -18 16.5 -29.5t47.5 -22.5zM268 148q-25 -9 -42 -21.5t-17 -30.5q0 -19 16.5 -32t50.5 -13q33 0 48.5 12.5t15.5 30.5q0 19 -19 31.5t-53 22.5z" />
    <glyph glyph-name="nine.inferior" unicode="&#x2089;" 
d="M143 72q28 -6 52 -8.5t49 -2.5q29 0 46.5 7t27.5 18.5t14 27t6 33.5q-19 -8 -40.5 -12.5t-48.5 -4.5q-60 0 -93 25.5t-33 77.5q0 26 9.5 49t28.5 39.5t48 26t68 9.5q76 0 114 -39.5t38 -120.5q0 -45 -8 -82t-29.5 -64t-58.5 -42t-96 -15q-26 0 -52 3t-52 8zM212 238
q0 -22 14.5 -34.5t44.5 -12.5q32 0 67 15v11q0 40 -16 57.5t-49 17.5q-29 0 -45 -14.5t-16 -39.5z" />
    <glyph glyph-name="zero.superior" unicode="&#x2070;" 
d="M444 523q0 -51 -11 -86t-33 -56.5t-54 -31.5t-72 -10q-42 0 -73.5 9.5t-53 31t-32 56.5t-10.5 85q0 51 11.5 86t33 56.5t53.5 31.5t73 10q83 0 125.5 -41t42.5 -141zM301 645q-7 1 -13 1.5t-14 0.5q-20 0 -36.5 -5t-28.5 -19.5t-18.5 -38.5t-6.5 -61q0 -33 4.5 -54
t12.5 -38zM248 399q7 -1 13 -1.5t15 -0.5q20 0 36.5 5t28 19t18 38.5t6.5 61.5q0 32 -4 53.5t-12 38.5z" />
    <glyph glyph-name="one.superior" unicode="&#xb9;" 
d="M129 419h115v192l-104 -32l-17 63l140 54h73v-277h103v-71h-310v71z" />
    <glyph glyph-name="two.superior" unicode="&#xb2;" 
d="M136 415l89 72q40 31 58.5 52.5t18.5 45.5q0 22 -16 32.5t-48 10.5q-19 0 -39 -2.5t-42 -7.5l-9 70q31 8 59 11t61 3q67 0 103.5 -24.5t36.5 -69.5q0 -44 -26 -75t-72 -64l-62 -46h167v-75h-279v67z" />
    <glyph glyph-name="three.superior" unicode="&#xb3;" 
d="M144 417q23 -4 44 -6t46 -2q43 0 64.5 10t21.5 34q0 10 -4.5 18t-19 13t-39.5 8t-65 3v64q38 0 61 3.5t36.5 9.5t18 14t4.5 17q0 16 -17 24t-54 8q-21 0 -41.5 -3t-42.5 -8l-9 65q29 6 57.5 9.5t56.5 3.5q78 0 112 -23t34 -61q0 -31 -18.5 -51.5t-52.5 -31.5
q39 -6 61 -27t22 -55q0 -51 -42 -81t-130 -30q-59 0 -111 9z" />
    <glyph glyph-name="four.superior" unicode="&#x2074;" 
d="M106 486l159 210h120v-209h63v-75h-63v-64h-89v64h-190v74zM296 487v140l-107 -140h107z" />
    <glyph glyph-name="five.superior" unicode="&#x2075;" 
d="M398 696v-68h-163v-69q14 1 27 1.5t26 0.5q59 0 94 -24t35 -76q0 -27 -11 -49.5t-33.5 -37.5t-56.5 -23.5t-79 -8.5q-27 0 -53 2t-49 7l5 66q23 -4 44.5 -6t44.5 -2q44 0 65.5 12.5t21.5 34.5t-19 31.5t-60 9.5q-20 0 -38 -1t-43 -3v203h242z" />
    <glyph glyph-name="six.superior" unicode="&#x2076;" 
d="M395 626q-20 5 -42 7t-47 2q-29 0 -46.5 -7t-27.5 -18.5t-14.5 -27t-5.5 -33.5q19 8 40.5 12.5t48.5 4.5q60 0 93 -25.5t33 -77.5q0 -26 -9.5 -49t-28.5 -39.5t-48 -26t-68 -9.5q-76 0 -114 39.5t-38 120.5q0 45 8 82t29.5 64t58.5 42t96 15q26 0 48.5 -2t42.5 -7z
M338 458q0 22 -14.5 34.5t-44.5 12.5q-33 0 -67 -15v-11q0 -40 16 -57.5t49 -17.5q29 0 45 14.5t16 39.5z" />
    <glyph glyph-name="seven.superior" unicode="&#x2077;" 
d="M131 696h292v-65q-23 -38 -43 -72.5t-38 -68.5t-36.5 -69t-36.5 -73h-103q21 40 41 76t39.5 69.5t39.5 65t40 62.5h-195v75z" />
    <glyph glyph-name="eight.superior" unicode="&#x2078;" 
d="M427 443q0 -47 -39 -75.5t-115 -28.5q-74 0 -112.5 26t-38.5 71q0 34 23.5 55t55.5 34q-31 15 -50 35t-19 52q0 43 39.5 68t106.5 25q69 0 105 -23.5t36 -65.5q0 -32 -19.5 -52t-50.5 -32q34 -13 56 -35.5t22 -53.5zM282 558q25 9 39 21.5t14 29.5q0 15 -14.5 26
t-44.5 11q-28 0 -43 -10t-15 -26q0 -18 16.5 -29.5t47.5 -22.5zM268 496q-25 -9 -42 -21.5t-17 -30.5q0 -19 16.5 -32t50.5 -13q33 0 48.5 12.5t15.5 30.5q0 19 -19 31.5t-53 22.5z" />
    <glyph glyph-name="nine.superior" unicode="&#x2079;" 
d="M143 420q28 -6 52 -8.5t49 -2.5q29 0 46.5 7t27.5 18.5t14 27t6 33.5q-19 -8 -40.5 -12.5t-48.5 -4.5q-60 0 -93 25.5t-33 77.5q0 26 9.5 49t28.5 39.5t48 26t68 9.5q76 0 114 -39.5t38 -120.5q0 -45 -8 -82t-29.5 -64t-58.5 -42t-96 -15q-26 0 -52 3t-52 8zM212 586
q0 -22 14.5 -34.5t44.5 -12.5q32 0 67 15v11q0 40 -16 57.5t-49 17.5q-29 0 -45 -14.5t-16 -39.5z" />
    <glyph glyph-name="zero.frac" 
d="M387 158q0 -49 -7.5 -81t-21.5 -51t-35.5 -26.5t-48.5 -7.5q-28 0 -48.5 7.5t-34.5 26t-21 50.5t-7 80t7.5 80t22 51t36 26.5t48.5 7.5t48 -7.5t34.5 -26t20.5 -50t7 -79.5zM315 156q0 35 -3 56t-8 32t-12.5 15t-15.5 4q-9 0 -16.5 -4t-13 -15t-8.5 -31.5t-3 -54.5
t3 -55.5t8.5 -33t13 -15.5t16.5 -4t16 4t12 15t8 32t3 55z" />
    <glyph glyph-name="one.frac" 
d="M271 227l-49 -28l-29 50l91 64h72v-313h-85v227z" />
    <glyph glyph-name="two.frac" 
d="M177 62l51 64q22 29 33 49.5t11 39.5q0 18 -9.5 26.5t-25.5 8.5q-12 0 -22.5 -2t-23.5 -7l-8 66q21 6 41 9t45 3q50 0 75 -23.5t25 -61.5q0 -36 -15.5 -64t-44.5 -60l-37 -40h100v-70h-195v62z" />
    <glyph glyph-name="three.frac" 
d="M184 62q12 -2 23 -4t25 -2q48 0 48 39q0 17 -13 27t-57 10v59q37 0 52 10.5t15 26.5q0 29 -38 29q-13 0 -24.5 -2t-24.5 -6l-8 60q19 5 38.5 7.5t38.5 2.5q52 0 78.5 -19.5t26.5 -54.5q0 -29 -14.5 -48t-37.5 -28q25 -7 42 -26t17 -48q0 -48 -31 -74.5t-88 -26.5
q-21 0 -39 2t-35 6z" />
    <glyph glyph-name="four.frac" 
d="M148 120l101 193h114v-198h30v-61h-30v-54h-78v54h-137v66zM285 115v141l-73 -141h73z" />
    <glyph glyph-name="five.frac" 
d="M361 313v-63h-103v-59q10 2 16.5 2h12.5q41 0 64 -22.5t23 -69.5q0 -49 -31.5 -78t-93.5 -29q-20 0 -39 2t-35 6l4 60q26 -6 54 -6t40.5 11.5t12.5 29.5q0 37 -44 37q-14 0 -27 -1.5t-26 -3.5v184h172z" />
    <glyph glyph-name="six.frac" 
d="M362 250q-13 3 -27 5t-30 2q-20 0 -32.5 -5.5t-19.5 -15.5t-9.5 -23t-3.5 -29q15 7 28.5 10.5t30.5 3.5q40 0 64 -23t24 -72q0 -23 -7 -43.5t-21 -35.5t-35.5 -23.5t-50.5 -8.5q-57 0 -83 36t-26 108q0 44 6.5 78.5t23 57.5t43 35t67.5 12q19 0 35.5 -2t30.5 -6zM310 99
q0 22 -8.5 32t-24.5 10q-9 0 -17.5 -2t-18.5 -8v-19q0 -33 8.5 -47.5t25.5 -14.5q18 0 26.5 13.5t8.5 35.5z" />
    <glyph glyph-name="seven.frac" 
d="M170 313h215v-62q-15 -33 -28 -63.5t-25.5 -61t-24.5 -61.5t-24 -65h-87q14 36 27 68.5t26 62t25 57.5t25 56h-129v69z" />
    <glyph glyph-name="eight.frac" 
d="M386 86q0 -44 -28 -69t-85 -25q-55 0 -82 23.5t-27 66.5q0 28 15 46.5t36 30.5q-21 15 -32 32.5t-11 45.5q0 40 28.5 62t77.5 22q52 0 77 -20.5t25 -59.5q0 -27 -12.5 -45.5t-33.5 -30.5q23 -12 37.5 -31.5t14.5 -47.5zM310 234q0 16 -8.5 25.5t-26.5 9.5q-17 0 -25 -8.5
t-8 -24.5q0 -15 10 -26.5t28 -20.5q14 8 22 19.5t8 25.5zM313 83q0 17 -12 29t-32 21q-15 -9 -24 -20t-9 -27q0 -19 10.5 -29.5t28.5 -10.5q19 0 28.5 9.5t9.5 27.5z" />
    <glyph glyph-name="nine.frac" 
d="M182 63q13 -4 28 -6t32 -2q23 0 36.5 5.5t21 15.5t10 23t3.5 29q-29 -14 -58 -14q-40 0 -64 23t-24 72q0 23 6.5 43.5t20.5 35.5t35.5 23.5t51.5 8.5q57 0 83 -36t26 -108q0 -45 -7 -79t-24 -57.5t-45.5 -35t-70.5 -11.5q-18 0 -35.5 2t-32.5 6zM242 212q0 -21 9.5 -31
t24.5 -10q9 0 17.5 2t19.5 8v19q0 33 -9 47.5t-25 14.5q-18 0 -27.5 -13.5t-9.5 -36.5z" />
    <glyph glyph-name="fraction" unicode="&#x2044;" 
d="M419 667l57 -31l-364 -658l-58 31z" />
    <glyph glyph-name="onehalf" unicode="&#xbd;" 
d="M419 667l57 -31l-364 -658l-58 31zM105 559l-49 -28l-29 50l91 64h72v-313h-85v227zM329 62l51 64q22 29 33 49.5t11 39.5q0 18 -9.5 26.5t-25.5 8.5q-12 0 -22.5 -2t-23.5 -7l-8 66q21 6 41 9t45 3q50 0 75 -23.5t25 -61.5q0 -36 -15.5 -64t-44.5 -60l-37 -40h100v-70
h-195v62z" />
    <glyph glyph-name="onethird" unicode="&#x2153;" 
d="M419 667l57 -31l-364 -658l-58 31zM105 559l-49 -28l-29 50l91 64h72v-313h-85v227zM338 62q12 -2 23 -4t25 -2q48 0 48 39q0 17 -13 27t-57 10v59q37 0 52 10.5t15 26.5q0 29 -38 29q-13 0 -24.5 -2t-24.5 -6l-8 60q19 5 38.5 7.5t38.5 2.5q52 0 78.5 -19.5t26.5 -54.5
q0 -29 -14.5 -48t-37.5 -28q25 -7 42 -26t17 -48q0 -48 -31 -74.5t-88 -26.5q-21 0 -39 2t-35 6z" />
    <glyph glyph-name="onequarter" unicode="&#xbc;" 
d="M430 667l57 -31l-364 -658l-58 31zM105 559l-49 -28l-29 50l91 64h72v-313h-85v227zM279 120l101 193h114v-198h30v-61h-30v-54h-78v54h-137v66zM416 115v141l-73 -141h73z" />
    <glyph glyph-name="onefifths" unicode="&#x2155;" 
d="M416 667l57 -31l-364 -658l-58 31zM100 559l-49 -28l-29 50l91 64h72v-313h-85v227zM511 313v-63h-103v-59q10 2 16.5 2h12.5q41 0 64 -22.5t23 -69.5q0 -49 -31.5 -78t-93.5 -29q-20 0 -39 2t-35 6l4 60q26 -6 54 -6t40.5 11.5t12.5 29.5q0 37 -44 37q-14 0 -27 -1.5
t-26 -3.5v184h172z" />
    <glyph glyph-name="onesixth" unicode="&#x2159;" 
d="M420 667l57 -31l-364 -658l-58 31zM102 559l-49 -28l-29 50l91 64h72v-313h-85v227zM500 250q-13 3 -27 5t-30 2q-20 0 -32.5 -5.5t-19.5 -15.5t-9.5 -23t-3.5 -29q15 7 28.5 10.5t30.5 3.5q40 0 64 -23t24 -72q0 -23 -7 -43.5t-21 -35.5t-35.5 -23.5t-50.5 -8.5
q-57 0 -83 36t-26 108q0 44 6.5 78.5t23 57.5t43 35t67.5 12q19 0 35.5 -2t30.5 -6zM448 99q0 22 -8.5 32t-24.5 10q-9 0 -17.5 -2t-18.5 -8v-19q0 -33 8.5 -47.5t25.5 -14.5q18 0 26.5 13.5t8.5 35.5z" />
    <glyph glyph-name="oneeighth" unicode="&#x215b;" 
d="M414 667l57 -31l-364 -658l-58 31zM102 559l-49 -28l-29 50l91 64h72v-313h-85v227zM525 86q0 -44 -28 -69t-85 -25q-55 0 -82 23.5t-27 66.5q0 28 15 46.5t36 30.5q-21 15 -32 32.5t-11 45.5q0 40 28.5 62t77.5 22q52 0 77 -20.5t25 -59.5q0 -27 -12.5 -45.5
t-33.5 -30.5q23 -12 37.5 -31.5t14.5 -47.5zM449 234q0 16 -8.5 25.5t-26.5 9.5q-17 0 -25 -8.5t-8 -24.5q0 -15 10 -26.5t28 -20.5q14 8 22 19.5t8 25.5zM452 83q0 17 -12 29t-32 21q-15 -9 -24 -20t-9 -27q0 -19 10.5 -29.5t28.5 -10.5q19 0 28.5 9.5t9.5 27.5z" />
    <glyph glyph-name="twothirds" unicode="&#x2154;" 
d="M432 667l57 -31l-364 -658l-58 31zM22 394l51 64q22 29 33 49.5t11 39.5q0 18 -9.5 26.5t-25.5 8.5q-12 0 -22.5 -2t-23.5 -7l-8 66q21 6 41 9t45 3q50 0 75 -23.5t25 -61.5q0 -36 -15.5 -64t-44.5 -60l-37 -40h100v-70h-195v62zM342 62q12 -2 23 -4t25 -2q48 0 48 39
q0 17 -13 27t-57 10v59q37 0 52 10.5t15 26.5q0 29 -38 29q-13 0 -24.5 -2t-24.5 -6l-8 60q19 5 38.5 7.5t38.5 2.5q52 0 78.5 -19.5t26.5 -54.5q0 -29 -14.5 -48t-37.5 -28q25 -7 42 -26t17 -48q0 -48 -31 -74.5t-88 -26.5q-21 0 -39 2t-35 6z" />
    <glyph glyph-name="twofifths" unicode="&#x2156;" 
d="M431 667l57 -31l-364 -658l-58 31zM22 394l51 64q22 29 33 49.5t11 39.5q0 18 -9.5 26.5t-25.5 8.5q-12 0 -22.5 -2t-23.5 -7l-8 66q21 6 41 9t45 3q50 0 75 -23.5t25 -61.5q0 -36 -15.5 -64t-44.5 -60l-37 -40h100v-70h-195v62zM516 313v-63h-103v-59q10 2 16.5 2h12.5
q41 0 64 -22.5t23 -69.5q0 -49 -31.5 -78t-93.5 -29q-20 0 -39 2t-35 6l4 60q26 -6 54 -6t40.5 11.5t12.5 29.5q0 37 -44 37q-14 0 -27 -1.5t-26 -3.5v184h172z" />
    <glyph glyph-name="threequarters" unicode="&#xbe;" 
d="M427 667l57 -31l-364 -658l-58 31zM279 120l101 193h114v-198h30v-61h-30v-54h-78v54h-137v66zM416 115v141l-73 -141h73zM34 394q12 -2 23 -4t25 -2q48 0 48 39q0 17 -13 27t-57 10v59q37 0 52 10.5t15 26.5q0 29 -38 29q-13 0 -24.5 -2t-24.5 -6l-8 60q19 5 38.5 7.5
t38.5 2.5q52 0 78.5 -19.5t26.5 -54.5q0 -29 -14.5 -48t-37.5 -28q25 -7 42 -26t17 -48q0 -48 -31 -74.5t-88 -26.5q-21 0 -39 2t-35 6z" />
    <glyph glyph-name="threefifths" unicode="&#x2157;" 
d="M418 667l57 -31l-364 -658l-58 31zM516 313v-63h-103v-59q10 2 16.5 2h12.5q41 0 64 -22.5t23 -69.5q0 -49 -31.5 -78t-93.5 -29q-20 0 -39 2t-35 6l4 60q26 -6 54 -6t40.5 11.5t12.5 29.5q0 37 -44 37q-14 0 -27 -1.5t-26 -3.5v184h172zM29 394q12 -2 23 -4t25 -2
q48 0 48 39q0 17 -13 27t-57 10v59q37 0 52 10.5t15 26.5q0 29 -38 29q-13 0 -24.5 -2t-24.5 -6l-8 60q19 5 38.5 7.5t38.5 2.5q52 0 78.5 -19.5t26.5 -54.5q0 -29 -14.5 -48t-37.5 -28q25 -7 42 -26t17 -48q0 -48 -31 -74.5t-88 -26.5q-21 0 -39 2t-35 6z" />
    <glyph glyph-name="threeeighths" unicode="&#x215c;" 
d="M417 667l57 -31l-364 -658l-58 31zM529 86q0 -44 -28 -69t-85 -25q-55 0 -82 23.5t-27 66.5q0 28 15 46.5t36 30.5q-21 15 -32 32.5t-11 45.5q0 40 28.5 62t77.5 22q52 0 77 -20.5t25 -59.5q0 -27 -12.5 -45.5t-33.5 -30.5q23 -12 37.5 -31.5t14.5 -47.5zM453 234
q0 16 -8.5 25.5t-26.5 9.5q-17 0 -25 -8.5t-8 -24.5q0 -15 10 -26.5t28 -20.5q14 8 22 19.5t8 25.5zM456 83q0 17 -12 29t-32 21q-15 -9 -24 -20t-9 -27q0 -19 10.5 -29.5t28.5 -10.5q19 0 28.5 9.5t9.5 27.5zM29 394q12 -2 23 -4t25 -2q48 0 48 39q0 17 -13 27t-57 10v59
q37 0 52 10.5t15 26.5q0 29 -38 29q-13 0 -24.5 -2t-24.5 -6l-8 60q19 5 38.5 7.5t38.5 2.5q52 0 78.5 -19.5t26.5 -54.5q0 -29 -14.5 -48t-37.5 -28q25 -7 42 -26t17 -48q0 -48 -31 -74.5t-88 -26.5q-21 0 -39 2t-35 6z" />
    <glyph glyph-name="fourfifths" unicode="&#x2158;" 
d="M444 667l55 -29l-367 -660l-55 30zM520 309v-62h-104v-58q11 2 17.5 2h12.5q42 0 64.5 -23t22.5 -68q0 -48 -31 -77t-88 -29q-20 0 -39 2t-36 6l4 59q26 -6 54 -6t41 11.5t13 29.5q0 37 -44 37q-14 0 -27.5 -1.5t-25.5 -3.5v181h166zM17 468l95 177h109v-187h32v-61h-32
v-54h-72v54h-132v71zM149 458v134l-72 -134h72z" />
    <glyph glyph-name="fivesixths" unicode="&#x215a;" 
d="M422 667l57 -31l-364 -658l-58 31zM504 250q-13 3 -27 5t-30 2q-20 0 -32.5 -5.5t-19.5 -15.5t-9.5 -23t-3.5 -29q15 7 28.5 10.5t30.5 3.5q40 0 64 -23t24 -72q0 -23 -7 -43.5t-21 -35.5t-35.5 -23.5t-50.5 -8.5q-57 0 -83 36t-26 108q0 44 6.5 78.5t23 57.5t43 35
t67.5 12q19 0 35.5 -2t30.5 -6zM452 99q0 22 -8.5 32t-24.5 10q-9 0 -17.5 -2t-18.5 -8v-19q0 -33 8.5 -47.5t25.5 -14.5q18 0 26.5 13.5t8.5 35.5zM208 645v-63h-103v-59q10 2 16.5 2h12.5q41 0 64 -22.5t23 -69.5q0 -49 -31.5 -78t-93.5 -29q-20 0 -39 2t-35 6l4 60
q26 -6 54 -6t40.5 11.5t12.5 29.5q0 37 -44 37q-14 0 -27 -1.5t-26 -3.5v184h172z" />
    <glyph glyph-name="fiveeighths" unicode="&#x215d;" 
d="M419 667l57 -31l-364 -658l-58 31zM208 645v-63h-103v-59q10 2 16.5 2h12.5q41 0 64 -22.5t23 -69.5q0 -49 -31.5 -78t-93.5 -29q-20 0 -39 2t-35 6l4 60q26 -6 54 -6t40.5 11.5t12.5 29.5q0 37 -44 37q-14 0 -27 -1.5t-26 -3.5v184h172zM529 86q0 -44 -28 -69t-85 -25
q-55 0 -82 23.5t-27 66.5q0 28 15 46.5t36 30.5q-21 15 -32 32.5t-11 45.5q0 40 28.5 62t77.5 22q52 0 77 -20.5t25 -59.5q0 -27 -12.5 -45.5t-33.5 -30.5q23 -12 37.5 -31.5t14.5 -47.5zM453 234q0 16 -8.5 25.5t-26.5 9.5q-17 0 -25 -8.5t-8 -24.5q0 -15 10 -26.5
t28 -20.5q14 8 22 19.5t8 25.5zM456 83q0 17 -12 29t-32 21q-15 -9 -24 -20t-9 -27q0 -19 10.5 -29.5t28.5 -10.5q19 0 28.5 9.5t9.5 27.5z" />
    <glyph glyph-name="seveneighths" unicode="&#x215e;" 
d="M395 667l57 -31l-364 -658l-58 31zM529 86q0 -44 -28 -69t-85 -25q-55 0 -82 23.5t-27 66.5q0 28 15 46.5t36 30.5q-21 15 -32 32.5t-11 45.5q0 40 28.5 62t77.5 22q52 0 77 -20.5t25 -59.5q0 -27 -12.5 -45.5t-33.5 -30.5q23 -12 37.5 -31.5t14.5 -47.5zM453 234
q0 16 -8.5 25.5t-26.5 9.5q-17 0 -25 -8.5t-8 -24.5q0 -15 10 -26.5t28 -20.5q14 8 22 19.5t8 25.5zM456 83q0 17 -12 29t-32 21q-15 -9 -24 -20t-9 -27q0 -19 10.5 -29.5t28.5 -10.5q19 0 28.5 9.5t9.5 27.5zM22 645h215v-62q-15 -33 -28 -63.5t-25.5 -61t-24.5 -61.5
t-24 -65h-87q14 36 27 68.5t26 62t25 57.5t25 56h-129v69z" />
    <glyph glyph-name="percent" unicode="%" 
d="M448 668l58 -32l-405 -659l-57 32zM259 516q0 -39 -7.5 -66t-22.5 -43.5t-36 -24t-49 -7.5q-27 0 -48 7t-34.5 23t-20.5 43t-7 66t7.5 65t22 42.5t36 24t48.5 7.5q28 0 48.5 -7t34.5 -23t21 -42t7 -65zM186 514q0 25 -2.5 40.5t-8 24.5t-12.5 12t-16 3t-16.5 -3
t-12.5 -12t-8 -24t-3 -39q0 -25 3 -41t8 -25t12.5 -12.5t15.5 -3.5q10 0 17 3.5t12.5 12t8 24t2.5 40.5zM516 131q0 -38 -7.5 -65t-22 -43.5t-36 -23.5t-48.5 -7q-28 0 -48.5 7t-34.5 23t-21 42.5t-7 64.5q0 39 7.5 66t22.5 43.5t36 24t49 7.5q27 0 48 -7t34.5 -23t20.5 -43
t7 -66zM443 129q0 25 -3 41t-8 25t-12.5 12.5t-15.5 3.5q-10 0 -17 -3.5t-12.5 -12t-8 -24t-2.5 -40.5t2.5 -40.5t8 -24.5t12.5 -12.5t16 -3.5t16.5 3.5t12.5 12t8 24t3 39.5z" />
    <glyph glyph-name="perthousand" unicode="&#x2030;" 
d="M524 429l10 -53l-508 -103l-10 52zM259 524q0 -37 -7.5 -62.5t-22.5 -41.5t-37.5 -23.5t-50.5 -7.5q-30 0 -52 7t-36.5 23t-22 41.5t-7.5 61.5q0 71 30.5 101t89.5 30q28 0 50.5 -7t36.5 -22t21.5 -40t7.5 -60zM185 522q0 46 -12 60.5t-31 14.5q-22 0 -33.5 -14
t-11.5 -59q0 -48 11.5 -63.5t33.5 -15.5q21 0 32 14.5t11 62.5zM259 126q0 -37 -7.5 -62.5t-22.5 -41.5t-37.5 -23t-50.5 -7q-30 0 -52 7t-36.5 22.5t-22 41t-7.5 61.5q0 71 30.5 102t89.5 31q28 0 50.5 -7.5t36.5 -23t21.5 -40t7.5 -60.5zM185 124q0 46 -12 61.5t-31 15.5
q-22 0 -33.5 -15t-11.5 -60q0 -48 11.5 -63t33.5 -15q21 0 32 14t11 62zM527 126q0 -37 -8 -62.5t-23 -41.5t-37 -23t-51 -7t-51 7t-36.5 22.5t-22 41t-7.5 61.5q0 71 30.5 102t88.5 31q30 0 51.5 -7.5t36 -23t22 -40t7.5 -60.5zM453 124q0 46 -11.5 61.5t-32.5 15.5
t-32.5 -15t-11.5 -60q0 -48 12 -63t32 -15q22 0 33 14t11 62z" />
    <glyph glyph-name="plus" unicode="+" 
d="M46 332h181v184h95v-184h182v-90h-182v-184h-95v184h-181v90z" />
    <glyph glyph-name="minus" unicode="&#x2212;" 
d="M46 332h458v-90h-458v90z" />
    <glyph glyph-name="plusminus" unicode="&#xb1;" 
d="M56 426h171v173h95v-173h172v-90h-172v-175h-95v175h-171v90zM56 89h438v-89h-438v89z" />
    <glyph glyph-name="multiply" unicode="&#xd7;" 
d="M211 287l-157 150l66 66l154 -151l155 151l66 -66l-156 -150l157 -151l-66 -65l-155 152l-156 -152l-65 65z" />
    <glyph glyph-name="divide" unicode="&#xf7;" 
d="M46 332h458v-90h-458v90zM343 122q0 -19 -3.5 -32t-11 -19.5t-20.5 -10t-33 -3.5t-33 3.5t-20.5 10t-11 19.5t-3.5 32t3.5 31.5t11 19.5t20.5 10t33 3t33 -2.5t20.5 -10t11 -20t3.5 -31.5zM343 452q0 -19 -3.5 -31.5t-11 -20t-20.5 -10.5t-33 -3t-33 3t-20.5 10.5t-11 20
t-3.5 31.5t3.5 32t11 19.5t20.5 10t33 3.5t33 -3t20.5 -10t11 -20t3.5 -32z" />
    <glyph glyph-name="less" unicode="&#x3c;" 
d="M73 339l389 205v-104l-284 -153l284 -155v-103l-389 208v102z" />
    <glyph glyph-name="lessequal" unicode="&#x2264;" 
d="M56 89h438v-89h-438v89zM56 428l438 175v-98l-334 -127l334 -130v-98l-438 177v101z" />
    <glyph glyph-name="equal" unicode="=" 
d="M56 233h438v-90h-438v90zM56 431h438v-90h-438v90z" />
    <glyph glyph-name="notequal" unicode="&#x2260;" 
d="M56 233h137l64 108h-201v90h247l71 123l78 -39l-50 -84h92v-90h-138l-64 -108h202v-90h-248l-71 -124l-78 41l50 83h-91v90z" />
    <glyph glyph-name="approxequal" unicode="&#x2248;" 
d="M44 197q27 34 59 55t81 21q32 0 55.5 -8.5t44.5 -18.5t40.5 -18.5t41.5 -8.5q33 0 50.5 12t34.5 32l55 -65q-27 -34 -59 -55t-81 -21q-32 0 -55.5 8.5t-44.5 18.5t-40.5 18.5t-41.5 8.5q-33 0 -50.5 -12t-34.5 -32zM44 399q27 35 59 56t81 21q32 0 55.5 -8.5t44.5 -19
t40.5 -18.5t41.5 -8q33 0 50.5 12t34.5 31l55 -64q-27 -34 -59 -55t-81 -21q-32 0 -55.5 8.5t-44.5 18.5t-40.5 18.5t-41.5 8.5q-33 0 -50.5 -12t-34.5 -32z" />
    <glyph glyph-name="greaterequal" unicode="&#x2265;" 
d="M56 89h438v-89h-438v89zM56 248l334 130l-334 127v98l438 -175v-101l-438 -177v98z" />
    <glyph glyph-name="greater" unicode="&#x3e;" 
d="M88 133l284 152l-284 155v104l389 -207v-102l-389 -206v104z" />
    <glyph glyph-name="logicalnot" unicode="&#xac;" 
d="M59 332h422v-219h-96v129h-326v90z" />
    <glyph glyph-name="radical" unicode="&#x221a;" 
d="M75 405h-49v90h143l62 -250q6 -24 10.5 -43.5t8.5 -39t8 -39.5t8 -44h2q5 24 9 44t8.5 39.5l9 39t10.5 43.5l110 450h113l-175 -695h-173z" />
    <glyph glyph-name="infinity" unicode="&#x221e;" 
d="M280 363q11 18 24.5 36.5t29.5 32.5t36 22.5t46 8.5t49 -11t39.5 -32.5t26 -53.5t9.5 -73q0 -42 -10 -75.5t-27 -56.5t-41 -35.5t-52 -12.5q-27 0 -48 8.5t-37 22.5t-29.5 32t-25.5 38q-11 -20 -24.5 -38t-29.5 -32t-36 -22.5t-46 -8.5t-49 11.5t-39.5 32.5t-26 53
t-9.5 74q0 41 9.5 74.5t27 56.5t41.5 35.5t52 12.5q27 0 48 -8.5t37 -22.5t29.5 -32.5t25.5 -36.5zM222 285q-9 19 -18.5 34.5t-19 27.5t-20 18.5t-21.5 6.5q-20 0 -31.5 -20.5t-11.5 -62.5t11.5 -62.5t30.5 -20.5q12 0 22 6t20 16.5t19 25t19 31.5zM328 291q9 -18 18.5 -34
t19 -27.5t20 -18t21.5 -6.5q20 0 31.5 20t11.5 62q0 43 -11.5 63.5t-30.5 20.5q-12 0 -22 -6t-20 -17t-19 -25t-19 -32z" />
    <glyph glyph-name="partialdiff" unicode="&#x2202;" 
d="M181 752q61 0 108.5 -16.5t83 -47t58.5 -73.5t37.5 -95.5t20.5 -112.5t6 -126q0 -85 -14.5 -142t-42.5 -91t-69.5 -48t-94.5 -14t-94 12t-68.5 41.5t-42 78.5t-14.5 124q0 66 14 113t40.5 77.5t63.5 44.5t82 14q34 0 62 -5.5t45 -13.5l1 1q-3 34 -15.5 68t-36 61
t-58.5 44.5t-85 18.5zM378 254q0 17 -0.5 31.5t-1 28.5t-2 28.5t-4.5 32.5q-19 10 -42 17.5t-51 7.5q-25 0 -43.5 -8.5t-32 -27t-20.5 -48.5t-7 -73q0 -50 6.5 -82t19.5 -50.5t32 -26t44 -7.5q26 0 45.5 8.5t32 29t18.5 54.5t6 85z" />
    <glyph glyph-name="integral" unicode="&#x222b;" 
d="M33 -127q17 -2 34 -3t36 -1q25 0 44.5 4.5t33 16t20 29.5t6.5 46v587q0 109 56 153.5t160 44.5q24 0 43 -1.5t36 -3.5v-91q-17 2 -34 3.5t-36 1.5q-25 0 -44.5 -5t-32.5 -16.5t-20 -30t-7 -45.5v-588q0 -54 -14.5 -91.5t-41.5 -61t-67.5 -34.5t-92.5 -11q-24 0 -43 1.5
t-36 3.5v92z" />
    <glyph glyph-name="product" unicode="&#x220f;" 
d="M92 648h-76v90h518v-90h-76v-860h-111v860h-144v-860h-111v860z" />
    <glyph glyph-name="summation" unicode="&#x2211;" 
d="M40 -124l223 408l-208 363v91h442v-91h-303l204 -355l-230 -412h338v-92h-466v88z" />
    <glyph glyph-name="lozenge" unicode="&#x25ca;" 
d="M39 369l155 369h162l155 -369l-155 -369h-162zM396 369l-121 290l-121 -290l121 -290z" />
    <glyph glyph-name="asciicircum" unicode="^" 
d="M215 695h120l181 -338h-111l-131 239l-130 -239h-110z" />
    <glyph glyph-name="asciitilde" unicode="~" 
d="M35 189q-2 40 6 78t26.5 66.5t46.5 46t66 17.5q27 0 48 -9t37.5 -23t30.5 -30t26.5 -30t25 -23t26.5 -9q15 0 25.5 10t17 26t9.5 36.5t3 40.5h86q2 -40 -5.5 -78t-26 -66.5t-47 -46t-66.5 -17.5q-27 0 -47.5 9.5t-37.5 23t-30.5 29.5t-26.5 30t-25 23.5t-26 9.5
q-15 0 -25.5 -10.5t-17 -26t-9.5 -36t-3 -41.5h-87z" />
    <glyph glyph-name="degree" unicode="&#xb0;" 
d="M442 503q0 -39 -12 -69t-34.5 -50t-53.5 -30.5t-68 -10.5q-38 0 -68.5 10t-52 29.5t-33 49t-11.5 68.5q0 38 12 68t34 50t53 30.5t69 10.5t68.5 -10t52 -29.5t33 -49t11.5 -67.5zM353 501q0 37 -20.5 60t-57.5 23t-57 -22.5t-20 -59.5t20.5 -60t57.5 -23t57 22.5t20 59.5
z" />
    <glyph glyph-name="mu" unicode="&#xb5;" 
d="M64 495h120v-317q0 -52 17.5 -71.5t47.5 -19.5q27 0 55.5 12.5t60.5 36.5v359h120v-495h-99l-8 51q-13 -11 -28.5 -22t-32.5 -19t-35 -13t-35 -5q-24 0 -40 8t-27 21l-1 -1q2 -28 3.5 -54.5t1.5 -53.5v-124h-120v707z" />
    <glyph glyph-name="mu" unicode="&#x3bc;" 
d="M64 495h120v-317q0 -52 17.5 -71.5t47.5 -19.5q27 0 55.5 12.5t60.5 36.5v359h120v-495h-99l-8 51q-13 -11 -28.5 -22t-32.5 -19t-35 -13t-35 -5q-24 0 -40 8t-27 21l-1 -1q2 -28 3.5 -54.5t1.5 -53.5v-124h-120v707z" />
    <glyph glyph-name="pi" unicode="&#x3c0;" 
d="M90 406h-65v89h500v-89h-64v-406h-110v406h-151v-406h-110v406z" />
    <glyph glyph-name="Delta" unicode="&#x394;" 
d="M185 695h180l176 -695h-532zM397 95l-86 355q-12 44 -20.5 84.5t-18.5 84.5h-2q-11 -44 -19.5 -83.5t-20.5 -85.5l-86 -355h253z" />
    <glyph glyph-name="Delta" unicode="&#x2206;" 
d="M185 695h180l176 -695h-532zM397 95l-86 355q-12 44 -20.5 84.5t-18.5 84.5h-2q-11 -44 -19.5 -83.5t-20.5 -85.5l-86 -355h253z" />
    <glyph glyph-name="Omega" unicode="&#x3a9;" 
d="M18 95h102q-18 17 -34 41.5t-28 58.5t-19.5 77.5t-7.5 98.5q0 96 16 160.5t47 104t77.5 56.5t106.5 17q61 0 106 -15.5t75.5 -53.5t45 -102.5t14.5 -162.5q0 -54 -7.5 -97.5t-20 -78t-29 -61t-34.5 -43.5h104v-95h-218v95q41 34 62 102.5t21 173.5q0 71 -7 118t-22 74.5
t-38 39t-55 11.5q-31 0 -54.5 -11.5t-38 -39t-22 -74t-7.5 -116.5q0 -107 21 -174.5t64 -103.5v-95h-220v95z" />
    <glyph glyph-name="Omega" unicode="&#x2126;" 
d="M18 95h102q-18 17 -34 41.5t-28 58.5t-19.5 77.5t-7.5 98.5q0 96 16 160.5t47 104t77.5 56.5t106.5 17q61 0 106 -15.5t75.5 -53.5t45 -102.5t14.5 -162.5q0 -54 -7.5 -97.5t-20 -78t-29 -61t-34.5 -43.5h104v-95h-218v95q41 34 62 102.5t21 173.5q0 71 -7 118t-22 74.5
t-38 39t-55 11.5q-31 0 -54.5 -11.5t-38 -39t-22 -74t-7.5 -116.5q0 -107 21 -174.5t64 -103.5v-95h-220v95z" />
    <glyph glyph-name="arrowup" unicode="&#x2191;" 
d="M223 483l-26 -29l-118 -119l-63 62l259 260l259 -260l-64 -64l-117 117l-26 30v-443h-104v446z" />
    <glyph glyph-name="arrowdown" unicode="&#x2193;" 
d="M327 203l26 30l118 119l63 -63l-259 -259l-259 259l64 64l117 -117l26 -29v442h104v-446z" />
    <glyph glyph-name="arrowupdn" unicode="&#x2195;" 
d="M97 242l100 -99l28 -29v469l-28 -29l-101 -100l-62 63l241 235l241 -235l-63 -65l-100 99l-28 29v-469l28 28l101 101l62 -63l-241 -235l-241 235z" />
    <glyph glyph-name="arrowleft" unicode="&#x2190;" 
d="M545 301h-365l30 -31l136 -148l-77 -63l-264 289l264 290l75 -61l-138 -151l-30 -29h369v-96z" />
    <glyph glyph-name="arrowright" unicode="&#x2192;" 
d="M5 397h365l-30 29l-136 149l77 63l264 -290l-264 -289l-75 61l138 150l30 31h-369v96z" />
    <glyph glyph-name="arrowboth" unicode="&#x2194;" 
d="M133 586l80 -41l-64 -119l-18 -31h285l-18 31l-63 118l82 42l128 -238l-128 -238l-80 41l64 119l18 31h-285l18 -31l63 -118l-82 -42l-128 238z" />
    <glyph glyph-name="arrownortheast" unicode="&#x2197;" 
d="M357 487l-57 -2h-182v91h398v-409h-100v188l2 57l-325 -325l-69 68z" />
    <glyph glyph-name="arrowsoutheast" unicode="&#x2198;" 
d="M24 518l69 69l325 -325l-2 56v188h100v-409h-398v91h182l57 -2z" />
    <glyph glyph-name="arrowsouthwest" unicode="&#x2199;" 
d="M193 186l57 2h182v-91h-398v409h100v-188l-2 -56l325 325l69 -69z" />
    <glyph glyph-name="arrownorthwest" unicode="&#x2196;" 
d="M526 155l-69 -68l-325 325l2 -57v-188h-100v409h398v-91h-182l-57 2z" />
    <glyph glyph-name="apple" unicode="&#xf8ff;" 
d="M106 263q0 36 13 67.5t35.5 54t53.5 35.5t67 13t67.5 -13t54 -35.5t35.5 -54t13 -67.5t-13 -67t-35.5 -53.5t-54 -35.5t-67.5 -13t-67 13t-53.5 35.5t-35.5 53.5t-13 67zM279 336h47l5 -16q4 -13 13 -13q10 0 10 14v16v3q0 13 -3 16q-4 4 -14 4h-110q-13 0 -13 -10
t13 -14l16 -5v-131q0 -22 -15 -22q-7 0 -11 3.5t-7 8t-6.5 8t-7.5 3.5q-8 0 -12.5 -5t-4.5 -12q0 -12 11.5 -20.5t31.5 -8.5q57 0 57 62v33h33l2 -7q3 -11 11 -11q10 0 10 12v36q0 13 -10 13q-8 0 -11 -11l-2 -8h-33v62z" />
    <glyph glyph-name="uni25AE" unicode="&#x25ae;" 
d="M0 1050h550v-1300h-550v1300z" />
    <glyph glyph-name="alignment" 
d="M38 752h475v-14h-475v14zM38 709h475v-14h-475v14zM38 659h475v-14h-475v14zM38 548h475v-14h-475v14zM38 509h475v-14h-475v14zM38 0h475v-14h-475v14zM38 -111h475v-14h-475v14zM38 -212h475v-14h-475v14z" />
  </font>
</defs>
</svg>
