<?xml version="1.0" standalone="no"?>
<!DOCTYPE svg PUBLIC "-//W3C//DTD SVG 1.1//EN" "http://www.w3.org/Graphics/SVG/1.1/DTD/svg11.dtd" >
<svg xmlns="http://www.w3.org/2000/svg" xmlns:xlink="http://www.w3.org/1999/xlink" version="1.1">
<metadata>
Created by FontForge 20161116 at Tue Jan 19 17:13:03 2016
 By Jimmy Wärting
Copyright 2011 Monotype Imaging Inc. All rights reserved.
</metadata>
<defs>
<font id="HarmoniaSansProCyr-SemiBd" horiz-adv-x="825" >
  <font-face 
    font-family="HarmoniaSansProCyr-SemiBd"
    font-weight="600"
    font-stretch="normal"
    units-per-em="2048"
    panose-1="2 11 6 2 3 4 2 2 2 4"
    ascent="1495"
    descent="-553"
    x-height="981"
    cap-height="1397"
    bbox="-367 -526 2488 1993"
    underline-thickness="102"
    underline-position="-306"
    unicode-range="U+0020-FB04"
  />
<missing-glyph horiz-adv-x="1024" 
d="M842 98l-330 496l-332 -496h662zM901 1178l-332 -496l332 -498v994zM123 1178v-992q82 125 246 371l84 125zM180 1266l332 -498l330 498h-662zM25 0v1362h972v-1362h-972z" />
    <glyph glyph-name="IJ" unicode="IJ" horiz-adv-x="1286" 
d="M918 389v1008h241v-998q0 -233 -99 -337t-296 -105q-115 0 -213 41v207q86 -39 182 -39q97 0 141 51t44 172zM143 0v1397h242v-1397h-242z" />
    <glyph glyph-name="ij" unicode="ij" horiz-adv-x="991" 
d="M616 1198v234h254v-234h-254zM858 981v-1073q0 -214 -93 -318t-261 -104q-96 0 -187 29v192q80 -25 148 -24q164 0 164 217v1081h229zM121 1198v234h254v-234h-254zM133 0v981h229v-981h-229z" />
    <glyph glyph-name="napostrophe" unicode="&#x27;n" horiz-adv-x="1359" 
d="M-41 1221v254h266v-123q0 -211 -108 -383h-133q68 102 77 252h-102zM328 0v981h227v-123h4q109 156 286 156t285 -113t109 -336v-565h-229v553q0 125 -56 191t-160 67q-106 0 -172 -76t-65 -215v-520h-229z" />
    <glyph glyph-name="f_f" unicode="ff" horiz-adv-x="1261" 
d="M412 788v-788h-230v788h-139v193h139v162q0 166 86 254t248 88q88 0 150 -19v-188q-61 16 -111 16q-143 0 -143 -155v-158h387v162q0 166 86 254t248 88q88 0 149 -19v-188q-59 16 -111 16q-143 0 -143 -155v-158h219v-193h-219v-788h-229v788h-387z" />
    <glyph glyph-name="fi" unicode="fi" horiz-adv-x="1161" 
d="M786 1198v234h254v-234h-254zM799 0v981h229v-981h-229zM43 788v193h139v162q0 166 86 254t248 88q88 0 150 -19v-188q-61 16 -111 16q-143 0 -143 -155v-158h219v-193h-219v-788h-230v788h-139z" />
    <glyph glyph-name="fl" unicode="fl" horiz-adv-x="1167" 
d="M805 0v1475h229v-1475h-229zM43 788v193h139v162q0 166 86 254t248 88q88 0 150 -19v-188q-61 16 -111 16q-143 0 -143 -155v-158h219v-193h-219v-788h-230v788h-139z" />
    <glyph glyph-name="f_f_i" unicode="ffi" horiz-adv-x="1777" 
d="M412 788v-788h-230v788h-139v193h139v162q0 166 86 254t248 88q88 0 150 -19v-188q-61 16 -111 16q-143 0 -143 -155v-158h387v162q0 166 86 254t248 88q88 0 149 -19v-188q-59 16 -111 16q-143 0 -143 -155v-158h219v-193h-219v-788h-229v788h-387zM1403 1198v234h254
v-234h-254zM1415 0v981h230v-981h-230z" />
    <glyph glyph-name="f_f_l" unicode="ffl" horiz-adv-x="1777" 
d="M412 788v-788h-230v788h-139v193h139v162q0 166 86 254t248 88q88 0 150 -19v-188q-61 16 -111 16q-143 0 -143 -155v-158h387v162q0 166 86 254t248 88q88 0 149 -19v-188q-59 16 -111 16q-143 0 -143 -155v-158h219v-193h-219v-788h-229v788h-387zM1415 0v1475h230
v-1475h-230z" />
    <glyph glyph-name=".notdef" horiz-adv-x="1024" 
d="M842 98l-330 496l-332 -496h662zM901 1178l-332 -496l332 -498v994zM123 1178v-992q82 125 246 371l84 125zM180 1266l332 -498l330 498h-662zM25 0v1362h972v-1362h-972z" />
    <glyph glyph-name=".null" horiz-adv-x="0" 
 />
    <glyph glyph-name="nonmarkingreturn" horiz-adv-x="681" 
 />
    <glyph glyph-name="space" unicode=" " horiz-adv-x="512" 
 />
    <glyph glyph-name="exclam" unicode="!" horiz-adv-x="524" 
d="M137 1397h252l-24 -983h-203zM141 0v229h244v-229h-244z" />
    <glyph glyph-name="quotedbl" unicode="&#x22;" horiz-adv-x="831" 
d="M504 1477h213l-21 -476h-176zM115 1477h215l-21 -476h-176z" />
    <glyph glyph-name="numbersign" unicode="#" horiz-adv-x="1234" 
d="M774 846h-254l-67 -303h256zM969 989h239l-32 -143h-238l-66 -303h242l-29 -148h-243l-86 -395h-164l86 395h-252l-88 -395h-164l88 395h-235l30 148h234l67 303h-241l30 143h242l86 408h166l-90 -408h254l88 408h164z" />
    <glyph glyph-name="dollar" unicode="$" horiz-adv-x="1165" 
d="M580 1180q-88 0 -142 -41t-53 -112q0 -71 52 -109t202 -84q213 -66 305 -165t92 -239t-94 -248q-94 -109 -266 -135v-170h-184v168q-158 23 -259 117q-100 94 -127 254h238q45 -197 244 -197q102 0 161 56q58 57 58 141q-1 84 -61 137t-238 104q-350 101 -350 371
q0 125 93 213t241 109v145h184v-143q148 -23 236 -111t100 -215h-230q-10 72 -62 113t-140 41z" />
    <glyph glyph-name="percent" unicode="%" horiz-adv-x="1619" 
d="M1194 1397h180l-944 -1397h-182zM1358 346q0 227 -144 227q-63 0 -103 -56t-40 -169q0 -236 146 -235q61 0 101 57t40 176zM895 338q0 196 97 294q98 98 226 97q128 0 222 -92t94 -287q0 -297 -215 -377q-51 -18 -105 -18q-129 0 -224 94q-95 93 -95 289zM408 821
q61 1 101 59t40 172t-38 173t-103 59q-66 0 -106 -56t-40 -171q0 -236 146 -236zM84 1048q0 196 98 294t228 98t222 -93q93 -93 93 -288q0 -111 -32 -193t-82 -123q-94 -77 -214 -77t-217 93q-96 93 -96 289z" />
    <glyph glyph-name="ampersand" unicode="&#x26;" horiz-adv-x="1290" 
d="M559 883q219 105 219 227q0 64 -41 106t-115 42t-114 -46q-39 -45 -39 -104q0 -60 20 -108t70 -117zM530 150q156 0 258 98l-307 397q-190 -115 -190 -268q0 -95 65 -161t174 -66zM983 678v22h209v-18q0 -116 -39 -230t-100 -194q86 -102 155 -102q39 0 60 8v-184
q-135 -33 -228 19q-57 32 -125 110q-176 -145 -393 -145t-334 118q-117 119 -116 291q0 256 303 415q-123 182 -123 322t95 233q95 95 265 95t271 -85q102 -85 102 -217t-81 -221q-81 -88 -240 -172l258 -335q61 116 61 270z" />
    <glyph glyph-name="quotesingle" unicode="'" horiz-adv-x="444" 
d="M115 1477h215l-21 -476h-176z" />
    <glyph glyph-name="parenleft" unicode="(" horiz-adv-x="704" 
d="M137 540q0 260 78 520q78 259 234 462h221q-158 -201 -233 -459t-75 -522t75 -524t233 -457h-221q-156 200 -234 460t-78 520z" />
    <glyph glyph-name="parenright" unicode=")" horiz-adv-x="704" 
d="M342 540q0 266 -76 524q-76 259 -233 458h223q156 -201 234 -461t77 -520q1 -260 -77 -520t-234 -461h-223q157 198 233 456t76 524z" />
    <glyph glyph-name="asterisk" unicode="*" horiz-adv-x="866" 
d="M29 1112l53 172l272 -102l-14 295h184l-16 -295l272 102l58 -170l-283 -76l184 -229l-151 -104l-156 245l-160 -245l-149 104l184 229z" />
    <glyph glyph-name="plus" unicode="+" horiz-adv-x="1376" 
d="M1217 449h-437v-449h-186v449h-434v186h434v450h186v-450h437v-186z" />
    <glyph glyph-name="comma" unicode="," horiz-adv-x="524" 
d="M119 0v276h289v-131q0 -225 -125 -421h-142q74 121 92 276h-114z" />
    <glyph glyph-name="hyphen" unicode="-" horiz-adv-x="956" 
d="M815 444h-659v193h659v-193z" />
    <glyph glyph-name="period" unicode="." horiz-adv-x="524" 
d="M119 0v276h289v-276h-289z" />
    <glyph glyph-name="slash" unicode="/" horiz-adv-x="802" 
d="M565 1475h209l-612 -1708h-207z" />
    <glyph glyph-name="zero" unicode="0" horiz-adv-x="1165" 
d="M588 162q116 0 192 132t76 404t-72 404q-72 133 -196 133t-200 -128q-77 -128 -77 -394q0 -551 277 -551zM68 699q0 546 334 702q90 41 186 41t181 -37t161 -117t121 -227t45 -335t-35 -328q-35 -138 -88 -219t-124 -134q-121 -90 -265 -90q-196 0 -346 155
q-78 80 -124 234t-46 355z" />
    <glyph glyph-name="one" unicode="1" horiz-adv-x="1165" 
d="M477 0v1186h-198v211h432v-1397h-234z" />
    <glyph glyph-name="two" unicode="2" horiz-adv-x="1165" 
d="M152 0v188l432 482q98 110 150 198t52 173t-52 139t-141 55q-89 0 -144 -61t-56 -162h-241q4 188 122 309q119 121 322 121q202 0 318 -110t116 -275q0 -131 -68 -249t-219 -280l-294 -317h604v-211h-901z" />
    <glyph glyph-name="three" unicode="3" horiz-adv-x="1165" 
d="M596 1442q196 0 314 -102q116 -102 116 -261q0 -117 -71 -199t-171 -112v-4q131 -27 210 -123t79 -244q0 -184 -126 -312t-349 -128t-344 115t-133 301h235q12 -97 76 -157t166 -60q104 0 170 70t66 178t-72 177t-213 68h-82v197h82q106 0 170 57q63 57 63 143t-48 141
q-48 54 -142 54t-144 -53t-55 -131h-233q8 165 124 275t312 110z" />
    <glyph glyph-name="four" unicode="4" horiz-adv-x="1165" 
d="M686 494v430q0 106 2 163h-6q-37 -73 -100 -167l-295 -426h399zM1094 291h-179v-291h-229v291h-620v192l622 914h227v-903h179v-203z" />
    <glyph glyph-name="five" unicode="5" horiz-adv-x="1165" 
d="M565 901q225 0 361 -124t135 -327q0 -203 -132 -349q-133 -146 -351 -146t-342 116t-138 287h248q12 -84 70 -138t160 -54t170 71t67 193q0 122 -78 192q-140 128 -553 25l72 750h711v-211h-502l-31 -301q61 16 133 16z" />
    <glyph glyph-name="six" unicode="6" horiz-adv-x="1165" 
d="M301 462q0 -130 81 -215t200 -85q120 0 200 84t80 213t-79 215t-203 86t-201 -84q-78 -84 -78 -214zM59 461q0 117 44 221t128 225l351 490h262l-324 -449q43 16 119 17q201 -5 333 -149t132 -355t-150 -359t-376 -147t-373 143q-146 142 -146 363z" />
    <glyph glyph-name="seven" unicode="7" horiz-adv-x="1165" 
d="M1038 1397v-197l-561 -1200h-258l574 1186h-646v211h891z" />
    <glyph glyph-name="eight" unicode="8" horiz-adv-x="1165" 
d="M1067 389q0 -182 -125 -307t-358 -125t-360 122q-126 122 -126 300q0 270 248 369v4q-207 88 -207 309q0 161 122 271t321 110q198 0 320 -110t122 -263q0 -115 -56 -200t-149 -117v-4q248 -91 248 -359zM340 399q0 -106 69 -175q69 -68 177 -68t176 64q66 64 66 176
t-68 181t-174 69t-176 -71q-70 -70 -70 -176zM377 1040q0 -90 60 -150q59 -60 147 -60t146 58q58 60 58 151t-58 147t-146 55q-88 0 -148 -55q-59 -56 -59 -146z" />
    <glyph glyph-name="nine" unicode="9" horiz-adv-x="1165" 
d="M584 637q126 0 202 84t76 215t-80 215t-200 84t-199 -84q-80 -84 -80 -213t78 -215t203 -86zM1104 945q0 -212 -172 -456l-350 -489h-260l321 449q-39 -16 -119 -17q-203 4 -333 148t-130 355q0 212 150 359q150 148 376 148q225 0 371 -142t146 -355z" />
    <glyph glyph-name="colon" unicode=":" horiz-adv-x="540" 
d="M127 0v276h287v-276h-287zM127 682v276h287v-276h-287z" />
    <glyph glyph-name="semicolon" unicode=";" horiz-adv-x="540" 
d="M127 682v276h287v-276h-287zM127 0v276h287v-131q0 -225 -125 -421h-142q74 121 95 276h-115z" />
    <glyph glyph-name="less" unicode="&#x3c;" horiz-adv-x="1376" 
d="M1204 -8l-1034 471v160l1034 471v-209l-774 -340v-4l774 -338v-211z" />
    <glyph glyph-name="equal" unicode="=" horiz-adv-x="1376" 
d="M1219 219h-1063v184h1063v-184zM1219 682h-1063v184h1063v-184z" />
    <glyph glyph-name="greater" unicode="&#x3e;" horiz-adv-x="1376" 
d="M1204 463l-1034 -471v209l776 338v6l-776 340v209l1034 -471v-160z" />
    <glyph glyph-name="question" unicode="?" horiz-adv-x="929" 
d="M338 0v229h244v-229h-244zM563 414h-205q0 120 22 192t85 146q77 77 115 128q37 50 50 87t13 99q0 63 -50 116t-133 53t-137 -56t-55 -153h-233q4 188 123 302q118 114 310 114t304 -108t113 -269q0 -206 -215 -399q-57 -56 -82 -112t-25 -140z" />
    <glyph glyph-name="at" unicode="@" horiz-adv-x="1927" 
d="M893 334q115 0 185 113t71 237q0 236 -172 238q-115 0 -183 -106t-67 -232q0 -126 45 -188t121 -62zM1806 729q0 -237 -116 -391t-287 -154q-106 0 -173 49t-77 138h-8q-45 -87 -127 -137t-166 -50q-147 0 -232 106t-85 290t115 338q116 154 302 153q152 0 228 -139h4
l20 119h185l-78 -502q-10 -96 -11 -105q0 -115 119 -114q94 0 154 109q59 110 59 280q0 274 -165 426q-165 151 -481 151t-505 -205q-188 -206 -188 -496t183 -463t493 -173q260 0 413 74l56 -123q-176 -96 -486 -96q-371 0 -602 213t-231 569t245 601t627 245
q203 0 363 -58q292 -107 402 -386q50 -126 50 -269z" />
    <glyph glyph-name="A" unicode="A" horiz-adv-x="1335" 
d="M582 883l-131 -357h430l-129 359q-43 119 -78 241h-10q-37 -126 -82 -243zM14 0l555 1397h222l530 -1397h-252l-125 342h-557l-127 -342h-246z" />
    <glyph glyph-name="B" unicode="B" horiz-adv-x="1134" 
d="M502 823q111 -1 169 53t58 145t-63 137t-174 46h-115v-381h125zM811 413q0 101 -70 160t-194 60h-170v-438h188q121 0 184 58q62 59 62 160zM145 0v1397h355q219 0 345 -93t126 -262q0 -112 -68 -188t-172 -106v-5q156 -18 241 -116t85 -232q0 -187 -134 -291t-345 -104
h-433z" />
    <glyph glyph-name="C" unicode="C" horiz-adv-x="1564" 
d="M795 1442q268 0 436 -136t219 -319h-264q-38 106 -142 176t-251 70q-201 1 -337 -145t-136 -380t134 -389q136 -156 347 -155q152 0 254 76t147 194h271q-80 -219 -250 -349t-430 -130q-319 0 -521 212q-200 212 -200 533q0 322 206 532t517 210z" />
    <glyph glyph-name="D" unicode="D" horiz-adv-x="1449" 
d="M387 215h221q254 0 388 136t134 351q0 216 -136 348t-386 132h-221v-967zM145 1397h467q362 0 564 -199t202 -498q0 -300 -207 -500t-563 -200h-463v1397z" />
    <glyph glyph-name="E" unicode="E" horiz-adv-x="1095" 
d="M950 1397v-213h-565v-359h545v-207h-545v-405h588v-213h-830v1397h807z" />
    <glyph glyph-name="F" unicode="F" horiz-adv-x="1040" 
d="M950 1397v-213h-563v-389h543v-205h-543v-590h-244v1397h807z" />
    <glyph glyph-name="G" unicode="G" horiz-adv-x="1583" 
d="M727 764h784v-45q1 -203 -77 -373t-244 -280t-393 -109q-315 0 -521 215q-204 215 -204 526q0 310 207 526t518 216q248 0 421 -114t246 -308h-262q-51 98 -155 156t-244 57q-213 -1 -348 -149t-135 -386t138 -384q140 -146 357 -146q176 0 298 112t140 281h-526v205z
" />
    <glyph glyph-name="H" unicode="H" horiz-adv-x="1419" 
d="M1032 0v614h-645v-614h-242v1397h242v-568h645v568h242v-1397h-242z" />
    <glyph glyph-name="I" unicode="I" horiz-adv-x="530" 
d="M143 0v1397h242v-1397h-242z" />
    <glyph glyph-name="J" unicode="J" horiz-adv-x="755" 
d="M387 389v1008h242v-998q1 -233 -99 -337t-297 -105q-115 0 -213 41v207q86 -39 182 -39t141 51q44 51 44 172z" />
    <glyph glyph-name="K" unicode="K" horiz-adv-x="1288" 
d="M387 0h-242v1397h242v-586l557 586h309l-587 -602l655 -795h-309l-514 631l-111 -115v-516z" />
    <glyph glyph-name="L" unicode="L" horiz-adv-x="993" 
d="M143 0v1397h242v-1184h588v-213h-830z" />
    <glyph glyph-name="M" unicode="M" horiz-adv-x="1677" 
d="M1264 1073h-11q-51 -186 -98 -336l-231 -737h-181l-233 754q-76 231 -94 319h-15q-6 -133 -24 -317l-78 -756h-221l162 1397h276l246 -760q45 -141 74 -256h8q16 66 76 256l243 760h275l164 -1397h-234l-74 739q-30 295 -30 334z" />
    <glyph glyph-name="N" unicode="N" horiz-adv-x="1382" 
d="M358 752v-752h-215v1397h215l416 -631q174 -260 250 -406h4q-4 147 -4 273v764h213v-1397h-213l-397 600q-187 280 -269 430h-6q6 -209 6 -278z" />
    <glyph glyph-name="O" unicode="O" horiz-adv-x="1624" 
d="M72 698q0 304 212 524t538 220t528 -219t202 -527t-213 -524q-213 -217 -526 -217q-185 0 -331 67q-262 120 -365 413q-45 128 -45 263zM319 698q-1 -226 141 -376t352 -150t351 151t141 375t-136 376q-138 151 -351 151t-355 -151t-143 -376z" />
    <glyph glyph-name="P" unicode="P" horiz-adv-x="1134" 
d="M143 0v1397h430q236 0 379 -112q144 -112 144 -327q0 -216 -133 -332t-402 -116h-176v-510h-242zM850 952q0 110 -68 176t-207 66h-190v-483h186q279 -1 279 241z" />
    <glyph glyph-name="Q" unicode="Q" horiz-adv-x="1624" 
d="M317 698q-1 -226 141 -376t351 -150q92 0 178 35l-182 225l166 135l192 -239q139 150 139 372t-136 374q-138 151 -351 151t-355 -151t-143 -376zM804 -45q-176 0 -322 67q-264 121 -367 413q-45 128 -45 263q0 304 212 524t538 220t528 -219t202 -539t-239 -537
l186 -229l-166 -135l-198 244q-154 -72 -329 -72z" />
    <glyph glyph-name="R" unicode="R" horiz-adv-x="1206" 
d="M584 754q113 0 176 60t63 162t-62 160t-179 58h-197v-440h199zM385 563v-563h-242v1397h422q262 0 385 -120t123 -300q0 -143 -86 -247t-215 -136l434 -594h-291l-397 563h-133z" />
    <glyph glyph-name="S" unicode="S" horiz-adv-x="1136" 
d="M565 1241q-84 0 -136 -48t-52 -128t62 -129t188 -90q217 -68 310 -182t93 -281q0 -168 -120 -298t-329 -130q-209 1 -337 109t-156 313h246q18 -105 78 -163t161 -58q100 0 159 63q58 63 58 157t-62 154q-64 61 -208 107q-381 123 -381 428q0 164 122 270
q122 107 306 107t302 -104t132 -273h-237q-10 80 -62 128t-137 48z" />
    <glyph glyph-name="T" unicode="T" horiz-adv-x="978" 
d="M369 0v1184h-349v213h938v-213h-348v-1184h-241z" />
    <glyph glyph-name="U" unicode="U" horiz-adv-x="1292" 
d="M1167 559q0 -311 -141 -457q-140 -146 -374 -147q-234 0 -382 144q-147 144 -147 456v842h242v-865q1 -170 75 -269t207 -99q281 0 281 368v865h239v-838z" />
    <glyph glyph-name="V" unicode="V" horiz-adv-x="1259" 
d="M1260 1397l-523 -1397h-219l-516 1397h260l283 -824q55 -162 88 -286h4q35 131 90 288l285 822h248z" />
    <glyph glyph-name="W" unicode="W" horiz-adv-x="1751" 
d="M1126 0l-190 799q-39 166 -49 297h-8q-20 -164 -52 -291l-184 -805h-252l-366 1397h239l199 -819q27 -106 55 -267h8q25 150 56 285l188 801h231l195 -815q23 -94 53 -271h8q23 152 50 269l184 817h238l-345 -1397h-258z" />
    <glyph glyph-name="X" unicode="X" horiz-adv-x="1216" 
d="M299 1397l215 -336q41 -63 98 -162h6q51 92 99 166l213 332h258l-453 -668l473 -729h-272l-219 354q-95 152 -113 189h-4q-88 -152 -117 -193l-215 -350h-260l469 721l-452 676h274z" />
    <glyph glyph-name="Y" unicode="Y" horiz-adv-x="1167" 
d="M465 0v561l-447 836h267l235 -457q49 -96 74 -168h4q18 49 76 166l225 459h252l-444 -834v-563h-242z" />
    <glyph glyph-name="Z" unicode="Z" horiz-adv-x="1253" 
d="M115 1184v213h1024v-201l-760 -983h792v-213h-1091v199l760 985h-725z" />
    <glyph glyph-name="bracketleft" unicode="[" horiz-adv-x="747" 
d="M616 1491v-188h-217v-1524h217v-189h-428v1901h428z" />
    <glyph glyph-name="backslash" unicode="\" horiz-adv-x="860" 
d="M872 -233h-208l-650 1708h207z" />
    <glyph glyph-name="bracketright" unicode="]" horiz-adv-x="747" 
d="M131 1303v188h428v-1901h-428v189h217v1524h-217z" />
    <glyph glyph-name="asciicircum" unicode="^" horiz-adv-x="1368" 
d="M1253 668h-217l-350 575h-6l-348 -575h-215l475 774h184z" />
    <glyph glyph-name="underscore" unicode="_" horiz-adv-x="1126" 
d="M0 -487v178h1126v-178h-1126z" />
    <glyph glyph-name="grave" unicode="`" horiz-adv-x="663" 
d="M70 1403l129 149l301 -290l-103 -123z" />
    <glyph glyph-name="a" unicode="a" horiz-adv-x="1236" 
d="M301 491q0 -133 77 -229t207 -96t217 91t87 232t-83 233t-216 93q-133 0 -211 -96t-78 -228zM1102 981v-981h-223v125h-7q-129 -160 -323 -160t-339 140q-144 140 -144 378t141 383q141 146 342 146t325 -164h5v133h223z" />
    <glyph glyph-name="b" unicode="b" horiz-adv-x="1236" 
d="M936 490q0 132 -78 226t-210 95q-132 0 -215 -90q-83 -91 -83 -233t85 -233t215 -91t208 97t78 229zM135 0v1475h223v-619h7q141 156 333 156t333 -142q140 -142 140 -378t-141 -381t-341 -145t-322 153h-7v-119h-225z" />
    <glyph glyph-name="c" unicode="c" horiz-adv-x="1120" 
d="M588 1014q194 0 310 -100t142 -228h-235q-53 133 -219 133q-127 0 -206 -88t-79 -234q0 -147 81 -241t212 -94q162 0 225 147h238q-45 -150 -161 -247t-324 -97q-208 1 -357 147t-149 374t143 378t379 150z" />
    <glyph glyph-name="d" unicode="d" horiz-adv-x="1236" 
d="M301 491q0 -133 77 -229t207 -96t217 91t87 233t-84 234t-215 93q-131 0 -210 -97t-79 -229zM1102 1475v-1475h-223v117h-7q-130 -152 -326 -152t-338 140t-142 377t139 384q139 148 339 148t326 -156h7v617h225z" />
    <glyph glyph-name="e" unicode="e" horiz-adv-x="1128" 
d="M561 842q-111 0 -183 -72t-81 -172h530q-11 102 -83 173t-183 71zM1057 500q0 -47 -4 -68h-758q0 -115 87 -201t215 -86t210 111h235q-55 -127 -169 -209t-285 -82q-227 0 -375 151q-147 151 -147 375q0 223 136 373t368 149t359 -154q128 -153 128 -359z" />
    <glyph glyph-name="f" unicode="f" horiz-adv-x="645" 
d="M43 788v193h139v162q0 166 86 254t248 88q88 0 150 -19v-188q-61 16 -111 16q-143 0 -143 -155v-158h219v-193h-219v-788h-230v788h-139z" />
    <glyph glyph-name="g" unicode="g" horiz-adv-x="1236" 
d="M301 494q0 -128 78 -224t209 -96t216 89t85 230t-83 231t-215 91q-132 0 -211 -96t-79 -225zM1104 981v-950q0 -557 -518 -557q-203 0 -332 103t-158 282h230q47 -195 270 -195q141 0 215 87t74 251v123h-4q-133 -152 -334 -152q-201 -1 -340 143t-139 372t138 376
t345 148t328 -158h6v127h219z" />
    <glyph glyph-name="h" unicode="h" horiz-adv-x="1159" 
d="M133 0v1475h229v-617h7q109 156 285 156t284 -112t106 -337v-565h-229v553q0 125 -55 191t-161 67q-105 0 -171 -75t-66 -214v-522h-229z" />
    <glyph glyph-name="i" unicode="i" horiz-adv-x="495" 
d="M121 1198v234h254v-234h-254zM133 0v981h229v-981h-229z" />
    <glyph glyph-name="j" unicode="j" horiz-adv-x="495" 
d="M121 1198v234h254v-234h-254zM362 981v-1073q0 -214 -93 -318t-261 -104q-96 0 -186 29v192q80 -25 147 -24q164 0 164 217v1081h229z" />
    <glyph glyph-name="k" unicode="k" horiz-adv-x="1042" 
d="M362 0h-229v1475h229v-861l353 367h278l-397 -403l461 -578h-279l-340 430l-76 -74v-356z" />
    <glyph glyph-name="l" unicode="l" horiz-adv-x="495" 
d="M133 0v1475h229v-1475h-229z" />
    <glyph glyph-name="m" unicode="m" horiz-adv-x="1773" 
d="M133 0v981h227v-123h5q109 156 286 156q109 0 191 -54t110 -135q41 76 129 132t199 57q170 0 270 -117t101 -332v-565h-228v567q0 104 -50 174t-144 70q-93 0 -157 -71t-64 -205v-535h-230v567q0 106 -53 175t-148 69t-155 -74t-60 -202v-535h-229z" />
    <glyph glyph-name="n" unicode="n" horiz-adv-x="1165" 
d="M133 0v981h227v-123h5q109 156 286 156t285 -113t108 -336v-565h-229v553q0 125 -55 191t-161 67q-105 0 -171 -76t-66 -215v-520h-229z" />
    <glyph glyph-name="o" unicode="o" horiz-adv-x="1181" 
d="M299 492q0 -138 85 -230t210 -92t207 91t82 229t-80 229q-80 92 -212 92t-212 -90t-80 -229zM66 493q0 224 150 372q151 149 377 149q225 0 373 -148t148 -371q0 -222 -150 -376t-373 -154q-224 0 -375 152q-150 152 -150 376z" />
    <glyph glyph-name="p" unicode="p" horiz-adv-x="1236" 
d="M936 490q0 132 -78 226t-210 95q-132 0 -215 -90q-83 -91 -83 -233t85 -233t215 -91t208 97t78 229zM135 -481v1462h223v-125h7q133 156 333 156t336 -146q137 -146 137 -376t-140 -377t-341 -147t-323 153h-7v-600h-225z" />
    <glyph glyph-name="q" unicode="q" horiz-adv-x="1236" 
d="M301 491q0 -133 77 -229t207 -96t217 91t87 233t-84 234t-215 93q-131 0 -210 -97t-79 -229zM1102 981v-1462h-223v598h-7q-127 -152 -322 -152t-340 140q-144 140 -144 377t140 384q140 148 338 148t326 -156h7v123h225z" />
    <glyph glyph-name="r" unicode="r" horiz-adv-x="774" 
d="M610 803q-120 0 -184 -78t-64 -229v-496h-229v981h225v-139h7q37 70 109 120q74 50 144 50t107 -6v-213q-72 10 -115 10z" />
    <glyph glyph-name="s" unicode="s" horiz-adv-x="888" 
d="M446 848q-54 0 -88 -31t-32 -77q0 -46 40 -80t160 -74q285 -92 285 -314q0 -137 -97 -222t-265 -85t-261 84q-92 84 -106 227h213q18 -143 162 -143q63 0 99 34t36 89t-44 94t-161 80q-141 45 -209 118q-68 72 -68 190t91 197t243 79t240 -79t107 -206h-211q-8 53 -44 86
t-90 33z" />
    <glyph glyph-name="t" unicode="t" horiz-adv-x="684" 
d="M29 788v193h123v313h229v-313h244v-193h-244v-438q0 -96 31 -133t92 -37t131 17v-187q-80 -23 -174 -22q-172 0 -241 91t-68 257v452h-123z" />
    <glyph glyph-name="u" unicode="u" horiz-adv-x="1140" 
d="M1010 981v-981h-228v121h-6q-111 -154 -291 -154q-133 0 -243 92q-55 47 -88 135t-33 207v580h229v-553q0 -122 54 -190t154 -68t161 75t61 214v522h230z" />
    <glyph glyph-name="v" unicode="v" horiz-adv-x="919" 
d="M926 981l-363 -981h-209l-362 981h237l164 -487q47 -145 66 -246h8q35 152 65 246l166 487h228z" />
    <glyph glyph-name="w" unicode="w" horiz-adv-x="1454" 
d="M887 0l-119 494q-33 152 -41 213h-8q-12 -102 -47 -254l-107 -453h-274l-252 981h225l131 -557q27 -121 39 -195h8q27 137 43 205l136 547h219l137 -555q12 -49 37 -197h6q14 102 35 195l135 557h225l-256 -981h-272z" />
    <glyph glyph-name="x" unicode="x" horiz-adv-x="1017" 
d="M27 0l358 498l-338 483h258l146 -219q28 -44 40 -70q13 -26 19 -35h6q25 49 55 99l142 225h256l-338 -477l356 -504h-266l-156 236q-23 39 -59 106h-6q-29 -51 -64 -109l-151 -233h-258z" />
    <glyph glyph-name="y" unicode="y" horiz-adv-x="925" 
d="M934 981l-539 -1462h-219l180 485l-358 977h235l170 -487q53 -162 66 -226h6q29 115 66 226l166 487h227z" />
    <glyph glyph-name="z" unicode="z" horiz-adv-x="991" 
d="M98 791v190h793v-182l-526 -609h550v-190h-841v182l528 609h-504z" />
    <glyph glyph-name="braceleft" unicode="{" horiz-adv-x="782" 
d="M512 1184v-381q0 -88 -43 -160t-125 -104v-4q78 -27 123 -100t45 -179v-362q0 -156 143 -162v-172q-358 2 -358 338v385q0 71 -45 119t-125 55v164q80 4 125 53t45 119v393q0 156 88 244t270 90v-174q-143 -2 -143 -162z" />
    <glyph glyph-name="bar" unicode="|" horiz-adv-x="770" 
d="M475 -430h-182v2048h182v-2048z" />
    <glyph glyph-name="braceright" unicode="}" horiz-adv-x="782" 
d="M483 1186v-393q0 -70 45 -119t125 -53v-164q-80 -7 -125 -55t-45 -119v-385q0 -168 -93 -252t-263 -86v172q143 6 143 162v362q0 106 45 179t123 100v4q-82 33 -125 105t-43 159v381q0 160 -143 162v174q180 -2 268 -92t88 -242z" />
    <glyph glyph-name="asciitilde" unicode="~" horiz-adv-x="1368" 
d="M910 365q-126 1 -254 83q-130 82 -203 82t-121 -36t-99 -119l-143 94q133 240 352 240q123 0 258 -80q135 -88 222 -88q121 0 213 153l143 -92q-72 -121 -157 -179t-211 -58z" />
    <glyph glyph-name="uni00A0" unicode="&#xa0;" horiz-adv-x="512" 
 />
    <glyph glyph-name="exclamdown" unicode="&#xa1;" horiz-adv-x="524" 
d="M389 0h-252l25 983h203zM385 1397v-230h-244v230h244z" />
    <glyph glyph-name="cent" unicode="&#xa2;" horiz-adv-x="1165" 
d="M326 712q0 -114 50 -198t136 -117v625q-86 -32 -136 -114t-50 -196zM512 0v190q-182 33 -301 172q-119 140 -119 342t114 344t306 175v174h176v-172q158 -21 255 -115t124 -207h-231q-41 94 -148 125v-641q113 29 162 139h233q-41 -131 -142 -225t-253 -115v-186h-176z
" />
    <glyph glyph-name="sterling" unicode="&#xa3;" horiz-adv-x="1165" 
d="M850 815v-182h-352q18 -96 18 -162q0 -139 -90 -215q61 0 188 -45q143 -45 183 -45q102 0 108 180h219q-4 -184 -81 -288t-226 -103q-99 0 -259 54t-230 54q-117 0 -234 -69v203q96 31 150 103q53 73 53 157t-25 176h-178v182h129q-31 131 -30 238q-1 167 109 279
t308 112t314 -113t125 -291h-234q-2 92 -57 148t-142 57q-88 0 -138 -59q-50 -58 -50 -158t25 -213h397z" />
    <glyph glyph-name="currency" unicode="&#xa4;" horiz-adv-x="1257" 
d="M629 465q109 1 185 77t77 186q0 110 -80 184q-81 74 -187 75q-106 0 -183 -77q-77 -76 -77 -184t78 -184t187 -77zM626 309q-134 0 -235 74l-139 -137l-111 112l142 134q-74 116 -74 240t74 226l-142 136l111 112l139 -137q107 72 239 72t234 -72l142 137l108 -112
l-139 -136q74 -110 74 -232t-74 -234q69 -71 139 -134l-108 -112l-142 137q-104 -74 -238 -74z" />
    <glyph glyph-name="yen" unicode="&#xa5;" horiz-adv-x="1165" 
d="M109 569v172h276l-346 656h250l219 -436q55 -109 78 -175h4q33 82 76 172l215 439h243l-346 -656h279v-172h-359v-159h359v-172h-359v-238h-231v238h-358v172h358v159h-358z" />
    <glyph glyph-name="brokenbar" unicode="&#xa6;" horiz-adv-x="770" 
d="M475 -225h-182v614h182v-614zM475 799h-182v614h182v-614z" />
    <glyph glyph-name="section" unicode="&#xa7;" horiz-adv-x="899" 
d="M612 666q0 59 -47 97t-155 79q-47 -10 -80 -43t-33 -88t45 -95t164 -90q106 40 106 140zM799 678q0 -164 -152 -238q123 -86 123 -225t-86 -224t-245 -85t-245 79t-96 220h195q6 -141 147 -142q66 0 103 38q37 39 37 97t-46 100t-161 92t-188 123t-72 189q0 78 41 138
t112 88q-127 92 -127 224t86 211q87 79 231 79t227 -77t87 -196h-182q-4 49 -39 80t-97 31t-93 -34t-31 -85t45 -90t176 -94q250 -106 250 -299z" />
    <glyph glyph-name="dieresis" unicode="&#xa8;" horiz-adv-x="663" 
d="M410 1214v209h215v-209h-215zM41 1214v209h215v-209h-215z" />
    <glyph glyph-name="copyright" unicode="&#xa9;" horiz-adv-x="1683" 
d="M217 698q0 -258 184 -441q185 -183 443 -183t440 183t182 441t-182 442t-440 183q-258 0 -443 -183q-184 -184 -184 -442zM98 698q0 308 218 526t526 218t526 -218q217 -218 217 -526t-217 -525q-217 -218 -525 -218t-527 218q-218 218 -218 525zM833 1135q165 0 259 -86
t120 -203h-182q-39 129 -190 129q-104 0 -168 -73q-64 -74 -64 -192t65 -193t175 -75q70 0 121 39t69 107h183q-35 -133 -135 -219t-242 -86q-184 1 -297 121t-113 306t117 305q117 120 282 120z" />
    <glyph glyph-name="ordfeminine" unicode="&#xaa;" horiz-adv-x="786" 
d="M502 989v43q-141 -14 -207 -56t-66 -97q0 -84 99 -84q78 0 126 53t48 141zM287 653q-109 1 -170 59t-61 164t112 187q113 80 334 98v8q0 135 -119 136q-123 0 -141 -93h-160q14 104 97 166t212 64q129 0 205 -73t76 -220v-254q0 -82 39 -82q10 0 26 4v-143
q-29 -14 -81 -14t-92 29q-40 30 -48 83q-80 -119 -229 -119z" />
    <glyph glyph-name="guillemotleft" unicode="&#xab;" horiz-adv-x="997" 
d="M106 508l263 424l143 -78l-180 -346l180 -346l-143 -80zM494 508l262 424l143 -78l-178 -346l178 -346l-143 -80z" />
    <glyph glyph-name="logicalnot" unicode="&#xac;" horiz-adv-x="1376" 
d="M1219 213h-189v391h-874v184h1063v-575z" />
    <glyph glyph-name="uni00AD" unicode="&#xad;" horiz-adv-x="956" 
d="M821 444h-659v193h659v-193z" />
    <glyph glyph-name="registered" unicode="&#xae;" horiz-adv-x="1019" 
d="M510 1024q86 0 86 64t-86 65h-55v-129h55zM455 938v-170h-121v475h198q92 0 140 -43t47 -101q0 -57 -30 -97t-77 -52l138 -182h-132l-122 170h-41zM164 999q0 -143 102 -244t246 -101t244 100q102 102 102 246t-101 246t-245 102t-246 -103t-102 -246zM72 1000
q0 182 129 312t310 130t310 -130t129 -312t-129 -310q-129 -129 -310 -129t-310 129t-129 310z" />
    <glyph glyph-name="macron" unicode="&#xaf;" horiz-adv-x="663" 
d="M621 1223h-578v163h578v-163z" />
    <glyph glyph-name="degree" unicode="&#xb0;" horiz-adv-x="755" 
d="M379 1309q-63 0 -109 -45q-46 -46 -45 -110q0 -64 44 -108q45 -44 109 -44t108 44t44 108t-44 110q-44 45 -107 45zM106 1155q0 113 80 192t193 79t191 -80q78 -78 79 -191q0 -113 -79 -191q-80 -78 -192 -79q-112 1 -192 79t-80 191z" />
    <glyph glyph-name="plusminus" unicode="&#xb1;" horiz-adv-x="1376" 
d="M1217 659h-437v-362h-186v362h-434v187h434v364h186v-364h437v-187zM1217 0h-1057v184h1057v-184z" />
    <glyph glyph-name="twosuperior" unicode="&#xb2;" 
d="M115 870v127l282 301q45 49 68 76q63 74 63 134t-32 90t-82 30q-115 0 -121 -131h-187q4 127 84 208t224 81t227 -74q84 -74 84 -186q0 -80 -44 -151t-155 -185l-153 -158h364v-162h-622z" />
    <glyph glyph-name="threesuperior" unicode="&#xb3;" 
d="M555 1356q184 -43 184 -245q0 -105 -88 -187t-245 -82q-158 0 -240 74t-92 210h184q16 -135 148 -135q66 0 104 41q38 42 37 104q0 62 -42 101t-124 39h-62v141h58q67 0 103 31t36 80t-30 79q-30 29 -85 29t-84 -32q-28 -33 -32 -80h-183q4 118 85 190t223 72t220 -64
q79 -64 79 -168q0 -72 -43 -124t-111 -70v-4z" />
    <glyph glyph-name="acute" unicode="&#xb4;" horiz-adv-x="663" 
d="M164 1262l303 290l127 -149l-328 -264z" />
    <glyph glyph-name="mu" unicode="&#xb5;" horiz-adv-x="1167" 
d="M121 -436v1417h229v-553q0 -122 51 -190t154 -68t163 77t60 220v514h232v-692q0 -57 15 -80t54 -23q8 0 45 7v-201q-46 -16 -126 -16q-171 -1 -201 157h-4q-98 -166 -275 -166q-109 0 -184 58l-6 -5q23 -90 22 -249v-207h-229z" />
    <glyph glyph-name="paragraph" unicode="&#xb6;" horiz-adv-x="1140" 
d="M1008 1243h-125v-1243h-170v1243h-150v-1243h-168v760q-147 2 -239 93t-92 235t98 226q98 83 248 83h598v-154z" />
    <glyph glyph-name="periodcentered" unicode="&#xb7;" horiz-adv-x="524" 
d="M125 584v276h289v-276h-289z" />
    <glyph glyph-name="cedilla" unicode="&#xb8;" horiz-adv-x="663" 
d="M557 -291q1 -86 -65 -146q-66 -61 -184 -61t-222 35l49 137q57 -24 155 -24t97 69q0 88 -192 88l77 193h142l-33 -80q82 -14 129 -70t47 -141z" />
    <glyph glyph-name="onesuperior" unicode="&#xb9;" 
d="M334 870v732h-139v157h327v-889h-188z" />
    <glyph glyph-name="ordmasculine" unicode="&#xba;" horiz-adv-x="917" 
d="M459 1276q-95 0 -155 -59t-60 -161t61 -168q61 -65 155 -65q94 -1 153 63q61 64 61 162t-60 164q-60 64 -155 64zM59 1051q0 175 115 283t287 108q173 0 285 -112t112 -280t-113 -280q-113 -113 -285 -113t-286 110q-115 110 -115 284z" />
    <glyph glyph-name="guillemotright" unicode="&#xbb;" horiz-adv-x="997" 
d="M893 506l-262 -424l-146 78l181 346l-181 348l146 78zM504 506l-262 -424l-144 78l178 346l-178 348l144 78z" />
    <glyph glyph-name="onequarter" unicode="&#xbc;" horiz-adv-x="1902" 
d="M1532 297v268q0 25 4 99h-6q-21 -41 -70 -115l-176 -252h248zM1845 154h-129v-154h-184v154h-410v137l414 598h180v-592h129v-143zM1350 1397h180l-944 -1397h-183zM334 512v731h-139v158h327v-889h-188z" />
    <glyph glyph-name="onehalf" unicode="&#xbd;" horiz-adv-x="1988" 
d="M1280 0v127l283 301q45 49 67 76q62 73 63 133q1 61 -31 91t-83 30q-115 0 -121 -131h-186q4 127 84 208t223 81t227 -74t84 -187q0 -81 -44 -151t-154 -185l-154 -157h365v-162h-623zM1350 1397h180l-944 -1397h-183zM334 512v731h-139v158h327v-889h-188z" />
    <glyph glyph-name="threequarters" unicode="&#xbe;" horiz-adv-x="1955" 
d="M1585 297v268q0 25 4 99h-6q-21 -41 -70 -115l-176 -252h248zM1898 154h-129v-154h-184v154h-409v137l413 598h180v-592h129v-143zM1405 1397h180l-944 -1397h-182zM709 1196q0 -72 -43 -124t-111 -71v-4q86 -21 135 -81t49 -164t-88 -186q-88 -83 -245 -83
q-158 0 -240 75t-92 210h184q16 -135 148 -135q66 0 104 41t37 103q0 61 -42 101t-124 40h-62v141h58q67 0 103 31q36 32 36 80t-30 78t-85 30t-83 -33t-33 -80h-183q4 117 85 190t223 73t220 -64q79 -63 79 -168z" />
    <glyph glyph-name="questiondown" unicode="&#xbf;" horiz-adv-x="929" 
d="M592 1397v-230h-246v230h246zM367 983h204q1 -119 -21 -191t-85 -147q-57 -57 -99 -108q-42 -50 -46 -62t-18 -42t-15 -98q0 -67 50 -120t132 -53t136 56t54 153h234q-4 -188 -122 -302q-119 -114 -311 -114q-192 -1 -304 107t-113 270q0 119 57 213q58 94 160 186
q57 55 82 111t25 141z" />
    <glyph glyph-name="Agrave" unicode="&#xc0;" horiz-adv-x="1335" 
d="M410 1667l86 180l372 -198l-69 -146zM588 883l-131 -357h430l-129 359q-43 119 -78 241h-10q-37 -126 -82 -243zM20 0l555 1397h222l530 -1397h-252l-125 342h-557l-127 -342h-246z" />
    <glyph glyph-name="Aacute" unicode="&#xc1;" horiz-adv-x="1335" 
d="M874 1847l84 -180l-389 -164l-67 146zM588 883l-131 -357h430l-129 359q-43 119 -78 241h-10q-37 -126 -82 -243zM20 0l555 1397h222l530 -1397h-252l-125 342h-557l-127 -342h-246z" />
    <glyph glyph-name="Acircumflex" unicode="&#xc2;" horiz-adv-x="1335" 
d="M684 1837l317 -207l-65 -127l-252 121l-252 -121l-65 127zM588 883l-131 -357h430l-129 359q-43 119 -78 241h-10q-37 -126 -82 -243zM20 0l555 1397h222l530 -1397h-252l-125 342h-557l-127 -342h-246z" />
    <glyph glyph-name="Atilde" unicode="&#xc3;" horiz-adv-x="1335" 
d="M534 1839q88 0 164 -59q78 -59 125 -60q59 0 62 101h145q-10 -262 -211 -262q-88 0 -165 59t-109 59q-56 0 -62 -100h-145q6 119 57 191t139 71zM588 883l-131 -357h430l-129 359q-43 119 -78 241h-10q-37 -126 -82 -243zM20 0l555 1397h222l530 -1397h-252l-125 342
h-557l-127 -342h-246z" />
    <glyph glyph-name="Adieresis" unicode="&#xc4;" horiz-adv-x="1335" 
d="M760 1583v209h215v-209h-215zM391 1583v209h215v-209h-215zM588 883l-131 -357h430l-129 359q-43 119 -78 241h-10q-37 -126 -82 -243zM20 0l555 1397h222l530 -1397h-252l-125 342h-557l-127 -342h-246z" />
    <glyph glyph-name="Aring" unicode="&#xc5;" horiz-adv-x="1335" 
d="M426 1722q0 108 75 184t183 74q108 0 183 -74t75 -183q0 -107 -75 -183t-183 -76t-184 76q-74 74 -74 182zM559 1724q0 -51 37 -88t89 -37t87 36t35 88t-35 87t-87 35t-89 -35t-37 -86zM588 883l-131 -357h430l-129 359q-43 119 -78 241h-10q-37 -126 -82 -243zM20 0
l555 1397h222l530 -1397h-252l-125 342h-557l-127 -342h-246z" />
    <glyph glyph-name="AE" unicode="&#xc6;" horiz-adv-x="1828" 
d="M909 526v658h-37l-348 -658h385zM1683 1397v-213h-534v-359h514v-207h-514v-405h557v-213h-797v342h-477l-178 -342h-266l764 1397h931z" />
    <glyph glyph-name="Ccedilla" unicode="&#xc7;" horiz-adv-x="1564" 
d="M795 1442q268 0 436 -136t219 -319h-264q-38 106 -142 176t-251 70q-201 1 -337 -145t-136 -380t134 -389q136 -156 347 -155q152 0 254 76t147 194h271q-76 -205 -231 -333t-388 -144l-14 -37q82 -14 129 -70t47 -141q0 -86 -66 -146q-66 -61 -184 -61t-221 35l49 137
q57 -24 154 -24t98 69q0 88 -193 88l60 152q-289 27 -465 234t-176 517t206 522q206 210 517 210z" />
    <glyph glyph-name="Egrave" unicode="&#xc8;" horiz-adv-x="1095" 
d="M289 1667l86 180l373 -198l-70 -146zM956 1397v-213h-565v-359h545v-207h-545v-405h588v-213h-829v1397h806z" />
    <glyph glyph-name="Eacute" unicode="&#xc9;" horiz-adv-x="1095" 
d="M735 1847l84 -180l-389 -164l-68 146zM956 1397v-213h-565v-359h545v-207h-545v-405h588v-213h-829v1397h806z" />
    <glyph glyph-name="Ecircumflex" unicode="&#xca;" horiz-adv-x="1095" 
d="M555 1837l317 -207l-65 -127l-252 121l-252 -121l-65 127zM956 1397v-213h-565v-359h545v-207h-545v-405h588v-213h-829v1397h806z" />
    <glyph glyph-name="Edieresis" unicode="&#xcb;" horiz-adv-x="1095" 
d="M629 1583v209h215v-209h-215zM260 1583v209h215v-209h-215zM956 1397v-213h-565v-359h545v-207h-545v-405h588v-213h-829v1397h806z" />
    <glyph glyph-name="Igrave" unicode="&#xcc;" horiz-adv-x="530" 
d="M-4 1667l86 180l373 -198l-70 -146zM150 0v1397h241v-1397h-241z" />
    <glyph glyph-name="Iacute" unicode="&#xcd;" horiz-adv-x="530" 
d="M461 1847l84 -180l-389 -164l-68 146zM150 0v1397h241v-1397h-241z" />
    <glyph glyph-name="Icircumflex" unicode="&#xce;" horiz-adv-x="530" 
d="M270 1837l318 -207l-66 -127l-252 121l-252 -121l-65 127zM150 0v1397h241v-1397h-241z" />
    <glyph glyph-name="Idieresis" unicode="&#xcf;" horiz-adv-x="530" 
d="M348 1583v209h215v-209h-215zM-20 1583v209h215v-209h-215zM150 0v1397h241v-1397h-241z" />
    <glyph glyph-name="Eth" unicode="&#xd0;" horiz-adv-x="1499" 
d="M436 211h221q254 0 389 138q134 138 134 353q0 216 -138 350t-385 134h-221v-369h346v-192h-346v-414zM31 625v192h164v580h467q362 0 564 -199t202 -498q0 -300 -208 -500q-206 -200 -563 -200h-462v625h-164z" />
    <glyph glyph-name="Ntilde" unicode="&#xd1;" horiz-adv-x="1382" 
d="M542 1839q88 0 165 -59q78 -59 124 -60q59 0 62 101h145q-10 -262 -211 -262q-89 0 -165 59t-109 59q-55 0 -61 -100h-146q6 119 57 191t139 71zM365 0h-215v1397h215l415 -631q172 -260 250 -406h4q-4 147 -4 273v764h213v-1397h-213l-397 600q-186 280 -268 430h-7
q6 -209 7 -278v-752z" />
    <glyph glyph-name="Ograve" unicode="&#xd2;" horiz-adv-x="1624" 
d="M563 1667l86 180l373 -198l-70 -146zM78 698q0 304 212 524t538 220t528 -219q203 -219 203 -527t-213 -524q-213 -217 -527 -217q-185 0 -331 67q-262 120 -365 413q-45 128 -45 263zM326 698q0 -226 141 -376t351 -150t351 151t141 375t-136 376q-136 151 -350 151
t-356 -151t-142 -376z" />
    <glyph glyph-name="Oacute" unicode="&#xd3;" horiz-adv-x="1624" 
d="M999 1847l84 -180l-389 -164l-67 146zM78 698q0 304 212 524t538 220t528 -219q203 -219 203 -527t-213 -524q-213 -217 -527 -217q-185 0 -331 67q-262 120 -365 413q-45 128 -45 263zM326 698q0 -226 141 -376t351 -150t351 151t141 375t-136 376q-136 151 -350 151
t-356 -151t-142 -376z" />
    <glyph glyph-name="Ocircumflex" unicode="&#xd4;" horiz-adv-x="1624" 
d="M823 1837l318 -207l-66 -127l-252 121l-252 -121l-65 127zM78 698q0 304 212 524t538 220t528 -219q203 -219 203 -527t-213 -524q-213 -217 -527 -217q-185 0 -331 67q-262 120 -365 413q-45 128 -45 263zM326 698q0 -226 141 -376t351 -150t351 151t141 375t-136 376
q-136 151 -350 151t-356 -151t-142 -376z" />
    <glyph glyph-name="Otilde" unicode="&#xd5;" horiz-adv-x="1624" 
d="M673 1839q87 0 165 -59t125 -60q59 0 61 101h145q-10 -262 -211 -262q-88 0 -164 59t-110 59q-55 0 -61 -100h-146q5 119 57 191t139 71zM78 698q0 304 212 524t538 220t528 -219q203 -219 203 -527t-213 -524q-213 -217 -527 -217q-185 0 -331 67q-262 120 -365 413
q-45 128 -45 263zM326 698q0 -226 141 -376t351 -150t351 151t141 375t-136 376q-136 151 -350 151t-356 -151t-142 -376z" />
    <glyph glyph-name="Odieresis" unicode="&#xd6;" horiz-adv-x="1624" 
d="M901 1583v209h215v-209h-215zM532 1583v209h216v-209h-216zM78 698q0 304 212 524t538 220t528 -219q203 -219 203 -527t-213 -524q-213 -217 -527 -217q-185 0 -331 67q-262 120 -365 413q-45 128 -45 263zM326 698q0 -226 141 -376t351 -150t351 151t141 375t-136 376
q-136 151 -350 151t-356 -151t-142 -376z" />
    <glyph glyph-name="multiply" unicode="&#xd7;" horiz-adv-x="1376" 
d="M1198 147l-131 -131l-381 385l-383 -389l-131 131l383 387l-383 383l131 131l381 -382l385 382l131 -131l-383 -383z" />
    <glyph glyph-name="Oslash" unicode="&#xd8;" horiz-adv-x="1624" 
d="M1313 698q0 172 -92 314l-695 -756q125 -92 285 -92q213 0 357 152t145 382zM311 698q0 -176 95 -313l696 756q-129 92 -289 92q-213 0 -357 -153t-145 -382zM72 709q0 293 212 513t531 220q252 0 436 -135l185 196l129 -119l-185 -198q172 -203 172 -500t-213 -514
t-526 -217q-262 0 -442 131l-185 -199l-131 117l187 203q-170 208 -170 502z" />
    <glyph glyph-name="Ugrave" unicode="&#xd9;" horiz-adv-x="1292" 
d="M375 1667l86 180l373 -198l-70 -146zM1167 559q0 -311 -141 -457q-140 -146 -374 -147q-234 0 -382 144q-147 144 -147 456v842h242v-865q1 -170 75 -269t207 -99q281 0 281 368v865h239v-838z" />
    <glyph glyph-name="Uacute" unicode="&#xda;" horiz-adv-x="1292" 
d="M831 1847l84 -180l-389 -164l-67 146zM1167 559q0 -311 -141 -457q-140 -146 -374 -147q-234 0 -382 144q-147 144 -147 456v842h242v-865q1 -170 75 -269t207 -99q281 0 281 368v865h239v-838z" />
    <glyph glyph-name="Ucircumflex" unicode="&#xdb;" horiz-adv-x="1292" 
d="M645 1837l318 -207l-66 -127l-252 121l-252 -121l-65 127zM1167 559q0 -311 -141 -457q-140 -146 -374 -147q-234 0 -382 144q-147 144 -147 456v842h242v-865q1 -170 75 -269t207 -99q281 0 281 368v865h239v-838z" />
    <glyph glyph-name="Udieresis" unicode="&#xdc;" horiz-adv-x="1292" 
d="M723 1583v209h215v-209h-215zM354 1583v209h215v-209h-215zM1167 559q0 -311 -141 -457q-140 -146 -374 -147q-234 0 -382 144q-147 144 -147 456v842h242v-865q1 -170 75 -269t207 -99q281 0 281 368v865h239v-838z" />
    <glyph glyph-name="Yacute" unicode="&#xdd;" horiz-adv-x="1167" 
d="M786 1847l84 -180l-389 -164l-67 146zM471 0v561l-446 836h266l235 -457q49 -96 74 -168h4q18 49 76 166l225 459h252l-444 -834v-563h-242z" />
    <glyph glyph-name="Thorn" unicode="&#xde;" horiz-adv-x="1124" 
d="M811 727q0 97 -63 155t-185 58h-178v-436h172q254 0 254 223zM143 0v1397h242v-254h176q225 1 361 -105t135 -310q0 -204 -128 -316t-380 -111h-164v-301h-242z" />
    <glyph glyph-name="germandbls" unicode="&#xdf;" horiz-adv-x="1269" 
d="M1018 1147q0 -176 -168 -262q-127 -66 -127 -127q0 -43 37 -75q37 -31 174 -87t200 -133q62 -78 62 -200t-94 -210t-268 -88t-265 85q-90 85 -102 226h213q20 -143 160 -143q66 0 102 34t35 91q0 57 -43 98q-44 41 -176 94t-192 124t-60 169q0 156 156 238q76 41 104 75
t27 89t-47 105t-154 50q-229 0 -230 -274v-1026h-229v1032q0 225 124 339q125 114 327 114q202 -1 318 -97t116 -241z" />
    <glyph glyph-name="agrave" unicode="&#xe0;" horiz-adv-x="1236" 
d="M334 1403l129 149l301 -290l-102 -123zM307 491q0 -133 77 -229t207 -96t217 91t87 232t-83 233t-216 93q-133 0 -211 -96t-78 -228zM1108 981v-981h-223v125h-6q-129 -160 -323 -160t-340 140q-144 140 -144 378t141 383q141 146 342 146t326 -164h4v133h223z" />
    <glyph glyph-name="aacute" unicode="&#xe1;" horiz-adv-x="1236" 
d="M428 1262l303 290l127 -149l-328 -264zM307 491q0 -133 77 -229t207 -96t217 91t87 232t-83 233t-216 93q-133 0 -211 -96t-78 -228zM1108 981v-981h-223v125h-6q-129 -160 -323 -160t-340 140q-144 140 -144 378t141 383q141 146 342 146t326 -164h4v133h223z" />
    <glyph glyph-name="acircumflex" unicode="&#xe2;" horiz-adv-x="1236" 
d="M596 1516l315 -261l-92 -120l-223 161l-223 -161l-92 120zM307 491q0 -133 77 -229t207 -96t217 91t87 232t-83 233t-216 93q-133 0 -211 -96t-78 -228zM1108 981v-981h-223v125h-6q-129 -160 -323 -160t-340 140q-144 140 -144 378t141 383q141 146 342 146t326 -164h4
v133h223z" />
    <glyph glyph-name="atilde" unicode="&#xe3;" horiz-adv-x="1236" 
d="M748 1352q59 0 61 100h145q-10 -262 -211 -262q-89 0 -165 59t-109 60q-55 -1 -61 -101h-146q6 119 57 191q51 71 139 71t165 -59q78 -59 125 -59zM307 491q0 -133 77 -229t207 -96t217 91t87 232t-83 233t-216 93q-133 0 -211 -96t-78 -228zM1108 981v-981h-223v125h-6
q-129 -160 -323 -160t-340 140q-144 140 -144 378t141 383q141 146 342 146t326 -164h4v133h223z" />
    <glyph glyph-name="adieresis" unicode="&#xe4;" horiz-adv-x="1236" 
d="M674 1214v209h215v-209h-215zM305 1214v209h215v-209h-215zM307 491q0 -133 77 -229t207 -96t217 91t87 232t-83 233t-216 93q-133 0 -211 -96t-78 -228zM1108 981v-981h-223v125h-6q-129 -160 -323 -160t-340 140q-144 140 -144 378t141 383q141 146 342 146t326 -164h4
v133h223z" />
    <glyph glyph-name="aring" unicode="&#xe5;" horiz-adv-x="1236" 
d="M598 1085q-108 0 -184 76q-74 75 -74 183t75 183t183 75t183 -75t75 -183t-75 -183q-75 -76 -183 -76zM473 1346q0 -50 37 -88t89 -38t87 36t35 88t-35 88q-35 34 -87 34t-89 -34t-37 -86zM307 491q0 -133 77 -229t207 -96t217 91t87 232t-83 233t-216 93
q-133 0 -211 -96t-78 -228zM1108 981v-981h-223v125h-6q-129 -160 -323 -160t-340 140q-144 140 -144 378t141 383q141 146 342 146t326 -164h4v133h223z" />
    <glyph glyph-name="ae" unicode="&#xe6;" horiz-adv-x="1744" 
d="M580 442q-285 0 -285 -163q0 -72 43 -107t108 -35q125 0 202 90t85 215h-153zM1198 842q-108 0 -174 -70t-76 -172h496q-10 104 -74 173t-172 69zM1200 1014q121 0 215 -46q95 -46 149 -122q112 -156 109 -346q0 -37 -4 -58h-723q2 -127 75 -212t203 -85t191 111h236
q-121 -291 -432 -291q-283 0 -402 215q-150 -215 -395 -215q-180 0 -266 88t-86 221q0 164 132 245t378 81h153v51q0 89 -55 141t-150 52q-188 0 -206 -129h-213q8 123 114 211t297 88q254 0 338 -160q125 160 342 160z" />
    <glyph glyph-name="ccedilla" unicode="&#xe7;" horiz-adv-x="1120" 
d="M588 1014q194 0 310 -100t142 -228h-235q-53 133 -219 133q-127 0 -206 -88t-79 -234q0 -147 81 -241t212 -94q162 0 225 147h238q-43 -139 -147 -233t-269 -109l-18 -47q82 -14 129 -70t47 -141q0 -86 -66 -146q-65 -61 -183 -61t-222 35l49 137q57 -24 154 -24t98 69
q0 88 -193 88l66 166q-188 27 -313 167q-123 140 -123 358t143 366q143 150 379 150z" />
    <glyph glyph-name="egrave" unicode="&#xe8;" horiz-adv-x="1128" 
d="M303 1403l129 149l301 -290l-102 -123zM567 842q-111 0 -183 -72t-81 -172h531q-10 102 -83 173t-184 71zM1063 500q0 -47 -4 -68h-758q0 -115 87 -201t215 -86t210 111h236q-55 -127 -169 -209t-286 -82q-227 0 -375 151q-147 151 -147 375q0 223 136 373t368 149
t359 -154q128 -153 128 -359z" />
    <glyph glyph-name="eacute" unicode="&#xe9;" horiz-adv-x="1128" 
d="M397 1262l303 290l127 -149l-327 -264zM567 842q-111 0 -183 -72t-81 -172h531q-10 102 -83 173t-184 71zM1063 500q0 -47 -4 -68h-758q0 -115 87 -201t215 -86t210 111h236q-55 -127 -169 -209t-286 -82q-227 0 -375 151q-147 151 -147 375q0 223 136 373t368 149
t359 -154q128 -153 128 -359z" />
    <glyph glyph-name="ecircumflex" unicode="&#xea;" horiz-adv-x="1128" 
d="M565 1516l316 -261l-93 -120l-223 161l-223 -161l-92 120zM567 842q-111 0 -183 -72t-81 -172h531q-10 102 -83 173t-184 71zM1063 500q0 -47 -4 -68h-758q0 -115 87 -201t215 -86t210 111h236q-55 -127 -169 -209t-286 -82q-227 0 -375 151q-147 151 -147 375
q0 223 136 373t368 149t359 -154q128 -153 128 -359z" />
    <glyph glyph-name="edieresis" unicode="&#xeb;" horiz-adv-x="1128" 
d="M643 1214v209h215v-209h-215zM274 1214v209h215v-209h-215zM567 842q-111 0 -183 -72t-81 -172h531q-10 102 -83 173t-184 71zM1063 500q0 -47 -4 -68h-758q0 -115 87 -201t215 -86t210 111h236q-55 -127 -169 -209t-286 -82q-227 0 -375 151q-147 151 -147 375
q0 223 136 373t368 149t359 -154q128 -153 128 -359z" />
    <glyph glyph-name="igrave" unicode="&#xec;" horiz-adv-x="495" 
d="M-8 1403l129 149l301 -290l-103 -123zM139 0v981h230v-981h-230z" />
    <glyph glyph-name="iacute" unicode="&#xed;" horiz-adv-x="495" 
d="M86 1262l303 290l127 -149l-328 -264zM139 0v981h230v-981h-230z" />
    <glyph glyph-name="icircumflex" unicode="&#xee;" horiz-adv-x="495" 
d="M254 1516l315 -261l-92 -120l-223 161l-223 -161l-92 120zM139 0v981h230v-981h-230z" />
    <glyph glyph-name="idieresis" unicode="&#xef;" horiz-adv-x="495" 
d="M332 1214v209h215v-209h-215zM-37 1214v209h215v-209h-215zM139 0v981h230v-981h-230z" />
    <glyph glyph-name="eth" unicode="&#xf0;" horiz-adv-x="1181" 
d="M299 492q0 -138 85 -230t210 -92t207 91t82 229t-80 229q-80 92 -212 92t-212 -90t-80 -229zM1114 508q0 -227 -150 -385t-373 -158q-224 0 -375 152q-150 152 -150 376t151 370q152 146 377 147q102 0 174 -47l4 6q-80 113 -186 211l-207 -129l-86 139l176 110
q-104 98 -209 175h268q47 -31 115 -84l172 104l84 -139l-129 -80q344 -338 344 -768z" />
    <glyph glyph-name="ntilde" unicode="&#xf1;" horiz-adv-x="1165" 
d="M745 1352q59 0 62 100h145q-10 -262 -211 -262q-88 0 -165 59t-109 60q-55 -1 -61 -101h-146q6 119 57 191q51 71 139 71t165 -59q78 -59 124 -59zM139 0v981h228v-123h4q109 156 286 156t285 -113t109 -336v-565h-230v553q0 125 -55 191t-161 67q-105 0 -171 -76
t-65 -215v-520h-230z" />
    <glyph glyph-name="ograve" unicode="&#xf2;" horiz-adv-x="1181" 
d="M352 1403l129 149l301 -290l-102 -123zM305 492q0 -138 85 -230t210 -92t207 91t82 229t-80 229q-80 92 -212 92t-212 -90t-80 -229zM72 493q0 224 150 372q151 149 377 149q225 0 373 -148t148 -371q0 -222 -150 -376t-373 -154q-224 0 -375 152q-150 152 -150 376z" />
    <glyph glyph-name="oacute" unicode="&#xf3;" horiz-adv-x="1181" 
d="M412 1262l303 290l127 -149l-328 -264zM305 492q0 -138 85 -230t210 -92t207 91t82 229t-80 229q-80 92 -212 92t-212 -90t-80 -229zM72 493q0 224 150 372q151 149 377 149q225 0 373 -148t148 -371q0 -222 -150 -376t-373 -154q-224 0 -375 152q-150 152 -150 376z" />
    <glyph glyph-name="ocircumflex" unicode="&#xf4;" horiz-adv-x="1181" 
d="M596 1516l315 -261l-92 -120l-223 161l-223 -161l-92 120zM305 492q0 -138 85 -230t210 -92t207 91t82 229t-80 229q-80 92 -212 92t-212 -90t-80 -229zM72 493q0 224 150 372q151 149 377 149q225 0 373 -148t148 -371q0 -222 -150 -376t-373 -154q-224 0 -375 152
q-150 152 -150 376z" />
    <glyph glyph-name="otilde" unicode="&#xf5;" horiz-adv-x="1181" 
d="M735 1352q59 0 62 100h145q-10 -262 -211 -262q-88 0 -165 59t-109 60q-56 -1 -62 -101h-145q6 119 57 191q51 71 139 71t164 -59q78 -59 125 -59zM305 492q0 -138 85 -230t210 -92t207 91t82 229t-80 229q-80 92 -212 92t-212 -90t-80 -229zM72 493q0 224 150 372
q151 149 377 149q225 0 373 -148t148 -371q0 -222 -150 -376t-373 -154q-224 0 -375 152q-150 152 -150 376z" />
    <glyph glyph-name="odieresis" unicode="&#xf6;" horiz-adv-x="1181" 
d="M674 1214v209h215v-209h-215zM305 1214v209h215v-209h-215zM305 492q0 -138 85 -230t210 -92t207 91t82 229t-80 229q-80 92 -212 92t-212 -90t-80 -229zM72 493q0 224 150 372q151 149 377 149q225 0 373 -148t148 -371q0 -222 -150 -376t-373 -154q-224 0 -375 152
q-150 152 -150 376z" />
    <glyph glyph-name="divide" unicode="&#xf7;" horiz-adv-x="1376" 
d="M821 150q0 -56 -39 -96t-93 -40t-94 41t-40 95t39 92q39 39 96 39t94 -37t37 -94zM821 932q0 -57 -39 -94t-93 -37t-94 39t-40 92t39 93t96 40t94 -38t37 -95zM1217 449h-1057v184h1057v-184z" />
    <glyph glyph-name="oslash" unicode="&#xf8;" horiz-adv-x="1181" 
d="M891 492q0 94 -49 180l-408 -463q70 -47 156 -47q133 0 217 94t84 236zM291 512q0 -122 51 -203l408 463q-72 45 -160 45q-133 0 -216 -92q-83 -91 -83 -213zM66 507q0 210 150 358q151 148 374 149q158 0 284 -78l130 145l118 -106l-127 -144q119 -141 119 -349
t-150 -363q-150 -154 -374 -154q-154 0 -283 80l-125 -143l-123 104l127 144q-120 147 -120 357z" />
    <glyph glyph-name="ugrave" unicode="&#xf9;" horiz-adv-x="1140" 
d="M311 1403l129 149l301 -290l-102 -123zM1016 981v-981h-228v121h-6q-111 -154 -290 -154q-132 0 -244 92q-55 47 -88 135t-33 207v580h229v-553q0 -122 54 -190t154 -68q99 0 161 75q61 75 61 214v522h230z" />
    <glyph glyph-name="uacute" unicode="&#xfa;" horiz-adv-x="1140" 
d="M406 1262l303 290l127 -149l-328 -264zM1016 981v-981h-228v121h-6q-111 -154 -290 -154q-132 0 -244 92q-55 47 -88 135t-33 207v580h229v-553q0 -122 54 -190t154 -68q99 0 161 75q61 75 61 214v522h230z" />
    <glyph glyph-name="ucircumflex" unicode="&#xfb;" horiz-adv-x="1140" 
d="M573 1516l316 -261l-92 -120l-224 161l-223 -161l-92 120zM1016 981v-981h-228v121h-6q-111 -154 -290 -154q-132 0 -244 92q-55 47 -88 135t-33 207v580h229v-553q0 -122 54 -190t154 -68q99 0 161 75q61 75 61 214v522h230z" />
    <glyph glyph-name="udieresis" unicode="&#xfc;" horiz-adv-x="1140" 
d="M651 1214v209h215v-209h-215zM283 1214v209h215v-209h-215zM1016 981v-981h-228v121h-6q-111 -154 -290 -154q-132 0 -244 92q-55 47 -88 135t-33 207v580h229v-553q0 -122 54 -190t154 -68q99 0 161 75q61 75 61 214v522h230z" />
    <glyph glyph-name="yacute" unicode="&#xfd;" horiz-adv-x="925" 
d="M311 1262l303 290l127 -149l-327 -264zM940 981l-539 -1462h-219l180 485l-358 977h236l170 -487q53 -162 65 -226h6q29 115 66 226l166 487h227z" />
    <glyph glyph-name="thorn" unicode="&#xfe;" horiz-adv-x="1236" 
d="M936 490q0 132 -78 226t-211 95q-133 0 -216 -90q-83 -91 -83 -233t86 -233t216 -91t208 97t78 229zM133 -481v1956h225v-619h7q133 156 331 156t336 -146q137 -146 137 -376t-139 -377t-341 -147t-324 153h-7v-600h-225z" />
    <glyph glyph-name="ydieresis" unicode="&#xff;" horiz-adv-x="925" 
d="M557 1214v209h215v-209h-215zM188 1214v209h215v-209h-215zM940 981l-539 -1462h-219l180 485l-358 977h236l170 -487q53 -162 65 -226h6q29 115 66 226l166 487h227z" />
    <glyph glyph-name="Amacron" unicode="&#x100;" horiz-adv-x="1335" 
d="M985 1591h-577v164h577v-164zM582 883l-131 -357h430l-129 359q-43 119 -78 241h-10q-37 -126 -82 -243zM14 0l555 1397h222l530 -1397h-252l-125 342h-557l-127 -342h-246z" />
    <glyph glyph-name="amacron" unicode="&#x101;" horiz-adv-x="1236" 
d="M879 1223h-578v163h578v-163zM301 491q0 -133 77 -229t207 -96t217 91t87 232t-83 233t-216 93q-133 0 -211 -96t-78 -228zM1102 981v-981h-223v125h-7q-129 -160 -323 -160t-339 140q-144 140 -144 378t141 383q141 146 342 146t325 -164h5v133h223z" />
    <glyph glyph-name="Abreve" unicode="&#x102;" horiz-adv-x="1335" 
d="M672 1530q-148 0 -235 79t-91 206h162q4 -55 49 -87t122 -32t121 33t48 86h164q-8 -129 -100 -207t-240 -78zM582 883l-131 -357h430l-129 359q-43 119 -78 241h-10q-37 -126 -82 -243zM14 0l555 1397h222l530 -1397h-252l-125 342h-557l-127 -342h-246z" />
    <glyph glyph-name="abreve" unicode="&#x103;" horiz-adv-x="1236" 
d="M579 1161q-140 0 -232 87q-91 87 -97 229h162q6 -68 51 -107t118 -39t120 40t51 106h163q-8 -139 -102 -227t-234 -89zM301 491q0 -133 77 -229t207 -96t217 91t87 232t-83 233t-216 93q-133 0 -211 -96t-78 -228zM1102 981v-981h-223v125h-7q-129 -160 -323 -160
t-339 140q-144 140 -144 378t141 383q141 146 342 146t325 -164h5v133h223z" />
    <glyph glyph-name="Aogonek" unicode="&#x104;" horiz-adv-x="1335" 
d="M582 883l-131 -357h430l-123 342q-51 143 -84 258h-10q-37 -126 -82 -243zM961 -231q0 150 149 231h-41l-125 342h-557l-127 -342h-246l555 1397h222l530 -1397h-10q-66 0 -117 -56t-51 -134q0 -94 100 -95q43 1 78 9v-164q-53 -14 -119 -15q-123 1 -182 63t-59 161z" />
    <glyph glyph-name="aogonek" unicode="&#x105;" horiz-adv-x="1236" 
d="M301 491q0 -133 77 -229t207 -96t217 91t87 232t-83 233t-216 93q-133 0 -211 -96t-78 -228zM768 -248q0 82 40 148q40 64 110 100h-39v125h-7q-117 -143 -297 -154q-37 -6 -88 -2q-169 21 -295 157t-126 358t123 363q124 142 311 161q51 4 88 -2q168 -10 286 -158h5v133
h223v-981q-52 -2 -102 -56t-50 -134q0 -94 101 -95q42 1 77 9v-164q-53 -14 -118 -15q-122 1 -182 63t-60 144z" />
    <glyph glyph-name="Cacute" unicode="&#x106;" horiz-adv-x="1564" 
d="M991 1847l84 -180l-389 -164l-68 146zM795 1442q268 0 436 -136t219 -319h-264q-38 106 -142 176t-251 70q-201 1 -337 -145t-136 -380t134 -389q136 -156 347 -155q152 0 254 76t147 194h271q-80 -219 -250 -349t-430 -130q-319 0 -521 212q-200 212 -200 533
q0 322 206 532t517 210z" />
    <glyph glyph-name="cacute" unicode="&#x107;" horiz-adv-x="1120" 
d="M389 1262l303 290l127 -149l-327 -264zM588 1014q194 0 310 -100t142 -228h-235q-53 133 -219 133q-127 0 -206 -88t-79 -234q0 -147 81 -241t212 -94q162 0 225 147h238q-45 -150 -161 -247t-324 -97q-208 1 -357 147t-149 374t143 378t379 150z" />
    <glyph glyph-name="Ccircumflex" unicode="&#x108;" horiz-adv-x="1564" 
d="M795 1837l317 -207l-65 -127l-252 121l-252 -121l-66 127zM795 1442q268 0 436 -136t219 -319h-264q-38 106 -142 176t-251 70q-201 1 -337 -145t-136 -380t134 -389q136 -156 347 -155q152 0 254 76t147 194h271q-80 -219 -250 -349t-430 -130q-319 0 -521 212
q-200 212 -200 533q0 322 206 532t517 210z" />
    <glyph glyph-name="ccircumflex" unicode="&#x109;" horiz-adv-x="1120" 
d="M582 1516l315 -261l-92 -120l-223 161l-224 -161l-92 120zM588 1014q194 0 310 -100t142 -228h-235q-53 133 -219 133q-127 0 -206 -88t-79 -234q0 -147 81 -241t212 -94q162 0 225 147h238q-45 -150 -161 -247t-324 -97q-208 1 -357 147t-149 374t143 378t379 150z" />
    <glyph glyph-name="Cdotaccent" unicode="&#x10a;" horiz-adv-x="1564" 
d="M684 1583v213h221v-213h-221zM795 1442q268 0 436 -136t219 -319h-264q-38 106 -142 176t-251 70q-201 1 -337 -145t-136 -380t134 -389q136 -156 347 -155q152 0 254 76t147 194h271q-80 -219 -250 -349t-430 -130q-319 0 -521 212q-200 212 -200 533q0 322 206 532
t517 210z" />
    <glyph glyph-name="cdotaccent" unicode="&#x10b;" horiz-adv-x="1120" 
d="M471 1212v211h221v-211h-221zM588 1014q194 0 310 -100t142 -228h-235q-53 133 -219 133q-127 0 -206 -88t-79 -234q0 -147 81 -241t212 -94q162 0 225 147h238q-45 -150 -161 -247t-324 -97q-208 1 -357 147t-149 374t143 378t379 150z" />
    <glyph glyph-name="Ccaron" unicode="&#x10c;" horiz-adv-x="1564" 
d="M797 1503l-318 207l66 127l252 -121l254 121l63 -127zM795 1442q268 0 436 -136t219 -319h-264q-38 106 -142 176t-251 70q-201 1 -337 -145t-136 -380t134 -389q136 -156 347 -155q152 0 254 76t147 194h271q-80 -219 -250 -349t-430 -130q-319 0 -521 212
q-200 212 -200 533q0 322 206 532t517 210z" />
    <glyph glyph-name="ccaron" unicode="&#x10d;" horiz-adv-x="1120" 
d="M582 1135l-316 260l92 121l224 -162l223 162l92 -121zM588 1014q194 0 310 -100t142 -228h-235q-53 133 -219 133q-127 0 -206 -88t-79 -234q0 -147 81 -241t212 -94q162 0 225 147h238q-45 -150 -161 -247t-324 -97q-208 1 -357 147t-149 374t143 378t379 150z" />
    <glyph glyph-name="Dcaron" unicode="&#x10e;" horiz-adv-x="1449" 
d="M621 1503l-318 207l66 127l252 -121l253 121l64 -127zM387 215h221q254 0 388 136t134 351q0 216 -136 348t-386 132h-221v-967zM145 1397h467q362 0 564 -199t202 -498q0 -300 -207 -500t-563 -200h-463v1397z" />
    <glyph glyph-name="dcaron" unicode="&#x10f;" horiz-adv-x="1458" 
d="M1237 1288v187h217v-113q0 -147 -70 -250h-116q49 72 53 176h-84zM301 491q0 -133 77 -229t207 -96t217 91t87 233t-84 234t-215 93q-131 0 -210 -97t-79 -229zM1102 1475v-1475h-223v117h-7q-130 -152 -326 -152t-338 140t-142 377t139 384q139 148 339 148t326 -156h7
v617h225z" />
    <glyph glyph-name="Dcroat" unicode="&#x110;" horiz-adv-x="1499" 
d="M436 211h221q254 0 389 138q134 138 134 353q0 216 -138 350t-385 134h-221v-369h346v-192h-346v-414zM31 625v192h164v580h467q362 0 564 -199t202 -498q0 -300 -208 -500q-206 -200 -563 -200h-462v625h-164z" />
    <glyph glyph-name="dcroat" unicode="&#x111;" horiz-adv-x="1236" 
d="M301 491q0 -133 77 -229t207 -96t217 91t87 233t-84 234t-215 93q-131 0 -210 -97t-79 -229zM1237 1155h-135v-1155h-223v117h-7q-130 -152 -326 -152t-338 140t-142 377t139 384q139 148 339 148t326 -156h7v297h-363v164h363v156h225v-156h135v-164z" />
    <glyph glyph-name="Emacron" unicode="&#x112;" horiz-adv-x="1095" 
d="M848 1591h-578v164h578v-164zM950 1397v-213h-565v-359h545v-207h-545v-405h588v-213h-830v1397h807z" />
    <glyph glyph-name="emacron" unicode="&#x113;" horiz-adv-x="1128" 
d="M848 1223h-578v163h578v-163zM561 842q-111 0 -183 -72t-81 -172h530q-11 102 -83 173t-183 71zM1057 500q0 -47 -4 -68h-758q0 -115 87 -201t215 -86t210 111h235q-55 -127 -169 -209t-285 -82q-227 0 -375 151q-147 151 -147 375q0 223 136 373t368 149t359 -154
q128 -153 128 -359z" />
    <glyph glyph-name="Ebreve" unicode="&#x114;" horiz-adv-x="1095" 
d="M534 1530q-148 0 -234 79q-87 79 -91 206h162q4 -55 49 -87t122 -32t121 33t48 86h163q-8 -129 -100 -207t-240 -78zM950 1397v-213h-565v-359h545v-207h-545v-405h588v-213h-830v1397h807z" />
    <glyph glyph-name="ebreve" unicode="&#x115;" horiz-adv-x="1128" 
d="M558 1161q-140 0 -231 87t-98 229h162q6 -68 51 -107t118 -39t120 40t51 106h164q-8 -139 -102 -227q-95 -88 -235 -89zM561 842q-111 0 -183 -72t-81 -172h530q-11 102 -83 173t-183 71zM1057 500q0 -47 -4 -68h-758q0 -115 87 -201t215 -86t210 111h235
q-55 -127 -169 -209t-285 -82q-227 0 -375 151q-147 151 -147 375q0 223 136 373t368 149t359 -154q128 -153 128 -359z" />
    <glyph glyph-name="Edotaccent" unicode="&#x116;" horiz-adv-x="1095" 
d="M434 1583v213h221v-213h-221zM950 1397v-213h-565v-359h545v-207h-545v-405h588v-213h-830v1397h807z" />
    <glyph glyph-name="edotaccent" unicode="&#x117;" horiz-adv-x="1128" 
d="M451 1212v211h221v-211h-221zM561 842q-111 0 -183 -72t-81 -172h530q-11 102 -83 173t-183 71zM1057 500q0 -47 -4 -68h-758q0 -115 87 -201t215 -86t210 111h235q-55 -127 -169 -209t-285 -82q-227 0 -375 151q-147 151 -147 375q0 223 136 373t368 149t359 -154
q128 -153 128 -359z" />
    <glyph glyph-name="Eogonek" unicode="&#x118;" horiz-adv-x="1095" 
d="M143 0v1397h807v-213h-565v-359h545v-207h-545v-405h588v-213h-49q-66 0 -119 -55t-53 -135q0 -94 98 -95q41 1 80 9v-164q-57 -14 -121 -15q-121 1 -181 63t-60 144t40 148q41 64 109 100h-574z" />
    <glyph glyph-name="eogonek" unicode="&#x119;" horiz-adv-x="1128" 
d="M561 842q-111 0 -183 -72t-81 -172h530q-11 102 -83 173t-183 71zM66 491q0 223 136 373t368 149t359 -154q128 -153 128 -359q0 -47 -4 -68h-758q0 -115 87 -201t215 -86t210 111h235q-57 -133 -194 -227q-143 -102 -143 -219q0 -94 98 -95q41 1 80 9v-164
q-53 -14 -119 -15q-123 1 -183 63q-61 62 -61 169t101 190l-33 -2q-227 0 -375 151q-147 151 -147 375z" />
    <glyph glyph-name="Ecaron" unicode="&#x11a;" horiz-adv-x="1095" 
d="M545 1503l-318 207l66 127l252 -121l254 121l63 -127zM950 1397v-213h-565v-359h545v-207h-545v-405h588v-213h-830v1397h807z" />
    <glyph glyph-name="ecaron" unicode="&#x11b;" horiz-adv-x="1128" 
d="M561 1135l-315 260l92 121l223 -162l223 162l93 -121zM561 842q-111 0 -183 -72t-81 -172h530q-11 102 -83 173t-183 71zM1057 500q0 -47 -4 -68h-758q0 -115 87 -201t215 -86t210 111h235q-55 -127 -169 -209t-285 -82q-227 0 -375 151q-147 151 -147 375q0 223 136 373
t368 149t359 -154q128 -153 128 -359z" />
    <glyph glyph-name="Gcircumflex" unicode="&#x11c;" horiz-adv-x="1583" 
d="M803 1837l317 -207l-65 -127l-252 121l-252 -121l-66 127zM727 764h784v-45q1 -203 -77 -373t-244 -280t-393 -109q-315 0 -521 215q-204 215 -204 526q0 310 207 526t518 216q248 0 421 -114t246 -308h-262q-51 98 -155 156t-244 57q-213 -1 -348 -149t-135 -386
t138 -384q140 -146 357 -146q176 0 298 112t140 281h-526v205z" />
    <glyph glyph-name="gcircumflex" unicode="&#x11d;" horiz-adv-x="1236" 
d="M586 1516l315 -261l-92 -120l-223 161l-224 -161l-92 120zM301 494q0 -128 78 -224t209 -96t216 89t85 230t-83 231t-215 91q-132 0 -211 -96t-79 -225zM1104 981v-950q0 -557 -518 -557q-203 0 -332 103t-158 282h230q47 -195 270 -195q141 0 215 87t74 251v123h-4
q-133 -152 -334 -152q-201 -1 -340 143t-139 372t138 376t345 148t328 -158h6v127h219z" />
    <glyph glyph-name="Gbreve" unicode="&#x11e;" horiz-adv-x="1583" 
d="M794 1530q-148 0 -234 79q-87 79 -91 206h162q4 -55 49 -87t122 -32t121 33t48 86h164q-9 -129 -101 -207t-240 -78zM727 764h784v-45q1 -203 -77 -373t-244 -280t-393 -109q-315 0 -521 215q-204 215 -204 526q0 310 207 526t518 216q248 0 421 -114t246 -308h-262
q-51 98 -155 156t-244 57q-213 -1 -348 -149t-135 -386t138 -384q140 -146 357 -146q176 0 298 112t140 281h-526v205z" />
    <glyph glyph-name="gbreve" unicode="&#x11f;" horiz-adv-x="1236" 
d="M575 1161q-140 0 -232 87q-91 87 -97 229h162q6 -68 51 -107t118 -39t120 40t51 106h163q-8 -139 -102 -227t-234 -89zM301 494q0 -128 78 -224t209 -96t216 89t85 230t-83 231t-215 91q-132 0 -211 -96t-79 -225zM1104 981v-950q0 -557 -518 -557q-203 0 -332 103
t-158 282h230q47 -195 270 -195q141 0 215 87t74 251v123h-4q-133 -152 -334 -152q-201 -1 -340 143t-139 372t138 376t345 148t328 -158h6v127h219z" />
    <glyph glyph-name="Gdotaccent" unicode="&#x120;" horiz-adv-x="1583" 
d="M688 1583v213h221v-213h-221zM727 764h784v-45q1 -203 -77 -373t-244 -280t-393 -109q-315 0 -521 215q-204 215 -204 526q0 310 207 526t518 216q248 0 421 -114t246 -308h-262q-51 98 -155 156t-244 57q-213 -1 -348 -149t-135 -386t138 -384q140 -146 357 -146
q176 0 298 112t140 281h-526v205z" />
    <glyph glyph-name="gdotaccent" unicode="&#x121;" horiz-adv-x="1236" 
d="M467 1212v211h221v-211h-221zM301 494q0 -128 78 -224t209 -96t216 89t85 230t-83 231t-215 91q-132 0 -211 -96t-79 -225zM1104 981v-950q0 -557 -518 -557q-203 0 -332 103t-158 282h230q47 -195 270 -195q141 0 215 87t74 251v123h-4q-133 -152 -334 -152
q-201 -1 -340 143t-139 372t138 376t345 148t328 -158h6v127h219z" />
    <glyph glyph-name="Gcommaaccent" unicode="&#x122;" horiz-adv-x="1583" 
d="M684 -313v186h217v-113q0 -147 -70 -249h-116q49 72 53 176h-84zM727 764h784v-45q1 -203 -77 -373t-244 -280t-393 -109q-315 0 -521 215q-204 215 -204 526q0 310 207 526t518 216q248 0 421 -114t246 -308h-262q-51 98 -155 156t-244 57q-213 -1 -348 -149t-135 -386
t138 -384q140 -146 357 -146q176 0 298 112t140 281h-526v205z" />
    <glyph glyph-name="gcommaaccent" unicode="&#x123;" horiz-adv-x="1236" 
d="M705 1315v-187h-218v113q0 147 70 250h117q-49 -72 -53 -176h84zM301 494q0 -128 78 -224t209 -96t216 89t85 230t-83 231t-215 91q-132 0 -211 -96t-79 -225zM1104 981v-950q0 -557 -518 -557q-203 0 -332 103t-158 282h230q47 -195 270 -195q141 0 215 87t74 251v123
h-4q-133 -152 -334 -152q-201 -1 -340 143t-139 372t138 376t345 148t328 -158h6v127h219z" />
    <glyph glyph-name="Hcircumflex" unicode="&#x124;" horiz-adv-x="1419" 
d="M709 1837l317 -207l-65 -127l-252 121l-252 -121l-66 127zM1032 0v614h-645v-614h-242v1397h242v-568h645v568h242v-1397h-242z" />
    <glyph glyph-name="hcircumflex" unicode="&#x125;" horiz-adv-x="1159" 
d="M250 1956l315 -260l-92 -121l-223 162l-223 -162l-93 121zM133 0v1475h229v-617h7q109 156 285 156t284 -112t106 -337v-565h-229v553q0 125 -55 191t-161 67q-105 0 -171 -75t-66 -214v-522h-229z" />
    <glyph glyph-name="Hbar" unicode="&#x126;" horiz-adv-x="1419" 
d="M387 813h647v242h-647v-242zM1403 1055h-129v-1055h-240v608h-647v-608h-242v1055h-129v164h129v178h242v-178h647v178h240v-178h129v-164z" />
    <glyph glyph-name="hbar" unicode="&#x127;" horiz-adv-x="1159" 
d="M680 1155h-318v-297h7q109 156 285 156t284 -112t106 -337v-565h-229v553q0 125 -55 191t-161 67q-105 0 -171 -75t-66 -214v-522h-229v1155h-133v164h133v156h229v-156h318v-164z" />
    <glyph glyph-name="Itilde" unicode="&#x128;" horiz-adv-x="530" 
d="M116 1839q88 0 165 -59q78 -59 125 -60q59 0 61 101h145q-10 -262 -211 -262q-89 0 -165 59t-109 59q-55 0 -61 -100h-146q6 119 57 191t139 71zM143 0v1397h242v-1397h-242z" />
    <glyph glyph-name="itilde" unicode="&#x129;" horiz-adv-x="495" 
d="M387 1352q59 0 62 100h145q-10 -262 -211 -262q-88 0 -165 59t-109 60q-56 -1 -62 -101h-145q6 119 57 191q51 71 139 71t164 -59q78 -59 125 -59zM133 0v981h229v-981h-229z" />
    <glyph glyph-name="Imacron" unicode="&#x12a;" horiz-adv-x="530" 
d="M565 1591h-577v164h577v-164zM143 0v1397h242v-1397h-242z" />
    <glyph glyph-name="imacron" unicode="&#x12b;" horiz-adv-x="495" 
d="M537 1223h-578v163h578v-163zM133 0v981h229v-981h-229z" />
    <glyph glyph-name="Ibreve" unicode="&#x12c;" horiz-adv-x="530" 
d="M258 1530q-148 0 -234 79t-92 206h162q4 -55 49 -87t122 -32t121 33t48 86h164q-8 -129 -100 -207t-240 -78zM143 0v1397h242v-1397h-242z" />
    <glyph glyph-name="ibreve" unicode="&#x12d;" horiz-adv-x="495" 
d="M245 1161q-140 0 -232 87q-91 87 -97 229h162q6 -68 51 -107t118 -39t120 40t51 106h164q-8 -139 -102 -227t-235 -89zM133 0v981h229v-981h-229z" />
    <glyph glyph-name="Iogonek" unicode="&#x12e;" horiz-adv-x="530" 
d="M143 0v1397h242v-1397q-49 -8 -94 -61t-45 -129q0 -94 98 -95q41 0 80 9v-164q-53 -14 -121 -15q-121 1 -181 63t-60 144t40 148q41 64 109 100h-68z" />
    <glyph glyph-name="iogonek" unicode="&#x12f;" horiz-adv-x="495" 
d="M121 1198v234h254v-234h-254zM133 0v981h229v-981q-53 -6 -100 -60t-47 -130q0 -94 98 -95q45 0 80 9v-164q-53 -14 -119 -15q-123 1 -183 63t-60 144t41 148q41 64 110 100h-49z" />
    <glyph glyph-name="Idotaccent" unicode="&#x130;" horiz-adv-x="530" 
d="M152 1583v213h221v-213h-221zM143 0v1397h242v-1397h-242z" />
    <glyph glyph-name="dotlessi" unicode="&#x131;" horiz-adv-x="495" 
d="M133 0v981h229v-981h-229z" />
    <glyph glyph-name="Jcircumflex" unicode="&#x134;" horiz-adv-x="755" 
d="M504 1837l317 -207l-65 -127l-252 121l-252 -121l-66 127zM387 389v1008h242v-998q1 -233 -99 -337t-297 -105q-115 0 -213 41v207q86 -39 182 -39t141 51q44 51 44 172z" />
    <glyph glyph-name="jcircumflex" unicode="&#x135;" horiz-adv-x="495" 
d="M248 1513l317 -260l-94 -120l-223 161l-221 -161l-95 120zM362 981v-1081q0 -210 -93 -312t-261 -102q-96 0 -186 29v192q106 -25 147 -24q164 0 164 217v1081h229z" />
    <glyph glyph-name="Kcommaaccent" unicode="&#x136;" horiz-adv-x="1288" 
d="M557 -313v186h217v-113q0 -147 -69 -249h-117q49 72 53 176h-84zM387 0h-242v1397h242v-586l557 586h309l-587 -602l655 -795h-309l-514 631l-111 -115v-516z" />
    <glyph glyph-name="kcommaaccent" unicode="&#x137;" horiz-adv-x="1042" 
d="M434 -313v186h217v-113q0 -147 -69 -249h-117q49 72 53 176h-84zM362 0h-229v1475h229v-861l353 367h278l-397 -403l461 -578h-279l-340 430l-76 -74v-356z" />
    <glyph glyph-name="kgreenlandic" unicode="&#x138;" horiz-adv-x="1042" 
d="M362 0h-229v981h229v-367l353 367h278l-397 -403l461 -578h-279l-340 430l-76 -74v-356z" />
    <glyph glyph-name="Lacute" unicode="&#x139;" horiz-adv-x="993" 
d="M444 1847l84 -180l-389 -164l-67 146zM143 0v1397h242v-1184h588v-213h-830z" />
    <glyph glyph-name="lacute" unicode="&#x13a;" horiz-adv-x="495" 
d="M68 1702l303 291l127 -150l-328 -264zM133 0v1475h229v-1475h-229z" />
    <glyph glyph-name="Lcommaaccent" unicode="&#x13b;" horiz-adv-x="993" 
d="M432 -313v186h217v-113q0 -147 -69 -249h-117q49 72 53 176h-84zM143 0v1397h242v-1184h588v-213h-830z" />
    <glyph glyph-name="lcommaaccent" unicode="&#x13c;" horiz-adv-x="495" 
d="M135 -313v186h217v-113q0 -147 -69 -249h-117q49 72 53 176h-84zM133 0v1475h229v-1475h-229z" />
    <glyph glyph-name="Lcaron" unicode="&#x13d;" horiz-adv-x="993" 
d="M643 1210v187h217v-113q0 -147 -69 -250h-117q49 72 53 176h-84zM143 0v1397h242v-1184h588v-213h-830z" />
    <glyph glyph-name="lcaron" unicode="&#x13e;" horiz-adv-x="716" 
d="M496 1288v187h217v-113q0 -147 -70 -250h-117q49 72 54 176h-84zM133 0v1475h229v-1475h-229z" />
    <glyph glyph-name="Ldot" unicode="&#x13f;" horiz-adv-x="1030" 
d="M666 635v211h221v-211h-221zM143 0v1397h242v-1184h588v-213h-830z" />
    <glyph glyph-name="ldot" unicode="&#x140;" horiz-adv-x="747" 
d="M510 643v211h221v-211h-221zM133 0v1475h229v-1475h-229z" />
    <glyph glyph-name="Lslash" unicode="&#x141;" horiz-adv-x="1001" 
d="M154 1397h241v-592l260 184v-209l-260 -182v-385h586v-213h-827v444l-138 -96v207l138 98v744z" />
    <glyph glyph-name="lslash" unicode="&#x142;" horiz-adv-x="540" 
d="M156 1475h229v-521l150 117v-207l-150 -116v-748h-229v584l-150 -115v207l150 115v684z" />
    <glyph glyph-name="Nacute" unicode="&#x143;" horiz-adv-x="1382" 
d="M872 1847l84 -180l-389 -164l-67 146zM358 752v-752h-215v1397h215l416 -631q174 -260 250 -406h4q-4 147 -4 273v764h213v-1397h-213l-397 600q-187 280 -269 430h-6q6 -209 6 -278z" />
    <glyph glyph-name="nacute" unicode="&#x144;" horiz-adv-x="1165" 
d="M418 1262l303 290l127 -149l-328 -264zM133 0v981h227v-123h5q109 156 286 156t285 -113t108 -336v-565h-229v553q0 125 -55 191t-161 67q-105 0 -171 -76t-66 -215v-520h-229z" />
    <glyph glyph-name="Ncommaaccent" unicode="&#x145;" horiz-adv-x="1382" 
d="M571 -313v186h217v-113q0 -147 -69 -249h-117q49 72 53 176h-84zM358 752v-752h-215v1397h215l416 -631q174 -260 250 -406h4q-4 147 -4 273v764h213v-1397h-213l-397 600q-187 280 -269 430h-6q6 -209 6 -278z" />
    <glyph glyph-name="ncommaaccent" unicode="&#x146;" horiz-adv-x="1165" 
d="M473 -313v186h217v-113q0 -147 -69 -249h-117q49 72 53 176h-84zM133 0v981h227v-123h5q109 156 286 156t285 -113t108 -336v-565h-229v553q0 125 -55 191t-161 67q-105 0 -171 -76t-66 -215v-520h-229z" />
    <glyph glyph-name="Ncaron" unicode="&#x147;" horiz-adv-x="1382" 
d="M690 1503l-317 207l65 127l252 -121l254 121l64 -127zM358 752v-752h-215v1397h215l416 -631q174 -260 250 -406h4q-4 147 -4 273v764h213v-1397h-213l-397 600q-187 280 -269 430h-6q6 -209 6 -278z" />
    <glyph glyph-name="ncaron" unicode="&#x148;" horiz-adv-x="1165" 
d="M596 1135l-315 260l92 121l223 -162l223 162l92 -121zM133 0v981h227v-123h5q109 156 286 156t285 -113t108 -336v-565h-229v553q0 125 -55 191t-161 67q-105 0 -171 -76t-66 -215v-520h-229z" />
    <glyph glyph-name="Eng" unicode="&#x14a;" horiz-adv-x="1382" 
d="M358 752v-752h-215v1397h215l416 -631q174 -260 250 -406h4q-4 147 -4 273v764h213v-1436q0 -209 -92 -311t-260 -103q-96 0 -183 29v186q74 -25 152 -24q170 0 170 203v59l-397 600q-187 280 -269 430h-6q6 -209 6 -278z" />
    <glyph glyph-name="eng" unicode="&#x14b;" horiz-adv-x="1165" 
d="M133 0v981h227v-123h5q109 156 286 156t285 -113t108 -336v-657q0 -210 -89 -316t-255 -106q-92 0 -174 29v182q56 -21 138 -21t116 54t35 161v662q0 125 -55 191t-161 67q-105 0 -171 -76t-66 -215v-520h-229z" />
    <glyph glyph-name="Omacron" unicode="&#x14c;" horiz-adv-x="1624" 
d="M1116 1591h-577v164h577v-164zM72 698q0 304 212 524t538 220t528 -219t202 -527t-213 -524q-213 -217 -526 -217q-185 0 -331 67q-262 120 -365 413q-45 128 -45 263zM319 698q-1 -226 141 -376t352 -150t351 151t141 375t-136 376q-138 151 -351 151t-355 -151
t-143 -376z" />
    <glyph glyph-name="omacron" unicode="&#x14d;" horiz-adv-x="1181" 
d="M879 1223h-578v163h578v-163zM299 492q0 -138 85 -230t210 -92t207 91t82 229t-80 229q-80 92 -212 92t-212 -90t-80 -229zM66 493q0 224 150 372q151 149 377 149q225 0 373 -148t148 -371q0 -222 -150 -376t-373 -154q-224 0 -375 152q-150 152 -150 376z" />
    <glyph glyph-name="Obreve" unicode="&#x14e;" horiz-adv-x="1624" 
d="M807 1530q-148 0 -235 79t-91 206h162q4 -55 49 -87t122 -32t121 33t48 86h164q-8 -129 -100 -207t-240 -78zM72 698q0 304 212 524t538 220t528 -219t202 -527t-213 -524q-213 -217 -526 -217q-185 0 -331 67q-262 120 -365 413q-45 128 -45 263zM319 698
q-1 -226 141 -376t352 -150t351 151t141 375t-136 376q-138 151 -351 151t-355 -151t-143 -376z" />
    <glyph glyph-name="obreve" unicode="&#x14f;" horiz-adv-x="1181" 
d="M587 1161q-140 0 -232 87q-91 87 -97 229h162q6 -68 51 -107t118 -39t120 40t51 106h164q-8 -139 -102 -227t-235 -89zM299 492q0 -138 85 -230t210 -92t207 91t82 229t-80 229q-80 92 -212 92t-212 -90t-80 -229zM66 493q0 224 150 372q151 149 377 149q225 0 373 -148
t148 -371q0 -222 -150 -376t-373 -154q-224 0 -375 152q-150 152 -150 376z" />
    <glyph glyph-name="Ohungarumlaut" unicode="&#x150;" horiz-adv-x="1624" 
d="M1229 1858l119 -156l-328 -215l-94 127zM825 1858l119 -156l-326 -215l-96 127zM72 698q0 304 212 524t538 220t528 -219t202 -527t-213 -524q-213 -217 -526 -217q-185 0 -331 67q-262 120 -365 413q-45 128 -45 263zM319 698q-1 -226 141 -376t352 -150t351 151
t141 375t-136 376q-138 151 -351 151t-355 -151t-143 -376z" />
    <glyph glyph-name="ohungarumlaut" unicode="&#x151;" horiz-adv-x="1181" 
d="M838 1544l166 -106l-232 -314l-131 84zM487 1544l166 -106l-231 -314l-131 84zM299 492q0 -138 85 -230t210 -92t207 91t82 229t-80 229q-80 92 -212 92t-212 -90t-80 -229zM66 493q0 224 150 372q151 149 377 149q225 0 373 -148t148 -371q0 -222 -150 -376t-373 -154
q-224 0 -375 152q-150 152 -150 376z" />
    <glyph glyph-name="OE" unicode="&#x152;" horiz-adv-x="2215" 
d="M814 1225q-212 0 -354 -150t-141 -376q1 -227 141 -377t349 -150t348 151t139 375t-135 376q-135 151 -347 151zM2071 1397v-213h-564v-359h543v-207h-543v-405h586v-213h-811v197q-195 -242 -487 -242q-181 0 -323 67q-255 120 -356 413q-44 128 -44 263q0 304 207 524
t512 220t491 -234v189h789z" />
    <glyph glyph-name="oe" unicode="&#x153;" horiz-adv-x="1884" 
d="M1334 842q-103 0 -172 -72t-81 -174h504q-10 102 -79 174t-172 72zM299 492q0 -138 81 -230t201 -92q119 0 197 91t78 229t-77 229q-77 92 -201 92t-202 -90q-77 -90 -77 -229zM66 493q0 224 144 372t359 149q258 0 396 -205q127 205 376 205q221 -2 347 -154t127 -360
q0 -25 -5 -66h-731q0 -117 79 -203t200 -86t198 111h236q-53 -125 -164 -208t-278 -83q-258 0 -385 209q-141 -209 -396 -209q-215 0 -359 152t-144 376z" />
    <glyph glyph-name="Racute" unicode="&#x154;" horiz-adv-x="1206" 
d="M733 1847l84 -180l-389 -164l-68 146zM584 754q113 0 176 60t63 162t-62 160t-179 58h-197v-440h199zM385 563v-563h-242v1397h422q262 0 385 -120t123 -300q0 -143 -86 -247t-215 -136l434 -594h-291l-397 563h-133z" />
    <glyph glyph-name="racute" unicode="&#x155;" horiz-adv-x="774" 
d="M240 1262l303 290l127 -149l-328 -264zM610 803q-120 0 -184 -78t-64 -229v-496h-229v981h225v-139h7q37 70 109 120q74 50 144 50t107 -6v-213q-72 10 -115 10z" />
    <glyph glyph-name="Rcommaaccent" unicode="&#x156;" horiz-adv-x="1206" 
d="M512 -313v186h217v-113q0 -147 -70 -249h-116q49 72 53 176h-84zM584 754q113 0 176 60t63 162t-62 160t-179 58h-197v-440h199zM385 563v-563h-242v1397h422q262 0 385 -120t123 -300q0 -143 -86 -247t-215 -136l434 -594h-291l-397 563h-133z" />
    <glyph glyph-name="rcommaaccent" unicode="&#x157;" horiz-adv-x="774" 
d="M135 -313v186h217v-113q0 -147 -69 -249h-117q49 72 53 176h-84zM610 803q-120 0 -184 -78t-64 -229v-496h-229v981h225v-139h7q37 70 109 120q74 50 144 50t107 -6v-213q-72 10 -115 10z" />
    <glyph glyph-name="Rcaron" unicode="&#x158;" horiz-adv-x="1206" 
d="M530 1503l-317 207l66 127l251 -121l254 121l64 -127zM584 754q113 0 176 60t63 162t-62 160t-179 58h-197v-440h199zM385 563v-563h-242v1397h422q262 0 385 -120t123 -300q0 -143 -86 -247t-215 -136l434 -594h-291l-397 563h-133z" />
    <glyph glyph-name="rcaron" unicode="&#x159;" horiz-adv-x="774" 
d="M432 1135l-315 260l92 121l223 -162l223 162l93 -121zM610 803q-120 0 -184 -78t-64 -229v-496h-229v981h225v-139h7q37 70 109 120q74 50 144 50t107 -6v-213q-72 10 -115 10z" />
    <glyph glyph-name="Sacute" unicode="&#x15a;" horiz-adv-x="1136" 
d="M752 1847l84 -180l-390 -164l-67 146zM565 1241q-84 0 -136 -48t-52 -128t62 -129t188 -90q217 -68 310 -182t93 -281q0 -168 -120 -298t-329 -130q-209 1 -337 109t-156 313h246q18 -105 78 -163t161 -58q100 0 159 63q58 63 58 157t-62 154q-64 61 -208 107
q-381 123 -381 428q0 164 122 270q122 107 306 107t302 -104t132 -273h-237q-10 80 -62 128t-137 48z" />
    <glyph glyph-name="sacute" unicode="&#x15b;" horiz-adv-x="888" 
d="M276 1262l304 290l127 -149l-328 -264zM450 848q-54 0 -88 -31t-32 -77q0 -46 40 -80t160 -74q285 -92 285 -314q0 -137 -97 -222t-265 -85t-260 84t-107 227h213q18 -143 162 -143q63 0 99 34t36 89t-44 94t-161 80q-141 45 -209 118q-68 72 -68 190t91 197
q90 79 243 79t240 -79t107 -206h-211q-8 53 -44 86t-90 33z" />
    <glyph glyph-name="Scircumflex" unicode="&#x15c;" horiz-adv-x="1136" 
d="M563 1837l318 -207l-66 -127l-252 121l-252 -121l-65 127zM565 1241q-84 0 -136 -48t-52 -128t62 -129t188 -90q217 -68 310 -182t93 -281q0 -168 -120 -298t-329 -130q-209 1 -337 109t-156 313h246q18 -105 78 -163t161 -58q100 0 159 63q58 63 58 157t-62 154
q-64 61 -208 107q-381 123 -381 428q0 164 122 270q122 107 306 107t302 -104t132 -273h-237q-10 80 -62 128t-137 48z" />
    <glyph glyph-name="scircumflex" unicode="&#x15d;" horiz-adv-x="888" 
d="M455 1516l315 -261l-92 -120l-223 161l-224 -161l-92 120zM450 848q-54 0 -88 -31t-32 -77q0 -46 40 -80t160 -74q285 -92 285 -314q0 -137 -97 -222t-265 -85t-260 84t-107 227h213q18 -143 162 -143q63 0 99 34t36 89t-44 94t-161 80q-141 45 -209 118q-68 72 -68 190
t91 197q90 79 243 79t240 -79t107 -206h-211q-8 53 -44 86t-90 33z" />
    <glyph glyph-name="Scedilla" unicode="&#x15e;" horiz-adv-x="1136" 
d="M565 1241q-84 0 -136 -48t-52 -127t59 -127t191 -93q217 -74 310 -186t93 -272t-106 -286q-106 -125 -297 -143l-17 -39q82 -14 130 -70t48 -141q0 -86 -66 -146q-66 -61 -183 -61q-118 0 -222 35l48 137q57 -24 154 -24t97 69q0 88 -192 88l61 154q-166 21 -269 127
t-128 289h246q18 -105 78 -163t161 -58q100 0 159 63q58 63 58 155t-65 154q-66 61 -207 111q-199 68 -289 172t-90 262t123 263q123 106 306 106t301 -104t132 -273h-237q-10 80 -62 128t-137 48z" />
    <glyph glyph-name="scedilla" unicode="&#x15f;" horiz-adv-x="888" 
d="M446 848q-54 0 -88 -30t-32 -76q0 -46 38 -78q38 -33 177 -82q270 -95 270 -312q0 -122 -81 -204t-224 -97l-19 -49q82 -14 130 -70q49 -56 49 -141q0 -86 -66 -146q-66 -61 -184 -61t-221 35l47 137q57 -24 154 -24t98 69q0 88 -193 88l66 164q-256 35 -285 305h213
q18 -143 160 -143q61 0 99 33t38 88t-43 94t-174 85t-198 118q-67 73 -67 189t91 195t243 79t240 -79t107 -206h-211q-8 53 -44 86t-90 33z" />
    <glyph glyph-name="Scaron" unicode="&#x160;" horiz-adv-x="1136" 
d="M563 1503l-317 207l65 127l252 -121l254 121l64 -127zM572 1241q-84 0 -137 -48q-52 -48 -52 -128t62 -129t188 -90q217 -68 310 -182t93 -281q0 -168 -120 -298t-328 -130q-208 1 -338 109q-129 108 -156 313h246q18 -105 78 -163t162 -58q100 0 158 63t58 157t-62 154
q-64 61 -208 107q-381 123 -381 428q0 164 122 270q122 107 306 107q185 0 303 -104t132 -273h-238q-10 80 -62 128t-136 48z" />
    <glyph glyph-name="scaron" unicode="&#x161;" horiz-adv-x="888" 
d="M451 1135l-316 260l92 121l224 -162l223 162l92 -121zM456 848q-54 0 -87 -31t-33 -77t40 -80t161 -74q285 -92 284 -314q0 -137 -97 -222t-265 -85t-260 84t-107 227h213q18 -143 162 -143q63 0 99 34t36 89t-44 94t-161 80q-141 45 -209 118q-68 72 -68 190t91 197
q90 79 243 79t240 -79t107 -206h-211q-8 53 -44 86t-90 33z" />
    <glyph glyph-name="uni0162" unicode="&#x162;" horiz-adv-x="978" 
d="M377 -313v186h217v-113q0 -147 -70 -249h-116q49 72 53 176h-84zM369 0v1184h-349v213h938v-213h-348v-1184h-241z" />
    <glyph glyph-name="uni0163" unicode="&#x163;" horiz-adv-x="684" 
d="M291 -305v186h217v-112q0 -147 -70 -250h-116q49 72 53 176h-84zM29 788v193h123v313h229v-313h244v-193h-244v-438q0 -96 31 -133t92 -37t131 17v-187q-80 -23 -174 -22q-172 0 -241 91t-68 257v452h-123z" />
    <glyph glyph-name="Tcaron" unicode="&#x164;" horiz-adv-x="978" 
d="M487 1503l-317 207l66 127l251 -121l254 121l64 -127zM369 0v1184h-349v213h938v-213h-348v-1184h-241z" />
    <glyph glyph-name="tcaron" unicode="&#x165;" horiz-adv-x="714" 
d="M500 1288v187h217v-113q0 -147 -70 -250h-117q49 72 54 176h-84zM29 788v193h123v313h229v-313h244v-193h-244v-438q0 -96 31 -133t92 -37t131 17v-187q-80 -23 -174 -22q-172 0 -241 91t-68 257v452h-123z" />
    <glyph glyph-name="Tbar" unicode="&#x166;" horiz-adv-x="978" 
d="M844 616h-234v-616h-241v616h-234v193h234v375h-349v213h938v-213h-348v-375h234v-193z" />
    <glyph glyph-name="tbar" unicode="&#x167;" horiz-adv-x="684" 
d="M516 180q49 0 119 17v-187q-80 -23 -174 -22q-172 0 -241 91t-68 257v92h-103v156h103v204h-123v193h123v313h229v-313h244v-193h-244v-204l217 -2v-156l-217 2q0 -152 25 -200t110 -48z" />
    <glyph glyph-name="Utilde" unicode="&#x168;" horiz-adv-x="1292" 
d="M494 1839q88 0 166 -59t124 -60q59 0 62 101h145q-10 -262 -211 -262q-88 0 -165 59t-109 59q-56 0 -62 -100h-145q6 119 57 191q50 72 138 71zM1167 559q0 -311 -141 -457q-140 -146 -374 -147q-234 0 -382 144q-147 144 -147 456v842h242v-865q1 -170 75 -269t207 -99
q281 0 281 368v865h239v-838z" />
    <glyph glyph-name="utilde" unicode="&#x169;" horiz-adv-x="1140" 
d="M707 1352q59 0 61 100h145q-10 -262 -211 -262q-88 0 -164 59t-110 60q-55 -1 -61 -101h-146q5 119 57 191q52 71 139 71t165 -59t125 -59zM1010 981v-981h-228v121h-6q-111 -154 -291 -154q-133 0 -243 92q-55 47 -88 135t-33 207v580h229v-553q0 -122 54 -190t154 -68
t161 75t61 214v522h230z" />
    <glyph glyph-name="Umacron" unicode="&#x16a;" horiz-adv-x="1292" 
d="M950 1591h-577v164h577v-164zM1167 559q0 -311 -141 -457q-140 -146 -374 -147q-234 0 -382 144q-147 144 -147 456v842h242v-865q1 -170 75 -269t207 -99q281 0 281 368v865h239v-838z" />
    <glyph glyph-name="umacron" unicode="&#x16b;" horiz-adv-x="1140" 
d="M858 1223h-577v163h577v-163zM1010 981v-981h-228v121h-6q-111 -154 -291 -154q-133 0 -243 92q-55 47 -88 135t-33 207v580h229v-553q0 -122 54 -190t154 -68t161 75t61 214v522h230z" />
    <glyph glyph-name="Ubreve" unicode="&#x16c;" horiz-adv-x="1292" 
d="M639 1530q-148 0 -235 79t-91 206h162q4 -55 49 -87t122 -32t121 33t48 86h164q-8 -129 -100 -207t-240 -78zM1167 559q0 -311 -141 -457q-140 -146 -374 -147q-234 0 -382 144q-147 144 -147 456v842h242v-865q1 -170 75 -269t207 -99q281 0 281 368v865h239v-838z" />
    <glyph glyph-name="ubreve" unicode="&#x16d;" horiz-adv-x="1140" 
d="M566 1161q-140 0 -231 87t-97 229h161q5 -68 51 -107t118 -39t120 40q47 40 51 106h164q-8 -139 -102 -227q-95 -88 -235 -89zM1010 981v-981h-228v121h-6q-111 -154 -291 -154q-133 0 -243 92q-55 47 -88 135t-33 207v580h229v-553q0 -122 54 -190t154 -68t161 75
t61 214v522h230z" />
    <glyph glyph-name="Uring" unicode="&#x16e;" horiz-adv-x="1292" 
d="M389 1722q0 108 75 184t183 74q108 0 183 -74t75 -183q0 -107 -75 -183q-76 -76 -184 -76t-182 76q-74 74 -75 182zM522 1724q0 -51 37 -88t89 -37t87 36t35 88t-35 87t-87 35t-89 -35t-37 -86zM1167 559q0 -311 -141 -457q-140 -146 -374 -147q-234 0 -382 144
q-147 144 -147 456v842h242v-865q1 -170 75 -269t207 -99q281 0 281 368v865h239v-838z" />
    <glyph glyph-name="uring" unicode="&#x16f;" horiz-adv-x="1140" 
d="M569 1602q107 0 183 -75t76 -183t-76 -183q-74 -76 -183 -76t-183 76q-74 75 -75 183q0 108 75 183t183 75zM444 1346q0 -50 37 -88t89 -38t87 36t35 88t-35 88q-35 34 -87 34t-89 -34t-37 -86zM1010 981v-981h-228v121h-6q-111 -154 -291 -154q-133 0 -243 92
q-55 47 -88 135t-33 207v580h229v-553q0 -122 54 -190t154 -68t161 75t61 214v522h230z" />
    <glyph glyph-name="Uhungarumlaut" unicode="&#x170;" horiz-adv-x="1292" 
d="M1038 1858l119 -156l-328 -215l-94 127zM635 1858l119 -156l-326 -215l-96 127zM1167 559q0 -311 -141 -457q-140 -146 -374 -147q-234 0 -382 144q-147 144 -147 456v842h242v-865q1 -170 75 -269t207 -99q281 0 281 368v865h239v-838z" />
    <glyph glyph-name="uhungarumlaut" unicode="&#x171;" horiz-adv-x="1140" 
d="M815 1544l166 -106l-231 -314l-132 84zM465 1544l166 -106l-232 -314l-131 84zM1010 981v-981h-228v121h-6q-111 -154 -291 -154q-133 0 -243 92q-55 47 -88 135t-33 207v580h229v-553q0 -122 54 -190t154 -68t161 75t61 214v522h230z" />
    <glyph glyph-name="Uogonek" unicode="&#x172;" horiz-adv-x="1292" 
d="M647 -45q-229 0 -377 144q-147 144 -147 456v842h242v-865q1 -170 75 -269t207 -99q281 0 281 368v865h239v-838q0 -381 -215 -522q-104 -68 -131 -100q-49 -61 -49 -127q0 -94 100 -95q41 0 80 9v-164q-57 -14 -121 -15q-121 1 -181 63t-60 164t84 185q-9 -2 -27 -2z
" />
    <glyph glyph-name="uogonek" unicode="&#x173;" horiz-adv-x="1140" 
d="M676 -248q0 82 40 148q40 64 109 100h-43v121h-6q-111 -154 -291 -154q-133 0 -243 92q-55 47 -88 135t-33 207v580h229v-553q0 -122 54 -190t154 -68t161 75t61 214v522h230v-981q-52 -4 -102 -56t-50 -134q0 -94 100 -95q43 1 78 9v-164q-53 -14 -118 -15
q-122 1 -182 63t-60 144z" />
    <glyph glyph-name="Wcircumflex" unicode="&#x174;" horiz-adv-x="1751" 
d="M881 1837l317 -207l-65 -127l-252 121l-252 -121l-66 127zM1126 0l-190 799q-39 166 -49 297h-8q-20 -164 -52 -291l-184 -805h-252l-366 1397h239l199 -819q27 -106 55 -267h8q25 150 56 285l188 801h231l195 -815q23 -94 53 -271h8q23 152 50 269l184 817h238
l-345 -1397h-258z" />
    <glyph glyph-name="wcircumflex" unicode="&#x175;" horiz-adv-x="1454" 
d="M731 1516l316 -261l-93 -120l-223 161l-223 -161l-92 120zM887 0l-119 494q-33 152 -41 213h-8q-12 -102 -47 -254l-107 -453h-274l-252 981h225l131 -557q27 -121 39 -195h8q27 137 43 205l136 547h219l137 -555q12 -49 37 -197h6q14 102 35 195l135 557h225l-256 -981
h-272z" />
    <glyph glyph-name="Ycircumflex" unicode="&#x176;" horiz-adv-x="1167" 
d="M592 1837l317 -207l-65 -127l-252 121l-252 -121l-66 127zM465 0v561l-447 836h267l235 -457q49 -96 74 -168h4q18 49 76 166l225 459h252l-444 -834v-563h-242z" />
    <glyph glyph-name="ycircumflex" unicode="&#x177;" horiz-adv-x="925" 
d="M473 1516l315 -261l-92 -120l-223 161l-223 -161l-92 120zM934 981l-539 -1462h-219l180 485l-358 977h235l170 -487q53 -162 66 -226h6q29 115 66 226l166 487h227z" />
    <glyph glyph-name="Ydieresis" unicode="&#x178;" horiz-adv-x="1167" 
d="M676 1583v209h215v-209h-215zM307 1583v209h215v-209h-215zM471 0v561l-446 836h266l235 -457q49 -96 74 -168h4q18 49 76 166l225 459h252l-444 -834v-563h-242z" />
    <glyph glyph-name="Zacute" unicode="&#x179;" horiz-adv-x="1253" 
d="M795 1847l84 -180l-390 -164l-67 146zM115 1184v213h1024v-201l-760 -983h792v-213h-1091v199l760 985h-725z" />
    <glyph glyph-name="zacute" unicode="&#x17a;" horiz-adv-x="991" 
d="M311 1262l303 290l127 -149l-327 -264zM98 791v190h793v-182l-526 -609h550v-190h-841v182l528 609h-504z" />
    <glyph glyph-name="Zdotaccent" unicode="&#x17b;" horiz-adv-x="1253" 
d="M494 1583v213h221v-213h-221zM115 1184v213h1024v-201l-760 -983h792v-213h-1091v199l760 985h-725z" />
    <glyph glyph-name="zdotaccent" unicode="&#x17c;" horiz-adv-x="991" 
d="M369 1212v211h221v-211h-221zM98 791v190h793v-182l-526 -609h550v-190h-841v182l528 609h-504z" />
    <glyph glyph-name="Zcaron" unicode="&#x17d;" horiz-adv-x="1253" 
d="M614 1503l-317 207l65 127l252 -121l254 121l64 -127zM121 1184v213h1024v-201l-760 -983h793v-213h-1092v199l760 985h-725z" />
    <glyph glyph-name="zcaron" unicode="&#x17e;" horiz-adv-x="991" 
d="M487 1135l-315 260l92 121l223 -162l224 162l92 -121zM104 791v190h793v-182l-526 -609h551v-190h-842v182l528 609h-504z" />
    <glyph glyph-name="longs" unicode="&#x17f;" horiz-adv-x="534" 
d="M143 0v1143q0 166 85 254t249 88q84 0 150 -19v-188q-61 16 -111 16q-143 0 -143 -155v-1139h-230z" />
    <glyph glyph-name="florin" unicode="&#x192;" horiz-adv-x="1165" 
d="M281 795v192h188l18 115q27 174 110 257t228 83q57 0 140 -15v-186q-41 8 -99 8q-127 0 -149 -153l-19 -109h181v-192h-209l-154 -971q-31 -182 -114 -266t-224 -84q-92 0 -143 14v188q61 -12 115 -12q109 0 139 174l153 957h-161z" />
    <glyph glyph-name="Scommaaccent" unicode="&#x218;" horiz-adv-x="1136" 
d="M455 -313v186h217v-113q0 -147 -70 -249h-117q49 72 54 176h-84zM565 1241q-84 0 -136 -48t-52 -128t62 -129t188 -90q217 -68 310 -182t93 -281q0 -168 -120 -298t-329 -130q-209 1 -337 109t-156 313h246q18 -105 78 -163t161 -58q100 0 159 63q58 63 58 157t-62 154
q-64 61 -208 107q-381 123 -381 428q0 164 122 270q122 107 306 107t302 -104t132 -273h-237q-10 80 -62 128t-137 48z" />
    <glyph glyph-name="scommaaccent" unicode="&#x219;" horiz-adv-x="888" 
d="M328 -313v186h217v-113q0 -147 -70 -249h-117q49 72 54 176h-84zM446 848q-54 0 -88 -31t-32 -77q0 -46 40 -80t160 -74q285 -92 285 -314q0 -137 -97 -222t-265 -85t-261 84q-92 84 -106 227h213q18 -143 162 -143q63 0 99 34t36 89t-44 94t-161 80q-141 45 -209 118
q-68 72 -68 190t91 197t243 79t240 -79t107 -206h-211q-8 53 -44 86t-90 33z" />
    <glyph glyph-name="uni021A" unicode="&#x21a;" horiz-adv-x="978" 
d="M377 -313v186h217v-113q0 -147 -70 -249h-116q49 72 53 176h-84zM369 0v1184h-349v213h938v-213h-348v-1184h-241z" />
    <glyph glyph-name="uni021B" unicode="&#x21b;" horiz-adv-x="684" 
d="M291 -305v186h217v-112q0 -147 -70 -250h-116q49 72 53 176h-84zM29 788v193h123v313h229v-313h244v-193h-244v-438q0 -96 31 -133t92 -37t131 17v-187q-80 -23 -174 -22q-172 0 -241 91t-68 257v452h-123z" />
    <glyph glyph-name="dotlessj" unicode="&#x237;" horiz-adv-x="495" 
d="M362 981v-1073q0 -214 -93 -318t-261 -104q-96 0 -186 29v192q80 -25 147 -24q164 0 164 217v1081h229z" />
    <glyph glyph-name="circumflex" unicode="&#x2c6;" horiz-adv-x="663" 
d="M332 1516l315 -261l-92 -120l-223 161l-223 -161l-93 120z" />
    <glyph glyph-name="caron" unicode="&#x2c7;" horiz-adv-x="663" 
d="M332 1135l-316 260l93 121l223 -162l223 162l92 -121z" />
    <glyph glyph-name="uni02C9" unicode="&#x2c9;" horiz-adv-x="663" 
d="M621 1223h-578v163h578v-163z" />
    <glyph glyph-name="breve" unicode="&#x2d8;" horiz-adv-x="663" 
d="M329 1161q-140 0 -232 87q-91 87 -97 229h162q6 -68 51 -107t118 -39t120 40t51 106h164q-8 -139 -102 -227t-235 -89z" />
    <glyph glyph-name="dotaccent" unicode="&#x2d9;" horiz-adv-x="663" 
d="M221 1212v211h221v-211h-221z" />
    <glyph glyph-name="ring" unicode="&#x2da;" horiz-adv-x="663" 
d="M334 1085q-108 0 -184 76q-74 75 -74 183t75 183t183 75t183 -75t75 -183t-75 -183q-75 -76 -183 -76zM209 1346q0 -50 37 -88t89 -38t87 36t35 88t-35 88q-35 34 -87 34t-89 -34t-37 -86z" />
    <glyph glyph-name="ogonek" unicode="&#x2db;" horiz-adv-x="663" 
d="M317 -190q0 -94 99 -95q45 1 80 9v-164q-53 -14 -119 -15q-123 1 -182 63t-59 144t39 148q40 64 110 100h145q-113 -96 -113 -190z" />
    <glyph glyph-name="tilde" unicode="&#x2dc;" horiz-adv-x="663" 
d="M471 1352q59 0 61 100h146q-10 -262 -211 -262q-88 0 -165 59t-109 60q-56 -1 -62 -101h-145q6 119 57 191q51 71 139 71t164 -59q78 -59 125 -59z" />
    <glyph glyph-name="hungarumlaut" unicode="&#x2dd;" horiz-adv-x="663" 
d="M580 1544l165 -106l-231 -314l-131 84zM229 1544l166 -106l-231 -314l-131 84z" />
    <glyph glyph-name="uni0394" unicode="&#x394;" horiz-adv-x="1335" 
d="M582 883l-252 -684h669l-247 686q-43 119 -78 241h-10q-37 -126 -82 -243zM14 0l555 1397h222l530 -1397h-1307z" />
    <glyph glyph-name="uni03A9" unicode="&#x3a9;" horiz-adv-x="1552" 
d="M1470 782q0 -178 -93 -326t-261 -218v-27h357v-211h-578v322q150 42 239 162t89 304t-124 315q-124 130 -321 130q-198 0 -324 -130q-126 -131 -126 -315t89 -305t238 -161v-322h-575v211h354v27q-166 68 -260 215t-94 329q0 272 196 466q197 194 508 194q310 0 498 -190
t188 -470z" />
    <glyph glyph-name="uni03BC" unicode="&#x3bc;" horiz-adv-x="1167" 
d="M121 -436v1417h229v-553q0 -122 51 -190t154 -68t163 77t60 220v514h232v-692q0 -57 15 -80t54 -23q8 0 45 7v-201q-46 -16 -126 -16q-171 -1 -201 157h-4q-98 -166 -275 -166q-109 0 -184 58l-6 -5q23 -90 22 -249v-207h-229z" />
    <glyph glyph-name="pi" unicode="&#x3c0;" horiz-adv-x="1323" 
d="M1061 -12q-141 0 -202 75q-60 76 -60 234v491h-291v-512q0 -158 -35 -276h-231q37 117 37 289v499q-143 0 -238 -53v193q96 53 293 53h930v-193h-236v-458q0 -80 22 -112q37 -54 158 -19v-191q-66 -20 -147 -20z" />
    <glyph glyph-name="uni0400" unicode="&#x400;" horiz-adv-x="1095" 
d="M289 1667l86 180l373 -198l-70 -146zM956 1397v-213h-565v-359h545v-207h-545v-405h588v-213h-829v1397h806z" />
    <glyph glyph-name="afii10023" unicode="&#x401;" horiz-adv-x="1095" 
d="M629 1583v209h215v-209h-215zM260 1583v209h215v-209h-215zM956 1397v-213h-565v-359h545v-207h-545v-405h588v-213h-829v1397h806z" />
    <glyph glyph-name="afii10051" unicode="&#x402;" horiz-adv-x="1386" 
d="M1024 -59v548q0 256 -221 256q-104 0 -166 -68q-61 -69 -62 -169l3 -508h-242v1184h-316v213h871v-213h-313v-377h6q42 67 118 107t168 40q193 0 294 -116t102 -338v-541q0 -209 -92 -310t-261 -102q-94 0 -184 29v186q80 -25 141 -24q154 0 154 203z" />
    <glyph glyph-name="afii10052" unicode="&#x403;" horiz-adv-x="993" 
d="M735 1847l84 -180l-389 -164l-68 146zM143 0v1397h830v-213h-592v-1184h-238z" />
    <glyph glyph-name="afii10053" unicode="&#x404;" horiz-adv-x="1560" 
d="M795 1442q135 0 251 -38q204 -67 322 -238q51 -73 80 -152h-266q-44 100 -146 162t-260 63q-158 0 -288 -112q-128 -112 -158 -302h690v-207h-694q20 -200 150 -330t325 -130q147 0 248 67q100 68 149 183h270q-86 -209 -254 -331t-421 -122q-319 0 -521 212
q-200 212 -200 533q0 322 206 532t517 210z" />
    <glyph glyph-name="afii10054" unicode="&#x405;" horiz-adv-x="1136" 
d="M565 1241q-84 0 -136 -48t-52 -128t62 -129t188 -90q217 -68 310 -182t93 -281q0 -168 -120 -298t-329 -130q-209 1 -337 109t-156 313h246q18 -105 78 -163t161 -58q100 0 159 63q58 63 58 157t-62 154q-64 61 -208 107q-381 123 -381 428q0 164 122 270
q122 107 306 107t302 -104t132 -273h-237q-10 80 -62 128t-137 48z" />
    <glyph glyph-name="afii10055" unicode="&#x406;" horiz-adv-x="530" 
d="M145 0v1397h242v-1397h-242z" />
    <glyph glyph-name="afii10056" unicode="&#x407;" horiz-adv-x="530" 
d="M348 1583v209h215v-209h-215zM-20 1583v209h215v-209h-215zM152 0v1397h241v-1397h-241z" />
    <glyph glyph-name="afii10057" unicode="&#x408;" horiz-adv-x="755" 
d="M387 389v1008h242v-998q1 -233 -99 -337t-297 -105q-115 0 -213 41v207q86 -39 182 -39t141 51q44 51 44 172z" />
    <glyph glyph-name="afii10058" unicode="&#x409;" horiz-adv-x="1939" 
d="M1624 417q0 103 -70 161t-194 57h-170v-440h188q119 0 183 59q63 60 63 163zM948 1184h-426l-65 -840q-14 -190 -90 -274t-232 -84q-57 0 -117 18v203q29 -12 83 -12q54 1 83 33t37 116l82 1053h887v-568h201q219 -1 349 -109t130 -302t-134 -306t-347 -112h-441v1184z
" />
    <glyph glyph-name="afii10059" unicode="&#x40a;" horiz-adv-x="1935" 
d="M1374 195q118 -1 182 59t64 163t-70 161t-194 57h-170v-440h188zM1186 1397v-568h200q219 0 350 -108q130 -109 130 -303t-134 -306t-348 -112h-440v614h-557v-614h-242v1397h242v-568h557v568h242z" />
    <glyph glyph-name="afii10060" unicode="&#x40b;" horiz-adv-x="1386" 
d="M578 1184v-377h6q40 67 120 107t173 40q389 0 389 -460v-494h-242v489q0 133 -52 195t-162 61q-110 0 -173 -68q-61 -69 -62 -169l3 -508h-242v1184h-316v213h871v-213h-313z" />
    <glyph glyph-name="afii10061" unicode="&#x40c;" horiz-adv-x="1288" 
d="M840 1847l84 -180l-389 -164l-68 146zM387 0h-242v1397h242v-652l608 652h301l-657 -676l682 -721h-313l-621 668v-668z" />
    <glyph glyph-name="uni040D" unicode="&#x40d;" horiz-adv-x="1394" 
d="M449 1667l86 180l372 -198l-69 -146zM145 1397h236v-764q0 -199 -4 -273h4q41 80 246 406l399 631h223v-1397h-235v752q0 139 4 278h-4q-43 -84 -264 -430l-381 -600h-224v1397z" />
    <glyph glyph-name="afii10062" unicode="&#x40e;" horiz-adv-x="1208" 
d="M632 1530q-148 0 -234 79q-87 79 -91 206h162q4 -55 49 -87t122 -32t121 33t48 86h164q-9 -129 -101 -207t-240 -78zM354 -14q-59 0 -114 18v201q33 -12 87 -12q54 1 92 27t73 99l49 115l-523 963h267l305 -594q37 -68 61 -137h4q4 10 54 139l239 592h252l-489 -1118
q-129 -293 -357 -293z" />
    <glyph glyph-name="afii10145" unicode="&#x40f;" horiz-adv-x="1355" 
d="M145 0v1397h236v-1184h594v1184h235v-1397h-413v-358h-240v358h-412z" />
    <glyph glyph-name="afii10017" unicode="&#x410;" horiz-adv-x="1335" 
d="M582 883l-131 -357h430l-129 359q-43 119 -78 241h-10q-37 -126 -82 -243zM14 0l555 1397h222l530 -1397h-252l-125 342h-557l-127 -342h-246z" />
    <glyph glyph-name="afii10018" unicode="&#x411;" horiz-adv-x="1138" 
d="M145 1397h799v-213h-557v-355h201q219 -1 349 -109t130 -302t-134 -306t-347 -112h-441v1397zM821 417q0 103 -69 161q-70 57 -195 57h-170v-440h188q119 0 183 59q63 60 63 163z" />
    <glyph glyph-name="afii10019" unicode="&#x412;" horiz-adv-x="1134" 
d="M502 823q111 -1 169 53t58 145t-63 137t-174 46h-115v-381h125zM811 413q0 101 -70 160t-194 60h-170v-438h188q121 0 184 58q62 59 62 160zM145 0v1397h355q219 0 345 -93t126 -262q0 -112 -68 -188t-172 -106v-5q156 -18 241 -116t85 -232q0 -187 -134 -291t-345 -104
h-433z" />
    <glyph glyph-name="afii10020" unicode="&#x413;" horiz-adv-x="993" 
d="M143 0v1397h830v-213h-592v-1184h-238z" />
    <glyph glyph-name="afii10021" unicode="&#x414;" horiz-adv-x="1581" 
d="M1092 213v971h-486l-41 -588q-23 -272 -127 -383h654zM41 -358v571h45q213 0 242 383l57 801h948v-1184h187v-571h-242v358h-995v-358h-242z" />
    <glyph glyph-name="afii10022" unicode="&#x415;" horiz-adv-x="1095" 
d="M950 1397v-213h-565v-359h545v-207h-545v-405h588v-213h-830v1397h807z" />
    <glyph glyph-name="afii10024" unicode="&#x416;" horiz-adv-x="1810" 
d="M784 1397h242v-641l502 641h287l-545 -672l569 -725h-291l-522 680v-680h-242v680l-522 -680h-291l570 725l-545 672h287l501 -641v641z" />
    <glyph glyph-name="afii10025" unicode="&#x417;" horiz-adv-x="1118" 
d="M550 162q100 0 166 68q64 68 64 174t-68 176q-69 70 -190 69h-129v199h129q98 0 155 56q56 56 56 140t-53 139q-53 54 -135 54t-128 -46t-55 -122h-247q12 170 133 271q120 102 308 102t304 -106t115 -273q0 -100 -56 -180t-153 -119v-6q120 -37 190 -134t70 -227
q0 -190 -133 -315t-344 -125t-341 117t-145 299h250q9 -95 73 -153t164 -58z" />
    <glyph glyph-name="afii10026" unicode="&#x418;" horiz-adv-x="1394" 
d="M145 1397h236v-764q0 -199 -4 -273h4q41 80 246 406l399 631h223v-1397h-235v752q0 139 4 278h-4q-43 -84 -264 -430l-381 -600h-224v1397z" />
    <glyph glyph-name="afii10027" unicode="&#x419;" horiz-adv-x="1394" 
d="M686 1530q-148 0 -234 79t-92 206h162q4 -55 49 -87t122 -32t121 33t48 86h164q-8 -129 -100 -207t-240 -78zM145 1397h236v-764q0 -199 -4 -273h4q41 80 246 406l399 631h223v-1397h-235v752q0 139 4 278h-4q-43 -84 -264 -430l-381 -600h-224v1397z" />
    <glyph glyph-name="afii10028" unicode="&#x41a;" horiz-adv-x="1288" 
d="M387 0h-242v1397h242v-652l608 652h301l-657 -676l682 -721h-313l-621 668v-668z" />
    <glyph glyph-name="afii10029" unicode="&#x41b;" horiz-adv-x="1396" 
d="M135 -14q-57 0 -117 18v203q29 -12 83 -12q54 1 83 33t37 116l82 1053h948v-1397h-235v1184h-494l-65 -840q-14 -190 -90 -274t-232 -84z" />
    <glyph glyph-name="afii10030" unicode="&#x41c;" horiz-adv-x="1677" 
d="M1264 1073h-11q-51 -186 -98 -336l-231 -737h-181l-233 754q-76 231 -94 319h-15q-6 -133 -24 -317l-78 -756h-221l162 1397h276l246 -760q45 -141 74 -256h8q16 66 76 256l243 760h275l164 -1397h-234l-74 739q-30 295 -30 334z" />
    <glyph glyph-name="afii10031" unicode="&#x41d;" horiz-adv-x="1419" 
d="M1032 0v614h-645v-614h-242v1397h242v-568h645v568h242v-1397h-242z" />
    <glyph glyph-name="afii10032" unicode="&#x41e;" horiz-adv-x="1624" 
d="M72 698q0 304 212 524t538 220t528 -219t202 -527t-213 -524q-213 -217 -526 -217q-185 0 -331 67q-262 120 -365 413q-45 128 -45 263zM319 698q-1 -226 141 -376t352 -150t351 151t141 375t-136 376q-138 151 -351 151t-355 -151t-143 -376z" />
    <glyph glyph-name="afii10033" unicode="&#x41f;" horiz-adv-x="1355" 
d="M975 0v1184h-594v-1184h-236v1397h1065v-1397h-235z" />
    <glyph glyph-name="afii10034" unicode="&#x420;" horiz-adv-x="1134" 
d="M143 0v1397h430q236 0 379 -112q144 -112 144 -327q0 -216 -133 -332t-402 -116h-176v-510h-242zM850 952q0 110 -68 176t-207 66h-190v-483h186q279 -1 279 241z" />
    <glyph glyph-name="afii10035" unicode="&#x421;" horiz-adv-x="1564" 
d="M795 1442q268 0 436 -136t219 -319h-264q-38 106 -142 176t-251 70q-201 1 -337 -145t-136 -380t134 -389q136 -156 347 -155q152 0 254 76t147 194h271q-80 -219 -250 -349t-430 -130q-319 0 -521 212q-200 212 -200 533q0 322 206 532t517 210z" />
    <glyph glyph-name="afii10036" unicode="&#x422;" horiz-adv-x="978" 
d="M369 0v1184h-349v213h938v-213h-348v-1184h-241z" />
    <glyph glyph-name="afii10037" unicode="&#x423;" horiz-adv-x="1208" 
d="M354 -14q-59 0 -114 18v201q33 -12 87 -12q54 1 92 27t73 99l49 115l-523 963h267l305 -594q37 -68 61 -137h4q4 10 54 139l239 592h252l-489 -1118q-129 -293 -357 -293z" />
    <glyph glyph-name="afii10038" unicode="&#x424;" horiz-adv-x="1597" 
d="M920 -20h-242v155q-272 4 -442 165t-170 408q0 248 171 404t441 160v143h242v-143q272 -4 442 -161t170 -405t-170 -407q-170 -160 -442 -164v-155zM920 1077v-745q152 0 258 104t106 270t-101 268q-101 103 -263 103zM678 332v745q-164 0 -264 -102t-100 -268
q0 -167 106 -271t258 -104z" />
    <glyph glyph-name="afii10039" unicode="&#x425;" horiz-adv-x="1216" 
d="M299 1397l215 -336q41 -63 98 -162h6q51 92 99 166l213 332h258l-453 -668l473 -729h-272l-219 354q-95 152 -113 189h-4q-88 -152 -117 -193l-215 -350h-260l469 721l-452 676h274z" />
    <glyph glyph-name="afii10040" unicode="&#x426;" horiz-adv-x="1458" 
d="M1155 0h-1010v1397h242v-1184h582v1184h241v-1184h187v-571h-242v358z" />
    <glyph glyph-name="afii10041" unicode="&#x427;" horiz-adv-x="1277" 
d="M1135 0h-242v641h-8q-49 -67 -143 -107t-187 -40q-209 0 -323 116t-113 348v439h241v-418q0 -276 261 -277q125 0 199 74t73 207v414h242v-1397z" />
    <glyph glyph-name="afii10042" unicode="&#x428;" horiz-adv-x="1878" 
d="M145 0v1397h236v-1184h440v1184h236v-1184h440v1184h236v-1397h-1588z" />
    <glyph glyph-name="afii10043" unicode="&#x429;" horiz-adv-x="1980" 
d="M1677 0h-1532v1397h236v-1184h440v1184h236v-1184h440v1184h236v-1184h186v-571h-242v358z" />
    <glyph glyph-name="afii10044" unicode="&#x42a;" horiz-adv-x="1359" 
d="M369 1184h-349v213h590v-568h201q219 -1 349 -109t130 -302t-134 -306t-347 -112h-440v1184zM799 195q119 -1 182 59t63 163t-68 161q-69 57 -196 57h-170v-440h189z" />
    <glyph glyph-name="afii10045" unicode="&#x42b;" horiz-adv-x="1630" 
d="M1245 0v1397h242v-1397h-242zM145 0v1397h242v-568h201q219 -1 349 -109t130 -302t-134 -306t-347 -112h-441zM821 417q0 103 -69 161q-70 57 -195 57h-170v-440h188q119 0 183 59q63 60 63 163z" />
    <glyph glyph-name="afii10046" unicode="&#x42c;" horiz-adv-x="1136" 
d="M145 0v1397h242v-568h201q219 -1 349 -109t130 -302t-134 -306t-347 -112h-441zM821 417q0 103 -69 161q-70 57 -195 57h-170v-440h188q119 0 183 59q63 60 63 163z" />
    <glyph glyph-name="afii10047" unicode="&#x42d;" horiz-adv-x="1560" 
d="M766 1442q311 0 517 -210t206 -532t-201 -534t-520 -211q-254 0 -422 122t-254 331h270q50 -115 150 -183t248 -67q196 0 324 130t151 330h-700v207h696q-31 190 -160 302t-287 112t-258 -62t-145 -163h-266q61 167 209 289q78 63 192 101t250 38z" />
    <glyph glyph-name="afii10048" unicode="&#x42e;" horiz-adv-x="2109" 
d="M805 698q0 -226 141 -376t351 -150t352 151q141 151 141 375t-137 376q-137 151 -351 151t-355 -151q-142 -151 -142 -376zM1298 -45q-170 0 -307 57q-137 56 -224 152q-173 190 -200 450h-180v-614h-242v1397h242v-568h186q45 261 245 437t482 176q332 0 535 -219
t203 -527t-214 -524q-214 -217 -526 -217z" />
    <glyph glyph-name="afii10049" unicode="&#x42f;" horiz-adv-x="1206" 
d="M383 976q0 -102 63 -162t177 -60h198v440h-196q-117 0 -180 -58q-62 -59 -62 -160zM135 977q0 180 122 300t384 120h422v-1397h-242v563h-133l-397 -563h-291l434 594q-129 33 -214 136t-85 247z" />
    <glyph glyph-name="afii10065" unicode="&#x430;" horiz-adv-x="1236" 
d="M301 491q0 -133 77 -229t207 -96t217 91t87 232t-83 233t-216 93q-133 0 -211 -96t-78 -228zM1102 981v-981h-223v125h-7q-129 -160 -323 -160t-339 140q-144 140 -144 378t141 383q141 146 342 146t325 -164h5v133h223z" />
    <glyph glyph-name="afii10066" unicode="&#x431;" horiz-adv-x="1187" 
d="M627 1008q221 0 358 -146t137 -367q0 -222 -150 -376t-378 -154q-229 0 -373 159q-143 159 -143 463t110 502q140 244 490 304q156 29 266 96l92 -189q-147 -81 -323 -104q-350 -53 -396 -315h7q49 55 132 91t171 36zM305 491q0 -137 85 -229t211 -92t207 91t81 229
t-78 229q-78 92 -209 92t-214 -91t-83 -229z" />
    <glyph glyph-name="afii10067" unicode="&#x432;" horiz-adv-x="1026" 
d="M506 821h-156v-231h139q166 0 166 121q1 110 -149 110zM541 434h-191v-274h211q82 0 122 39t40 98q0 137 -182 137zM133 0v981h412q157 0 243 -62t86 -178q0 -72 -40 -128t-123 -78q121 -23 177 -89t56 -153q0 -133 -95 -213t-265 -80h-451z" />
    <glyph glyph-name="afii10068" unicode="&#x433;" horiz-adv-x="862" 
d="M842 981v-199h-480v-782h-229v981h709z" />
    <glyph glyph-name="afii10069" unicode="&#x434;" horiz-adv-x="1257" 
d="M850 199v583h-330l-18 -184q-16 -170 -43 -256t-78 -143h469zM31 -317v516h22q201 0 240 417l35 365h751v-782h148v-516h-226v317h-745v-317h-225z" />
    <glyph glyph-name="afii10070" unicode="&#x435;" horiz-adv-x="1128" 
d="M561 842q-111 0 -183 -72t-81 -172h530q-11 102 -83 173t-183 71zM1057 500q0 -47 -4 -68h-758q0 -115 87 -201t215 -86t210 111h235q-55 -127 -169 -209t-285 -82q-227 0 -375 151q-147 151 -147 375q0 223 136 373t368 149t359 -154q128 -153 128 -359z" />
    <glyph glyph-name="afii10072" unicode="&#x436;" horiz-adv-x="1456" 
d="M618 0v487l-356 -487h-268l395 516l-381 465h256l354 -442v442h222v-442l352 442h256l-381 -465l397 -516h-270l-354 487v-487h-222z" />
    <glyph glyph-name="afii10073" unicode="&#x437;" horiz-adv-x="933" 
d="M455 139q84 0 133 39t49 105q0 67 -50 105t-122 38h-113v164h119q66 0 107 35q40 35 40 90t-44 90t-112 35t-114 -29t-57 -82h-215q20 131 124 208t269 77q164 0 264 -75t101 -196q0 -180 -179 -233q91 -20 147 -82t56 -149q0 -141 -104 -229t-289 -87q-185 0 -291 79
t-125 222h217q10 -55 58 -90t131 -35z" />
    <glyph glyph-name="afii10074" unicode="&#x438;" horiz-adv-x="1177" 
d="M133 0v981h221v-377q0 -182 -6 -301h4q31 57 135 201l355 477h202v-981h-221v375q0 182 6 303h-4q-33 -59 -135 -201l-354 -477h-203z" />
    <glyph glyph-name="afii10075" unicode="&#x439;" horiz-adv-x="1177" 
d="M593 1161q-140 0 -232 87q-91 87 -97 229h162q6 -68 51 -107t118 -39t120 40t51 106h164q-8 -139 -102 -227t-235 -89zM133 0v981h221v-377q0 -182 -6 -301h4q31 57 135 201l355 477h202v-981h-221v375q0 182 6 303h-4q-33 -59 -135 -201l-354 -477h-203z" />
    <glyph glyph-name="afii10076" unicode="&#x43a;" horiz-adv-x="1062" 
d="M133 0v981h229v-434l410 434h268l-438 -465l451 -516h-279l-412 479v-479h-229z" />
    <glyph glyph-name="afii10077" unicode="&#x43b;" horiz-adv-x="1173" 
d="M1040 981v-981h-227v782h-356l-45 -487q-16 -168 -82 -239t-207 -70q-41 0 -98 12v188q33 -8 77 -8q88 0 99 144l59 659h780z" />
    <glyph glyph-name="afii10078" unicode="&#x43c;" horiz-adv-x="1415" 
d="M1186 981l176 -981h-211l-80 475q-27 174 -31 221h-6q-29 -127 -61 -221l-176 -475h-176l-179 485q-47 125 -63 211h-6q-16 -127 -29 -209l-82 -487h-209l180 981h230l194 -526q25 -66 50 -176h6q29 111 51 178l197 524h225z" />
    <glyph glyph-name="afii10079" unicode="&#x43d;" horiz-adv-x="1177" 
d="M1044 981v-981h-229v416h-453v-416h-229v981h229v-373h453v373h229z" />
    <glyph glyph-name="afii10080" unicode="&#x43e;" horiz-adv-x="1181" 
d="M299 492q0 -138 85 -230t210 -92t207 91t82 229t-80 229q-80 92 -212 92t-212 -90t-80 -229zM66 493q0 224 150 372q151 149 377 149q225 0 373 -148t148 -371q0 -222 -150 -376t-373 -154q-224 0 -375 152q-150 152 -150 376z" />
    <glyph glyph-name="afii10081" unicode="&#x43f;" horiz-adv-x="1177" 
d="M1044 981v-981h-229v782h-453v-782h-229v981h911z" />
    <glyph glyph-name="afii10082" unicode="&#x440;" horiz-adv-x="1236" 
d="M934 490q0 132 -78 226t-210 95q-132 0 -215 -90q-83 -91 -83 -233t85 -233t215 -91t208 97t78 229zM133 -481v1462h223v-125h6q133 156 333 156t337 -146t137 -376t-140 -377t-341 -147t-323 153h-7v-600h-225z" />
    <glyph glyph-name="afii10083" unicode="&#x441;" horiz-adv-x="1120" 
d="M588 1014q194 0 310 -100t142 -228h-235q-53 133 -219 133q-127 0 -206 -88t-79 -234q0 -147 81 -241t212 -94q162 0 225 147h238q-45 -150 -161 -247t-324 -97q-208 1 -357 147t-149 374t143 378t379 150z" />
    <glyph glyph-name="afii10084" unicode="&#x442;" horiz-adv-x="806" 
d="M784 981v-199h-266v-782h-227v782h-268v199h761z" />
    <glyph glyph-name="afii10085" unicode="&#x443;" horiz-adv-x="925" 
d="M934 981l-539 -1462h-219l180 485l-358 977h235l170 -487q53 -162 66 -226h6q29 115 66 226l166 487h227z" />
    <glyph glyph-name="afii10086" unicode="&#x444;" horiz-adv-x="1687" 
d="M1389 485q1 141 -55 237t-160 95q-104 0 -164 -85q-62 -84 -62 -238t60 -244t162 -90q101 0 160 92t59 233zM520 817q-100 0 -160 -92q-60 -91 -61 -237q0 -146 60 -237q59 -91 157 -91t162 87q63 87 63 241t-60 242q-61 87 -161 87zM731 883v592h225v-592h7
q90 129 258 129q169 0 283 -138t114 -378t-112 -385t-292 -146q-82 0 -148 36t-103 93h-7v-575h-225v577h-4q-106 -131 -256 -131q-182 -1 -292 145q-109 146 -109 378t114 378q115 145 299 146q75 0 141 -38t103 -91h4z" />
    <glyph glyph-name="afii10087" unicode="&#x445;" horiz-adv-x="1017" 
d="M27 0l358 498l-338 483h258l146 -219q28 -44 40 -70q13 -26 19 -35h6q25 49 55 99l142 225h256l-338 -477l356 -504h-266l-156 236q-23 39 -59 106h-6q-29 -51 -64 -109l-151 -233h-258z" />
    <glyph glyph-name="afii10088" unicode="&#x446;" horiz-adv-x="1222" 
d="M1044 199h148v-516h-229v317h-830v981h229v-782h453v782h229v-782z" />
    <glyph glyph-name="afii10089" unicode="&#x447;" horiz-adv-x="1116" 
d="M983 981v-981h-229v469h-4q-98 -156 -266 -156t-269 110q-100 110 -100 329v229h229v-215q0 -120 51 -184t147 -64t153 72q58 72 59 207v184h229z" />
    <glyph glyph-name="afii10090" unicode="&#x448;" horiz-adv-x="1734" 
d="M1602 0h-1469v981h229v-782h392v782h227v-782h391v782h230v-981z" />
    <glyph glyph-name="afii10091" unicode="&#x449;" horiz-adv-x="1779" 
d="M1520 0h-1387v981h229v-782h392v782h227v-782h391v782h230v-782h147v-516h-229v317z" />
    <glyph glyph-name="afii10092" unicode="&#x44a;" horiz-adv-x="1107" 
d="M524 981v-373h162q170 0 263 -78t93 -221t-92 -226t-254 -83h-401v782h-272v199h501zM666 434h-142v-260h142q74 0 110 37t37 94q0 129 -147 129z" />
    <glyph glyph-name="afii10093" unicode="&#x44b;" horiz-adv-x="1413" 
d="M1051 0v981h229v-981h-229zM362 608h162q170 0 263 -78t93 -221t-92 -226t-253 -83h-402v981h229v-373zM504 434h-142v-260h142q76 0 112 37t35 94q0 129 -147 129z" />
    <glyph glyph-name="afii10094" unicode="&#x44c;" horiz-adv-x="948" 
d="M362 608h162q170 0 263 -78t93 -221t-92 -226t-253 -83h-402v981h229v-373zM504 434h-142v-260h142q76 0 112 37t35 94q0 129 -147 129z" />
    <glyph glyph-name="afii10095" unicode="&#x44d;" horiz-adv-x="1112" 
d="M547 1014q215 0 357 -148t142 -376t-146 -376t-380 -149q-190 0 -308 94t-155 230h236q59 -143 225 -144q119 0 198 77t91 204h-422v164h418q-20 119 -96 181t-183 63q-168 0 -221 -123h-240q37 125 153 214t331 89z" />
    <glyph glyph-name="afii10096" unicode="&#x44e;" horiz-adv-x="1609" 
d="M727 492q0 -138 85 -230t210 -92t207 92t82 228t-80 229q-80 92 -211 92t-212 -90t-81 -229zM362 981v-377h148q35 182 175 296t352 114q211 0 359 -148t148 -371q0 -222 -150 -376t-364 -154q-215 0 -359 129t-167 328h-142v-422h-229v981h229z" />
    <glyph glyph-name="afii10097" unicode="&#x44f;" horiz-adv-x="966" 
d="M475 541h129v268h-129q-75 0 -111 -38t-36 -95q0 -135 147 -135zM604 379h-80l-243 -379h-252l278 401q-96 27 -152 99q-57 72 -57 194t93 204q93 83 262 83h381v-981h-230v379z" />
    <glyph glyph-name="uni0450" unicode="&#x450;" horiz-adv-x="1128" 
d="M303 1403l129 149l301 -290l-102 -123zM567 842q-111 0 -183 -72t-81 -172h531q-10 102 -83 173t-184 71zM1063 500q0 -47 -4 -68h-758q0 -115 87 -201t215 -86t210 111h236q-55 -127 -169 -209t-286 -82q-227 0 -375 151q-147 151 -147 375q0 223 136 373t368 149
t359 -154q128 -153 128 -359z" />
    <glyph glyph-name="afii10071" unicode="&#x451;" horiz-adv-x="1128" 
d="M643 1214v209h215v-209h-215zM274 1214v209h215v-209h-215zM567 842q-111 0 -183 -72t-81 -172h531q-10 102 -83 173t-184 71zM1063 500q0 -47 -4 -68h-758q0 -115 87 -201t215 -86t210 111h236q-55 -127 -169 -209t-286 -82q-227 0 -375 151q-147 151 -147 375
q0 223 136 373t368 149t359 -154q128 -153 128 -359z" />
    <glyph glyph-name="afii10099" unicode="&#x452;" horiz-adv-x="1159" 
d="M815 -109v662q0 125 -55 191t-161 67q-105 0 -171 -75t-66 -214v-522h-229v1155h-133v164h133v156h229v-156h318v-164h-318v-297h7q109 156 285 156t284 -112t106 -337v-657q0 -210 -89 -316t-255 -106q-92 0 -174 29v182q56 -21 138 -21t116 54t35 161z" />
    <glyph glyph-name="afii10100" unicode="&#x453;" horiz-adv-x="862" 
d="M313 1262l303 290l127 -149l-327 -264zM842 981v-199h-480v-782h-229v981h709z" />
    <glyph glyph-name="afii10101" unicode="&#x454;" horiz-adv-x="1120" 
d="M588 1014q192 0 310 -92t149 -211h-238q-55 123 -221 123q-106 0 -182 -62t-97 -182h414v-164h-418q14 -127 93 -204t196 -77q162 0 225 144h238q-45 -141 -161 -233t-324 -91t-357 147t-149 374t143 378t379 150z" />
    <glyph glyph-name="afii10102" unicode="&#x455;" horiz-adv-x="888" 
d="M446 848q-54 0 -88 -31t-32 -77q0 -46 40 -80t160 -74q285 -92 285 -314q0 -137 -97 -222t-265 -85t-261 84q-92 84 -106 227h213q18 -143 162 -143q63 0 99 34t36 89t-44 94t-161 80q-141 45 -209 118q-68 72 -68 190t91 197t243 79t240 -79t107 -206h-211q-8 53 -44 86
t-90 33z" />
    <glyph glyph-name="afii10103" unicode="&#x456;" horiz-adv-x="495" 
d="M121 1198v234h254v-234h-254zM133 0v981h229v-981h-229z" />
    <glyph glyph-name="afii10104" unicode="&#x457;" horiz-adv-x="495" 
d="M332 1214v209h215v-209h-215zM-37 1214v209h215v-209h-215zM139 0v981h230v-981h-230z" />
    <glyph glyph-name="afii10105" unicode="&#x458;" horiz-adv-x="495" 
d="M121 1198v234h254v-234h-254zM362 981v-1073q0 -214 -93 -318t-261 -104q-96 0 -186 29v192q80 -25 147 -24q164 0 164 217v1081h229z" />
    <glyph glyph-name="afii10106" unicode="&#x459;" horiz-adv-x="1538" 
d="M1096 434h-144v-260h144q74 0 110 37t37 94q0 129 -147 129zM952 981v-373h164q170 0 263 -78t93 -221t-92 -226t-254 -83h-401v782h-268l-45 -485q-16 -168 -82 -240t-207 -71q-41 0 -98 12v188q29 -8 75 -8q90 0 101 144l59 659h692z" />
    <glyph glyph-name="afii10107" unicode="&#x45a;" horiz-adv-x="1523" 
d="M1079 434h-141v-260h141q76 0 112 37t36 94q-1 129 -148 129zM938 608h162q170 0 263 -78t93 -221t-92 -226t-254 -83h-401v416h-347v-416h-229v981h229v-373h347v373h229v-373z" />
    <glyph glyph-name="afii10108" unicode="&#x45b;" horiz-adv-x="1159" 
d="M680 1155h-318v-297h7q109 156 285 156t284 -112t106 -337v-565h-229v553q0 125 -55 191t-161 67q-105 0 -171 -75t-66 -214v-522h-229v1155h-133v164h133v156h229v-156h318v-164z" />
    <glyph glyph-name="afii10109" unicode="&#x45c;" horiz-adv-x="1062" 
d="M369 1262l303 290l127 -149l-328 -264zM133 0v981h229v-434l410 434h268l-438 -465l451 -516h-279l-412 479v-479h-229z" />
    <glyph glyph-name="uni045D" unicode="&#x45d;" horiz-adv-x="1177" 
d="M338 1403l129 149l301 -290l-102 -123zM133 0v981h221v-377q0 -182 -6 -301h4q31 57 135 201l355 477h202v-981h-221v375q0 182 6 303h-4q-33 -59 -135 -201l-354 -477h-203z" />
    <glyph glyph-name="afii10110" unicode="&#x45e;" horiz-adv-x="925" 
d="M470 1161q-140 0 -231 87t-98 229h162q6 -68 51 -107t118 -39t120 40t51 106h164q-8 -139 -102 -227q-95 -88 -235 -89zM934 981l-539 -1462h-219l180 485l-358 977h235l170 -487q53 -162 66 -226h6q29 115 66 226l166 487h227z" />
    <glyph glyph-name="afii10193" unicode="&#x45f;" horiz-adv-x="1177" 
d="M1044 0h-342v-317h-227v317h-342v981h229v-782h453v782h229v-981z" />
    <glyph glyph-name="afii10050" unicode="&#x490;" horiz-adv-x="993" 
d="M735 1397v323h238v-536h-592v-1184h-238v1397h592z" />
    <glyph glyph-name="afii10098" unicode="&#x491;" horiz-adv-x="868" 
d="M842 1257v-475h-480v-782h-229v981h479v276h230z" />
    <glyph glyph-name="Wgrave" unicode="&#x1e80;" horiz-adv-x="1751" 
d="M621 1667l86 180l372 -198l-69 -146zM1126 0l-190 799q-39 166 -49 297h-8q-20 -164 -52 -291l-184 -805h-252l-366 1397h239l199 -819q27 -106 55 -267h8q25 150 56 285l188 801h231l195 -815q23 -94 53 -271h8q23 152 50 269l184 817h238l-345 -1397h-258z" />
    <glyph glyph-name="wgrave" unicode="&#x1e81;" horiz-adv-x="1454" 
d="M479 1403l129 149l301 -290l-102 -123zM887 0l-119 494q-33 152 -41 213h-8q-12 -102 -47 -254l-107 -453h-274l-252 981h225l131 -557q27 -121 39 -195h8q27 137 43 205l136 547h219l137 -555q12 -49 37 -197h6q14 102 35 195l135 557h225l-256 -981h-272z" />
    <glyph glyph-name="Wacute" unicode="&#x1e82;" horiz-adv-x="1751" 
d="M1057 1847l84 -180l-389 -164l-68 146zM1126 0l-190 799q-39 166 -49 297h-8q-20 -164 -52 -291l-184 -805h-252l-366 1397h239l199 -819q27 -106 55 -267h8q25 150 56 285l188 801h231l195 -815q23 -94 53 -271h8q23 152 50 269l184 817h238l-345 -1397h-258z" />
    <glyph glyph-name="wacute" unicode="&#x1e83;" horiz-adv-x="1454" 
d="M553 1262l303 290l127 -149l-328 -264zM887 0l-119 494q-33 152 -41 213h-8q-12 -102 -47 -254l-107 -453h-274l-252 981h225l131 -557q27 -121 39 -195h8q27 137 43 205l136 547h219l137 -555q12 -49 37 -197h6q14 102 35 195l135 557h225l-256 -981h-272z" />
    <glyph glyph-name="Wdieresis" unicode="&#x1e84;" horiz-adv-x="1751" 
d="M963 1583v209h215v-209h-215zM594 1583v209h215v-209h-215zM1126 0l-190 799q-39 166 -49 297h-8q-20 -164 -52 -291l-184 -805h-252l-366 1397h239l199 -819q27 -106 55 -267h8q25 150 56 285l188 801h231l195 -815q23 -94 53 -271h8q23 152 50 269l184 817h238
l-345 -1397h-258z" />
    <glyph glyph-name="wdieresis" unicode="&#x1e85;" horiz-adv-x="1454" 
d="M807 1214v209h215v-209h-215zM438 1214v209h215v-209h-215zM887 0l-119 494q-33 152 -41 213h-8q-12 -102 -47 -254l-107 -453h-274l-252 981h225l131 -557q27 -121 39 -195h8q27 137 43 205l136 547h219l137 -555q12 -49 37 -197h6q14 102 35 195l135 557h225l-256 -981
h-272z" />
    <glyph glyph-name="Ygrave" unicode="&#x1ef2;" horiz-adv-x="1167" 
d="M295 1667l86 180l373 -198l-70 -146zM465 0v561l-447 836h267l235 -457q49 -96 74 -168h4q18 49 76 166l225 459h252l-444 -834v-563h-242z" />
    <glyph glyph-name="ygrave" unicode="&#x1ef3;" horiz-adv-x="925" 
d="M215 1403l129 149l301 -290l-102 -123zM934 981l-539 -1462h-219l180 485l-358 977h235l170 -487q53 -162 66 -226h6q29 115 66 226l166 487h227z" />
    <glyph glyph-name="uni2010" unicode="&#x2010;" horiz-adv-x="956" 
d="M815 444h-659v193h659v-193z" />
    <glyph glyph-name="endash" unicode="&#x2013;" horiz-adv-x="1138" 
d="M983 444h-827v193h827v-193z" />
    <glyph glyph-name="emdash" unicode="&#x2014;" horiz-adv-x="2265" 
d="M2109 444h-1953v193h1953v-193z" />
    <glyph glyph-name="underscoredbl" unicode="&#x2017;" horiz-adv-x="1126" 
d="M0 -262v129h1126v-129h-1126zM0 -481v127h1126v-127h-1126z" />
    <glyph glyph-name="quoteleft" unicode="&#x2018;" horiz-adv-x="524" 
d="M397 1223v-254h-268v123q0 211 109 383h133q-68 -102 -78 -252h104z" />
    <glyph glyph-name="quoteright" unicode="&#x2019;" horiz-adv-x="524" 
d="M129 1221v254h266v-123q0 -211 -108 -383h-133q68 102 77 252h-102z" />
    <glyph glyph-name="quotesinglbase" unicode="&#x201a;" horiz-adv-x="524" 
d="M129 0v254h266v-123q0 -211 -108 -383h-133q68 102 77 252h-102z" />
    <glyph glyph-name="quotereversed" unicode="&#x201b;" horiz-adv-x="524" 
d="M397 1475v-254h-104q10 -150 78 -252h-133q-109 172 -109 383v123h268z" />
    <glyph glyph-name="quotedblleft" unicode="&#x201c;" horiz-adv-x="907" 
d="M778 1223v-254h-266v123q0 211 109 383h131q-63 -102 -78 -252h104zM397 1223v-254h-268v123q0 211 109 383h133q-68 -102 -78 -252h104z" />
    <glyph glyph-name="quotedblright" unicode="&#x201d;" horiz-adv-x="907" 
d="M129 1221v254h266v-123q0 -211 -108 -383h-133q68 102 77 252h-102zM510 1221v254h268v-123q0 -211 -108 -383h-133q68 102 77 252h-104z" />
    <glyph glyph-name="quotedblbase" unicode="&#x201e;" horiz-adv-x="907" 
d="M129 0v254h266v-123q0 -211 -108 -383h-133q68 102 77 252h-102zM510 0v254h268v-123q0 -211 -108 -383h-133q68 102 77 252h-104z" />
    <glyph glyph-name="dagger" unicode="&#x2020;" horiz-adv-x="923" 
d="M834 877l-291 30l28 -190l-28 -717h-162l-31 717l31 190l-289 -30v221l289 -29l-31 328h221l-28 -328l291 29v-221z" />
    <glyph glyph-name="daggerdbl" unicode="&#x2021;" horiz-adv-x="923" 
d="M565 309l-26 -309h-156l-25 309l25 156l-291 -27v209l291 -26l-25 155l25 158l-291 -27v207l291 -27l-25 310h207l-26 -310l295 27v-207l-295 27l26 -158l-26 -155l295 26v-209l-295 27z" />
    <glyph glyph-name="bullet" unicode="&#x2022;" horiz-adv-x="843" 
d="M135 623q0 119 83 203t201 83q118 0 204 -85q86 -84 86 -202t-86 -202t-204 -84t-201 84t-83 203z" />
    <glyph glyph-name="ellipsis" unicode="&#x2026;" horiz-adv-x="2060" 
d="M1569 0v276h286v-276h-286zM887 0v276h287v-276h-287zM205 0v276h287v-276h-287z" />
    <glyph glyph-name="perthousand" unicode="&#x2030;" horiz-adv-x="2342" 
d="M2081 346q0 227 -144 227q-61 0 -101 -56t-40 -169q0 -236 143 -235q61 0 102 56q40 56 40 177zM1618 338q0 196 98 294t226 97q128 0 223 -92q94 -92 94 -287q0 -297 -215 -377q-51 -18 -105 -18q-129 0 -225 94q-96 93 -96 289zM1358 346q0 227 -144 227
q-63 0 -103 -56t-40 -169q0 -236 146 -235q61 0 101 57t40 176zM895 338q0 196 97 294q98 98 226 97q128 0 222 -92t94 -287q0 -297 -215 -377q-51 -18 -105 -18q-129 0 -224 94q-95 93 -95 289zM549 1055q0 229 -143 229q-64 0 -104 -56t-40 -171q0 -236 146 -236
q61 1 101 59t40 175zM84 1048q0 196 98 294t228 98t222 -93q93 -93 93 -288q0 -111 -32 -193t-82 -123q-94 -77 -214 -77t-217 93q-96 93 -96 289zM1188 1397h186l-938 -1397h-188z" />
    <glyph glyph-name="minute" unicode="&#x2032;" horiz-adv-x="485" 
d="M238 1430l159 -54l-184 -514l-125 37z" />
    <glyph glyph-name="second" unicode="&#x2033;" horiz-adv-x="884" 
d="M637 1430l160 -54l-185 -514l-125 37zM238 1430l159 -54l-184 -514l-125 37z" />
    <glyph glyph-name="guilsinglleft" unicode="&#x2039;" horiz-adv-x="610" 
d="M106 508l263 424l143 -78l-180 -346l180 -346l-143 -80z" />
    <glyph glyph-name="guilsinglright" unicode="&#x203a;" horiz-adv-x="610" 
d="M504 506l-262 -424l-144 78l178 346l-178 348l144 78z" />
    <glyph glyph-name="exclamdbl" unicode="&#x203c;" horiz-adv-x="1050" 
d="M662 1397h251l-24 -983h-203zM666 0v229h243v-229h-243zM137 1397h252l-24 -983h-203zM141 0v229h244v-229h-244z" />
    <glyph glyph-name="uni203E" unicode="&#x203e;" horiz-adv-x="1126" 
d="M0 1546v178h1126v-178h-1126z" />
    <glyph glyph-name="fraction" unicode="&#x2044;" horiz-adv-x="393" 
d="M580 1397h180l-944 -1397h-183z" />
    <glyph glyph-name="zero.superior" unicode="&#x2070;" 
d="M575 1319q0 309 -161 309q-70 0 -116 -72t-46 -229q0 -328 164 -328q68 0 114 76t45 244zM57 1312q1 246 107 360t254 114t250 -110t102 -353q0 -369 -241 -462q-56 -22 -115 -21q-147 0 -252 112t-105 360z" />
    <glyph glyph-name="four.superior" unicode="&#x2074;" 
d="M455 1167v269q0 27 4 100h-6q-11 -23 -70 -117l-178 -252h250zM768 1024h-129v-154h-184v154h-410v137l414 598h180v-592h129v-143z" />
    <glyph glyph-name="five.superior" unicode="&#x2075;" 
d="M403 1456q147 0 235 -83t87 -215q0 -132 -88 -224q-89 -92 -237 -92t-229 76t-89 190h190q4 -47 37 -76q33 -28 89 -28t91 38t35 103q0 156 -180 155q-96 0 -205 -24l45 483h471v-160h-309l-18 -151q33 8 75 8z" />
    <glyph glyph-name="six.superior" unicode="&#x2076;" 
d="M246 1165q0 -76 47 -122t119 -46t120 47t48 121t-48 123t-120 49t-119 -48t-47 -124zM412 842q-160 0 -256 91t-97 239q0 148 129 309l230 278h198l-225 -278q23 8 70 8q135 -6 220 -97q85 -90 85 -226t-97 -230t-257 -94z" />
    <glyph glyph-name="seven.superior" unicode="&#x2077;" 
d="M719 1759v-143l-352 -746h-207l360 729h-411v160h610z" />
    <glyph glyph-name="eight.superior" unicode="&#x2078;" 
d="M741 1118q0 -116 -85 -196q-86 -80 -244 -80t-243 77t-85 195q0 172 160 234v2q-133 55 -133 190q0 106 82 176t219 70t219 -67t82 -153q0 -163 -135 -212v-4q163 -60 163 -232zM264 1130q0 -68 41 -108t109 -39q68 0 110 40q42 41 41 107q0 66 -42 108q-43 42 -109 42
t-108 -41t-42 -109zM412 1649q-57 0 -93 -33t-36 -89q1 -56 37 -91t94 -35t93 35q36 35 36 91t-37 89t-94 33z" />
    <glyph glyph-name="nine.superior" unicode="&#x2079;" 
d="M582 1462q0 78 -50 124t-120 46q-72 0 -119 -45t-47 -122t47 -125t121 -48t121 46t47 124zM766 1462q0 -145 -129 -313l-229 -279h-199l225 279q-25 -8 -69 -8q-137 4 -222 94q-84 90 -84 227q-1 136 99 230t258 94t254 -90t96 -234z" />
    <glyph glyph-name="nsuperior" unicode="&#x207f;" horiz-adv-x="907" 
d="M117 672v725h184v-90h4q78 115 206 115t208 -84q80 -83 80 -248v-418h-187v395q0 88 -37 136t-109 48t-117 -53q-46 -53 -46 -154v-372h-186z" />
    <glyph glyph-name="zero.inferior" unicode="&#x2080;" 
d="M575 90q0 309 -161 309q-70 1 -116 -71t-46 -230q0 -328 164 -327q68 -1 114 75t45 244zM57 83q1 247 107 361t254 113q148 0 250 -110t102 -353q0 -369 -241 -462q-56 -22 -115 -21q-147 1 -252 113t-105 359z" />
    <glyph glyph-name="one.inferior" unicode="&#x2081;" 
d="M334 -358v731h-139v157h327v-888h-188z" />
    <glyph glyph-name="two.inferior" unicode="&#x2082;" 
d="M115 -358v127l282 301q45 50 68 76q63 73 63 133q0 61 -31 91q-32 30 -83 29q-115 0 -121 -131h-187q4 127 84 208t224 81t227 -74q84 -74 84 -186q0 -80 -44 -151t-155 -185l-153 -158h364v-161h-622z" />
    <glyph glyph-name="three.inferior" unicode="&#x2083;" 
d="M410 557q142 0 220 -63q79 -63 79 -168q0 -72 -43 -124t-111 -71v-4q86 -21 135 -81t49 -164t-88 -186q-88 -83 -245 -83q-158 0 -240 75t-92 210h184q16 -135 148 -136q66 0 104 41t37 103q0 62 -42 102q-42 39 -124 39h-62v141h58q67 0 103 31t36 80t-30 79t-85 30
t-83 -33t-33 -80h-183q4 117 85 189t223 73z" />
    <glyph glyph-name="four.inferior" unicode="&#x2084;" 
d="M455 -61v268q0 25 4 98h-6q-21 -41 -70 -115l-176 -251h248zM768 -205h-129v-153h-184v153h-410v137l414 598h180v-591h129v-144z" />
    <glyph glyph-name="five.inferior" unicode="&#x2085;" 
d="M403 227q147 0 235 -83t87 -215q0 -132 -88 -224q-89 -92 -237 -92t-229 76t-89 190h190q4 -47 37 -76t89 -29t91 40q35 39 35 102q0 156 -180 156q-96 0 -205 -25l45 483h471v-159h-309l-18 -152q33 8 75 8z" />
    <glyph glyph-name="six.inferior" unicode="&#x2086;" 
d="M246 -63q0 -76 47 -122t119 -46t120 47t48 121q0 75 -48 123t-120 48t-119 -47q-47 -48 -47 -124zM766 -63q0 -135 -97 -229t-257 -95t-256 91t-97 240q0 148 129 308l230 278h198l-225 -278q23 8 70 8q135 -6 220 -97t85 -226z" />
    <glyph glyph-name="seven.inferior" unicode="&#x2087;" 
d="M719 530v-143l-352 -745h-207l360 729h-411v159h610z" />
    <glyph glyph-name="eight.inferior" unicode="&#x2088;" 
d="M741 -111q0 -117 -85 -197q-86 -80 -244 -79q-158 0 -243 77t-85 195q0 172 160 234v2q-133 55 -133 190q0 106 82 176t219 70t219 -67q82 -66 82 -152q0 -162 -135 -213v-4q163 -60 163 -232zM264 -98q0 -68 41 -108t109 -40t110 40t41 107q0 67 -42 109q-43 42 -109 41
t-108 -41t-42 -108zM412 420q-57 0 -93 -33t-36 -89q1 -56 37 -91t94 -35t93 35q36 35 36 91t-37 89t-94 33z" />
    <glyph glyph-name="nine.inferior" unicode="&#x2089;" 
d="M582 234q0 78 -50 124t-120 45q-72 0 -119 -45q-47 -46 -47 -122t47 -124t121 -48t121 46t47 124zM766 233q0 -145 -129 -313l-229 -278h-199l225 278q-25 -8 -69 -8q-137 4 -222 94q-84 90 -84 227q-1 137 99 231t258 93q158 1 254 -89t96 -235z" />
    <glyph glyph-name="franc" unicode="&#x20a3;" horiz-adv-x="1165" 
d="M733 233h-274v-233h-234v233h-168v183h168v981h807v-213h-573v-361h553v-205h-553v-202h274v-183z" />
    <glyph glyph-name="lira" unicode="&#x20a4;" horiz-adv-x="1165" 
d="M762 508h-248q2 -14 2 -37q0 -139 -90 -215q61 0 188 -45q143 -45 183 -45q102 0 108 166h219q-4 -176 -81 -276t-226 -101q-99 0 -259 54t-230 54q-117 0 -234 -69v203q96 31 150 103q53 73 53 151q0 20 -4 57h-221v154h190l-29 118h-161v156h129q-8 70 -8 117
q-1 167 109 279t308 112t314 -109t125 -278h-234q-2 84 -57 136t-141 52q-85 0 -137 -59t-52 -140t4 -110h330v-156h-301l26 -118h275v-154z" />
    <glyph glyph-name="peseta" unicode="&#x20a7;" horiz-adv-x="2564" 
d="M817 952q1 110 -67 176t-207 66h-158v-483h152q280 -1 280 241zM2124 848q-55 0 -88 -31t-33 -77t40 -80t163 -74q283 -92 282 -314q0 -137 -96 -222t-265 -85t-261 84t-107 227h213q23 -143 162 -143q63 0 99 34t36 89t-44 94t-161 80q-276 88 -276 303q0 123 91 202
t243 79t240 -79t108 -206h-211q-8 53 -44 86t-91 33zM143 0v1397h398q227 1 369 -105t151 -311h135v313h229v-313h246v-193h-246v-438q0 -96 32 -133q31 -37 91 -37t133 17v-187q-80 -23 -176 -22q-169 0 -239 91t-70 257v452h-164q-90 -279 -504 -278h-143v-510h-242z" />
    <glyph glyph-name="Euro" unicode="&#x20ac;" horiz-adv-x="1165" 
d="M864 -45q-264 0 -423 134t-216 366h-186l49 170h109q-2 23 -2 69t4 107h-138l50 172h122q63 217 227 343t396 126q135 0 258 -41l-53 -195q-98 33 -213 33t-216 -67t-151 -199h518l-49 -172h-510q-6 -47 -6 -89t4 -87h469l-49 -170h-383q47 -141 151 -218t238 -77
q135 0 260 43v-207q-127 -41 -260 -41z" />
    <glyph glyph-name="afii61289" unicode="&#x2113;" horiz-adv-x="1165" 
d="M760 1171q0 100 -70 101q-96 0 -96 -201v-278q166 198 166 378zM666 -31q-152 0 -222 92t-69 240v133l-109 -108l-86 92l195 194v424q0 197 80 301q80 105 207 105t183 -76t56 -190q0 -216 -239 -500q-31 -33 -68 -78v-268q0 -186 125 -187q67 0 151 84l88 -121
q-140 -137 -292 -137z" />
    <glyph glyph-name="afii61352" unicode="&#x2116;" horiz-adv-x="2244" 
d="M2136 0h-725v164h725v-164zM1565 680q0 -98 59 -160q58 -62 152 -61q94 0 153 60q59 59 59 153t-60 157t-152 63t-152 -56q-59 -58 -59 -156zM1380 675q0 173 113 279t285 106t284 -110q112 -112 111 -276q0 -164 -112 -276q-111 -112 -283 -112t-285 108t-113 281z
M358 752v-752h-215v1397h215l416 -631q174 -260 250 -406h4q-4 147 -4 273v764h213v-1397h-213l-397 600q-187 280 -269 430h-6q6 -209 6 -278z" />
    <glyph glyph-name="trademark" unicode="&#x2122;" horiz-adv-x="1236" 
d="M106 1280v117h365v-117h-119v-340h-129v340h-117zM934 1253h-6q-2 -5 -8 -35t-13 -53l-73 -225h-99l-65 211q-18 57 -27 102h-4q0 -47 -4 -94l-14 -219h-132l39 457h177l61 -191q18 -53 20 -71h2q18 61 23 73l59 189h174l35 -457h-129l-14 225q-2 45 -2 88z" />
    <glyph glyph-name="Omega" unicode="&#x2126;" horiz-adv-x="1552" 
d="M1470 782q0 -178 -93 -326t-261 -218v-27h357v-211h-578v322q150 42 239 162t89 304t-124 315q-124 130 -321 130q-198 0 -324 -130q-126 -131 -126 -315t89 -305t238 -161v-322h-575v211h354v27q-166 68 -260 215t-94 329q0 272 196 466q197 194 508 194q310 0 498 -190
t188 -470z" />
    <glyph glyph-name="estimated" unicode="&#x212e;" horiz-adv-x="1363" 
d="M1020 688v342q-143 139 -341 139t-333 -135v-346h674zM346 610v-420q141 -137 334 -137q283 0 453 279q8 -6 75 -47q-102 -154 -224 -232t-304 -78q-266 -1 -430 183t-164 454t163 452t436 183t434 -181t169 -456h-942z" />
    <glyph glyph-name="onethird" unicode="&#x2153;" horiz-adv-x="1988" 
d="M1874 684q0 -72 -43 -124t-111 -71v-4q184 -43 184 -245q0 -104 -87 -186q-88 -83 -245 -83t-240 75t-93 210h184q16 -135 148 -135q65 0 103 41t38 103q0 61 -42 101t-124 40h-61v141h57q66 0 103 31q37 32 37 80t-30 78t-85 30t-84 -33t-33 -80h-182q4 117 85 190
t222 73t220 -64q79 -63 79 -168zM1350 1397h180l-944 -1397h-183zM334 512v731h-139v158h327v-889h-188z" />
    <glyph glyph-name="twothirds" unicode="&#x2154;" horiz-adv-x="2058" 
d="M1942 684q0 -72 -44 -124t-110 -71v-4q86 -21 135 -81t49 -164t-88 -186q-88 -83 -245 -83t-239 75t-93 210h184q16 -135 147 -135q66 0 104 41t38 103q0 61 -42 101t-124 40h-62v141h58q66 0 102 31q36 32 37 80q0 48 -30 78t-85 30q-56 0 -84 -33t-32 -80h-183
q4 117 85 190t222 73q140 0 220 -64q80 -63 80 -168zM1419 1397h180l-944 -1397h-182zM115 512v127l282 301q45 49 68 76q63 74 63 134t-31 90q-32 30 -83 30q-115 0 -121 -131h-187q4 127 84 208t224 81t227 -74q84 -74 84 -187q0 -81 -44 -151t-155 -185l-153 -157h364
v-162h-622z" />
    <glyph glyph-name="oneeighth" unicode="&#x215b;" horiz-adv-x="1988" 
d="M1907 248q0 -117 -85 -197t-244 -80t-244 77t-85 196q0 172 160 233v2q-133 55 -133 191q0 106 82 176t219 70t219 -68q82 -66 82 -152q0 -162 -135 -213v-4q164 -59 164 -231zM1430 260q0 -68 40 -108t109 -39q68 0 110 40q42 41 42 107t-42 108t-109 42q-66 0 -108 -41
t-42 -109zM1448 656q0 -56 37 -91t94 -35t93 35t36 91t-37 89t-94 33t-93 -33t-36 -89zM1350 1397h180l-944 -1397h-183zM334 512v731h-139v158h327v-889h-188z" />
    <glyph glyph-name="threeeighths" unicode="&#x215c;" horiz-adv-x="2043" 
d="M1960 248q0 -117 -85 -197t-244 -80t-243 77t-85 196q0 172 159 233v2q-133 55 -133 191q0 106 82 176t219 70t219 -68q82 -66 82 -152q0 -162 -135 -213v-4q164 -59 164 -231zM1483 260q0 -68 41 -108q40 -40 108 -39q68 0 110 40q42 41 42 107t-42 108t-109 42
t-109 -41t-41 -109zM1501 656q0 -56 37 -91t94 -35t93 35t36 91t-37 89t-94 33t-93 -33t-36 -89zM1405 1397h180l-944 -1397h-182zM709 1196q0 -72 -43 -124t-111 -71v-4q86 -21 135 -81t49 -164t-88 -186q-88 -83 -245 -83q-158 0 -240 75t-92 210h184q16 -135 148 -135
q66 0 104 41t37 103q0 61 -42 101t-124 40h-62v141h58q67 0 103 31q36 32 36 80t-30 78t-85 30t-83 -33t-33 -80h-183q4 117 85 190t223 73t220 -64q79 -63 79 -168z" />
    <glyph glyph-name="fiveeighths" unicode="&#x215d;" horiz-adv-x="2043" 
d="M1960 248q0 -117 -85 -197t-244 -80t-243 77t-85 196q0 172 159 233v2q-133 55 -133 191q0 106 82 176t219 70t219 -68q82 -66 82 -152q0 -162 -135 -213v-4q164 -59 164 -231zM1483 260q0 -68 41 -108q40 -40 108 -39q68 0 110 40q42 41 42 107t-42 108t-109 42
t-109 -41t-41 -109zM1501 656q0 -56 37 -91t94 -35t93 35t36 91t-37 89t-94 33t-93 -33t-36 -89zM1405 1397h180l-944 -1397h-182zM403 1098q147 0 235 -83t87 -215q0 -132 -88 -224q-89 -92 -237 -93q-148 0 -229 76t-89 191h190q4 -47 37 -76t89 -29t91 39t35 102
q0 156 -180 156q-96 0 -205 -24l45 483h471v-160h-309l-18 -151q33 8 75 8z" />
    <glyph glyph-name="seveneighths" unicode="&#x215e;" horiz-adv-x="1949" 
d="M1868 248q0 -117 -85 -197t-244 -80t-244 77t-85 196q0 172 160 233v2q-133 55 -133 191q0 106 82 176t219 70t219 -68q82 -66 82 -152q0 -162 -135 -213v-4q164 -59 164 -231zM1391 260q0 -68 41 -108q40 -40 108 -39q68 0 110 40q42 41 42 107t-42 108t-109 42
t-109 -41t-41 -109zM1409 656q0 -56 37 -91t94 -35t93 35t36 91t-37 89t-94 33t-93 -33t-36 -89zM1305 1397h180l-944 -1397h-183zM719 1401v-144l-352 -745h-207l360 729h-411v160h610z" />
    <glyph glyph-name="partialdiff" unicode="&#x2202;" horiz-adv-x="1292" 
d="M700 848q-145 0 -251 -137t-107 -334q0 -101 53 -163t142 -62q135 0 239 148t148 382q-20 72 -78 119t-146 47zM1184 952q0 -197 -51 -383q-72 -258 -228 -425t-377 -167q-184 0 -300 114t-115 296q0 285 167 452t379 167q103 0 181 -42t110 -104h4q8 37 9 117
q0 158 -75 247t-201 89t-228 -60q-27 84 -51 152q118 80 322 80q204 -1 329 -143t125 -390z" />
    <glyph glyph-name="Delta" unicode="&#x2206;" horiz-adv-x="1335" 
d="M582 883l-252 -684h669l-247 686q-43 119 -78 241h-10q-37 -126 -82 -243zM14 0l555 1397h222l530 -1397h-1307z" />
    <glyph glyph-name="product" unicode="&#x220f;" horiz-adv-x="1562" 
d="M1391 -481h-238v1665h-743v-1665h-238v1878h1219v-1878z" />
    <glyph glyph-name="summation" unicode="&#x2211;" horiz-adv-x="1368" 
d="M1286 -481h-1237v153l639 797l-592 764v164h1137v-209h-815l553 -715l-596 -745h911v-209z" />
    <glyph glyph-name="minus" unicode="&#x2212;" horiz-adv-x="1376" 
d="M1217 449h-1057v184h1057v-184z" />
    <glyph glyph-name="uni2215" unicode="&#x2215;" horiz-adv-x="393" 
d="M580 1397h180l-944 -1397h-183z" />
    <glyph glyph-name="uni2219" unicode="&#x2219;" horiz-adv-x="524" 
d="M125 584v276h289v-276h-289z" />
    <glyph glyph-name="radical" unicode="&#x221a;" horiz-adv-x="1202" 
d="M162 563q-13 19 -66 115q135 87 279 174q139 -307 284 -637q20 68 373 1260h158q-430 -1446 -447 -1500h-165q-92 210 -295 660q-16 -8 -121 -72z" />
    <glyph glyph-name="infinity" unicode="&#x221e;" horiz-adv-x="1769" 
d="M285 592q0 -88 57 -146t147 -57q169 0 302 205q-59 92 -139 147t-171 55q-90 0 -143 -58t-53 -146zM1270 389q100 -1 152 59t53 147t-53 144t-156 58q-160 0 -297 -203q125 -205 301 -205zM1655 600q1 -158 -103 -262t-268 -105q-121 -1 -226 63t-175 169h-6
q-71 -102 -175 -167t-223 -65q-166 -1 -269 99q-104 100 -104 261t104 261t265 100q246 0 402 -235h6q164 236 395 235q166 0 272 -98t105 -256z" />
    <glyph glyph-name="integral" unicode="&#x222b;" horiz-adv-x="1060" 
d="M408 1128q0 388 350 390q112 0 188 -33l-45 -191q-45 20 -102 21q-156 0 -156 -180v-1207q0 -193 -91 -296t-255 -103q-104 0 -195 33l48 192q61 -20 106 -20q152 0 152 174v1220z" />
    <glyph glyph-name="approxequal" unicode="&#x2248;" horiz-adv-x="1376" 
d="M453 281q-109 0 -211 -134l-133 136q147 193 340 192q121 -1 251 -71t230 -70q101 0 203 135l135 -139q-147 -188 -346 -189q-127 0 -255 70t-214 70zM442 750q-98 0 -200 -136l-133 138q73 90 151 140t198 50t248 -71t214 -70q115 0 213 135l135 -137
q-145 -190 -346 -191q-127 0 -254 68q-128 74 -226 74z" />
    <glyph glyph-name="notequal" unicode="&#x2260;" horiz-adv-x="1376" 
d="M1219 862v-182h-353l-145 -272h498v-185h-590l-140 -252h-210l139 252h-262v185h354l145 272h-499v182h585l148 262h209l-146 -262h267z" />
    <glyph glyph-name="lessequal" unicode="&#x2264;" horiz-adv-x="1376" 
d="M1217 281l-1057 415v160l1057 416v-205l-756 -289v-4l756 -287v-206zM1217 0h-1057v184h1057v-184z" />
    <glyph glyph-name="greaterequal" unicode="&#x2265;" horiz-adv-x="1376" 
d="M1217 696l-1057 -415v206l755 287v4l-755 289v205l1057 -416v-160zM1217 0h-1057v184h1057v-184z" />
    <glyph glyph-name="lozenge" unicode="&#x25ca;" horiz-adv-x="1226" 
d="M600 207l324 491l-324 492l-321 -492zM645 1397l463 -699l-463 -698h-90l-461 696l461 701h90z" />
    <glyph glyph-name="f_i" unicode="&#xf001;" horiz-adv-x="1161" 
d="M786 1198v234h254v-234h-254zM799 0v981h229v-981h-229zM43 788v193h139v162q0 166 86 254t248 88q88 0 150 -19v-188q-61 16 -111 16q-143 0 -143 -155v-158h219v-193h-219v-788h-230v788h-139z" />
    <glyph glyph-name="f_l" unicode="&#xf002;" horiz-adv-x="1167" 
d="M805 0v1475h229v-1475h-229zM43 788v193h139v162q0 166 86 254t248 88q88 0 150 -19v-188q-61 16 -111 16q-143 0 -143 -155v-158h219v-193h-219v-788h-230v788h-139z" />
    <glyph glyph-name="uniF8FF" unicode="&#xf8ff;" horiz-adv-x="1024" 
d="M842 98l-330 496l-332 -496h662zM901 1178l-332 -496l332 -498v994zM123 1178v-992q82 125 246 371l84 125zM180 1266l332 -498l330 498h-662zM25 0v1362h972v-1362h-972z" />
    <glyph glyph-name="dollar.oldstyle" horiz-adv-x="1060" 
d="M442 1280h185v-137q129 -23 205 -101t83 -188h-208q-7 66 -55 102t-127 35q-79 0 -121 -36t-42 -93t48 -92t210 -89q326 -108 326 -353q0 -123 -84 -211t-235 -111v-151h-185v149q-156 20 -238 104t-87 218h209q12 -168 211 -168q88 0 138 42t50 116t-53 116
q-54 43 -208 95t-238 130q-83 78 -83 195t81 195t218 98v135z" />
    <glyph glyph-name="zero.oldstyle" horiz-adv-x="1292" 
d="M301 523q0 -159 100 -261t250 -102t245 102t95 259t-93 261t-250 104t-252 -102t-95 -261zM59 524q0 244 169 407t420 163t418 -163t167 -405t-168 -408t-418 -167q-250 1 -419 165t-169 408z" />
    <glyph glyph-name="one.oldstyle" horiz-adv-x="786" 
d="M322 0v838h-246v211h481v-1049h-235z" />
    <glyph glyph-name="two.oldstyle" horiz-adv-x="1128" 
d="M111 0v174l391 256q135 90 182 148t47 136q0 77 -45 125t-128 48t-134 -48t-53 -132h-240q10 176 120 281q110 106 306 106t308 -102t112 -236q-1 -136 -61 -229t-216 -195l-196 -129h538v-203h-931z" />
    <glyph glyph-name="three.oldstyle" horiz-adv-x="1140" 
d="M973 731q0 -100 -55 -175t-144 -105v-7q133 -39 205 -141t72 -250q-1 -197 -143 -327t-355 -129q-213 -1 -343 117t-147 313h234q10 -103 82 -167q73 -64 177 -64t178 72q74 74 75 194q0 120 -78 193t-211 73h-82v194h88q94 0 150 51q55 51 55 133t-48 134
q-48 51 -129 51t-128 -51t-51 -129h-234q4 174 119 277q115 104 300 104t299 -102t114 -259z" />
    <glyph glyph-name="four.oldstyle" horiz-adv-x="1230" 
d="M733 246v379q0 49 4 155h-6q-32 -70 -110 -164l-312 -370h424zM1155 43h-192v-399h-230v399h-665v188l680 818h215v-803h192v-203z" />
    <glyph glyph-name="five.oldstyle" horiz-adv-x="1126" 
d="M501 346q-157 0 -339 -53l76 756h733v-211h-525l-34 -308q80 18 155 19q233 0 365 -128t133 -334q0 -206 -135 -348t-352 -142q-217 -1 -341 123t-139 321h236q8 -106 70 -174t169 -68t179 75t72 201q0 127 -84 199q-82 72 -239 72z" />
    <glyph glyph-name="six.oldstyle" horiz-adv-x="1200" 
d="M319 462q0 -130 81 -215t200 -85t200 84t81 213t-79 215t-203 86t-202 -84t-78 -214zM78 461q0 117 44 221t128 225l350 490h262l-323 -449q43 16 114 17q193 1 331 -143t138 -358t-149 -362q-150 -147 -377 -147t-373 142q-145 143 -145 364z" />
    <glyph glyph-name="seven.oldstyle" horiz-adv-x="1097" 
d="M995 1049v-193l-583 -1212h-258l594 1194h-660v211h907z" />
    <glyph glyph-name="eight.oldstyle" horiz-adv-x="1204" 
d="M412 1057q0 -82 53 -133q53 -52 137 -52t136 52t52 134q0 81 -52 133q-54 52 -136 52t-136 -52t-54 -134zM864 415q0 119 -74 195t-189 76t-189 -76t-74 -194q0 -119 79 -192q79 -72 187 -72t184 72t76 191zM176 1073q0 164 119 266q119 103 308 103t306 -102t117 -267
q0 -94 -47 -169t-125 -111v-5q114 -43 184 -146t70 -232q0 -205 -137 -332t-369 -127t-370 126t-138 333q0 129 71 231t183 147v5q-76 37 -124 113t-48 167z" />
    <glyph glyph-name="nine.oldstyle" horiz-adv-x="1200" 
d="M881 587q0 130 -81 215t-200 85t-200 -84t-81 -213t79 -215t203 -86t202 84t78 214zM1122 587q0 -222 -219 -509l-323 -434h-263l345 456q-43 -16 -119 -16q-203 4 -334 147t-131 355t149 360q150 148 377 148q226 0 372 -142t146 -365z" />
    <glyph glyph-name="cent.oldstyle" horiz-adv-x="1089" 
d="M315 526q0 -102 41 -175t119 -99v543q-76 -25 -118 -96t-42 -173zM647 -158h-172v213q-169 27 -277 153t-108 311t104 315t281 155v180h172v-178q143 -23 235 -115q91 -93 117 -223h-219q-35 111 -133 142v-545q111 37 141 160h220q-35 -138 -127 -234t-234 -121v-213z
" />
    <glyph glyph-name="commaaccent" horiz-adv-x="663" 
d="M221 -313v186h217v-113q0 -147 -69 -249h-117q49 72 53 176h-84z" />
    <glyph glyph-name="zero.fitted" horiz-adv-x="1181" 
d="M590 162q122 0 198 132t76 404t-71 404q-72 133 -196 133t-201 -128q-77 -127 -77 -403t75 -409t196 -133zM78 699q0 201 46 348t123 230q153 165 350 165t343 -154q76 -80 121 -227t45 -335t-35 -328q-35 -138 -88 -219t-124 -134q-121 -90 -265 -90q-194 0 -345 155
q-79 80 -125 234t-46 355z" />
    <glyph glyph-name="one.fitted" horiz-adv-x="823" 
d="M326 0v1186h-211v211h446v-1397h-235z" />
    <glyph glyph-name="two.fitted" horiz-adv-x="1132" 
d="M145 0v188l430 482q99 110 151 198t52 173t-52 139t-141 55q-89 0 -145 -61t-55 -162h-242q4 188 123 309t322 121q202 0 318 -110t116 -275q0 -131 -69 -249t-218 -280l-295 -317h604v-211h-899z" />
    <glyph glyph-name="three.fitted" horiz-adv-x="1150" 
d="M568 1442q196 0 313 -102t116 -261q-1 -117 -71 -199t-170 -112v-4q131 -27 210 -123t78 -244q0 -184 -126 -312t-348 -128q-224 0 -345 115t-133 301h236q12 -97 75 -157t167 -60t169 70q66 70 66 178t-72 177t-213 68h-82v197h82q106 0 171 57t65 143t-49 141
q-49 54 -143 54t-143 -53q-48 -53 -54 -131h-236q8 165 124 275q117 110 313 110z" />
    <glyph glyph-name="four.fitted" horiz-adv-x="1171" 
d="M692 494v430q0 106 2 163h-6q-37 -73 -100 -167l-293 -426h397zM1102 291h-178v-291h-232v291h-618v192l622 914h228v-903h178v-203z" />
    <glyph glyph-name="five.fitted" horiz-adv-x="1146" 
d="M545 905q225 0 360 -124t135 -329t-132 -351t-350 -146t-343 116t-137 287h248q12 -84 70 -138t160 -54t169 71q68 71 68 193t-78 195q-140 129 -553 26l71 746h711v-211h-502l-30 -297q61 16 133 16z" />
    <glyph glyph-name="six.fitted" horiz-adv-x="1204" 
d="M601 760q-123 0 -201 -84t-78 -215t80 -215t199 -84q120 0 201 84t81 213t-79 215t-203 86zM80 452q0 212 172 455l350 490h262l-323 -449q39 16 110 17q201 1 337 -145t136 -358t-149 -360q-150 -147 -377 -147t-373 142q-145 143 -145 355z" />
    <glyph glyph-name="seven.fitted" horiz-adv-x="1005" 
d="M952 1397v-197l-561 -1200h-258l574 1186h-646v211h891z" />
    <glyph glyph-name="eight.fitted" horiz-adv-x="1177" 
d="M1073 389q0 -182 -125 -307t-357 -125t-360 122q-127 122 -127 300q0 268 250 369v4q-207 86 -207 309q0 161 122 271t320 110q197 0 319 -110t122 -263q0 -117 -56 -201t-149 -116v-4q248 -89 248 -359zM346 399q0 -106 69 -175q69 -68 177 -68t176 64t68 176t-68 181
t-176 69t-176 -71q-70 -70 -70 -176zM381 1040q0 -90 62 -150q61 -60 149 -60t146 58q58 60 58 151t-58 147q-60 56 -148 57q-88 0 -149 -56q-60 -57 -60 -147z" />
    <glyph glyph-name="nine.fitted" horiz-adv-x="1204" 
d="M883 936q0 131 -81 215t-201 84t-200 -84q-79 -84 -79 -213t78 -215t202 -86q125 0 203 84t78 215zM1124 946q0 -211 -174 -457l-350 -489h-260l324 449q-43 -16 -119 -17q-203 4 -334 148t-131 355q0 212 149 359q150 148 376 148q227 0 373 -142t146 -354z" />
    <glyph glyph-name="percent.oldstyle" horiz-adv-x="1724" 
d="M1149 298q0 -83 45 -132t114 -49q68 0 114 49t46 132t-46 133t-114 50t-114 -50q-45 -50 -45 -133zM965 298q0 151 99 245q100 94 244 94t242 -94t98 -245t-98 -245t-242 -94t-244 94q-99 94 -99 245zM256 862q0 -82 46 -131t115 -49t113 49t45 131q0 82 -45 132
q-46 50 -114 50t-114 -50t-46 -132zM74 862q0 150 99 244t243 94t243 -94t99 -244t-98 -245t-243 -95q-144 0 -244 95q-99 95 -99 245zM1186 1159h182l-833 -1159h-183z" />
    <glyph glyph-name="perthousand.oldstyle" horiz-adv-x="2521" 
d="M2104 481q-70 0 -114 -50t-44 -133t45 -132t113 -49t115 49q46 49 46 132t-46 133t-115 50zM2104 -41q-144 0 -242 94t-99 245q1 151 99 245t243 94t243 -94t99 -245q0 -151 -99 -245q-100 -94 -244 -94zM1149 298q0 -83 45 -132t114 -49q68 0 114 49t46 132t-46 133
t-114 50t-114 -50q-45 -50 -45 -133zM965 298q0 151 99 245q100 94 244 94t242 -94t98 -245t-98 -245t-242 -94t-244 94q-99 94 -99 245zM256 862q0 -82 46 -131t115 -49t113 49t45 131q0 82 -45 132q-46 50 -114 50t-114 -50t-46 -132zM74 862q0 150 99 244t243 94t243 -94
t99 -244t-98 -245t-243 -95q-144 0 -244 95q-99 95 -99 245zM1186 1159h182l-833 -1159h-183z" />
    <glyph glyph-name="zero.taboldstyle" horiz-adv-x="1165" 
d="M301 523q0 -163 80 -263t205 -100q124 0 200 100t76 261t-75 263t-205 102t-205 -100q-76 -100 -76 -263zM59 524q1 254 149 412t376 158t374 -158t146 -410t-146 -414t-374 -161q-227 -1 -376 159t-149 414z" />
    <glyph glyph-name="one.taboldstyle" horiz-adv-x="1165" 
d="M506 0v838h-248v211h481v-1049h-233z" />
    <glyph glyph-name="two.taboldstyle" horiz-adv-x="1165" 
d="M133 0v174l381 256q133 90 180 150t47 135q0 76 -44 124t-124 48t-129 -47t-51 -129h-237q8 174 116 278q108 105 302 105t303 -100t109 -237t-62 -231q-61 -94 -213 -194l-197 -129h537v-203h-918z" />
    <glyph glyph-name="three.taboldstyle" horiz-adv-x="1165" 
d="M1067 53q0 -197 -141 -327q-140 -130 -354 -129q-214 -1 -345 117t-145 313h233q10 -103 81 -167q70 -64 176 -64t180 72t74 192t-78 194t-209 74h-84v194h90q94 0 149 51q56 51 56 133t-50 134q-50 51 -129 51q-80 0 -127 -51t-51 -129h-235q6 174 121 277
q115 104 299 104t300 -102q114 -102 113 -259q0 -100 -55 -175t-143 -105v-7q133 -39 203 -141t71 -250z" />
    <glyph glyph-name="four.taboldstyle" horiz-adv-x="1165" 
d="M705 246v379q0 49 4 155h-7q-40 -86 -110 -170l-293 -364h406zM1116 43h-182v-399h-229v399h-639v188l657 818h211v-803h182v-203z" />
    <glyph glyph-name="five.taboldstyle" horiz-adv-x="1165" 
d="M834 75q0 127 -84 199t-240 72t-338 -53l76 756h733v-211h-524l-35 -308q80 18 156 19q233 0 365 -128t132 -334t-135 -348t-352 -142q-217 1 -341 125t-138 319h235q8 -106 70 -174t170 -68q106 0 178 75t72 201z" />
    <glyph glyph-name="six.taboldstyle" horiz-adv-x="1165" 
d="M303 461q0 -131 80 -215t200 -84q119 0 199 84t80 213t-78 215t-202 86t-201 -84q-78 -84 -78 -215zM1104 463q0 -213 -148 -361t-376 -147q-227 1 -373 143t-146 354t172 455l349 490h262l-324 -449q43 16 113 17q201 -1 336 -145t135 -357z" />
    <glyph glyph-name="seven.taboldstyle" horiz-adv-x="1165" 
d="M1028 1049v-195l-557 -1210h-260l573 1194h-649v211h893z" />
    <glyph glyph-name="eight.taboldstyle" horiz-adv-x="1165" 
d="M391 1057q0 -82 53 -133q54 -52 138 -52t137 52t53 134q0 81 -54 133t-136 52t-136 -52t-55 -134zM846 416q0 118 -75 194t-189 76t-190 -76q-75 -76 -75 -194q0 -119 79 -192q79 -72 188 -72q110 0 186 72t76 192zM156 1073q0 164 118 266q118 103 308 103t308 -102
t118 -267q0 -94 -48 -169t-126 -111v-5q116 -43 186 -146t70 -232q0 -205 -138 -332t-370 -127q-231 0 -369 126q-137 126 -137 333q0 129 69 231q70 102 183 147v5q-76 37 -124 113t-48 167z" />
    <glyph glyph-name="nine.taboldstyle" horiz-adv-x="1165" 
d="M583 289q123 0 201 84t78 214t-81 215t-199 85t-200 -84q-81 -84 -81 -213t79 -215t203 -86zM1104 587q0 -222 -219 -509l-324 -434h-262l344 456q-43 -16 -119 -16q-203 4 -334 147t-131 355t150 360t377 148q226 0 372 -142t146 -365z" />
    <glyph glyph-name="zero.denominator" 
d="M575 449q0 309 -161 309q-70 0 -116 -72t-46 -229q0 -328 164 -328q68 0 114 76t45 244zM57 442q1 246 107 360t254 114t250 -110t102 -353q0 -139 -35 -239t-92 -152q-106 -94 -241 -93q-135 0 -240 113t-105 360z" />
    <glyph glyph-name="one.denominator" 
d="M334 0v731h-139v158h327v-889h-188z" />
    <glyph glyph-name="two.denominator" 
d="M115 0v127l282 301q45 49 68 76q63 74 63 134t-31 90q-32 30 -83 30q-115 0 -121 -131h-187q4 127 84 208t224 81t227 -74q84 -74 84 -187q0 -81 -44 -151t-155 -185l-153 -157h364v-162h-622z" />
    <glyph glyph-name="three.denominator" 
d="M709 684q0 -72 -43 -124t-111 -71v-4q86 -21 135 -81t49 -164t-88 -186q-88 -83 -245 -83q-158 0 -240 75t-92 210h184q16 -135 148 -135q66 0 104 41t37 103q0 61 -42 101t-124 40h-62v141h58q67 0 103 31q36 32 36 80t-30 78t-85 30t-83 -33t-33 -80h-183q4 117 85 190
t223 73t220 -64q79 -63 79 -168z" />
    <glyph glyph-name="four.denominator" 
d="M455 297v268q0 25 4 99h-6q-21 -41 -70 -115l-176 -252h248zM768 154h-129v-154h-184v154h-410v137l414 598h180v-592h129v-143z" />
    <glyph glyph-name="five.denominator" 
d="M403 586q147 0 235 -83t87 -215q0 -132 -88 -224q-89 -92 -237 -93q-148 0 -229 76t-89 191h190q4 -47 37 -76t89 -29t91 39t35 102q0 156 -180 156q-96 0 -205 -24l45 483h471v-160h-309l-18 -151q33 8 75 8z" />
    <glyph glyph-name="six.denominator" 
d="M246 295q0 -76 47 -122t119 -46t120 47t48 121t-48 123t-120 49t-119 -48t-47 -124zM59 302q0 148 129 308l230 279h198l-225 -279q23 8 70 8q135 -6 220 -97t85 -226t-97 -229t-257 -94t-256 90q-96 92 -97 240z" />
    <glyph glyph-name="seven.denominator" 
d="M719 889v-144l-352 -745h-207l360 729h-411v160h610z" />
    <glyph glyph-name="eight.denominator" 
d="M741 248q0 -117 -85 -197q-86 -80 -244 -80t-243 77t-85 196q0 172 160 233v2q-133 55 -133 191q0 106 82 176t219 70t219 -68q82 -66 82 -152q0 -162 -135 -213v-4q163 -59 163 -231zM264 260q0 -68 41 -108t109 -39q68 0 110 40q42 41 41 107q0 66 -42 108
q-43 42 -109 42t-108 -41t-42 -109zM412 778q-57 0 -93 -33t-36 -89q1 -56 37 -91t94 -35t93 35q36 35 36 91t-37 89t-94 33z" />
    <glyph glyph-name="nine.denominator" 
d="M582 592q0 78 -50 124t-120 46q-72 0 -119 -45t-47 -122t47 -125t121 -48t121 46t47 124zM766 592q0 -145 -129 -313l-229 -279h-199l225 279q-25 -8 -69 -9q-137 4 -221 94t-85 228q-1 137 99 230t258 93t254 -89t96 -234z" />
    <glyph glyph-name="zero.numerator" 
d="M575 961q0 309 -161 309q-70 0 -116 -72t-46 -229q0 -328 164 -328q68 0 114 76t45 244zM57 954q1 246 107 360t254 114t250 -110t102 -353q0 -139 -35 -239t-92 -152q-106 -94 -241 -93q-135 0 -240 113t-105 360z" />
    <glyph glyph-name="one.numerator" 
d="M334 512v731h-139v158h327v-889h-188z" />
    <glyph glyph-name="two.numerator" 
d="M115 512v127l282 301q45 49 68 76q63 74 63 134t-31 90q-32 30 -83 30q-115 0 -121 -131h-187q4 127 84 208t224 81t227 -74q84 -74 84 -187q0 -81 -44 -151t-155 -185l-153 -157h364v-162h-622z" />
    <glyph glyph-name="three.numerator" 
d="M709 1196q0 -72 -43 -124t-111 -71v-4q86 -21 135 -81t49 -164t-88 -186q-88 -83 -245 -83q-158 0 -240 75t-92 210h184q16 -135 148 -135q66 0 104 41t37 103q0 61 -42 101t-124 40h-62v141h58q67 0 103 31q36 32 36 80t-30 78t-85 30t-83 -33t-33 -80h-183
q4 117 85 190t223 73t220 -64q79 -63 79 -168z" />
    <glyph glyph-name="four.numerator" 
d="M455 809v268q0 27 4 101h-6q-11 -23 -70 -117l-178 -252h250zM768 666h-129v-154h-184v154h-410v137l414 598h180v-592h129v-143z" />
    <glyph glyph-name="five.numerator" 
d="M403 1098q147 0 235 -83t87 -215q0 -132 -88 -224q-89 -92 -237 -93q-148 0 -229 76t-89 191h190q4 -47 37 -76t89 -29t91 39t35 102q0 156 -180 156q-96 0 -205 -24l45 483h471v-160h-309l-18 -151q33 8 75 8z" />
    <glyph glyph-name="six.numerator" 
d="M246 807q0 -76 47 -122t119 -46t120 47t48 121t-48 123t-120 49t-119 -48t-47 -124zM59 814q0 148 129 308l230 279h198l-225 -279q23 8 70 8q135 -6 220 -97t85 -226t-97 -229t-257 -94t-256 90q-96 92 -97 240z" />
    <glyph glyph-name="seven.numerator" 
d="M719 1401v-144l-352 -745h-207l360 729h-411v160h610z" />
    <glyph glyph-name="eight.numerator" 
d="M741 760q0 -117 -85 -197q-86 -80 -244 -80t-243 77t-85 196q0 172 160 233v2q-133 55 -133 191q0 106 82 176t219 70t219 -68q82 -66 82 -152q0 -162 -135 -213v-4q163 -59 163 -231zM264 772q0 -68 41 -108t109 -39q68 0 110 40q42 41 41 107q0 66 -42 108
q-43 42 -109 42t-108 -41t-42 -109zM412 1290q-57 0 -93 -33t-36 -89q1 -56 37 -91t94 -35t93 35q36 35 36 91t-37 89t-94 33z" />
    <glyph glyph-name="nine.numerator" 
d="M582 1104q0 78 -50 124t-120 46q-72 0 -119 -45t-47 -122t47 -125t121 -48t121 46t47 124zM766 1104q0 -145 -129 -313l-229 -279h-199l225 279q-25 -8 -69 -9q-137 4 -221 94t-85 228q-1 137 99 230t258 93t254 -89t96 -234z" />
    <glyph glyph-name="parenleft.cap" horiz-adv-x="704" 
d="M137 651q0 260 78 519t234 462h221q-158 -200 -233 -458t-75 -522t75 -525q75 -260 233 -457h-221q-156 199 -234 460t-78 521z" />
    <glyph glyph-name="parenright.cap" horiz-adv-x="704" 
d="M342 650q0 264 -76 524t-233 458h223q156 -201 234 -461t77 -520q1 -260 -77 -520t-234 -461h-223q158 199 233 457q76 258 76 523z" />
    <glyph glyph-name="bracketleft.cap" horiz-adv-x="747" 
d="M616 1602v-189h-217v-1524h217v-188h-428v1901h428z" />
    <glyph glyph-name="bracketright.cap" horiz-adv-x="747" 
d="M131 1413v189h428v-1901h-428v188h217v1524h-217z" />
    <glyph glyph-name="braceleft.cap" horiz-adv-x="782" 
d="M512 1294v-381q0 -87 -43 -159t-125 -105v-4q78 -27 123 -99t45 -179v-363q0 -160 143 -162v-172q-164 2 -261 89t-97 241v393q0 72 -45 120t-125 54v164q80 4 125 53t45 119v393q0 156 88 244t270 90v-174q-143 -2 -143 -162z" />
    <glyph glyph-name="braceright.cap" horiz-adv-x="782" 
d="M483 1296v-393q0 -70 45 -119t125 -53v-164q-80 -6 -125 -54t-45 -120v-393q0 -154 -96 -241t-260 -89v172q143 2 143 162v363q0 106 45 179t123 99v4q-82 33 -125 105t-43 159v381q0 160 -143 162v174q180 -2 268 -91t88 -243z" />
    <glyph glyph-name="exclamdown.cap" horiz-adv-x="524" 
d="M389 0h-252l25 983h203zM385 1397v-230h-244v230h244z" />
    <glyph glyph-name="questiondown.cap" horiz-adv-x="929" 
d="M592 1397v-230h-246v230h246zM367 983h204q1 -119 -21 -191t-85 -147q-57 -57 -99 -108q-42 -50 -46 -62t-18 -42t-15 -98q0 -67 50 -120t132 -53t136 56t54 153h234q-4 -188 -122 -302q-119 -114 -311 -114q-192 -1 -304 107t-113 270q0 119 57 213q58 94 160 186
q57 55 82 111t25 141z" />
    <glyph glyph-name="guillemotleft.cap" horiz-adv-x="997" 
d="M106 672l263 424l143 -78l-180 -346l180 -346l-143 -80zM494 672l262 424l143 -78l-178 -346l178 -346l-143 -80z" />
    <glyph glyph-name="guillemotright.cap" horiz-adv-x="997" 
d="M893 670l-262 -424l-146 78l181 346l-181 348l146 78zM504 670l-262 -424l-144 78l178 346l-178 348l144 78z" />
    <glyph glyph-name="guilsinglleft.cap" horiz-adv-x="610" 
d="M106 672l263 424l143 -78l-180 -346l180 -346l-143 -80z" />
    <glyph glyph-name="guilsinglright.cap" horiz-adv-x="610" 
d="M504 670l-262 -424l-144 78l178 346l-178 348l144 78z" />
    <glyph glyph-name="hyphen.cap" horiz-adv-x="956" 
d="M815 649h-659v193h659v-193z" />
    <glyph glyph-name="endash.cap" horiz-adv-x="1138" 
d="M983 649h-827v193h827v-193z" />
    <glyph glyph-name="emdash.cap" horiz-adv-x="2265" 
d="M2109 649h-1953v193h1953v-193z" />
    <glyph glyph-name="periodcentered.cap" horiz-adv-x="524" 
d="M125 584v276h289v-276h-289z" />
    <glyph glyph-name="at.cap" horiz-adv-x="1927" 
d="M893 383q115 0 185 113q70 112 71 236q0 236 -172 239q-115 -1 -183 -107t-67 -231q0 -125 45 -187t121 -63zM1806 778q0 -238 -116 -392t-287 -153q-106 -1 -173 49t-77 138h-8q-45 -88 -127 -137t-166 -50q-147 -1 -232 105t-85 290t115 339q116 154 302 153
q152 0 228 -139h4l20 119h185l-78 -502q-10 -98 -11 -104q0 -115 119 -115q94 0 154 109q59 110 59 280q0 274 -165 426t-481 152t-504 -206t-189 -496q0 -290 183 -463t493 -173q260 0 413 74l56 -123q-176 -96 -486 -96q-371 0 -602 213t-231 569t245 601t627 245
q203 0 363 -58q291 -106 402 -385q50 -127 50 -270z" />
    <glyph glyph-name="sterling.oldstyle" horiz-adv-x="1200" 
d="M762 526h-254q10 -51 10 -88q0 -133 -78 -198q76 0 181 -37q115 -45 174 -45q111 0 116 151h215q-6 -193 -88 -273t-233 -81q-101 0 -251 57q-150 58 -250 58t-216 -84v202q217 74 217 240q0 33 -12 98h-191v170h148q-18 74 -19 129q1 156 103 266q102 109 294 109
t300 -99q109 -99 119 -274h-220q-16 174 -184 174q-184 0 -184 -192q0 -47 14 -113h289v-170z" />
    <glyph glyph-name="Euro.oldstyle" horiz-adv-x="1056" 
d="M766 145q131 0 238 50v-191q-117 -53 -263 -53q-209 0 -342 106t-182 303h-168l43 154h103q-2 24 -2 70t2 73h-140l45 154h125q51 177 185 283t340 106q141 0 247 -45l-45 -180q-74 35 -192 35q-221 0 -299 -199h448l-39 -154h-444q-4 -25 -4 -73t2 -70h412l-41 -154
h-336q78 -215 307 -215z" />
    <glyph glyph-name="florin.oldstyle" horiz-adv-x="1005" 
d="M112 -254q64 0 102 37t52 121l101 616h-160v193h188l23 153q27 174 110 254q84 80 232 80q72 0 145 -16v-189q-49 12 -100 13q-135 0 -158 -160l-24 -135h176v-193h-203l-100 -618q-29 -178 -111 -263t-231 -85q-86 0 -146 16v188q40 -12 104 -12z" />
    <glyph glyph-name="yen.oldstyle" horiz-adv-x="1122" 
d="M125 498v153h244l-277 508h248l145 -282q47 -90 78 -175h4q27 76 74 172l145 285h246l-280 -508h243v-153h-317v-136h317v-153h-317v-209h-234v209h-319v153h319v136h-319z" />
    <glyph glyph-name="numbersign.oldstyle" horiz-adv-x="1206" 
d="M512 729l-63 -287h241l62 287h-240zM1120 729h-209l-61 -287h213l-33 -145h-211l-63 -297h-160l63 297h-241l-64 -297h-159l65 297h-209l31 145h207l63 287h-211l31 148h213l61 282h158l-59 -282h239l60 282h160l-60 -282h211z" />
    <glyph glyph-name="fi.alt01" horiz-adv-x="1159" 
d="M797 0v981h229v-981h-229zM651 788h-239v-788h-230v788h-139v193h139v51q0 211 117 332t307 121t299 -96t121 -240h-231q-7 55 -51 101t-132 46q-201 0 -200 -252v-63h239v-193z" />
    <glyph glyph-name="fl.alt01" horiz-adv-x="1161" 
d="M653 788h-239v-788h-230v788h-141v193h141v82q0 215 115 318q211 189 729 38v-1419h-229v1268q-85 24 -185 24q-200 -1 -200 -245v-66h239v-193z" />
    <glyph glyph-name="f_f.alt01" horiz-adv-x="1261" 
d="M799 981v162q0 57 10 90q-82 63 -191 63q-108 0 -156 -61t-48 -188v-66h385zM414 788v-788h-230v788h-141v193h141v59q0 217 113 331t295 114t299 -88q76 88 242 88q88 0 149 -19v-188q-61 16 -111 16q-143 0 -143 -155v-158h219v-193h-219v-788h-229v788h-385z" />
    <glyph glyph-name="f_f_i.alt01" horiz-adv-x="1775" 
d="M799 981v55q0 100 28 181q-37 35 -97 57t-107 22q-111 0 -160 -61t-49 -188v-66h385zM1413 0v981h229v-981h-229zM799 788h-385v-788h-230v788h-141v193h141v59q0 215 116 330t304 115t320 -109q115 109 302 109t296 -96t120 -240h-229q-8 55 -52 101t-132 46
q-201 0 -201 -247v-68h240v-193h-240v-788h-229v788z" />
    <glyph glyph-name="f_f_l.alt01" horiz-adv-x="1777" 
d="M799 981v88q0 94 22 154q-93 73 -201 73t-157 -61t-49 -188v-66h385zM799 788h-385v-788h-230v788h-141v193h141v82q0 213 114 317t299 104t314 -102q117 102 317 102t417 -54v-1430h-230v1272q-77 20 -183 20t-155 -59t-49 -186v-66h227v-193h-227v-788h-229v788z" />
    <glyph glyph-name="acute.cap" horiz-adv-x="663" 
d="M508 1847l84 -180l-389 -164l-68 146z" />
    <glyph glyph-name="breve.cap" horiz-adv-x="663" 
d="M326 1530q-148 0 -235 79t-91 206h162q4 -55 49 -87t122 -32t121 33t48 86h164q-8 -129 -100 -207t-240 -78z" />
    <glyph glyph-name="caron.cap" horiz-adv-x="663" 
d="M332 1503l-318 207l66 127l252 -121l254 121l63 -127z" />
    <glyph glyph-name="circumflex.cap" horiz-adv-x="663" 
d="M332 1837l317 -207l-65 -127l-252 121l-252 -121l-66 127z" />
    <glyph glyph-name="dieresis.cap" horiz-adv-x="663" 
d="M410 1583v209h215v-209h-215zM41 1583v209h215v-209h-215z" />
    <glyph glyph-name="dotaccent.cap" horiz-adv-x="663" 
d="M221 1583v213h221v-213h-221z" />
    <glyph glyph-name="grave.cap" horiz-adv-x="663" 
d="M72 1667l86 180l372 -198l-69 -146z" />
    <glyph glyph-name="hungarumlaut.cap" horiz-adv-x="663" 
d="M760 1858l119 -156l-328 -215l-94 127zM356 1858l119 -156l-325 -215l-97 127z" />
    <glyph glyph-name="macron.cap" horiz-adv-x="663" 
d="M621 1591h-578v164h578v-164z" />
    <glyph glyph-name="ring.cap" horiz-adv-x="663" 
d="M76 1722q0 108 75 184t183 74q108 0 183 -74t75 -183q0 -107 -75 -183t-183 -76t-184 76q-74 74 -74 182zM209 1724q0 -51 37 -88t89 -37t87 36t35 88t-35 87t-87 35t-89 -35t-37 -86z" />
    <glyph glyph-name="tilde.cap" horiz-adv-x="663" 
d="M182 1839q88 0 164 -59q78 -59 125 -60q59 0 61 101h146q-10 -262 -211 -262q-88 0 -165 59t-109 59q-56 0 -62 -100h-145q6 119 57 191t139 71z" />
    <glyph glyph-name="caron.alt" horiz-adv-x="663" 
d="M186 1288v187h217v-113q0 -147 -69 -250h-117q49 72 53 176h-84z" />
    <glyph glyph-name="commaaccent.alt" horiz-adv-x="663" 
d="M444 1315v-187h-217v113q0 147 70 250h117q-49 -72 -54 -176h84z" />
    </font>
</defs>
</svg>
