<svg xmlns="http://www.w3.org/2000/svg" viewBox="0 0 46.65 60.13"><defs><style>.cls-1{fill:#ff6969;}</style></defs><title>500px</title><g id="Layer_2" data-name="Layer 2"><g id="Layer_1-2" data-name="Layer 1"><path class="cls-1" d="M46.45,51.91l-.18.24a27.56,27.56,0,0,1-19.35,8A26.88,26.88,0,0,1,16.33,58,27.59,27.59,0,0,1,1.81,43.51,28.63,28.63,0,0,1,0,37.15Q-.11,36.25,1.6,36t1.89.63v.12A34.39,34.39,0,0,0,5,42.07a22.74,22.74,0,0,0,5.1,7.56,23.8,23.8,0,0,0,26,5.1,22.74,22.74,0,0,0,7.56-5.1l.18-.18a.74.74,0,0,1,.84-.18,2.27,2.27,0,0,1,1.08.72Q47,51.25,46.45,51.91Zm-1.51-19A18.85,18.85,0,0,1,33.28,50.42a19.86,19.86,0,0,1-7.4,1.52,17.2,17.2,0,0,1-7.4-1.52,21.62,21.62,0,0,1-6.12-4.08,18.52,18.52,0,0,1-4.08-6.06A5.16,5.16,0,0,1,7.82,39H7.69a2.38,2.38,0,0,1,1.41-.92q1.71-.57,2.07.39A17.55,17.55,0,0,0,14.4,44h.08V32.65a10.54,10.54,0,0,1,3.4-7.8,11.58,11.58,0,0,1,8.43-3.42,11.58,11.58,0,0,1,8.43,3.42,11.25,11.25,0,0,1,3.48,8.34A11.88,11.88,0,0,1,26.35,45.07a13.11,13.11,0,0,1-3.78-.54q-.9-.36-.39-2t1.47-1.44l.42.12a7.33,7.33,0,0,0,1.14.18l1,.12a8.19,8.19,0,0,0,8.28-8.22,7.73,7.73,0,0,0-2.4-5.76,8.18,8.18,0,0,0-5.94-2.34,7.53,7.53,0,0,0-5.88,2.64c-1.44,1.64-1.8,5.4-1.8,5.4V46.88a14.89,14.89,0,0,0,8,2.26,15.4,15.4,0,0,0,6.13-1.25A17,17,0,0,0,38.32,44a14.42,14.42,0,0,0,2.52-3.63,16,16,0,0,0,1.64-7.07A15.32,15.32,0,0,0,37.83,22a15.36,15.36,0,0,0-11.28-4.64A15.36,15.36,0,0,0,15.27,22a20.27,20.27,0,0,0-2.56,2.86l-.48.59a1.2,1.2,0,0,1-.71.3,3,3,0,0,1-1.31-.06A2.81,2.81,0,0,1,9,25.1a1.42,1.42,0,0,1-.54-.83V1.39S8.17.77,8.4.49A1.62,1.62,0,0,1,9.31,0h29.4c.64.13,1,.75,1,2s-.32,1.84-1,2H11.49V20h.06a17.55,17.55,0,0,1,3.32-2.74,24.93,24.93,0,0,1,3.5-2,18.9,18.9,0,0,1,7.49-1.52,18.49,18.49,0,0,1,7.43,1.52,19.37,19.37,0,0,1,6.06,4.08,18.5,18.5,0,0,1,4.14,6.06A20.09,20.09,0,0,1,44.94,32.88Zm0-19.07a.74.74,0,0,1,.3.6,1,1,0,0,1-.18.6l-.54.66q-.9.9-1.26.9a.81.81,0,0,1-.6-.24,25.69,25.69,0,0,0-6.9-4.44A23.13,23.13,0,0,0,26.52,10a24.93,24.93,0,0,0-8.82,1.62q-.9.3-1.5-1.26A3.06,3.06,0,0,1,16,9.07a.66.66,0,0,1,.54-.6,24.48,24.48,0,0,1,10-1.92A26.81,26.81,0,0,1,37.09,8.71,25.42,25.42,0,0,1,44.94,13.81ZM30.19,31.33,28,33.55l2.1,2.1q.72.72-.24,1.62a1.64,1.64,0,0,1-1,.6.91.91,0,0,1-.72-.36l-2-2-2.22,2.22a.65.65,0,0,1-.48.18,1.56,1.56,0,0,1-1.08-.54l-.06-.06a1.45,1.45,0,0,1-.6-1,1,1,0,0,1,.3-.6l2.16-2.16L22,31.33q-.54-.54.42-1.5a1.66,1.66,0,0,1,1.08-.6.74.74,0,0,1,.42.18L26,31.63l2.22-2.22q.6-.54,1.53.42T30.19,31.33Z"/></g></g></svg>