<svg xmlns="http://www.w3.org/2000/svg" viewBox="0 0 56.22 56.19"><defs><style>.cls-1{fill:#ff6969;}</style></defs><title>Github</title><g id="Layer_2" data-name="Layer 2"><g id="Layer_1-2" data-name="Layer 1"><path class="cls-1" d="M3.78,14A27.45,27.45,0,0,1,14,3.78,26.87,26.87,0,0,1,28.14,0a27.84,27.84,0,0,1,14.1,3.72,27.9,27.9,0,0,1,14,24.3A28,28,0,0,1,52.5,42.18a27.92,27.92,0,0,1-24.36,14A28.06,28.06,0,0,1,14,52.44,27.46,27.46,0,0,1,3.78,42.18,26.87,26.87,0,0,1,0,28.08,28.17,28.17,0,0,1,3.78,14ZM7.2,37.61a22.53,22.53,0,0,0,5.72,7.86,22.87,22.87,0,0,0,8.46,4.77V44.1a19.1,19.1,0,0,1-2.5.3,5.63,5.63,0,0,1-5.54-3.63A9,9,0,0,0,12,38.44a5.17,5.17,0,0,0-.77-.71l-1-.83c-.36-.28-.54-.48-.54-.6q0-.42,1-.42a4,4,0,0,1,3.28,1.79c.08,0,.18.14.3.42s.24.42.36.42.22.14.3.42.2.44.36.48a.72.72,0,0,1,.42.36,1,1,0,0,0,.42.42,3.23,3.23,0,0,1,.48.3,4.22,4.22,0,0,0,2,.48,9.32,9.32,0,0,0,3-.48,6,6,0,0,1,2.26-3.22q-6.14-.54-9-3.1t-2.86-8.1a10.13,10.13,0,0,1,2.68-7.21,9.26,9.26,0,0,1-.54-3,8.57,8.57,0,0,1,1-4,9.29,9.29,0,0,1,3.63.65,20,20,0,0,1,3.75,2.26,27.46,27.46,0,0,1,6.14-.66,26.33,26.33,0,0,1,5.6.6,21.41,21.41,0,0,1,3.75-2.2,9,9,0,0,1,3.51-.65,8.58,8.58,0,0,1,1,4,9.62,9.62,0,0,1-.54,3,10.26,10.26,0,0,1,2.68,7.21q-.06,5.54-2.86,8.1t-8.94,3.1A5.48,5.48,0,0,1,35.38,42v8.22a22.4,22.4,0,0,0,8.46-4.77,23.15,23.15,0,0,0,7.8-17.4,24,24,0,0,0-1.85-9A22.79,22.79,0,0,0,37.35,6.63a24.24,24.24,0,0,0-8.94-1.79,21.82,21.82,0,0,0-9,1.79,23.88,23.88,0,0,0-7.45,5,23.08,23.08,0,0,0-5,7.48,22.8,22.8,0,0,0-1.85,9A24.07,24.07,0,0,0,7.2,37.61Z"/></g></g></svg>