<svg xmlns="http://www.w3.org/2000/svg" viewBox="0 0 55.28 44.47"><defs><style>.cls-1{fill:#ff6969;}</style></defs><title>Mail</title><g id="Layer_2" data-name="Layer 2"><g id="Layer_1-2" data-name="Layer 1"><path class="cls-1" d="M53.64.09A1.34,1.34,0,0,1,55,.27a1,1,0,0,1,.24,1.14q-.12.36-4.32,18.6T46.44,39a1.35,1.35,0,0,1-.84,1.14A1.65,1.65,0,0,1,44.16,40L27.48,31l1.32-1.56Q52.08,4.29,52.44,3.93c.16-.16.14-.34-.06-.54s-.38-.22-.54-.06l-33,24.12-6.72-2.64L.72,20.25Q0,20,0,19.53t.72-.72q.48-.24,26.46-9.42T53.64.09ZM18.94,43.77V31.53l9.6,4.92q-7.8,7-8.52,7.68Q18.95,45,18.94,43.77Z"/></g></g></svg>